M48
;DRILL file {KiCad 5.0.0-rc2-dev-unknown-f2bb398~62~ubuntu17.10.1} date Wed Mar  7 22:53:56 2018
;FORMAT={-:-/ absolute / inch / decimal}
FMAT,2
INCH,TZ
T1C0.0157
T2C0.0181
T3C0.0197
T4C0.0400
%
G90
G05
M72
T1
X5.4724Y-3.7795
X5.4724Y-3.8386
X5.4724Y-3.8976
X5.4724Y-3.9567
X5.6693Y-3.8878
X5.6693Y-3.937
X5.7321Y-3.1693
X5.7321Y-3.1693
X5.8268Y-3.1732
X5.8926Y-3.1904
X5.9016Y-3.5787
X5.9467Y-3.3749
X6.0276Y-3.1654
X6.2165Y-3.3661
X6.303Y-3.63
T2
X5.4181Y-3.9992
X5.763Y-3.9992
T3
X5.4173Y-3.937
X5.4705Y-3.0098
X5.5709Y-3.1791
X5.6496Y-3.626
X5.6496Y-3.8189
X5.6969Y-3.4803
X5.7207Y-3.9801
X5.8425Y-3.8376
X5.8524Y-4.1949
X5.9055Y-3.9272
X5.9055Y-4.185
X5.9508Y-3.815
X5.9764Y-3.9281
X6.0246Y-3.939
X6.0531Y-3.9961
X6.0571Y-4.0994
X6.122Y-3.1693
X6.2185Y-3.0098
X6.3091Y-4.1909
T4
X5.403Y-3.03
X5.403Y-3.13
X5.403Y-3.23
X5.403Y-3.33
X5.403Y-3.43
X5.403Y-3.53
X5.403Y-3.63
X5.403Y-3.73
X6.303Y-3.03
X6.303Y-3.13
X6.303Y-3.23
X6.303Y-3.33
X6.303Y-3.43
X6.303Y-3.53
X6.303Y-3.63
X6.303Y-3.73
T0
M30
