M48
;FILE_FORMAT=2:4
INCH,LZ
FMAT,2
ICI,OFF
;TYPE=PLATED
T1C.00984
T2C.012
T3C.02362
T4C.03543
%
M72
G90
G93X0Y0
T1C.00984F0S0
X19795Y15788
X19855Y15788
X19895Y15863
X19945Y15863
X19795Y15913
X19795Y16013
X19795Y16113
X19795Y16213
X19895Y16293
X19895Y16323
X19795Y16328
X19835Y16353
X19795Y16373
X19835Y16398
X19795Y16418
X19835Y16443
X1988Y16473
X19795Y16508
X19795Y16608
X19965Y16693
X19795Y16703
X19965Y16743
X19965Y16793
X19965Y16823
X19965Y16943
X19965Y16993
X19795Y17013
X19965Y17043
X19965Y17093
X19795Y17108
X19965Y17143
X19965Y17213
X19965Y17338
X19795Y17403
X19965Y17443
X19795Y17473
X19845Y17578
X19955Y17578
X19805Y17598
X19845Y17618
X19955Y17618
X19995Y17618
X20035Y17618
X20115Y17618
X20075Y17618
X20155Y17618
X20195Y17618
X20095Y17538
X202Y17538
X1999Y17493
X20095Y17468
X202Y17468
X201Y17383
X202Y17383
X2015Y17383
X201Y17333
X2015Y17333
X202Y17333
X201Y17283
X2015Y17283
X202Y17283
X201Y17233
X2015Y17233
X202Y17233
X201Y17183
X2015Y17183
X202Y17183
X20095Y17078
X202Y17078
X20095Y16998
X202Y16998
X20145Y16693
X2019Y16648
X20155Y16648
X2012Y16648
X20085Y16648
X1999Y16648
X2019Y16613
X2019Y16578
X19985Y16498
X19985Y16468
X19985Y16438
X2016Y16363
X2021Y16363
X201Y16353
X2Y16333
X2Y16293
X201Y16288
X20225Y16278
X2019Y16278
X20225Y16248
X2019Y16248
X2Y16213
X2019Y16213
X20225Y16213
X2019Y16183
X20225Y16183
X201Y16173
X2Y16173
X2Y16138
X20205Y16083
X20055Y16018
X202084Y160105
X20025Y15938
X1999Y15788
X20435Y15788
X2029Y16003
X2032Y16003
X20245Y16008
X20325Y16043
X2039Y16048
X20445Y16048
X20355Y16068
X2026Y16083
X20325Y16083
X20465Y16083
X20395Y16093
X20355Y16098
X20325Y16118
X20355Y16138
X2026Y16183
X2029Y16183
X2043Y16188
X2026Y16213
X2029Y16213
X2043Y16233
X2026Y16248
X2029Y16248
X2026Y16278
X2029Y16278
X20365Y16288
X2046Y16293
X20315Y16363
X2027Y16363
X2024Y16363
X20385Y16398
X2034Y16398
X2032Y16633
X20435Y16643
X20455Y16658
X2034Y16693
X20235Y16783
X203Y16998
X204Y16998
X203Y17078
X204Y17078
X2025Y17183
X203Y17183
X204Y17233
X2025Y17233
X203Y17233
X203Y17283
X2025Y17283
X2025Y17333
X203Y17333
X204Y17333
X203Y17383
X2025Y17383
X20435Y17388
X20455Y17438
X204Y17468
X203Y17468
X203Y17538
X204Y17538
X20235Y17618
X20315Y17618
X20275Y17618
X20395Y17618
X20435Y17618
X20355Y17618
X20475Y17618
X20515Y17618
X2063Y17618
X20675Y17618
X20515Y17578
X2063Y17573
X20675Y17573
X20675Y17503
X2049Y17333
X2049Y17233
X20675Y17208
X2051Y17193
X2051Y17143
X20675Y17113
X2051Y17093
X20675Y17073
X2051Y17043
X2051Y16993
X2051Y16943
X2051Y16893
X2051Y16823
X2051Y16793
X20505Y16743
X20675Y16708
X20485Y16693
X20675Y16608
X20675Y16508
X2063Y16453
X20605Y164278
X20675Y16408
X2063Y16353
X20675Y16308
X2063Y16253
X20675Y16203
X2059Y16193
X20675Y16108
X2059Y16098
X20675Y16013
X20675Y15908
X20575Y15863
X20525Y15863
X20495Y15788
X2061Y15788
X2067Y15788
T2C.012F0S0
X20035Y15823
X20095Y16023
X1997Y16078
X20025Y16358
X20065Y16358
X20055Y16493
X20055Y16528
X20035Y17513
X20035Y17543
X2037Y16023
X20435Y15823
T3C.02362F0S0
X201553Y159057
X203128Y159057
X200962Y158049G85X200962Y158364
X203718Y158049G85X203718Y158364
X200962Y159506G85X200962Y15982
X203718Y159506G85X203718Y15982
T4C.03543F0S0
X19734Y157988
X19734Y158988
X19734Y159988
X19734Y160988
X19734Y161988
X19734Y162988
X19734Y163988
X19734Y164988
X19734Y165988
X19734Y166988
X19734Y167988
X19734Y168988
X19734Y169988
X19734Y170988
X19734Y171988
X19734Y172988
X19734Y173988
X19734Y174988
X19734Y175988
X20734Y175988
X20734Y174988
X20734Y173988
X20734Y172988
X20734Y171988
X20734Y170988
X20734Y169988
X20734Y168988
X20734Y167988
X20734Y166988
X20734Y165988
X20734Y164988
X20734Y163988
X20734Y162988
X20734Y161988
X20734Y160988
X20734Y159988
X20734Y158988
X20734Y157988
M30
