*
*
G04 PADS VX.2 Build Number: 5060570 generated Gerber (RS-274-X) file*
G04 PC Version=2.1*
*
%IN "ESP32_DevKitc_V4-201712"*%
*
%MOIN*%
*
%FSLAX35Y35*%
*
*
*
*
G04 PC Standard Apertures*
*
*
G04 Thermal Relief Aperture macro.*
%AMTER*
1,1,$1,0,0*
1,0,$1-$2,0,0*
21,0,$3,$4,0,0,45*
21,0,$3,$4,0,0,135*
%
*
*
G04 Annular Aperture macro.*
%AMANN*
1,1,$1,0,0*
1,0,$2,0,0*
%
*
*
G04 Odd Aperture macro.*
%AMODD*
1,1,$1,0,0*
1,0,$1-0.005,0,0*
%
*
*
G04 PC Custom Aperture Macros*
*
*
*
*
*
*
G04 PC Aperture Table*
*
%ADD010C,0.001*%
%ADD011R,0.02X0.02*%
%ADD024C,0.005*%
%ADD064R,0.036X0.032*%
%ADD069R,0.03543X0.07874*%
%ADD070R,0.07874X0.03543*%
%ADD075R,0.0315X0.0315*%
%ADD144R,0.05906X0.07874*%
%ADD181R,0.03543X0.00984*%
%ADD182R,0.00984X0.03543*%
%ADD183R,0.12795X0.12795*%
%ADD212R,0.02559X0.03937*%
%ADD303R,0.23622X0.23622*%
%ADD321R,0.01575X0.0189*%
%ADD367R,0.02362X0.05315*%
%ADD368R,0.00984X0.05315*%
%ADD370R,0.02323X0.01772*%
%ADD371R,0.07874X0.05906*%
%ADD372R,0.07874X0.14961*%
*
*
*
*
G04 PC Circuitry*
G04 Layer Name ESP32_DevKitc_V4-201712 - circuitry*
%LPD*%
*
*
G04 PC Custom Flashes*
G04 Layer Name ESP32_DevKitc_V4-201712 - flashes*
%LPD*%
*
*
G04 PC Circuitry*
G04 Layer Name ESP32_DevKitc_V4-201712 - circuitry*
%LPD*%
*
G54D10*
G01X1971504Y1574803D02*
X1971507D01*
X1971004Y1764803D02*
X1971007D01*
X1968504Y1576803D02*
X1968507D01*
X2078504Y1579303D02*
X2078507D01*
G54D11*
X2002504Y1601803D03*
Y1597803D03*
X2044504Y1601803D03*
Y1597803D03*
X2006504Y1629303D03*
X2002504D03*
X1995504Y1647803D03*
X1991504D03*
Y1639803D03*
X1995504D03*
Y1643803D03*
X1991504D03*
X2043004Y1629303D03*
Y1633303D03*
X2039504Y1629303D03*
Y1633303D03*
X1993004Y1613303D03*
Y1617303D03*
X2043004Y1615803D03*
Y1611803D03*
X2039504Y1615803D03*
Y1611803D03*
X2002504Y1632803D03*
X2006504D03*
X2002504Y1621303D03*
X2006504D03*
X2002504Y1625303D03*
X2006504D03*
Y1617303D03*
Y1613303D03*
X2002504D03*
Y1617303D03*
G54D24*
X1972441Y1764803D02*
G75*
G03X1968504Y1760866I-0J-3937D01*
G01X1972441Y1764803D02*
X2074567D01*
X2078504Y1760866D02*
G03X2074567Y1764803I-3937J0D01*
G01X2078504Y1760866D02*
Y1578740D01*
X2074567Y1574803D02*
G03X2078504Y1578740I-0J3937D01*
G01X2074567Y1574803D02*
X1972441D01*
X1968504Y1578740D02*
G03X1972441Y1574803I3937J0D01*
G01X1968504Y1578740D02*
Y1760866D01*
X1943004Y1574803D02*
Y1664928D01*
Y1574803D02*
X1942004Y1579803D01*
X1944004*
X1943004Y1574803*
Y1764803D02*
Y1674678D01*
Y1764803D02*
X1944004Y1759803D01*
X1942004*
X1943004Y1764803*
X1969504Y1574803D02*
X1941004D01*
X1969004Y1764803D02*
X1941004D01*
X1936299Y1671209D02*
X1935163Y1669022D01*
X1936868*
X1936299Y1671209D02*
Y1667928D01*
X1938458Y1671209D02*
X1938118Y1671053D01*
X1938004Y1670741*
Y1670428*
X1938118Y1670116*
X1938345Y1669959*
X1938799Y1669803*
X1939140Y1669647*
X1939368Y1669334*
X1939481Y1669022*
Y1668553*
X1939368Y1668241*
X1939254Y1668084*
X1938913Y1667928*
X1938458*
X1938118Y1668084*
X1938004Y1668241*
X1937890Y1668553*
Y1669022*
X1938004Y1669334*
X1938231Y1669647*
X1938572Y1669803*
X1939027Y1669959*
X1939254Y1670116*
X1939368Y1670428*
Y1670741*
X1939254Y1671053*
X1938913Y1671209*
X1938458*
X1940618Y1668241D02*
X1940504Y1668084D01*
X1940618Y1667928*
X1940731Y1668084*
X1940618Y1668241*
X1941868Y1670428D02*
Y1670584D01*
X1941981Y1670897*
X1942095Y1671053*
X1942322Y1671209*
X1942777*
X1943004Y1671053*
X1943118Y1670897*
X1943231Y1670584*
Y1670272*
X1943118Y1669959*
X1942890Y1669491*
X1941754Y1667928*
X1943345*
X1944368Y1670116D02*
Y1667928D01*
Y1669491D02*
X1944708Y1669959D01*
X1944936Y1670116*
X1945277*
X1945504Y1669959*
X1945618Y1669491*
Y1667928*
Y1669491D02*
X1945958Y1669959D01*
X1946186Y1670116*
X1946527*
X1946754Y1669959*
X1946868Y1669491*
Y1667928*
X1947890Y1670116D02*
Y1667928D01*
Y1669491D02*
X1948231Y1669959D01*
X1948458Y1670116*
X1948799*
X1949027Y1669959*
X1949140Y1669491*
Y1667928*
Y1669491D02*
X1949481Y1669959D01*
X1949708Y1670116*
X1950049*
X1950277Y1669959*
X1950390Y1669491*
Y1667928*
X1968504Y1555803D02*
X2012777D01*
X1968504D02*
X1973504Y1556803D01*
Y1554803*
X1968504Y1555803*
X2078504D02*
X2034231D01*
X2078504D02*
X2073504Y1554803D01*
Y1556803*
X2078504Y1555803*
X1968504Y1574803D02*
Y1553803D01*
X2078504Y1577303D02*
Y1553803D01*
X2015890Y1556428D02*
Y1556584D01*
X2016004Y1556897*
X2016118Y1557053*
X2016345Y1557209*
X2016799*
X2017027Y1557053*
X2017140Y1556897*
X2017254Y1556584*
Y1556272*
X2017140Y1555959*
X2016913Y1555491*
X2015777Y1553928*
X2017368*
X2019981Y1557209D02*
X2018845Y1553928D01*
X2018390Y1557209D02*
X2019981D01*
X2021118Y1554241D02*
X2021004Y1554084D01*
X2021118Y1553928*
X2021231Y1554084*
X2021118Y1554241*
X2023731Y1556116D02*
X2023618Y1555647D01*
X2023390Y1555334*
X2023049Y1555178*
X2022936*
X2022595Y1555334*
X2022368Y1555647*
X2022254Y1556116*
Y1556272*
X2022368Y1556741*
X2022595Y1557053*
X2022936Y1557209*
X2023049*
X2023390Y1557053*
X2023618Y1556741*
X2023731Y1556116*
Y1555334*
X2023618Y1554553*
X2023390Y1554084*
X2023049Y1553928*
X2022822*
X2022481Y1554084*
X2022368Y1554397*
X2024754Y1556116D02*
Y1553928D01*
Y1555491D02*
X2025095Y1555959D01*
X2025322Y1556116*
X2025663*
X2025890Y1555959*
X2026004Y1555491*
Y1553928*
Y1555491D02*
X2026345Y1555959D01*
X2026572Y1556116*
X2026913*
X2027140Y1555959*
X2027254Y1555491*
Y1553928*
X2028277Y1556116D02*
Y1553928D01*
Y1555491D02*
X2028618Y1555959D01*
X2028845Y1556116*
X2029186*
X2029413Y1555959*
X2029527Y1555491*
Y1553928*
Y1555491D02*
X2029868Y1555959D01*
X2030095Y1556116*
X2030436*
X2030663Y1555959*
X2030777Y1555491*
Y1553928*
G54D64*
X2001504Y1646553D03*
Y1640053D03*
Y1660553D03*
Y1654053D03*
X1993004Y1660553D03*
Y1654053D03*
G54D69*
X2001142Y1688149D03*
X2006142D03*
X2011142D03*
X2016142D03*
X2021142D03*
X2026142D03*
X2031142D03*
X2036142D03*
X2041142D03*
X2046142D03*
G54D70*
X1990139Y1759055D03*
Y1754055D03*
Y1749055D03*
Y1744055D03*
Y1739055D03*
Y1734055D03*
Y1729055D03*
Y1724055D03*
Y1719055D03*
Y1714055D03*
Y1709055D03*
Y1704055D03*
Y1699055D03*
Y1694055D03*
X2057068D03*
Y1699055D03*
Y1704055D03*
Y1709055D03*
Y1714055D03*
Y1719055D03*
Y1724055D03*
Y1729055D03*
Y1734055D03*
Y1739055D03*
Y1744055D03*
Y1749055D03*
Y1754055D03*
Y1759055D03*
X1990157D03*
Y1754055D03*
Y1749055D03*
Y1744055D03*
Y1739055D03*
Y1734055D03*
Y1729055D03*
Y1724055D03*
Y1719055D03*
Y1714055D03*
Y1709055D03*
Y1704055D03*
Y1699055D03*
Y1694055D03*
Y1689055D03*
Y1684055D03*
Y1679055D03*
Y1674055D03*
Y1669055D03*
X2057087D03*
Y1674055D03*
Y1679055D03*
Y1684055D03*
Y1689055D03*
Y1694055D03*
Y1699055D03*
Y1704055D03*
Y1709055D03*
Y1714055D03*
Y1719055D03*
Y1724055D03*
Y1729055D03*
Y1734055D03*
Y1739055D03*
Y1744055D03*
Y1749055D03*
Y1754055D03*
Y1759055D03*
G54D75*
X1993004Y1623303D03*
Y1629602D03*
G54D144*
X2055118Y1580165D03*
Y1599850D03*
X1992126Y1580165D03*
Y1599850D03*
G54D181*
X2014173Y1628921D03*
Y1626953D03*
Y1624984D03*
Y1623016D03*
Y1621047D03*
Y1619079D03*
Y1617110D03*
X2033071D03*
Y1619079D03*
Y1621047D03*
Y1623016D03*
Y1624984D03*
Y1626953D03*
Y1628921D03*
G54D182*
X2029528Y1632465D03*
X2027559D03*
X2025591D03*
X2023622D03*
X2021654D03*
X2019685D03*
X2017717D03*
Y1613567D03*
X2019685D03*
X2021654D03*
X2023622D03*
X2025591D03*
X2027559D03*
X2029528D03*
G54D183*
X2023622Y1623016D03*
G54D212*
X2057323Y1624831D03*
X2049685D03*
X2053504Y1615775D03*
X2049685Y1646775D03*
X2057323D03*
X2053504Y1655831D03*
G54D303*
X2020139Y1728365D03*
X2020157D03*
G54D321*
X2023004Y1603205D03*
Y1608402D03*
X2028504Y1603205D03*
Y1608402D03*
X2017504Y1603205D03*
Y1608402D03*
G54D367*
X2017640Y1595843D03*
X2029122D03*
G54D368*
X2020845D03*
X2023404D03*
X2025963D03*
G54D370*
X2000354Y1607803D03*
X2008661D03*
G54D371*
X2011504Y1659358D03*
Y1650303D03*
Y1641248D03*
G54D372*
X2036307Y1650303D03*
G74*
X0Y0D02*
M02*
