*
*
G04 PADS VX.2 Build Number: 5060570 generated Gerber (RS-274-X) file*
G04 PC Version=2.1*
*
%IN "ESP32_DevKitc_V4-201712"*%
*
%MOIN*%
*
%FSLAX35Y35*%
*
*
*
*
G04 PC Standard Apertures*
*
*
G04 Thermal Relief Aperture macro.*
%AMTER*
1,1,$1,0,0*
1,0,$1-$2,0,0*
21,0,$3,$4,0,0,45*
21,0,$3,$4,0,0,135*
%
*
*
G04 Annular Aperture macro.*
%AMANN*
1,1,$1,0,0*
1,0,$2,0,0*
%
*
*
G04 Odd Aperture macro.*
%AMODD*
1,1,$1,0,0*
1,0,$1-0.005,0,0*
%
*
*
G04 PC Custom Aperture Macros*
*
*
*
*
*
*
G04 PC Aperture Table*
*
%ADD010C,0.001*%
%ADD024C,0.005*%
*
*
*
*
G04 PC Circuitry*
G04 Layer Name ESP32_DevKitc_V4-201712 - circuitry*
%LPD*%
*
G54D10*
G01X2066565Y1577138D02*
X2066510Y1577627D01*
X2066411Y1577975*
X2066024*
X2066161Y1577656*
X2066165Y1577643*
X2066220Y1577198*
X2066221Y1577192*
X2066219Y1577180*
X2066108Y1576735*
X2066098Y1576716*
X2065820Y1576382*
X2065804Y1576370*
X2065360Y1576147*
X2065342Y1576142*
X2064787Y1576087*
X2064777*
X2064166Y1576142*
X2064148Y1576147*
X2063704Y1576370*
X2063688Y1576382*
X2063410Y1576716*
X2063399Y1576741*
X2063343Y1577186*
Y1577198*
X2063399Y1577643*
X2063402Y1577656*
X2063539Y1577975*
X2063205*
X2063053Y1577569*
X2062998Y1577133*
Y1576811*
X2063105Y1576491*
X2063268Y1576220*
X2063427Y1576008*
X2063693Y1575848*
X2063961Y1575741*
X2064727Y1575631*
X2065163Y1575686*
X2065487Y1575740*
X2066082Y1576064*
X2066457Y1576547*
X2066510Y1576812*
X2066565Y1577138*
X2066509Y1579420D02*
X2063393D01*
X2063343Y1579470*
Y1580975*
X2063054*
Y1579020*
X2066509*
Y1579420*
Y1584090D02*
X2064868Y1582819D01*
X2064807*
X2063054Y1584147*
Y1583662*
X2064756Y1582399*
X2064726Y1582309*
X2063054*
Y1581909*
X2066509*
Y1582309*
X2064893*
X2064862Y1582398*
X2066509Y1583661*
Y1584090*
Y1588022D02*
X2066400Y1588730D01*
X2066077Y1589269*
X2065869Y1589425*
X2065548Y1589532*
X2064836Y1589642*
X2064346Y1589587*
X2063912Y1589479*
X2063537Y1589264*
X2063271Y1588945*
X2063109Y1588460*
X2063054Y1587856*
Y1587131*
X2066509*
Y1588022*
X2066221Y1587970D02*
Y1587581D01*
X2066171Y1587531*
X2063448*
X2063398Y1587581*
Y1587914*
X2063399Y1587919*
X2063454Y1588475*
X2063463Y1588499*
X2063741Y1588888*
X2063759Y1588903*
X2064204Y1589126*
X2064221Y1589131*
X2064777Y1589186*
X2064782*
X2065171*
X2065180*
X2065458Y1589130*
X2065473Y1589124*
X2065862Y1588902*
X2065876Y1588891*
X2066153Y1588557*
X2066165Y1588530*
X2066220Y1587975*
X2066221Y1587970*
X2066564Y1591413D02*
X2066457Y1591893D01*
X2066139Y1592317*
X2065599Y1592534*
X2065219Y1592642*
X2064784*
X2064017Y1592587*
X2063475Y1592316*
X2063262Y1592156*
X2063106Y1591949*
X2063053Y1591683*
X2062999Y1591360*
X2063107Y1590876*
X2063212Y1590666*
X2063422Y1590455*
X2063634Y1590349*
X2063963Y1590240*
X2064344Y1590131*
X2064778*
X2065491Y1590241*
X2066086Y1590457*
X2066458Y1590883*
X2066510Y1591091*
X2066510D02*
X2066564Y1591413D01*
X2066274Y1591398D02*
X2066162Y1591065D01*
X2066150Y1591046*
X2065873Y1590768*
X2065855Y1590756*
X2065410Y1590590*
X2065397Y1590587*
X2064786Y1590531*
X2064782*
X2064448*
X2064408Y1590611*
X2065519Y1592111*
X2065578Y1592127*
X2065856Y1592016*
X2065860Y1592015*
X2066082Y1591903*
X2066104Y1591881*
X2066215Y1591659*
X2066219Y1591649*
X2066275Y1591426*
X2066274Y1591398*
X2065155Y1592162D02*
X2064044Y1590662D01*
X2063985Y1590646*
X2063708Y1590757*
X2063704Y1590758*
X2063482Y1590870*
X2063459Y1590892*
X2063348Y1591114*
X2063344Y1591127*
X2063288Y1591404*
X2063290Y1591430*
X2063401Y1591763*
X2063413Y1591783*
X2063635Y1592005*
X2063653Y1592017*
X2064097Y1592183*
X2064111Y1592186*
X2064722Y1592242*
X2064726*
X2065115*
X2065155Y1592162*
X2066509Y1598522D02*
X2066400Y1599230D01*
X2066077Y1599769*
X2065869Y1599925*
X2065548Y1600032*
X2064836Y1600142*
X2064346Y1600087*
X2063912Y1599979*
X2063537Y1599764*
X2063271Y1599445*
X2063109Y1598960*
X2063054Y1598356*
Y1597631*
X2066509*
Y1598522*
X2066221Y1598470D02*
Y1598081D01*
X2066171Y1598031*
X2063448*
X2063398Y1598081*
Y1598414*
X2063399Y1598419*
X2063454Y1598975*
X2063463Y1598999*
X2063741Y1599388*
X2063759Y1599403*
X2064204Y1599626*
X2064221Y1599631*
X2064777Y1599686*
X2064782*
X2065171*
X2065180*
X2065458Y1599630*
X2065473Y1599624*
X2065862Y1599402*
X2065876Y1599391*
X2066153Y1599057*
X2066165Y1599030*
X2066220Y1598475*
X2066221Y1598470*
X2066509Y1602253D02*
X2063448D01*
X2063398Y1602303*
Y1603031*
X2063054*
Y1600909*
X2063398*
Y1601748*
X2063448Y1601798*
X2066115*
X2066157Y1601720*
X2065634Y1600937*
X2065926Y1600811*
X2066509Y1601872*
Y1602253*
Y1608698D02*
X2063448D01*
X2063398Y1608748*
Y1609475*
X2063054*
Y1607353*
X2063398*
Y1608192*
X2063448Y1608242*
X2066115*
X2066157Y1608164*
X2065634Y1607381*
X2065926Y1607256*
X2066509Y1608316*
Y1608698*
Y1612309D02*
X2066221D01*
Y1610914*
X2066171Y1610864*
X2065171*
X2065121Y1610914*
Y1611245*
X2065066Y1611735*
X2064906Y1612108*
X2064585Y1612429*
X2064381Y1612531*
X2063905*
X2063698Y1612428*
X2063321Y1612104*
X2063053Y1611621*
X2062998Y1611078*
Y1610409*
X2063334*
X2063288Y1610684*
X2063287Y1610692*
Y1611081*
X2063288Y1611088*
X2063343Y1611477*
X2063350Y1611496*
X2063517Y1611773*
X2063524Y1611783*
X2063746Y1612005*
X2063773Y1612019*
X2064107Y1612075*
X2064125Y1612074*
X2064403Y1612019*
X2064423Y1612010*
X2064645Y1611843*
X2064662Y1611819*
X2064774Y1611486*
X2064776Y1611477*
X2064831Y1611088*
X2064832Y1611081*
Y1610464*
X2066509*
Y1612309*
X2066564Y1620304D02*
X2066511Y1620676D01*
X2066300Y1621046*
X2065986Y1621255*
X2065560Y1621308*
X2065186Y1621255*
X2064865Y1621094*
X2064536Y1620821*
X2064094Y1620433*
X2063484Y1619823*
X2063398Y1619859*
Y1621475*
X2063054*
Y1619242*
X2063373*
X2064302Y1620117*
X2064691Y1620505*
X2064695Y1620509*
X2064973Y1620731*
X2064985Y1620738*
X2065263Y1620850*
X2065282Y1620853*
X2065559*
X2065572Y1620852*
X2065794Y1620796*
X2065804Y1620792*
X2066026Y1620681*
X2066046Y1620664*
X2066157Y1620498*
X2066164Y1620480*
X2066220Y1620202*
X2066219Y1620178*
X2066108Y1619789*
X2066098Y1619771*
X2065852Y1619476*
X2066107Y1619264*
X2066404Y1619660*
X2066511Y1619982*
X2066564Y1620304*
Y1629857D02*
X2066457Y1630337D01*
X2066139Y1630762*
X2065599Y1630978*
X2065219Y1631086*
X2064784*
X2064017Y1631032*
X2063475Y1630760*
X2063262Y1630601*
X2063106Y1630393*
X2063053Y1630127*
X2062999Y1629805*
X2063107Y1629320*
X2063212Y1629111*
X2063422Y1628900*
X2063634Y1628794*
X2063963Y1628684*
X2064344Y1628575*
X2064778*
X2065491Y1628685*
X2066086Y1628901*
X2066458Y1629327*
X2066510Y1629536*
X2066510D02*
X2066564Y1629857D01*
X2066274Y1629843D02*
X2066162Y1629510D01*
X2066150Y1629490*
X2065873Y1629212*
X2065855Y1629201*
X2065410Y1629034*
X2065397Y1629031*
X2064786Y1628976*
X2064782Y1628975*
X2064448*
X2064408Y1629055*
X2065519Y1630555*
X2065578Y1630572*
X2065856Y1630461*
X2065860Y1630459*
X2066082Y1630348*
X2066104Y1630326*
X2066215Y1630103*
X2066219Y1630093*
X2066275Y1629871*
X2066274Y1629843*
X2065155Y1630607D02*
X2064044Y1629107D01*
X2063985Y1629090*
X2063708Y1629201*
X2063704Y1629203*
X2063482Y1629314*
X2063459Y1629336*
X2063348Y1629559*
X2063344Y1629571*
X2063288Y1629849*
X2063290Y1629875*
X2063401Y1630208*
X2063413Y1630227*
X2063635Y1630450*
X2063653Y1630461*
X2064097Y1630628*
X2064111Y1630631*
X2064722Y1630686*
X2064726*
X2065115*
X2065155Y1630607*
X2066509Y1640586D02*
X2064171D01*
X2064121Y1640636*
Y1641142*
X2063832*
Y1640636*
X2063782Y1640586*
X2063054*
Y1640186*
X2063782*
X2063832Y1640136*
Y1638464*
X2064156*
X2066509Y1639942*
Y1640586*
X2066142Y1640094D02*
X2064197Y1638872D01*
X2064121Y1638914*
Y1640136*
X2064171Y1640186*
X2066115*
X2066142Y1640094*
X2066509Y1648698D02*
X2063448D01*
X2063398Y1648748*
Y1649475*
X2063054*
Y1647353*
X2063398*
Y1648192*
X2063448Y1648242*
X2066115*
X2066157Y1648164*
X2065634Y1647381*
X2065926Y1647256*
X2066509Y1648316*
Y1648698*
Y1652309D02*
X2066221D01*
Y1651970*
X2066220Y1651965*
X2066165Y1651409*
X2066158Y1651389*
X2065936Y1651001*
X2065918Y1650982*
X2065529Y1650760*
X2065516Y1650755*
X2065072Y1650644*
X2065059Y1650642*
X2064948*
X2064902Y1650712*
X2065066Y1651094*
X2065120Y1651581*
X2065067Y1652007*
X2064857Y1652323*
X2064542Y1652533*
X2064118Y1652586*
X2063689Y1652479*
X2063318Y1652267*
X2063107Y1651896*
X2062999Y1651414*
X2063107Y1650878*
X2063209Y1650724*
X2063370Y1650563*
X2063584Y1650403*
X2063852Y1650296*
X2064120Y1650242*
X2064501*
X2065051Y1650297*
X2065486Y1650406*
X2065919Y1650622*
X2066241Y1650944*
X2066455Y1651372*
X2066509Y1652027*
Y1652309*
X2064832Y1651470D02*
Y1651248D01*
X2064830Y1651235*
X2064775Y1651013*
X2064768Y1650998*
X2064660Y1650837*
X2064607Y1650676*
X2064559Y1650642*
X2064226*
X2064216Y1650643*
X2063939Y1650699*
X2063933Y1650700*
X2063599Y1650811*
X2063576Y1650827*
X2063354Y1651105*
X2063344Y1651127*
X2063288Y1651404*
X2063287Y1651414*
X2063288Y1651422*
X2063344Y1651756*
X2063351Y1651775*
X2063462Y1651942*
X2063478Y1651957*
X2063756Y1652124*
X2063772Y1652130*
X2064050Y1652186*
X2064068*
X2064401Y1652130*
X2064421Y1652123*
X2064587Y1652011*
X2064599Y1652000*
X2064766Y1651778*
X2064775Y1651757*
X2064831Y1651480*
X2064832Y1651470*
X2066509Y1658698D02*
X2063448D01*
X2063398Y1658748*
Y1659475*
X2063054*
Y1657353*
X2063398*
Y1658192*
X2063448Y1658242*
X2066115*
X2066157Y1658164*
X2065634Y1657381*
X2065926Y1657256*
X2066509Y1658316*
Y1658698*
Y1662531D02*
X2066126D01*
X2063054Y1661050*
Y1660661*
X2066093Y1662126*
X2066165Y1662081*
Y1660242*
X2066509*
Y1662531*
Y1670753D02*
X2066221D01*
Y1669359*
X2066171Y1669309*
X2065171*
X2065121Y1669359*
Y1669689*
X2065066Y1670179*
X2064906Y1670552*
X2064585Y1670873*
X2064381Y1670975*
X2063905*
X2063698Y1670872*
X2063321Y1670549*
X2063053Y1670066*
X2062998Y1669523*
Y1668853*
X2063334*
X2063288Y1669128*
X2063287Y1669136*
Y1669525*
X2063288Y1669532*
X2063343Y1669921*
X2063350Y1669940*
X2063517Y1670218*
X2063524Y1670227*
X2063746Y1670450*
X2063773Y1670464*
X2064107Y1670519*
X2064125*
X2064403Y1670463*
X2064423Y1670454*
X2064645Y1670288*
X2064662Y1670263*
X2064774Y1669930*
X2064776Y1669921*
X2064831Y1669532*
X2064832Y1669525*
Y1668909*
X2066509*
Y1670753*
Y1678698D02*
X2063448D01*
X2063398Y1678748*
Y1679475*
X2063054*
Y1677353*
X2063398*
Y1678192*
X2063448Y1678242*
X2066115*
X2066157Y1678164*
X2065634Y1677381*
X2065926Y1677256*
X2066509Y1678316*
Y1678698*
X2066565Y1681414D02*
X2066511Y1681901D01*
X2066352Y1682272*
X2066094Y1682478*
X2065782Y1682530*
X2065464Y1682477*
X2065256Y1682373*
X2065044Y1682161*
X2064880Y1681889*
X2064794*
X2064631Y1682161*
X2064417Y1682375*
X2064152Y1682534*
X2063894Y1682585*
X2063471Y1682480*
X2063212Y1682272*
X2063053Y1681901*
X2062999Y1681414*
X2063053Y1680873*
X2063212Y1680555*
X2063472Y1680295*
X2063836Y1680243*
X2064099Y1680295*
X2064305Y1680399*
X2064743Y1680945*
X2064821*
X2065043Y1680668*
X2065044Y1680666*
X2065202Y1680455*
X2065463Y1680351*
X2065727Y1680298*
X2066038Y1680350*
X2066299Y1680558*
X2066511Y1680930*
X2066565Y1681414*
X2066275Y1681404D02*
X2066220Y1681127D01*
X2066219Y1681124*
X2066164Y1680902*
X2066143Y1680873*
X2065976Y1680762*
X2065961Y1680755*
X2065738Y1680699*
X2065714*
X2065492Y1680755*
X2065476Y1680762*
X2065310Y1680873*
X2065297Y1680884*
X2065131Y1681106*
X2065126Y1681114*
X2064959Y1681447*
X2064961Y1681496*
X2065128Y1681773*
X2065135Y1681783*
X2065302Y1681950*
X2065310Y1681956*
X2065476Y1682067*
X2065492Y1682074*
X2065714Y1682129*
X2065738*
X2065961Y1682074*
X2065976Y1682067*
X2066143Y1681956*
X2066164Y1681926*
X2066219Y1681704*
X2066220Y1681702*
X2066275Y1681424*
Y1681404*
X2064658Y1681333D02*
X2064491Y1681055D01*
X2064484Y1681046*
X2064262Y1680823*
X2064242Y1680811*
X2064075Y1680756*
X2064072Y1680755*
X2063849Y1680699*
X2063825*
X2063603Y1680755*
X2063587Y1680762*
X2063421Y1680873*
X2063400Y1680902*
X2063344Y1681124*
Y1681127*
X2063288Y1681404*
X2063287Y1681414*
Y1681692*
X2063293Y1681714*
X2063404Y1681937*
X2063421Y1681956*
X2063587Y1682067*
X2063603Y1682074*
X2063825Y1682129*
X2063849*
X2064072Y1682074*
X2064087Y1682067*
X2064254Y1681956*
X2064262Y1681950*
X2064428Y1681783*
X2064436Y1681772*
X2064658Y1681384*
Y1681333*
X2066509Y1688698D02*
X2063448D01*
X2063398Y1688748*
Y1689475*
X2063054*
Y1687353*
X2063398*
Y1688192*
X2063448Y1688242*
X2066115*
X2066157Y1688164*
X2065634Y1687381*
X2065926Y1687256*
X2066509Y1688316*
Y1688698*
X2066564Y1691359D02*
X2066457Y1691838D01*
X2066193Y1692208*
X2065983Y1692313*
X2065709Y1692423*
X2065385Y1692531*
X2065007*
X2064509Y1692476*
X2064074Y1692421*
X2063753Y1692261*
X2063487Y1692047*
X2063326Y1691779*
X2063162Y1691452*
X2063054Y1691074*
Y1690409*
X2063343*
Y1690692*
Y1690697*
X2063399Y1691308*
X2063405Y1691328*
X2063627Y1691717*
X2063642Y1691733*
X2064030Y1692011*
X2064047Y1692018*
X2064492Y1692129*
X2064504Y1692131*
X2064615*
X2064661Y1692061*
X2064497Y1691679*
X2064443Y1691192*
X2064497Y1690766*
X2064707Y1690450*
X2065022Y1690240*
X2065445Y1690187*
X2065874Y1690294*
X2066245Y1690506*
X2066457Y1690877*
X2066564Y1691359*
X2066275Y1691349D02*
X2066220Y1691071D01*
X2066211Y1691051*
X2066044Y1690829*
X2066034Y1690819*
X2065812Y1690652*
X2065790Y1690643*
X2065457Y1690587*
X2065439*
X2065161Y1690643*
X2065148Y1690647*
X2064926Y1690758*
X2064904Y1690781*
X2064793Y1691003*
X2064788Y1691016*
X2064733Y1691293*
X2064732Y1691303*
Y1691525*
X2064733Y1691537*
X2064733D02*
X2064789Y1691760D01*
X2064790Y1691763*
X2064845Y1691930*
X2064851Y1691942*
X2064962Y1692109*
X2065004Y1692131*
X2065337*
X2065349Y1692129*
X2065572Y1692074*
X2065579Y1692071*
X2065968Y1691905*
X2065984Y1691894*
X2066206Y1691672*
X2066220Y1691646*
X2066275Y1691369*
Y1691349*
X2066565Y1696692D02*
X2066510Y1697127D01*
X2066409Y1697531*
X2066024*
X2066161Y1697212*
X2066165Y1697198*
X2066220Y1696698*
X2066221Y1696692*
X2066219Y1696681*
X2066108Y1696181*
X2066098Y1696160*
X2065820Y1695827*
X2065808Y1695816*
X2065364Y1695539*
X2065342Y1695531*
X2064787Y1695476*
X2064777*
X2064166Y1695531*
X2064146Y1695538*
X2063757Y1695760*
X2063743Y1695771*
X2063466Y1696104*
X2063455Y1696126*
X2063344Y1696626*
X2063343Y1696636*
Y1696859*
X2063348Y1696881*
X2063398Y1696982*
Y1697081*
X2063448Y1697131*
X2064559*
X2064609Y1697081*
Y1696409*
X2064898*
Y1697531*
X2063202*
X2063107Y1697342*
X2062998Y1696798*
Y1696256*
X2063105Y1695935*
X2063268Y1695664*
X2063429Y1695449*
X2063696Y1695236*
X2063961Y1695130*
X2064727Y1695020*
X2065163Y1695075*
X2065486Y1695129*
X2066084Y1695509*
X2066298Y1695723*
X2066456Y1695987*
X2066510Y1696311*
X2066565Y1696692*
X2066509Y1700531D02*
X2063054D01*
Y1699947*
X2065245Y1699016*
X2065966Y1698739*
X2065948Y1698642*
X2063054*
Y1698242*
X2066509*
Y1698826*
X2064429Y1699701*
X2063596Y1700035*
X2063615Y1700131*
X2066509*
Y1700531*
Y1702133D02*
X2066400Y1702841D01*
X2066077Y1703380*
X2065869Y1703536*
X2065548Y1703643*
X2064836Y1703753*
X2064346Y1703698*
X2063912Y1703590*
X2063537Y1703375*
X2063271Y1703056*
X2063109Y1702571*
X2063054Y1701968*
Y1701242*
X2066509*
Y1702133*
X2066221Y1702081D02*
Y1701692D01*
X2066171Y1701642*
X2063448*
X2063398Y1701692*
Y1702025*
X2063399Y1702030*
X2063454Y1702586*
X2063463Y1702610*
X2063741Y1702999*
X2063759Y1703015*
X2064204Y1703237*
X2064221Y1703242*
X2064777Y1703297*
X2064782Y1703298*
X2065171*
X2065180Y1703297*
X2065458Y1703241*
X2065473Y1703235*
X2065862Y1703013*
X2065876Y1703002*
X2066153Y1702668*
X2066165Y1702641*
X2066220Y1702086*
X2066221Y1702081*
X2066564Y1708304D02*
X2066511Y1708676D01*
X2066300Y1709046*
X2065986Y1709255*
X2065560Y1709308*
X2065186Y1709255*
X2064865Y1709094*
X2064536Y1708821*
X2064094Y1708433*
X2063484Y1707823*
X2063398Y1707859*
Y1709475*
X2063054*
Y1707242*
X2063373*
X2064302Y1708117*
X2064691Y1708505*
X2064695Y1708509*
X2064973Y1708731*
X2064985Y1708738*
X2065263Y1708850*
X2065282Y1708853*
X2065559*
X2065572Y1708852*
X2065794Y1708796*
X2065804Y1708792*
X2066026Y1708681*
X2066046Y1708664*
X2066157Y1708498*
X2066164Y1708480*
X2066220Y1708202*
X2066219Y1708178*
X2066108Y1707789*
X2066098Y1707771*
X2065852Y1707476*
X2066107Y1707264*
X2066404Y1707660*
X2066511Y1707982*
X2066564Y1708304*
X2066509Y1711753D02*
X2063448D01*
X2063398Y1711803*
Y1712531*
X2063054*
Y1710409*
X2063398*
Y1711248*
X2063448Y1711298*
X2066115*
X2066157Y1711220*
X2065634Y1710437*
X2065926Y1710311*
X2066509Y1711372*
Y1711753*
Y1718190D02*
X2066455Y1718732D01*
X2066243Y1719103*
X2065983Y1719311*
X2065616Y1719364*
X2065356Y1719311*
X2065090Y1719152*
X2064881Y1718943*
X2064774Y1718621*
X2064687Y1718605*
X2064470Y1718877*
X2064146Y1719093*
X2063054Y1719613*
Y1719168*
X2064193Y1718626*
X2064415Y1718515*
X2064428Y1718505*
X2064539Y1718394*
X2064546Y1718386*
X2064657Y1718220*
X2064665Y1718192*
Y1717748*
X2064615Y1717698*
X2063054*
Y1717298*
X2066509*
Y1718190*
X2066221Y1718192D02*
Y1717748D01*
X2066171Y1717698*
X2065004*
X2064954Y1717748*
Y1718136*
X2064955Y1718146*
X2065010Y1718424*
X2065015Y1718437*
X2065126Y1718659*
X2065135Y1718672*
X2065302Y1718839*
X2065327Y1718852*
X2065605Y1718908*
X2065627Y1718907*
X2065849Y1718852*
X2065865Y1718845*
X2066032Y1718734*
X2066049Y1718714*
X2066160Y1718492*
X2066164Y1718480*
X2066220Y1718202*
X2066221Y1718192*
X2066509Y1722658D02*
X2064863Y1721649D01*
X2064810Y1721650*
X2063054Y1722768*
Y1722275*
X2064420Y1721401*
X2064419Y1721316*
X2063054Y1720497*
Y1720005*
X2064810Y1721123*
X2064863Y1721124*
X2066509Y1720115*
Y1720554*
X2065254Y1721372*
X2065256Y1721457*
X2066509Y1722220*
Y1722658*
Y1729586D02*
X2066221D01*
Y1728581*
X2066171Y1728531*
X2063054*
Y1728131*
X2066171*
X2066221Y1728081*
Y1727075*
X2066509*
Y1729586*
Y1732658D02*
X2064863Y1731649D01*
X2064810Y1731650*
X2063054Y1732768*
Y1732275*
X2064420Y1731401*
X2064419Y1731316*
X2063054Y1730497*
Y1730005*
X2064810Y1731123*
X2064863Y1731124*
X2066509Y1730115*
Y1730554*
X2065254Y1731372*
X2065256Y1731457*
X2066509Y1732220*
Y1732658*
X2066564Y1738304D02*
X2066511Y1738676D01*
X2066300Y1739046*
X2065986Y1739255*
X2065560Y1739308*
X2065186Y1739255*
X2064865Y1739094*
X2064536Y1738821*
X2064094Y1738433*
X2063484Y1737823*
X2063398Y1737859*
Y1739475*
X2063054*
Y1737242*
X2063373*
X2064302Y1738117*
X2064691Y1738505*
X2064695Y1738509*
X2064973Y1738731*
X2064985Y1738738*
X2065263Y1738850*
X2065282Y1738853*
X2065559*
X2065572Y1738852*
X2065794Y1738796*
X2065804Y1738792*
X2066026Y1738681*
X2066046Y1738664*
X2066157Y1738498*
X2066164Y1738480*
X2066220Y1738202*
X2066219Y1738178*
X2066108Y1737789*
X2066098Y1737771*
X2065852Y1737476*
X2066107Y1737264*
X2066404Y1737660*
X2066511Y1737982*
X2066564Y1738304*
Y1741359D02*
X2066511Y1741731D01*
X2066300Y1742101*
X2065986Y1742311*
X2065560Y1742364*
X2065186Y1742310*
X2064865Y1742150*
X2064536Y1741876*
X2064094Y1741489*
X2063484Y1740879*
X2063398Y1740914*
Y1742531*
X2063054*
Y1740298*
X2063373*
X2064302Y1741172*
X2064691Y1741561*
X2064695Y1741564*
X2064973Y1741787*
X2064985Y1741794*
X2065263Y1741905*
X2065282Y1741909*
X2065559*
X2065572Y1741907*
X2065794Y1741852*
X2065804Y1741848*
X2066026Y1741737*
X2066046Y1741720*
X2066157Y1741553*
X2066164Y1741535*
X2066220Y1741257*
X2066219Y1741234*
X2066108Y1740845*
X2066098Y1740827*
X2065852Y1740532*
X2066107Y1740320*
X2066404Y1740716*
X2066511Y1741037*
X2066564Y1741359*
Y1748304D02*
X2066511Y1748676D01*
X2066300Y1749046*
X2065986Y1749255*
X2065560Y1749308*
X2065186Y1749255*
X2064865Y1749094*
X2064536Y1748821*
X2064094Y1748433*
X2063484Y1747823*
X2063398Y1747859*
Y1749475*
X2063054*
Y1747242*
X2063373*
X2064302Y1748117*
X2064691Y1748505*
X2064695Y1748509*
X2064973Y1748731*
X2064985Y1748738*
X2065263Y1748850*
X2065282Y1748853*
X2065559*
X2065572Y1748852*
X2065794Y1748796*
X2065804Y1748792*
X2066026Y1748681*
X2066046Y1748664*
X2066157Y1748498*
X2066164Y1748480*
X2066220Y1748202*
X2066219Y1748178*
X2066108Y1747789*
X2066098Y1747771*
X2065852Y1747476*
X2066107Y1747264*
X2066404Y1747660*
X2066511Y1747982*
X2066564Y1748304*
X2066565Y1751244D02*
X2066511Y1751679D01*
X2066352Y1752050*
X2066094Y1752256*
X2065728Y1752308*
X2065465Y1752255*
X2065256Y1752151*
X2065097Y1751993*
X2064933Y1751773*
X2064844Y1751791*
X2064791Y1752006*
X2064634Y1752267*
X2064375Y1752422*
X2064116Y1752474*
X2063692Y1752368*
X2063321Y1752103*
X2063108Y1751676*
X2062998Y1751021*
Y1750353*
X2063334*
X2063288Y1750628*
X2063287Y1750636*
Y1751025*
X2063288Y1751032*
X2063343Y1751476*
X2063345Y1751486*
X2063457Y1751819*
X2063478Y1751846*
X2063756Y1752013*
X2063772Y1752019*
X2064050Y1752074*
X2064069*
X2064347Y1752019*
X2064373Y1752005*
X2064539Y1751839*
X2064550Y1751822*
X2064661Y1751544*
X2064665Y1751532*
X2064720Y1751144*
X2064721Y1751136*
Y1750798*
X2065009*
Y1751136*
X2065010Y1751145*
X2065066Y1751478*
X2065070Y1751492*
X2065181Y1751714*
X2065198Y1751734*
X2065365Y1751845*
X2065383Y1751852*
X2065661Y1751908*
X2065683Y1751907*
X2065905Y1751852*
X2065915Y1751848*
X2066137Y1751737*
X2066164Y1751704*
X2066219Y1751482*
X2066220Y1751480*
X2066275Y1751202*
X2066276Y1751192*
Y1751185*
X2066220Y1750796*
X2066219Y1750789*
X2066126Y1750464*
X2066409*
X2066455Y1750649*
X2066457Y1750652*
X2066511Y1750817*
X2066565Y1751032*
Y1751244*
Y1757192D02*
X2066510Y1757627D01*
X2066409Y1758031*
X2066024*
X2066161Y1757712*
X2066165Y1757698*
X2066220Y1757198*
X2066221Y1757192*
X2066219Y1757181*
X2066108Y1756681*
X2066098Y1756660*
X2065820Y1756327*
X2065808Y1756316*
X2065364Y1756039*
X2065342Y1756031*
X2064787Y1755976*
X2064777*
X2064166Y1756031*
X2064146Y1756038*
X2063757Y1756260*
X2063743Y1756271*
X2063466Y1756604*
X2063455Y1756626*
X2063344Y1757126*
X2063343Y1757136*
Y1757359*
X2063348Y1757381*
X2063398Y1757482*
Y1757581*
X2063448Y1757631*
X2064559*
X2064609Y1757581*
Y1756909*
X2064898*
Y1758031*
X2063202*
X2063107Y1757842*
X2062998Y1757298*
Y1756756*
X2063105Y1756435*
X2063268Y1756164*
X2063429Y1755949*
X2063696Y1755736*
X2063961Y1755630*
X2064727Y1755520*
X2065163Y1755575*
X2065486Y1755629*
X2066084Y1756009*
X2066298Y1756223*
X2066456Y1756487*
X2066510Y1756811*
X2066565Y1757192*
X2066509Y1761031D02*
X2063054D01*
Y1760447*
X2065245Y1759516*
X2065966Y1759239*
X2065948Y1759142*
X2063054*
Y1758742*
X2066509*
Y1759326*
X2064429Y1760201*
X2063596Y1760535*
X2063615Y1760631*
X2066509*
Y1761031*
Y1762633D02*
X2066400Y1763341D01*
X2066077Y1763880*
X2065869Y1764036*
X2065548Y1764143*
X2064836Y1764253*
X2064346Y1764198*
X2063912Y1764090*
X2063537Y1763875*
X2063271Y1763556*
X2063109Y1763071*
X2063054Y1762468*
Y1761742*
X2066509*
Y1762633*
X2066221Y1762581D02*
Y1762192D01*
X2066171Y1762142*
X2063448*
X2063398Y1762192*
Y1762525*
X2063399Y1762530*
X2063454Y1763086*
X2063463Y1763110*
X2063741Y1763499*
X2063759Y1763515*
X2064204Y1763737*
X2064221Y1763742*
X2064777Y1763797*
X2064782Y1763798*
X2065171*
X2065180Y1763797*
X2065458Y1763741*
X2065473Y1763735*
X2065862Y1763513*
X2065876Y1763502*
X2066153Y1763168*
X2066165Y1763141*
X2066220Y1762586*
X2066221Y1762581*
X2045894Y1728035D02*
X2044148D01*
Y1727776*
X2045483*
X2045533Y1727726*
Y1726649*
X2045483Y1726599*
X2044199*
Y1726340*
X2045483*
X2045533Y1726290*
Y1725162*
X2045483Y1725112*
X2044148*
Y1724853*
X2045894*
Y1728035*
X2043330Y1725252D02*
X2042982Y1725165D01*
X2042974Y1725164*
X2042410Y1725112*
X2042399Y1725113*
X2042040Y1725164*
X2042035Y1725165*
X2041829Y1725216*
X2041802Y1725235*
X2041648Y1725440*
X2041639Y1725458*
X2041588Y1725663*
Y1725687*
X2041639Y1725892*
X2041658Y1725920*
X2041863Y1726074*
X2041867Y1726077*
X2042124Y1726231*
X2042127Y1726232*
X2042435Y1726386*
X2042443Y1726390*
X2042793Y1726489*
X2043037Y1726685*
X2043230Y1726927*
X2043278Y1727214*
X2043230Y1727549*
X2042990Y1727789*
X2042645Y1727986*
X2042093Y1728086*
X2041899*
X2041700Y1728037*
X2041688Y1728035*
X2041540*
X2041379Y1727995*
Y1727681*
X2041682Y1727725*
X2042092Y1727776*
X2042106*
X2042414Y1727724*
X2042418Y1727723*
X2042623Y1727672*
X2042646Y1727659*
X2042800Y1727505*
X2042813Y1727482*
X2042864Y1727277*
Y1727253*
X2042813Y1727047*
X2042800Y1727024*
X2042595Y1726819*
X2042578Y1726808*
X2042322Y1726706*
X2041965Y1726553*
X2041660Y1726400*
X2041413Y1726252*
X2041222Y1726013*
X2041174Y1725678*
X2041272Y1725288*
X2041513Y1724999*
X2041904Y1724852*
X2042459Y1724802*
X2042708*
X2042959Y1724852*
X2043330Y1724945*
Y1725252*
X2040356Y1728035D02*
X2039485D01*
X2038984Y1727985*
X2038591Y1727789*
X2038345Y1727494*
X2038251Y1727304*
Y1727063*
X2038300Y1726720*
X2038543Y1726379*
X2038940Y1726131*
X2039234Y1726033*
X2039944*
X2039994Y1725983*
Y1724853*
X2040356*
Y1728035*
X2039994Y1727726D02*
Y1726342D01*
X2039944Y1726292*
X2039534*
X2039527*
X2039168Y1726343*
X2039156Y1726346*
X2038900Y1726449*
X2038876Y1726470*
X2038722Y1726726*
X2038715Y1726744*
X2038664Y1727051*
X2038663Y1727060*
X2038664Y1727069*
X2038716Y1727326*
X2038722Y1727342*
X2038876Y1727598*
X2038900Y1727619*
X2039156Y1727721*
X2039167Y1727724*
X2039474Y1727776*
X2039483*
X2039944*
X2039994Y1727726*
X2037535Y1725103D02*
X2037286Y1725062D01*
X2037277Y1725061*
X2036918*
X2036912*
X2036502Y1725113*
X2036492Y1725115*
X2036185Y1725217*
X2036158Y1725239*
X2036004Y1725495*
X2035998Y1725511*
X2035946Y1725768*
Y1725787*
X2035998Y1726044*
X2036011Y1726069*
X2036165Y1726223*
X2036182Y1726234*
X2036438Y1726337*
X2036450Y1726340*
X2036809Y1726391*
X2036816Y1726392*
X2037125*
Y1726651*
X2036816*
X2036808*
X2036500Y1726703*
X2036486Y1726707*
X2036281Y1726810*
X2036261Y1726827*
X2036159Y1726981*
X2036151Y1726998*
X2036151D02*
X2036100Y1727255D01*
X2036101Y1727277*
X2036152Y1727482*
X2036156Y1727492*
X2036258Y1727697*
X2036291Y1727723*
X2036496Y1727775*
X2036498*
X2036755Y1727827*
X2036772*
X2037131Y1727776*
X2037137Y1727774*
X2037433Y1727690*
Y1727944*
X2037265Y1727985*
X2037262Y1727986*
X2037110Y1728037*
X2036912Y1728086*
X2036716*
X2036316Y1728036*
X2035975Y1727890*
X2035787Y1727654*
X2035738Y1727317*
X2035787Y1727076*
X2035883Y1726884*
X2036028Y1726738*
X2036231Y1726587*
X2036213Y1726498*
X2036015Y1726449*
X2035775Y1726305*
X2035632Y1726067*
X2035585Y1725830*
X2035683Y1725440*
X2035926Y1725099*
X2036319Y1724903*
X2036923Y1724802*
X2037535*
Y1725103*
X2034766Y1725142D02*
X2033959Y1725999D01*
X2033601Y1726358*
X2033597Y1726362*
X2033392Y1726618*
X2033385Y1726631*
X2033282Y1726887*
X2033279Y1726906*
Y1727162*
X2033280Y1727174*
X2033332Y1727379*
X2033335Y1727390*
X2033438Y1727595*
X2033455Y1727614*
X2033609Y1727717*
X2033627Y1727724*
X2033883Y1727775*
X2033907Y1727774*
X2034266Y1727672*
X2034284Y1727662*
X2034553Y1727438*
X2034744Y1727667*
X2034382Y1727938*
X2034086Y1728037*
X2033790Y1728086*
X2033448Y1728037*
X2033107Y1727843*
X2032915Y1727554*
X2032866Y1727163*
X2032916Y1726818*
X2033063Y1726523*
X2033315Y1726220*
X2033673Y1725812*
X2034236Y1725249*
X2034201Y1725163*
X2032712*
Y1724853*
X2034766*
Y1725142*
X2032304Y1724086D02*
X2029584D01*
Y1723828*
X2032304*
Y1724086*
X2029227Y1728035D02*
X2028409D01*
X2027756Y1727935*
X2027260Y1727637*
X2027117Y1727446*
X2027019Y1727150*
X2026918Y1726494*
X2026968Y1726043*
X2027068Y1725642*
X2027265Y1725297*
X2027559Y1725053*
X2028006Y1724904*
X2028562Y1724853*
X2029227*
Y1728035*
X2028866Y1727726D02*
Y1725213D01*
X2028816Y1725163*
X2028508*
X2028503Y1725164*
X2027990Y1725215*
X2027966Y1725224*
X2027607Y1725480*
X2027592Y1725499*
X2027387Y1725909*
X2027382Y1725926*
X2027330Y1726439*
Y1726444*
Y1726803*
X2027331Y1726813*
X2027382Y1727069*
X2027388Y1727084*
X2027593Y1727443*
X2027604Y1727457*
X2027912Y1727713*
X2027939Y1727725*
X2028452Y1727776*
X2028457*
X2028816*
X2028866Y1727726*
X2026355Y1726031D02*
X2026255Y1726530D01*
X2026058Y1726926*
X2025716Y1727218*
X2025227Y1727316*
X2024785Y1727218*
X2024492Y1727023*
X2024249Y1726682*
X2024199Y1726185*
Y1725981*
X2025944*
X2025994Y1725931*
Y1725924*
X2025942Y1725565*
X2025936Y1725547*
X2025782Y1725290*
X2025765Y1725273*
X2025508Y1725119*
X2025490Y1725113*
X2025131Y1725061*
X2025124*
X2024867*
X2024855Y1725062*
X2024656Y1725112*
X2024457*
X2024441Y1725115*
X2024353Y1725144*
Y1724893*
X2024719Y1724802*
X2024719D02*
X2025170D01*
X2025719Y1724902*
X2026061Y1725146*
X2026306Y1725538*
X2026355Y1726031*
X2025994Y1726290D02*
X2025944Y1726240D01*
X2024611*
X2024561Y1726290*
Y1726299*
X2024613Y1726606*
X2024617Y1726620*
X2024720Y1726826*
X2024735Y1726843*
X2024940Y1726997*
X2024962Y1727006*
X2025269Y1727058*
X2025287Y1727057*
X2025544Y1727006*
X2025564Y1726997*
X2025769Y1726843*
X2025779Y1726833*
X2025933Y1726628*
X2025942Y1726606*
X2025993Y1726299*
X2025994Y1726290*
X2023616Y1727266D02*
X2023261D01*
X2022658Y1725607*
X2022504Y1725196*
X2022408Y1725201*
X2022306Y1725609*
X2021704Y1727266*
X2021301*
X2022285Y1724853*
X2022730*
X2023616Y1727266*
X2020612Y1728035D02*
X2020251D01*
Y1726547*
X2020161Y1726516*
X2018996Y1728035*
X2018610*
X2019779Y1726526*
Y1726465*
X2018558Y1724853*
X2018996*
X2020160Y1726423*
X2020251Y1726393*
Y1724853*
X2020612*
Y1728035*
X2017792Y1725112D02*
X2017021D01*
X2016971Y1725162*
Y1726957*
X2017021Y1727007*
X2017689*
Y1727266*
X2016610*
X2016610D02*
Y1725162D01*
X2016610D02*
X2016560Y1725112D01*
X2016560D02*
X2015892D01*
Y1724853*
X2017792*
Y1725112*
X2017172Y1727986D02*
X2017129Y1728117D01*
X2017086Y1728202*
X2017002Y1728244*
X2016867Y1728289*
X2016733Y1728244*
X2016648Y1728202*
X2016606Y1728117*
X2016562Y1727986*
X2016652Y1727807*
X2016734Y1727725*
X2017000*
X2017083Y1727807*
X2017172Y1727986*
X2015227Y1727266D02*
X2014560D01*
X2014560D02*
X2014510Y1727316D01*
X2014510D02*
Y1727994D01*
X2014510D02*
X2014148Y1728074D01*
Y1727316*
X2014098Y1727266*
X2013071*
Y1727007*
X2014098*
X2014148Y1726957*
Y1725419*
X2014140Y1725391*
X2014037Y1725237*
X2014018Y1725220*
X2013813Y1725117*
X2013802Y1725114*
X2013597Y1725062*
X2013585Y1725061*
X2013329*
X2013313Y1725063*
X2013071Y1725144*
Y1724890*
X2013337Y1724802*
X2013633*
X2014032Y1724852*
X2014319Y1724995*
X2014460Y1725230*
X2014510Y1725627*
X2014510D02*
Y1726957D01*
X2014510D02*
X2014560Y1727007D01*
X2014560D02*
X2015227D01*
Y1727266*
X2012150Y1726034D02*
X2012050Y1726580D01*
X2011805Y1726972*
X2011413Y1727217*
X2010917Y1727317*
X2010567Y1727267*
X2010302Y1727222*
Y1726924*
X2010544Y1727004*
X2010552Y1727006*
X2010911Y1727058*
X2010927*
X2011234Y1727006*
X2011257Y1726996*
X2011514Y1726791*
X2011524Y1726780*
X2011729Y1726472*
X2011737Y1726450*
X2011789Y1726040*
Y1726028*
X2011737Y1725617*
X2011732Y1725601*
X2011579Y1725294*
X2011560Y1725273*
X2011303Y1725119*
X2011285Y1725113*
X2010926Y1725061*
X2010911*
X2010552Y1725113*
X2010544Y1725115*
X2010302Y1725195*
Y1724892*
X2010618Y1724802*
X2010965*
X2011466Y1724902*
X2011856Y1725097*
X2012050Y1725486*
X2012150Y1726034*
X2009740Y1724086D02*
X2007020D01*
Y1723828*
X2009740*
Y1724086*
X2006850Y1728035D02*
X2006493D01*
X2005787Y1725865*
X2005582Y1725199*
X2005485Y1725202*
X2005332Y1725867*
X2004626Y1728035*
X2004219*
X2005313Y1724853*
X2005856*
X2006850Y1728035*
X2003997Y1725866D02*
X2002634Y1728035D01*
X2002045*
Y1725880*
X2001995Y1725830*
X2001533*
Y1725571*
X2001995*
X2002045Y1725521*
Y1724853*
X2002407*
Y1725521*
X2002457Y1725571*
X2003997*
Y1725866*
X2003585Y1725830D02*
X2002457D01*
X2002407Y1725880*
Y1727675*
X2002499Y1727702*
X2003627Y1725907*
X2003585Y1725830*
X1983954Y1578544D02*
X1980498Y1579624D01*
Y1579228*
X1982852Y1578462*
X1983574Y1578240*
X1983571Y1578143*
X1982851Y1577977*
X1980498Y1577211*
Y1576762*
X1983954Y1577950*
Y1578544*
X1984009Y1582253D02*
X1983674D01*
X1983720Y1581978*
X1983721Y1581970*
Y1581581*
X1983720Y1581574*
X1983665Y1581185*
X1983658Y1581166*
X1983491Y1580889*
X1983484Y1580879*
X1983262Y1580657*
X1983234Y1580643*
X1982901Y1580587*
X1982883*
X1982605Y1580643*
X1982585Y1580652*
X1982363Y1580819*
X1982345Y1580843*
X1982234Y1581176*
X1982232Y1581185*
X1982177Y1581574*
X1982176Y1581581*
Y1582198*
X1980498*
Y1580353*
X1980787*
Y1581748*
X1980837Y1581798*
X1981837*
X1981887Y1581748*
Y1581417*
X1981942Y1580927*
X1982102Y1580554*
X1982422Y1580233*
X1982627Y1580131*
X1983103*
X1983309Y1580234*
X1983687Y1580557*
X1983687D02*
X1983955Y1581041D01*
X1984009Y1581583*
Y1582253*
X1983954Y1587864D02*
X1980498D01*
Y1586974*
X1980607Y1586265*
X1980931Y1585726*
X1981139Y1585570*
X1981460Y1585463*
X1982172Y1585354*
X1982662Y1585408*
X1983096Y1585517*
X1983471Y1585731*
X1983737Y1586050*
X1983899Y1586536*
X1983954Y1587139*
Y1587864*
X1983609Y1587414D02*
Y1587081D01*
Y1587076*
X1983554Y1586520*
X1983545Y1586496*
X1983267Y1586107*
X1983249Y1586092*
X1982804Y1585870*
X1982787Y1585865*
X1982231Y1585809*
X1982226*
X1981837*
X1981827Y1585810*
X1981550Y1585865*
X1981535Y1585871*
X1981146Y1586093*
X1981132Y1586104*
X1980854Y1586438*
X1980843Y1586465*
X1980788Y1587020*
X1980787Y1587025*
Y1587414*
X1980837Y1587464*
X1983559*
X1983609Y1587414*
X1983954Y1591084D02*
X1980498Y1590922D01*
Y1590449*
X1981854Y1589961*
X1982299Y1589794*
Y1589701*
X1981855Y1589534*
X1980498Y1589046*
Y1588518*
X1983954Y1588356*
Y1588754*
X1981726Y1588809*
X1980948*
X1980926Y1588903*
X1981370Y1589126*
X1981376Y1589128*
X1982787Y1589617*
Y1589879*
X1981432Y1590367*
X1980933Y1590533*
X1980945Y1590631*
X1981778Y1590686*
X1981780*
X1983954Y1590741*
Y1591084*
X1984009Y1592795D02*
X1983903Y1593115D01*
X1983740Y1593386*
X1983581Y1593599*
X1983315Y1593758*
X1983046Y1593866*
X1983046D02*
X1982281Y1593975D01*
X1981844Y1593920*
X1981520Y1593866*
X1980926Y1593542*
X1980551Y1593060*
X1980498Y1592794*
X1980443Y1592468*
X1980498Y1591980*
X1980597Y1591631*
X1980984*
X1980847Y1591950*
X1980843Y1591964*
X1980788Y1592408*
X1980787Y1592414*
X1980789Y1592426*
X1980900Y1592871*
X1980910Y1592891*
X1981188Y1593224*
X1981204Y1593237*
X1981648Y1593459*
X1981666Y1593464*
X1982221Y1593520*
X1982231*
X1982842Y1593464*
X1982860Y1593459*
X1983304Y1593237*
X1983320Y1593224*
X1983598Y1592891*
X1983609Y1592865*
X1983665Y1592420*
Y1592408*
X1983609Y1591964*
X1983605Y1591950*
X1983469Y1591631*
X1983803*
X1983955Y1592037*
X1984009Y1592473*
Y1592795*
Y1599253D02*
X1983674D01*
X1983720Y1598978*
X1983721Y1598970*
Y1598581*
X1983720Y1598575*
X1983665Y1598130*
X1983662Y1598121*
X1983551Y1597787*
X1983530Y1597760*
X1983252Y1597594*
X1983236Y1597587*
X1982958Y1597532*
X1982939*
X1982661Y1597587*
X1982635Y1597601*
X1982469Y1597768*
X1982458Y1597785*
X1982346Y1598062*
X1982343Y1598074*
X1982288Y1598463*
X1982287Y1598470*
Y1598809*
X1981998*
Y1598470*
Y1598462*
X1981942Y1598128*
X1981938Y1598114*
X1981826Y1597892*
X1981809Y1597873*
X1981643Y1597762*
X1981625Y1597754*
X1981347Y1597699*
X1981325*
X1981103Y1597755*
X1981093Y1597758*
X1980870Y1597870*
X1980844Y1597902*
X1980789Y1598124*
X1980788Y1598127*
X1980733Y1598404*
X1980732Y1598414*
Y1598421*
X1980788Y1598810*
X1980789Y1598817*
X1980882Y1599142*
X1980599*
X1980552Y1598958*
X1980551Y1598954*
X1980496Y1598789*
X1980443Y1598575*
Y1598362*
X1980497Y1597927*
X1980656Y1597557*
X1980913Y1597351*
X1981280Y1597298*
X1981543Y1597351*
X1981752Y1597455*
X1981911Y1597614*
X1982075Y1597833*
X1982164Y1597815*
X1982217Y1597600*
X1982374Y1597340*
X1982633Y1597184*
X1982892Y1597132*
X1983316Y1597238*
X1983687Y1597503*
X1983900Y1597930*
X1984009Y1598585*
Y1599253*
X1983954Y1602475D02*
X1980498D01*
Y1601585*
X1980607Y1600876*
X1980931Y1600337*
X1981139Y1600181*
X1981460Y1600074*
X1982172Y1599965*
X1982662Y1600019*
X1983096Y1600128*
X1983471Y1600342*
X1983737Y1600661*
X1983899Y1601147*
X1983954Y1601750*
Y1602475*
X1983609Y1602025D02*
Y1601692D01*
Y1601687*
X1983554Y1601132*
X1983545Y1601107*
X1983267Y1600719*
X1983249Y1600703*
X1982804Y1600481*
X1982787Y1600476*
X1982231Y1600420*
X1982226*
X1981837*
X1981827Y1600421*
X1981550Y1600476*
X1981535Y1600482*
X1981146Y1600704*
X1981132Y1600716*
X1980854Y1601049*
X1980843Y1601076*
X1980788Y1601632*
X1980787Y1601636*
Y1602025*
X1980837Y1602075*
X1983559*
X1983609Y1602025*
X1983954Y1609309D02*
X1983635D01*
X1982705Y1608434*
X1982317Y1608046*
X1982313Y1608042*
X1982035Y1607820*
X1982023Y1607812*
X1981745Y1607701*
X1981726Y1607698*
X1981448*
X1981436Y1607699*
X1981214Y1607755*
X1981204Y1607758*
X1980982Y1607870*
X1980962Y1607887*
X1980851Y1608053*
X1980844Y1608071*
X1980788Y1608349*
X1980789Y1608372*
X1980900Y1608761*
X1980910Y1608780*
X1981156Y1609075*
X1980901Y1609287*
X1980604Y1608891*
X1980497Y1608569*
X1980443Y1608247*
X1980497Y1607875*
X1980708Y1607505*
X1981022Y1607296*
X1981448Y1607242*
X1981822Y1607296*
X1982143Y1607456*
X1982472Y1607730*
X1982914Y1608117*
X1983524Y1608727*
X1983609Y1608692*
Y1607075*
X1983954*
Y1609309*
Y1612475D02*
X1980498D01*
Y1611585*
X1980607Y1610876*
X1980931Y1610337*
X1981139Y1610181*
X1981460Y1610074*
X1982172Y1609965*
X1982662Y1610019*
X1983096Y1610128*
X1983471Y1610342*
X1983737Y1610661*
X1983899Y1611147*
X1983954Y1611750*
Y1612475*
X1983609Y1612025D02*
Y1611692D01*
Y1611687*
X1983554Y1611132*
X1983545Y1611107*
X1983267Y1610719*
X1983249Y1610703*
X1982804Y1610481*
X1982787Y1610476*
X1982231Y1610420*
X1982226*
X1981837*
X1981827Y1610421*
X1981550Y1610476*
X1981535Y1610482*
X1981146Y1610704*
X1981132Y1610716*
X1980854Y1611049*
X1980843Y1611076*
X1980788Y1611632*
X1980787Y1611636*
Y1612025*
X1980837Y1612075*
X1983559*
X1983609Y1612025*
X1984009Y1619253D02*
X1983674D01*
X1983720Y1618978*
X1983721Y1618970*
Y1618581*
X1983720Y1618575*
X1983665Y1618130*
X1983662Y1618121*
X1983551Y1617787*
X1983530Y1617760*
X1983252Y1617594*
X1983236Y1617587*
X1982958Y1617532*
X1982939*
X1982661Y1617587*
X1982635Y1617601*
X1982469Y1617768*
X1982458Y1617785*
X1982346Y1618062*
X1982343Y1618074*
X1982288Y1618463*
X1982287Y1618470*
Y1618809*
X1981998*
Y1618470*
Y1618462*
X1981942Y1618128*
X1981938Y1618114*
X1981826Y1617892*
X1981809Y1617873*
X1981643Y1617762*
X1981625Y1617754*
X1981347Y1617699*
X1981325*
X1981103Y1617755*
X1981093Y1617758*
X1980870Y1617870*
X1980844Y1617902*
X1980789Y1618124*
X1980788Y1618127*
X1980733Y1618404*
X1980732Y1618414*
Y1618421*
X1980788Y1618810*
X1980789Y1618817*
X1980882Y1619142*
X1980599*
X1980552Y1618958*
X1980551Y1618954*
X1980496Y1618789*
X1980443Y1618575*
Y1618362*
X1980497Y1617927*
X1980656Y1617557*
X1980913Y1617351*
X1981280Y1617298*
X1981543Y1617351*
X1981752Y1617455*
X1981911Y1617614*
X1982075Y1617833*
X1982164Y1617815*
X1982217Y1617600*
X1982374Y1617340*
X1982633Y1617184*
X1982892Y1617132*
X1983316Y1617238*
X1983687Y1617503*
X1983900Y1617930*
X1984009Y1618585*
Y1619253*
X1983954Y1622253D02*
X1983609D01*
Y1621414*
X1983559Y1621364*
X1980893*
X1980851Y1621442*
X1981373Y1622225*
X1981081Y1622350*
X1980498Y1621290*
Y1620909*
X1983559*
X1983609Y1620859*
Y1620131*
X1983954*
Y1622253*
Y1627864D02*
X1980498D01*
Y1626974*
X1980607Y1626265*
X1980931Y1625726*
X1981139Y1625570*
X1981460Y1625463*
X1982172Y1625354*
X1982662Y1625408*
X1983096Y1625517*
X1983471Y1625731*
X1983737Y1626050*
X1983899Y1626536*
X1983954Y1627139*
Y1627864*
X1983609Y1627414D02*
Y1627081D01*
Y1627076*
X1983554Y1626520*
X1983545Y1626496*
X1983267Y1626107*
X1983249Y1626092*
X1982804Y1625870*
X1982787Y1625865*
X1982231Y1625809*
X1982226*
X1981837*
X1981827Y1625810*
X1981550Y1625865*
X1981535Y1625871*
X1981146Y1626093*
X1981132Y1626104*
X1980854Y1626438*
X1980843Y1626465*
X1980788Y1627020*
X1980787Y1627025*
Y1627414*
X1980837Y1627464*
X1983559*
X1983609Y1627414*
X1983954Y1630864D02*
X1980498D01*
Y1630281*
X1982578Y1629405*
X1983411Y1629072*
X1983393Y1628975*
X1980498*
Y1628575*
X1983954*
Y1629159*
X1981763Y1630090*
X1981042Y1630368*
X1981059Y1630464*
X1983954*
Y1630864*
X1984009Y1632851D02*
X1983903Y1633171D01*
X1983740Y1633442*
X1983579Y1633657*
X1983312Y1633871*
X1983046Y1633977*
X1983046D02*
X1982281Y1634086D01*
X1981844Y1634031*
X1981522Y1633978*
X1980924Y1633597*
X1980710Y1633383*
X1980552Y1633119*
X1980498Y1632796*
X1980443Y1632414*
X1980498Y1631979*
X1980599Y1631575*
X1980984*
X1980847Y1631895*
X1980843Y1631909*
X1980788Y1632409*
X1980787Y1632414*
X1980788Y1632425*
X1980900Y1632925*
X1980910Y1632946*
X1981188Y1633280*
X1981200Y1633290*
X1981644Y1633568*
X1981666Y1633575*
X1982221Y1633631*
X1982231*
X1982842Y1633575*
X1982862Y1633569*
X1983251Y1633347*
X1983265Y1633335*
X1983542Y1633002*
X1983553Y1632981*
X1983664Y1632481*
X1983665Y1632470*
Y1632248*
X1983660Y1632225*
X1983609Y1632125*
Y1632025*
X1983559Y1631975*
X1982448*
X1982398Y1632025*
Y1632698*
X1982109*
Y1631575*
X1983806*
X1983901Y1631764*
X1984009Y1632308*
Y1632851*
X1983954Y1639809D02*
X1983635D01*
X1982705Y1638934*
X1982317Y1638546*
X1982313Y1638542*
X1982035Y1638320*
X1982023Y1638312*
X1981745Y1638201*
X1981726Y1638198*
X1981448*
X1981436Y1638199*
X1981214Y1638255*
X1981204Y1638258*
X1980982Y1638370*
X1980962Y1638387*
X1980851Y1638553*
X1980844Y1638571*
X1980788Y1638849*
X1980789Y1638872*
X1980900Y1639261*
X1980910Y1639280*
X1981156Y1639575*
X1980901Y1639787*
X1980604Y1639391*
X1980497Y1639069*
X1980443Y1638747*
X1980497Y1638375*
X1980708Y1638005*
X1981022Y1637796*
X1981448Y1637742*
X1981822Y1637796*
X1982143Y1637956*
X1982472Y1638230*
X1982914Y1638617*
X1983524Y1639227*
X1983609Y1639192*
Y1637575*
X1983954*
Y1639809*
Y1642753D02*
X1983609D01*
Y1641914*
X1983559Y1641864*
X1980893*
X1980851Y1641942*
X1981373Y1642725*
X1981081Y1642850*
X1980498Y1641790*
Y1641409*
X1983559*
X1983609Y1641359*
Y1640631*
X1983954*
Y1642753*
Y1647864D02*
X1983226D01*
X1983176Y1647914*
Y1649586*
X1982852*
X1980498Y1648109*
Y1647464*
X1982837*
X1982887Y1647414*
Y1646909*
X1983176*
Y1647414*
X1983226Y1647464*
X1983954*
Y1647864*
X1982887Y1649136D02*
Y1647914D01*
X1982837Y1647864*
X1980893*
X1980866Y1647957*
X1982811Y1649179*
X1982887Y1649136*
X1983954Y1652253D02*
X1983609D01*
Y1651414*
X1983559Y1651364*
X1980893*
X1980851Y1651442*
X1981373Y1652225*
X1981081Y1652350*
X1980498Y1651290*
Y1650909*
X1983559*
X1983609Y1650859*
Y1650131*
X1983954*
Y1652253*
Y1658946D02*
X1980915Y1657480D01*
X1980843Y1657525*
Y1659364*
X1980498*
Y1657075*
X1980881*
X1983954Y1658557*
Y1658946*
Y1662364D02*
X1983635D01*
X1982705Y1661489*
X1982317Y1661101*
X1982313Y1661097*
X1982035Y1660875*
X1982023Y1660868*
X1981745Y1660757*
X1981726Y1660753*
X1981448*
X1981436Y1660755*
X1981214Y1660810*
X1981204Y1660814*
X1980982Y1660925*
X1980962Y1660942*
X1980851Y1661109*
X1980844Y1661127*
X1980788Y1661404*
X1980789Y1661428*
X1980900Y1661817*
X1980910Y1661835*
X1981156Y1662130*
X1980901Y1662342*
X1980604Y1661946*
X1980497Y1661624*
X1980443Y1661303*
X1980497Y1660931*
X1980708Y1660560*
X1981022Y1660351*
X1981448Y1660298*
X1981822Y1660352*
X1981822D02*
X1982143Y1660512D01*
X1982471Y1660786*
X1982914Y1661173*
X1983524Y1661783*
X1983609Y1661748*
Y1660131*
X1983954*
Y1662364*
X1984008Y1668693D02*
X1983901Y1669228D01*
X1983798Y1669382*
X1983638Y1669543*
X1983424Y1669704*
X1983156Y1669811*
X1982888Y1669864*
X1982506*
X1981957Y1669809*
X1981521Y1669700*
X1981089Y1669484*
X1980767Y1669162*
X1980553Y1668734*
X1980498Y1668079*
Y1667798*
X1980787*
Y1668136*
X1980788Y1668141*
X1980843Y1668697*
X1980849Y1668717*
X1981072Y1669106*
X1981090Y1669124*
X1981479Y1669347*
X1981492Y1669352*
X1981936Y1669463*
X1981948Y1669464*
X1982059*
X1982105Y1669395*
X1981942Y1669012*
X1981888Y1668526*
X1981941Y1668099*
X1982151Y1667784*
X1982466Y1667574*
X1982890Y1667521*
X1983318Y1667628*
X1983690Y1667840*
X1983901Y1668210*
X1984008Y1668693*
X1983721Y1668692D02*
X1983720Y1668684D01*
X1983664Y1668350*
X1983657Y1668331*
X1983546Y1668164*
X1983530Y1668149*
X1983252Y1667982*
X1983252D02*
X1983236Y1667976D01*
X1982958Y1667921*
X1982940Y1667920*
X1982607Y1667976*
X1982587Y1667984*
X1982421Y1668095*
X1982408Y1668106*
X1982242Y1668329*
X1982233Y1668349*
X1982177Y1668627*
X1982176Y1668636*
Y1668859*
X1982178Y1668871*
X1982233Y1669093*
X1982240Y1669109*
X1982348Y1669270*
X1982401Y1669430*
X1982448Y1669464*
X1982782*
X1982792Y1669463*
X1983069Y1669408*
X1983075Y1669406*
X1983409Y1669295*
X1983432Y1669279*
X1983654Y1669001*
X1983664Y1668980*
X1983720Y1668702*
X1983721Y1668692*
X1983954Y1672864D02*
X1983635D01*
X1982705Y1671989*
X1982317Y1671601*
X1982313Y1671597*
X1982035Y1671375*
X1982023Y1671368*
X1981745Y1671257*
X1981726Y1671253*
X1981448*
X1981436Y1671255*
X1981214Y1671310*
X1981204Y1671314*
X1980982Y1671425*
X1980962Y1671442*
X1980851Y1671609*
X1980844Y1671627*
X1980788Y1671904*
X1980789Y1671928*
X1980900Y1672317*
X1980910Y1672335*
X1981156Y1672630*
X1980901Y1672842*
X1980604Y1672446*
X1980497Y1672124*
X1980443Y1671803*
X1980497Y1671431*
X1980708Y1671060*
X1981022Y1670851*
X1981448Y1670798*
X1981822Y1670852*
X1981822D02*
X1982143Y1671012D01*
X1982471Y1671286*
X1982914Y1671673*
X1983524Y1672283*
X1983609Y1672248*
Y1670631*
X1983954*
Y1672864*
X1984009Y1679198D02*
X1983674D01*
X1983720Y1678922*
X1983721Y1678914*
Y1678525*
X1983720Y1678518*
X1983665Y1678129*
X1983658Y1678111*
X1983491Y1677833*
X1983484Y1677823*
X1983262Y1677601*
X1983234Y1677587*
X1982901Y1677532*
X1982883*
X1982605Y1677587*
X1982585Y1677596*
X1982363Y1677763*
X1982345Y1677787*
X1982234Y1678121*
X1982232Y1678129*
X1982177Y1678518*
X1982176Y1678525*
Y1679142*
X1980498*
Y1677298*
X1980787*
Y1678692*
X1980837Y1678742*
X1981837*
X1981887Y1678692*
Y1678361*
X1981942Y1677872*
X1982102Y1677498*
X1982422Y1677178*
X1982627Y1677075*
X1983103*
X1983309Y1677178*
X1983687Y1677502*
X1983955Y1677985*
X1984009Y1678528*
Y1679198*
X1983954Y1682364D02*
X1983635D01*
X1982705Y1681489*
X1982317Y1681101*
X1982313Y1681097*
X1982035Y1680875*
X1982023Y1680868*
X1981745Y1680757*
X1981726Y1680753*
X1981448*
X1981436Y1680755*
X1981214Y1680810*
X1981204Y1680814*
X1980982Y1680925*
X1980962Y1680942*
X1980851Y1681109*
X1980844Y1681127*
X1980788Y1681404*
X1980789Y1681428*
X1980900Y1681817*
X1980910Y1681835*
X1981156Y1682130*
X1980901Y1682342*
X1980604Y1681946*
X1980497Y1681624*
X1980443Y1681303*
X1980497Y1680931*
X1980708Y1680560*
X1981022Y1680351*
X1981448Y1680298*
X1981822Y1680352*
X1981822D02*
X1982143Y1680512D01*
X1982471Y1680786*
X1982914Y1681173*
X1983524Y1681783*
X1983609Y1681748*
Y1680131*
X1983954*
Y1682364*
X1984009Y1689253D02*
X1983674D01*
X1983720Y1688978*
X1983721Y1688970*
Y1688581*
X1983720Y1688575*
X1983665Y1688130*
X1983662Y1688121*
X1983551Y1687787*
X1983530Y1687760*
X1983252Y1687594*
X1983236Y1687587*
X1982958Y1687532*
X1982939*
X1982661Y1687587*
X1982635Y1687601*
X1982469Y1687768*
X1982458Y1687785*
X1982346Y1688062*
X1982343Y1688074*
X1982288Y1688463*
X1982287Y1688470*
Y1688809*
X1981998*
Y1688470*
Y1688462*
X1981942Y1688128*
X1981938Y1688114*
X1981826Y1687892*
X1981809Y1687873*
X1981643Y1687762*
X1981625Y1687754*
X1981347Y1687699*
X1981325*
X1981103Y1687755*
X1981093Y1687758*
X1980870Y1687870*
X1980844Y1687902*
X1980789Y1688124*
X1980788Y1688127*
X1980733Y1688404*
X1980732Y1688414*
Y1688421*
X1980788Y1688810*
X1980789Y1688817*
X1980882Y1689142*
X1980599*
X1980552Y1688958*
X1980551Y1688954*
X1980496Y1688789*
X1980443Y1688575*
Y1688362*
X1980497Y1687927*
X1980656Y1687557*
X1980913Y1687351*
X1981280Y1687298*
X1981543Y1687351*
X1981752Y1687455*
X1981911Y1687614*
X1982075Y1687833*
X1982164Y1687815*
X1982217Y1687600*
X1982374Y1687340*
X1982633Y1687184*
X1982892Y1687132*
X1983316Y1687238*
X1983687Y1687503*
X1983900Y1687930*
X1984009Y1688585*
Y1689253*
Y1692309D02*
X1983674D01*
X1983720Y1692034*
X1983721Y1692025*
Y1691636*
X1983720Y1691630*
X1983665Y1691186*
X1983662Y1691176*
X1983551Y1690843*
X1983530Y1690816*
X1983252Y1690649*
X1983236Y1690643*
X1982958Y1690587*
X1982939*
X1982661Y1690643*
X1982635Y1690657*
X1982469Y1690823*
X1982458Y1690840*
X1982346Y1691118*
X1982343Y1691129*
X1982288Y1691518*
X1982287Y1691525*
Y1691864*
X1981998*
Y1691525*
Y1691517*
X1981942Y1691184*
X1981938Y1691170*
X1981826Y1690947*
X1981809Y1690928*
X1981643Y1690817*
X1981625Y1690810*
X1981347Y1690754*
X1981325Y1690755*
X1981103Y1690810*
X1981093Y1690814*
X1980870Y1690925*
X1980844Y1690958*
X1980789Y1691180*
X1980788Y1691182*
X1980733Y1691460*
X1980732Y1691470*
Y1691477*
X1980788Y1691866*
X1980789Y1691872*
X1980882Y1692198*
X1980599*
X1980552Y1692013*
X1980551Y1692010*
X1980496Y1691845*
X1980443Y1691630*
Y1691417*
X1980497Y1690983*
X1980656Y1690612*
X1980913Y1690406*
X1981280Y1690354*
X1981543Y1690406*
X1981752Y1690511*
X1981911Y1690669*
X1982075Y1690889*
X1982164Y1690871*
X1982217Y1690656*
X1982374Y1690395*
X1982633Y1690239*
X1982892Y1690188*
X1983316Y1690294*
X1983687Y1690559*
X1983900Y1690985*
X1984009Y1691641*
Y1692309*
X1983954Y1699309D02*
X1983635D01*
X1982705Y1698434*
X1982317Y1698046*
X1982313Y1698042*
X1982035Y1697820*
X1982023Y1697812*
X1981745Y1697701*
X1981726Y1697698*
X1981448*
X1981436Y1697699*
X1981214Y1697755*
X1981204Y1697758*
X1980982Y1697870*
X1980962Y1697887*
X1980851Y1698053*
X1980844Y1698071*
X1980788Y1698349*
X1980789Y1698372*
X1980900Y1698761*
X1980910Y1698780*
X1981156Y1699075*
X1980901Y1699287*
X1980604Y1698891*
X1980497Y1698569*
X1980443Y1698247*
X1980497Y1697875*
X1980708Y1697505*
X1981022Y1697296*
X1981448Y1697242*
X1981822Y1697296*
X1982143Y1697456*
X1982472Y1697730*
X1982914Y1698117*
X1983524Y1698727*
X1983609Y1698692*
Y1697075*
X1983954*
Y1699309*
X1984009Y1702309D02*
X1983674D01*
X1983720Y1702034*
X1983721Y1702025*
Y1701636*
X1983720Y1701630*
X1983665Y1701186*
X1983662Y1701176*
X1983551Y1700843*
X1983530Y1700816*
X1983252Y1700649*
X1983236Y1700643*
X1982958Y1700587*
X1982939*
X1982661Y1700643*
X1982635Y1700657*
X1982469Y1700823*
X1982458Y1700840*
X1982346Y1701118*
X1982343Y1701129*
X1982288Y1701518*
X1982287Y1701525*
Y1701864*
X1981998*
Y1701525*
Y1701517*
X1981942Y1701184*
X1981938Y1701170*
X1981826Y1700947*
X1981809Y1700928*
X1981643Y1700817*
X1981625Y1700810*
X1981347Y1700754*
X1981325Y1700755*
X1981103Y1700810*
X1981093Y1700814*
X1980870Y1700925*
X1980844Y1700958*
X1980789Y1701180*
X1980788Y1701182*
X1980733Y1701460*
X1980732Y1701470*
Y1701477*
X1980788Y1701866*
X1980789Y1701872*
X1980882Y1702198*
X1980599*
X1980552Y1702013*
X1980551Y1702010*
X1980496Y1701845*
X1980443Y1701630*
Y1701417*
X1980497Y1700983*
X1980656Y1700612*
X1980913Y1700406*
X1981280Y1700354*
X1981543Y1700406*
X1981752Y1700511*
X1981911Y1700669*
X1982075Y1700889*
X1982164Y1700871*
X1982217Y1700656*
X1982374Y1700395*
X1982633Y1700239*
X1982892Y1700188*
X1983316Y1700294*
X1983687Y1700559*
X1983900Y1700985*
X1984009Y1701641*
Y1702309*
Y1709198D02*
X1983674D01*
X1983720Y1708922*
X1983721Y1708914*
Y1708525*
X1983720Y1708518*
X1983665Y1708129*
X1983658Y1708111*
X1983491Y1707833*
X1983484Y1707823*
X1983262Y1707601*
X1983234Y1707587*
X1982901Y1707532*
X1982883*
X1982605Y1707587*
X1982585Y1707596*
X1982363Y1707763*
X1982345Y1707787*
X1982234Y1708121*
X1982232Y1708129*
X1982177Y1708518*
X1982176Y1708525*
Y1709142*
X1980498*
Y1707298*
X1980787*
Y1708692*
X1980837Y1708742*
X1981837*
X1981887Y1708692*
Y1708361*
X1981942Y1707872*
X1982102Y1707498*
X1982422Y1707178*
X1982627Y1707075*
X1983103*
X1983309Y1707178*
X1983687Y1707502*
X1983955Y1707985*
X1984009Y1708528*
Y1709198*
Y1712309D02*
X1983674D01*
X1983720Y1712034*
X1983721Y1712025*
Y1711636*
X1983720Y1711630*
X1983665Y1711186*
X1983662Y1711176*
X1983551Y1710843*
X1983530Y1710816*
X1983252Y1710649*
X1983236Y1710643*
X1982958Y1710587*
X1982939*
X1982661Y1710643*
X1982635Y1710657*
X1982469Y1710823*
X1982458Y1710840*
X1982346Y1711118*
X1982343Y1711129*
X1982288Y1711518*
X1982287Y1711525*
Y1711864*
X1981998*
Y1711525*
Y1711517*
X1981942Y1711184*
X1981938Y1711170*
X1981826Y1710947*
X1981809Y1710928*
X1981643Y1710817*
X1981625Y1710810*
X1981347Y1710754*
X1981325Y1710755*
X1981103Y1710810*
X1981093Y1710814*
X1980870Y1710925*
X1980844Y1710958*
X1980789Y1711180*
X1980788Y1711182*
X1980733Y1711460*
X1980732Y1711470*
Y1711477*
X1980788Y1711866*
X1980789Y1711872*
X1980882Y1712198*
X1980599*
X1980552Y1712013*
X1980551Y1712010*
X1980496Y1711845*
X1980443Y1711630*
Y1711417*
X1980497Y1710983*
X1980656Y1710612*
X1980913Y1710406*
X1981280Y1710354*
X1981543Y1710406*
X1981752Y1710511*
X1981911Y1710669*
X1982075Y1710889*
X1982164Y1710871*
X1982217Y1710656*
X1982374Y1710395*
X1982633Y1710239*
X1982892Y1710188*
X1983316Y1710294*
X1983687Y1710559*
X1983900Y1710985*
X1984009Y1711641*
Y1712309*
X1983954Y1717864D02*
X1983226D01*
X1983176Y1717914*
Y1719586*
X1982852*
X1980498Y1718109*
Y1717464*
X1982837*
X1982887Y1717414*
Y1716909*
X1983176*
Y1717414*
X1983226Y1717464*
X1983954*
Y1717864*
X1982887Y1719136D02*
Y1717914D01*
X1982837Y1717864*
X1980893*
X1980866Y1717957*
X1982811Y1719179*
X1982887Y1719136*
X1984009Y1722309D02*
X1983674D01*
X1983720Y1722034*
X1983721Y1722025*
Y1721636*
X1983720Y1721630*
X1983665Y1721186*
X1983662Y1721176*
X1983551Y1720843*
X1983530Y1720816*
X1983252Y1720649*
X1983236Y1720643*
X1982958Y1720587*
X1982939*
X1982661Y1720643*
X1982635Y1720657*
X1982469Y1720823*
X1982458Y1720840*
X1982346Y1721118*
X1982343Y1721129*
X1982288Y1721518*
X1982287Y1721525*
Y1721864*
X1981998*
Y1721525*
Y1721517*
X1981942Y1721184*
X1981938Y1721170*
X1981826Y1720947*
X1981809Y1720928*
X1981643Y1720817*
X1981625Y1720810*
X1981347Y1720754*
X1981325Y1720755*
X1981103Y1720810*
X1981093Y1720814*
X1980870Y1720925*
X1980844Y1720958*
X1980789Y1721180*
X1980788Y1721182*
X1980733Y1721460*
X1980732Y1721470*
Y1721477*
X1980788Y1721866*
X1980789Y1721872*
X1980882Y1722198*
X1980599*
X1980552Y1722013*
X1980551Y1722010*
X1980496Y1721845*
X1980443Y1721630*
Y1721417*
X1980497Y1720983*
X1980656Y1720612*
X1980913Y1720406*
X1981280Y1720354*
X1981543Y1720406*
X1981752Y1720511*
X1981911Y1720669*
X1982075Y1720889*
X1982164Y1720871*
X1982217Y1720656*
X1982374Y1720395*
X1982633Y1720239*
X1982892Y1720188*
X1983316Y1720294*
X1983687Y1720559*
X1983900Y1720985*
X1984009Y1721641*
Y1722309*
X1983954Y1729364D02*
X1980498D01*
Y1728781*
X1982578Y1727905*
X1983411Y1727572*
X1983393Y1727475*
X1980498*
Y1727075*
X1983954*
Y1727659*
X1981763Y1728590*
X1981042Y1728868*
X1981059Y1728964*
X1983954*
Y1729364*
Y1731600D02*
X1980498Y1732680D01*
Y1732284*
X1982852Y1731517*
X1982852D02*
X1983574Y1731295D01*
X1983571Y1731199*
X1982851Y1731033*
X1980498Y1730267*
Y1729818*
X1983954Y1731005*
X1983954D02*
Y1731600D01*
Y1739253D02*
X1980498D01*
Y1738306*
X1980553Y1737762*
X1980766Y1737335*
X1981087Y1737068*
X1981087D02*
X1981294Y1736964D01*
X1981556*
X1981929Y1737018*
X1982300Y1737283*
X1982569Y1737713*
X1982676Y1738033*
Y1738803*
X1982726Y1738853*
X1983954*
Y1739253*
X1982387Y1738803D02*
Y1738359D01*
Y1738352*
X1982331Y1737963*
X1982328Y1737951*
X1982217Y1737673*
X1982196Y1737649*
X1981919Y1737482*
X1981919D02*
X1981901Y1737476D01*
X1981568Y1737420*
X1981550Y1737421*
X1981272Y1737476*
X1981256Y1737482*
X1981256D02*
X1980978Y1737649D01*
X1980958Y1737673*
X1980846Y1737951*
X1980844Y1737962*
X1980788Y1738295*
X1980787Y1738303*
Y1738803*
X1980837Y1738853*
X1982337*
X1982387Y1738803*
X1983954Y1741600D02*
X1980498Y1742680D01*
Y1742284*
X1982852Y1741517*
X1982852D02*
X1983574Y1741295D01*
X1983571Y1741199*
X1982851Y1741033*
X1980498Y1740267*
Y1739818*
X1983954Y1741005*
X1983954D02*
Y1741600D01*
Y1749364D02*
X1980498D01*
Y1748781*
X1982578Y1747905*
X1983411Y1747572*
X1983393Y1747475*
X1980498*
Y1747075*
X1983954*
Y1747659*
X1981763Y1748590*
X1981042Y1748868*
X1981059Y1748964*
X1983954*
Y1749364*
Y1752198D02*
X1980498D01*
Y1750298*
X1980787*
Y1751748*
X1980837Y1751798*
X1982004*
X1982054Y1751748*
Y1750353*
X1982343*
Y1751748*
X1982393Y1751798*
X1983615*
X1983665Y1751748*
Y1750298*
X1983954*
Y1752198*
X1984009Y1757698D02*
X1983674D01*
X1983720Y1757422*
X1983721Y1757414*
Y1757025*
X1983720Y1757019*
X1983665Y1756575*
X1983662Y1756565*
X1983551Y1756232*
X1983530Y1756205*
X1983252Y1756038*
X1983236Y1756032*
X1982958Y1755976*
X1982939*
X1982661Y1756032*
X1982635Y1756046*
X1982469Y1756212*
X1982458Y1756229*
X1982346Y1756507*
X1982343Y1756518*
X1982288Y1756907*
X1982287Y1756914*
Y1757253*
X1981998*
Y1756914*
Y1756906*
X1981942Y1756573*
X1981938Y1756559*
X1981826Y1756336*
X1981809Y1756317*
X1981643Y1756206*
X1981625Y1756199*
X1981347Y1756143*
X1981325Y1756144*
X1981103Y1756199*
X1981093Y1756203*
X1980870Y1756314*
X1980844Y1756347*
X1980789Y1756569*
X1980788Y1756571*
X1980733Y1756849*
X1980732Y1756859*
Y1756866*
X1980788Y1757255*
X1980789Y1757261*
X1980882Y1757586*
X1980599*
X1980552Y1757402*
X1980551Y1757398*
X1980496Y1757234*
X1980443Y1757019*
Y1756806*
X1980497Y1756372*
X1980656Y1756001*
X1980913Y1755795*
X1981280Y1755743*
X1981543Y1755795*
X1981752Y1755900*
X1981911Y1756058*
X1982075Y1756278*
X1982164Y1756260*
X1982217Y1756045*
X1982374Y1755784*
X1982633Y1755628*
X1982892Y1755577*
X1983316Y1755683*
X1983687Y1755948*
X1983900Y1756374*
X1984009Y1757030*
Y1757698*
X1983954Y1760044D02*
X1980498Y1761124D01*
Y1760728*
X1982852Y1759962*
X1983574Y1759740*
X1983571Y1759643*
X1982851Y1759477*
X1980498Y1758711*
Y1758262*
X1983954Y1759450*
Y1760044*
X1984009Y1763809D02*
X1983674D01*
X1983720Y1763534*
X1983721Y1763525*
Y1763136*
X1983720Y1763130*
X1983665Y1762686*
X1983662Y1762676*
X1983551Y1762343*
X1983530Y1762316*
X1983252Y1762149*
X1983236Y1762143*
X1982958Y1762087*
X1982939*
X1982661Y1762143*
X1982635Y1762157*
X1982469Y1762323*
X1982458Y1762340*
X1982346Y1762618*
X1982343Y1762629*
X1982288Y1763018*
X1982287Y1763025*
Y1763364*
X1981998*
Y1763025*
Y1763017*
X1981942Y1762684*
X1981938Y1762670*
X1981826Y1762447*
X1981809Y1762428*
X1981643Y1762317*
X1981625Y1762310*
X1981347Y1762254*
X1981325Y1762255*
X1981103Y1762310*
X1981093Y1762314*
X1980870Y1762425*
X1980844Y1762458*
X1980789Y1762680*
X1980788Y1762682*
X1980733Y1762960*
X1980732Y1762970*
Y1762977*
X1980788Y1763366*
X1980789Y1763372*
X1980882Y1763698*
X1980599*
X1980552Y1763513*
X1980551Y1763510*
X1980496Y1763345*
X1980443Y1763130*
Y1762917*
X1980497Y1762483*
X1980656Y1762112*
X1980913Y1761906*
X1981280Y1761854*
X1981543Y1761906*
X1981752Y1762011*
X1981911Y1762169*
X1982075Y1762389*
X1982164Y1762371*
X1982217Y1762156*
X1982374Y1761895*
X1982633Y1761739*
X1982892Y1761688*
X1983316Y1761794*
X1983687Y1762059*
X1983900Y1762485*
X1984009Y1763141*
Y1763809*
X1980500Y1576763D02*
Y1577212D01*
Y1579228D02*
Y1579624D01*
Y1580353D02*
Y1582198D01*
Y1586963D02*
Y1587864D01*
Y1588517D02*
Y1589046D01*
Y1590449D02*
Y1590922D01*
Y1591971D02*
Y1592806D01*
Y1597921D02*
Y1598800D01*
Y1601574D02*
Y1602475D01*
Y1607869D02*
Y1608578D01*
Y1611574D02*
Y1612475D01*
Y1617921D02*
Y1618800D01*
Y1620909D02*
Y1621293D01*
Y1626963D02*
Y1627864D01*
Y1628575D02*
Y1628975D01*
Y1630280D02*
Y1630864D01*
Y1631969D02*
Y1632809D01*
Y1638369D02*
Y1639078D01*
Y1641409D02*
Y1641793D01*
Y1647464D02*
Y1648110D01*
Y1650909D02*
Y1651293D01*
Y1657075D02*
Y1659364D01*
Y1660925D02*
Y1661633D01*
Y1667798D02*
Y1668098D01*
Y1671425D02*
Y1672133D01*
Y1677298D02*
Y1679142D01*
Y1680925D02*
Y1681633D01*
Y1687921D02*
Y1688800D01*
Y1690976D02*
Y1691855D01*
Y1697869D02*
Y1698578D01*
Y1700976D02*
Y1701855D01*
Y1707298D02*
Y1709142D01*
Y1710976D02*
Y1711855D01*
Y1717464D02*
Y1718110D01*
Y1720976D02*
Y1721855D01*
Y1727075D02*
Y1727475D01*
Y1728780D02*
Y1729364D01*
Y1729818D02*
Y1730267D01*
Y1732283D02*
Y1732679D01*
Y1738289D02*
Y1739253D01*
Y1739818D02*
Y1740267D01*
Y1742283D02*
Y1742679D01*
Y1747075D02*
Y1747475D01*
Y1748780D02*
Y1749364D01*
Y1750298D02*
Y1752198D01*
Y1756365D02*
Y1757244D01*
Y1758263D02*
Y1758712D01*
Y1760728D02*
Y1761124D01*
Y1762476D02*
Y1763355D01*
X1980600Y1576797D02*
Y1577244D01*
Y1579195D02*
Y1579592D01*
Y1580353D02*
Y1582198D01*
Y1586313D02*
Y1587864D01*
Y1588513D02*
Y1589082D01*
Y1590413D02*
Y1590927D01*
Y1591631D02*
Y1593123D01*
Y1597687D02*
Y1599142D01*
Y1600924D02*
Y1602475D01*
Y1607694D02*
Y1608878D01*
Y1610924D02*
Y1612475D01*
Y1617687D02*
Y1619142D01*
Y1620909D02*
Y1621475D01*
Y1626313D02*
Y1627864D01*
Y1628575D02*
Y1628975D01*
Y1630238D02*
Y1630864D01*
Y1631575D02*
Y1633199D01*
Y1638194D02*
Y1639378D01*
Y1641409D02*
Y1641975D01*
Y1647464D02*
Y1648173D01*
Y1650909D02*
Y1651475D01*
Y1657075D02*
Y1659364D01*
Y1660750D02*
Y1661933D01*
Y1667798D02*
Y1668828D01*
Y1671250D02*
Y1672433D01*
Y1677298D02*
Y1679142D01*
Y1680750D02*
Y1681933D01*
Y1687687D02*
Y1689142D01*
Y1690743D02*
Y1692198D01*
Y1697694D02*
Y1698878D01*
Y1700743D02*
Y1702198D01*
Y1707298D02*
Y1709142D01*
Y1710743D02*
Y1712198D01*
Y1717464D02*
Y1718173D01*
Y1720743D02*
Y1722198D01*
Y1727075D02*
Y1727475D01*
Y1728738D02*
Y1729364D01*
Y1729853D02*
Y1730300D01*
Y1732251D02*
Y1732648D01*
Y1737667D02*
Y1739253D01*
Y1739853D02*
Y1740300D01*
Y1742251D02*
Y1742648D01*
Y1747075D02*
Y1747475D01*
Y1748738D02*
Y1749364D01*
Y1750298D02*
Y1752198D01*
Y1756132D02*
Y1757586D01*
Y1758297D02*
Y1758744D01*
Y1760695D02*
Y1761092D01*
Y1762243D02*
Y1763698D01*
X1980700Y1576831D02*
Y1577277D01*
Y1579163D02*
Y1579561D01*
Y1580353D02*
Y1582198D01*
Y1586111D02*
Y1587864D01*
Y1588508D02*
Y1589118D01*
Y1590377D02*
Y1590932D01*
Y1591631D02*
Y1593252D01*
Y1597521D02*
Y1599142D01*
Y1600722D02*
Y1602475D01*
Y1607519D02*
Y1609018D01*
Y1610722D02*
Y1612475D01*
Y1617521D02*
Y1619142D01*
Y1620909D02*
Y1621657D01*
Y1626111D02*
Y1627864D01*
Y1628575D02*
Y1628975D01*
Y1630196D02*
Y1630864D01*
Y1631575D02*
Y1633366D01*
Y1638019D02*
Y1639518D01*
Y1641409D02*
Y1642157D01*
Y1647464D02*
Y1648235D01*
Y1650909D02*
Y1651657D01*
Y1657075D02*
Y1659364D01*
Y1660575D02*
Y1662074D01*
Y1667798D02*
Y1669028D01*
Y1671075D02*
Y1672574D01*
Y1677298D02*
Y1679142D01*
Y1680575D02*
Y1682074D01*
Y1687521D02*
Y1689142D01*
Y1690577D02*
Y1692198D01*
Y1697519D02*
Y1699018D01*
Y1700577D02*
Y1702198D01*
Y1707298D02*
Y1709142D01*
Y1710577D02*
Y1712198D01*
Y1717464D02*
Y1718235D01*
Y1720577D02*
Y1722198D01*
Y1727075D02*
Y1727475D01*
Y1728696D02*
Y1729364D01*
Y1729887D02*
Y1730332D01*
Y1732218D02*
Y1732617D01*
Y1737467D02*
Y1739253D01*
Y1739887D02*
Y1740332D01*
Y1742218D02*
Y1742617D01*
Y1747075D02*
Y1747475D01*
Y1748696D02*
Y1749364D01*
Y1750298D02*
Y1752198D01*
Y1755966D02*
Y1757586D01*
Y1758331D02*
Y1758777D01*
Y1760663D02*
Y1761061D01*
Y1762077D02*
Y1763698D01*
X1980800Y1576866D02*
Y1577309D01*
Y1579130D02*
Y1579530D01*
Y1581781D02*
Y1582198D01*
Y1585944D02*
Y1586896D01*
Y1587448D02*
Y1587864D01*
Y1588503D02*
Y1589154D01*
Y1590341D02*
Y1590936D01*
Y1591631D02*
Y1592309D01*
Y1592471D02*
Y1593380D01*
Y1597441D02*
Y1598079D01*
Y1598855D02*
Y1599142D01*
Y1600555D02*
Y1601507D01*
Y1602059D02*
Y1602475D01*
Y1607444D02*
Y1608290D01*
Y1608410D02*
Y1609152D01*
Y1610555D02*
Y1611507D01*
Y1612059D02*
Y1612475D01*
Y1617441D02*
Y1618079D01*
Y1618855D02*
Y1619142D01*
Y1620909D02*
Y1621839D01*
Y1625944D02*
Y1626896D01*
Y1627448D02*
Y1627864D01*
Y1628575D02*
Y1628975D01*
Y1630154D02*
Y1630864D01*
Y1631575D02*
Y1632297D01*
Y1632477D02*
Y1633473D01*
Y1637944D02*
Y1638790D01*
Y1638910D02*
Y1639652D01*
Y1641409D02*
Y1642339D01*
Y1647464D02*
Y1648298D01*
Y1650909D02*
Y1651839D01*
Y1657075D02*
Y1659364D01*
Y1660499D02*
Y1661346D01*
Y1661466D02*
Y1662207D01*
Y1668266D02*
Y1669195D01*
Y1670999D02*
Y1671846D01*
Y1671966D02*
Y1672707D01*
Y1678725D02*
Y1679142D01*
Y1680499D02*
Y1681346D01*
Y1681466D02*
Y1682207D01*
Y1687441D02*
Y1688079D01*
Y1688855D02*
Y1689142D01*
Y1690497D02*
Y1691135D01*
Y1691910D02*
Y1692198D01*
Y1697444D02*
Y1698290D01*
Y1698410D02*
Y1699152D01*
Y1700497D02*
Y1701135D01*
Y1701910D02*
Y1702198D01*
Y1708725D02*
Y1709142D01*
Y1710497D02*
Y1711135D01*
Y1711910D02*
Y1712198D01*
Y1717464D02*
Y1718298D01*
Y1720497D02*
Y1721135D01*
Y1721910D02*
Y1722198D01*
Y1727075D02*
Y1727475D01*
Y1728654D02*
Y1729364D01*
Y1729921D02*
Y1730365D01*
Y1732186D02*
Y1732585D01*
Y1737307D02*
Y1738223D01*
Y1738836D02*
Y1739253D01*
Y1739921D02*
Y1740365D01*
Y1742186D02*
Y1742585D01*
Y1747075D02*
Y1747475D01*
Y1748654D02*
Y1749364D01*
Y1751781D02*
Y1752198D01*
Y1755886D02*
Y1756524D01*
Y1757299D02*
Y1757586D01*
Y1758366D02*
Y1758809D01*
Y1760630D02*
Y1761030D01*
Y1761997D02*
Y1762635D01*
Y1763410D02*
Y1763698D01*
X1980900Y1576900D02*
Y1577342D01*
Y1579098D02*
Y1579499D01*
Y1581798D02*
Y1582198D01*
Y1585777D02*
Y1586383D01*
Y1587464D02*
Y1587864D01*
Y1588499D02*
Y1588846D01*
Y1588871D02*
Y1589190D01*
Y1590305D02*
Y1590568D01*
Y1590594D02*
Y1590941D01*
Y1591631D02*
Y1591826D01*
Y1592871D02*
Y1593509D01*
Y1597361D02*
Y1597855D01*
Y1600388D02*
Y1600994D01*
Y1602075D02*
Y1602475D01*
Y1607377D02*
Y1607980D01*
Y1608760D02*
Y1609285D01*
Y1610388D02*
Y1610994D01*
Y1612075D02*
Y1612475D01*
Y1617361D02*
Y1617855D01*
Y1620909D02*
Y1621364D01*
Y1621515D02*
Y1622021D01*
Y1625777D02*
Y1626383D01*
Y1627464D02*
Y1627864D01*
Y1628575D02*
Y1628975D01*
Y1630112D02*
Y1630864D01*
Y1631575D02*
Y1631771D01*
Y1632927D02*
Y1633573D01*
Y1637877D02*
Y1638480D01*
Y1639260D02*
Y1639785D01*
Y1641409D02*
Y1641864D01*
Y1642015D02*
Y1642521D01*
Y1647464D02*
Y1647864D01*
Y1647978D02*
Y1648361D01*
Y1650909D02*
Y1651364D01*
Y1651515D02*
Y1652021D01*
Y1657084D02*
Y1657476D01*
Y1660433D02*
Y1661036D01*
Y1661816D02*
Y1662340D01*
Y1668805D02*
Y1669295D01*
Y1670933D02*
Y1671536D01*
Y1672316D02*
Y1672840D01*
Y1678742D02*
Y1679142D01*
Y1680433D02*
Y1681036D01*
Y1681816D02*
Y1682340D01*
Y1687361D02*
Y1687855D01*
Y1690417D02*
Y1690910D01*
Y1697377D02*
Y1697980D01*
Y1698760D02*
Y1699285D01*
Y1700417D02*
Y1700910D01*
Y1708742D02*
Y1709142D01*
Y1710417D02*
Y1710910D01*
Y1717464D02*
Y1717864D01*
Y1717978D02*
Y1718361D01*
Y1720417D02*
Y1720910D01*
Y1727075D02*
Y1727475D01*
Y1728612D02*
Y1729364D01*
Y1729956D02*
Y1730398D01*
Y1732153D02*
Y1732554D01*
Y1737223D02*
Y1737817D01*
Y1738853D02*
Y1739253D01*
Y1739956D02*
Y1740398D01*
Y1742153D02*
Y1742554D01*
Y1747075D02*
Y1747475D01*
Y1748612D02*
Y1749364D01*
Y1751798D02*
Y1752198D01*
Y1755806D02*
Y1756299D01*
Y1758400D02*
Y1758842D01*
Y1760598D02*
Y1760999D01*
Y1761917D02*
Y1762410D01*
X1981000Y1576935D02*
Y1577375D01*
Y1579065D02*
Y1579467D01*
Y1581798D02*
Y1582198D01*
Y1585674D02*
Y1586263D01*
Y1587464D02*
Y1587864D01*
Y1588494D02*
Y1588809D01*
Y1588940D02*
Y1589226D01*
Y1590269D02*
Y1590511D01*
Y1590634D02*
Y1590946D01*
Y1592999D02*
Y1593582D01*
Y1597338D02*
Y1597805D01*
Y1600285D02*
Y1600874D01*
Y1602075D02*
Y1602475D01*
Y1607310D02*
Y1607860D01*
Y1608888D02*
Y1609204D01*
Y1610285D02*
Y1610874D01*
Y1612075D02*
Y1612475D01*
Y1617338D02*
Y1617805D01*
Y1620909D02*
Y1621364D01*
Y1621665D02*
Y1622202D01*
Y1625674D02*
Y1626263D01*
Y1627464D02*
Y1627864D01*
Y1628575D02*
Y1628975D01*
Y1630070D02*
Y1630864D01*
Y1633054D02*
Y1633645D01*
Y1637810D02*
Y1638360D01*
Y1639388D02*
Y1639704D01*
Y1641409D02*
Y1641864D01*
Y1642165D02*
Y1642702D01*
Y1647464D02*
Y1647864D01*
Y1648041D02*
Y1648424D01*
Y1650909D02*
Y1651364D01*
Y1651665D02*
Y1652202D01*
Y1657133D02*
Y1657522D01*
Y1660366D02*
Y1660916D01*
Y1661943D02*
Y1662260D01*
Y1668980D02*
Y1669395D01*
Y1670866D02*
Y1671416D01*
Y1672443D02*
Y1672760D01*
Y1678742D02*
Y1679142D01*
Y1680366D02*
Y1680916D01*
Y1681943D02*
Y1682260D01*
Y1687338D02*
Y1687805D01*
Y1690394D02*
Y1690860D01*
Y1697310D02*
Y1697860D01*
Y1698888D02*
Y1699204D01*
Y1700394D02*
Y1700860D01*
Y1708742D02*
Y1709142D01*
Y1710394D02*
Y1710860D01*
Y1717464D02*
Y1717864D01*
Y1718041D02*
Y1718424D01*
Y1720394D02*
Y1720860D01*
Y1727075D02*
Y1727475D01*
Y1728570D02*
Y1729364D01*
Y1729990D02*
Y1730430D01*
Y1732121D02*
Y1732523D01*
Y1737140D02*
Y1737636D01*
Y1738853D02*
Y1739253D01*
Y1739990D02*
Y1740430D01*
Y1742121D02*
Y1742523D01*
Y1747075D02*
Y1747475D01*
Y1748570D02*
Y1749364D01*
Y1751798D02*
Y1752198D01*
Y1755783D02*
Y1756249D01*
Y1758435D02*
Y1758875D01*
Y1760565D02*
Y1760967D01*
Y1761894D02*
Y1762360D01*
X1981100Y1576969D02*
Y1577407D01*
Y1579032D02*
Y1579436D01*
Y1581798D02*
Y1582198D01*
Y1585599D02*
Y1586143D01*
Y1587464D02*
Y1587864D01*
Y1588489D02*
Y1588809D01*
Y1588990D02*
Y1589262D01*
Y1590233D02*
Y1590478D01*
Y1590641D02*
Y1590950D01*
Y1593119D02*
Y1593637D01*
Y1597324D02*
Y1597755D01*
Y1600210D02*
Y1600754D01*
Y1602075D02*
Y1602475D01*
Y1607286D02*
Y1607810D01*
Y1609008D02*
Y1609121D01*
Y1610210D02*
Y1610754D01*
Y1612075D02*
Y1612475D01*
Y1617324D02*
Y1617755D01*
Y1620909D02*
Y1621364D01*
Y1621815D02*
Y1622343D01*
Y1625599D02*
Y1626143D01*
Y1627464D02*
Y1627864D01*
Y1628575D02*
Y1628975D01*
Y1630027D02*
Y1630345D01*
Y1630464D02*
Y1630864D01*
Y1633174D02*
Y1633709D01*
Y1637786D02*
Y1638310D01*
Y1639508D02*
Y1639621D01*
Y1641409D02*
Y1641864D01*
Y1642315D02*
Y1642843D01*
Y1647464D02*
Y1647864D01*
Y1648104D02*
Y1648487D01*
Y1650909D02*
Y1651364D01*
Y1651815D02*
Y1652343D01*
Y1657181D02*
Y1657570D01*
Y1660342D02*
Y1660866D01*
Y1662063D02*
Y1662177D01*
Y1669130D02*
Y1669490D01*
Y1670842D02*
Y1671366D01*
Y1672563D02*
Y1672677D01*
Y1678742D02*
Y1679142D01*
Y1680342D02*
Y1680866D01*
Y1682063D02*
Y1682177D01*
Y1687324D02*
Y1687755D01*
Y1690380D02*
Y1690811D01*
Y1697286D02*
Y1697810D01*
Y1699008D02*
Y1699121D01*
Y1700380D02*
Y1700811D01*
Y1708742D02*
Y1709142D01*
Y1710380D02*
Y1710811D01*
Y1717464D02*
Y1717864D01*
Y1718104D02*
Y1718487D01*
Y1720380D02*
Y1720811D01*
Y1727075D02*
Y1727475D01*
Y1728527D02*
Y1728845D01*
Y1728964D02*
Y1729364D01*
Y1730024D02*
Y1730463D01*
Y1732088D02*
Y1732492D01*
Y1737061D02*
Y1737576D01*
Y1738853D02*
Y1739253D01*
Y1740024D02*
Y1740463D01*
Y1742088D02*
Y1742492D01*
Y1747075D02*
Y1747475D01*
Y1748527D02*
Y1748845D01*
Y1748964D02*
Y1749364D01*
Y1751798D02*
Y1752198D01*
Y1755769D02*
Y1756200D01*
Y1758469D02*
Y1758907D01*
Y1760532D02*
Y1760936D01*
Y1761880D02*
Y1762311D01*
X1981200Y1577003D02*
Y1577440D01*
Y1579000D02*
Y1579405D01*
Y1581798D02*
Y1582198D01*
Y1585550D02*
Y1586062D01*
Y1587464D02*
Y1587864D01*
Y1588485D02*
Y1588809D01*
Y1589040D02*
Y1589298D01*
Y1590197D02*
Y1590444D01*
Y1590648D02*
Y1590955D01*
Y1593235D02*
Y1593692D01*
Y1597310D02*
Y1597730D01*
Y1600161D02*
Y1600673D01*
Y1602075D02*
Y1602475D01*
Y1607273D02*
Y1607760D01*
Y1610161D02*
Y1610673D01*
Y1612075D02*
Y1612475D01*
Y1617310D02*
Y1617730D01*
Y1620909D02*
Y1621364D01*
Y1621965D02*
Y1622300D01*
Y1625550D02*
Y1626062D01*
Y1627464D02*
Y1627864D01*
Y1628575D02*
Y1628975D01*
Y1629985D02*
Y1630307D01*
Y1630464D02*
Y1630864D01*
Y1633290D02*
Y1633773D01*
Y1637773D02*
Y1638260D01*
Y1641409D02*
Y1641864D01*
Y1642465D02*
Y1642800D01*
Y1647464D02*
Y1647864D01*
Y1648166D02*
Y1648549D01*
Y1650909D02*
Y1651364D01*
Y1651965D02*
Y1652300D01*
Y1657229D02*
Y1657618D01*
Y1660329D02*
Y1660816D01*
Y1669187D02*
Y1669540D01*
Y1670829D02*
Y1671316D01*
Y1678742D02*
Y1679142D01*
Y1680329D02*
Y1680816D01*
Y1687310D02*
Y1687730D01*
Y1690365D02*
Y1690786D01*
Y1697273D02*
Y1697760D01*
Y1700365D02*
Y1700786D01*
Y1708742D02*
Y1709142D01*
Y1710365D02*
Y1710786D01*
Y1717464D02*
Y1717864D01*
Y1718166D02*
Y1718549D01*
Y1720365D02*
Y1720786D01*
Y1727075D02*
Y1727475D01*
Y1728485D02*
Y1728807D01*
Y1728964D02*
Y1729364D01*
Y1730059D02*
Y1730495D01*
Y1732055D02*
Y1732460D01*
Y1737011D02*
Y1737516D01*
Y1738853D02*
Y1739253D01*
Y1740059D02*
Y1740495D01*
Y1742055D02*
Y1742460D01*
Y1747075D02*
Y1747475D01*
Y1748485D02*
Y1748807D01*
Y1748964D02*
Y1749364D01*
Y1751798D02*
Y1752198D01*
Y1755754D02*
Y1756175D01*
Y1758503D02*
Y1758940D01*
Y1760500D02*
Y1760905D01*
Y1761865D02*
Y1762286D01*
X1981300Y1577038D02*
Y1577472D01*
Y1578967D02*
Y1579374D01*
Y1581798D02*
Y1582198D01*
Y1585516D02*
Y1586005D01*
Y1587464D02*
Y1587864D01*
Y1588480D02*
Y1588809D01*
Y1589090D02*
Y1589334D01*
Y1590161D02*
Y1590411D01*
Y1590654D02*
Y1590960D01*
Y1593285D02*
Y1593746D01*
Y1597302D02*
Y1597705D01*
Y1600128D02*
Y1600616D01*
Y1602075D02*
Y1602475D01*
Y1607261D02*
Y1607733D01*
Y1610128D02*
Y1610616D01*
Y1612075D02*
Y1612475D01*
Y1617302D02*
Y1617705D01*
Y1620909D02*
Y1621364D01*
Y1622115D02*
Y1622257D01*
Y1625516D02*
Y1626005D01*
Y1627464D02*
Y1627864D01*
Y1628575D02*
Y1628975D01*
Y1629943D02*
Y1630268D01*
Y1630464D02*
Y1630864D01*
Y1633353D02*
Y1633836D01*
Y1637761D02*
Y1638233D01*
Y1641409D02*
Y1641864D01*
Y1642615D02*
Y1642757D01*
Y1647464D02*
Y1647864D01*
Y1648229D02*
Y1648612D01*
Y1650909D02*
Y1651364D01*
Y1652115D02*
Y1652257D01*
Y1657277D02*
Y1657666D01*
Y1660317D02*
Y1660789D01*
Y1669244D02*
Y1669590D01*
Y1670817D02*
Y1671289D01*
Y1678742D02*
Y1679142D01*
Y1680317D02*
Y1680789D01*
Y1687302D02*
Y1687705D01*
Y1690358D02*
Y1690761D01*
Y1697261D02*
Y1697733D01*
Y1700358D02*
Y1700761D01*
Y1708742D02*
Y1709142D01*
Y1710358D02*
Y1710761D01*
Y1717464D02*
Y1717864D01*
Y1718229D02*
Y1718612D01*
Y1720358D02*
Y1720761D01*
Y1727075D02*
Y1727475D01*
Y1728443D02*
Y1728768D01*
Y1728964D02*
Y1729364D01*
Y1730093D02*
Y1730528D01*
Y1732023D02*
Y1732429D01*
Y1736964D02*
Y1737471D01*
Y1738853D02*
Y1739253D01*
Y1740093D02*
Y1740528D01*
Y1742023D02*
Y1742429D01*
Y1747075D02*
Y1747475D01*
Y1748443D02*
Y1748768D01*
Y1748964D02*
Y1749364D01*
Y1751798D02*
Y1752198D01*
Y1755747D02*
Y1756150D01*
Y1758538D02*
Y1758972D01*
Y1760467D02*
Y1760874D01*
Y1761858D02*
Y1762261D01*
X1981400Y1577072D02*
Y1577505D01*
Y1578935D02*
Y1579342D01*
Y1581798D02*
Y1582198D01*
Y1585483D02*
Y1585948D01*
Y1587464D02*
Y1587864D01*
Y1588475D02*
Y1588809D01*
Y1589136D02*
Y1589370D01*
Y1590125D02*
Y1590378D01*
Y1590661D02*
Y1590964D01*
Y1593335D02*
Y1593801D01*
Y1597322D02*
Y1597709D01*
Y1600094D02*
Y1600559D01*
Y1602075D02*
Y1602475D01*
Y1607248D02*
Y1607708D01*
Y1610094D02*
Y1610559D01*
Y1612075D02*
Y1612475D01*
Y1617322D02*
Y1617709D01*
Y1620909D02*
Y1621364D01*
Y1625483D02*
Y1625948D01*
Y1627464D02*
Y1627864D01*
Y1628575D02*
Y1628975D01*
Y1629901D02*
Y1630230D01*
Y1630464D02*
Y1630864D01*
Y1633415D02*
Y1633900D01*
Y1637748D02*
Y1638208D01*
Y1641409D02*
Y1641864D01*
Y1647464D02*
Y1647864D01*
Y1648292D02*
Y1648675D01*
Y1650909D02*
Y1651364D01*
Y1657325D02*
Y1657714D01*
Y1660304D02*
Y1660764D01*
Y1669301D02*
Y1669640D01*
Y1670804D02*
Y1671264D01*
Y1678742D02*
Y1679142D01*
Y1680304D02*
Y1680764D01*
Y1687322D02*
Y1687709D01*
Y1690378D02*
Y1690765D01*
Y1697248D02*
Y1697708D01*
Y1700378D02*
Y1700765D01*
Y1708742D02*
Y1709142D01*
Y1710378D02*
Y1710765D01*
Y1717464D02*
Y1717864D01*
Y1718292D02*
Y1718675D01*
Y1720378D02*
Y1720765D01*
Y1727075D02*
Y1727475D01*
Y1728401D02*
Y1728730D01*
Y1728964D02*
Y1729364D01*
Y1730128D02*
Y1730560D01*
Y1731990D02*
Y1732398D01*
Y1736964D02*
Y1737451D01*
Y1738853D02*
Y1739253D01*
Y1740128D02*
Y1740560D01*
Y1741990D02*
Y1742398D01*
Y1747075D02*
Y1747475D01*
Y1748401D02*
Y1748730D01*
Y1748964D02*
Y1749364D01*
Y1751798D02*
Y1752198D01*
Y1755767D02*
Y1756154D01*
Y1758572D02*
Y1759005D01*
Y1760435D02*
Y1760842D01*
Y1761878D02*
Y1762265D01*
X1981500Y1577106D02*
Y1577537D01*
Y1578902D02*
Y1579311D01*
Y1581798D02*
Y1582198D01*
Y1585457D02*
Y1585891D01*
Y1587464D02*
Y1587864D01*
Y1588471D02*
Y1588809D01*
Y1589171D02*
Y1589406D01*
Y1590089D02*
Y1590343D01*
Y1590668D02*
Y1590969D01*
Y1593385D02*
Y1593855D01*
Y1597342D02*
Y1597729D01*
Y1600068D02*
Y1600502D01*
Y1602075D02*
Y1602475D01*
Y1607250D02*
Y1607698D01*
Y1610068D02*
Y1610502D01*
Y1612075D02*
Y1612475D01*
Y1617342D02*
Y1617729D01*
Y1620909D02*
Y1621364D01*
Y1625457D02*
Y1625891D01*
Y1627464D02*
Y1627864D01*
Y1628575D02*
Y1628975D01*
Y1629859D02*
Y1630191D01*
Y1630464D02*
Y1630864D01*
Y1633478D02*
Y1633964D01*
Y1637750D02*
Y1638198D01*
Y1641409D02*
Y1641864D01*
Y1647464D02*
Y1647864D01*
Y1648355D02*
Y1648738D01*
Y1650909D02*
Y1651364D01*
Y1657374D02*
Y1657763D01*
Y1660305D02*
Y1660753D01*
Y1669354D02*
Y1669690D01*
Y1670805D02*
Y1671253D01*
Y1678742D02*
Y1679142D01*
Y1680305D02*
Y1680753D01*
Y1687342D02*
Y1687729D01*
Y1690398D02*
Y1690785D01*
Y1697250D02*
Y1697698D01*
Y1700398D02*
Y1700785D01*
Y1708742D02*
Y1709142D01*
Y1710398D02*
Y1710785D01*
Y1717464D02*
Y1717864D01*
Y1718355D02*
Y1718738D01*
Y1720398D02*
Y1720785D01*
Y1727075D02*
Y1727475D01*
Y1728359D02*
Y1728691D01*
Y1728964D02*
Y1729364D01*
Y1730162D02*
Y1730593D01*
Y1731958D02*
Y1732367D01*
Y1736964D02*
Y1737431D01*
Y1738853D02*
Y1739253D01*
Y1740162D02*
Y1740593D01*
Y1741958D02*
Y1742367D01*
Y1747075D02*
Y1747475D01*
Y1748359D02*
Y1748691D01*
Y1748964D02*
Y1749364D01*
Y1751798D02*
Y1752198D01*
Y1755787D02*
Y1756174D01*
Y1758606D02*
Y1759037D01*
Y1760402D02*
Y1760811D01*
Y1761898D02*
Y1762285D01*
X1981600Y1577141D02*
Y1577570D01*
Y1578870D02*
Y1579280D01*
Y1581798D02*
Y1582198D01*
Y1585442D02*
Y1585855D01*
Y1587464D02*
Y1587864D01*
Y1588466D02*
Y1588809D01*
Y1589206D02*
Y1589442D01*
Y1590053D02*
Y1590307D01*
Y1590674D02*
Y1590974D01*
Y1593435D02*
Y1593880D01*
Y1597379D02*
Y1597749D01*
Y1600053D02*
Y1600466D01*
Y1602075D02*
Y1602475D01*
Y1607264D02*
Y1607698D01*
Y1610053D02*
Y1610466D01*
Y1612075D02*
Y1612475D01*
Y1617379D02*
Y1617749D01*
Y1620909D02*
Y1621364D01*
Y1625442D02*
Y1625855D01*
Y1627464D02*
Y1627864D01*
Y1628575D02*
Y1628975D01*
Y1629817D02*
Y1630153D01*
Y1630464D02*
Y1630864D01*
Y1633540D02*
Y1633991D01*
Y1637764D02*
Y1638198D01*
Y1641409D02*
Y1641864D01*
Y1647464D02*
Y1647864D01*
Y1648418D02*
Y1648801D01*
Y1650909D02*
Y1651364D01*
Y1657422D02*
Y1657811D01*
Y1660320D02*
Y1660753D01*
Y1669379D02*
Y1669720D01*
Y1670820D02*
Y1671253D01*
Y1678742D02*
Y1679142D01*
Y1680320D02*
Y1680753D01*
Y1687379D02*
Y1687749D01*
Y1690435D02*
Y1690805D01*
Y1697264D02*
Y1697698D01*
Y1700435D02*
Y1700805D01*
Y1708742D02*
Y1709142D01*
Y1710435D02*
Y1710805D01*
Y1717464D02*
Y1717864D01*
Y1718418D02*
Y1718801D01*
Y1720435D02*
Y1720805D01*
Y1727075D02*
Y1727475D01*
Y1728317D02*
Y1728653D01*
Y1728964D02*
Y1729364D01*
Y1730196D02*
Y1730626D01*
Y1731925D02*
Y1732335D01*
Y1736971D02*
Y1737426D01*
Y1738853D02*
Y1739253D01*
Y1740196D02*
Y1740626D01*
Y1741925D02*
Y1742335D01*
Y1747075D02*
Y1747475D01*
Y1748317D02*
Y1748653D01*
Y1748964D02*
Y1749364D01*
Y1751798D02*
Y1752198D01*
Y1755824D02*
Y1756194D01*
Y1758641D02*
Y1759070D01*
Y1760370D02*
Y1760780D01*
Y1761935D02*
Y1762305D01*
X1981700Y1577175D02*
Y1577603D01*
Y1578837D02*
Y1579249D01*
Y1581798D02*
Y1582198D01*
Y1585426D02*
Y1585835D01*
Y1587464D02*
Y1587864D01*
Y1588461D02*
Y1588809D01*
Y1589240D02*
Y1589478D01*
Y1590017D02*
Y1590271D01*
Y1590681D02*
Y1590978D01*
Y1593467D02*
Y1593896D01*
Y1597429D02*
Y1597800D01*
Y1600037D02*
Y1600446D01*
Y1602075D02*
Y1602475D01*
Y1607278D02*
Y1607698D01*
Y1610037D02*
Y1610446D01*
Y1612075D02*
Y1612475D01*
Y1617429D02*
Y1617800D01*
Y1620909D02*
Y1621364D01*
Y1625426D02*
Y1625835D01*
Y1627464D02*
Y1627864D01*
Y1628575D02*
Y1628975D01*
Y1629775D02*
Y1630114D01*
Y1630464D02*
Y1630864D01*
Y1633579D02*
Y1634007D01*
Y1637778D02*
Y1638198D01*
Y1641409D02*
Y1641864D01*
Y1647464D02*
Y1647864D01*
Y1648481D02*
Y1648863D01*
Y1650909D02*
Y1651364D01*
Y1657470D02*
Y1657859D01*
Y1660334D02*
Y1660753D01*
Y1669404D02*
Y1669745D01*
Y1670834D02*
Y1671253D01*
Y1678742D02*
Y1679142D01*
Y1680334D02*
Y1680753D01*
Y1687429D02*
Y1687800D01*
Y1690485D02*
Y1690855D01*
Y1697278D02*
Y1697698D01*
Y1700485D02*
Y1700855D01*
Y1708742D02*
Y1709142D01*
Y1710485D02*
Y1710855D01*
Y1717464D02*
Y1717864D01*
Y1718481D02*
Y1718863D01*
Y1720485D02*
Y1720855D01*
Y1727075D02*
Y1727475D01*
Y1728275D02*
Y1728614D01*
Y1728964D02*
Y1729364D01*
Y1730231D02*
Y1730658D01*
Y1731893D02*
Y1732304D01*
Y1736985D02*
Y1737443D01*
Y1738853D02*
Y1739253D01*
Y1740231D02*
Y1740658D01*
Y1741893D02*
Y1742304D01*
Y1747075D02*
Y1747475D01*
Y1748275D02*
Y1748614D01*
Y1748964D02*
Y1749364D01*
Y1751798D02*
Y1752198D01*
Y1755874D02*
Y1756244D01*
Y1758675D02*
Y1759103D01*
Y1760337D02*
Y1760749D01*
Y1761985D02*
Y1762355D01*
X1981800Y1577210D02*
Y1577635D01*
Y1578805D02*
Y1579217D01*
Y1581798D02*
Y1582198D01*
Y1585411D02*
Y1585815D01*
Y1587464D02*
Y1587864D01*
Y1588457D02*
Y1588807D01*
Y1589275D02*
Y1589514D01*
Y1589981D02*
Y1590235D01*
Y1590687D02*
Y1590983D01*
Y1593477D02*
Y1593913D01*
Y1597503D02*
Y1597866D01*
Y1600022D02*
Y1600426D01*
Y1602075D02*
Y1602475D01*
Y1607293D02*
Y1607723D01*
Y1610022D02*
Y1610426D01*
Y1612075D02*
Y1612475D01*
Y1617503D02*
Y1617866D01*
Y1620909D02*
Y1621364D01*
Y1625411D02*
Y1625815D01*
Y1627464D02*
Y1627864D01*
Y1628575D02*
Y1628975D01*
Y1629733D02*
Y1630074D01*
Y1630464D02*
Y1630864D01*
Y1633589D02*
Y1634024D01*
Y1637793D02*
Y1638223D01*
Y1641409D02*
Y1641864D01*
Y1647464D02*
Y1647864D01*
Y1648544D02*
Y1648926D01*
Y1650909D02*
Y1651364D01*
Y1657518D02*
Y1657907D01*
Y1660348D02*
Y1660779D01*
Y1669429D02*
Y1669770D01*
Y1670848D02*
Y1671279D01*
Y1678742D02*
Y1679142D01*
Y1680348D02*
Y1680779D01*
Y1687503D02*
Y1687866D01*
Y1690559D02*
Y1690922D01*
Y1697293D02*
Y1697723D01*
Y1700559D02*
Y1700922D01*
Y1708742D02*
Y1709142D01*
Y1710559D02*
Y1710922D01*
Y1717464D02*
Y1717864D01*
Y1718544D02*
Y1718926D01*
Y1720559D02*
Y1720922D01*
Y1727075D02*
Y1727475D01*
Y1728233D02*
Y1728574D01*
Y1728964D02*
Y1729364D01*
Y1730265D02*
Y1730691D01*
Y1731860D02*
Y1732273D01*
Y1736999D02*
Y1737459D01*
Y1738853D02*
Y1739253D01*
Y1740265D02*
Y1740691D01*
Y1741860D02*
Y1742273D01*
Y1747075D02*
Y1747475D01*
Y1748233D02*
Y1748574D01*
Y1748964D02*
Y1749364D01*
Y1751798D02*
Y1752198D01*
Y1755948D02*
Y1756311D01*
Y1758710D02*
Y1759135D01*
Y1760305D02*
Y1760717D01*
Y1762059D02*
Y1762422D01*
X1981900Y1577244D02*
Y1577668D01*
Y1578772D02*
Y1579186D01*
Y1581302D02*
Y1582198D01*
Y1585395D02*
Y1585809D01*
Y1587464D02*
Y1587864D01*
Y1588452D02*
Y1588804D01*
Y1589309D02*
Y1589551D01*
Y1589944D02*
Y1590199D01*
Y1590689D02*
Y1590988D01*
Y1593487D02*
Y1593927D01*
Y1597603D02*
Y1598039D01*
Y1600006D02*
Y1600420D01*
Y1602075D02*
Y1602475D01*
Y1607335D02*
Y1607763D01*
Y1610006D02*
Y1610420D01*
Y1612075D02*
Y1612475D01*
Y1617603D02*
Y1618039D01*
Y1620909D02*
Y1621364D01*
Y1625395D02*
Y1625809D01*
Y1627464D02*
Y1627864D01*
Y1628575D02*
Y1628975D01*
Y1629691D02*
Y1630032D01*
Y1630464D02*
Y1630864D01*
Y1633599D02*
Y1634038D01*
Y1637835D02*
Y1638263D01*
Y1641409D02*
Y1641864D01*
Y1647464D02*
Y1647864D01*
Y1648606D02*
Y1648989D01*
Y1650909D02*
Y1651364D01*
Y1657566D02*
Y1657955D01*
Y1660390D02*
Y1660819D01*
Y1668427D02*
Y1668637D01*
Y1669454D02*
Y1669795D01*
Y1670890D02*
Y1671319D01*
Y1678247D02*
Y1679142D01*
Y1680390D02*
Y1680819D01*
Y1687603D02*
Y1688039D01*
Y1690659D02*
Y1691095D01*
Y1697335D02*
Y1697763D01*
Y1700659D02*
Y1701095D01*
Y1708247D02*
Y1709142D01*
Y1710659D02*
Y1711095D01*
Y1717464D02*
Y1717864D01*
Y1718606D02*
Y1718989D01*
Y1720659D02*
Y1721095D01*
Y1727075D02*
Y1727475D01*
Y1728191D02*
Y1728532D01*
Y1728964D02*
Y1729364D01*
Y1730299D02*
Y1730723D01*
Y1731828D02*
Y1732242D01*
Y1737013D02*
Y1737476D01*
Y1738853D02*
Y1739253D01*
Y1740299D02*
Y1740723D01*
Y1741828D02*
Y1742242D01*
Y1747075D02*
Y1747475D01*
Y1748191D02*
Y1748532D01*
Y1748964D02*
Y1749364D01*
Y1751798D02*
Y1752198D01*
Y1756048D02*
Y1756483D01*
Y1758744D02*
Y1759168D01*
Y1760272D02*
Y1760686D01*
Y1762159D02*
Y1762595D01*
X1982000Y1577278D02*
Y1577700D01*
Y1578739D02*
Y1579155D01*
Y1580791D02*
Y1582198D01*
Y1585380D02*
Y1585809D01*
Y1587464D02*
Y1587864D01*
Y1588447D02*
Y1588802D01*
Y1589344D02*
Y1589589D01*
Y1589907D02*
Y1590163D01*
Y1590692D02*
Y1590992D01*
Y1593497D02*
Y1593940D01*
Y1597733D02*
Y1598809D01*
Y1599991D02*
Y1600420D01*
Y1602075D02*
Y1602475D01*
Y1607385D02*
Y1607803D01*
Y1609991D02*
Y1610420D01*
Y1612075D02*
Y1612475D01*
Y1617733D02*
Y1618809D01*
Y1620909D02*
Y1621364D01*
Y1625380D02*
Y1625809D01*
Y1627464D02*
Y1627864D01*
Y1628575D02*
Y1628975D01*
Y1629649D02*
Y1629989D01*
Y1630464D02*
Y1630864D01*
Y1633609D02*
Y1634051D01*
Y1637885D02*
Y1638303D01*
Y1641409D02*
Y1641864D01*
Y1647464D02*
Y1647864D01*
Y1648669D02*
Y1649052D01*
Y1650909D02*
Y1651364D01*
Y1657615D02*
Y1658004D01*
Y1660440D02*
Y1660859D01*
Y1668010D02*
Y1669149D01*
Y1669464D02*
Y1669814D01*
Y1670940D02*
Y1671359D01*
Y1677736D02*
Y1679142D01*
Y1680440D02*
Y1680859D01*
Y1687733D02*
Y1688809D01*
Y1690789D02*
Y1691864D01*
Y1697385D02*
Y1697803D01*
Y1700789D02*
Y1701864D01*
Y1707736D02*
Y1709142D01*
Y1710789D02*
Y1711864D01*
Y1717464D02*
Y1717864D01*
Y1718669D02*
Y1719052D01*
Y1720789D02*
Y1721864D01*
Y1727075D02*
Y1727475D01*
Y1728149D02*
Y1728489D01*
Y1728964D02*
Y1729364D01*
Y1730334D02*
Y1730756D01*
Y1731795D02*
Y1732210D01*
Y1737068D02*
Y1737531D01*
Y1738853D02*
Y1739253D01*
Y1740334D02*
Y1740756D01*
Y1741795D02*
Y1742210D01*
Y1747075D02*
Y1747475D01*
Y1748149D02*
Y1748489D01*
Y1748964D02*
Y1749364D01*
Y1751798D02*
Y1752198D01*
Y1756178D02*
Y1757253D01*
Y1758778D02*
Y1759200D01*
Y1760239D02*
Y1760655D01*
Y1762289D02*
Y1763364D01*
X1982100Y1577313D02*
Y1577733D01*
Y1578707D02*
Y1579124D01*
Y1580558D02*
Y1582198D01*
Y1585365D02*
Y1585809D01*
Y1587464D02*
Y1587864D01*
Y1588442D02*
Y1588800D01*
Y1589379D02*
Y1589626D01*
Y1589869D02*
Y1590127D01*
Y1590694D02*
Y1590997D01*
Y1593507D02*
Y1593952D01*
Y1597851D02*
Y1598809D01*
Y1599976D02*
Y1600420D01*
Y1602075D02*
Y1602475D01*
Y1607435D02*
Y1607872D01*
Y1609976D02*
Y1610420D01*
Y1612075D02*
Y1612475D01*
Y1617851D02*
Y1618809D01*
Y1620909D02*
Y1621364D01*
Y1625365D02*
Y1625809D01*
Y1627464D02*
Y1627864D01*
Y1628575D02*
Y1628975D01*
Y1629606D02*
Y1629947D01*
Y1630464D02*
Y1630864D01*
Y1633619D02*
Y1634063D01*
Y1637935D02*
Y1638372D01*
Y1641409D02*
Y1641864D01*
Y1647464D02*
Y1647864D01*
Y1648732D02*
Y1649115D01*
Y1650909D02*
Y1651364D01*
Y1657663D02*
Y1658052D01*
Y1660490D02*
Y1660927D01*
Y1667860D02*
Y1669382D01*
Y1669444D02*
Y1669824D01*
Y1670990D02*
Y1671427D01*
Y1677502D02*
Y1679142D01*
Y1680490D02*
Y1680927D01*
Y1687851D02*
Y1688809D01*
Y1690906D02*
Y1691864D01*
Y1697435D02*
Y1697872D01*
Y1700906D02*
Y1701864D01*
Y1707502D02*
Y1709142D01*
Y1710906D02*
Y1711864D01*
Y1717464D02*
Y1717864D01*
Y1718732D02*
Y1719115D01*
Y1720906D02*
Y1721864D01*
Y1727075D02*
Y1727475D01*
Y1728106D02*
Y1728447D01*
Y1728964D02*
Y1729364D01*
Y1730368D02*
Y1730788D01*
Y1731762D02*
Y1732179D01*
Y1737140D02*
Y1737591D01*
Y1738853D02*
Y1739253D01*
Y1740368D02*
Y1740788D01*
Y1741762D02*
Y1742179D01*
Y1747075D02*
Y1747475D01*
Y1748106D02*
Y1748447D01*
Y1748964D02*
Y1749364D01*
Y1750353D02*
Y1752198D01*
Y1756295D02*
Y1757253D01*
Y1758813D02*
Y1759233D01*
Y1760207D02*
Y1760624D01*
Y1762406D02*
Y1763364D01*
X1982200Y1577347D02*
Y1577765D01*
Y1578674D02*
Y1579092D01*
Y1580456D02*
Y1581410D01*
Y1585357D02*
Y1585809D01*
Y1587464D02*
Y1587864D01*
Y1588438D02*
Y1588797D01*
Y1589413D02*
Y1589664D01*
Y1589832D02*
Y1590091D01*
Y1590697D02*
Y1591002D01*
Y1593517D02*
Y1593965D01*
Y1597669D02*
Y1598809D01*
Y1599968D02*
Y1600420D01*
Y1602075D02*
Y1602475D01*
Y1607504D02*
Y1607952D01*
Y1609968D02*
Y1610420D01*
Y1612075D02*
Y1612475D01*
Y1617669D02*
Y1618809D01*
Y1620909D02*
Y1621364D01*
Y1625357D02*
Y1625809D01*
Y1627464D02*
Y1627864D01*
Y1628575D02*
Y1628975D01*
Y1629564D02*
Y1629904D01*
Y1630464D02*
Y1630864D01*
Y1631575D02*
Y1632698D01*
Y1633629D02*
Y1634076D01*
Y1638004D02*
Y1638452D01*
Y1641409D02*
Y1641864D01*
Y1647464D02*
Y1647864D01*
Y1648795D02*
Y1649177D01*
Y1650909D02*
Y1651364D01*
Y1657711D02*
Y1658100D01*
Y1660559D02*
Y1661007D01*
Y1667751D02*
Y1668512D01*
Y1668960D02*
Y1669834D01*
Y1671059D02*
Y1671507D01*
Y1677400D02*
Y1678355D01*
Y1680559D02*
Y1681007D01*
Y1687669D02*
Y1688809D01*
Y1690725D02*
Y1691864D01*
Y1697504D02*
Y1697952D01*
Y1700725D02*
Y1701864D01*
Y1707400D02*
Y1708355D01*
Y1710725D02*
Y1711864D01*
Y1717464D02*
Y1717864D01*
Y1718795D02*
Y1719177D01*
Y1720725D02*
Y1721864D01*
Y1727075D02*
Y1727475D01*
Y1728064D02*
Y1728404D01*
Y1728964D02*
Y1729364D01*
Y1730403D02*
Y1730821D01*
Y1731730D02*
Y1732148D01*
Y1737211D02*
Y1737652D01*
Y1738853D02*
Y1739253D01*
Y1740403D02*
Y1740821D01*
Y1741730D02*
Y1742148D01*
Y1747075D02*
Y1747475D01*
Y1748064D02*
Y1748404D01*
Y1748964D02*
Y1749364D01*
Y1750353D02*
Y1752198D01*
Y1756114D02*
Y1757253D01*
Y1758847D02*
Y1759265D01*
Y1760174D02*
Y1760592D01*
Y1762225D02*
Y1763364D01*
X1982300Y1577381D02*
Y1577798D01*
Y1578642D02*
Y1579061D01*
Y1580356D02*
Y1580979D01*
Y1585368D02*
Y1585816D01*
Y1587464D02*
Y1587864D01*
Y1588433D02*
Y1588795D01*
Y1589448D02*
Y1589701D01*
Y1589794D02*
Y1590055D01*
Y1590699D02*
Y1591007D01*
Y1593513D02*
Y1593972D01*
Y1597462D02*
Y1598377D01*
Y1599979D02*
Y1600427D01*
Y1602075D02*
Y1602475D01*
Y1607587D02*
Y1608032D01*
Y1609979D02*
Y1610427D01*
Y1612075D02*
Y1612475D01*
Y1617462D02*
Y1618377D01*
Y1620909D02*
Y1621364D01*
Y1625368D02*
Y1625816D01*
Y1627464D02*
Y1627864D01*
Y1628575D02*
Y1628975D01*
Y1629522D02*
Y1629862D01*
Y1630464D02*
Y1630864D01*
Y1631575D02*
Y1632698D01*
Y1633624D02*
Y1634083D01*
Y1638087D02*
Y1638532D01*
Y1641409D02*
Y1641864D01*
Y1647464D02*
Y1647864D01*
Y1648858D02*
Y1649240D01*
Y1650909D02*
Y1651364D01*
Y1657759D02*
Y1658148D01*
Y1660643D02*
Y1661087D01*
Y1667684D02*
Y1668251D01*
Y1669198D02*
Y1669844D01*
Y1671143D02*
Y1671587D01*
Y1677300D02*
Y1677924D01*
Y1680643D02*
Y1681087D01*
Y1687462D02*
Y1688377D01*
Y1690518D02*
Y1691433D01*
Y1697587D02*
Y1698032D01*
Y1700518D02*
Y1701433D01*
Y1707300D02*
Y1707924D01*
Y1710518D02*
Y1711433D01*
Y1717464D02*
Y1717864D01*
Y1718858D02*
Y1719240D01*
Y1720518D02*
Y1721433D01*
Y1727075D02*
Y1727475D01*
Y1728022D02*
Y1728362D01*
Y1728964D02*
Y1729364D01*
Y1730437D02*
Y1730853D01*
Y1731697D02*
Y1732117D01*
Y1737282D02*
Y1737881D01*
Y1738853D02*
Y1739253D01*
Y1740437D02*
Y1740853D01*
Y1741697D02*
Y1742117D01*
Y1747075D02*
Y1747475D01*
Y1748022D02*
Y1748362D01*
Y1748964D02*
Y1749364D01*
Y1750353D02*
Y1752198D01*
Y1755907D02*
Y1756822D01*
Y1758881D02*
Y1759298D01*
Y1760142D02*
Y1760561D01*
Y1762018D02*
Y1762933D01*
X1982400Y1577416D02*
Y1577830D01*
Y1578609D02*
Y1579030D01*
Y1580256D02*
Y1580791D01*
Y1585379D02*
Y1585826D01*
Y1587464D02*
Y1587864D01*
Y1588428D02*
Y1588792D01*
Y1589482D02*
Y1590019D01*
Y1590702D02*
Y1591011D01*
Y1593504D02*
Y1593958D01*
Y1597324D02*
Y1597928D01*
Y1599990D02*
Y1600437D01*
Y1602075D02*
Y1602475D01*
Y1607671D02*
Y1608129D01*
Y1609990D02*
Y1610437D01*
Y1612075D02*
Y1612475D01*
Y1617324D02*
Y1617928D01*
Y1620909D02*
Y1621364D01*
Y1625379D02*
Y1625826D01*
Y1627464D02*
Y1627864D01*
Y1628575D02*
Y1628975D01*
Y1629480D02*
Y1629819D01*
Y1630464D02*
Y1630864D01*
Y1631575D02*
Y1632013D01*
Y1633615D02*
Y1634069D01*
Y1638171D02*
Y1638629D01*
Y1641409D02*
Y1641864D01*
Y1647464D02*
Y1647864D01*
Y1648921D02*
Y1649303D01*
Y1650909D02*
Y1651364D01*
Y1657808D02*
Y1658197D01*
Y1660726D02*
Y1661184D01*
Y1667618D02*
Y1668118D01*
Y1669427D02*
Y1669854D01*
Y1671226D02*
Y1671684D01*
Y1677200D02*
Y1677735D01*
Y1680726D02*
Y1681184D01*
Y1687324D02*
Y1687928D01*
Y1690379D02*
Y1690984D01*
Y1697671D02*
Y1698129D01*
Y1700379D02*
Y1700984D01*
Y1707200D02*
Y1707735D01*
Y1710379D02*
Y1710984D01*
Y1717464D02*
Y1717864D01*
Y1718921D02*
Y1719303D01*
Y1720379D02*
Y1720984D01*
Y1727075D02*
Y1727475D01*
Y1727980D02*
Y1728319D01*
Y1728964D02*
Y1729364D01*
Y1730471D02*
Y1730886D01*
Y1731665D02*
Y1732085D01*
Y1737442D02*
Y1739253D01*
Y1740471D02*
Y1740886D01*
Y1741665D02*
Y1742085D01*
Y1747075D02*
Y1747475D01*
Y1747980D02*
Y1748319D01*
Y1748964D02*
Y1749364D01*
Y1751798D02*
Y1752198D01*
Y1755768D02*
Y1756373D01*
Y1758916D02*
Y1759330D01*
Y1760109D02*
Y1760530D01*
Y1761879D02*
Y1762484D01*
X1982500Y1577450D02*
Y1577863D01*
Y1578577D02*
Y1578999D01*
Y1580194D02*
Y1580716D01*
Y1585390D02*
Y1585836D01*
Y1587464D02*
Y1587864D01*
Y1588424D02*
Y1588790D01*
Y1589517D02*
Y1589983D01*
Y1590704D02*
Y1591016D01*
Y1593495D02*
Y1593944D01*
Y1597264D02*
Y1597736D01*
Y1600001D02*
Y1600447D01*
Y1602075D02*
Y1602475D01*
Y1607755D02*
Y1608229D01*
Y1610001D02*
Y1610447D01*
Y1612075D02*
Y1612475D01*
Y1617264D02*
Y1617736D01*
Y1620909D02*
Y1621364D01*
Y1625390D02*
Y1625836D01*
Y1627464D02*
Y1627864D01*
Y1628575D02*
Y1628975D01*
Y1629438D02*
Y1629777D01*
Y1630464D02*
Y1630864D01*
Y1631575D02*
Y1631975D01*
Y1633606D02*
Y1634055D01*
Y1638255D02*
Y1638729D01*
Y1641409D02*
Y1641864D01*
Y1647464D02*
Y1647864D01*
Y1648984D02*
Y1649366D01*
Y1650909D02*
Y1651364D01*
Y1657856D02*
Y1658245D01*
Y1660811D02*
Y1661284D01*
Y1667569D02*
Y1668042D01*
Y1669464D02*
Y1669864D01*
Y1671311D02*
Y1671784D01*
Y1677139D02*
Y1677660D01*
Y1680811D02*
Y1681284D01*
Y1687264D02*
Y1687736D01*
Y1690319D02*
Y1690792D01*
Y1697755D02*
Y1698229D01*
Y1700319D02*
Y1700792D01*
Y1707139D02*
Y1707660D01*
Y1710319D02*
Y1710792D01*
Y1717464D02*
Y1717864D01*
Y1718984D02*
Y1719366D01*
Y1720319D02*
Y1720792D01*
Y1727075D02*
Y1727475D01*
Y1727938D02*
Y1728277D01*
Y1728964D02*
Y1729364D01*
Y1730506D02*
Y1730919D01*
Y1731632D02*
Y1732054D01*
Y1737602D02*
Y1739253D01*
Y1740506D02*
Y1740919D01*
Y1741632D02*
Y1742054D01*
Y1747075D02*
Y1747475D01*
Y1747938D02*
Y1748277D01*
Y1748964D02*
Y1749364D01*
Y1751798D02*
Y1752198D01*
Y1755708D02*
Y1756181D01*
Y1758950D02*
Y1759363D01*
Y1760077D02*
Y1760499D01*
Y1761819D02*
Y1762292D01*
X1982600Y1577485D02*
Y1577896D01*
Y1578544D02*
Y1578967D01*
Y1580144D02*
Y1580644D01*
Y1585401D02*
Y1585846D01*
Y1587464D02*
Y1587864D01*
Y1588419D02*
Y1588787D01*
Y1589552D02*
Y1589947D01*
Y1590707D02*
Y1591021D01*
Y1593486D02*
Y1593929D01*
Y1597204D02*
Y1597636D01*
Y1600012D02*
Y1600457D01*
Y1602075D02*
Y1602475D01*
Y1607843D02*
Y1608329D01*
Y1610012D02*
Y1610457D01*
Y1612075D02*
Y1612475D01*
Y1617204D02*
Y1617636D01*
Y1620909D02*
Y1621364D01*
Y1625401D02*
Y1625846D01*
Y1627464D02*
Y1627864D01*
Y1628575D02*
Y1628975D01*
Y1629396D02*
Y1629734D01*
Y1630464D02*
Y1630864D01*
Y1631575D02*
Y1631975D01*
Y1633597D02*
Y1634041D01*
Y1638343D02*
Y1638829D01*
Y1641409D02*
Y1641864D01*
Y1647464D02*
Y1647864D01*
Y1649046D02*
Y1649428D01*
Y1650909D02*
Y1651364D01*
Y1657904D02*
Y1658293D01*
Y1660898D02*
Y1661384D01*
Y1667557D02*
Y1667978D01*
Y1669464D02*
Y1669864D01*
Y1671398D02*
Y1671884D01*
Y1677089D02*
Y1677589D01*
Y1680898D02*
Y1681384D01*
Y1687204D02*
Y1687636D01*
Y1690259D02*
Y1690692D01*
Y1697843D02*
Y1698329D01*
Y1700259D02*
Y1700692D01*
Y1707089D02*
Y1707589D01*
Y1710259D02*
Y1710692D01*
Y1717464D02*
Y1717864D01*
Y1719046D02*
Y1719428D01*
Y1720259D02*
Y1720692D01*
Y1727075D02*
Y1727475D01*
Y1727896D02*
Y1728234D01*
Y1728964D02*
Y1729364D01*
Y1730540D02*
Y1730951D01*
Y1731600D02*
Y1732023D01*
Y1737805D02*
Y1739253D01*
Y1740540D02*
Y1740951D01*
Y1741600D02*
Y1742023D01*
Y1747075D02*
Y1747475D01*
Y1747896D02*
Y1748234D01*
Y1748964D02*
Y1749364D01*
Y1751798D02*
Y1752198D01*
Y1755648D02*
Y1756081D01*
Y1758985D02*
Y1759396D01*
Y1760044D02*
Y1760467D01*
Y1761759D02*
Y1762192D01*
X1982700Y1577519D02*
Y1577928D01*
Y1578512D02*
Y1578936D01*
Y1580131D02*
Y1580624D01*
Y1585418D02*
Y1585856D01*
Y1587464D02*
Y1587864D01*
Y1588414D02*
Y1588785D01*
Y1589586D02*
Y1589911D01*
Y1590709D02*
Y1591025D01*
Y1593477D02*
Y1593915D01*
Y1597170D02*
Y1597580D01*
Y1600029D02*
Y1600467D01*
Y1602075D02*
Y1602475D01*
Y1607930D02*
Y1608429D01*
Y1610029D02*
Y1610467D01*
Y1612075D02*
Y1612475D01*
Y1617170D02*
Y1617580D01*
Y1620909D02*
Y1621364D01*
Y1625418D02*
Y1625856D01*
Y1627464D02*
Y1627864D01*
Y1628575D02*
Y1628975D01*
Y1629356D02*
Y1629692D01*
Y1630464D02*
Y1630864D01*
Y1631575D02*
Y1631975D01*
Y1633588D02*
Y1634026D01*
Y1638430D02*
Y1638929D01*
Y1641409D02*
Y1641864D01*
Y1647464D02*
Y1647864D01*
Y1649109D02*
Y1649491D01*
Y1650909D02*
Y1651364D01*
Y1657952D02*
Y1658341D01*
Y1660986D02*
Y1661484D01*
Y1667544D02*
Y1667961D01*
Y1669464D02*
Y1669864D01*
Y1671486D02*
Y1671984D01*
Y1677075D02*
Y1677569D01*
Y1680986D02*
Y1681484D01*
Y1687170D02*
Y1687580D01*
Y1690226D02*
Y1690635D01*
Y1697930D02*
Y1698429D01*
Y1700226D02*
Y1700635D01*
Y1707075D02*
Y1707569D01*
Y1710226D02*
Y1710635D01*
Y1717464D02*
Y1717864D01*
Y1719109D02*
Y1719491D01*
Y1720226D02*
Y1720635D01*
Y1727075D02*
Y1727475D01*
Y1727856D02*
Y1728192D01*
Y1728964D02*
Y1729364D01*
Y1730574D02*
Y1730984D01*
Y1731567D02*
Y1731992D01*
Y1738846D02*
Y1739253D01*
Y1740574D02*
Y1740984D01*
Y1741567D02*
Y1741992D01*
Y1747075D02*
Y1747475D01*
Y1747856D02*
Y1748192D01*
Y1748964D02*
Y1749364D01*
Y1751798D02*
Y1752198D01*
Y1755615D02*
Y1756024D01*
Y1759019D02*
Y1759428D01*
Y1760012D02*
Y1760436D01*
Y1761726D02*
Y1762135D01*
X1982800Y1577553D02*
Y1577961D01*
Y1578479D02*
Y1578905D01*
Y1580131D02*
Y1580604D01*
Y1585443D02*
Y1585868D01*
Y1587464D02*
Y1587864D01*
Y1588410D02*
Y1588782D01*
Y1590712D02*
Y1591030D01*
Y1593468D02*
Y1593901D01*
Y1597150D02*
Y1597560D01*
Y1600054D02*
Y1600479D01*
Y1602075D02*
Y1602475D01*
Y1608018D02*
Y1608523D01*
Y1610054D02*
Y1610479D01*
Y1612075D02*
Y1612475D01*
Y1617150D02*
Y1617560D01*
Y1620909D02*
Y1621364D01*
Y1625443D02*
Y1625868D01*
Y1627464D02*
Y1627864D01*
Y1628575D02*
Y1628975D01*
Y1629316D02*
Y1629649D01*
Y1630464D02*
Y1630864D01*
Y1631575D02*
Y1631975D01*
Y1633579D02*
Y1634012D01*
Y1638518D02*
Y1639023D01*
Y1641409D02*
Y1641864D01*
Y1647464D02*
Y1647864D01*
Y1649172D02*
Y1649554D01*
Y1650909D02*
Y1651364D01*
Y1658000D02*
Y1658389D01*
Y1661073D02*
Y1661578D01*
Y1667532D02*
Y1667944D01*
Y1669462D02*
Y1669864D01*
Y1671573D02*
Y1672078D01*
Y1677075D02*
Y1677549D01*
Y1681073D02*
Y1681578D01*
Y1687150D02*
Y1687560D01*
Y1690206D02*
Y1690615D01*
Y1698018D02*
Y1698523D01*
Y1700206D02*
Y1700615D01*
Y1707075D02*
Y1707549D01*
Y1710206D02*
Y1710615D01*
Y1717464D02*
Y1717864D01*
Y1719172D02*
Y1719554D01*
Y1720206D02*
Y1720615D01*
Y1727075D02*
Y1727475D01*
Y1727816D02*
Y1728149D01*
Y1728964D02*
Y1729364D01*
Y1730609D02*
Y1731016D01*
Y1731535D02*
Y1731960D01*
Y1738853D02*
Y1739253D01*
Y1740609D02*
Y1741016D01*
Y1741535D02*
Y1741960D01*
Y1747075D02*
Y1747475D01*
Y1747816D02*
Y1748149D01*
Y1748964D02*
Y1749364D01*
Y1751798D02*
Y1752198D01*
Y1755595D02*
Y1756004D01*
Y1759053D02*
Y1759461D01*
Y1759979D02*
Y1760405D01*
Y1761706D02*
Y1762115D01*
X1982900Y1577588D02*
Y1577989D01*
Y1578447D02*
Y1578874D01*
Y1580131D02*
Y1580587D01*
Y1585468D02*
Y1585918D01*
Y1587464D02*
Y1587864D01*
Y1588405D02*
Y1588780D01*
Y1590714D02*
Y1591035D01*
Y1593439D02*
Y1593887D01*
Y1597134D02*
Y1597540D01*
Y1600079D02*
Y1600529D01*
Y1602075D02*
Y1602475D01*
Y1608105D02*
Y1608617D01*
Y1610079D02*
Y1610529D01*
Y1612075D02*
Y1612475D01*
Y1617134D02*
Y1617540D01*
Y1620909D02*
Y1621364D01*
Y1625468D02*
Y1625918D01*
Y1627464D02*
Y1627864D01*
Y1628575D02*
Y1628975D01*
Y1629276D02*
Y1629607D01*
Y1630464D02*
Y1630864D01*
Y1631575D02*
Y1631975D01*
Y1633547D02*
Y1633998D01*
Y1638605D02*
Y1639117D01*
Y1641409D02*
Y1641864D01*
Y1646909D02*
Y1649586D01*
Y1650909D02*
Y1651364D01*
Y1658049D02*
Y1658438D01*
Y1661161D02*
Y1661673D01*
Y1667523D02*
Y1667927D01*
Y1669442D02*
Y1669862D01*
Y1671661D02*
Y1672173D01*
Y1677075D02*
Y1677531D01*
Y1681161D02*
Y1681673D01*
Y1687134D02*
Y1687540D01*
Y1690190D02*
Y1690595D01*
Y1698105D02*
Y1698617D01*
Y1700190D02*
Y1700595D01*
Y1707075D02*
Y1707531D01*
Y1710190D02*
Y1710595D01*
Y1716909D02*
Y1719586D01*
Y1720190D02*
Y1720595D01*
Y1727075D02*
Y1727475D01*
Y1727776D02*
Y1728107D01*
Y1728964D02*
Y1729364D01*
Y1730643D02*
Y1731044D01*
Y1731503D02*
Y1731929D01*
Y1738853D02*
Y1739253D01*
Y1740643D02*
Y1741044D01*
Y1741503D02*
Y1741929D01*
Y1747075D02*
Y1747475D01*
Y1747776D02*
Y1748107D01*
Y1748964D02*
Y1749364D01*
Y1751798D02*
Y1752198D01*
Y1755579D02*
Y1755984D01*
Y1759088D02*
Y1759489D01*
Y1759947D02*
Y1760374D01*
Y1761690D02*
Y1762095D01*
X1983000Y1577622D02*
Y1578012D01*
Y1578417D02*
Y1578842D01*
Y1580131D02*
Y1580604D01*
Y1585493D02*
Y1585968D01*
Y1587464D02*
Y1587864D01*
Y1588400D02*
Y1588778D01*
Y1590717D02*
Y1591039D01*
Y1593389D02*
Y1593872D01*
Y1597159D02*
Y1597540D01*
Y1600104D02*
Y1600579D01*
Y1602075D02*
Y1602475D01*
Y1608203D02*
Y1608711D01*
Y1610104D02*
Y1610579D01*
Y1612075D02*
Y1612475D01*
Y1617159D02*
Y1617540D01*
Y1620909D02*
Y1621364D01*
Y1625493D02*
Y1625968D01*
Y1627464D02*
Y1627864D01*
Y1628575D02*
Y1628975D01*
Y1629236D02*
Y1629564D01*
Y1630464D02*
Y1630864D01*
Y1631575D02*
Y1631975D01*
Y1633490D02*
Y1633983D01*
Y1638703D02*
Y1639211D01*
Y1641409D02*
Y1641864D01*
Y1646909D02*
Y1649586D01*
Y1650909D02*
Y1651364D01*
Y1658097D02*
Y1658486D01*
Y1661259D02*
Y1661767D01*
Y1667548D02*
Y1667929D01*
Y1669422D02*
Y1669842D01*
Y1671759D02*
Y1672267D01*
Y1677075D02*
Y1677548D01*
Y1681259D02*
Y1681767D01*
Y1687159D02*
Y1687540D01*
Y1690215D02*
Y1690596D01*
Y1698203D02*
Y1698711D01*
Y1700215D02*
Y1700596D01*
Y1707075D02*
Y1707548D01*
Y1710215D02*
Y1710596D01*
Y1716909D02*
Y1719586D01*
Y1720215D02*
Y1720596D01*
Y1727075D02*
Y1727475D01*
Y1727736D02*
Y1728064D01*
Y1728964D02*
Y1729364D01*
Y1730678D02*
Y1731067D01*
Y1731472D02*
Y1731898D01*
Y1738853D02*
Y1739253D01*
Y1740678D02*
Y1741067D01*
Y1741472D02*
Y1741898D01*
Y1747075D02*
Y1747475D01*
Y1747736D02*
Y1748064D01*
Y1748964D02*
Y1749364D01*
Y1751798D02*
Y1752198D01*
Y1755604D02*
Y1755985D01*
Y1759122D02*
Y1759512D01*
Y1759917D02*
Y1760342D01*
Y1761715D02*
Y1762096D01*
X1983100Y1577656D02*
Y1578035D01*
Y1578386D02*
Y1578811D01*
Y1580131D02*
Y1580620D01*
Y1585519D02*
Y1586018D01*
Y1587464D02*
Y1587864D01*
Y1588396D02*
Y1588775D01*
Y1590719D02*
Y1591044D01*
Y1593339D02*
Y1593844D01*
Y1597184D02*
Y1597560D01*
Y1600130D02*
Y1600629D01*
Y1602075D02*
Y1602475D01*
Y1608303D02*
Y1608805D01*
Y1610130D02*
Y1610629D01*
Y1612075D02*
Y1612475D01*
Y1617184D02*
Y1617560D01*
Y1620909D02*
Y1621364D01*
Y1625519D02*
Y1626018D01*
Y1627464D02*
Y1627864D01*
Y1628575D02*
Y1628975D01*
Y1629196D02*
Y1629522D01*
Y1630464D02*
Y1630864D01*
Y1631575D02*
Y1631975D01*
Y1633433D02*
Y1633955D01*
Y1638803D02*
Y1639305D01*
Y1641409D02*
Y1641864D01*
Y1646909D02*
Y1649586D01*
Y1650909D02*
Y1651364D01*
Y1658145D02*
Y1658534D01*
Y1661359D02*
Y1661861D01*
Y1667573D02*
Y1667949D01*
Y1669398D02*
Y1669822D01*
Y1671859D02*
Y1672361D01*
Y1677075D02*
Y1677565D01*
Y1681359D02*
Y1681861D01*
Y1687184D02*
Y1687560D01*
Y1690240D02*
Y1690616D01*
Y1698303D02*
Y1698805D01*
Y1700240D02*
Y1700616D01*
Y1707075D02*
Y1707565D01*
Y1710240D02*
Y1710616D01*
Y1716909D02*
Y1719586D01*
Y1720240D02*
Y1720616D01*
Y1727075D02*
Y1727475D01*
Y1727696D02*
Y1728022D01*
Y1728964D02*
Y1729364D01*
Y1730712D02*
Y1731090D01*
Y1731441D02*
Y1731867D01*
Y1738853D02*
Y1739253D01*
Y1740712D02*
Y1741090D01*
Y1741441D02*
Y1741867D01*
Y1747075D02*
Y1747475D01*
Y1747696D02*
Y1748022D01*
Y1748964D02*
Y1749364D01*
Y1751798D02*
Y1752198D01*
Y1755629D02*
Y1756005D01*
Y1759156D02*
Y1759535D01*
Y1759886D02*
Y1760311D01*
Y1761740D02*
Y1762116D01*
X1983200Y1577691D02*
Y1578058D01*
Y1578355D02*
Y1578780D01*
Y1580179D02*
Y1580637D01*
Y1585576D02*
Y1586068D01*
Y1587464D02*
Y1587864D01*
Y1588391D02*
Y1588773D01*
Y1590722D02*
Y1591049D01*
Y1593289D02*
Y1593804D01*
Y1597209D02*
Y1597580D01*
Y1600187D02*
Y1600679D01*
Y1602075D02*
Y1602475D01*
Y1608403D02*
Y1608899D01*
Y1610187D02*
Y1610679D01*
Y1612075D02*
Y1612475D01*
Y1617209D02*
Y1617580D01*
Y1620909D02*
Y1621364D01*
Y1625576D02*
Y1626068D01*
Y1627464D02*
Y1627864D01*
Y1628575D02*
Y1628975D01*
Y1629156D02*
Y1629479D01*
Y1630464D02*
Y1630864D01*
Y1631575D02*
Y1631975D01*
Y1633376D02*
Y1633915D01*
Y1638903D02*
Y1639399D01*
Y1641409D02*
Y1641864D01*
Y1647457D02*
Y1647872D01*
Y1650909D02*
Y1651364D01*
Y1658193D02*
Y1658582D01*
Y1661459D02*
Y1661955D01*
Y1667598D02*
Y1667969D01*
Y1669365D02*
Y1669793D01*
Y1671959D02*
Y1672455D01*
Y1677124D02*
Y1677581D01*
Y1681459D02*
Y1681955D01*
Y1687209D02*
Y1687580D01*
Y1690265D02*
Y1690636D01*
Y1698403D02*
Y1698899D01*
Y1700265D02*
Y1700636D01*
Y1707124D02*
Y1707581D01*
Y1710265D02*
Y1710636D01*
Y1717457D02*
Y1717872D01*
Y1720265D02*
Y1720636D01*
Y1727075D02*
Y1727475D01*
Y1727656D02*
Y1727979D01*
Y1728964D02*
Y1729364D01*
Y1730746D02*
Y1731113D01*
Y1731411D02*
Y1731835D01*
Y1738853D02*
Y1739253D01*
Y1740746D02*
Y1741113D01*
Y1741411D02*
Y1741835D01*
Y1747075D02*
Y1747475D01*
Y1747656D02*
Y1747979D01*
Y1748964D02*
Y1749364D01*
Y1751798D02*
Y1752198D01*
Y1755654D02*
Y1756025D01*
Y1759191D02*
Y1759558D01*
Y1759855D02*
Y1760280D01*
Y1761765D02*
Y1762136D01*
X1983300Y1577725D02*
Y1578081D01*
Y1578324D02*
Y1578749D01*
Y1580229D02*
Y1580695D01*
Y1585633D02*
Y1586154D01*
Y1587464D02*
Y1587864D01*
Y1588386D02*
Y1588770D01*
Y1590724D02*
Y1591053D01*
Y1593239D02*
Y1593764D01*
Y1597234D02*
Y1597622D01*
Y1600244D02*
Y1600765D01*
Y1602075D02*
Y1602475D01*
Y1608503D02*
Y1608994D01*
Y1610244D02*
Y1610765D01*
Y1612075D02*
Y1612475D01*
Y1617234D02*
Y1617622D01*
Y1620909D02*
Y1621364D01*
Y1625633D02*
Y1626154D01*
Y1627464D02*
Y1627864D01*
Y1628575D02*
Y1628975D01*
Y1629116D02*
Y1629437D01*
Y1630464D02*
Y1630864D01*
Y1631575D02*
Y1631975D01*
Y1633293D02*
Y1633875D01*
Y1639003D02*
Y1639494D01*
Y1641409D02*
Y1641864D01*
Y1647464D02*
Y1647864D01*
Y1650909D02*
Y1651364D01*
Y1658241D02*
Y1658630D01*
Y1661559D02*
Y1662049D01*
Y1667623D02*
Y1668011D01*
Y1669331D02*
Y1669753D01*
Y1672059D02*
Y1672549D01*
Y1677174D02*
Y1677640D01*
Y1681559D02*
Y1682049D01*
Y1687234D02*
Y1687622D01*
Y1690290D02*
Y1690678D01*
Y1698503D02*
Y1698994D01*
Y1700290D02*
Y1700678D01*
Y1707174D02*
Y1707640D01*
Y1710290D02*
Y1710678D01*
Y1717464D02*
Y1717864D01*
Y1720290D02*
Y1720678D01*
Y1727075D02*
Y1727475D01*
Y1727616D02*
Y1727937D01*
Y1728964D02*
Y1729364D01*
Y1730781D02*
Y1731136D01*
Y1731380D02*
Y1731804D01*
Y1738853D02*
Y1739253D01*
Y1740781D02*
Y1741136D01*
Y1741380D02*
Y1741804D01*
Y1747075D02*
Y1747475D01*
Y1747616D02*
Y1747937D01*
Y1748964D02*
Y1749364D01*
Y1751798D02*
Y1752198D01*
Y1755679D02*
Y1756067D01*
Y1759225D02*
Y1759581D01*
Y1759824D02*
Y1760249D01*
Y1761790D02*
Y1762178D01*
X1983400Y1577760D02*
Y1578104D01*
Y1578293D02*
Y1578717D01*
Y1580312D02*
Y1580795D01*
Y1585690D02*
Y1586294D01*
Y1587464D02*
Y1587864D01*
Y1588382D02*
Y1588768D01*
Y1590727D02*
Y1591058D01*
Y1593128D02*
Y1593707D01*
Y1597298D02*
Y1597682D01*
Y1600301D02*
Y1600905D01*
Y1602075D02*
Y1602475D01*
Y1608603D02*
Y1609088D01*
Y1610301D02*
Y1610905D01*
Y1612075D02*
Y1612475D01*
Y1617298D02*
Y1617682D01*
Y1620909D02*
Y1621364D01*
Y1625690D02*
Y1626294D01*
Y1627464D02*
Y1627864D01*
Y1628575D02*
Y1628976D01*
Y1629076D02*
Y1629394D01*
Y1630464D02*
Y1630864D01*
Y1631575D02*
Y1631975D01*
Y1633173D02*
Y1633800D01*
Y1639103D02*
Y1639588D01*
Y1641409D02*
Y1641864D01*
Y1647464D02*
Y1647864D01*
Y1650909D02*
Y1651364D01*
Y1658290D02*
Y1658679D01*
Y1661659D02*
Y1662143D01*
Y1667674D02*
Y1668071D01*
Y1669298D02*
Y1669713D01*
Y1672159D02*
Y1672643D01*
Y1677256D02*
Y1677740D01*
Y1681659D02*
Y1682143D01*
Y1687298D02*
Y1687682D01*
Y1690354D02*
Y1690738D01*
Y1698603D02*
Y1699088D01*
Y1700354D02*
Y1700738D01*
Y1707256D02*
Y1707740D01*
Y1710354D02*
Y1710738D01*
Y1717464D02*
Y1717864D01*
Y1720354D02*
Y1720738D01*
Y1727075D02*
Y1727476D01*
Y1727576D02*
Y1727894D01*
Y1728964D02*
Y1729364D01*
Y1730815D02*
Y1731159D01*
Y1731349D02*
Y1731773D01*
Y1738853D02*
Y1739253D01*
Y1740815D02*
Y1741159D01*
Y1741349D02*
Y1741773D01*
Y1747075D02*
Y1747476D01*
Y1747576D02*
Y1747894D01*
Y1748964D02*
Y1749364D01*
Y1751798D02*
Y1752198D01*
Y1755743D02*
Y1756127D01*
Y1759260D02*
Y1759604D01*
Y1759793D02*
Y1760217D01*
Y1761854D02*
Y1762238D01*
X1983500Y1577794D02*
Y1578127D01*
Y1578263D02*
Y1578686D01*
Y1580397D02*
Y1580903D01*
Y1585765D02*
Y1586434D01*
Y1587464D02*
Y1587864D01*
Y1588377D02*
Y1588765D01*
Y1590729D02*
Y1591063D01*
Y1591631D02*
Y1591704D01*
Y1593008D02*
Y1593647D01*
Y1597370D02*
Y1597742D01*
Y1600377D02*
Y1601045D01*
Y1602075D02*
Y1602475D01*
Y1608703D02*
Y1609182D01*
Y1610377D02*
Y1611045D01*
Y1612075D02*
Y1612475D01*
Y1617370D02*
Y1617742D01*
Y1620909D02*
Y1621364D01*
Y1625765D02*
Y1626434D01*
Y1627464D02*
Y1627864D01*
Y1628575D02*
Y1629352D01*
Y1630464D02*
Y1630864D01*
Y1631575D02*
Y1631975D01*
Y1633053D02*
Y1633720D01*
Y1639203D02*
Y1639682D01*
Y1641409D02*
Y1641864D01*
Y1647464D02*
Y1647864D01*
Y1650909D02*
Y1651364D01*
Y1658338D02*
Y1658727D01*
Y1661759D02*
Y1662237D01*
Y1667732D02*
Y1668131D01*
Y1669194D02*
Y1669646D01*
Y1672259D02*
Y1672737D01*
Y1677342D02*
Y1677848D01*
Y1681759D02*
Y1682237D01*
Y1687370D02*
Y1687742D01*
Y1690425D02*
Y1690798D01*
Y1698703D02*
Y1699182D01*
Y1700425D02*
Y1700798D01*
Y1707342D02*
Y1707848D01*
Y1710425D02*
Y1710798D01*
Y1717464D02*
Y1717864D01*
Y1720425D02*
Y1720798D01*
Y1727075D02*
Y1727852D01*
Y1728964D02*
Y1729364D01*
Y1730849D02*
Y1731183D01*
Y1731318D02*
Y1731742D01*
Y1738853D02*
Y1739253D01*
Y1740849D02*
Y1741183D01*
Y1741318D02*
Y1741742D01*
Y1747075D02*
Y1747852D01*
Y1748964D02*
Y1749364D01*
Y1751798D02*
Y1752198D01*
Y1755814D02*
Y1756187D01*
Y1759294D02*
Y1759627D01*
Y1759763D02*
Y1760186D01*
Y1761925D02*
Y1762298D01*
X1983600Y1577828D02*
Y1578163D01*
Y1578221D02*
Y1578655D01*
Y1580483D02*
Y1581070D01*
Y1585885D02*
Y1586984D01*
Y1587444D02*
Y1587864D01*
Y1588372D02*
Y1588763D01*
Y1590732D02*
Y1591067D01*
Y1591631D02*
Y1591937D01*
Y1592888D02*
Y1593573D01*
Y1597441D02*
Y1597933D01*
Y1600497D02*
Y1601595D01*
Y1602055D02*
Y1602475D01*
Y1608721D02*
Y1609276D01*
Y1610497D02*
Y1611595D01*
Y1612055D02*
Y1612475D01*
Y1617441D02*
Y1617933D01*
Y1620888D02*
Y1621385D01*
Y1625885D02*
Y1626984D01*
Y1627444D02*
Y1627864D01*
Y1628575D02*
Y1629309D01*
Y1630464D02*
Y1630864D01*
Y1631575D02*
Y1631996D01*
Y1632768D02*
Y1633629D01*
Y1639221D02*
Y1639776D01*
Y1641388D02*
Y1641885D01*
Y1647464D02*
Y1647864D01*
Y1650888D02*
Y1651385D01*
Y1658386D02*
Y1658775D01*
Y1661777D02*
Y1662331D01*
Y1667789D02*
Y1668246D01*
Y1669069D02*
Y1669571D01*
Y1672277D02*
Y1672831D01*
Y1677428D02*
Y1678014D01*
Y1681777D02*
Y1682331D01*
Y1687441D02*
Y1687933D01*
Y1690497D02*
Y1690989D01*
Y1698721D02*
Y1699276D01*
Y1700497D02*
Y1700989D01*
Y1707428D02*
Y1708014D01*
Y1710497D02*
Y1710989D01*
Y1717464D02*
Y1717864D01*
Y1720497D02*
Y1720989D01*
Y1727075D02*
Y1727809D01*
Y1728964D02*
Y1729364D01*
Y1730884D02*
Y1731218D01*
Y1731277D02*
Y1731710D01*
Y1738853D02*
Y1739253D01*
Y1740884D02*
Y1741218D01*
Y1741277D02*
Y1741710D01*
Y1747075D02*
Y1747809D01*
Y1748964D02*
Y1749364D01*
Y1751798D02*
Y1752198D01*
Y1755886D02*
Y1756378D01*
Y1759328D02*
Y1759663D01*
Y1759721D02*
Y1760155D01*
Y1761997D02*
Y1762489D01*
X1983700Y1577863D02*
Y1578624D01*
Y1580581D02*
Y1581433D01*
Y1582098D02*
Y1582253D01*
Y1586005D02*
Y1587864D01*
Y1588367D02*
Y1588761D01*
Y1590734D02*
Y1591072D01*
Y1591631D02*
Y1593440D01*
Y1597529D02*
Y1598413D01*
Y1599098D02*
Y1599253D01*
Y1600617D02*
Y1602475D01*
Y1607075D02*
Y1609309D01*
Y1610617D02*
Y1612475D01*
Y1617529D02*
Y1618413D01*
Y1619098D02*
Y1619253D01*
Y1620131D02*
Y1622253D01*
Y1626005D02*
Y1627864D01*
Y1628575D02*
Y1629267D01*
Y1630464D02*
Y1630864D01*
Y1631575D02*
Y1633495D01*
Y1637575D02*
Y1639809D01*
Y1640631D02*
Y1642753D01*
Y1647464D02*
Y1647864D01*
Y1650131D02*
Y1652253D01*
Y1658434D02*
Y1658823D01*
Y1660131D02*
Y1662364D01*
Y1667858D02*
Y1668564D01*
Y1668800D02*
Y1669481D01*
Y1670631D02*
Y1672864D01*
Y1677526D02*
Y1678378D01*
Y1679042D02*
Y1679198D01*
Y1680131D02*
Y1682364D01*
Y1687529D02*
Y1688413D01*
Y1689098D02*
Y1689253D01*
Y1690585D02*
Y1691469D01*
Y1692153D02*
Y1692309D01*
Y1697075D02*
Y1699309D01*
Y1700585D02*
Y1701469D01*
Y1702153D02*
Y1702309D01*
Y1707526D02*
Y1708378D01*
Y1709042D02*
Y1709198D01*
Y1710585D02*
Y1711469D01*
Y1712153D02*
Y1712309D01*
Y1717464D02*
Y1717864D01*
Y1720585D02*
Y1721469D01*
Y1722153D02*
Y1722309D01*
Y1727075D02*
Y1727767D01*
Y1728964D02*
Y1729364D01*
Y1730918D02*
Y1731679D01*
Y1738853D02*
Y1739253D01*
Y1740918D02*
Y1741679D01*
Y1747075D02*
Y1747767D01*
Y1748964D02*
Y1749364D01*
Y1750298D02*
Y1752198D01*
Y1755974D02*
Y1756857D01*
Y1757542D02*
Y1757698D01*
Y1759363D02*
Y1760124D01*
Y1762085D02*
Y1762969D01*
Y1763653D02*
Y1763809D01*
X1983800Y1577897D02*
Y1578592D01*
Y1580761D02*
Y1582253D01*
Y1586238D02*
Y1587864D01*
Y1588363D02*
Y1588758D01*
Y1590737D02*
Y1591077D01*
Y1591631D02*
Y1593287D01*
Y1597729D02*
Y1599253D01*
Y1600849D02*
Y1602475D01*
Y1607075D02*
Y1609309D01*
Y1610849D02*
Y1612475D01*
Y1617729D02*
Y1619253D01*
Y1620131D02*
Y1622253D01*
Y1626238D02*
Y1627864D01*
Y1628575D02*
Y1629224D01*
Y1630464D02*
Y1630864D01*
Y1631575D02*
Y1633342D01*
Y1637575D02*
Y1639809D01*
Y1640631D02*
Y1642753D01*
Y1647464D02*
Y1647864D01*
Y1650131D02*
Y1652253D01*
Y1658483D02*
Y1658872D01*
Y1660131D02*
Y1662364D01*
Y1668033D02*
Y1669380D01*
Y1670631D02*
Y1672864D01*
Y1677706D02*
Y1679198D01*
Y1680131D02*
Y1682364D01*
Y1687729D02*
Y1689253D01*
Y1690785D02*
Y1692309D01*
Y1697075D02*
Y1699309D01*
Y1700785D02*
Y1702309D01*
Y1707706D02*
Y1709198D01*
Y1710785D02*
Y1712309D01*
Y1717464D02*
Y1717864D01*
Y1720785D02*
Y1722309D01*
Y1727075D02*
Y1727724D01*
Y1728964D02*
Y1729364D01*
Y1730953D02*
Y1731648D01*
Y1738853D02*
Y1739253D01*
Y1740953D02*
Y1741648D01*
Y1747075D02*
Y1747724D01*
Y1748964D02*
Y1749364D01*
Y1750298D02*
Y1752198D01*
Y1756174D02*
Y1757698D01*
Y1759397D02*
Y1760092D01*
Y1762285D02*
Y1763809D01*
X1983900Y1577931D02*
Y1578561D01*
Y1580941D02*
Y1582253D01*
Y1586545D02*
Y1587864D01*
Y1588358D02*
Y1588756D01*
Y1590739D02*
Y1591082D01*
Y1591891D02*
Y1593120D01*
Y1597929D02*
Y1599253D01*
Y1601157D02*
Y1602475D01*
Y1607075D02*
Y1609309D01*
Y1611157D02*
Y1612475D01*
Y1617929D02*
Y1619253D01*
Y1620131D02*
Y1622253D01*
Y1626545D02*
Y1627864D01*
Y1628575D02*
Y1629182D01*
Y1630464D02*
Y1630864D01*
Y1631763D02*
Y1633175D01*
Y1637575D02*
Y1639809D01*
Y1640631D02*
Y1642753D01*
Y1647464D02*
Y1647864D01*
Y1650131D02*
Y1652253D01*
Y1658531D02*
Y1658920D01*
Y1660131D02*
Y1662364D01*
Y1668208D02*
Y1669230D01*
Y1670631D02*
Y1672864D01*
Y1677886D02*
Y1679198D01*
Y1680131D02*
Y1682364D01*
Y1687929D02*
Y1689253D01*
Y1690985D02*
Y1692309D01*
Y1697075D02*
Y1699309D01*
Y1700985D02*
Y1702309D01*
Y1707886D02*
Y1709198D01*
Y1710985D02*
Y1712309D01*
Y1717464D02*
Y1717864D01*
Y1720985D02*
Y1722309D01*
Y1727075D02*
Y1727682D01*
Y1728964D02*
Y1729364D01*
Y1730987D02*
Y1731617D01*
Y1738853D02*
Y1739253D01*
Y1740987D02*
Y1741617D01*
Y1747075D02*
Y1747682D01*
Y1748964D02*
Y1749364D01*
Y1750298D02*
Y1752198D01*
Y1756374D02*
Y1757698D01*
Y1759431D02*
Y1760061D01*
Y1762485D02*
Y1763809D01*
X1984000Y1581488D02*
Y1582253D01*
Y1592397D02*
Y1592824D01*
Y1598528D02*
Y1599253D01*
Y1618528D02*
Y1619253D01*
Y1632261D02*
Y1632879D01*
Y1668655D02*
Y1668735D01*
Y1678433D02*
Y1679198D01*
Y1688528D02*
Y1689253D01*
Y1691584D02*
Y1692309D01*
Y1701584D02*
Y1702309D01*
Y1708433D02*
Y1709198D01*
Y1711584D02*
Y1712309D01*
Y1721584D02*
Y1722309D01*
Y1756973D02*
Y1757698D01*
Y1763084D02*
Y1763809D01*
X2001600Y1725571D02*
Y1725830D01*
X2001700Y1725571D02*
Y1725830D01*
X2001800Y1725571D02*
Y1725830D01*
X2001900Y1725571D02*
Y1725830D01*
X2002000Y1725571D02*
Y1725830D01*
X2002100Y1724853D02*
Y1728035D01*
X2002200Y1724853D02*
Y1728035D01*
X2002300Y1724853D02*
Y1728035D01*
X2002400Y1724853D02*
Y1728035D01*
X2002500Y1725571D02*
Y1725830D01*
Y1727700D02*
Y1728035D01*
X2002600Y1725571D02*
Y1725830D01*
Y1727541D02*
Y1728035D01*
X2002700Y1725571D02*
Y1725830D01*
Y1727382D02*
Y1727931D01*
X2002800Y1725571D02*
Y1725830D01*
Y1727223D02*
Y1727772D01*
X2002900Y1725571D02*
Y1725830D01*
Y1727064D02*
Y1727612D01*
X2003000Y1725571D02*
Y1725830D01*
Y1726905D02*
Y1727453D01*
X2003100Y1725571D02*
Y1725830D01*
Y1726746D02*
Y1727294D01*
X2003200Y1725571D02*
Y1725830D01*
Y1726587D02*
Y1727134D01*
X2003300Y1725571D02*
Y1725830D01*
Y1726428D02*
Y1726975D01*
X2003400Y1725571D02*
Y1725830D01*
Y1726269D02*
Y1726816D01*
X2003500Y1725571D02*
Y1725830D01*
Y1726109D02*
Y1726657D01*
X2003600Y1725571D02*
Y1725832D01*
Y1725950D02*
Y1726497D01*
X2003700Y1725571D02*
Y1726338D01*
X2003800Y1725571D02*
Y1726179D01*
X2003900Y1725571D02*
Y1726020D01*
X2004300Y1727800D02*
Y1728035D01*
X2004400Y1727510D02*
Y1728035D01*
X2004500Y1727219D02*
Y1728035D01*
X2004600Y1726928D02*
Y1728035D01*
X2004700Y1726637D02*
Y1727807D01*
X2004800Y1726346D02*
Y1727500D01*
X2004900Y1726055D02*
Y1727193D01*
X2005000Y1725764D02*
Y1726886D01*
X2005100Y1725473D02*
Y1726579D01*
X2005200Y1725182D02*
Y1726271D01*
X2005300Y1724891D02*
Y1725964D01*
X2005400Y1724853D02*
Y1725571D01*
X2005500Y1724853D02*
Y1725177D01*
X2005600Y1724853D02*
Y1725258D01*
X2005700Y1724853D02*
Y1725583D01*
X2005800Y1724853D02*
Y1725906D01*
X2005900Y1724994D02*
Y1726213D01*
X2006000Y1725314D02*
Y1726520D01*
X2006100Y1725634D02*
Y1726827D01*
X2006200Y1725954D02*
Y1727135D01*
X2006300Y1726274D02*
Y1727442D01*
X2006400Y1726594D02*
Y1727749D01*
X2006500Y1726914D02*
Y1728035D01*
X2006600Y1727234D02*
Y1728035D01*
X2006700Y1727554D02*
Y1728035D01*
X2006800Y1727874D02*
Y1728035D01*
X2007100Y1723828D02*
Y1724086D01*
X2007200Y1723828D02*
Y1724086D01*
X2007300Y1723828D02*
Y1724086D01*
X2007400Y1723828D02*
Y1724086D01*
X2007500Y1723828D02*
Y1724086D01*
X2007600Y1723828D02*
Y1724086D01*
X2007700Y1723828D02*
Y1724086D01*
X2007800Y1723828D02*
Y1724086D01*
X2007900Y1723828D02*
Y1724086D01*
X2008000Y1723828D02*
Y1724086D01*
X2008100Y1723828D02*
Y1724086D01*
X2008200Y1723828D02*
Y1724086D01*
X2008300Y1723828D02*
Y1724086D01*
X2008400Y1723828D02*
Y1724086D01*
X2008500Y1723828D02*
Y1724086D01*
X2008600Y1723828D02*
Y1724086D01*
X2008700Y1723828D02*
Y1724086D01*
X2008800Y1723828D02*
Y1724086D01*
X2008900Y1723828D02*
Y1724086D01*
X2009000Y1723828D02*
Y1724086D01*
X2009100Y1723828D02*
Y1724086D01*
X2009200Y1723828D02*
Y1724086D01*
X2009300Y1723828D02*
Y1724086D01*
X2009400Y1723828D02*
Y1724086D01*
X2009500Y1723828D02*
Y1724086D01*
X2009600Y1723828D02*
Y1724086D01*
X2009700Y1723828D02*
Y1724086D01*
X2010400Y1724864D02*
Y1725163D01*
Y1726957D02*
Y1727239D01*
X2010500Y1724836D02*
Y1725129D01*
Y1726990D02*
Y1727255D01*
X2010600Y1724807D02*
Y1725106D01*
Y1727013D02*
Y1727271D01*
X2010700Y1724802D02*
Y1725092D01*
Y1727028D02*
Y1727286D01*
X2010800Y1724802D02*
Y1725077D01*
Y1727042D02*
Y1727300D01*
X2010900Y1724802D02*
Y1725063D01*
Y1727056D02*
Y1727314D01*
X2011000Y1724809D02*
Y1725072D01*
Y1727045D02*
Y1727300D01*
X2011100Y1724829D02*
Y1725086D01*
Y1727029D02*
Y1727280D01*
X2011200Y1724849D02*
Y1725101D01*
Y1727012D02*
Y1727260D01*
X2011300Y1724869D02*
Y1725117D01*
Y1726962D02*
Y1727240D01*
X2011400Y1724889D02*
Y1725177D01*
Y1726882D02*
Y1727220D01*
X2011500Y1724919D02*
Y1725237D01*
Y1726802D02*
Y1727163D01*
X2011600Y1724969D02*
Y1725336D01*
Y1726666D02*
Y1727100D01*
X2011700Y1725019D02*
Y1725536D01*
Y1726516D02*
Y1727038D01*
X2011800Y1725069D02*
Y1726975D01*
X2011900Y1725186D02*
Y1726820D01*
X2012000Y1725386D02*
Y1726660D01*
X2012100Y1725761D02*
Y1726307D01*
X2013100Y1724881D02*
Y1725134D01*
Y1727007D02*
Y1727266D01*
X2013200Y1724847D02*
Y1725101D01*
Y1727007D02*
Y1727266D01*
X2013300Y1724814D02*
Y1725068D01*
Y1727007D02*
Y1727266D01*
X2013400Y1724802D02*
Y1725061D01*
Y1727007D02*
Y1727266D01*
X2013500Y1724802D02*
Y1725061D01*
Y1727007D02*
Y1727266D01*
X2013600Y1724802D02*
Y1725063D01*
Y1727007D02*
Y1727266D01*
X2013700Y1724810D02*
Y1725088D01*
Y1727007D02*
Y1727266D01*
X2013800Y1724823D02*
Y1725113D01*
Y1727007D02*
Y1727266D01*
X2013900Y1724835D02*
Y1725161D01*
Y1727007D02*
Y1727266D01*
X2014000Y1724848D02*
Y1725211D01*
Y1727007D02*
Y1727266D01*
X2014100Y1724886D02*
Y1725331D01*
Y1727007D02*
Y1727266D01*
X2014200Y1724936D02*
Y1728063D01*
X2014300Y1724986D02*
Y1728040D01*
X2014400Y1725130D02*
Y1728018D01*
X2014500Y1725551D02*
Y1727996D01*
X2014600Y1727007D02*
Y1727266D01*
X2014700Y1727007D02*
Y1727266D01*
X2014800Y1727007D02*
Y1727266D01*
X2014900Y1727007D02*
Y1727266D01*
X2015000Y1727007D02*
Y1727266D01*
X2015100Y1727007D02*
Y1727266D01*
X2015200Y1727007D02*
Y1727266D01*
X2015900Y1724853D02*
Y1725112D01*
X2016000Y1724853D02*
Y1725112D01*
X2016100Y1724853D02*
Y1725112D01*
X2016200Y1724853D02*
Y1725112D01*
X2016300Y1724853D02*
Y1725112D01*
X2016400Y1724853D02*
Y1725112D01*
X2016500Y1724853D02*
Y1725112D01*
X2016600Y1724853D02*
Y1725133D01*
Y1727911D02*
Y1728100D01*
X2016700Y1724853D02*
Y1727266D01*
Y1727759D02*
Y1728228D01*
X2016800Y1724853D02*
Y1727266D01*
Y1727725D02*
Y1728267D01*
X2016900Y1724853D02*
Y1727266D01*
Y1727725D02*
Y1728278D01*
X2017000Y1724853D02*
Y1725117D01*
Y1727002D02*
Y1727266D01*
Y1727725D02*
Y1728245D01*
X2017100Y1724853D02*
Y1725112D01*
Y1727007D02*
Y1727266D01*
Y1727842D02*
Y1728174D01*
X2017200Y1724853D02*
Y1725112D01*
Y1727007D02*
Y1727266D01*
X2017300Y1724853D02*
Y1725112D01*
Y1727007D02*
Y1727266D01*
X2017400Y1724853D02*
Y1725112D01*
Y1727007D02*
Y1727266D01*
X2017500Y1724853D02*
Y1725112D01*
Y1727007D02*
Y1727266D01*
X2017600Y1724853D02*
Y1725112D01*
Y1727007D02*
Y1727266D01*
X2017700Y1724853D02*
Y1725112D01*
X2018600Y1724853D02*
Y1724909D01*
X2018700Y1724853D02*
Y1725041D01*
Y1727919D02*
Y1728035D01*
X2018800Y1724853D02*
Y1725173D01*
Y1727790D02*
Y1728035D01*
X2018900Y1724853D02*
Y1725305D01*
Y1727661D02*
Y1728035D01*
X2019000Y1724859D02*
Y1725437D01*
Y1727532D02*
Y1728030D01*
X2019100Y1724993D02*
Y1725569D01*
Y1727402D02*
Y1727900D01*
X2019200Y1725128D02*
Y1725701D01*
Y1727273D02*
Y1727770D01*
X2019300Y1725263D02*
Y1725833D01*
Y1727144D02*
Y1727639D01*
X2019400Y1725398D02*
Y1725965D01*
Y1727015D02*
Y1727509D01*
X2019500Y1725533D02*
Y1726097D01*
Y1726886D02*
Y1727378D01*
X2019600Y1725667D02*
Y1726229D01*
Y1726757D02*
Y1727248D01*
X2019700Y1725802D02*
Y1726361D01*
Y1726627D02*
Y1727117D01*
X2019800Y1725937D02*
Y1726987D01*
X2019900Y1726072D02*
Y1726857D01*
X2020000Y1726207D02*
Y1726726D01*
X2020100Y1726341D02*
Y1726596D01*
X2020200Y1726443D02*
Y1726497D01*
X2020300Y1724853D02*
Y1728035D01*
X2020400Y1724853D02*
Y1728035D01*
X2020500Y1724853D02*
Y1728035D01*
X2020600Y1724853D02*
Y1728035D01*
X2021400Y1727022D02*
Y1727266D01*
X2021500Y1726777D02*
Y1727266D01*
X2021600Y1726532D02*
Y1727266D01*
X2021700Y1726287D02*
Y1727266D01*
X2021800Y1726042D02*
Y1727002D01*
X2021900Y1725797D02*
Y1726727D01*
X2022000Y1725552D02*
Y1726452D01*
X2022100Y1725307D02*
Y1726177D01*
X2022200Y1725062D02*
Y1725902D01*
X2022300Y1724853D02*
Y1725627D01*
X2022400Y1724853D02*
Y1725235D01*
X2022500Y1724853D02*
Y1725188D01*
X2022600Y1724853D02*
Y1725453D01*
X2022700Y1724853D02*
Y1725723D01*
X2022800Y1725044D02*
Y1725998D01*
X2022900Y1725317D02*
Y1726273D01*
X2023000Y1725589D02*
Y1726548D01*
X2023100Y1725861D02*
Y1726823D01*
X2023200Y1726133D02*
Y1727098D01*
X2023300Y1726406D02*
Y1727266D01*
X2023400Y1726678D02*
Y1727266D01*
X2023500Y1726950D02*
Y1727266D01*
X2023600Y1727222D02*
Y1727266D01*
X2024200Y1725981D02*
Y1726193D01*
X2024300Y1725981D02*
Y1726754D01*
X2024400Y1724882D02*
Y1725128D01*
Y1725981D02*
Y1726894D01*
X2024500Y1724857D02*
Y1725112D01*
Y1725981D02*
Y1727028D01*
X2024600Y1724832D02*
Y1725112D01*
Y1725981D02*
Y1726242D01*
Y1726530D02*
Y1727095D01*
X2024700Y1724807D02*
Y1725101D01*
Y1725981D02*
Y1726240D01*
Y1726786D02*
Y1727162D01*
X2024800Y1724802D02*
Y1725076D01*
Y1725981D02*
Y1726240D01*
Y1726892D02*
Y1727221D01*
X2024900Y1724802D02*
Y1725061D01*
Y1725981D02*
Y1726240D01*
Y1726967D02*
Y1727244D01*
X2025000Y1724802D02*
Y1725061D01*
Y1725981D02*
Y1726240D01*
Y1727013D02*
Y1727266D01*
X2025100Y1724802D02*
Y1725061D01*
Y1725981D02*
Y1726240D01*
Y1727029D02*
Y1727288D01*
X2025200Y1724807D02*
Y1725071D01*
Y1725981D02*
Y1726240D01*
Y1727046D02*
Y1727310D01*
X2025300Y1724825D02*
Y1725086D01*
Y1725981D02*
Y1726240D01*
Y1727055D02*
Y1727301D01*
X2025400Y1724844D02*
Y1725100D01*
Y1725981D02*
Y1726240D01*
Y1727035D02*
Y1727281D01*
X2025500Y1724862D02*
Y1725115D01*
Y1725981D02*
Y1726240D01*
Y1727015D02*
Y1727261D01*
X2025600Y1724880D02*
Y1725174D01*
Y1725981D02*
Y1726240D01*
Y1726970D02*
Y1727241D01*
X2025700Y1724898D02*
Y1725234D01*
Y1725981D02*
Y1726240D01*
Y1726895D02*
Y1727221D01*
X2025800Y1724959D02*
Y1725320D01*
Y1725981D02*
Y1726240D01*
Y1726805D02*
Y1727147D01*
X2025900Y1725031D02*
Y1725487D01*
Y1725981D02*
Y1726240D01*
Y1726672D02*
Y1727061D01*
X2026000Y1725102D02*
Y1726975D01*
X2026100Y1725208D02*
Y1726841D01*
X2026200Y1725368D02*
Y1726641D01*
X2026300Y1725528D02*
Y1726307D01*
X2027000Y1725914D02*
Y1727030D01*
X2027100Y1725586D02*
Y1727395D01*
X2027200Y1725411D02*
Y1727557D01*
X2027300Y1725268D02*
Y1727661D01*
X2027400Y1725185D02*
Y1725882D01*
Y1727106D02*
Y1727721D01*
X2027500Y1725102D02*
Y1725682D01*
Y1727281D02*
Y1727781D01*
X2027600Y1725039D02*
Y1725487D01*
Y1727453D02*
Y1727841D01*
X2027700Y1725006D02*
Y1725414D01*
Y1727537D02*
Y1727901D01*
X2027800Y1724972D02*
Y1725343D01*
Y1727620D02*
Y1727941D01*
X2027900Y1724939D02*
Y1725271D01*
Y1727703D02*
Y1727957D01*
X2028000Y1724906D02*
Y1725214D01*
Y1727731D02*
Y1727972D01*
X2028100Y1724895D02*
Y1725204D01*
Y1727741D02*
Y1727988D01*
X2028200Y1724886D02*
Y1725194D01*
Y1727751D02*
Y1728003D01*
X2028300Y1724877D02*
Y1725184D01*
Y1727761D02*
Y1728018D01*
X2028400Y1724868D02*
Y1725174D01*
Y1727771D02*
Y1728034D01*
X2028500Y1724859D02*
Y1725164D01*
Y1727776D02*
Y1728035D01*
X2028600Y1724853D02*
Y1725163D01*
Y1727776D02*
Y1728035D01*
X2028700Y1724853D02*
Y1725163D01*
Y1727776D02*
Y1728035D01*
X2028800Y1724853D02*
Y1725163D01*
Y1727776D02*
Y1728035D01*
X2028900Y1724853D02*
Y1728035D01*
X2029000Y1724853D02*
Y1728035D01*
X2029100Y1724853D02*
Y1728035D01*
X2029200Y1724853D02*
Y1728035D01*
X2029600Y1723828D02*
Y1724086D01*
X2029700Y1723828D02*
Y1724086D01*
X2029800Y1723828D02*
Y1724086D01*
X2029900Y1723828D02*
Y1724086D01*
X2030000Y1723828D02*
Y1724086D01*
X2030100Y1723828D02*
Y1724086D01*
X2030200Y1723828D02*
Y1724086D01*
X2030300Y1723828D02*
Y1724086D01*
X2030400Y1723828D02*
Y1724086D01*
X2030500Y1723828D02*
Y1724086D01*
X2030600Y1723828D02*
Y1724086D01*
X2030700Y1723828D02*
Y1724086D01*
X2030800Y1723828D02*
Y1724086D01*
X2030900Y1723828D02*
Y1724086D01*
X2031000Y1723828D02*
Y1724086D01*
X2031100Y1723828D02*
Y1724086D01*
X2031200Y1723828D02*
Y1724086D01*
X2031300Y1723828D02*
Y1724086D01*
X2031400Y1723828D02*
Y1724086D01*
X2031500Y1723828D02*
Y1724086D01*
X2031600Y1723828D02*
Y1724086D01*
X2031700Y1723828D02*
Y1724086D01*
X2031800Y1723828D02*
Y1724086D01*
X2031900Y1723828D02*
Y1724086D01*
X2032000Y1723828D02*
Y1724086D01*
X2032100Y1723828D02*
Y1724086D01*
X2032200Y1723828D02*
Y1724086D01*
X2032300Y1723828D02*
Y1724086D01*
X2032800Y1724853D02*
Y1725163D01*
X2032900Y1724853D02*
Y1725163D01*
Y1726927D02*
Y1727432D01*
X2033000Y1724853D02*
Y1725163D01*
Y1726649D02*
Y1727681D01*
X2033100Y1724853D02*
Y1725163D01*
Y1726479D02*
Y1727831D01*
X2033200Y1724853D02*
Y1725163D01*
Y1726359D02*
Y1727895D01*
X2033300Y1724853D02*
Y1725163D01*
Y1726239D02*
Y1726843D01*
Y1727253D02*
Y1727953D01*
X2033400Y1724853D02*
Y1725163D01*
Y1726124D02*
Y1726608D01*
Y1727519D02*
Y1728010D01*
X2033500Y1724853D02*
Y1725163D01*
Y1726009D02*
Y1726483D01*
Y1727644D02*
Y1728045D01*
X2033600Y1724853D02*
Y1725163D01*
Y1725895D02*
Y1726359D01*
Y1727711D02*
Y1728059D01*
X2033700Y1724853D02*
Y1725163D01*
Y1725785D02*
Y1726259D01*
Y1727739D02*
Y1728073D01*
X2033800Y1724853D02*
Y1725163D01*
Y1725685D02*
Y1726159D01*
Y1727759D02*
Y1728084D01*
X2033900Y1724853D02*
Y1725163D01*
Y1725585D02*
Y1726059D01*
Y1727776D02*
Y1728068D01*
X2034000Y1724853D02*
Y1725163D01*
Y1725485D02*
Y1725956D01*
Y1727748D02*
Y1728051D01*
X2034100Y1724853D02*
Y1725163D01*
Y1725385D02*
Y1725850D01*
Y1727719D02*
Y1728032D01*
X2034200Y1724853D02*
Y1725163D01*
Y1725285D02*
Y1725744D01*
Y1727690D02*
Y1727998D01*
X2034300Y1724853D02*
Y1725637D01*
Y1727649D02*
Y1727965D01*
X2034400Y1724853D02*
Y1725531D01*
Y1727565D02*
Y1727924D01*
X2034500Y1724853D02*
Y1725425D01*
Y1727482D02*
Y1727849D01*
X2034600Y1724853D02*
Y1725319D01*
Y1727494D02*
Y1727774D01*
X2034700Y1724853D02*
Y1725212D01*
Y1727614D02*
Y1727699D01*
X2035600Y1725770D02*
Y1725905D01*
X2035700Y1725416D02*
Y1726179D01*
X2035800Y1725276D02*
Y1726320D01*
Y1727049D02*
Y1727671D01*
X2035900Y1725136D02*
Y1726380D01*
Y1726867D02*
Y1727796D01*
X2036000Y1725062D02*
Y1725503D01*
Y1726052D02*
Y1726440D01*
Y1726767D02*
Y1727901D01*
X2036100Y1725012D02*
Y1725335D01*
Y1726158D02*
Y1726470D01*
Y1726685D02*
Y1727256D01*
Y1727273D02*
Y1727944D01*
X2036200Y1724962D02*
Y1725212D01*
Y1726241D02*
Y1726495D01*
Y1726610D02*
Y1726919D01*
Y1727581D02*
Y1727987D01*
X2036300Y1724912D02*
Y1725179D01*
Y1726281D02*
Y1726800D01*
Y1727726D02*
Y1728029D01*
X2036400Y1724889D02*
Y1725145D01*
Y1726321D02*
Y1726750D01*
Y1727751D02*
Y1728047D01*
X2036500Y1724872D02*
Y1725113D01*
Y1726347D02*
Y1726703D01*
Y1727776D02*
Y1728059D01*
X2036600Y1724856D02*
Y1725100D01*
Y1726361D02*
Y1726686D01*
Y1727796D02*
Y1728072D01*
X2036700Y1724839D02*
Y1725088D01*
Y1726376D02*
Y1726669D01*
Y1727816D02*
Y1728084D01*
X2036800Y1724822D02*
Y1725075D01*
Y1726390D02*
Y1726653D01*
Y1727823D02*
Y1728086D01*
X2036900Y1724806D02*
Y1725063D01*
Y1726392D02*
Y1726651D01*
Y1727809D02*
Y1728086D01*
X2037000Y1724802D02*
Y1725061D01*
Y1726392D02*
Y1726651D01*
Y1727794D02*
Y1728065D01*
X2037100Y1724802D02*
Y1725061D01*
Y1726392D02*
Y1726651D01*
Y1727780D02*
Y1728040D01*
X2037200Y1724802D02*
Y1725061D01*
Y1727756D02*
Y1728007D01*
X2037300Y1724802D02*
Y1725064D01*
Y1727728D02*
Y1727977D01*
X2037400Y1724802D02*
Y1725081D01*
Y1727699D02*
Y1727952D01*
X2037500Y1724802D02*
Y1725097D01*
X2038300Y1726719D02*
Y1727403D01*
X2038400Y1726579D02*
Y1727559D01*
X2038500Y1726439D02*
Y1727679D01*
X2038600Y1726343D02*
Y1727793D01*
X2038700Y1726281D02*
Y1726836D01*
Y1727248D02*
Y1727843D01*
X2038800Y1726218D02*
Y1726596D01*
Y1727472D02*
Y1727893D01*
X2038900Y1726156D02*
Y1726449D01*
Y1727619D02*
Y1727943D01*
X2039000Y1726111D02*
Y1726409D01*
Y1727659D02*
Y1727987D01*
X2039100Y1726077D02*
Y1726369D01*
Y1727699D02*
Y1727997D01*
X2039200Y1726044D02*
Y1726339D01*
Y1727730D02*
Y1728007D01*
X2039300Y1726033D02*
Y1726325D01*
Y1727746D02*
Y1728017D01*
X2039400Y1726033D02*
Y1726310D01*
Y1727763D02*
Y1728027D01*
X2039500Y1726033D02*
Y1726296D01*
Y1727776D02*
Y1728035D01*
X2039600Y1726033D02*
Y1726292D01*
Y1727776D02*
Y1728035D01*
X2039700Y1726033D02*
Y1726292D01*
Y1727776D02*
Y1728035D01*
X2039800Y1726033D02*
Y1726292D01*
Y1727776D02*
Y1728035D01*
X2039900Y1726033D02*
Y1726292D01*
Y1727776D02*
Y1728035D01*
X2040000Y1724853D02*
Y1728035D01*
X2040100Y1724853D02*
Y1728035D01*
X2040200Y1724853D02*
Y1728035D01*
X2040300Y1724853D02*
Y1728035D01*
X2041200Y1725576D02*
Y1725856D01*
X2041300Y1725254D02*
Y1726110D01*
X2041400Y1725134D02*
Y1726235D01*
Y1727684D02*
Y1728000D01*
X2041500Y1725014D02*
Y1726304D01*
Y1727699D02*
Y1728025D01*
X2041600Y1724966D02*
Y1725614D01*
Y1725735D02*
Y1726364D01*
Y1727713D02*
Y1728035D01*
X2041700Y1724929D02*
Y1725370D01*
Y1725952D02*
Y1726420D01*
Y1727727D02*
Y1728037D01*
X2041800Y1724891D02*
Y1725237D01*
Y1726027D02*
Y1726470D01*
Y1727739D02*
Y1728062D01*
X2041900Y1724854D02*
Y1725199D01*
Y1726097D02*
Y1726520D01*
Y1727752D02*
Y1728086D01*
X2042000Y1724844D02*
Y1725174D01*
Y1726157D02*
Y1726568D01*
Y1727764D02*
Y1728086D01*
X2042100Y1724835D02*
Y1725155D01*
Y1726217D02*
Y1726610D01*
Y1727776D02*
Y1728085D01*
X2042200Y1724825D02*
Y1725141D01*
Y1726269D02*
Y1726653D01*
Y1727760D02*
Y1728067D01*
X2042300Y1724816D02*
Y1725127D01*
Y1726319D02*
Y1726696D01*
Y1727743D02*
Y1728049D01*
X2042400Y1724807D02*
Y1725112D01*
Y1726369D02*
Y1726737D01*
Y1727727D02*
Y1728031D01*
X2042500Y1724802D02*
Y1725120D01*
Y1726406D02*
Y1726777D01*
Y1727703D02*
Y1728013D01*
X2042600Y1724802D02*
Y1725130D01*
Y1726434D02*
Y1726824D01*
Y1727678D02*
Y1727994D01*
X2042700Y1724802D02*
Y1725139D01*
Y1726463D02*
Y1726924D01*
Y1727605D02*
Y1727955D01*
X2042800Y1724820D02*
Y1725148D01*
Y1726495D02*
Y1727024D01*
Y1727505D02*
Y1727898D01*
X2042900Y1724840D02*
Y1725157D01*
Y1726575D02*
Y1727840D01*
X2043000Y1724862D02*
Y1725169D01*
Y1726655D02*
Y1727779D01*
X2043100Y1724887D02*
Y1725194D01*
Y1726764D02*
Y1727679D01*
X2043200Y1724912D02*
Y1725219D01*
Y1726889D02*
Y1727579D01*
X2043300Y1724937D02*
Y1725244D01*
X2044200Y1724853D02*
Y1725112D01*
Y1726340D02*
Y1726599D01*
Y1727776D02*
Y1728035D01*
X2044300Y1724853D02*
Y1725112D01*
Y1726340D02*
Y1726599D01*
Y1727776D02*
Y1728035D01*
X2044400Y1724853D02*
Y1725112D01*
Y1726340D02*
Y1726599D01*
Y1727776D02*
Y1728035D01*
X2044500Y1724853D02*
Y1725112D01*
Y1726340D02*
Y1726599D01*
Y1727776D02*
Y1728035D01*
X2044600Y1724853D02*
Y1725112D01*
Y1726340D02*
Y1726599D01*
Y1727776D02*
Y1728035D01*
X2044700Y1724853D02*
Y1725112D01*
Y1726340D02*
Y1726599D01*
Y1727776D02*
Y1728035D01*
X2044800Y1724853D02*
Y1725112D01*
Y1726340D02*
Y1726599D01*
Y1727776D02*
Y1728035D01*
X2044900Y1724853D02*
Y1725112D01*
Y1726340D02*
Y1726599D01*
Y1727776D02*
Y1728035D01*
X2045000Y1724853D02*
Y1725112D01*
Y1726340D02*
Y1726599D01*
Y1727776D02*
Y1728035D01*
X2045100Y1724853D02*
Y1725112D01*
Y1726340D02*
Y1726599D01*
Y1727776D02*
Y1728035D01*
X2045200Y1724853D02*
Y1725112D01*
Y1726340D02*
Y1726599D01*
Y1727776D02*
Y1728035D01*
X2045300Y1724853D02*
Y1725112D01*
Y1726340D02*
Y1726599D01*
Y1727776D02*
Y1728035D01*
X2045400Y1724853D02*
Y1725112D01*
Y1726340D02*
Y1726599D01*
Y1727776D02*
Y1728035D01*
X2045500Y1724853D02*
Y1725115D01*
Y1726337D02*
Y1726602D01*
Y1727773D02*
Y1728035D01*
X2045600Y1724853D02*
Y1728035D01*
X2045700Y1724853D02*
Y1728035D01*
X2045800Y1724853D02*
Y1728035D01*
X2063000Y1576806D02*
Y1577146D01*
Y1591357D02*
Y1591364D01*
Y1610409D02*
Y1611095D01*
Y1629801D02*
Y1629809D01*
Y1651411D02*
Y1651416D01*
Y1668853D02*
Y1669539D01*
Y1681401D02*
Y1681426D01*
Y1696251D02*
Y1696806D01*
Y1750353D02*
Y1751031D01*
Y1756751D02*
Y1757306D01*
X2063100Y1576506D02*
Y1577695D01*
Y1579020D02*
Y1580975D01*
Y1581909D02*
Y1582309D01*
Y1583627D02*
Y1584112D01*
Y1587131D02*
Y1588363D01*
Y1590907D02*
Y1591917D01*
Y1597631D02*
Y1598863D01*
Y1600909D02*
Y1603031D01*
Y1607353D02*
Y1609475D01*
Y1610409D02*
Y1611706D01*
Y1619242D02*
Y1621475D01*
Y1629351D02*
Y1630362D01*
Y1640186D02*
Y1640586D01*
Y1647353D02*
Y1649475D01*
Y1650911D02*
Y1651866D01*
Y1657353D02*
Y1659475D01*
Y1660683D02*
Y1661072D01*
Y1668853D02*
Y1670151D01*
Y1677353D02*
Y1679475D01*
Y1680778D02*
Y1682011D01*
Y1687353D02*
Y1689475D01*
Y1690409D02*
Y1691235D01*
Y1695951D02*
Y1697306D01*
Y1698242D02*
Y1698642D01*
Y1699928D02*
Y1700531D01*
Y1701242D02*
Y1702474D01*
Y1707242D02*
Y1709475D01*
Y1710409D02*
Y1712531D01*
Y1717298D02*
Y1717698D01*
Y1719146D02*
Y1719591D01*
Y1720035D02*
Y1720525D01*
Y1722245D02*
Y1722738D01*
Y1728131D02*
Y1728531D01*
Y1730035D02*
Y1730525D01*
Y1732245D02*
Y1732738D01*
Y1737242D02*
Y1739475D01*
Y1740298D02*
Y1742531D01*
Y1747242D02*
Y1749475D01*
Y1750353D02*
Y1751631D01*
Y1756451D02*
Y1757806D01*
Y1758742D02*
Y1759142D01*
Y1760428D02*
Y1761031D01*
Y1761742D02*
Y1762974D01*
X2063200Y1576333D02*
Y1577961D01*
Y1579020D02*
Y1580975D01*
Y1581909D02*
Y1582309D01*
Y1583553D02*
Y1584036D01*
Y1587131D02*
Y1588733D01*
Y1590689D02*
Y1592074D01*
Y1597631D02*
Y1599233D01*
Y1600909D02*
Y1603031D01*
Y1607353D02*
Y1609475D01*
Y1610409D02*
Y1611886D01*
Y1619242D02*
Y1621475D01*
Y1629134D02*
Y1630518D01*
Y1640186D02*
Y1640586D01*
Y1647353D02*
Y1649475D01*
Y1650738D02*
Y1652059D01*
Y1657353D02*
Y1659475D01*
Y1660731D02*
Y1661120D01*
Y1668853D02*
Y1670331D01*
Y1677353D02*
Y1679475D01*
Y1680578D02*
Y1682245D01*
Y1687353D02*
Y1689475D01*
Y1690409D02*
Y1691528D01*
Y1695777D02*
Y1697528D01*
Y1698242D02*
Y1698642D01*
Y1699885D02*
Y1700531D01*
Y1701242D02*
Y1702844D01*
Y1707242D02*
Y1709475D01*
Y1710409D02*
Y1712531D01*
Y1717298D02*
Y1717698D01*
Y1719098D02*
Y1719543D01*
Y1720098D02*
Y1720585D01*
Y1722181D02*
Y1722675D01*
Y1728131D02*
Y1728531D01*
Y1730098D02*
Y1730585D01*
Y1732181D02*
Y1732675D01*
Y1737242D02*
Y1739475D01*
Y1740298D02*
Y1742531D01*
Y1747242D02*
Y1749475D01*
Y1750353D02*
Y1751861D01*
Y1756277D02*
Y1758028D01*
Y1758742D02*
Y1759142D01*
Y1760385D02*
Y1761031D01*
Y1761742D02*
Y1763344D01*
X2063300Y1576177D02*
Y1577975D01*
Y1579020D02*
Y1580975D01*
Y1581909D02*
Y1582309D01*
Y1583479D02*
Y1583961D01*
Y1587131D02*
Y1588980D01*
Y1590578D02*
Y1591346D01*
Y1591461D02*
Y1592185D01*
Y1597631D02*
Y1599480D01*
Y1600909D02*
Y1603031D01*
Y1607353D02*
Y1609475D01*
Y1610409D02*
Y1610612D01*
Y1611174D02*
Y1612066D01*
Y1619242D02*
Y1621475D01*
Y1629022D02*
Y1629790D01*
Y1629905D02*
Y1630629D01*
Y1640186D02*
Y1640586D01*
Y1647353D02*
Y1649475D01*
Y1650633D02*
Y1651346D01*
Y1651495D02*
Y1652234D01*
Y1657353D02*
Y1659475D01*
Y1660779D02*
Y1661168D01*
Y1668853D02*
Y1669056D01*
Y1669618D02*
Y1670511D01*
Y1677353D02*
Y1679475D01*
Y1680467D02*
Y1681346D01*
Y1681729D02*
Y1682343D01*
Y1687353D02*
Y1689475D01*
Y1690409D02*
Y1691728D01*
Y1695621D02*
Y1697531D01*
Y1698242D02*
Y1698642D01*
Y1699843D02*
Y1700531D01*
Y1701242D02*
Y1703091D01*
Y1707242D02*
Y1709475D01*
Y1710409D02*
Y1712531D01*
Y1717298D02*
Y1717698D01*
Y1719051D02*
Y1719496D01*
Y1720162D02*
Y1720645D01*
Y1722117D02*
Y1722611D01*
Y1728131D02*
Y1728531D01*
Y1730162D02*
Y1730645D01*
Y1732117D02*
Y1732611D01*
Y1737242D02*
Y1739475D01*
Y1740298D02*
Y1742531D01*
Y1747242D02*
Y1749475D01*
Y1750353D02*
Y1750556D01*
Y1751130D02*
Y1752061D01*
Y1756121D02*
Y1758031D01*
Y1758742D02*
Y1759142D01*
Y1760343D02*
Y1761031D01*
Y1761742D02*
Y1763591D01*
X2063400Y1576044D02*
Y1576735D01*
Y1577649D02*
Y1577975D01*
Y1579020D02*
Y1579420D01*
Y1581909D02*
Y1582309D01*
Y1583405D02*
Y1583885D01*
Y1587131D02*
Y1587568D01*
Y1587933D02*
Y1589100D01*
Y1590478D02*
Y1591010D01*
Y1591761D02*
Y1592260D01*
Y1597631D02*
Y1598068D01*
Y1598433D02*
Y1599600D01*
Y1601760D02*
Y1602291D01*
Y1608205D02*
Y1608735D01*
Y1611579D02*
Y1612172D01*
Y1619267D02*
Y1619846D01*
Y1628922D02*
Y1629455D01*
Y1630205D02*
Y1630704D01*
Y1640186D02*
Y1640586D01*
Y1648205D02*
Y1648735D01*
Y1650541D02*
Y1651047D01*
Y1651848D02*
Y1652313D01*
Y1658205D02*
Y1658735D01*
Y1660827D02*
Y1661216D01*
Y1670023D02*
Y1670616D01*
Y1678205D02*
Y1678735D01*
Y1680367D02*
Y1680902D01*
Y1681929D02*
Y1682423D01*
Y1688205D02*
Y1688735D01*
Y1691316D02*
Y1691903D01*
Y1695488D02*
Y1696374D01*
Y1697094D02*
Y1697531D01*
Y1698242D02*
Y1698642D01*
Y1699800D02*
Y1700531D01*
Y1701242D02*
Y1701679D01*
Y1702044D02*
Y1703211D01*
Y1707267D02*
Y1707846D01*
Y1711260D02*
Y1711791D01*
Y1717298D02*
Y1717698D01*
Y1719003D02*
Y1719448D01*
Y1720226D02*
Y1720705D01*
Y1722053D02*
Y1722547D01*
Y1728131D02*
Y1728531D01*
Y1730226D02*
Y1730705D01*
Y1732053D02*
Y1732547D01*
Y1737267D02*
Y1737846D01*
Y1740323D02*
Y1740902D01*
Y1747267D02*
Y1747846D01*
Y1751649D02*
Y1752160D01*
Y1755988D02*
Y1756874D01*
Y1757594D02*
Y1758031D01*
Y1758742D02*
Y1759142D01*
Y1760300D02*
Y1761031D01*
Y1761742D02*
Y1762179D01*
Y1762544D02*
Y1763711D01*
X2063500Y1575964D02*
Y1576608D01*
Y1577884D02*
Y1577975D01*
Y1579020D02*
Y1579420D01*
Y1581909D02*
Y1582309D01*
Y1583331D02*
Y1583809D01*
Y1587131D02*
Y1587531D01*
Y1588550D02*
Y1589220D01*
Y1590417D02*
Y1590860D01*
Y1591870D02*
Y1592329D01*
Y1597631D02*
Y1598031D01*
Y1599050D02*
Y1599720D01*
Y1601798D02*
Y1602253D01*
Y1608242D02*
Y1608698D01*
Y1611746D02*
Y1612258D01*
Y1619362D02*
Y1619840D01*
Y1628861D02*
Y1629305D01*
Y1630314D02*
Y1630773D01*
Y1640186D02*
Y1640586D01*
Y1648242D02*
Y1648698D01*
Y1650466D02*
Y1650922D01*
Y1651970D02*
Y1652370D01*
Y1658242D02*
Y1658698D01*
Y1660876D02*
Y1661265D01*
Y1670190D02*
Y1670702D01*
Y1678242D02*
Y1678698D01*
Y1680291D02*
Y1680820D01*
Y1682009D02*
Y1682487D01*
Y1688242D02*
Y1688698D01*
Y1691494D02*
Y1692058D01*
Y1695393D02*
Y1696063D01*
Y1697131D02*
Y1697531D01*
Y1698242D02*
Y1698642D01*
Y1699758D02*
Y1700531D01*
Y1701242D02*
Y1701642D01*
Y1702661D02*
Y1703331D01*
Y1707362D02*
Y1707840D01*
Y1711298D02*
Y1711753D01*
Y1717298D02*
Y1717698D01*
Y1718956D02*
Y1719400D01*
Y1720289D02*
Y1720765D01*
Y1721989D02*
Y1722484D01*
Y1728131D02*
Y1728531D01*
Y1730289D02*
Y1730765D01*
Y1731989D02*
Y1732484D01*
Y1737362D02*
Y1737840D01*
Y1740417D02*
Y1740895D01*
Y1747362D02*
Y1747840D01*
Y1751859D02*
Y1752231D01*
Y1755893D02*
Y1756563D01*
Y1757631D02*
Y1758031D01*
Y1758742D02*
Y1759142D01*
Y1760258D02*
Y1761031D01*
Y1761742D02*
Y1762142D01*
Y1763161D02*
Y1763831D01*
X2063600Y1575904D02*
Y1576488D01*
Y1579020D02*
Y1579420D01*
Y1581909D02*
Y1582309D01*
Y1583257D02*
Y1583733D01*
Y1587131D02*
Y1587531D01*
Y1588690D02*
Y1589300D01*
Y1590367D02*
Y1590810D01*
Y1591970D02*
Y1592379D01*
Y1597631D02*
Y1598031D01*
Y1599190D02*
Y1599800D01*
Y1601798D02*
Y1602253D01*
Y1608242D02*
Y1608698D01*
Y1611859D02*
Y1612343D01*
Y1619456D02*
Y1619940D01*
Y1628811D02*
Y1629255D01*
Y1630414D02*
Y1630823D01*
Y1640186D02*
Y1640586D01*
Y1648242D02*
Y1648698D01*
Y1650396D02*
Y1650811D01*
Y1652030D02*
Y1652427D01*
Y1658242D02*
Y1658698D01*
Y1660924D02*
Y1661313D01*
Y1670303D02*
Y1670788D01*
Y1678242D02*
Y1678698D01*
Y1680276D02*
Y1680755D01*
Y1682073D02*
Y1682512D01*
Y1688242D02*
Y1688698D01*
Y1691669D02*
Y1692138D01*
Y1695313D02*
Y1695943D01*
Y1697131D02*
Y1697531D01*
Y1698242D02*
Y1698642D01*
Y1699715D02*
Y1700033D01*
Y1700129D02*
Y1700531D01*
Y1701242D02*
Y1701642D01*
Y1702801D02*
Y1703412D01*
Y1707456D02*
Y1707940D01*
Y1711298D02*
Y1711753D01*
Y1717298D02*
Y1717698D01*
Y1718908D02*
Y1719353D01*
Y1720353D02*
Y1720825D01*
Y1721925D02*
Y1722420D01*
Y1728131D02*
Y1728531D01*
Y1730353D02*
Y1730825D01*
Y1731925D02*
Y1732420D01*
Y1737456D02*
Y1737940D01*
Y1740511D02*
Y1740995D01*
Y1747456D02*
Y1747940D01*
Y1751919D02*
Y1752302D01*
Y1755813D02*
Y1756443D01*
Y1757631D02*
Y1758031D01*
Y1758742D02*
Y1759142D01*
Y1760215D02*
Y1760533D01*
Y1760629D02*
Y1761031D01*
Y1761742D02*
Y1762142D01*
Y1763301D02*
Y1763912D01*
X2063700Y1575845D02*
Y1576372D01*
Y1579020D02*
Y1579420D01*
Y1581909D02*
Y1582309D01*
Y1583182D02*
Y1583658D01*
Y1587131D02*
Y1587531D01*
Y1588830D02*
Y1589358D01*
Y1590328D02*
Y1590760D01*
Y1592034D02*
Y1592429D01*
Y1597631D02*
Y1598031D01*
Y1599330D02*
Y1599858D01*
Y1601798D02*
Y1602253D01*
Y1608242D02*
Y1608698D01*
Y1611959D02*
Y1612429D01*
Y1619550D02*
Y1620040D01*
Y1628772D02*
Y1629205D01*
Y1630479D02*
Y1630873D01*
Y1640186D02*
Y1640586D01*
Y1648242D02*
Y1648698D01*
Y1650356D02*
Y1650778D01*
Y1652090D02*
Y1652481D01*
Y1658242D02*
Y1658698D01*
Y1660972D02*
Y1661361D01*
Y1670403D02*
Y1670873D01*
Y1678242D02*
Y1678698D01*
Y1680262D02*
Y1680730D01*
Y1682098D02*
Y1682537D01*
Y1688242D02*
Y1688698D01*
Y1691774D02*
Y1692218D01*
Y1695234D02*
Y1695823D01*
Y1697131D02*
Y1697531D01*
Y1698242D02*
Y1698642D01*
Y1699673D02*
Y1699993D01*
Y1700131D02*
Y1700531D01*
Y1701242D02*
Y1701642D01*
Y1702941D02*
Y1703469D01*
Y1707550D02*
Y1708040D01*
Y1711298D02*
Y1711753D01*
Y1717298D02*
Y1717698D01*
Y1718860D02*
Y1719305D01*
Y1720416D02*
Y1720885D01*
Y1721861D02*
Y1722356D01*
Y1728131D02*
Y1728531D01*
Y1730416D02*
Y1730885D01*
Y1731861D02*
Y1732356D01*
Y1737550D02*
Y1738040D01*
Y1740605D02*
Y1741095D01*
Y1747550D02*
Y1748040D01*
Y1751979D02*
Y1752370D01*
Y1755734D02*
Y1756323D01*
Y1757631D02*
Y1758031D01*
Y1758742D02*
Y1759142D01*
Y1760173D02*
Y1760493D01*
Y1760631D02*
Y1761031D01*
Y1761742D02*
Y1762142D01*
Y1763441D02*
Y1763969D01*
X2063800Y1575805D02*
Y1576321D01*
Y1579020D02*
Y1579420D01*
Y1581909D02*
Y1582309D01*
Y1583108D02*
Y1583582D01*
Y1587131D02*
Y1587531D01*
Y1588924D02*
Y1589415D01*
Y1590294D02*
Y1590720D01*
Y1592072D02*
Y1592479D01*
Y1597631D02*
Y1598031D01*
Y1599424D02*
Y1599915D01*
Y1601798D02*
Y1602253D01*
Y1608242D02*
Y1608698D01*
Y1612024D02*
Y1612479D01*
Y1619644D02*
Y1620140D01*
Y1628739D02*
Y1629164D01*
Y1630516D02*
Y1630923D01*
Y1640183D02*
Y1640590D01*
Y1648242D02*
Y1648698D01*
Y1650316D02*
Y1650744D01*
Y1652136D02*
Y1652506D01*
Y1658242D02*
Y1658698D01*
Y1661020D02*
Y1661409D01*
Y1670468D02*
Y1670923D01*
Y1678242D02*
Y1678698D01*
Y1680248D02*
Y1680705D01*
Y1682123D02*
Y1682562D01*
Y1688242D02*
Y1688698D01*
Y1691846D02*
Y1692284D01*
Y1695194D02*
Y1695735D01*
Y1697131D02*
Y1697531D01*
Y1698242D02*
Y1698642D01*
Y1699630D02*
Y1699953D01*
Y1700131D02*
Y1700531D01*
Y1701242D02*
Y1701642D01*
Y1703035D02*
Y1703526D01*
Y1707644D02*
Y1708140D01*
Y1711298D02*
Y1711753D01*
Y1717298D02*
Y1717698D01*
Y1718813D02*
Y1719258D01*
Y1720480D02*
Y1720945D01*
Y1721797D02*
Y1722293D01*
Y1728131D02*
Y1728531D01*
Y1730480D02*
Y1730945D01*
Y1731797D02*
Y1732293D01*
Y1737644D02*
Y1738140D01*
Y1740699D02*
Y1741195D01*
Y1747644D02*
Y1748140D01*
Y1752024D02*
Y1752395D01*
Y1755694D02*
Y1756235D01*
Y1757631D02*
Y1758031D01*
Y1758742D02*
Y1759142D01*
Y1760130D02*
Y1760453D01*
Y1760631D02*
Y1761031D01*
Y1761742D02*
Y1762142D01*
Y1763535D02*
Y1764026D01*
X2063900Y1575765D02*
Y1576271D01*
Y1579020D02*
Y1579420D01*
Y1581909D02*
Y1582309D01*
Y1583034D02*
Y1583506D01*
Y1587131D02*
Y1587531D01*
Y1588974D02*
Y1589472D01*
Y1590261D02*
Y1590680D01*
Y1592109D02*
Y1592529D01*
Y1597631D02*
Y1598031D01*
Y1599474D02*
Y1599972D01*
Y1601798D02*
Y1602253D01*
Y1608242D02*
Y1608698D01*
Y1612040D02*
Y1612529D01*
Y1619738D02*
Y1620240D01*
Y1628705D02*
Y1629124D01*
Y1630554D02*
Y1630973D01*
Y1638464D02*
Y1641142D01*
Y1648242D02*
Y1648698D01*
Y1650286D02*
Y1650711D01*
Y1652156D02*
Y1652531D01*
Y1658242D02*
Y1658698D01*
Y1661068D02*
Y1661457D01*
Y1670485D02*
Y1670973D01*
Y1678242D02*
Y1678698D01*
Y1680256D02*
Y1680712D01*
Y1682117D02*
Y1682584D01*
Y1688242D02*
Y1688698D01*
Y1691917D02*
Y1692334D01*
Y1695154D02*
Y1695678D01*
Y1697131D02*
Y1697531D01*
Y1698242D02*
Y1698642D01*
Y1699588D02*
Y1699913D01*
Y1700131D02*
Y1700531D01*
Y1701242D02*
Y1701642D01*
Y1703085D02*
Y1703583D01*
Y1707738D02*
Y1708240D01*
Y1711298D02*
Y1711753D01*
Y1717298D02*
Y1717698D01*
Y1718765D02*
Y1719210D01*
Y1720544D02*
Y1721005D01*
Y1721733D02*
Y1722229D01*
Y1728131D02*
Y1728531D01*
Y1730544D02*
Y1731005D01*
Y1731733D02*
Y1732229D01*
Y1737738D02*
Y1738240D01*
Y1740794D02*
Y1741295D01*
Y1747738D02*
Y1748240D01*
Y1752044D02*
Y1752420D01*
Y1755654D02*
Y1756178D01*
Y1757631D02*
Y1758031D01*
Y1758742D02*
Y1759142D01*
Y1760088D02*
Y1760413D01*
Y1760631D02*
Y1761031D01*
Y1761742D02*
Y1762142D01*
Y1763585D02*
Y1764083D01*
X2064000Y1575735D02*
Y1576221D01*
Y1579020D02*
Y1579420D01*
Y1581909D02*
Y1582309D01*
Y1582960D02*
Y1583430D01*
Y1587131D02*
Y1587531D01*
Y1589024D02*
Y1589501D01*
Y1590229D02*
Y1590642D01*
Y1592147D02*
Y1592579D01*
Y1597631D02*
Y1598031D01*
Y1599524D02*
Y1600001D01*
Y1601798D02*
Y1602253D01*
Y1608242D02*
Y1608698D01*
Y1612057D02*
Y1612531D01*
Y1619832D02*
Y1620340D01*
Y1628674D02*
Y1629087D01*
Y1630591D02*
Y1631023D01*
Y1638464D02*
Y1641142D01*
Y1648242D02*
Y1648698D01*
Y1650266D02*
Y1650686D01*
Y1652176D02*
Y1652556D01*
Y1658242D02*
Y1658698D01*
Y1661117D02*
Y1661506D01*
Y1670501D02*
Y1670975D01*
Y1678242D02*
Y1678698D01*
Y1680276D02*
Y1680737D01*
Y1682092D02*
Y1682564D01*
Y1688242D02*
Y1688698D01*
Y1691989D02*
Y1692384D01*
Y1695124D02*
Y1695621D01*
Y1697131D02*
Y1697531D01*
Y1698242D02*
Y1698642D01*
Y1699545D02*
Y1699873D01*
Y1700131D02*
Y1700531D01*
Y1701242D02*
Y1701642D01*
Y1703135D02*
Y1703612D01*
Y1707832D02*
Y1708340D01*
Y1711298D02*
Y1711753D01*
Y1717298D02*
Y1717698D01*
Y1718718D02*
Y1719162D01*
Y1720607D02*
Y1721065D01*
Y1721669D02*
Y1722166D01*
Y1728131D02*
Y1728531D01*
Y1730607D02*
Y1731065D01*
Y1731669D02*
Y1732166D01*
Y1737832D02*
Y1738340D01*
Y1740888D02*
Y1741395D01*
Y1747832D02*
Y1748340D01*
Y1752064D02*
Y1752445D01*
Y1755624D02*
Y1756121D01*
Y1757631D02*
Y1758031D01*
Y1758742D02*
Y1759142D01*
Y1760045D02*
Y1760373D01*
Y1760631D02*
Y1761031D01*
Y1761742D02*
Y1762142D01*
Y1763635D02*
Y1764112D01*
X2064100Y1575721D02*
Y1576171D01*
Y1579020D02*
Y1579420D01*
Y1581909D02*
Y1582309D01*
Y1582886D02*
Y1583355D01*
Y1587131D02*
Y1587531D01*
Y1589074D02*
Y1589526D01*
Y1590201D02*
Y1590738D01*
Y1592184D02*
Y1592593D01*
Y1597631D02*
Y1598031D01*
Y1599574D02*
Y1600026D01*
Y1601798D02*
Y1602253D01*
Y1608242D02*
Y1608698D01*
Y1612074D02*
Y1612531D01*
Y1619926D02*
Y1620439D01*
Y1628645D02*
Y1629182D01*
Y1630629D02*
Y1631038D01*
Y1638464D02*
Y1641142D01*
Y1648242D02*
Y1648698D01*
Y1650246D02*
Y1650666D01*
Y1652180D02*
Y1652581D01*
Y1658242D02*
Y1658698D01*
Y1661165D02*
Y1661554D01*
Y1670518D02*
Y1670975D01*
Y1678242D02*
Y1678698D01*
Y1680296D02*
Y1680764D01*
Y1682058D02*
Y1682544D01*
Y1688242D02*
Y1688698D01*
Y1692031D02*
Y1692424D01*
Y1695110D02*
Y1695564D01*
Y1697131D02*
Y1697531D01*
Y1698242D02*
Y1698642D01*
Y1699503D02*
Y1699833D01*
Y1700131D02*
Y1700531D01*
Y1701242D02*
Y1701642D01*
Y1703185D02*
Y1703637D01*
Y1707926D02*
Y1708439D01*
Y1711298D02*
Y1711753D01*
Y1717298D02*
Y1717698D01*
Y1718670D02*
Y1719115D01*
Y1720671D02*
Y1721125D01*
Y1721605D02*
Y1722102D01*
Y1728131D02*
Y1728531D01*
Y1730671D02*
Y1731125D01*
Y1731605D02*
Y1732102D01*
Y1737926D02*
Y1738439D01*
Y1740982D02*
Y1741494D01*
Y1747926D02*
Y1748439D01*
Y1752068D02*
Y1752470D01*
Y1755610D02*
Y1756064D01*
Y1757631D02*
Y1758031D01*
Y1758742D02*
Y1759142D01*
Y1760003D02*
Y1760333D01*
Y1760631D02*
Y1761031D01*
Y1761742D02*
Y1762142D01*
Y1763685D02*
Y1764137D01*
X2064200Y1575707D02*
Y1576139D01*
Y1579020D02*
Y1579420D01*
Y1581909D02*
Y1582309D01*
Y1582811D02*
Y1583279D01*
Y1587131D02*
Y1587531D01*
Y1589124D02*
Y1589551D01*
Y1590172D02*
Y1590873D01*
Y1592194D02*
Y1592600D01*
Y1597631D02*
Y1598031D01*
Y1599624D02*
Y1600051D01*
Y1601798D02*
Y1602253D01*
Y1608242D02*
Y1608698D01*
Y1612059D02*
Y1612531D01*
Y1620020D02*
Y1620526D01*
Y1628617D02*
Y1629317D01*
Y1630639D02*
Y1631045D01*
Y1638492D02*
Y1638874D01*
Y1640186D02*
Y1640586D01*
Y1648242D02*
Y1648698D01*
Y1650242D02*
Y1650646D01*
Y1652164D02*
Y1652575D01*
Y1658242D02*
Y1658698D01*
Y1661213D02*
Y1661602D01*
Y1670504D02*
Y1670975D01*
Y1678242D02*
Y1678698D01*
Y1680346D02*
Y1680797D01*
Y1681992D02*
Y1682505D01*
Y1688242D02*
Y1688698D01*
Y1692056D02*
Y1692437D01*
Y1695095D02*
Y1695528D01*
Y1697131D02*
Y1697531D01*
Y1698242D02*
Y1698642D01*
Y1699460D02*
Y1699793D01*
Y1700131D02*
Y1700531D01*
Y1701242D02*
Y1701642D01*
Y1703235D02*
Y1703662D01*
Y1708020D02*
Y1708526D01*
Y1711298D02*
Y1711753D01*
Y1717298D02*
Y1717698D01*
Y1718622D02*
Y1719057D01*
Y1720735D02*
Y1721185D01*
Y1721541D02*
Y1722038D01*
Y1728131D02*
Y1728531D01*
Y1730735D02*
Y1731185D01*
Y1731541D02*
Y1732038D01*
Y1738020D02*
Y1738526D01*
Y1741076D02*
Y1741582D01*
Y1748020D02*
Y1748526D01*
Y1752048D02*
Y1752457D01*
Y1755595D02*
Y1756028D01*
Y1757631D02*
Y1758031D01*
Y1758742D02*
Y1759142D01*
Y1759960D02*
Y1760293D01*
Y1760631D02*
Y1761031D01*
Y1761742D02*
Y1762142D01*
Y1763735D02*
Y1764162D01*
X2064300Y1575692D02*
Y1576130D01*
Y1579020D02*
Y1579420D01*
Y1581909D02*
Y1582309D01*
Y1582737D02*
Y1583203D01*
Y1587131D02*
Y1587531D01*
Y1589139D02*
Y1589576D01*
Y1590144D02*
Y1591008D01*
Y1592204D02*
Y1592608D01*
Y1597631D02*
Y1598031D01*
Y1599639D02*
Y1600076D01*
Y1601798D02*
Y1602253D01*
Y1608242D02*
Y1608698D01*
Y1612039D02*
Y1612531D01*
Y1620115D02*
Y1620614D01*
Y1628588D02*
Y1629452D01*
Y1630648D02*
Y1631052D01*
Y1638555D02*
Y1638937D01*
Y1640186D02*
Y1640586D01*
Y1648242D02*
Y1648698D01*
Y1650242D02*
Y1650642D01*
Y1652147D02*
Y1652563D01*
Y1658242D02*
Y1658698D01*
Y1661261D02*
Y1661650D01*
Y1670484D02*
Y1670975D01*
Y1678242D02*
Y1678698D01*
Y1680396D02*
Y1680862D01*
Y1681911D02*
Y1682445D01*
Y1688242D02*
Y1688698D01*
Y1692081D02*
Y1692449D01*
Y1695081D02*
Y1695519D01*
Y1697131D02*
Y1697531D01*
Y1698242D02*
Y1698642D01*
Y1699418D02*
Y1699753D01*
Y1700131D02*
Y1700531D01*
Y1701242D02*
Y1701642D01*
Y1703250D02*
Y1703687D01*
Y1708115D02*
Y1708614D01*
Y1711298D02*
Y1711753D01*
Y1717298D02*
Y1717698D01*
Y1718572D02*
Y1718990D01*
Y1720798D02*
Y1721245D01*
Y1721477D02*
Y1721975D01*
Y1728131D02*
Y1728531D01*
Y1730798D02*
Y1731245D01*
Y1731477D02*
Y1731975D01*
Y1738115D02*
Y1738614D01*
Y1741170D02*
Y1741669D01*
Y1748115D02*
Y1748614D01*
Y1752028D02*
Y1752437D01*
Y1755581D02*
Y1756019D01*
Y1757631D02*
Y1758031D01*
Y1758742D02*
Y1759142D01*
Y1759918D02*
Y1760253D01*
Y1760631D02*
Y1761031D01*
Y1761742D02*
Y1762142D01*
Y1763750D02*
Y1764187D01*
X2064400Y1575678D02*
Y1576121D01*
Y1579020D02*
Y1579420D01*
Y1581909D02*
Y1582309D01*
Y1582663D02*
Y1583127D01*
Y1587131D02*
Y1587531D01*
Y1589149D02*
Y1589593D01*
Y1590131D02*
Y1590568D01*
Y1590594D02*
Y1591143D01*
Y1592213D02*
Y1592615D01*
Y1597631D02*
Y1598031D01*
Y1599649D02*
Y1600093D01*
Y1601798D02*
Y1602253D01*
Y1608242D02*
Y1608698D01*
Y1612019D02*
Y1612521D01*
Y1620214D02*
Y1620701D01*
Y1628575D02*
Y1629013D01*
Y1629038D02*
Y1629587D01*
Y1630657D02*
Y1631059D01*
Y1638617D02*
Y1638999D01*
Y1640186D02*
Y1640586D01*
Y1648242D02*
Y1648698D01*
Y1650242D02*
Y1650642D01*
Y1652130D02*
Y1652550D01*
Y1658242D02*
Y1658698D01*
Y1661310D02*
Y1661699D01*
Y1670464D02*
Y1670966D01*
Y1678242D02*
Y1678698D01*
Y1680517D02*
Y1680962D01*
Y1681811D02*
Y1682385D01*
Y1688242D02*
Y1688698D01*
Y1692106D02*
Y1692462D01*
Y1695067D02*
Y1695510D01*
Y1697131D02*
Y1697531D01*
Y1698242D02*
Y1698642D01*
Y1699375D02*
Y1699713D01*
Y1700131D02*
Y1700531D01*
Y1701242D02*
Y1701642D01*
Y1703260D02*
Y1703704D01*
Y1708214D02*
Y1708701D01*
Y1711298D02*
Y1711753D01*
Y1717298D02*
Y1717698D01*
Y1718522D02*
Y1718923D01*
Y1720862D02*
Y1721305D01*
Y1721413D02*
Y1721911D01*
Y1728131D02*
Y1728531D01*
Y1730862D02*
Y1731305D01*
Y1731413D02*
Y1731911D01*
Y1738214D02*
Y1738701D01*
Y1741270D02*
Y1741757D01*
Y1748214D02*
Y1748701D01*
Y1751978D02*
Y1752407D01*
Y1755567D02*
Y1756010D01*
Y1757631D02*
Y1758031D01*
Y1758742D02*
Y1759142D01*
Y1759875D02*
Y1760213D01*
Y1760631D02*
Y1761031D01*
Y1761742D02*
Y1762142D01*
Y1763760D02*
Y1764204D01*
X2064500Y1575664D02*
Y1576112D01*
Y1579020D02*
Y1579420D01*
Y1581909D02*
Y1582309D01*
Y1582589D02*
Y1583051D01*
Y1587131D02*
Y1587531D01*
Y1589159D02*
Y1589604D01*
Y1590131D02*
Y1590531D01*
Y1590735D02*
Y1591278D01*
Y1592222D02*
Y1592622D01*
Y1597631D02*
Y1598031D01*
Y1599659D02*
Y1600104D01*
Y1601798D02*
Y1602253D01*
Y1608242D02*
Y1608698D01*
Y1611952D02*
Y1612471D01*
Y1620314D02*
Y1620789D01*
Y1628575D02*
Y1628975D01*
Y1629179D02*
Y1629722D01*
Y1630666D02*
Y1631066D01*
Y1638680D02*
Y1639062D01*
Y1640186D02*
Y1640586D01*
Y1648242D02*
Y1648698D01*
Y1650242D02*
Y1650642D01*
Y1652070D02*
Y1652538D01*
Y1658242D02*
Y1658698D01*
Y1661358D02*
Y1661747D01*
Y1670396D02*
Y1670916D01*
Y1678242D02*
Y1678698D01*
Y1680642D02*
Y1681070D01*
Y1681661D02*
Y1682292D01*
Y1688242D02*
Y1688698D01*
Y1690760D02*
Y1691686D01*
Y1692131D02*
Y1692474D01*
Y1695053D02*
Y1695501D01*
Y1697131D02*
Y1697531D01*
Y1698242D02*
Y1698642D01*
Y1699333D02*
Y1699672D01*
Y1700131D02*
Y1700531D01*
Y1701242D02*
Y1701642D01*
Y1703270D02*
Y1703715D01*
Y1708314D02*
Y1708789D01*
Y1711298D02*
Y1711753D01*
Y1717298D02*
Y1717698D01*
Y1718433D02*
Y1718839D01*
Y1720926D02*
Y1721847D01*
Y1728131D02*
Y1728531D01*
Y1730926D02*
Y1731847D01*
Y1738314D02*
Y1738789D01*
Y1741370D02*
Y1741844D01*
Y1748314D02*
Y1748789D01*
Y1751878D02*
Y1752347D01*
Y1755553D02*
Y1756001D01*
Y1757631D02*
Y1758031D01*
Y1758742D02*
Y1759142D01*
Y1759833D02*
Y1760172D01*
Y1760631D02*
Y1761031D01*
Y1761742D02*
Y1762142D01*
Y1763770D02*
Y1764215D01*
X2064600Y1575649D02*
Y1576103D01*
Y1579020D02*
Y1579420D01*
Y1581909D02*
Y1582309D01*
Y1582515D02*
Y1582976D01*
Y1587131D02*
Y1587531D01*
Y1589169D02*
Y1589615D01*
Y1590131D02*
Y1590531D01*
Y1590870D02*
Y1591413D01*
Y1592231D02*
Y1592629D01*
Y1597631D02*
Y1598031D01*
Y1599669D02*
Y1600115D01*
Y1601798D02*
Y1602253D01*
Y1608242D02*
Y1608698D01*
Y1611877D02*
Y1612414D01*
Y1620414D02*
Y1620874D01*
Y1628575D02*
Y1628975D01*
Y1629314D02*
Y1629857D01*
Y1630675D02*
Y1631073D01*
Y1638743D02*
Y1639125D01*
Y1640186D02*
Y1640586D01*
Y1648242D02*
Y1648698D01*
Y1650252D02*
Y1650663D01*
Y1651999D02*
Y1652494D01*
Y1658242D02*
Y1658698D01*
Y1661406D02*
Y1661795D01*
Y1670321D02*
Y1670859D01*
Y1678242D02*
Y1678698D01*
Y1680767D02*
Y1681236D01*
Y1681486D02*
Y1682192D01*
Y1688242D02*
Y1688698D01*
Y1690610D02*
Y1691919D01*
Y1692131D02*
Y1692486D01*
Y1695038D02*
Y1695492D01*
Y1697110D02*
Y1697531D01*
Y1698242D02*
Y1698642D01*
Y1699290D02*
Y1699630D01*
Y1700131D02*
Y1700531D01*
Y1701242D02*
Y1701642D01*
Y1703280D02*
Y1703726D01*
Y1708414D02*
Y1708874D01*
Y1711298D02*
Y1711753D01*
Y1717298D02*
Y1717698D01*
Y1718305D02*
Y1718714D01*
Y1720989D02*
Y1721784D01*
Y1728131D02*
Y1728531D01*
Y1730989D02*
Y1731784D01*
Y1738414D02*
Y1738874D01*
Y1741470D02*
Y1741929D01*
Y1748414D02*
Y1748874D01*
Y1751698D02*
Y1752287D01*
Y1755538D02*
Y1755992D01*
Y1757610D02*
Y1758031D01*
Y1758742D02*
Y1759142D01*
Y1759790D02*
Y1760130D01*
Y1760631D02*
Y1761031D01*
Y1761742D02*
Y1762142D01*
Y1763780D02*
Y1764226D01*
X2064700Y1575635D02*
Y1576094D01*
Y1579020D02*
Y1579420D01*
Y1581909D02*
Y1582309D01*
Y1582440D02*
Y1582900D01*
Y1587131D02*
Y1587531D01*
Y1589179D02*
Y1589626D01*
Y1590131D02*
Y1590531D01*
Y1591005D02*
Y1591548D01*
Y1592240D02*
Y1592636D01*
Y1597631D02*
Y1598031D01*
Y1599679D02*
Y1600126D01*
Y1601798D02*
Y1602253D01*
Y1608242D02*
Y1608698D01*
Y1611706D02*
Y1612314D01*
Y1620513D02*
Y1620957D01*
Y1628575D02*
Y1628975D01*
Y1629449D02*
Y1629992D01*
Y1630684D02*
Y1631081D01*
Y1638806D02*
Y1639188D01*
Y1640186D02*
Y1640586D01*
Y1648242D02*
Y1648698D01*
Y1650262D02*
Y1650896D01*
Y1651866D02*
Y1652427D01*
Y1658242D02*
Y1658698D01*
Y1661454D02*
Y1661843D01*
Y1670151D02*
Y1670759D01*
Y1678242D02*
Y1678698D01*
Y1680892D02*
Y1682046D01*
Y1688242D02*
Y1688698D01*
Y1690460D02*
Y1692497D01*
Y1695024D02*
Y1695483D01*
Y1696409D02*
Y1697531D01*
Y1698242D02*
Y1698642D01*
Y1699248D02*
Y1699587D01*
Y1700131D02*
Y1700531D01*
Y1701242D02*
Y1701642D01*
Y1703290D02*
Y1703738D01*
Y1708513D02*
Y1708957D01*
Y1711298D02*
Y1711753D01*
Y1717298D02*
Y1718594D01*
Y1721053D02*
Y1721720D01*
Y1728131D02*
Y1728531D01*
Y1731053D02*
Y1731720D01*
Y1738513D02*
Y1738957D01*
Y1741568D02*
Y1742013D01*
Y1748513D02*
Y1748957D01*
Y1751284D02*
Y1752157D01*
Y1755524D02*
Y1755983D01*
Y1756909D02*
Y1758031D01*
Y1758742D02*
Y1759142D01*
Y1759748D02*
Y1760087D01*
Y1760631D02*
Y1761031D01*
Y1761742D02*
Y1762142D01*
Y1763790D02*
Y1764238D01*
X2064800Y1575641D02*
Y1576088D01*
Y1579020D02*
Y1579420D01*
Y1581909D02*
Y1582824D01*
Y1587131D02*
Y1587531D01*
Y1589186D02*
Y1589638D01*
Y1590134D02*
Y1590532D01*
Y1591140D02*
Y1591683D01*
Y1592242D02*
Y1592642D01*
Y1597631D02*
Y1598031D01*
Y1599686D02*
Y1600138D01*
Y1601798D02*
Y1602253D01*
Y1608242D02*
Y1608698D01*
Y1611306D02*
Y1612214D01*
Y1620593D02*
Y1621040D01*
Y1628579D02*
Y1628977D01*
Y1629584D02*
Y1630127D01*
Y1630686D02*
Y1631086D01*
Y1638869D02*
Y1639251D01*
Y1640186D02*
Y1640586D01*
Y1648242D02*
Y1648698D01*
Y1650272D02*
Y1651115D01*
Y1651633D02*
Y1652360D01*
Y1658242D02*
Y1658698D01*
Y1661502D02*
Y1661891D01*
Y1669751D02*
Y1670659D01*
Y1678242D02*
Y1678698D01*
Y1680961D02*
Y1681881D01*
Y1688242D02*
Y1688698D01*
Y1690388D02*
Y1690988D01*
Y1691794D02*
Y1692508D01*
Y1695029D02*
Y1695477D01*
Y1696409D02*
Y1697531D01*
Y1698242D02*
Y1698642D01*
Y1699205D02*
Y1699545D01*
Y1700131D02*
Y1700531D01*
Y1701242D02*
Y1701642D01*
Y1703298D02*
Y1703749D01*
Y1708593D02*
Y1709040D01*
Y1711298D02*
Y1711753D01*
Y1717298D02*
Y1718700D01*
Y1721116D02*
Y1721656D01*
Y1728131D02*
Y1728531D01*
Y1731116D02*
Y1731656D01*
Y1738593D02*
Y1739040D01*
Y1741648D02*
Y1742096D01*
Y1748593D02*
Y1749040D01*
Y1750798D02*
Y1751968D01*
Y1755529D02*
Y1755977D01*
Y1756909D02*
Y1758031D01*
Y1758742D02*
Y1759142D01*
Y1759705D02*
Y1760045D01*
Y1760631D02*
Y1761031D01*
Y1761742D02*
Y1762142D01*
Y1763798D02*
Y1764249D01*
X2064900Y1575653D02*
Y1576098D01*
Y1579020D02*
Y1579420D01*
Y1581909D02*
Y1582309D01*
Y1582427D02*
Y1582844D01*
Y1587131D02*
Y1587531D01*
Y1589186D02*
Y1589632D01*
Y1590150D02*
Y1590541D01*
Y1591275D02*
Y1591818D01*
Y1592242D02*
Y1592642D01*
Y1597631D02*
Y1598031D01*
Y1599686D02*
Y1600132D01*
Y1601798D02*
Y1602253D01*
Y1608242D02*
Y1608698D01*
Y1610464D02*
Y1612114D01*
Y1620673D02*
Y1621112D01*
Y1628594D02*
Y1628986D01*
Y1629719D02*
Y1630262D01*
Y1630686D02*
Y1631086D01*
Y1638931D02*
Y1639314D01*
Y1640186D02*
Y1640586D01*
Y1648242D02*
Y1648698D01*
Y1650282D02*
Y1650679D01*
Y1650705D02*
Y1652258D01*
Y1658242D02*
Y1658698D01*
Y1661551D02*
Y1661940D01*
Y1668909D02*
Y1670559D01*
Y1678242D02*
Y1678698D01*
Y1680846D02*
Y1681922D01*
Y1688242D02*
Y1688698D01*
Y1690321D02*
Y1690788D01*
Y1692015D02*
Y1692519D01*
Y1695042D02*
Y1695487D01*
Y1698242D02*
Y1698642D01*
Y1699163D02*
Y1699503D01*
Y1700131D02*
Y1700531D01*
Y1701242D02*
Y1701642D01*
Y1703298D02*
Y1703743D01*
Y1708673D02*
Y1709112D01*
Y1711298D02*
Y1711753D01*
Y1717298D02*
Y1718962D01*
Y1721101D02*
Y1721672D01*
Y1728131D02*
Y1728531D01*
Y1731101D02*
Y1731672D01*
Y1738673D02*
Y1739112D01*
Y1741728D02*
Y1742168D01*
Y1748673D02*
Y1749112D01*
Y1750798D02*
Y1751754D01*
Y1755542D02*
Y1755987D01*
Y1758742D02*
Y1759142D01*
Y1759663D02*
Y1760003D01*
Y1760631D02*
Y1761031D01*
Y1761742D02*
Y1762142D01*
Y1763798D02*
Y1764243D01*
X2065000Y1575666D02*
Y1576108D01*
Y1579020D02*
Y1579420D01*
Y1581909D02*
Y1582309D01*
Y1582504D02*
Y1582921D01*
Y1587131D02*
Y1587531D01*
Y1589186D02*
Y1589616D01*
Y1590165D02*
Y1590551D01*
Y1591410D02*
Y1591953D01*
Y1592242D02*
Y1592642D01*
Y1597631D02*
Y1598031D01*
Y1599686D02*
Y1600116D01*
Y1601798D02*
Y1602253D01*
Y1608242D02*
Y1608698D01*
Y1610464D02*
Y1611889D01*
Y1620744D02*
Y1621162D01*
Y1628610D02*
Y1628995D01*
Y1629854D02*
Y1630397D01*
Y1630686D02*
Y1631086D01*
Y1638994D02*
Y1639377D01*
Y1640186D02*
Y1640586D01*
Y1648242D02*
Y1648698D01*
Y1650292D02*
Y1650642D01*
Y1650939D02*
Y1652108D01*
Y1658242D02*
Y1658698D01*
Y1661599D02*
Y1661988D01*
Y1668909D02*
Y1670334D01*
Y1678242D02*
Y1678698D01*
Y1680721D02*
Y1681366D01*
Y1681560D02*
Y1682088D01*
Y1688242D02*
Y1688698D01*
Y1690255D02*
Y1690721D01*
Y1692131D02*
Y1692530D01*
Y1695054D02*
Y1695497D01*
Y1698242D02*
Y1698642D01*
Y1699120D02*
Y1699461D01*
Y1700131D02*
Y1700531D01*
Y1701242D02*
Y1701642D01*
Y1703298D02*
Y1703728D01*
Y1708744D02*
Y1709162D01*
Y1711298D02*
Y1711753D01*
Y1717298D02*
Y1717698D01*
Y1718372D02*
Y1719062D01*
Y1721040D02*
Y1721733D01*
Y1728131D02*
Y1728531D01*
Y1731040D02*
Y1731733D01*
Y1738744D02*
Y1739162D01*
Y1741800D02*
Y1742218D01*
Y1748744D02*
Y1749162D01*
Y1750798D02*
Y1751863D01*
Y1755554D02*
Y1755997D01*
Y1758742D02*
Y1759142D01*
Y1759620D02*
Y1759961D01*
Y1760631D02*
Y1761031D01*
Y1761742D02*
Y1762142D01*
Y1763798D02*
Y1764228D01*
X2065100Y1575678D02*
Y1576118D01*
Y1579020D02*
Y1579420D01*
Y1581909D02*
Y1582309D01*
Y1582581D02*
Y1582999D01*
Y1587131D02*
Y1587531D01*
Y1589186D02*
Y1589601D01*
Y1590180D02*
Y1590560D01*
Y1591545D02*
Y1592088D01*
Y1592242D02*
Y1592642D01*
Y1597631D02*
Y1598031D01*
Y1599686D02*
Y1600101D01*
Y1601798D02*
Y1602253D01*
Y1608242D02*
Y1608698D01*
Y1610464D02*
Y1611430D01*
Y1620784D02*
Y1621212D01*
Y1628625D02*
Y1629004D01*
Y1629989D02*
Y1630532D01*
Y1630686D02*
Y1631086D01*
Y1639057D02*
Y1639439D01*
Y1640186D02*
Y1640586D01*
Y1648242D02*
Y1648698D01*
Y1650309D02*
Y1650651D01*
Y1651398D02*
Y1651743D01*
Y1658242D02*
Y1658698D01*
Y1661647D02*
Y1662036D01*
Y1668909D02*
Y1669875D01*
Y1678242D02*
Y1678698D01*
Y1680592D02*
Y1681166D01*
Y1681727D02*
Y1682217D01*
Y1688242D02*
Y1688698D01*
Y1690230D02*
Y1690671D01*
Y1692131D02*
Y1692531D01*
Y1695067D02*
Y1695507D01*
Y1698242D02*
Y1698642D01*
Y1699078D02*
Y1699419D01*
Y1700131D02*
Y1700531D01*
Y1701242D02*
Y1701642D01*
Y1703298D02*
Y1703712D01*
Y1708784D02*
Y1709212D01*
Y1711298D02*
Y1711753D01*
Y1717298D02*
Y1717698D01*
Y1718607D02*
Y1719158D01*
Y1720979D02*
Y1721794D01*
Y1728131D02*
Y1728531D01*
Y1730979D02*
Y1731794D01*
Y1738784D02*
Y1739212D01*
Y1741840D02*
Y1742268D01*
Y1748784D02*
Y1749212D01*
Y1751552D02*
Y1751995D01*
Y1755567D02*
Y1756007D01*
Y1758742D02*
Y1759142D01*
Y1759578D02*
Y1759919D01*
Y1760631D02*
Y1761031D01*
Y1761742D02*
Y1762142D01*
Y1763798D02*
Y1764212D01*
X2065200Y1575692D02*
Y1576128D01*
Y1579020D02*
Y1579420D01*
Y1581909D02*
Y1582309D01*
Y1582657D02*
Y1583076D01*
Y1587131D02*
Y1587531D01*
Y1589182D02*
Y1589586D01*
Y1590196D02*
Y1590569D01*
Y1591680D02*
Y1592642D01*
Y1597631D02*
Y1598031D01*
Y1599682D02*
Y1600086D01*
Y1601798D02*
Y1602253D01*
Y1608242D02*
Y1608698D01*
Y1610464D02*
Y1610864D01*
Y1620824D02*
Y1621257D01*
Y1628640D02*
Y1629013D01*
Y1630124D02*
Y1631086D01*
Y1639120D02*
Y1639502D01*
Y1640186D02*
Y1640586D01*
Y1648242D02*
Y1648698D01*
Y1650334D02*
Y1650676D01*
Y1658242D02*
Y1658698D01*
Y1661695D02*
Y1662084D01*
Y1668909D02*
Y1669309D01*
Y1678242D02*
Y1678698D01*
Y1680458D02*
Y1681014D01*
Y1681848D02*
Y1682317D01*
Y1688242D02*
Y1688698D01*
Y1690218D02*
Y1690635D01*
Y1692131D02*
Y1692531D01*
Y1695081D02*
Y1695517D01*
Y1698242D02*
Y1698642D01*
Y1699035D02*
Y1699377D01*
Y1700131D02*
Y1700531D01*
Y1701242D02*
Y1701642D01*
Y1703293D02*
Y1703697D01*
Y1708824D02*
Y1709257D01*
Y1711298D02*
Y1711753D01*
Y1717298D02*
Y1717698D01*
Y1718737D02*
Y1719218D01*
Y1720917D02*
Y1721856D01*
Y1728131D02*
Y1728531D01*
Y1730917D02*
Y1731856D01*
Y1738824D02*
Y1739257D01*
Y1741880D02*
Y1742312D01*
Y1748824D02*
Y1749257D01*
Y1751735D02*
Y1752095D01*
Y1755581D02*
Y1756017D01*
Y1758742D02*
Y1759142D01*
Y1759535D02*
Y1759877D01*
Y1760631D02*
Y1761031D01*
Y1761742D02*
Y1762142D01*
Y1763793D02*
Y1764197D01*
X2065300Y1575709D02*
Y1576138D01*
Y1579020D02*
Y1579420D01*
Y1581909D02*
Y1582309D01*
Y1582734D02*
Y1583154D01*
Y1587131D02*
Y1587531D01*
Y1589162D02*
Y1589570D01*
Y1590211D02*
Y1590578D01*
Y1591815D02*
Y1592619D01*
Y1597631D02*
Y1598031D01*
Y1599662D02*
Y1600070D01*
Y1601798D02*
Y1602253D01*
Y1608242D02*
Y1608698D01*
Y1610464D02*
Y1610864D01*
Y1620853D02*
Y1621271D01*
Y1628656D02*
Y1629022D01*
Y1630259D02*
Y1631063D01*
Y1639182D02*
Y1639565D01*
Y1640186D02*
Y1640586D01*
Y1648242D02*
Y1648698D01*
Y1650359D02*
Y1650701D01*
Y1658242D02*
Y1658698D01*
Y1661743D02*
Y1662132D01*
Y1668909D02*
Y1669309D01*
Y1678242D02*
Y1678698D01*
Y1680416D02*
Y1680881D01*
Y1681948D02*
Y1682395D01*
Y1688242D02*
Y1688698D01*
Y1690205D02*
Y1690615D01*
Y1692131D02*
Y1692531D01*
Y1695098D02*
Y1695527D01*
Y1698242D02*
Y1698642D01*
Y1698995D02*
Y1699335D01*
Y1700131D02*
Y1700531D01*
Y1701242D02*
Y1701642D01*
Y1703273D02*
Y1703681D01*
Y1708853D02*
Y1709271D01*
Y1711298D02*
Y1711753D01*
Y1717298D02*
Y1717698D01*
Y1718837D02*
Y1719278D01*
Y1720856D02*
Y1721343D01*
Y1721484D02*
Y1721917D01*
Y1728131D02*
Y1728531D01*
Y1730856D02*
Y1731343D01*
Y1731484D02*
Y1731917D01*
Y1738853D02*
Y1739271D01*
Y1741909D02*
Y1742327D01*
Y1748853D02*
Y1749271D01*
Y1751801D02*
Y1752173D01*
Y1755598D02*
Y1756027D01*
Y1758742D02*
Y1759142D01*
Y1759495D02*
Y1759835D01*
Y1760631D02*
Y1761031D01*
Y1761742D02*
Y1762142D01*
Y1763773D02*
Y1764181D01*
X2065400Y1575725D02*
Y1576168D01*
Y1579020D02*
Y1579420D01*
Y1581909D02*
Y1582309D01*
Y1582811D02*
Y1583231D01*
Y1587131D02*
Y1587531D01*
Y1589142D02*
Y1589555D01*
Y1590227D02*
Y1590587D01*
Y1591950D02*
Y1592590D01*
Y1597631D02*
Y1598031D01*
Y1599642D02*
Y1600055D01*
Y1601798D02*
Y1602253D01*
Y1608242D02*
Y1608698D01*
Y1610464D02*
Y1610864D01*
Y1620853D02*
Y1621285D01*
Y1628671D02*
Y1629031D01*
Y1630394D02*
Y1631035D01*
Y1639245D02*
Y1639628D01*
Y1640186D02*
Y1640586D01*
Y1648242D02*
Y1648698D01*
Y1650384D02*
Y1650726D01*
Y1658242D02*
Y1658698D01*
Y1661792D02*
Y1662181D01*
Y1668909D02*
Y1669309D01*
Y1678242D02*
Y1678698D01*
Y1680376D02*
Y1680812D01*
Y1682016D02*
Y1682445D01*
Y1688242D02*
Y1688698D01*
Y1690193D02*
Y1690595D01*
Y1692117D02*
Y1692526D01*
Y1695114D02*
Y1695561D01*
Y1698242D02*
Y1698642D01*
Y1698957D02*
Y1699293D01*
Y1700131D02*
Y1700531D01*
Y1701242D02*
Y1701642D01*
Y1703253D02*
Y1703666D01*
Y1708853D02*
Y1709285D01*
Y1711298D02*
Y1711753D01*
Y1717298D02*
Y1717698D01*
Y1718867D02*
Y1719320D01*
Y1720795D02*
Y1721277D01*
Y1721545D02*
Y1721978D01*
Y1728131D02*
Y1728531D01*
Y1730795D02*
Y1731277D01*
Y1731545D02*
Y1731978D01*
Y1738853D02*
Y1739285D01*
Y1741909D02*
Y1742341D01*
Y1748853D02*
Y1749285D01*
Y1751856D02*
Y1752223D01*
Y1755614D02*
Y1756061D01*
Y1758742D02*
Y1759142D01*
Y1759457D02*
Y1759793D01*
Y1760631D02*
Y1761031D01*
Y1761742D02*
Y1762142D01*
Y1763753D02*
Y1764166D01*
X2065500Y1575747D02*
Y1576218D01*
Y1579020D02*
Y1579420D01*
Y1581909D02*
Y1582309D01*
Y1582887D02*
Y1583309D01*
Y1587131D02*
Y1587531D01*
Y1589109D02*
Y1589539D01*
Y1590244D02*
Y1590623D01*
Y1592085D02*
Y1592562D01*
Y1597631D02*
Y1598031D01*
Y1599609D02*
Y1600039D01*
Y1601798D02*
Y1602253D01*
Y1608242D02*
Y1608698D01*
Y1610464D02*
Y1610864D01*
Y1620853D02*
Y1621300D01*
Y1628688D02*
Y1629068D01*
Y1630529D02*
Y1631006D01*
Y1639308D02*
Y1639691D01*
Y1640186D02*
Y1640586D01*
Y1648242D02*
Y1648698D01*
Y1650413D02*
Y1650751D01*
Y1658242D02*
Y1658698D01*
Y1661840D02*
Y1662229D01*
Y1668909D02*
Y1669309D01*
Y1678242D02*
Y1678698D01*
Y1680344D02*
Y1680753D01*
Y1682076D02*
Y1682483D01*
Y1688242D02*
Y1688698D01*
Y1690201D02*
Y1690594D01*
Y1692092D02*
Y1692492D01*
Y1695138D02*
Y1695624D01*
Y1698242D02*
Y1698642D01*
Y1698918D02*
Y1699251D01*
Y1700131D02*
Y1700531D01*
Y1701242D02*
Y1701642D01*
Y1703220D02*
Y1703651D01*
Y1708853D02*
Y1709300D01*
Y1711298D02*
Y1711753D01*
Y1717298D02*
Y1717698D01*
Y1718887D02*
Y1719340D01*
Y1720733D02*
Y1721212D01*
Y1721606D02*
Y1722040D01*
Y1728131D02*
Y1728531D01*
Y1730733D02*
Y1731212D01*
Y1731606D02*
Y1732040D01*
Y1738853D02*
Y1739300D01*
Y1741909D02*
Y1742355D01*
Y1748853D02*
Y1749300D01*
Y1751876D02*
Y1752262D01*
Y1755638D02*
Y1756124D01*
Y1758742D02*
Y1759142D01*
Y1759418D02*
Y1759751D01*
Y1760631D02*
Y1761031D01*
Y1761742D02*
Y1762142D01*
Y1763720D02*
Y1764151D01*
X2065600Y1575801D02*
Y1576268D01*
Y1579020D02*
Y1579420D01*
Y1581909D02*
Y1582309D01*
Y1582964D02*
Y1583386D01*
Y1587131D02*
Y1587531D01*
Y1589052D02*
Y1589515D01*
Y1590280D02*
Y1590661D01*
Y1592119D02*
Y1592533D01*
Y1597631D02*
Y1598031D01*
Y1599552D02*
Y1600015D01*
Y1601798D02*
Y1602253D01*
Y1608242D02*
Y1608698D01*
Y1610464D02*
Y1610864D01*
Y1620845D02*
Y1621303D01*
Y1628725D02*
Y1629105D01*
Y1630563D02*
Y1630978D01*
Y1639371D02*
Y1639754D01*
Y1640186D02*
Y1640586D01*
Y1648242D02*
Y1648698D01*
Y1650463D02*
Y1650800D01*
Y1658242D02*
Y1658698D01*
Y1661888D02*
Y1662277D01*
Y1668909D02*
Y1669309D01*
Y1678242D02*
Y1678698D01*
Y1680324D02*
Y1680728D01*
Y1682101D02*
Y1682500D01*
Y1688242D02*
Y1688698D01*
Y1690226D02*
Y1690611D01*
Y1692062D02*
Y1692459D01*
Y1695201D02*
Y1695686D01*
Y1698242D02*
Y1698642D01*
Y1698880D02*
Y1699208D01*
Y1700131D02*
Y1700531D01*
Y1701242D02*
Y1701642D01*
Y1703163D02*
Y1703626D01*
Y1708845D02*
Y1709303D01*
Y1711298D02*
Y1711753D01*
Y1717298D02*
Y1717698D01*
Y1718907D02*
Y1719360D01*
Y1720672D02*
Y1721147D01*
Y1721667D02*
Y1722101D01*
Y1728131D02*
Y1728531D01*
Y1730672D02*
Y1731147D01*
Y1731667D02*
Y1732101D01*
Y1738845D02*
Y1739303D01*
Y1741900D02*
Y1742359D01*
Y1748845D02*
Y1749303D01*
Y1751896D02*
Y1752282D01*
Y1755701D02*
Y1756186D01*
Y1758742D02*
Y1759142D01*
Y1759380D02*
Y1759708D01*
Y1760631D02*
Y1761031D01*
Y1761742D02*
Y1762142D01*
Y1763663D02*
Y1764126D01*
X2065700Y1575856D02*
Y1576318D01*
Y1579020D02*
Y1579420D01*
Y1581909D02*
Y1582309D01*
Y1583041D02*
Y1583463D01*
Y1587131D02*
Y1587531D01*
Y1588995D02*
Y1589481D01*
Y1590317D02*
Y1590698D01*
Y1592079D02*
Y1592493D01*
Y1597631D02*
Y1598031D01*
Y1599495D02*
Y1599981D01*
Y1600908D02*
Y1601035D01*
Y1601798D02*
Y1602253D01*
Y1607353D02*
Y1607479D01*
Y1608242D02*
Y1608698D01*
Y1610464D02*
Y1610864D01*
Y1620820D02*
Y1621291D01*
Y1628761D02*
Y1629143D01*
Y1630523D02*
Y1630938D01*
Y1639434D02*
Y1639817D01*
Y1640186D02*
Y1640586D01*
Y1647353D02*
Y1647479D01*
Y1648242D02*
Y1648698D01*
Y1650513D02*
Y1650858D01*
Y1657353D02*
Y1657479D01*
Y1658242D02*
Y1658698D01*
Y1661936D02*
Y1662325D01*
Y1668909D02*
Y1669309D01*
Y1677353D02*
Y1677479D01*
Y1678242D02*
Y1678698D01*
Y1680304D02*
Y1680703D01*
Y1682126D02*
Y1682517D01*
Y1687353D02*
Y1687479D01*
Y1688242D02*
Y1688698D01*
Y1690251D02*
Y1690628D01*
Y1692020D02*
Y1692426D01*
Y1695265D02*
Y1695749D01*
Y1698242D02*
Y1698642D01*
Y1698841D02*
Y1699166D01*
Y1700131D02*
Y1700531D01*
Y1701242D02*
Y1701642D01*
Y1703106D02*
Y1703592D01*
Y1708820D02*
Y1709291D01*
Y1710408D02*
Y1710535D01*
Y1711298D02*
Y1711753D01*
Y1717298D02*
Y1717698D01*
Y1718889D02*
Y1719352D01*
Y1720611D02*
Y1721082D01*
Y1721727D02*
Y1722162D01*
Y1728131D02*
Y1728531D01*
Y1730611D02*
Y1731082D01*
Y1731727D02*
Y1732162D01*
Y1738820D02*
Y1739291D01*
Y1741875D02*
Y1742346D01*
Y1748820D02*
Y1749291D01*
Y1751903D02*
Y1752302D01*
Y1755765D02*
Y1756249D01*
Y1758742D02*
Y1759142D01*
Y1759341D02*
Y1759666D01*
Y1760631D02*
Y1761031D01*
Y1761742D02*
Y1762142D01*
Y1763606D02*
Y1764092D01*
X2065800Y1575910D02*
Y1576368D01*
Y1579020D02*
Y1579420D01*
Y1581909D02*
Y1582309D01*
Y1583117D02*
Y1583541D01*
Y1587131D02*
Y1587531D01*
Y1588938D02*
Y1589448D01*
Y1590353D02*
Y1590736D01*
Y1592039D02*
Y1592453D01*
Y1597631D02*
Y1598031D01*
Y1599438D02*
Y1599948D01*
Y1600866D02*
Y1601185D01*
Y1601798D02*
Y1602253D01*
Y1607310D02*
Y1607629D01*
Y1608242D02*
Y1608698D01*
Y1610464D02*
Y1610864D01*
Y1620794D02*
Y1621278D01*
Y1628797D02*
Y1629180D01*
Y1630483D02*
Y1630898D01*
Y1639496D02*
Y1639879D01*
Y1640186D02*
Y1640586D01*
Y1647310D02*
Y1647629D01*
Y1648242D02*
Y1648698D01*
Y1650563D02*
Y1650915D01*
Y1657310D02*
Y1657629D01*
Y1658242D02*
Y1658698D01*
Y1661985D02*
Y1662374D01*
Y1668909D02*
Y1669309D01*
Y1677310D02*
Y1677629D01*
Y1678242D02*
Y1678698D01*
Y1680311D02*
Y1680715D01*
Y1682114D02*
Y1682527D01*
Y1687310D02*
Y1687629D01*
Y1688242D02*
Y1688698D01*
Y1690276D02*
Y1690646D01*
Y1691977D02*
Y1692386D01*
Y1695329D02*
Y1695811D01*
Y1698242D02*
Y1698642D01*
Y1698803D02*
Y1699124D01*
Y1700131D02*
Y1700531D01*
Y1701242D02*
Y1701642D01*
Y1703049D02*
Y1703559D01*
Y1708794D02*
Y1709278D01*
Y1710366D02*
Y1710685D01*
Y1711298D02*
Y1711753D01*
Y1717298D02*
Y1717698D01*
Y1718864D02*
Y1719337D01*
Y1720550D02*
Y1721017D01*
Y1721788D02*
Y1722223D01*
Y1728131D02*
Y1728531D01*
Y1730550D02*
Y1731017D01*
Y1731788D02*
Y1732223D01*
Y1738794D02*
Y1739278D01*
Y1741850D02*
Y1742334D01*
Y1748794D02*
Y1749278D01*
Y1751878D02*
Y1752298D01*
Y1755829D02*
Y1756311D01*
Y1758742D02*
Y1759142D01*
Y1759303D02*
Y1759624D01*
Y1760631D02*
Y1761031D01*
Y1761742D02*
Y1762142D01*
Y1763549D02*
Y1764059D01*
X2065900Y1575965D02*
Y1576478D01*
Y1579020D02*
Y1579420D01*
Y1581909D02*
Y1582309D01*
Y1583194D02*
Y1583618D01*
Y1587131D02*
Y1587531D01*
Y1588862D02*
Y1589402D01*
Y1590389D02*
Y1590795D01*
Y1591994D02*
Y1592413D01*
Y1597631D02*
Y1598031D01*
Y1599362D02*
Y1599902D01*
Y1600823D02*
Y1601335D01*
Y1601798D02*
Y1602253D01*
Y1607267D02*
Y1607779D01*
Y1608242D02*
Y1608698D01*
Y1610464D02*
Y1610864D01*
Y1619436D02*
Y1619534D01*
Y1620744D02*
Y1621266D01*
Y1628834D02*
Y1629240D01*
Y1630439D02*
Y1630858D01*
Y1639559D02*
Y1639942D01*
Y1640186D02*
Y1640586D01*
Y1647267D02*
Y1647779D01*
Y1648242D02*
Y1648698D01*
Y1650613D02*
Y1650972D01*
Y1657267D02*
Y1657779D01*
Y1658242D02*
Y1658698D01*
Y1662033D02*
Y1662422D01*
Y1668909D02*
Y1669309D01*
Y1677267D02*
Y1677779D01*
Y1678242D02*
Y1678698D01*
Y1680327D02*
Y1680740D01*
Y1682089D02*
Y1682511D01*
Y1687267D02*
Y1687779D01*
Y1688242D02*
Y1688698D01*
Y1690309D02*
Y1690718D01*
Y1691934D02*
Y1692346D01*
Y1695392D02*
Y1695923D01*
Y1698242D02*
Y1698642D01*
Y1698764D02*
Y1699082D01*
Y1700131D02*
Y1700531D01*
Y1701242D02*
Y1701642D01*
Y1702973D02*
Y1703513D01*
Y1707436D02*
Y1707534D01*
Y1708744D02*
Y1709266D01*
Y1710323D02*
Y1710835D01*
Y1711298D02*
Y1711753D01*
Y1717298D02*
Y1717698D01*
Y1718821D02*
Y1719323D01*
Y1720488D02*
Y1720951D01*
Y1721849D02*
Y1722285D01*
Y1728131D02*
Y1728531D01*
Y1730488D02*
Y1730951D01*
Y1731849D02*
Y1732285D01*
Y1737436D02*
Y1737534D01*
Y1738744D02*
Y1739266D01*
Y1740492D02*
Y1740589D01*
Y1741800D02*
Y1742321D01*
Y1747436D02*
Y1747534D01*
Y1748744D02*
Y1749266D01*
Y1751853D02*
Y1752283D01*
Y1755892D02*
Y1756423D01*
Y1758742D02*
Y1759142D01*
Y1759264D02*
Y1759582D01*
Y1760631D02*
Y1761031D01*
Y1761742D02*
Y1762142D01*
Y1763473D02*
Y1764013D01*
X2066000Y1576020D02*
Y1576598D01*
Y1579020D02*
Y1579420D01*
Y1581909D02*
Y1582309D01*
Y1583271D02*
Y1583696D01*
Y1587131D02*
Y1587531D01*
Y1588742D02*
Y1589327D01*
Y1590426D02*
Y1590895D01*
Y1591944D02*
Y1592373D01*
Y1597631D02*
Y1598031D01*
Y1599242D02*
Y1599827D01*
Y1600945D02*
Y1601485D01*
Y1601798D02*
Y1602253D01*
Y1607390D02*
Y1607929D01*
Y1608242D02*
Y1608698D01*
Y1610464D02*
Y1610864D01*
Y1619353D02*
Y1619654D01*
Y1620694D02*
Y1621246D01*
Y1628870D02*
Y1629340D01*
Y1630389D02*
Y1630818D01*
Y1639622D02*
Y1640005D01*
Y1640186D02*
Y1640586D01*
Y1647390D02*
Y1647929D01*
Y1648242D02*
Y1648698D01*
Y1650703D02*
Y1651112D01*
Y1657390D02*
Y1657929D01*
Y1658242D02*
Y1658698D01*
Y1662081D02*
Y1662470D01*
Y1668909D02*
Y1669309D01*
Y1677390D02*
Y1677929D01*
Y1678242D02*
Y1678698D01*
Y1680344D02*
Y1680777D01*
Y1682051D02*
Y1682494D01*
Y1687390D02*
Y1687929D01*
Y1688242D02*
Y1688698D01*
Y1690366D02*
Y1690793D01*
Y1691878D02*
Y1692305D01*
Y1695456D02*
Y1696043D01*
Y1698242D02*
Y1699040D01*
Y1700131D02*
Y1700531D01*
Y1701242D02*
Y1701642D01*
Y1702853D02*
Y1703438D01*
Y1707353D02*
Y1707654D01*
Y1708694D02*
Y1709246D01*
Y1710445D02*
Y1710985D01*
Y1711298D02*
Y1711753D01*
Y1717298D02*
Y1717698D01*
Y1718755D02*
Y1719298D01*
Y1720427D02*
Y1720886D01*
Y1721910D02*
Y1722346D01*
Y1728131D02*
Y1728531D01*
Y1730427D02*
Y1730886D01*
Y1731910D02*
Y1732346D01*
Y1737353D02*
Y1737654D01*
Y1738694D02*
Y1739246D01*
Y1740409D02*
Y1740709D01*
Y1741750D02*
Y1742301D01*
Y1747353D02*
Y1747654D01*
Y1748694D02*
Y1749246D01*
Y1751805D02*
Y1752269D01*
Y1755956D02*
Y1756543D01*
Y1758742D02*
Y1759540D01*
Y1760631D02*
Y1761031D01*
Y1761742D02*
Y1762142D01*
Y1763353D02*
Y1763938D01*
X2066100Y1576087D02*
Y1576718D01*
Y1577799D02*
Y1577975D01*
Y1579020D02*
Y1579420D01*
Y1581909D02*
Y1582309D01*
Y1583347D02*
Y1583773D01*
Y1587131D02*
Y1587531D01*
Y1588622D02*
Y1589231D01*
Y1590473D02*
Y1590995D01*
Y1591888D02*
Y1592333D01*
Y1597631D02*
Y1598031D01*
Y1599122D02*
Y1599731D01*
Y1601127D02*
Y1601635D01*
Y1601798D02*
Y1602253D01*
Y1607571D02*
Y1608079D01*
Y1608242D02*
Y1608698D01*
Y1610464D02*
Y1610864D01*
Y1619270D02*
Y1619774D01*
Y1620583D02*
Y1621179D01*
Y1628917D02*
Y1629440D01*
Y1630332D02*
Y1630778D01*
Y1639685D02*
Y1640068D01*
Y1640186D02*
Y1640586D01*
Y1647571D02*
Y1648079D01*
Y1648242D02*
Y1648698D01*
Y1650803D02*
Y1651287D01*
Y1657571D02*
Y1658079D01*
Y1658242D02*
Y1658698D01*
Y1662129D02*
Y1662518D01*
Y1668909D02*
Y1669309D01*
Y1677571D02*
Y1678079D01*
Y1678242D02*
Y1678698D01*
Y1680400D02*
Y1680844D01*
Y1681984D02*
Y1682473D01*
Y1687571D02*
Y1688079D01*
Y1688242D02*
Y1688698D01*
Y1690424D02*
Y1690903D01*
Y1691778D02*
Y1692255D01*
Y1695525D02*
Y1696163D01*
Y1697354D02*
Y1697531D01*
Y1698242D02*
Y1698998D01*
Y1700131D02*
Y1700531D01*
Y1701242D02*
Y1701642D01*
Y1702733D02*
Y1703342D01*
Y1707270D02*
Y1707774D01*
Y1708583D02*
Y1709179D01*
Y1710627D02*
Y1711135D01*
Y1711298D02*
Y1711753D01*
Y1717298D02*
Y1717698D01*
Y1718612D02*
Y1719218D01*
Y1720366D02*
Y1720821D01*
Y1721971D02*
Y1722407D01*
Y1728131D02*
Y1728531D01*
Y1730366D02*
Y1730821D01*
Y1731971D02*
Y1732407D01*
Y1737270D02*
Y1737774D01*
Y1738583D02*
Y1739179D01*
Y1740325D02*
Y1740829D01*
Y1741638D02*
Y1742235D01*
Y1747270D02*
Y1747774D01*
Y1748583D02*
Y1749179D01*
Y1751755D02*
Y1752251D01*
Y1756025D02*
Y1756663D01*
Y1757854D02*
Y1758031D01*
Y1758742D02*
Y1759498D01*
Y1760631D02*
Y1761031D01*
Y1761742D02*
Y1762142D01*
Y1763233D02*
Y1763842D01*
X2066200Y1576216D02*
Y1577103D01*
Y1577360D02*
Y1577975D01*
Y1579020D02*
Y1579420D01*
Y1581909D02*
Y1582309D01*
Y1583424D02*
Y1583850D01*
Y1587131D02*
Y1587540D01*
Y1588178D02*
Y1589064D01*
Y1590587D02*
Y1591178D01*
Y1591689D02*
Y1592236D01*
Y1597631D02*
Y1598040D01*
Y1598678D02*
Y1599564D01*
Y1601309D02*
Y1602253D01*
Y1607753D02*
Y1608698D01*
Y1610464D02*
Y1610874D01*
Y1619389D02*
Y1620113D01*
Y1620300D02*
Y1621112D01*
Y1629032D02*
Y1629622D01*
Y1630134D02*
Y1630681D01*
Y1639748D02*
Y1640586D01*
Y1647753D02*
Y1648698D01*
Y1650903D02*
Y1651761D01*
Y1657753D02*
Y1658698D01*
Y1660242D02*
Y1662531D01*
Y1668909D02*
Y1669318D01*
Y1677753D02*
Y1678698D01*
Y1680480D02*
Y1681048D01*
Y1681781D02*
Y1682393D01*
Y1687753D02*
Y1688698D01*
Y1690481D02*
Y1691037D01*
Y1691678D02*
Y1692198D01*
Y1695625D02*
Y1696594D01*
Y1696880D02*
Y1697531D01*
Y1698242D02*
Y1698956D01*
Y1700131D02*
Y1700531D01*
Y1701242D02*
Y1701652D01*
Y1702289D02*
Y1703175D01*
Y1707389D02*
Y1708113D01*
Y1708300D02*
Y1709112D01*
Y1710809D02*
Y1711753D01*
Y1717298D02*
Y1717707D01*
Y1718300D02*
Y1719138D01*
Y1720304D02*
Y1720756D01*
Y1722032D02*
Y1722469D01*
Y1728121D02*
Y1728540D01*
Y1730304D02*
Y1730756D01*
Y1732032D02*
Y1732469D01*
Y1737389D02*
Y1738113D01*
Y1738300D02*
Y1739112D01*
Y1740444D02*
Y1741168D01*
Y1741356D02*
Y1742168D01*
Y1747389D02*
Y1748113D01*
Y1748300D02*
Y1749112D01*
Y1750464D02*
Y1750724D01*
Y1751558D02*
Y1752171D01*
Y1756125D02*
Y1757094D01*
Y1757380D02*
Y1758031D01*
Y1758742D02*
Y1759456D01*
Y1760631D02*
Y1761031D01*
Y1761742D02*
Y1762152D01*
Y1762789D02*
Y1763675D01*
X2066300Y1576345D02*
Y1577975D01*
Y1579020D02*
Y1579420D01*
Y1581909D02*
Y1582309D01*
Y1583501D02*
Y1583928D01*
Y1587131D02*
Y1588898D01*
Y1590702D02*
Y1592103D01*
Y1597631D02*
Y1599398D01*
Y1601491D02*
Y1602253D01*
Y1607935D02*
Y1608698D01*
Y1610464D02*
Y1612309D01*
Y1619522D02*
Y1621045D01*
Y1629146D02*
Y1630547D01*
Y1639810D02*
Y1640586D01*
Y1647935D02*
Y1648698D01*
Y1651063D02*
Y1652309D01*
Y1657935D02*
Y1658698D01*
Y1660242D02*
Y1662531D01*
Y1668909D02*
Y1670753D01*
Y1677935D02*
Y1678698D01*
Y1680561D02*
Y1682313D01*
Y1687935D02*
Y1688698D01*
Y1690603D02*
Y1692058D01*
Y1695727D02*
Y1697531D01*
Y1698242D02*
Y1698914D01*
Y1700131D02*
Y1700531D01*
Y1701242D02*
Y1703009D01*
Y1707522D02*
Y1709045D01*
Y1710991D02*
Y1711753D01*
Y1717298D02*
Y1719004D01*
Y1720243D02*
Y1720690D01*
Y1722093D02*
Y1722530D01*
Y1727075D02*
Y1729586D01*
Y1730243D02*
Y1730690D01*
Y1732093D02*
Y1732530D01*
Y1737522D02*
Y1739045D01*
Y1740578D02*
Y1742101D01*
Y1747522D02*
Y1749045D01*
Y1750464D02*
Y1752091D01*
Y1756227D02*
Y1758031D01*
Y1758742D02*
Y1759414D01*
Y1760631D02*
Y1761031D01*
Y1761742D02*
Y1763509D01*
X2066400Y1576473D02*
Y1577975D01*
Y1579020D02*
Y1579420D01*
Y1581909D02*
Y1582309D01*
Y1583577D02*
Y1584005D01*
Y1587131D02*
Y1588731D01*
Y1590816D02*
Y1591970D01*
Y1597631D02*
Y1599231D01*
Y1601672D02*
Y1602253D01*
Y1608117D02*
Y1608698D01*
Y1610464D02*
Y1612309D01*
Y1619655D02*
Y1620870D01*
Y1629260D02*
Y1630414D01*
Y1639873D02*
Y1640586D01*
Y1648117D02*
Y1648698D01*
Y1651263D02*
Y1652309D01*
Y1658117D02*
Y1658698D01*
Y1660242D02*
Y1662531D01*
Y1668909D02*
Y1670753D01*
Y1678117D02*
Y1678698D01*
Y1680736D02*
Y1682159D01*
Y1688117D02*
Y1688698D01*
Y1690778D02*
Y1691918D01*
Y1695894D02*
Y1697531D01*
Y1698242D02*
Y1698872D01*
Y1700131D02*
Y1700531D01*
Y1701242D02*
Y1702842D01*
Y1707655D02*
Y1708870D01*
Y1711172D02*
Y1711753D01*
Y1717298D02*
Y1718829D01*
Y1720182D02*
Y1720625D01*
Y1722153D02*
Y1722591D01*
Y1727075D02*
Y1729586D01*
Y1730182D02*
Y1730625D01*
Y1732153D02*
Y1732591D01*
Y1737655D02*
Y1738870D01*
Y1740711D02*
Y1741926D01*
Y1747655D02*
Y1748870D01*
Y1750464D02*
Y1751937D01*
Y1756394D02*
Y1758031D01*
Y1758742D02*
Y1759372D01*
Y1760631D02*
Y1761031D01*
Y1761742D02*
Y1763342D01*
X2066500Y1576761D02*
Y1577663D01*
Y1579020D02*
Y1579420D01*
Y1581909D02*
Y1582309D01*
Y1583654D02*
Y1584083D01*
Y1587131D02*
Y1588083D01*
Y1591049D02*
Y1591701D01*
Y1597631D02*
Y1598583D01*
Y1601854D02*
Y1602253D01*
Y1608299D02*
Y1608698D01*
Y1610464D02*
Y1612309D01*
Y1619949D02*
Y1620695D01*
Y1629494D02*
Y1630146D01*
Y1639936D02*
Y1640586D01*
Y1648299D02*
Y1648698D01*
Y1651914D02*
Y1652309D01*
Y1658299D02*
Y1658698D01*
Y1660242D02*
Y1662531D01*
Y1668909D02*
Y1670753D01*
Y1678299D02*
Y1678698D01*
Y1680911D02*
Y1681926D01*
Y1688299D02*
Y1688698D01*
Y1691071D02*
Y1691646D01*
Y1696250D02*
Y1697168D01*
Y1698242D02*
Y1698830D01*
Y1700131D02*
Y1700531D01*
Y1701242D02*
Y1702194D01*
Y1707949D02*
Y1708695D01*
Y1711354D02*
Y1711753D01*
Y1717298D02*
Y1718284D01*
Y1720120D02*
Y1720560D01*
Y1722214D02*
Y1722652D01*
Y1727075D02*
Y1729586D01*
Y1730120D02*
Y1730560D01*
Y1732214D02*
Y1732652D01*
Y1737949D02*
Y1738695D01*
Y1741005D02*
Y1741751D01*
Y1747949D02*
Y1748695D01*
Y1750783D02*
Y1751704D01*
Y1756750D02*
Y1757668D01*
Y1758742D02*
Y1759330D01*
Y1760631D02*
Y1761031D01*
Y1761742D02*
Y1762694D01*
*
G04 PC Custom Flashes*
G04 Layer Name ESP32_DevKitc_V4-201712 - flashes*
%LPD*%
*
*
G04 PC Circuitry*
G04 Layer Name ESP32_DevKitc_V4-201712 - circuitry*
%LPD*%
*
G54D10*
X1971504Y1574803D02*
X1971507D01*
X1971004Y1764803D02*
X1971007D01*
X1968504Y1576803D02*
X1968507D01*
X2078504Y1579303D02*
X2078507D01*
G54D24*
X1972441Y1764803D02*
G75*
G03X1968504Y1760866I-0J-3937D01*
G01X1972441Y1764803D02*
X2074567D01*
X2078504Y1760866D02*
G03X2074567Y1764803I-3937J0D01*
G01X2078504Y1760866D02*
Y1578740D01*
X2074567Y1574803D02*
G03X2078504Y1578740I-0J3937D01*
G01X2074567Y1574803D02*
X1972441D01*
X1968504Y1578740D02*
G03X1972441Y1574803I3937J0D01*
G01X1968504Y1578740D02*
Y1760866D01*
X1943004Y1574803D02*
Y1664928D01*
Y1574803D02*
X1942004Y1579803D01*
X1944004*
X1943004Y1574803*
Y1764803D02*
Y1674678D01*
Y1764803D02*
X1944004Y1759803D01*
X1942004*
X1943004Y1764803*
X1969504Y1574803D02*
X1941004D01*
X1969004Y1764803D02*
X1941004D01*
X1936299Y1671209D02*
X1935163Y1669022D01*
X1936868*
X1936299Y1671209D02*
Y1667928D01*
X1938458Y1671209D02*
X1938118Y1671053D01*
X1938004Y1670741*
Y1670428*
X1938118Y1670116*
X1938345Y1669959*
X1938799Y1669803*
X1939140Y1669647*
X1939368Y1669334*
X1939481Y1669022*
Y1668553*
X1939368Y1668241*
X1939254Y1668084*
X1938913Y1667928*
X1938458*
X1938118Y1668084*
X1938004Y1668241*
X1937890Y1668553*
Y1669022*
X1938004Y1669334*
X1938231Y1669647*
X1938572Y1669803*
X1939027Y1669959*
X1939254Y1670116*
X1939368Y1670428*
Y1670741*
X1939254Y1671053*
X1938913Y1671209*
X1938458*
X1940618Y1668241D02*
X1940504Y1668084D01*
X1940618Y1667928*
X1940731Y1668084*
X1940618Y1668241*
X1941868Y1670428D02*
Y1670584D01*
X1941981Y1670897*
X1942095Y1671053*
X1942322Y1671209*
X1942777*
X1943004Y1671053*
X1943118Y1670897*
X1943231Y1670584*
Y1670272*
X1943118Y1669959*
X1942890Y1669491*
X1941754Y1667928*
X1943345*
X1944368Y1670116D02*
Y1667928D01*
Y1669491D02*
X1944708Y1669959D01*
X1944936Y1670116*
X1945277*
X1945504Y1669959*
X1945618Y1669491*
Y1667928*
Y1669491D02*
X1945958Y1669959D01*
X1946186Y1670116*
X1946527*
X1946754Y1669959*
X1946868Y1669491*
Y1667928*
X1947890Y1670116D02*
Y1667928D01*
Y1669491D02*
X1948231Y1669959D01*
X1948458Y1670116*
X1948799*
X1949027Y1669959*
X1949140Y1669491*
Y1667928*
Y1669491D02*
X1949481Y1669959D01*
X1949708Y1670116*
X1950049*
X1950277Y1669959*
X1950390Y1669491*
Y1667928*
X1968504Y1555803D02*
X2012777D01*
X1968504D02*
X1973504Y1556803D01*
Y1554803*
X1968504Y1555803*
X2078504D02*
X2034231D01*
X2078504D02*
X2073504Y1554803D01*
Y1556803*
X2078504Y1555803*
X1968504Y1574803D02*
Y1553803D01*
X2078504Y1577303D02*
Y1553803D01*
X2015890Y1556428D02*
Y1556584D01*
X2016004Y1556897*
X2016118Y1557053*
X2016345Y1557209*
X2016799*
X2017027Y1557053*
X2017140Y1556897*
X2017254Y1556584*
Y1556272*
X2017140Y1555959*
X2016913Y1555491*
X2015777Y1553928*
X2017368*
X2019981Y1557209D02*
X2018845Y1553928D01*
X2018390Y1557209D02*
X2019981D01*
X2021118Y1554241D02*
X2021004Y1554084D01*
X2021118Y1553928*
X2021231Y1554084*
X2021118Y1554241*
X2023731Y1556116D02*
X2023618Y1555647D01*
X2023390Y1555334*
X2023049Y1555178*
X2022936*
X2022595Y1555334*
X2022368Y1555647*
X2022254Y1556116*
Y1556272*
X2022368Y1556741*
X2022595Y1557053*
X2022936Y1557209*
X2023049*
X2023390Y1557053*
X2023618Y1556741*
X2023731Y1556116*
Y1555334*
X2023618Y1554553*
X2023390Y1554084*
X2023049Y1553928*
X2022822*
X2022481Y1554084*
X2022368Y1554397*
X2024754Y1556116D02*
Y1553928D01*
Y1555491D02*
X2025095Y1555959D01*
X2025322Y1556116*
X2025663*
X2025890Y1555959*
X2026004Y1555491*
Y1553928*
Y1555491D02*
X2026345Y1555959D01*
X2026572Y1556116*
X2026913*
X2027140Y1555959*
X2027254Y1555491*
Y1553928*
X2028277Y1556116D02*
Y1553928D01*
Y1555491D02*
X2028618Y1555959D01*
X2028845Y1556116*
X2029186*
X2029413Y1555959*
X2029527Y1555491*
Y1553928*
Y1555491D02*
X2029868Y1555959D01*
X2030095Y1556116*
X2030436*
X2030663Y1555959*
X2030777Y1555491*
Y1553928*
G74*
X0Y0D02*
M02*
