G04 #@! TF.GenerationSoftware,KiCad,Pcbnew,5.99.0-unknown-38f13ef~100~ubuntu18.04.1*
G04 #@! TF.CreationDate,2020-01-22T11:40:01-08:00*
G04 #@! TF.ProjectId,board_esp32,626f6172-645f-4657-9370-33322e6b6963,rev?*
G04 #@! TF.SameCoordinates,Original*
G04 #@! TF.FileFunction,Copper,L2,Bot*
G04 #@! TF.FilePolarity,Positive*
%FSLAX46Y46*%
G04 Gerber Fmt 4.6, Leading zero omitted, Abs format (unit mm)*
G04 Created by KiCad (PCBNEW 5.99.0-unknown-38f13ef~100~ubuntu18.04.1) date 2020-01-22 11:40:01*
%MOMM*%
%LPD*%
G04 APERTURE LIST*
%ADD10R,1.500000X1.500000*%
%ADD11O,1.700000X1.700000*%
%ADD12R,1.700000X1.700000*%
%ADD13O,1.900000X1.050000*%
%ADD14C,0.800000*%
%ADD15C,0.250000*%
%ADD16C,0.500000*%
%ADD17C,0.254000*%
G04 APERTURE END LIST*
G36*
X28300000Y-82250000D02*
G01*
X27700000Y-82250000D01*
X27700000Y-81750000D01*
X28300000Y-81750000D01*
X28300000Y-82250000D01*
G37*
G36*
X23300000Y-82250000D02*
G01*
X22700000Y-82250000D01*
X22700000Y-81750000D01*
X23300000Y-81750000D01*
X23300000Y-82250000D01*
G37*
G36*
X27300000Y-68250000D02*
G01*
X26700000Y-68250000D01*
X26700000Y-67750000D01*
X27300000Y-67750000D01*
X27300000Y-68250000D01*
G37*
G36*
X20300000Y-82250000D02*
G01*
X19700000Y-82250000D01*
X19700000Y-81750000D01*
X20300000Y-81750000D01*
X20300000Y-82250000D01*
G37*
G36*
X29300000Y-29750000D02*
G01*
X28700000Y-29750000D01*
X28700000Y-29250000D01*
X29300000Y-29250000D01*
X29300000Y-29750000D01*
G37*
G36*
X26300000Y-29750000D02*
G01*
X25700000Y-29750000D01*
X25700000Y-29250000D01*
X26300000Y-29250000D01*
X26300000Y-29750000D01*
G37*
G36*
X27300000Y-15900000D02*
G01*
X26700000Y-15900000D01*
X26700000Y-15400000D01*
X27300000Y-15400000D01*
X27300000Y-15900000D01*
G37*
G36*
X23300000Y-29750000D02*
G01*
X22700000Y-29750000D01*
X22700000Y-29250000D01*
X23300000Y-29250000D01*
X23300000Y-29750000D01*
G37*
G36*
X37300000Y-82250000D02*
G01*
X36700000Y-82250000D01*
X36700000Y-81750000D01*
X37300000Y-81750000D01*
X37300000Y-82250000D01*
G37*
G36*
X34300000Y-82250000D02*
G01*
X33700000Y-82250000D01*
X33700000Y-81750000D01*
X34300000Y-81750000D01*
X34300000Y-82250000D01*
G37*
G36*
X31300000Y-82250000D02*
G01*
X30700000Y-82250000D01*
X30700000Y-81750000D01*
X31300000Y-81750000D01*
X31300000Y-82250000D01*
G37*
G36*
X30300000Y-68250000D02*
G01*
X29700000Y-68250000D01*
X29700000Y-67750000D01*
X30300000Y-67750000D01*
X30300000Y-68250000D01*
G37*
G36*
X33300000Y-68250000D02*
G01*
X32700000Y-68250000D01*
X32700000Y-67750000D01*
X33300000Y-67750000D01*
X33300000Y-68250000D01*
G37*
G36*
X39800000Y-29750000D02*
G01*
X39200000Y-29750000D01*
X39200000Y-29250000D01*
X39800000Y-29250000D01*
X39800000Y-29750000D01*
G37*
G36*
X35800000Y-29750000D02*
G01*
X35200000Y-29750000D01*
X35200000Y-29250000D01*
X35800000Y-29250000D01*
X35800000Y-29750000D01*
G37*
G36*
X32300000Y-29750000D02*
G01*
X31700000Y-29750000D01*
X31700000Y-29250000D01*
X32300000Y-29250000D01*
X32300000Y-29750000D01*
G37*
G36*
X30300000Y-15900000D02*
G01*
X29700000Y-15900000D01*
X29700000Y-15400000D01*
X30300000Y-15400000D01*
X30300000Y-15900000D01*
G37*
G36*
X33300000Y-15900000D02*
G01*
X32700000Y-15900000D01*
X32700000Y-15400000D01*
X33300000Y-15400000D01*
X33300000Y-15900000D01*
G37*
G36*
X24300000Y-36250000D02*
G01*
X23700000Y-36250000D01*
X23700000Y-35750000D01*
X24300000Y-35750000D01*
X24300000Y-36250000D01*
G37*
G36*
X31150000Y-36250000D02*
G01*
X30550000Y-36250000D01*
X30550000Y-35750000D01*
X31150000Y-35750000D01*
X31150000Y-36250000D01*
G37*
G36*
X36650000Y-36250000D02*
G01*
X36050000Y-36250000D01*
X36050000Y-35750000D01*
X36650000Y-35750000D01*
X36650000Y-36250000D01*
G37*
G36*
X43250000Y-41300000D02*
G01*
X42750000Y-41300000D01*
X42750000Y-40700000D01*
X43250000Y-40700000D01*
X43250000Y-41300000D01*
G37*
G36*
X51900000Y-48800000D02*
G01*
X51400000Y-48800000D01*
X51400000Y-48200000D01*
X51900000Y-48200000D01*
X51900000Y-48800000D01*
G37*
G36*
X51900000Y-46300000D02*
G01*
X51400000Y-46300000D01*
X51400000Y-45700000D01*
X51900000Y-45700000D01*
X51900000Y-46300000D01*
G37*
G36*
X40250000Y-33300000D02*
G01*
X39750000Y-33300000D01*
X39750000Y-32700000D01*
X40250000Y-32700000D01*
X40250000Y-33300000D01*
G37*
G36*
X43250000Y-43800000D02*
G01*
X42750000Y-43800000D01*
X42750000Y-43200000D01*
X43250000Y-43200000D01*
X43250000Y-43800000D01*
G37*
G36*
X43100000Y-36300000D02*
G01*
X42600000Y-36300000D01*
X42600000Y-35700000D01*
X43100000Y-35700000D01*
X43100000Y-36300000D01*
G37*
G36*
X43150000Y-38800000D02*
G01*
X42650000Y-38800000D01*
X42650000Y-38200000D01*
X43150000Y-38200000D01*
X43150000Y-38800000D01*
G37*
G36*
X46250000Y-33300000D02*
G01*
X45750000Y-33300000D01*
X45750000Y-32700000D01*
X46250000Y-32700000D01*
X46250000Y-33300000D01*
G37*
D10*
X59000000Y-33250000D03*
X42500000Y-46000000D03*
X59000000Y-39000000D03*
X59000000Y-36000000D03*
G04 #@! TA.AperFunction,SMDPad,CuDef*
G36*
X27250000Y-82612576D02*
G01*
X27250000Y-82150000D01*
X27678257Y-82150000D01*
X27678390Y-82149961D01*
X27681582Y-82150000D01*
X28178256Y-82150000D01*
X28178389Y-82149961D01*
X28181581Y-82150000D01*
X28750000Y-82150001D01*
X28750000Y-82618665D01*
X28755056Y-82659257D01*
X28732158Y-82800637D01*
X28670499Y-82929908D01*
X28575036Y-83036677D01*
X28453444Y-83112361D01*
X28315496Y-83150877D01*
X28243726Y-83150000D01*
X27818638Y-83150000D01*
X27815497Y-83150877D01*
X27672285Y-83149127D01*
X27535320Y-83107253D01*
X27415614Y-83028619D01*
X27322788Y-82919550D01*
X27264306Y-82788811D01*
X27244868Y-82646914D01*
X27250000Y-82612576D01*
G37*
G04 #@! TD.AperFunction*
G04 #@! TA.AperFunction,SMDPad,CuDef*
G36*
X27266038Y-81205265D02*
G01*
X27326113Y-81075250D01*
X27420264Y-80967323D01*
X27540923Y-80890159D01*
X27678390Y-80849961D01*
X27750001Y-80850836D01*
X27750001Y-80850000D01*
X28178256Y-80850000D01*
X28178389Y-80849961D01*
X28181581Y-80850000D01*
X28250000Y-80850000D01*
X28250000Y-80850836D01*
X28333807Y-80851860D01*
X28470250Y-80895404D01*
X28588987Y-80975494D01*
X28680473Y-81085690D01*
X28737354Y-81217133D01*
X28755056Y-81359257D01*
X28750000Y-81390474D01*
X28750000Y-81850000D01*
X28318637Y-81850000D01*
X28315496Y-81850877D01*
X28243726Y-81850000D01*
X27818638Y-81850000D01*
X27815497Y-81850877D01*
X27743727Y-81850000D01*
X27250000Y-81849999D01*
X27250000Y-81384377D01*
X27244868Y-81346914D01*
X27266038Y-81205265D01*
G37*
G04 #@! TD.AperFunction*
G04 #@! TA.AperFunction,SMDPad,CuDef*
G36*
X22250000Y-82612576D02*
G01*
X22250000Y-82150000D01*
X22678257Y-82150000D01*
X22678390Y-82149961D01*
X22681582Y-82150000D01*
X23178256Y-82150000D01*
X23178389Y-82149961D01*
X23181581Y-82150000D01*
X23750000Y-82150001D01*
X23750000Y-82618665D01*
X23755056Y-82659257D01*
X23732158Y-82800637D01*
X23670499Y-82929908D01*
X23575036Y-83036677D01*
X23453444Y-83112361D01*
X23315496Y-83150877D01*
X23243726Y-83150000D01*
X22818638Y-83150000D01*
X22815497Y-83150877D01*
X22672285Y-83149127D01*
X22535320Y-83107253D01*
X22415614Y-83028619D01*
X22322788Y-82919550D01*
X22264306Y-82788811D01*
X22244868Y-82646914D01*
X22250000Y-82612576D01*
G37*
G04 #@! TD.AperFunction*
G04 #@! TA.AperFunction,SMDPad,CuDef*
G36*
X22266038Y-81205265D02*
G01*
X22326113Y-81075250D01*
X22420264Y-80967323D01*
X22540923Y-80890159D01*
X22678390Y-80849961D01*
X22750001Y-80850836D01*
X22750001Y-80850000D01*
X23178256Y-80850000D01*
X23178389Y-80849961D01*
X23181581Y-80850000D01*
X23250000Y-80850000D01*
X23250000Y-80850836D01*
X23333807Y-80851860D01*
X23470250Y-80895404D01*
X23588987Y-80975494D01*
X23680473Y-81085690D01*
X23737354Y-81217133D01*
X23755056Y-81359257D01*
X23750000Y-81390474D01*
X23750000Y-81850000D01*
X23318637Y-81850000D01*
X23315496Y-81850877D01*
X23243726Y-81850000D01*
X22818638Y-81850000D01*
X22815497Y-81850877D01*
X22743727Y-81850000D01*
X22250000Y-81849999D01*
X22250000Y-81384377D01*
X22244868Y-81346914D01*
X22266038Y-81205265D01*
G37*
G04 #@! TD.AperFunction*
G04 #@! TA.AperFunction,SMDPad,CuDef*
G36*
X27750000Y-67387424D02*
G01*
X27749999Y-67850000D01*
X27321743Y-67850000D01*
X27321610Y-67850039D01*
X27318418Y-67850000D01*
X26821744Y-67849999D01*
X26821611Y-67850038D01*
X26818419Y-67849999D01*
X26250000Y-67849999D01*
X26250000Y-67381335D01*
X26244944Y-67340743D01*
X26267842Y-67199363D01*
X26329501Y-67070092D01*
X26424965Y-66963323D01*
X26546557Y-66887639D01*
X26684504Y-66849123D01*
X26756274Y-66850000D01*
X27181362Y-66850001D01*
X27184503Y-66849124D01*
X27327715Y-66850874D01*
X27464680Y-66892748D01*
X27584386Y-66971381D01*
X27677212Y-67080450D01*
X27735694Y-67211189D01*
X27755132Y-67353086D01*
X27750000Y-67387424D01*
G37*
G04 #@! TD.AperFunction*
G04 #@! TA.AperFunction,SMDPad,CuDef*
G36*
X27733962Y-68794735D02*
G01*
X27673887Y-68924750D01*
X27579735Y-69032677D01*
X27459076Y-69109841D01*
X27321610Y-69150039D01*
X27249999Y-69149164D01*
X27249999Y-69150000D01*
X26821744Y-69149999D01*
X26821611Y-69150038D01*
X26818419Y-69149999D01*
X26750000Y-69149999D01*
X26750000Y-69149163D01*
X26666193Y-69148139D01*
X26529750Y-69104595D01*
X26411013Y-69024506D01*
X26319527Y-68914310D01*
X26262646Y-68782867D01*
X26244944Y-68640743D01*
X26250000Y-68609526D01*
X26250001Y-68150000D01*
X26681363Y-68150000D01*
X26684504Y-68149123D01*
X26756274Y-68150000D01*
X27181362Y-68150001D01*
X27184503Y-68149124D01*
X27256273Y-68150001D01*
X27750000Y-68150001D01*
X27750000Y-68615623D01*
X27755132Y-68653086D01*
X27733962Y-68794735D01*
G37*
G04 #@! TD.AperFunction*
G04 #@! TA.AperFunction,SMDPad,CuDef*
G36*
X19250000Y-82612576D02*
G01*
X19250000Y-82150000D01*
X19678257Y-82150000D01*
X19678390Y-82149961D01*
X19681582Y-82150000D01*
X20178256Y-82150000D01*
X20178389Y-82149961D01*
X20181581Y-82150000D01*
X20750000Y-82150001D01*
X20750000Y-82618665D01*
X20755056Y-82659257D01*
X20732158Y-82800637D01*
X20670499Y-82929908D01*
X20575036Y-83036677D01*
X20453444Y-83112361D01*
X20315496Y-83150877D01*
X20243726Y-83150000D01*
X19818638Y-83150000D01*
X19815497Y-83150877D01*
X19672285Y-83149127D01*
X19535320Y-83107253D01*
X19415614Y-83028619D01*
X19322788Y-82919550D01*
X19264306Y-82788811D01*
X19244868Y-82646914D01*
X19250000Y-82612576D01*
G37*
G04 #@! TD.AperFunction*
G04 #@! TA.AperFunction,SMDPad,CuDef*
G36*
X19266038Y-81205265D02*
G01*
X19326113Y-81075250D01*
X19420264Y-80967323D01*
X19540923Y-80890159D01*
X19678390Y-80849961D01*
X19750001Y-80850836D01*
X19750001Y-80850000D01*
X20178256Y-80850000D01*
X20178389Y-80849961D01*
X20181581Y-80850000D01*
X20250000Y-80850000D01*
X20250000Y-80850836D01*
X20333807Y-80851860D01*
X20470250Y-80895404D01*
X20588987Y-80975494D01*
X20680473Y-81085690D01*
X20737354Y-81217133D01*
X20755056Y-81359257D01*
X20750000Y-81390474D01*
X20750000Y-81850000D01*
X20318637Y-81850000D01*
X20315496Y-81850877D01*
X20243726Y-81850000D01*
X19818638Y-81850000D01*
X19815497Y-81850877D01*
X19743727Y-81850000D01*
X19250000Y-81849999D01*
X19250000Y-81384377D01*
X19244868Y-81346914D01*
X19266038Y-81205265D01*
G37*
G04 #@! TD.AperFunction*
G04 #@! TA.AperFunction,SMDPad,CuDef*
G36*
X29750000Y-28887424D02*
G01*
X29749999Y-29350000D01*
X29321743Y-29350000D01*
X29321610Y-29350039D01*
X29318418Y-29350000D01*
X28821744Y-29349999D01*
X28821611Y-29350038D01*
X28818419Y-29349999D01*
X28250000Y-29349999D01*
X28250000Y-28881335D01*
X28244944Y-28840743D01*
X28267842Y-28699363D01*
X28329501Y-28570092D01*
X28424965Y-28463323D01*
X28546557Y-28387639D01*
X28684504Y-28349123D01*
X28756274Y-28350000D01*
X29181362Y-28350001D01*
X29184503Y-28349124D01*
X29327715Y-28350874D01*
X29464680Y-28392748D01*
X29584386Y-28471381D01*
X29677212Y-28580450D01*
X29735694Y-28711189D01*
X29755132Y-28853086D01*
X29750000Y-28887424D01*
G37*
G04 #@! TD.AperFunction*
G04 #@! TA.AperFunction,SMDPad,CuDef*
G36*
X29733962Y-30294735D02*
G01*
X29673887Y-30424750D01*
X29579735Y-30532677D01*
X29459076Y-30609841D01*
X29321610Y-30650039D01*
X29249999Y-30649164D01*
X29249999Y-30650000D01*
X28821744Y-30649999D01*
X28821611Y-30650038D01*
X28818419Y-30649999D01*
X28750000Y-30649999D01*
X28750000Y-30649163D01*
X28666193Y-30648139D01*
X28529750Y-30604595D01*
X28411013Y-30524506D01*
X28319527Y-30414310D01*
X28262646Y-30282867D01*
X28244944Y-30140743D01*
X28250000Y-30109526D01*
X28250001Y-29650000D01*
X28681363Y-29650000D01*
X28684504Y-29649123D01*
X28756274Y-29650000D01*
X29181362Y-29650001D01*
X29184503Y-29649124D01*
X29256273Y-29650001D01*
X29750000Y-29650001D01*
X29750000Y-30115623D01*
X29755132Y-30153086D01*
X29733962Y-30294735D01*
G37*
G04 #@! TD.AperFunction*
G04 #@! TA.AperFunction,SMDPad,CuDef*
G36*
X26750000Y-28887424D02*
G01*
X26749999Y-29350000D01*
X26321743Y-29350000D01*
X26321610Y-29350039D01*
X26318418Y-29350000D01*
X25821744Y-29349999D01*
X25821611Y-29350038D01*
X25818419Y-29349999D01*
X25250000Y-29349999D01*
X25250000Y-28881335D01*
X25244944Y-28840743D01*
X25267842Y-28699363D01*
X25329501Y-28570092D01*
X25424965Y-28463323D01*
X25546557Y-28387639D01*
X25684504Y-28349123D01*
X25756274Y-28350000D01*
X26181362Y-28350001D01*
X26184503Y-28349124D01*
X26327715Y-28350874D01*
X26464680Y-28392748D01*
X26584386Y-28471381D01*
X26677212Y-28580450D01*
X26735694Y-28711189D01*
X26755132Y-28853086D01*
X26750000Y-28887424D01*
G37*
G04 #@! TD.AperFunction*
G04 #@! TA.AperFunction,SMDPad,CuDef*
G36*
X26733962Y-30294735D02*
G01*
X26673887Y-30424750D01*
X26579735Y-30532677D01*
X26459076Y-30609841D01*
X26321610Y-30650039D01*
X26249999Y-30649164D01*
X26249999Y-30650000D01*
X25821744Y-30649999D01*
X25821611Y-30650038D01*
X25818419Y-30649999D01*
X25750000Y-30649999D01*
X25750000Y-30649163D01*
X25666193Y-30648139D01*
X25529750Y-30604595D01*
X25411013Y-30524506D01*
X25319527Y-30414310D01*
X25262646Y-30282867D01*
X25244944Y-30140743D01*
X25250000Y-30109526D01*
X25250001Y-29650000D01*
X25681363Y-29650000D01*
X25684504Y-29649123D01*
X25756274Y-29650000D01*
X26181362Y-29650001D01*
X26184503Y-29649124D01*
X26256273Y-29650001D01*
X26750000Y-29650001D01*
X26750000Y-30115623D01*
X26755132Y-30153086D01*
X26733962Y-30294735D01*
G37*
G04 #@! TD.AperFunction*
G04 #@! TA.AperFunction,SMDPad,CuDef*
G36*
X27750000Y-15037424D02*
G01*
X27749999Y-15500000D01*
X27321743Y-15500000D01*
X27321610Y-15500039D01*
X27318418Y-15500000D01*
X26821744Y-15499999D01*
X26821611Y-15500038D01*
X26818419Y-15499999D01*
X26250000Y-15499999D01*
X26250000Y-15031335D01*
X26244944Y-14990743D01*
X26267842Y-14849363D01*
X26329501Y-14720092D01*
X26424965Y-14613323D01*
X26546557Y-14537639D01*
X26684504Y-14499123D01*
X26756274Y-14500000D01*
X27181362Y-14500001D01*
X27184503Y-14499124D01*
X27327715Y-14500874D01*
X27464680Y-14542748D01*
X27584386Y-14621381D01*
X27677212Y-14730450D01*
X27735694Y-14861189D01*
X27755132Y-15003086D01*
X27750000Y-15037424D01*
G37*
G04 #@! TD.AperFunction*
G04 #@! TA.AperFunction,SMDPad,CuDef*
G36*
X27733962Y-16444735D02*
G01*
X27673887Y-16574750D01*
X27579735Y-16682677D01*
X27459076Y-16759841D01*
X27321610Y-16800039D01*
X27249999Y-16799164D01*
X27249999Y-16800000D01*
X26821744Y-16799999D01*
X26821611Y-16800038D01*
X26818419Y-16799999D01*
X26750000Y-16799999D01*
X26750000Y-16799163D01*
X26666193Y-16798139D01*
X26529750Y-16754595D01*
X26411013Y-16674506D01*
X26319527Y-16564310D01*
X26262646Y-16432867D01*
X26244944Y-16290743D01*
X26250000Y-16259526D01*
X26250001Y-15800000D01*
X26681363Y-15800000D01*
X26684504Y-15799123D01*
X26756274Y-15800000D01*
X27181362Y-15800001D01*
X27184503Y-15799124D01*
X27256273Y-15800001D01*
X27750000Y-15800001D01*
X27750000Y-16265623D01*
X27755132Y-16303086D01*
X27733962Y-16444735D01*
G37*
G04 #@! TD.AperFunction*
G04 #@! TA.AperFunction,SMDPad,CuDef*
G36*
X23750000Y-28887424D02*
G01*
X23749999Y-29350000D01*
X23321743Y-29350000D01*
X23321610Y-29350039D01*
X23318418Y-29350000D01*
X22821744Y-29349999D01*
X22821611Y-29350038D01*
X22818419Y-29349999D01*
X22250000Y-29349999D01*
X22250000Y-28881335D01*
X22244944Y-28840743D01*
X22267842Y-28699363D01*
X22329501Y-28570092D01*
X22424965Y-28463323D01*
X22546557Y-28387639D01*
X22684504Y-28349123D01*
X22756274Y-28350000D01*
X23181362Y-28350001D01*
X23184503Y-28349124D01*
X23327715Y-28350874D01*
X23464680Y-28392748D01*
X23584386Y-28471381D01*
X23677212Y-28580450D01*
X23735694Y-28711189D01*
X23755132Y-28853086D01*
X23750000Y-28887424D01*
G37*
G04 #@! TD.AperFunction*
G04 #@! TA.AperFunction,SMDPad,CuDef*
G36*
X23733962Y-30294735D02*
G01*
X23673887Y-30424750D01*
X23579735Y-30532677D01*
X23459076Y-30609841D01*
X23321610Y-30650039D01*
X23249999Y-30649164D01*
X23249999Y-30650000D01*
X22821744Y-30649999D01*
X22821611Y-30650038D01*
X22818419Y-30649999D01*
X22750000Y-30649999D01*
X22750000Y-30649163D01*
X22666193Y-30648139D01*
X22529750Y-30604595D01*
X22411013Y-30524506D01*
X22319527Y-30414310D01*
X22262646Y-30282867D01*
X22244944Y-30140743D01*
X22250000Y-30109526D01*
X22250001Y-29650000D01*
X22681363Y-29650000D01*
X22684504Y-29649123D01*
X22756274Y-29650000D01*
X23181362Y-29650001D01*
X23184503Y-29649124D01*
X23256273Y-29650001D01*
X23750000Y-29650001D01*
X23750000Y-30115623D01*
X23755132Y-30153086D01*
X23733962Y-30294735D01*
G37*
G04 #@! TD.AperFunction*
G04 #@! TA.AperFunction,SMDPad,CuDef*
G36*
X37750000Y-81387424D02*
G01*
X37749999Y-81850000D01*
X37321743Y-81850000D01*
X37321610Y-81850039D01*
X37318418Y-81850000D01*
X36821744Y-81849999D01*
X36821611Y-81850038D01*
X36818419Y-81849999D01*
X36250000Y-81849999D01*
X36250000Y-81381335D01*
X36244944Y-81340743D01*
X36267842Y-81199363D01*
X36329501Y-81070092D01*
X36424965Y-80963323D01*
X36546557Y-80887639D01*
X36684504Y-80849123D01*
X36756274Y-80850000D01*
X37181362Y-80850001D01*
X37184503Y-80849124D01*
X37327715Y-80850874D01*
X37464680Y-80892748D01*
X37584386Y-80971381D01*
X37677212Y-81080450D01*
X37735694Y-81211189D01*
X37755132Y-81353086D01*
X37750000Y-81387424D01*
G37*
G04 #@! TD.AperFunction*
G04 #@! TA.AperFunction,SMDPad,CuDef*
G36*
X37733962Y-82794735D02*
G01*
X37673887Y-82924750D01*
X37579735Y-83032677D01*
X37459076Y-83109841D01*
X37321610Y-83150039D01*
X37249999Y-83149164D01*
X37249999Y-83150000D01*
X36821744Y-83149999D01*
X36821611Y-83150038D01*
X36818419Y-83149999D01*
X36750000Y-83149999D01*
X36750000Y-83149163D01*
X36666193Y-83148139D01*
X36529750Y-83104595D01*
X36411013Y-83024506D01*
X36319527Y-82914310D01*
X36262646Y-82782867D01*
X36244944Y-82640743D01*
X36250000Y-82609526D01*
X36250001Y-82150000D01*
X36681363Y-82150000D01*
X36684504Y-82149123D01*
X36756274Y-82150000D01*
X37181362Y-82150001D01*
X37184503Y-82149124D01*
X37256273Y-82150001D01*
X37750000Y-82150001D01*
X37750000Y-82615623D01*
X37755132Y-82653086D01*
X37733962Y-82794735D01*
G37*
G04 #@! TD.AperFunction*
G04 #@! TA.AperFunction,SMDPad,CuDef*
G36*
X34750000Y-81387424D02*
G01*
X34749999Y-81850000D01*
X34321743Y-81850000D01*
X34321610Y-81850039D01*
X34318418Y-81850000D01*
X33821744Y-81849999D01*
X33821611Y-81850038D01*
X33818419Y-81849999D01*
X33250000Y-81849999D01*
X33250000Y-81381335D01*
X33244944Y-81340743D01*
X33267842Y-81199363D01*
X33329501Y-81070092D01*
X33424965Y-80963323D01*
X33546557Y-80887639D01*
X33684504Y-80849123D01*
X33756274Y-80850000D01*
X34181362Y-80850001D01*
X34184503Y-80849124D01*
X34327715Y-80850874D01*
X34464680Y-80892748D01*
X34584386Y-80971381D01*
X34677212Y-81080450D01*
X34735694Y-81211189D01*
X34755132Y-81353086D01*
X34750000Y-81387424D01*
G37*
G04 #@! TD.AperFunction*
G04 #@! TA.AperFunction,SMDPad,CuDef*
G36*
X34733962Y-82794735D02*
G01*
X34673887Y-82924750D01*
X34579735Y-83032677D01*
X34459076Y-83109841D01*
X34321610Y-83150039D01*
X34249999Y-83149164D01*
X34249999Y-83150000D01*
X33821744Y-83149999D01*
X33821611Y-83150038D01*
X33818419Y-83149999D01*
X33750000Y-83149999D01*
X33750000Y-83149163D01*
X33666193Y-83148139D01*
X33529750Y-83104595D01*
X33411013Y-83024506D01*
X33319527Y-82914310D01*
X33262646Y-82782867D01*
X33244944Y-82640743D01*
X33250000Y-82609526D01*
X33250001Y-82150000D01*
X33681363Y-82150000D01*
X33684504Y-82149123D01*
X33756274Y-82150000D01*
X34181362Y-82150001D01*
X34184503Y-82149124D01*
X34256273Y-82150001D01*
X34750000Y-82150001D01*
X34750000Y-82615623D01*
X34755132Y-82653086D01*
X34733962Y-82794735D01*
G37*
G04 #@! TD.AperFunction*
G04 #@! TA.AperFunction,SMDPad,CuDef*
G36*
X31750000Y-81387424D02*
G01*
X31749999Y-81850000D01*
X31321743Y-81850000D01*
X31321610Y-81850039D01*
X31318418Y-81850000D01*
X30821744Y-81849999D01*
X30821611Y-81850038D01*
X30818419Y-81849999D01*
X30250000Y-81849999D01*
X30250000Y-81381335D01*
X30244944Y-81340743D01*
X30267842Y-81199363D01*
X30329501Y-81070092D01*
X30424965Y-80963323D01*
X30546557Y-80887639D01*
X30684504Y-80849123D01*
X30756274Y-80850000D01*
X31181362Y-80850001D01*
X31184503Y-80849124D01*
X31327715Y-80850874D01*
X31464680Y-80892748D01*
X31584386Y-80971381D01*
X31677212Y-81080450D01*
X31735694Y-81211189D01*
X31755132Y-81353086D01*
X31750000Y-81387424D01*
G37*
G04 #@! TD.AperFunction*
G04 #@! TA.AperFunction,SMDPad,CuDef*
G36*
X31733962Y-82794735D02*
G01*
X31673887Y-82924750D01*
X31579735Y-83032677D01*
X31459076Y-83109841D01*
X31321610Y-83150039D01*
X31249999Y-83149164D01*
X31249999Y-83150000D01*
X30821744Y-83149999D01*
X30821611Y-83150038D01*
X30818419Y-83149999D01*
X30750000Y-83149999D01*
X30750000Y-83149163D01*
X30666193Y-83148139D01*
X30529750Y-83104595D01*
X30411013Y-83024506D01*
X30319527Y-82914310D01*
X30262646Y-82782867D01*
X30244944Y-82640743D01*
X30250000Y-82609526D01*
X30250001Y-82150000D01*
X30681363Y-82150000D01*
X30684504Y-82149123D01*
X30756274Y-82150000D01*
X31181362Y-82150001D01*
X31184503Y-82149124D01*
X31256273Y-82150001D01*
X31750000Y-82150001D01*
X31750000Y-82615623D01*
X31755132Y-82653086D01*
X31733962Y-82794735D01*
G37*
G04 #@! TD.AperFunction*
G04 #@! TA.AperFunction,SMDPad,CuDef*
G36*
X29250000Y-68612576D02*
G01*
X29250000Y-68150000D01*
X29678257Y-68150000D01*
X29678390Y-68149961D01*
X29681582Y-68150000D01*
X30178256Y-68150000D01*
X30178389Y-68149961D01*
X30181581Y-68150000D01*
X30750000Y-68150001D01*
X30750000Y-68618665D01*
X30755056Y-68659257D01*
X30732158Y-68800637D01*
X30670499Y-68929908D01*
X30575036Y-69036677D01*
X30453444Y-69112361D01*
X30315496Y-69150877D01*
X30243726Y-69150000D01*
X29818638Y-69150000D01*
X29815497Y-69150877D01*
X29672285Y-69149127D01*
X29535320Y-69107253D01*
X29415614Y-69028619D01*
X29322788Y-68919550D01*
X29264306Y-68788811D01*
X29244868Y-68646914D01*
X29250000Y-68612576D01*
G37*
G04 #@! TD.AperFunction*
G04 #@! TA.AperFunction,SMDPad,CuDef*
G36*
X29266038Y-67205265D02*
G01*
X29326113Y-67075250D01*
X29420264Y-66967323D01*
X29540923Y-66890159D01*
X29678390Y-66849961D01*
X29750001Y-66850836D01*
X29750001Y-66850000D01*
X30178256Y-66850000D01*
X30178389Y-66849961D01*
X30181581Y-66850000D01*
X30250000Y-66850000D01*
X30250000Y-66850836D01*
X30333807Y-66851860D01*
X30470250Y-66895404D01*
X30588987Y-66975494D01*
X30680473Y-67085690D01*
X30737354Y-67217133D01*
X30755056Y-67359257D01*
X30750000Y-67390474D01*
X30750000Y-67850000D01*
X30318637Y-67850000D01*
X30315496Y-67850877D01*
X30243726Y-67850000D01*
X29818638Y-67850000D01*
X29815497Y-67850877D01*
X29743727Y-67850000D01*
X29250000Y-67849999D01*
X29250000Y-67384377D01*
X29244868Y-67346914D01*
X29266038Y-67205265D01*
G37*
G04 #@! TD.AperFunction*
G04 #@! TA.AperFunction,SMDPad,CuDef*
G36*
X32250000Y-68612576D02*
G01*
X32250000Y-68150000D01*
X32678257Y-68150000D01*
X32678390Y-68149961D01*
X32681582Y-68150000D01*
X33178256Y-68150000D01*
X33178389Y-68149961D01*
X33181581Y-68150000D01*
X33750000Y-68150001D01*
X33750000Y-68618665D01*
X33755056Y-68659257D01*
X33732158Y-68800637D01*
X33670499Y-68929908D01*
X33575036Y-69036677D01*
X33453444Y-69112361D01*
X33315496Y-69150877D01*
X33243726Y-69150000D01*
X32818638Y-69150000D01*
X32815497Y-69150877D01*
X32672285Y-69149127D01*
X32535320Y-69107253D01*
X32415614Y-69028619D01*
X32322788Y-68919550D01*
X32264306Y-68788811D01*
X32244868Y-68646914D01*
X32250000Y-68612576D01*
G37*
G04 #@! TD.AperFunction*
G04 #@! TA.AperFunction,SMDPad,CuDef*
G36*
X32266038Y-67205265D02*
G01*
X32326113Y-67075250D01*
X32420264Y-66967323D01*
X32540923Y-66890159D01*
X32678390Y-66849961D01*
X32750001Y-66850836D01*
X32750001Y-66850000D01*
X33178256Y-66850000D01*
X33178389Y-66849961D01*
X33181581Y-66850000D01*
X33250000Y-66850000D01*
X33250000Y-66850836D01*
X33333807Y-66851860D01*
X33470250Y-66895404D01*
X33588987Y-66975494D01*
X33680473Y-67085690D01*
X33737354Y-67217133D01*
X33755056Y-67359257D01*
X33750000Y-67390474D01*
X33750000Y-67850000D01*
X33318637Y-67850000D01*
X33315496Y-67850877D01*
X33243726Y-67850000D01*
X32818638Y-67850000D01*
X32815497Y-67850877D01*
X32743727Y-67850000D01*
X32250000Y-67849999D01*
X32250000Y-67384377D01*
X32244868Y-67346914D01*
X32266038Y-67205265D01*
G37*
G04 #@! TD.AperFunction*
G04 #@! TA.AperFunction,SMDPad,CuDef*
G36*
X38750000Y-30112576D02*
G01*
X38750000Y-29650000D01*
X39178257Y-29650000D01*
X39178390Y-29649961D01*
X39181582Y-29650000D01*
X39678256Y-29650000D01*
X39678389Y-29649961D01*
X39681581Y-29650000D01*
X40250000Y-29650001D01*
X40250000Y-30118665D01*
X40255056Y-30159257D01*
X40232158Y-30300637D01*
X40170499Y-30429908D01*
X40075036Y-30536677D01*
X39953444Y-30612361D01*
X39815496Y-30650877D01*
X39743726Y-30650000D01*
X39318638Y-30650000D01*
X39315497Y-30650877D01*
X39172285Y-30649127D01*
X39035320Y-30607253D01*
X38915614Y-30528619D01*
X38822788Y-30419550D01*
X38764306Y-30288811D01*
X38744868Y-30146914D01*
X38750000Y-30112576D01*
G37*
G04 #@! TD.AperFunction*
G04 #@! TA.AperFunction,SMDPad,CuDef*
G36*
X38766038Y-28705265D02*
G01*
X38826113Y-28575250D01*
X38920264Y-28467323D01*
X39040923Y-28390159D01*
X39178390Y-28349961D01*
X39250001Y-28350836D01*
X39250001Y-28350000D01*
X39678256Y-28350000D01*
X39678389Y-28349961D01*
X39681581Y-28350000D01*
X39750000Y-28350000D01*
X39750000Y-28350836D01*
X39833807Y-28351860D01*
X39970250Y-28395404D01*
X40088987Y-28475494D01*
X40180473Y-28585690D01*
X40237354Y-28717133D01*
X40255056Y-28859257D01*
X40250000Y-28890474D01*
X40250000Y-29350000D01*
X39818637Y-29350000D01*
X39815496Y-29350877D01*
X39743726Y-29350000D01*
X39318638Y-29350000D01*
X39315497Y-29350877D01*
X39243727Y-29350000D01*
X38750000Y-29349999D01*
X38750000Y-28884377D01*
X38744868Y-28846914D01*
X38766038Y-28705265D01*
G37*
G04 #@! TD.AperFunction*
G04 #@! TA.AperFunction,SMDPad,CuDef*
G36*
X34750000Y-30112576D02*
G01*
X34750000Y-29650000D01*
X35178257Y-29650000D01*
X35178390Y-29649961D01*
X35181582Y-29650000D01*
X35678256Y-29650000D01*
X35678389Y-29649961D01*
X35681581Y-29650000D01*
X36250000Y-29650001D01*
X36250000Y-30118665D01*
X36255056Y-30159257D01*
X36232158Y-30300637D01*
X36170499Y-30429908D01*
X36075036Y-30536677D01*
X35953444Y-30612361D01*
X35815496Y-30650877D01*
X35743726Y-30650000D01*
X35318638Y-30650000D01*
X35315497Y-30650877D01*
X35172285Y-30649127D01*
X35035320Y-30607253D01*
X34915614Y-30528619D01*
X34822788Y-30419550D01*
X34764306Y-30288811D01*
X34744868Y-30146914D01*
X34750000Y-30112576D01*
G37*
G04 #@! TD.AperFunction*
G04 #@! TA.AperFunction,SMDPad,CuDef*
G36*
X34766038Y-28705265D02*
G01*
X34826113Y-28575250D01*
X34920264Y-28467323D01*
X35040923Y-28390159D01*
X35178390Y-28349961D01*
X35250001Y-28350836D01*
X35250001Y-28350000D01*
X35678256Y-28350000D01*
X35678389Y-28349961D01*
X35681581Y-28350000D01*
X35750000Y-28350000D01*
X35750000Y-28350836D01*
X35833807Y-28351860D01*
X35970250Y-28395404D01*
X36088987Y-28475494D01*
X36180473Y-28585690D01*
X36237354Y-28717133D01*
X36255056Y-28859257D01*
X36250000Y-28890474D01*
X36250000Y-29350000D01*
X35818637Y-29350000D01*
X35815496Y-29350877D01*
X35743726Y-29350000D01*
X35318638Y-29350000D01*
X35315497Y-29350877D01*
X35243727Y-29350000D01*
X34750000Y-29349999D01*
X34750000Y-28884377D01*
X34744868Y-28846914D01*
X34766038Y-28705265D01*
G37*
G04 #@! TD.AperFunction*
G04 #@! TA.AperFunction,SMDPad,CuDef*
G36*
X31250000Y-30112576D02*
G01*
X31250000Y-29650000D01*
X31678257Y-29650000D01*
X31678390Y-29649961D01*
X31681582Y-29650000D01*
X32178256Y-29650000D01*
X32178389Y-29649961D01*
X32181581Y-29650000D01*
X32750000Y-29650001D01*
X32750000Y-30118665D01*
X32755056Y-30159257D01*
X32732158Y-30300637D01*
X32670499Y-30429908D01*
X32575036Y-30536677D01*
X32453444Y-30612361D01*
X32315496Y-30650877D01*
X32243726Y-30650000D01*
X31818638Y-30650000D01*
X31815497Y-30650877D01*
X31672285Y-30649127D01*
X31535320Y-30607253D01*
X31415614Y-30528619D01*
X31322788Y-30419550D01*
X31264306Y-30288811D01*
X31244868Y-30146914D01*
X31250000Y-30112576D01*
G37*
G04 #@! TD.AperFunction*
G04 #@! TA.AperFunction,SMDPad,CuDef*
G36*
X31266038Y-28705265D02*
G01*
X31326113Y-28575250D01*
X31420264Y-28467323D01*
X31540923Y-28390159D01*
X31678390Y-28349961D01*
X31750001Y-28350836D01*
X31750001Y-28350000D01*
X32178256Y-28350000D01*
X32178389Y-28349961D01*
X32181581Y-28350000D01*
X32250000Y-28350000D01*
X32250000Y-28350836D01*
X32333807Y-28351860D01*
X32470250Y-28395404D01*
X32588987Y-28475494D01*
X32680473Y-28585690D01*
X32737354Y-28717133D01*
X32755056Y-28859257D01*
X32750000Y-28890474D01*
X32750000Y-29350000D01*
X32318637Y-29350000D01*
X32315496Y-29350877D01*
X32243726Y-29350000D01*
X31818638Y-29350000D01*
X31815497Y-29350877D01*
X31743727Y-29350000D01*
X31250000Y-29349999D01*
X31250000Y-28884377D01*
X31244868Y-28846914D01*
X31266038Y-28705265D01*
G37*
G04 #@! TD.AperFunction*
G04 #@! TA.AperFunction,SMDPad,CuDef*
G36*
X29250000Y-16262576D02*
G01*
X29250000Y-15800000D01*
X29678257Y-15800000D01*
X29678390Y-15799961D01*
X29681582Y-15800000D01*
X30178256Y-15800000D01*
X30178389Y-15799961D01*
X30181581Y-15800000D01*
X30750000Y-15800001D01*
X30750000Y-16268665D01*
X30755056Y-16309257D01*
X30732158Y-16450637D01*
X30670499Y-16579908D01*
X30575036Y-16686677D01*
X30453444Y-16762361D01*
X30315496Y-16800877D01*
X30243726Y-16800000D01*
X29818638Y-16800000D01*
X29815497Y-16800877D01*
X29672285Y-16799127D01*
X29535320Y-16757253D01*
X29415614Y-16678619D01*
X29322788Y-16569550D01*
X29264306Y-16438811D01*
X29244868Y-16296914D01*
X29250000Y-16262576D01*
G37*
G04 #@! TD.AperFunction*
G04 #@! TA.AperFunction,SMDPad,CuDef*
G36*
X29266038Y-14855265D02*
G01*
X29326113Y-14725250D01*
X29420264Y-14617323D01*
X29540923Y-14540159D01*
X29678390Y-14499961D01*
X29750001Y-14500836D01*
X29750001Y-14500000D01*
X30178256Y-14500000D01*
X30178389Y-14499961D01*
X30181581Y-14500000D01*
X30250000Y-14500000D01*
X30250000Y-14500836D01*
X30333807Y-14501860D01*
X30470250Y-14545404D01*
X30588987Y-14625494D01*
X30680473Y-14735690D01*
X30737354Y-14867133D01*
X30755056Y-15009257D01*
X30750000Y-15040474D01*
X30750000Y-15500000D01*
X30318637Y-15500000D01*
X30315496Y-15500877D01*
X30243726Y-15500000D01*
X29818638Y-15500000D01*
X29815497Y-15500877D01*
X29743727Y-15500000D01*
X29250000Y-15499999D01*
X29250000Y-15034377D01*
X29244868Y-14996914D01*
X29266038Y-14855265D01*
G37*
G04 #@! TD.AperFunction*
G04 #@! TA.AperFunction,SMDPad,CuDef*
G36*
X32250000Y-16262576D02*
G01*
X32250000Y-15800000D01*
X32678257Y-15800000D01*
X32678390Y-15799961D01*
X32681582Y-15800000D01*
X33178256Y-15800000D01*
X33178389Y-15799961D01*
X33181581Y-15800000D01*
X33750000Y-15800001D01*
X33750000Y-16268665D01*
X33755056Y-16309257D01*
X33732158Y-16450637D01*
X33670499Y-16579908D01*
X33575036Y-16686677D01*
X33453444Y-16762361D01*
X33315496Y-16800877D01*
X33243726Y-16800000D01*
X32818638Y-16800000D01*
X32815497Y-16800877D01*
X32672285Y-16799127D01*
X32535320Y-16757253D01*
X32415614Y-16678619D01*
X32322788Y-16569550D01*
X32264306Y-16438811D01*
X32244868Y-16296914D01*
X32250000Y-16262576D01*
G37*
G04 #@! TD.AperFunction*
G04 #@! TA.AperFunction,SMDPad,CuDef*
G36*
X32266038Y-14855265D02*
G01*
X32326113Y-14725250D01*
X32420264Y-14617323D01*
X32540923Y-14540159D01*
X32678390Y-14499961D01*
X32750001Y-14500836D01*
X32750001Y-14500000D01*
X33178256Y-14500000D01*
X33178389Y-14499961D01*
X33181581Y-14500000D01*
X33250000Y-14500000D01*
X33250000Y-14500836D01*
X33333807Y-14501860D01*
X33470250Y-14545404D01*
X33588987Y-14625494D01*
X33680473Y-14735690D01*
X33737354Y-14867133D01*
X33755056Y-15009257D01*
X33750000Y-15040474D01*
X33750000Y-15500000D01*
X33318637Y-15500000D01*
X33315496Y-15500877D01*
X33243726Y-15500000D01*
X32818638Y-15500000D01*
X32815497Y-15500877D01*
X32743727Y-15500000D01*
X32250000Y-15499999D01*
X32250000Y-15034377D01*
X32244868Y-14996914D01*
X32266038Y-14855265D01*
G37*
G04 #@! TD.AperFunction*
G04 #@! TA.AperFunction,SMDPad,CuDef*
G36*
X24750000Y-35387424D02*
G01*
X24749999Y-35850000D01*
X24321743Y-35850000D01*
X24321610Y-35850039D01*
X24318418Y-35850000D01*
X23821744Y-35849999D01*
X23821611Y-35850038D01*
X23818419Y-35849999D01*
X23250000Y-35849999D01*
X23250000Y-35381335D01*
X23244944Y-35340743D01*
X23267842Y-35199363D01*
X23329501Y-35070092D01*
X23424965Y-34963323D01*
X23546557Y-34887639D01*
X23684504Y-34849123D01*
X23756274Y-34850000D01*
X24181362Y-34850001D01*
X24184503Y-34849124D01*
X24327715Y-34850874D01*
X24464680Y-34892748D01*
X24584386Y-34971381D01*
X24677212Y-35080450D01*
X24735694Y-35211189D01*
X24755132Y-35353086D01*
X24750000Y-35387424D01*
G37*
G04 #@! TD.AperFunction*
G04 #@! TA.AperFunction,SMDPad,CuDef*
G36*
X24733962Y-36794735D02*
G01*
X24673887Y-36924750D01*
X24579735Y-37032677D01*
X24459076Y-37109841D01*
X24321610Y-37150039D01*
X24249999Y-37149164D01*
X24249999Y-37150000D01*
X23821744Y-37149999D01*
X23821611Y-37150038D01*
X23818419Y-37149999D01*
X23750000Y-37149999D01*
X23750000Y-37149163D01*
X23666193Y-37148139D01*
X23529750Y-37104595D01*
X23411013Y-37024506D01*
X23319527Y-36914310D01*
X23262646Y-36782867D01*
X23244944Y-36640743D01*
X23250000Y-36609526D01*
X23250001Y-36150000D01*
X23681363Y-36150000D01*
X23684504Y-36149123D01*
X23756274Y-36150000D01*
X24181362Y-36150001D01*
X24184503Y-36149124D01*
X24256273Y-36150001D01*
X24750000Y-36150001D01*
X24750000Y-36615623D01*
X24755132Y-36653086D01*
X24733962Y-36794735D01*
G37*
G04 #@! TD.AperFunction*
G04 #@! TA.AperFunction,SMDPad,CuDef*
G36*
X31600000Y-35387424D02*
G01*
X31599999Y-35850000D01*
X31171743Y-35850000D01*
X31171610Y-35850039D01*
X31168418Y-35850000D01*
X30671744Y-35849999D01*
X30671611Y-35850038D01*
X30668419Y-35849999D01*
X30100000Y-35849999D01*
X30100000Y-35381335D01*
X30094944Y-35340743D01*
X30117842Y-35199363D01*
X30179501Y-35070092D01*
X30274965Y-34963323D01*
X30396557Y-34887639D01*
X30534504Y-34849123D01*
X30606274Y-34850000D01*
X31031362Y-34850001D01*
X31034503Y-34849124D01*
X31177715Y-34850874D01*
X31314680Y-34892748D01*
X31434386Y-34971381D01*
X31527212Y-35080450D01*
X31585694Y-35211189D01*
X31605132Y-35353086D01*
X31600000Y-35387424D01*
G37*
G04 #@! TD.AperFunction*
G04 #@! TA.AperFunction,SMDPad,CuDef*
G36*
X31583962Y-36794735D02*
G01*
X31523887Y-36924750D01*
X31429735Y-37032677D01*
X31309076Y-37109841D01*
X31171610Y-37150039D01*
X31099999Y-37149164D01*
X31099999Y-37150000D01*
X30671744Y-37149999D01*
X30671611Y-37150038D01*
X30668419Y-37149999D01*
X30600000Y-37149999D01*
X30600000Y-37149163D01*
X30516193Y-37148139D01*
X30379750Y-37104595D01*
X30261013Y-37024506D01*
X30169527Y-36914310D01*
X30112646Y-36782867D01*
X30094944Y-36640743D01*
X30100000Y-36609526D01*
X30100001Y-36150000D01*
X30531363Y-36150000D01*
X30534504Y-36149123D01*
X30606274Y-36150000D01*
X31031362Y-36150001D01*
X31034503Y-36149124D01*
X31106273Y-36150001D01*
X31600000Y-36150001D01*
X31600000Y-36615623D01*
X31605132Y-36653086D01*
X31583962Y-36794735D01*
G37*
G04 #@! TD.AperFunction*
G04 #@! TA.AperFunction,SMDPad,CuDef*
G36*
X35600000Y-36612576D02*
G01*
X35600000Y-36150000D01*
X36028257Y-36150000D01*
X36028390Y-36149961D01*
X36031582Y-36150000D01*
X36528256Y-36150000D01*
X36528389Y-36149961D01*
X36531581Y-36150000D01*
X37100000Y-36150001D01*
X37100000Y-36618665D01*
X37105056Y-36659257D01*
X37082158Y-36800637D01*
X37020499Y-36929908D01*
X36925036Y-37036677D01*
X36803444Y-37112361D01*
X36665496Y-37150877D01*
X36593726Y-37150000D01*
X36168638Y-37150000D01*
X36165497Y-37150877D01*
X36022285Y-37149127D01*
X35885320Y-37107253D01*
X35765614Y-37028619D01*
X35672788Y-36919550D01*
X35614306Y-36788811D01*
X35594868Y-36646914D01*
X35600000Y-36612576D01*
G37*
G04 #@! TD.AperFunction*
G04 #@! TA.AperFunction,SMDPad,CuDef*
G36*
X35616038Y-35205265D02*
G01*
X35676113Y-35075250D01*
X35770264Y-34967323D01*
X35890923Y-34890159D01*
X36028390Y-34849961D01*
X36100001Y-34850836D01*
X36100001Y-34850000D01*
X36528256Y-34850000D01*
X36528389Y-34849961D01*
X36531581Y-34850000D01*
X36600000Y-34850000D01*
X36600000Y-34850836D01*
X36683807Y-34851860D01*
X36820250Y-34895404D01*
X36938987Y-34975494D01*
X37030473Y-35085690D01*
X37087354Y-35217133D01*
X37105056Y-35359257D01*
X37100000Y-35390474D01*
X37100000Y-35850000D01*
X36668637Y-35850000D01*
X36665496Y-35850877D01*
X36593726Y-35850000D01*
X36168638Y-35850000D01*
X36165497Y-35850877D01*
X36093727Y-35850000D01*
X35600000Y-35849999D01*
X35600000Y-35384377D01*
X35594868Y-35346914D01*
X35616038Y-35205265D01*
G37*
G04 #@! TD.AperFunction*
G04 #@! TA.AperFunction,SMDPad,CuDef*
G36*
X43612576Y-41750000D02*
G01*
X43150000Y-41749999D01*
X43150000Y-41321743D01*
X43149961Y-41321610D01*
X43150000Y-41318418D01*
X43150000Y-40821744D01*
X43149961Y-40821611D01*
X43150000Y-40818419D01*
X43150001Y-40250000D01*
X43618665Y-40250000D01*
X43659257Y-40244944D01*
X43800637Y-40267842D01*
X43929908Y-40329501D01*
X44036677Y-40424964D01*
X44112361Y-40546557D01*
X44150877Y-40684504D01*
X44150000Y-40756274D01*
X44150000Y-41181362D01*
X44150877Y-41184503D01*
X44149126Y-41327715D01*
X44107252Y-41464680D01*
X44028619Y-41584386D01*
X43919550Y-41677212D01*
X43788811Y-41735694D01*
X43646914Y-41755132D01*
X43612576Y-41750000D01*
G37*
G04 #@! TD.AperFunction*
G04 #@! TA.AperFunction,SMDPad,CuDef*
G36*
X42205265Y-41733962D02*
G01*
X42075250Y-41673887D01*
X41967323Y-41579736D01*
X41890159Y-41459076D01*
X41849961Y-41321610D01*
X41850836Y-41249999D01*
X41850000Y-41249999D01*
X41850000Y-40821744D01*
X41849961Y-40821611D01*
X41850000Y-40818419D01*
X41850001Y-40750000D01*
X41850837Y-40750000D01*
X41851861Y-40666193D01*
X41895405Y-40529750D01*
X41975494Y-40411013D01*
X42085690Y-40319527D01*
X42217133Y-40262646D01*
X42359257Y-40244944D01*
X42390474Y-40250000D01*
X42850000Y-40250001D01*
X42850000Y-40681363D01*
X42850877Y-40684504D01*
X42850000Y-40756274D01*
X42850000Y-41181362D01*
X42850877Y-41184503D01*
X42849999Y-41256273D01*
X42849999Y-41750000D01*
X42384377Y-41750000D01*
X42346914Y-41755132D01*
X42205265Y-41733962D01*
G37*
G04 #@! TD.AperFunction*
G04 #@! TA.AperFunction,SMDPad,CuDef*
G36*
X51037424Y-47750000D02*
G01*
X51500000Y-47750000D01*
X51500000Y-48178256D01*
X51500039Y-48178389D01*
X51500000Y-48181581D01*
X51500000Y-48678256D01*
X51500039Y-48678389D01*
X51500000Y-48681581D01*
X51500000Y-49250000D01*
X51031336Y-49250000D01*
X50990743Y-49255056D01*
X50849363Y-49232158D01*
X50720092Y-49170499D01*
X50613323Y-49075036D01*
X50537639Y-48953444D01*
X50499123Y-48815497D01*
X50500000Y-48743727D01*
X50500000Y-48318638D01*
X50499123Y-48315497D01*
X50500873Y-48172285D01*
X50542747Y-48035320D01*
X50621380Y-47915614D01*
X50730449Y-47822788D01*
X50861188Y-47764306D01*
X51003086Y-47744868D01*
X51037424Y-47750000D01*
G37*
G04 #@! TD.AperFunction*
G04 #@! TA.AperFunction,SMDPad,CuDef*
G36*
X52444735Y-47766038D02*
G01*
X52574750Y-47826113D01*
X52682677Y-47920264D01*
X52759841Y-48040923D01*
X52800039Y-48178389D01*
X52799164Y-48250000D01*
X52800000Y-48250000D01*
X52800000Y-48678256D01*
X52800039Y-48678389D01*
X52800000Y-48681581D01*
X52800000Y-48750000D01*
X52799164Y-48750000D01*
X52798140Y-48833807D01*
X52754596Y-48970250D01*
X52674507Y-49088987D01*
X52564311Y-49180473D01*
X52432868Y-49237354D01*
X52290743Y-49255056D01*
X52259526Y-49250000D01*
X51800000Y-49250000D01*
X51800000Y-48818638D01*
X51799123Y-48815497D01*
X51800000Y-48743727D01*
X51800000Y-48318638D01*
X51799123Y-48315497D01*
X51800000Y-48243727D01*
X51800000Y-47750000D01*
X52265622Y-47750000D01*
X52303086Y-47744868D01*
X52444735Y-47766038D01*
G37*
G04 #@! TD.AperFunction*
G04 #@! TA.AperFunction,SMDPad,CuDef*
G36*
X51037424Y-45250000D02*
G01*
X51500000Y-45250000D01*
X51500000Y-45678256D01*
X51500039Y-45678389D01*
X51500000Y-45681581D01*
X51500000Y-46178256D01*
X51500039Y-46178389D01*
X51500000Y-46181581D01*
X51500000Y-46750000D01*
X51031336Y-46750000D01*
X50990743Y-46755056D01*
X50849363Y-46732158D01*
X50720092Y-46670499D01*
X50613323Y-46575036D01*
X50537639Y-46453444D01*
X50499123Y-46315497D01*
X50500000Y-46243727D01*
X50500000Y-45818638D01*
X50499123Y-45815497D01*
X50500873Y-45672285D01*
X50542747Y-45535320D01*
X50621380Y-45415614D01*
X50730449Y-45322788D01*
X50861188Y-45264306D01*
X51003086Y-45244868D01*
X51037424Y-45250000D01*
G37*
G04 #@! TD.AperFunction*
G04 #@! TA.AperFunction,SMDPad,CuDef*
G36*
X52444735Y-45266038D02*
G01*
X52574750Y-45326113D01*
X52682677Y-45420264D01*
X52759841Y-45540923D01*
X52800039Y-45678389D01*
X52799164Y-45750000D01*
X52800000Y-45750000D01*
X52800000Y-46178256D01*
X52800039Y-46178389D01*
X52800000Y-46181581D01*
X52800000Y-46250000D01*
X52799164Y-46250000D01*
X52798140Y-46333807D01*
X52754596Y-46470250D01*
X52674507Y-46588987D01*
X52564311Y-46680473D01*
X52432868Y-46737354D01*
X52290743Y-46755056D01*
X52259526Y-46750000D01*
X51800000Y-46750000D01*
X51800000Y-46318638D01*
X51799123Y-46315497D01*
X51800000Y-46243727D01*
X51800000Y-45818638D01*
X51799123Y-45815497D01*
X51800000Y-45743727D01*
X51800000Y-45250000D01*
X52265622Y-45250000D01*
X52303086Y-45244868D01*
X52444735Y-45266038D01*
G37*
G04 #@! TD.AperFunction*
G04 #@! TA.AperFunction,SMDPad,CuDef*
G36*
X40612576Y-33750000D02*
G01*
X40150000Y-33749999D01*
X40150000Y-33321743D01*
X40149961Y-33321610D01*
X40150000Y-33318418D01*
X40150000Y-32821744D01*
X40149961Y-32821611D01*
X40150000Y-32818419D01*
X40150001Y-32250000D01*
X40618665Y-32250000D01*
X40659257Y-32244944D01*
X40800637Y-32267842D01*
X40929908Y-32329501D01*
X41036677Y-32424964D01*
X41112361Y-32546557D01*
X41150877Y-32684504D01*
X41150000Y-32756274D01*
X41150000Y-33181362D01*
X41150877Y-33184503D01*
X41149126Y-33327715D01*
X41107252Y-33464680D01*
X41028619Y-33584386D01*
X40919550Y-33677212D01*
X40788811Y-33735694D01*
X40646914Y-33755132D01*
X40612576Y-33750000D01*
G37*
G04 #@! TD.AperFunction*
G04 #@! TA.AperFunction,SMDPad,CuDef*
G36*
X39205265Y-33733962D02*
G01*
X39075250Y-33673887D01*
X38967323Y-33579736D01*
X38890159Y-33459076D01*
X38849961Y-33321610D01*
X38850836Y-33249999D01*
X38850000Y-33249999D01*
X38850000Y-32821744D01*
X38849961Y-32821611D01*
X38850000Y-32818419D01*
X38850001Y-32750000D01*
X38850837Y-32750000D01*
X38851861Y-32666193D01*
X38895405Y-32529750D01*
X38975494Y-32411013D01*
X39085690Y-32319527D01*
X39217133Y-32262646D01*
X39359257Y-32244944D01*
X39390474Y-32250000D01*
X39850000Y-32250001D01*
X39850000Y-32681363D01*
X39850877Y-32684504D01*
X39850000Y-32756274D01*
X39850000Y-33181362D01*
X39850877Y-33184503D01*
X39849999Y-33256273D01*
X39849999Y-33750000D01*
X39384377Y-33750000D01*
X39346914Y-33755132D01*
X39205265Y-33733962D01*
G37*
G04 #@! TD.AperFunction*
G04 #@! TA.AperFunction,SMDPad,CuDef*
G36*
X43612576Y-44250000D02*
G01*
X43150000Y-44249999D01*
X43150000Y-43821743D01*
X43149961Y-43821610D01*
X43150000Y-43818418D01*
X43150000Y-43321744D01*
X43149961Y-43321611D01*
X43150000Y-43318419D01*
X43150001Y-42750000D01*
X43618665Y-42750000D01*
X43659257Y-42744944D01*
X43800637Y-42767842D01*
X43929908Y-42829501D01*
X44036677Y-42924964D01*
X44112361Y-43046557D01*
X44150877Y-43184504D01*
X44150000Y-43256274D01*
X44150000Y-43681362D01*
X44150877Y-43684503D01*
X44149126Y-43827715D01*
X44107252Y-43964680D01*
X44028619Y-44084386D01*
X43919550Y-44177212D01*
X43788811Y-44235694D01*
X43646914Y-44255132D01*
X43612576Y-44250000D01*
G37*
G04 #@! TD.AperFunction*
G04 #@! TA.AperFunction,SMDPad,CuDef*
G36*
X42205265Y-44233962D02*
G01*
X42075250Y-44173887D01*
X41967323Y-44079736D01*
X41890159Y-43959076D01*
X41849961Y-43821610D01*
X41850836Y-43749999D01*
X41850000Y-43749999D01*
X41850000Y-43321744D01*
X41849961Y-43321611D01*
X41850000Y-43318419D01*
X41850001Y-43250000D01*
X41850837Y-43250000D01*
X41851861Y-43166193D01*
X41895405Y-43029750D01*
X41975494Y-42911013D01*
X42085690Y-42819527D01*
X42217133Y-42762646D01*
X42359257Y-42744944D01*
X42390474Y-42750000D01*
X42850000Y-42750001D01*
X42850000Y-43181363D01*
X42850877Y-43184504D01*
X42850000Y-43256274D01*
X42850000Y-43681362D01*
X42850877Y-43684503D01*
X42849999Y-43756273D01*
X42849999Y-44250000D01*
X42384377Y-44250000D01*
X42346914Y-44255132D01*
X42205265Y-44233962D01*
G37*
G04 #@! TD.AperFunction*
G04 #@! TA.AperFunction,SMDPad,CuDef*
G36*
X43462576Y-36750000D02*
G01*
X43000000Y-36749999D01*
X43000000Y-36321743D01*
X42999961Y-36321610D01*
X43000000Y-36318418D01*
X43000000Y-35821744D01*
X42999961Y-35821611D01*
X43000000Y-35818419D01*
X43000001Y-35250000D01*
X43468665Y-35250000D01*
X43509257Y-35244944D01*
X43650637Y-35267842D01*
X43779908Y-35329501D01*
X43886677Y-35424964D01*
X43962361Y-35546557D01*
X44000877Y-35684504D01*
X44000000Y-35756274D01*
X44000000Y-36181362D01*
X44000877Y-36184503D01*
X43999126Y-36327715D01*
X43957252Y-36464680D01*
X43878619Y-36584386D01*
X43769550Y-36677212D01*
X43638811Y-36735694D01*
X43496914Y-36755132D01*
X43462576Y-36750000D01*
G37*
G04 #@! TD.AperFunction*
G04 #@! TA.AperFunction,SMDPad,CuDef*
G36*
X42055265Y-36733962D02*
G01*
X41925250Y-36673887D01*
X41817323Y-36579736D01*
X41740159Y-36459076D01*
X41699961Y-36321610D01*
X41700836Y-36249999D01*
X41700000Y-36249999D01*
X41700000Y-35821744D01*
X41699961Y-35821611D01*
X41700000Y-35818419D01*
X41700001Y-35750000D01*
X41700837Y-35750000D01*
X41701861Y-35666193D01*
X41745405Y-35529750D01*
X41825494Y-35411013D01*
X41935690Y-35319527D01*
X42067133Y-35262646D01*
X42209257Y-35244944D01*
X42240474Y-35250000D01*
X42700000Y-35250001D01*
X42700000Y-35681363D01*
X42700877Y-35684504D01*
X42700000Y-35756274D01*
X42700000Y-36181362D01*
X42700877Y-36184503D01*
X42699999Y-36256273D01*
X42699999Y-36750000D01*
X42234377Y-36750000D01*
X42196914Y-36755132D01*
X42055265Y-36733962D01*
G37*
G04 #@! TD.AperFunction*
G04 #@! TA.AperFunction,SMDPad,CuDef*
G36*
X43512576Y-39250000D02*
G01*
X43050000Y-39249999D01*
X43050000Y-38821743D01*
X43049961Y-38821610D01*
X43050000Y-38818418D01*
X43050000Y-38321744D01*
X43049961Y-38321611D01*
X43050000Y-38318419D01*
X43050001Y-37750000D01*
X43518665Y-37750000D01*
X43559257Y-37744944D01*
X43700637Y-37767842D01*
X43829908Y-37829501D01*
X43936677Y-37924964D01*
X44012361Y-38046557D01*
X44050877Y-38184504D01*
X44050000Y-38256274D01*
X44050000Y-38681362D01*
X44050877Y-38684503D01*
X44049126Y-38827715D01*
X44007252Y-38964680D01*
X43928619Y-39084386D01*
X43819550Y-39177212D01*
X43688811Y-39235694D01*
X43546914Y-39255132D01*
X43512576Y-39250000D01*
G37*
G04 #@! TD.AperFunction*
G04 #@! TA.AperFunction,SMDPad,CuDef*
G36*
X42105265Y-39233962D02*
G01*
X41975250Y-39173887D01*
X41867323Y-39079736D01*
X41790159Y-38959076D01*
X41749961Y-38821610D01*
X41750836Y-38749999D01*
X41750000Y-38749999D01*
X41750000Y-38321744D01*
X41749961Y-38321611D01*
X41750000Y-38318419D01*
X41750001Y-38250000D01*
X41750837Y-38250000D01*
X41751861Y-38166193D01*
X41795405Y-38029750D01*
X41875494Y-37911013D01*
X41985690Y-37819527D01*
X42117133Y-37762646D01*
X42259257Y-37744944D01*
X42290474Y-37750000D01*
X42750000Y-37750001D01*
X42750000Y-38181363D01*
X42750877Y-38184504D01*
X42750000Y-38256274D01*
X42750000Y-38681362D01*
X42750877Y-38684503D01*
X42749999Y-38756273D01*
X42749999Y-39250000D01*
X42284377Y-39250000D01*
X42246914Y-39255132D01*
X42105265Y-39233962D01*
G37*
G04 #@! TD.AperFunction*
G04 #@! TA.AperFunction,SMDPad,CuDef*
G36*
X46612576Y-33750000D02*
G01*
X46150000Y-33749999D01*
X46150000Y-33321743D01*
X46149961Y-33321610D01*
X46150000Y-33318418D01*
X46150000Y-32821744D01*
X46149961Y-32821611D01*
X46150000Y-32818419D01*
X46150001Y-32250000D01*
X46618665Y-32250000D01*
X46659257Y-32244944D01*
X46800637Y-32267842D01*
X46929908Y-32329501D01*
X47036677Y-32424964D01*
X47112361Y-32546557D01*
X47150877Y-32684504D01*
X47150000Y-32756274D01*
X47150000Y-33181362D01*
X47150877Y-33184503D01*
X47149126Y-33327715D01*
X47107252Y-33464680D01*
X47028619Y-33584386D01*
X46919550Y-33677212D01*
X46788811Y-33735694D01*
X46646914Y-33755132D01*
X46612576Y-33750000D01*
G37*
G04 #@! TD.AperFunction*
G04 #@! TA.AperFunction,SMDPad,CuDef*
G36*
X45205265Y-33733962D02*
G01*
X45075250Y-33673887D01*
X44967323Y-33579736D01*
X44890159Y-33459076D01*
X44849961Y-33321610D01*
X44850836Y-33249999D01*
X44850000Y-33249999D01*
X44850000Y-32821744D01*
X44849961Y-32821611D01*
X44850000Y-32818419D01*
X44850001Y-32750000D01*
X44850837Y-32750000D01*
X44851861Y-32666193D01*
X44895405Y-32529750D01*
X44975494Y-32411013D01*
X45085690Y-32319527D01*
X45217133Y-32262646D01*
X45359257Y-32244944D01*
X45390474Y-32250000D01*
X45850000Y-32250001D01*
X45850000Y-32681363D01*
X45850877Y-32684504D01*
X45850000Y-32756274D01*
X45850000Y-33181362D01*
X45850877Y-33184503D01*
X45849999Y-33256273D01*
X45849999Y-33750000D01*
X45384377Y-33750000D01*
X45346914Y-33755132D01*
X45205265Y-33733962D01*
G37*
G04 #@! TD.AperFunction*
D11*
X62000000Y-60540000D03*
D12*
X62000000Y-58000000D03*
D13*
X63500000Y-41425000D03*
X63500000Y-48575000D03*
D14*
X48000000Y-76750000D03*
X47500000Y-67000000D03*
X57250000Y-30250000D03*
X62750000Y-25250000D03*
X57250000Y-24750000D03*
X56000000Y-12500000D03*
X39250000Y-17500000D03*
X34750000Y-19750000D03*
X32000000Y-21250000D03*
X19250000Y-72250000D03*
X15000000Y-65250000D03*
X13000000Y-81750000D03*
X62750000Y-65250000D03*
X62750000Y-77750000D03*
X62250000Y-38500000D03*
X58000000Y-52250000D03*
X62250000Y-52500000D03*
X47000000Y-51750000D03*
X47000000Y-57000000D03*
X49750000Y-51500000D03*
X47000000Y-47000000D03*
X37250000Y-43750000D03*
X33500000Y-41500000D03*
X25250000Y-44750000D03*
X25250000Y-40500000D03*
X34000000Y-73000000D03*
X30250000Y-73000000D03*
X26250000Y-73000000D03*
X41250000Y-77250000D03*
X56250000Y-77750000D03*
X49750000Y-48500000D03*
X43572854Y-33626243D03*
X46000000Y-35250000D03*
X46000000Y-42250000D03*
X46000000Y-41000000D03*
X46000000Y-39750000D03*
X46000000Y-38500000D03*
X46000000Y-37250000D03*
X41750000Y-47750000D03*
X34000000Y-30194998D03*
X30500000Y-30000000D03*
X25000000Y-30980979D03*
X24000000Y-34133485D03*
X29000794Y-36500794D03*
X23750000Y-38250000D03*
X26250000Y-34500000D03*
X50750000Y-26750000D03*
X50250000Y-25000000D03*
X45237340Y-23487340D03*
X44250000Y-25500000D03*
X50750000Y-23000000D03*
X47000000Y-26000000D03*
X48750000Y-32750000D03*
X51000000Y-33500000D03*
X56250000Y-34500000D03*
X20000000Y-84000000D03*
X22999999Y-83999999D03*
X37000000Y-84000000D03*
X33999999Y-83999999D03*
X31000000Y-84000000D03*
X27999999Y-83999999D03*
X33000000Y-66000000D03*
X26500000Y-65750000D03*
X30012660Y-52750000D03*
X31250000Y-52750000D03*
X35000000Y-52750000D03*
X34419261Y-51935895D03*
X36460000Y-46540000D03*
X33750000Y-27750000D03*
X32000000Y-27750000D03*
X28999999Y-27750001D03*
X27500000Y-27750000D03*
X24500000Y-28000000D03*
X58500000Y-42000000D03*
X56000000Y-43000000D03*
X58500000Y-49500000D03*
X56250000Y-46250000D03*
X43000000Y-28000000D03*
X44250000Y-22750000D03*
X43250000Y-22000000D03*
X51000000Y-43750000D03*
X46000000Y-36250000D03*
X41947986Y-34052014D03*
X12250000Y-61500000D03*
X42750000Y-32000000D03*
X38250000Y-36750000D03*
X42000000Y-31000000D03*
X41000000Y-30250000D03*
X29750000Y-65250000D03*
X36500000Y-38500000D03*
X22470773Y-26328270D03*
X31500000Y-33274990D03*
X39475010Y-27512660D03*
X34000000Y-46500000D03*
X32000000Y-13500000D03*
X30000000Y-13500000D03*
X28500000Y-13500000D03*
X32750000Y-36500000D03*
X32024990Y-37362340D03*
X37954423Y-34494936D03*
X27000000Y-52000000D03*
X26985000Y-55485000D03*
X38250000Y-52500000D03*
X35000000Y-56750000D03*
X33500000Y-60500000D03*
X33500000Y-54500000D03*
X57500000Y-39000000D03*
X57500000Y-40250000D03*
X41750000Y-58000000D03*
X54500000Y-39500000D03*
X45000000Y-59500000D03*
X55350010Y-37072490D03*
X56251812Y-37747214D03*
X51500000Y-38500000D03*
X54250000Y-34750000D03*
X35500000Y-12000000D03*
X39000000Y-12000000D03*
X44500000Y-12000000D03*
X43000000Y-87750000D03*
X52000000Y-87750000D03*
X43250000Y-62250000D03*
X52000000Y-62500000D03*
X24750000Y-70250000D03*
X24500000Y-57000000D03*
X17250000Y-19000000D03*
X17500000Y-25000000D03*
X25000000Y-24250000D03*
X26250000Y-13750000D03*
X25000000Y-13750000D03*
X22000000Y-13750000D03*
X60250000Y-18250000D03*
X60750000Y-33750000D03*
X57250000Y-35000000D03*
X59500000Y-43000000D03*
X37500000Y-65000000D03*
X19500000Y-61000000D03*
X22000000Y-57500000D03*
X20500000Y-59000000D03*
X17500000Y-60000000D03*
X22000000Y-53000000D03*
X22000000Y-51250000D03*
X21500000Y-32500000D03*
X43263648Y-29986352D03*
X38425010Y-30059500D03*
D15*
X51000000Y-48500000D02*
X49750000Y-48500000D01*
X44171292Y-35250000D02*
X45434315Y-35250000D01*
X45434315Y-35250000D02*
X46000000Y-35250000D01*
X40650000Y-33000000D02*
X41921292Y-33000000D01*
X41921292Y-33000000D02*
X44171292Y-35250000D01*
X46000000Y-43500000D02*
X46000000Y-42815685D01*
X42500000Y-46000000D02*
X43500000Y-46000000D01*
X46000000Y-42815685D02*
X46000000Y-42250000D01*
X43500000Y-46000000D02*
X46000000Y-43500000D01*
X43650000Y-43500000D02*
X46000000Y-41150000D01*
X46000000Y-41150000D02*
X46000000Y-41000000D01*
X46000000Y-38650000D02*
X46000000Y-38500000D01*
X43650000Y-41000000D02*
X46000000Y-38650000D01*
X43550000Y-38500000D02*
X44800000Y-37250000D01*
X44800000Y-37250000D02*
X46000000Y-37250000D01*
X34955002Y-30194998D02*
X34565685Y-30194998D01*
X35000000Y-30150000D02*
X34955002Y-30194998D01*
X34565685Y-30194998D02*
X34000000Y-30194998D01*
X27000000Y-16300000D02*
X30500000Y-19800000D01*
X30500000Y-29434315D02*
X30500000Y-30000000D01*
X30500000Y-19800000D02*
X30500000Y-29434315D01*
X25169021Y-30980979D02*
X25000000Y-30980979D01*
X26000000Y-30150000D02*
X25169021Y-30980979D01*
X24000000Y-35350000D02*
X24000000Y-34133485D01*
X29000794Y-35935109D02*
X29000794Y-36500794D01*
X29000794Y-33149206D02*
X29000794Y-35935109D01*
X32000000Y-30150000D02*
X29000794Y-33149206D01*
X29750000Y-37750000D02*
X28750000Y-37750000D01*
X30850000Y-36650000D02*
X29750000Y-37750000D01*
X28750000Y-37750000D02*
X27500000Y-36500000D01*
X27500000Y-36500000D02*
X27500000Y-33000000D01*
X30912328Y-38475002D02*
X28225002Y-38475002D01*
X32024990Y-37362340D02*
X30912328Y-38475002D01*
X28225002Y-38475002D02*
X26250000Y-36500000D01*
X26250000Y-35065685D02*
X26250000Y-34500000D01*
X26250000Y-36500000D02*
X26250000Y-35065685D01*
X23750000Y-38815685D02*
X23750000Y-38250000D01*
X31000000Y-81350000D02*
X23750000Y-74100000D01*
X23750000Y-74100000D02*
X23750000Y-38815685D01*
X24000000Y-36650000D02*
X24000000Y-38000000D01*
X24000000Y-38000000D02*
X23750000Y-38250000D01*
X23820480Y-33000000D02*
X22774998Y-34045482D01*
X27500000Y-33000000D02*
X23820480Y-33000000D01*
X22774998Y-34045482D02*
X22774998Y-76124998D01*
X22774998Y-76124998D02*
X28000000Y-81350000D01*
X29000000Y-30150000D02*
X27500000Y-31650000D01*
X27500000Y-31650000D02*
X27500000Y-33000000D01*
X50250000Y-26250000D02*
X50350001Y-26350001D01*
X50350001Y-26350001D02*
X50750000Y-26750000D01*
X50250000Y-25000000D02*
X50250000Y-26250000D01*
X48750000Y-32750000D02*
X45237340Y-29237340D01*
X45237340Y-24053025D02*
X45237340Y-23487340D01*
X45237340Y-29237340D02*
X45237340Y-24053025D01*
X51000000Y-33500000D02*
X47150000Y-33500000D01*
X47150000Y-33500000D02*
X46650000Y-33000000D01*
X56250000Y-34500000D02*
X57500000Y-33250000D01*
X57500000Y-33250000D02*
X59000000Y-33250000D01*
X20000000Y-82650000D02*
X20000000Y-84000000D01*
X22999999Y-83434314D02*
X22999999Y-83999999D01*
X23000000Y-82650000D02*
X22999999Y-83434314D01*
X32500000Y-80486411D02*
X28919861Y-76906272D01*
X32500000Y-83750000D02*
X32500000Y-80486411D01*
X28919861Y-53842799D02*
X29612661Y-53149999D01*
X27250000Y-84750000D02*
X31500000Y-84750000D01*
X31500000Y-84750000D02*
X32500000Y-83750000D01*
X23000000Y-81350000D02*
X23850000Y-81350000D01*
X23850000Y-81350000D02*
X27250000Y-84750000D01*
X28919861Y-76906272D02*
X28919861Y-53842799D01*
X29612661Y-53149999D02*
X30012660Y-52750000D01*
X37000000Y-82650000D02*
X37000000Y-84000000D01*
X34000000Y-82650000D02*
X33999999Y-83434314D01*
X33999999Y-83434314D02*
X33999999Y-83999999D01*
X31000000Y-82650000D02*
X31000000Y-84000000D01*
X27999999Y-83434314D02*
X27999999Y-83999999D01*
X28000000Y-82650000D02*
X27999999Y-83434314D01*
X33000000Y-67350000D02*
X33000000Y-66000000D01*
X27713589Y-68650000D02*
X28250000Y-68113589D01*
X27000000Y-68650000D02*
X27713589Y-68650000D01*
X28250000Y-68113589D02*
X28250000Y-43250000D01*
X32750000Y-38750000D02*
X32750000Y-37065685D01*
X28250000Y-43250000D02*
X32750000Y-38750000D01*
X32750000Y-37065685D02*
X32750000Y-36500000D01*
X27000000Y-67350000D02*
X26500000Y-66850000D01*
X26500000Y-66315685D02*
X26500000Y-65750000D01*
X26500000Y-66850000D02*
X26500000Y-66315685D01*
X30000000Y-68650000D02*
X30753848Y-68650000D01*
X30753848Y-68650000D02*
X31250000Y-68153848D01*
X31250000Y-53315685D02*
X31250000Y-52750000D01*
X31250000Y-68153848D02*
X31250000Y-53315685D01*
X34149999Y-28149999D02*
X33750000Y-27750000D01*
X34850000Y-28850000D02*
X34149999Y-28149999D01*
X35000000Y-28850000D02*
X34850000Y-28850000D01*
X32000000Y-28850000D02*
X32000000Y-27750000D01*
X28999999Y-28315686D02*
X28999999Y-27750001D01*
X29000000Y-28850000D02*
X28999999Y-28315686D01*
X26000000Y-28850000D02*
X27100000Y-27750000D01*
X27100000Y-27750000D02*
X27500000Y-27750000D01*
X23000000Y-28850000D02*
X23850000Y-28000000D01*
X23850000Y-28000000D02*
X24500000Y-28000000D01*
X44250000Y-22750000D02*
X42000000Y-25000000D01*
X42000000Y-25000000D02*
X42000000Y-31000000D01*
X43250000Y-22000000D02*
X41000000Y-24250000D01*
X41000000Y-24250000D02*
X41000000Y-30250000D01*
X51000000Y-43750000D02*
X51000000Y-46000000D01*
X46000000Y-36250000D02*
X43750000Y-36250000D01*
X43750000Y-36250000D02*
X43500000Y-36000000D01*
X42200000Y-34304028D02*
X41947986Y-34052014D01*
X42200000Y-36000000D02*
X42200000Y-34304028D01*
X12250000Y-74354648D02*
X12250000Y-61500000D01*
X20000000Y-81350000D02*
X19245352Y-81350000D01*
X19245352Y-81350000D02*
X12250000Y-74354648D01*
X38250000Y-36750000D02*
X36450000Y-36750000D01*
X36450000Y-36750000D02*
X36350000Y-36650000D01*
X29750000Y-65250000D02*
X29750000Y-67100000D01*
X29750000Y-67100000D02*
X30000000Y-67350000D01*
X42250000Y-38500000D02*
X36500000Y-38500000D01*
X36250000Y-38500000D02*
X36500000Y-38500000D01*
X30850000Y-33924990D02*
X31500000Y-33274990D01*
X30850000Y-35350000D02*
X30850000Y-33924990D01*
X39475010Y-28078345D02*
X39475010Y-27512660D01*
X39475010Y-28975010D02*
X39475010Y-28078345D01*
X39500000Y-29000000D02*
X39475010Y-28975010D01*
X32000000Y-13500000D02*
X32000000Y-14000000D01*
X32000000Y-14000000D02*
X33000000Y-15000000D01*
X30000000Y-13500000D02*
X30000000Y-15000000D01*
X28500000Y-13500000D02*
X27000000Y-15000000D01*
X36350000Y-35350000D02*
X37205064Y-34494936D01*
X37205064Y-34494936D02*
X37954423Y-34494936D01*
X39350000Y-33000000D02*
X37954423Y-34395577D01*
X37954423Y-34395577D02*
X37954423Y-34494936D01*
X27000000Y-55470000D02*
X26985000Y-55485000D01*
X27000000Y-52000000D02*
X27000000Y-55470000D01*
X34225001Y-68178847D02*
X34225001Y-53524999D01*
X34225001Y-53524999D02*
X34600001Y-53149999D01*
X33753848Y-68650000D02*
X34225001Y-68178847D01*
X34600001Y-53149999D02*
X35000000Y-52750000D01*
X33000000Y-68650000D02*
X33753848Y-68650000D01*
D16*
X33500000Y-54500000D02*
X33500000Y-60500000D01*
X39250000Y-58000000D02*
X41750000Y-58000000D01*
X38250000Y-52500000D02*
X38250000Y-57000000D01*
X38250000Y-57000000D02*
X39250000Y-58000000D01*
X51500000Y-59500000D02*
X45000000Y-59500000D01*
X54500000Y-39500000D02*
X54500000Y-56500000D01*
X54500000Y-56500000D02*
X51500000Y-59500000D01*
D15*
X56422500Y-36000000D02*
X55350010Y-37072490D01*
X59000000Y-36000000D02*
X56422500Y-36000000D01*
X59000000Y-39000000D02*
X59000000Y-38000000D01*
X59000000Y-38000000D02*
X58747214Y-37747214D01*
X58747214Y-37747214D02*
X56817497Y-37747214D01*
X56817497Y-37747214D02*
X56251812Y-37747214D01*
D16*
X54500000Y-35000000D02*
X54250000Y-34750000D01*
X54500000Y-39500000D02*
X54500000Y-35000000D01*
D15*
X24750000Y-57250000D02*
X24500000Y-57000000D01*
X24750000Y-70250000D02*
X24750000Y-57250000D01*
X34399999Y-46100001D02*
X34000000Y-46500000D01*
X34399999Y-33100001D02*
X34399999Y-46100001D01*
X37000000Y-30500000D02*
X34399999Y-33100001D01*
X30000000Y-16300000D02*
X37000000Y-23300000D01*
X37000000Y-23300000D02*
X37000000Y-30500000D01*
X34000000Y-31000000D02*
X34000000Y-30194998D01*
X33600001Y-31399999D02*
X34000000Y-31000000D01*
X34000000Y-79250000D02*
X31750000Y-77000000D01*
X32750000Y-64926998D02*
X32750000Y-39823002D01*
X34000000Y-81350000D02*
X34000000Y-79250000D01*
X31750000Y-77000000D02*
X31750000Y-65926998D01*
X31750000Y-65926998D02*
X32750000Y-64926998D01*
X33600001Y-38973001D02*
X33600001Y-31399999D01*
X32750000Y-39823002D02*
X33600001Y-38973001D01*
X21621723Y-27177320D02*
X22070774Y-26728269D01*
X21621723Y-29871723D02*
X21621723Y-27177320D01*
X23000000Y-30150000D02*
X21900000Y-30150000D01*
X22070774Y-26728269D02*
X22470773Y-26328270D01*
X21900000Y-30150000D02*
X21621723Y-29871723D01*
X44250000Y-26065685D02*
X44250000Y-25500000D01*
X45350000Y-32072704D02*
X43663647Y-30386351D01*
X45350000Y-33000000D02*
X45350000Y-32072704D01*
X43663647Y-30386351D02*
X43263648Y-29986352D01*
X44250000Y-28000996D02*
X44250000Y-26065685D01*
X42588646Y-30310354D02*
X42588646Y-29662350D01*
X42588646Y-29662350D02*
X44250000Y-28000996D01*
X42750000Y-30471708D02*
X42588646Y-30310354D01*
X42750000Y-32000000D02*
X42750000Y-30471708D01*
X37750000Y-30750000D02*
X35269861Y-33230139D01*
X37750000Y-21050000D02*
X37750000Y-30750000D01*
X35269861Y-33230139D02*
X35269861Y-45349861D01*
X33000000Y-16300000D02*
X37750000Y-21050000D01*
X36060001Y-46140001D02*
X36460000Y-46540000D01*
X38515510Y-30150000D02*
X38425010Y-30059500D01*
X35269861Y-45349861D02*
X36060001Y-46140001D01*
X39500000Y-30150000D02*
X38515510Y-30150000D01*
X35250000Y-57565685D02*
X35000000Y-57315685D01*
X35000000Y-57315685D02*
X35000000Y-56750000D01*
X37000000Y-81350000D02*
X35250000Y-79600000D01*
X35250000Y-79600000D02*
X35250000Y-57565685D01*
G36*
X64366000Y-40348931D02*
G01*
X64166711Y-40285713D01*
X63979155Y-40266000D01*
X63628000Y-40266000D01*
X63627999Y-41297001D01*
X63628000Y-41297001D01*
X63627999Y-42584000D01*
X63982135Y-42584000D01*
X64151206Y-42567422D01*
X64366000Y-42502573D01*
X64366000Y-47498931D01*
X64166711Y-47435713D01*
X63979155Y-47416000D01*
X63628000Y-47416000D01*
X63627999Y-48447001D01*
X63628000Y-48447001D01*
X63627999Y-49734000D01*
X63982135Y-49734000D01*
X64151206Y-49717422D01*
X64366000Y-49652572D01*
X64366001Y-89366000D01*
X10634000Y-89366000D01*
X10634000Y-88317582D01*
X11863438Y-88317582D01*
X12091186Y-88483050D01*
X12334375Y-88606961D01*
X12593954Y-88691302D01*
X12863531Y-88734000D01*
X13136469Y-88734000D01*
X13406046Y-88691302D01*
X13665625Y-88606961D01*
X13908814Y-88483050D01*
X14136562Y-88317582D01*
X60863438Y-88317582D01*
X61091186Y-88483050D01*
X61334375Y-88606961D01*
X61593954Y-88691302D01*
X61863531Y-88734000D01*
X62136469Y-88734000D01*
X62406046Y-88691302D01*
X62665625Y-88606961D01*
X62908814Y-88483050D01*
X63136562Y-88317582D01*
X62000000Y-87181019D01*
X60863438Y-88317582D01*
X14136562Y-88317582D01*
X13000000Y-87181019D01*
X11863438Y-88317582D01*
X10634000Y-88317582D01*
X10634000Y-86863531D01*
X11266000Y-86863531D01*
X11266000Y-87136469D01*
X11308698Y-87406046D01*
X11393039Y-87665625D01*
X11516950Y-87908814D01*
X11682418Y-88136562D01*
X12818981Y-87000000D01*
X13181019Y-87000000D01*
X14317582Y-88136562D01*
X14483050Y-87908814D01*
X14606961Y-87665625D01*
X14691302Y-87406046D01*
X14734000Y-87136469D01*
X14734000Y-86863531D01*
X60266000Y-86863531D01*
X60266000Y-87136469D01*
X60308698Y-87406046D01*
X60393039Y-87665625D01*
X60516950Y-87908814D01*
X60682418Y-88136562D01*
X61818981Y-87000000D01*
X62181019Y-87000000D01*
X63317582Y-88136562D01*
X63483050Y-87908814D01*
X63606961Y-87665625D01*
X63691302Y-87406046D01*
X63734000Y-87136469D01*
X63734000Y-86863531D01*
X63691302Y-86593954D01*
X63606961Y-86334375D01*
X63483050Y-86091186D01*
X63317582Y-85863438D01*
X62181019Y-87000000D01*
X61818981Y-87000000D01*
X60682418Y-85863438D01*
X60516950Y-86091186D01*
X60393039Y-86334375D01*
X60308698Y-86593954D01*
X60266000Y-86863531D01*
X14734000Y-86863531D01*
X14691302Y-86593954D01*
X14606961Y-86334375D01*
X14483050Y-86091186D01*
X14317582Y-85863438D01*
X13181019Y-87000000D01*
X12818981Y-87000000D01*
X11682418Y-85863438D01*
X11516950Y-86091186D01*
X11393039Y-86334375D01*
X11308698Y-86593954D01*
X11266000Y-86863531D01*
X10634000Y-86863531D01*
X10634000Y-85682418D01*
X11863438Y-85682418D01*
X13000000Y-86818981D01*
X14136562Y-85682418D01*
X60863438Y-85682418D01*
X62000000Y-86818981D01*
X63136562Y-85682418D01*
X62908814Y-85516950D01*
X62665625Y-85393039D01*
X62406046Y-85308698D01*
X62136469Y-85266000D01*
X61863531Y-85266000D01*
X61593954Y-85308698D01*
X61334375Y-85393039D01*
X61091186Y-85516950D01*
X60863438Y-85682418D01*
X14136562Y-85682418D01*
X13908814Y-85516950D01*
X13665625Y-85393039D01*
X13406046Y-85308698D01*
X13136469Y-85266000D01*
X12863531Y-85266000D01*
X12593954Y-85308698D01*
X12334375Y-85393039D01*
X12091186Y-85516950D01*
X11863438Y-85682418D01*
X10634000Y-85682418D01*
X10634000Y-61363872D01*
X11216000Y-61363872D01*
X11216000Y-61636128D01*
X11286466Y-61899109D01*
X11422594Y-62134891D01*
X11491001Y-62203297D01*
X11491000Y-74414891D01*
X11491001Y-74414897D01*
X11491001Y-74474861D01*
X11509688Y-74532372D01*
X11519150Y-74592115D01*
X11546609Y-74646005D01*
X11565297Y-74703522D01*
X11600846Y-74752451D01*
X11628302Y-74806337D01*
X11798657Y-74976693D01*
X11798661Y-74976695D01*
X18610776Y-81788812D01*
X18610776Y-81863545D01*
X18634793Y-81973947D01*
X18610776Y-82140988D01*
X18610776Y-82653452D01*
X18610341Y-82724774D01*
X18610776Y-82727950D01*
X18610776Y-82738576D01*
X18612232Y-82738576D01*
X18632215Y-82884459D01*
X18677134Y-83041630D01*
X18742947Y-83188758D01*
X18830179Y-83327010D01*
X18934640Y-83449751D01*
X19057160Y-83557958D01*
X19060128Y-83559907D01*
X19036466Y-83600891D01*
X18966000Y-83863872D01*
X18966000Y-84136128D01*
X19036466Y-84399109D01*
X19172594Y-84634891D01*
X19365109Y-84827406D01*
X19600891Y-84963534D01*
X19863872Y-85034000D01*
X20136128Y-85034000D01*
X20399109Y-84963534D01*
X20634891Y-84827406D01*
X20827406Y-84634891D01*
X20963534Y-84399109D01*
X21034000Y-84136128D01*
X21034000Y-83863872D01*
X20963534Y-83600891D01*
X20939243Y-83558817D01*
X21045578Y-83469433D01*
X21153007Y-83349281D01*
X21243589Y-83213203D01*
X21312977Y-83067727D01*
X21361724Y-82911695D01*
X21387492Y-82752594D01*
X21390488Y-82589158D01*
X21389224Y-82579007D01*
X21389224Y-82136455D01*
X21365207Y-82026053D01*
X21389224Y-81859012D01*
X21389224Y-81358133D01*
X21390488Y-81289159D01*
X21389224Y-81279011D01*
X21389224Y-81264474D01*
X21387413Y-81264474D01*
X21370567Y-81129219D01*
X21327569Y-80971503D01*
X21263558Y-80823584D01*
X21178026Y-80684282D01*
X21075073Y-80560273D01*
X20953878Y-80450572D01*
X20820257Y-80360443D01*
X20673144Y-80289169D01*
X20519230Y-80240049D01*
X20350979Y-80212798D01*
X20304256Y-80212227D01*
X20304256Y-80210776D01*
X20185535Y-80210776D01*
X20181790Y-80210731D01*
X20130270Y-80210101D01*
X20130270Y-80210776D01*
X19736456Y-80210776D01*
X19733748Y-80211365D01*
X19676838Y-80210670D01*
X19507968Y-80233803D01*
X19352900Y-80279148D01*
X19280710Y-80311970D01*
X13009000Y-74040262D01*
X13009000Y-62203296D01*
X13077406Y-62134891D01*
X13213534Y-61899109D01*
X13284000Y-61636128D01*
X13284000Y-61363872D01*
X13213534Y-61100891D01*
X13077406Y-60865109D01*
X12884891Y-60672594D01*
X12649109Y-60536466D01*
X12386128Y-60466000D01*
X12113872Y-60466000D01*
X11850891Y-60536466D01*
X11615109Y-60672594D01*
X11422594Y-60865109D01*
X11286466Y-61100891D01*
X11216000Y-61363872D01*
X10634000Y-61363872D01*
X10634000Y-29931966D01*
X20862723Y-29931966D01*
X20862724Y-29931972D01*
X20862724Y-29991936D01*
X20881411Y-30049447D01*
X20890873Y-30109190D01*
X20918332Y-30163080D01*
X20937020Y-30220597D01*
X20972569Y-30269526D01*
X21000025Y-30323412D01*
X21170380Y-30493768D01*
X21170384Y-30493770D01*
X21277953Y-30601339D01*
X21277955Y-30601343D01*
X21448310Y-30771697D01*
X21502199Y-30799156D01*
X21551127Y-30834704D01*
X21608641Y-30853390D01*
X21662532Y-30880850D01*
X21722274Y-30890312D01*
X21779786Y-30908999D01*
X21839750Y-30908999D01*
X21839756Y-30909000D01*
X21899418Y-30909000D01*
X21924928Y-30939727D01*
X22046122Y-31049427D01*
X22179743Y-31139556D01*
X22326856Y-31210830D01*
X22480770Y-31259950D01*
X22649020Y-31287201D01*
X22695744Y-31287772D01*
X22695744Y-31289224D01*
X22814450Y-31289224D01*
X22869730Y-31289900D01*
X22869730Y-31289224D01*
X23263544Y-31289224D01*
X23266252Y-31288635D01*
X23323162Y-31289330D01*
X23492032Y-31266197D01*
X23647101Y-31220852D01*
X23795906Y-31153194D01*
X23931690Y-31066358D01*
X23966000Y-31036795D01*
X23966000Y-31117107D01*
X24036466Y-31380088D01*
X24172594Y-31615870D01*
X24365109Y-31808385D01*
X24600891Y-31944513D01*
X24863872Y-32014979D01*
X25136128Y-32014979D01*
X25399109Y-31944513D01*
X25634891Y-31808385D01*
X25827406Y-31615870D01*
X25963534Y-31380088D01*
X25987881Y-31289224D01*
X26263544Y-31289224D01*
X26266252Y-31288635D01*
X26323162Y-31289330D01*
X26492032Y-31266197D01*
X26647101Y-31220852D01*
X26795906Y-31153194D01*
X26931690Y-31066358D01*
X27055529Y-30959652D01*
X27161482Y-30838196D01*
X27250396Y-30701022D01*
X27318001Y-30554709D01*
X27364837Y-30398098D01*
X27388661Y-30238693D01*
X27389659Y-30075227D01*
X27389224Y-30072051D01*
X27389224Y-29636455D01*
X27365207Y-29526047D01*
X27389224Y-29359012D01*
X27389224Y-28846548D01*
X27389605Y-28784000D01*
X27611837Y-28784000D01*
X27609512Y-28910842D01*
X27610776Y-28920993D01*
X27610776Y-29363545D01*
X27634793Y-29473953D01*
X27610776Y-29640988D01*
X27610776Y-30141867D01*
X27609512Y-30210841D01*
X27610776Y-30220989D01*
X27610776Y-30235526D01*
X27612587Y-30235526D01*
X27629433Y-30370781D01*
X27645800Y-30430814D01*
X27048661Y-31027953D01*
X27048657Y-31027955D01*
X26878302Y-31198311D01*
X26850846Y-31252197D01*
X26815297Y-31301126D01*
X26796609Y-31358643D01*
X26769150Y-31412533D01*
X26759688Y-31472276D01*
X26741001Y-31529787D01*
X26741001Y-31589751D01*
X26741000Y-31589757D01*
X26741001Y-32241000D01*
X23760236Y-32241000D01*
X23760230Y-32241001D01*
X23700266Y-32241001D01*
X23642755Y-32259688D01*
X23583012Y-32269150D01*
X23529122Y-32296609D01*
X23471605Y-32315297D01*
X23422676Y-32350846D01*
X23368790Y-32378302D01*
X23319011Y-32428082D01*
X22323659Y-33423435D01*
X22323655Y-33423437D01*
X22153300Y-33593793D01*
X22125844Y-33647679D01*
X22090295Y-33696608D01*
X22071607Y-33754125D01*
X22044148Y-33808015D01*
X22034686Y-33867758D01*
X22015999Y-33925269D01*
X22015999Y-33985233D01*
X22015998Y-33985239D01*
X22015999Y-76024741D01*
X22015999Y-76245211D01*
X22034688Y-76302730D01*
X22044149Y-76362465D01*
X22071606Y-76416353D01*
X22090295Y-76473873D01*
X22125847Y-76522804D01*
X22153301Y-76576688D01*
X22203080Y-76626466D01*
X26645143Y-81068531D01*
X26635163Y-81101902D01*
X26611339Y-81261307D01*
X26610341Y-81424773D01*
X26610776Y-81427949D01*
X26610776Y-81863545D01*
X26634793Y-81973947D01*
X26610776Y-82140988D01*
X26610776Y-82653452D01*
X26610341Y-82724774D01*
X26610776Y-82727950D01*
X26610776Y-82738576D01*
X26612232Y-82738576D01*
X26632215Y-82884459D01*
X26677134Y-83041630D01*
X26727410Y-83154024D01*
X24472047Y-80898661D01*
X24472045Y-80898657D01*
X24301690Y-80728303D01*
X24247801Y-80700844D01*
X24198873Y-80665296D01*
X24148741Y-80649008D01*
X24075073Y-80560273D01*
X23953878Y-80450572D01*
X23820257Y-80360443D01*
X23673144Y-80289169D01*
X23519230Y-80240049D01*
X23350979Y-80212798D01*
X23304256Y-80212227D01*
X23304256Y-80210776D01*
X23185535Y-80210776D01*
X23181790Y-80210731D01*
X23130270Y-80210101D01*
X23130270Y-80210776D01*
X22736456Y-80210776D01*
X22733748Y-80211365D01*
X22676838Y-80210670D01*
X22507968Y-80233803D01*
X22352900Y-80279148D01*
X22204093Y-80346805D01*
X22068309Y-80433642D01*
X21944470Y-80540348D01*
X21838517Y-80661804D01*
X21749604Y-80798978D01*
X21681999Y-80945291D01*
X21635163Y-81101902D01*
X21611339Y-81261307D01*
X21610341Y-81424773D01*
X21610776Y-81427949D01*
X21610776Y-81863545D01*
X21634793Y-81973947D01*
X21610776Y-82140988D01*
X21610776Y-82653452D01*
X21610341Y-82724774D01*
X21610776Y-82727950D01*
X21610776Y-82738576D01*
X21612232Y-82738576D01*
X21632215Y-82884459D01*
X21677134Y-83041630D01*
X21742947Y-83188758D01*
X21830179Y-83327010D01*
X21934640Y-83449751D01*
X22057160Y-83557958D01*
X22060127Y-83559907D01*
X22036465Y-83600890D01*
X21965999Y-83863871D01*
X21965999Y-84136127D01*
X22036465Y-84399108D01*
X22172593Y-84634890D01*
X22365108Y-84827405D01*
X22600890Y-84963533D01*
X22863871Y-85033999D01*
X23136127Y-85033999D01*
X23399108Y-84963533D01*
X23634890Y-84827405D01*
X23827405Y-84634890D01*
X23963533Y-84399108D01*
X24033999Y-84136127D01*
X24033999Y-83863871D01*
X23963533Y-83600890D01*
X23939242Y-83558817D01*
X24045578Y-83469433D01*
X24153007Y-83349281D01*
X24243589Y-83213203D01*
X24312977Y-83067727D01*
X24356150Y-82929536D01*
X26642414Y-85215801D01*
X26798310Y-85371698D01*
X26852196Y-85399154D01*
X26901125Y-85434703D01*
X26958642Y-85453391D01*
X27012532Y-85480850D01*
X27072275Y-85490312D01*
X27129786Y-85508999D01*
X27189750Y-85508999D01*
X27189756Y-85509000D01*
X31560244Y-85509000D01*
X31560250Y-85508999D01*
X31620213Y-85508999D01*
X31677726Y-85490312D01*
X31737468Y-85480850D01*
X31791359Y-85453390D01*
X31848873Y-85434704D01*
X31897801Y-85399156D01*
X31951690Y-85371697D01*
X32122045Y-85201343D01*
X32122046Y-85201341D01*
X33012758Y-84310631D01*
X33036465Y-84399108D01*
X33172593Y-84634890D01*
X33365108Y-84827405D01*
X33600890Y-84963533D01*
X33863871Y-85033999D01*
X34136127Y-85033999D01*
X34399108Y-84963533D01*
X34634890Y-84827405D01*
X34827405Y-84634890D01*
X34963533Y-84399108D01*
X35033999Y-84136127D01*
X35033999Y-83863871D01*
X34963533Y-83600890D01*
X34939641Y-83559507D01*
X35055529Y-83459652D01*
X35161482Y-83338196D01*
X35250396Y-83201022D01*
X35318001Y-83054709D01*
X35364837Y-82898098D01*
X35388661Y-82738693D01*
X35389659Y-82575227D01*
X35389224Y-82572051D01*
X35389224Y-82136455D01*
X35365207Y-82026047D01*
X35389224Y-81859012D01*
X35389224Y-81346548D01*
X35389659Y-81275226D01*
X35389224Y-81272050D01*
X35389224Y-81261424D01*
X35387768Y-81261424D01*
X35367785Y-81115541D01*
X35322866Y-80958370D01*
X35257053Y-80811242D01*
X35169821Y-80672990D01*
X35065360Y-80550249D01*
X34942840Y-80442043D01*
X34808129Y-80353553D01*
X34759000Y-80330487D01*
X34759000Y-80182388D01*
X34798657Y-80222045D01*
X34798659Y-80222046D01*
X35644618Y-81068006D01*
X35638276Y-81088304D01*
X35612508Y-81247406D01*
X35609512Y-81410842D01*
X35610776Y-81420993D01*
X35610776Y-81863545D01*
X35634793Y-81973953D01*
X35610776Y-82140988D01*
X35610776Y-82641867D01*
X35609512Y-82710841D01*
X35610776Y-82720989D01*
X35610776Y-82735526D01*
X35612587Y-82735526D01*
X35629433Y-82870781D01*
X35672431Y-83028497D01*
X35736442Y-83176416D01*
X35821974Y-83315718D01*
X35924927Y-83439727D01*
X36046122Y-83549427D01*
X36060557Y-83559164D01*
X36036466Y-83600891D01*
X35966000Y-83863872D01*
X35966000Y-84136128D01*
X36036466Y-84399109D01*
X36172594Y-84634891D01*
X36365109Y-84827406D01*
X36600891Y-84963534D01*
X36863872Y-85034000D01*
X37136128Y-85034000D01*
X37399109Y-84963534D01*
X37634891Y-84827406D01*
X37827406Y-84634891D01*
X37963534Y-84399109D01*
X38034000Y-84136128D01*
X38034000Y-83863872D01*
X37963534Y-83600891D01*
X37939641Y-83559507D01*
X38055529Y-83459652D01*
X38161482Y-83338196D01*
X38250396Y-83201022D01*
X38318001Y-83054709D01*
X38364837Y-82898098D01*
X38388661Y-82738693D01*
X38389659Y-82575227D01*
X38389224Y-82572051D01*
X38389224Y-82136455D01*
X38365207Y-82026047D01*
X38389224Y-81859012D01*
X38389224Y-81346548D01*
X38389659Y-81275226D01*
X38389224Y-81272050D01*
X38389224Y-81261424D01*
X38387768Y-81261424D01*
X38367785Y-81115541D01*
X38322866Y-80958370D01*
X38257053Y-80811242D01*
X38169821Y-80672990D01*
X38065360Y-80550249D01*
X37942840Y-80442043D01*
X37808129Y-80353553D01*
X37660154Y-80284079D01*
X37506020Y-80236956D01*
X37344502Y-80211807D01*
X37307362Y-80211353D01*
X37307362Y-80210776D01*
X37260156Y-80210776D01*
X37183336Y-80209837D01*
X37176156Y-80210776D01*
X36934163Y-80210776D01*
X36009000Y-79285614D01*
X36009000Y-60668000D01*
X60502453Y-60668000D01*
X60590516Y-61021201D01*
X60691744Y-61251804D01*
X60830378Y-61462055D01*
X61002457Y-61645942D01*
X61203058Y-61798206D01*
X61426446Y-61914494D01*
X61666233Y-61991482D01*
X61872000Y-62020765D01*
X61872000Y-60668000D01*
X62128000Y-60668000D01*
X62128000Y-62027789D01*
X62414270Y-61970587D01*
X62649387Y-61880334D01*
X62865934Y-61751757D01*
X63057723Y-61588533D01*
X63219268Y-61395327D01*
X63345949Y-61177666D01*
X63434148Y-60941771D01*
X63486373Y-60668000D01*
X62128000Y-60668000D01*
X61872000Y-60668000D01*
X60502453Y-60668000D01*
X36009000Y-60668000D01*
X36009000Y-59363872D01*
X43966000Y-59363872D01*
X43966000Y-59636128D01*
X44036466Y-59899109D01*
X44172594Y-60134891D01*
X44365109Y-60327406D01*
X44600891Y-60463534D01*
X44863872Y-60534000D01*
X45136128Y-60534000D01*
X45399109Y-60463534D01*
X45488369Y-60412000D01*
X60497435Y-60412000D01*
X63483674Y-60412000D01*
X63441596Y-60165835D01*
X63357944Y-59928291D01*
X63235463Y-59708237D01*
X63077658Y-59511966D01*
X63011130Y-59453107D01*
X63167512Y-59411205D01*
X63343165Y-59263815D01*
X63454956Y-59070186D01*
X63491837Y-58861024D01*
X63491837Y-57133412D01*
X63411205Y-56832489D01*
X63263815Y-56656835D01*
X63070186Y-56545044D01*
X62861024Y-56508163D01*
X61133412Y-56508163D01*
X60832489Y-56588795D01*
X60656835Y-56736185D01*
X60545044Y-56929814D01*
X60508163Y-57138976D01*
X60508163Y-58866588D01*
X60588795Y-59167512D01*
X60736185Y-59343165D01*
X60929814Y-59454956D01*
X60977030Y-59463281D01*
X60848296Y-59595661D01*
X60705650Y-59803212D01*
X60600014Y-60031829D01*
X60497435Y-60412000D01*
X45488369Y-60412000D01*
X45536867Y-60384000D01*
X51400970Y-60384000D01*
X51428377Y-60390202D01*
X51528338Y-60384000D01*
X51563400Y-60384000D01*
X51590192Y-60380163D01*
X51681105Y-60374523D01*
X51714985Y-60362291D01*
X51750657Y-60357183D01*
X51833603Y-60319470D01*
X51919643Y-60288409D01*
X51947895Y-60267504D01*
X51981166Y-60252376D01*
X52059157Y-60185174D01*
X52081584Y-60168579D01*
X52101308Y-60148855D01*
X52172992Y-60087088D01*
X52191261Y-60058902D01*
X55055053Y-57195111D01*
X55078822Y-57180114D01*
X55145134Y-57105030D01*
X55169913Y-57080252D01*
X55186140Y-57058600D01*
X55246442Y-56990321D01*
X55261753Y-56957708D01*
X55283361Y-56928877D01*
X55315338Y-56843576D01*
X55354222Y-56760756D01*
X55359418Y-56725994D01*
X55372245Y-56691776D01*
X55379875Y-56589115D01*
X55384000Y-56561513D01*
X55384000Y-56533605D01*
X55391011Y-56439258D01*
X55384000Y-56406414D01*
X55384000Y-48702999D01*
X61904471Y-48702999D01*
X61995200Y-49011268D01*
X62100502Y-49212694D01*
X62242924Y-49389829D01*
X62417038Y-49535929D01*
X62616214Y-49645427D01*
X62833289Y-49714287D01*
X63020845Y-49734000D01*
X63372000Y-49734000D01*
X63372001Y-48703000D01*
X61904471Y-48702999D01*
X55384000Y-48702999D01*
X55384000Y-48447000D01*
X61901318Y-48447000D01*
X63372000Y-48447001D01*
X63372001Y-47416000D01*
X63017865Y-47416000D01*
X62848794Y-47432578D01*
X62631205Y-47498271D01*
X62430519Y-47604978D01*
X62254381Y-47748632D01*
X62109501Y-47923763D01*
X62001396Y-48123699D01*
X61901318Y-48447000D01*
X55384000Y-48447000D01*
X55384000Y-41552999D01*
X61904471Y-41552999D01*
X61995200Y-41861268D01*
X62100502Y-42062694D01*
X62242924Y-42239829D01*
X62417038Y-42385929D01*
X62616214Y-42495427D01*
X62833289Y-42564287D01*
X63020845Y-42584000D01*
X63372000Y-42584000D01*
X63372001Y-41553000D01*
X61904471Y-41552999D01*
X55384000Y-41552999D01*
X55384000Y-41297000D01*
X61901318Y-41297000D01*
X63372000Y-41297001D01*
X63372001Y-40266000D01*
X63017865Y-40266000D01*
X62848794Y-40282578D01*
X62631205Y-40348271D01*
X62430519Y-40454978D01*
X62254381Y-40598632D01*
X62109501Y-40773763D01*
X62001396Y-40973699D01*
X61901318Y-41297000D01*
X55384000Y-41297000D01*
X55384000Y-40036867D01*
X55463534Y-39899109D01*
X55534000Y-39636128D01*
X55534000Y-39363872D01*
X55463534Y-39100891D01*
X55384000Y-38963133D01*
X55384000Y-38312119D01*
X55424406Y-38382105D01*
X55616921Y-38574620D01*
X55852703Y-38710748D01*
X56115684Y-38781214D01*
X56387940Y-38781214D01*
X56650921Y-38710748D01*
X56886703Y-38574620D01*
X56955108Y-38506214D01*
X57608163Y-38506214D01*
X57608163Y-39766588D01*
X57688795Y-40067512D01*
X57836185Y-40243165D01*
X58029814Y-40354956D01*
X58238976Y-40391837D01*
X59766588Y-40391837D01*
X60067512Y-40311205D01*
X60243165Y-40163815D01*
X60354956Y-39970186D01*
X60391837Y-39761024D01*
X60391837Y-38233412D01*
X60311205Y-37932489D01*
X60163815Y-37756835D01*
X59970186Y-37645044D01*
X59761024Y-37608163D01*
X59653489Y-37608163D01*
X59649156Y-37602199D01*
X59621697Y-37548310D01*
X59465225Y-37391837D01*
X59766588Y-37391837D01*
X60067512Y-37311205D01*
X60243165Y-37163815D01*
X60354956Y-36970186D01*
X60391837Y-36761024D01*
X60391837Y-35233412D01*
X60311205Y-34932489D01*
X60163815Y-34756835D01*
X59970186Y-34645044D01*
X59840175Y-34622119D01*
X60067512Y-34561205D01*
X60243165Y-34413815D01*
X60354956Y-34220186D01*
X60391837Y-34011024D01*
X60391837Y-32483412D01*
X60311205Y-32182489D01*
X60163815Y-32006835D01*
X59970186Y-31895044D01*
X59761024Y-31858163D01*
X58233412Y-31858163D01*
X57932489Y-31938795D01*
X57756835Y-32086185D01*
X57645044Y-32279814D01*
X57608163Y-32488976D01*
X57608163Y-32491000D01*
X57439756Y-32491000D01*
X57439750Y-32491001D01*
X57379786Y-32491001D01*
X57322275Y-32509688D01*
X57262532Y-32519150D01*
X57208642Y-32546609D01*
X57151125Y-32565297D01*
X57102196Y-32600846D01*
X57048310Y-32628302D01*
X56998531Y-32678082D01*
X56210614Y-33466000D01*
X56113872Y-33466000D01*
X55850891Y-33536466D01*
X55615109Y-33672594D01*
X55422594Y-33865109D01*
X55286466Y-34100891D01*
X55216506Y-34361983D01*
X55213534Y-34350891D01*
X55077406Y-34115109D01*
X54884891Y-33922594D01*
X54649109Y-33786466D01*
X54386128Y-33716000D01*
X54113872Y-33716000D01*
X53850891Y-33786466D01*
X53615109Y-33922594D01*
X53422594Y-34115109D01*
X53286466Y-34350891D01*
X53216000Y-34613872D01*
X53216000Y-34886128D01*
X53286466Y-35149109D01*
X53422594Y-35384891D01*
X53615109Y-35577406D01*
X53616001Y-35577921D01*
X53616000Y-38963133D01*
X53536466Y-39100891D01*
X53466000Y-39363872D01*
X53466000Y-39636128D01*
X53536466Y-39899109D01*
X53616000Y-40036867D01*
X53616001Y-56133835D01*
X51133837Y-58616000D01*
X45536867Y-58616000D01*
X45399109Y-58536466D01*
X45136128Y-58466000D01*
X44863872Y-58466000D01*
X44600891Y-58536466D01*
X44365109Y-58672594D01*
X44172594Y-58865109D01*
X44036466Y-59100891D01*
X43966000Y-59363872D01*
X36009000Y-59363872D01*
X36009000Y-57505441D01*
X36008999Y-57505435D01*
X36008999Y-57445471D01*
X35990312Y-57387959D01*
X35980850Y-57328217D01*
X35953390Y-57274326D01*
X35934704Y-57216812D01*
X35928988Y-57208945D01*
X35963534Y-57149109D01*
X36034000Y-56886128D01*
X36034000Y-56613872D01*
X35963534Y-56350891D01*
X35827406Y-56115109D01*
X35634891Y-55922594D01*
X35399109Y-55786466D01*
X35136128Y-55716000D01*
X34984001Y-55716000D01*
X34984001Y-53839385D01*
X35039386Y-53784000D01*
X35136128Y-53784000D01*
X35399109Y-53713534D01*
X35634891Y-53577406D01*
X35827406Y-53384891D01*
X35963534Y-53149109D01*
X36034000Y-52886128D01*
X36034000Y-52613872D01*
X35967013Y-52363872D01*
X37216000Y-52363872D01*
X37216000Y-52636128D01*
X37286466Y-52899109D01*
X37366000Y-53036867D01*
X37366001Y-56900965D01*
X37359798Y-56928377D01*
X37366001Y-57028354D01*
X37366001Y-57063399D01*
X37369837Y-57090186D01*
X37375477Y-57181105D01*
X37387711Y-57214995D01*
X37392819Y-57250658D01*
X37430523Y-57333585D01*
X37461592Y-57419645D01*
X37482498Y-57447897D01*
X37497624Y-57481165D01*
X37564815Y-57559143D01*
X37581421Y-57581585D01*
X37601153Y-57601316D01*
X37662913Y-57672992D01*
X37691096Y-57691259D01*
X38554888Y-58555051D01*
X38569885Y-58578821D01*
X38644970Y-58645134D01*
X38669748Y-58669913D01*
X38691400Y-58686140D01*
X38759679Y-58746442D01*
X38792292Y-58761753D01*
X38821123Y-58783361D01*
X38906424Y-58815338D01*
X38989244Y-58854222D01*
X39024006Y-58859418D01*
X39058224Y-58872245D01*
X39160885Y-58879875D01*
X39188487Y-58884000D01*
X39216395Y-58884000D01*
X39310742Y-58891011D01*
X39343586Y-58884000D01*
X41213133Y-58884000D01*
X41350891Y-58963534D01*
X41613872Y-59034000D01*
X41886128Y-59034000D01*
X42149109Y-58963534D01*
X42384891Y-58827406D01*
X42577406Y-58634891D01*
X42713534Y-58399109D01*
X42784000Y-58136128D01*
X42784000Y-57863872D01*
X42713534Y-57600891D01*
X42577406Y-57365109D01*
X42384891Y-57172594D01*
X42149109Y-57036466D01*
X41886128Y-56966000D01*
X41613872Y-56966000D01*
X41350891Y-57036466D01*
X41213133Y-57116000D01*
X39616165Y-57116000D01*
X39134000Y-56633836D01*
X39134000Y-53036867D01*
X39213534Y-52899109D01*
X39284000Y-52636128D01*
X39284000Y-52363872D01*
X39213534Y-52100891D01*
X39077406Y-51865109D01*
X38884891Y-51672594D01*
X38649109Y-51536466D01*
X38386128Y-51466000D01*
X38113872Y-51466000D01*
X37850891Y-51536466D01*
X37615109Y-51672594D01*
X37422594Y-51865109D01*
X37286466Y-52100891D01*
X37216000Y-52363872D01*
X35967013Y-52363872D01*
X35963534Y-52350891D01*
X35827406Y-52115109D01*
X35634891Y-51922594D01*
X35399109Y-51786466D01*
X35136128Y-51716000D01*
X34863872Y-51716000D01*
X34600891Y-51786466D01*
X34365109Y-51922594D01*
X34172594Y-52115109D01*
X34036466Y-52350891D01*
X33966000Y-52613872D01*
X33966000Y-52710614D01*
X33603304Y-53073309D01*
X33575850Y-53127193D01*
X33540298Y-53176124D01*
X33521609Y-53233644D01*
X33509000Y-53258391D01*
X33509000Y-48363872D01*
X48716000Y-48363872D01*
X48716000Y-48636128D01*
X48786466Y-48899109D01*
X48922594Y-49134891D01*
X49115109Y-49327406D01*
X49350891Y-49463534D01*
X49613872Y-49534000D01*
X49886128Y-49534000D01*
X50118497Y-49471737D01*
X50180567Y-49545578D01*
X50300719Y-49653007D01*
X50436797Y-49743589D01*
X50582273Y-49812977D01*
X50738305Y-49861724D01*
X50897406Y-49887492D01*
X51060843Y-49890488D01*
X51070994Y-49889224D01*
X51513547Y-49889224D01*
X51623948Y-49865207D01*
X51790988Y-49889224D01*
X52291868Y-49889224D01*
X52360842Y-49890488D01*
X52370990Y-49889224D01*
X52385526Y-49889224D01*
X52385526Y-49887414D01*
X52520782Y-49870567D01*
X52678498Y-49827569D01*
X52826417Y-49763558D01*
X52965719Y-49678026D01*
X53089728Y-49575073D01*
X53199428Y-49453878D01*
X53289557Y-49320257D01*
X53360831Y-49173144D01*
X53409951Y-49019230D01*
X53437202Y-48850979D01*
X53437773Y-48804256D01*
X53439224Y-48804256D01*
X53439224Y-48685535D01*
X53439272Y-48681581D01*
X53439899Y-48630270D01*
X53439224Y-48630270D01*
X53439224Y-48236455D01*
X53438635Y-48233747D01*
X53439330Y-48176837D01*
X53416197Y-48007967D01*
X53370852Y-47852898D01*
X53303194Y-47704093D01*
X53216358Y-47568309D01*
X53109652Y-47444470D01*
X52988196Y-47338517D01*
X52851022Y-47249604D01*
X52849950Y-47249109D01*
X52965719Y-47178026D01*
X53089728Y-47075073D01*
X53199428Y-46953878D01*
X53289557Y-46820257D01*
X53360831Y-46673144D01*
X53409951Y-46519230D01*
X53437202Y-46350979D01*
X53437773Y-46304256D01*
X53439224Y-46304256D01*
X53439224Y-46185535D01*
X53439272Y-46181581D01*
X53439899Y-46130270D01*
X53439224Y-46130270D01*
X53439224Y-45736455D01*
X53438635Y-45733747D01*
X53439330Y-45676837D01*
X53416197Y-45507967D01*
X53370852Y-45352898D01*
X53303194Y-45204093D01*
X53216358Y-45068309D01*
X53109652Y-44944470D01*
X52988196Y-44838517D01*
X52851022Y-44749604D01*
X52704709Y-44681999D01*
X52548098Y-44635163D01*
X52388693Y-44611339D01*
X52225226Y-44610341D01*
X52222050Y-44610776D01*
X51786453Y-44610776D01*
X51759000Y-44616748D01*
X51759000Y-44453296D01*
X51827406Y-44384891D01*
X51963534Y-44149109D01*
X52034000Y-43886128D01*
X52034000Y-43613872D01*
X51963534Y-43350891D01*
X51827406Y-43115109D01*
X51634891Y-42922594D01*
X51399109Y-42786466D01*
X51136128Y-42716000D01*
X50863872Y-42716000D01*
X50600891Y-42786466D01*
X50365109Y-42922594D01*
X50172594Y-43115109D01*
X50036466Y-43350891D01*
X49966000Y-43613872D01*
X49966000Y-43886128D01*
X50036466Y-44149109D01*
X50172594Y-44384891D01*
X50241000Y-44453296D01*
X50241001Y-44899956D01*
X50200248Y-44934640D01*
X50092042Y-45057160D01*
X50003552Y-45191871D01*
X49934078Y-45339846D01*
X49886955Y-45493980D01*
X49861806Y-45655499D01*
X49861352Y-45692638D01*
X49860776Y-45692638D01*
X49860776Y-45739806D01*
X49859837Y-45816664D01*
X49860776Y-45823844D01*
X49860776Y-46239763D01*
X49859837Y-46316662D01*
X49881033Y-46478753D01*
X49924377Y-46633992D01*
X49990212Y-46783613D01*
X50075383Y-46920446D01*
X50180567Y-47045578D01*
X50300719Y-47153007D01*
X50436797Y-47243589D01*
X50450138Y-47249952D01*
X50322989Y-47330179D01*
X50200248Y-47434640D01*
X50117741Y-47528061D01*
X49886128Y-47466000D01*
X49613872Y-47466000D01*
X49350891Y-47536466D01*
X49115109Y-47672594D01*
X48922594Y-47865109D01*
X48786466Y-48100891D01*
X48716000Y-48363872D01*
X33509000Y-48363872D01*
X33509000Y-47410481D01*
X33600891Y-47463534D01*
X33863872Y-47534000D01*
X34136128Y-47534000D01*
X34399109Y-47463534D01*
X34634891Y-47327406D01*
X34827406Y-47134891D01*
X34963534Y-46899109D01*
X35034000Y-46636128D01*
X35034000Y-46527544D01*
X35049154Y-46497804D01*
X35084702Y-46448876D01*
X35103390Y-46391359D01*
X35130849Y-46337469D01*
X35138127Y-46291516D01*
X35426000Y-46579389D01*
X35426000Y-46676128D01*
X35496466Y-46939109D01*
X35632594Y-47174891D01*
X35825109Y-47367406D01*
X36060891Y-47503534D01*
X36323872Y-47574000D01*
X36596128Y-47574000D01*
X36859109Y-47503534D01*
X37094891Y-47367406D01*
X37287406Y-47174891D01*
X37423534Y-46939109D01*
X37494000Y-46676128D01*
X37494000Y-46403872D01*
X37423534Y-46140891D01*
X37287406Y-45905109D01*
X37094891Y-45712594D01*
X36859109Y-45576466D01*
X36596128Y-45506000D01*
X36499389Y-45506000D01*
X36028861Y-45035473D01*
X36028861Y-39421948D01*
X36100891Y-39463534D01*
X36363872Y-39534000D01*
X36636128Y-39534000D01*
X36899109Y-39463534D01*
X37134891Y-39327406D01*
X37203296Y-39259000D01*
X41230025Y-39259000D01*
X41246806Y-39295907D01*
X41333642Y-39431690D01*
X41440348Y-39555529D01*
X41561804Y-39661482D01*
X41698978Y-39750396D01*
X41757111Y-39777257D01*
X41684282Y-39821974D01*
X41560273Y-39924927D01*
X41450573Y-40046122D01*
X41360444Y-40179743D01*
X41289170Y-40326856D01*
X41240050Y-40480770D01*
X41212798Y-40649020D01*
X41212227Y-40695744D01*
X41210776Y-40695744D01*
X41210776Y-40814465D01*
X41210731Y-40818177D01*
X41210101Y-40869730D01*
X41210776Y-40869730D01*
X41210776Y-41263544D01*
X41211365Y-41266252D01*
X41210670Y-41323162D01*
X41233803Y-41492032D01*
X41279148Y-41647101D01*
X41346806Y-41795906D01*
X41433642Y-41931690D01*
X41540348Y-42055529D01*
X41661804Y-42161482D01*
X41798978Y-42250396D01*
X41800051Y-42250892D01*
X41684282Y-42321974D01*
X41560273Y-42424927D01*
X41450573Y-42546122D01*
X41360444Y-42679743D01*
X41289170Y-42826856D01*
X41240050Y-42980770D01*
X41212798Y-43149020D01*
X41212227Y-43195744D01*
X41210776Y-43195744D01*
X41210776Y-43314465D01*
X41210731Y-43318177D01*
X41210101Y-43369730D01*
X41210776Y-43369730D01*
X41210776Y-43763544D01*
X41211365Y-43766252D01*
X41210670Y-43823162D01*
X41233803Y-43992032D01*
X41279148Y-44147101D01*
X41346806Y-44295906D01*
X41433642Y-44431690D01*
X41540348Y-44555529D01*
X41631872Y-44635371D01*
X41432489Y-44688795D01*
X41256835Y-44836185D01*
X41145044Y-45029814D01*
X41108163Y-45238976D01*
X41108163Y-46766588D01*
X41188795Y-47067512D01*
X41336185Y-47243165D01*
X41529814Y-47354956D01*
X41738976Y-47391837D01*
X43266588Y-47391837D01*
X43567512Y-47311205D01*
X43743165Y-47163815D01*
X43854956Y-46970186D01*
X43891837Y-46761024D01*
X43891837Y-46653489D01*
X43897801Y-46649156D01*
X43951690Y-46621697D01*
X44122045Y-46451343D01*
X44122047Y-46451339D01*
X46571918Y-44001469D01*
X46621698Y-43951690D01*
X46649154Y-43897804D01*
X46684703Y-43848875D01*
X46703391Y-43791358D01*
X46730850Y-43737468D01*
X46740312Y-43677725D01*
X46758999Y-43620214D01*
X46758999Y-43560250D01*
X46759000Y-43560244D01*
X46759000Y-42953296D01*
X46827406Y-42884891D01*
X46963534Y-42649109D01*
X47034000Y-42386128D01*
X47034000Y-42113872D01*
X46963534Y-41850891D01*
X46833117Y-41625000D01*
X46963534Y-41399109D01*
X47034000Y-41136128D01*
X47034000Y-40863872D01*
X46963534Y-40600891D01*
X46827406Y-40365109D01*
X46634891Y-40172594D01*
X46399109Y-40036466D01*
X46136128Y-39966000D01*
X45863872Y-39966000D01*
X45718410Y-40004977D01*
X46208881Y-39514506D01*
X46399109Y-39463534D01*
X46634891Y-39327406D01*
X46827406Y-39134891D01*
X46963534Y-38899109D01*
X47034000Y-38636128D01*
X47034000Y-38363872D01*
X46963534Y-38100891D01*
X46833117Y-37875000D01*
X46963534Y-37649109D01*
X47034000Y-37386128D01*
X47034000Y-37113872D01*
X46963534Y-36850891D01*
X46905285Y-36750000D01*
X46963534Y-36649109D01*
X47034000Y-36386128D01*
X47034000Y-36113872D01*
X46963534Y-35850891D01*
X46905285Y-35750000D01*
X46963534Y-35649109D01*
X47034000Y-35386128D01*
X47034000Y-35113872D01*
X46963534Y-34850891D01*
X46827406Y-34615109D01*
X46634891Y-34422594D01*
X46577092Y-34389224D01*
X46653452Y-34389224D01*
X46724774Y-34389659D01*
X46727950Y-34389224D01*
X46738576Y-34389224D01*
X46738576Y-34387768D01*
X46884459Y-34367785D01*
X47041630Y-34322866D01*
X47184404Y-34259000D01*
X50296704Y-34259000D01*
X50365109Y-34327406D01*
X50600891Y-34463534D01*
X50863872Y-34534000D01*
X51136128Y-34534000D01*
X51399109Y-34463534D01*
X51634891Y-34327406D01*
X51827406Y-34134891D01*
X51963534Y-33899109D01*
X52034000Y-33636128D01*
X52034000Y-33363872D01*
X51963534Y-33100891D01*
X51827406Y-32865109D01*
X51634891Y-32672594D01*
X51399109Y-32536466D01*
X51136128Y-32466000D01*
X50863872Y-32466000D01*
X50600891Y-32536466D01*
X50365109Y-32672594D01*
X50296704Y-32741000D01*
X49784000Y-32741000D01*
X49784000Y-32613872D01*
X49713534Y-32350891D01*
X49577406Y-32115109D01*
X49384891Y-31922594D01*
X49149109Y-31786466D01*
X48886128Y-31716000D01*
X48789387Y-31716000D01*
X45996340Y-28922954D01*
X45996340Y-24863872D01*
X49216000Y-24863872D01*
X49216000Y-25136128D01*
X49286466Y-25399109D01*
X49422594Y-25634891D01*
X49491001Y-25703297D01*
X49491001Y-26370213D01*
X49509690Y-26427732D01*
X49519151Y-26487467D01*
X49546608Y-26541355D01*
X49565297Y-26598875D01*
X49600849Y-26647806D01*
X49628303Y-26701690D01*
X49716000Y-26789386D01*
X49716000Y-26886128D01*
X49786466Y-27149109D01*
X49922594Y-27384891D01*
X50115109Y-27577406D01*
X50350891Y-27713534D01*
X50613872Y-27784000D01*
X50886128Y-27784000D01*
X51149109Y-27713534D01*
X51384891Y-27577406D01*
X51577406Y-27384891D01*
X51713534Y-27149109D01*
X51784000Y-26886128D01*
X51784000Y-26613872D01*
X51713534Y-26350891D01*
X51577406Y-26115109D01*
X51384891Y-25922594D01*
X51149109Y-25786466D01*
X51009000Y-25748924D01*
X51009000Y-25703296D01*
X51077406Y-25634891D01*
X51213534Y-25399109D01*
X51284000Y-25136128D01*
X51284000Y-24863872D01*
X51213534Y-24600891D01*
X51077406Y-24365109D01*
X50884891Y-24172594D01*
X50649109Y-24036466D01*
X50386128Y-23966000D01*
X50113872Y-23966000D01*
X49850891Y-24036466D01*
X49615109Y-24172594D01*
X49422594Y-24365109D01*
X49286466Y-24600891D01*
X49216000Y-24863872D01*
X45996340Y-24863872D01*
X45996340Y-24190636D01*
X46064746Y-24122231D01*
X46200874Y-23886449D01*
X46271340Y-23623468D01*
X46271340Y-23351212D01*
X46200874Y-23088231D01*
X46064746Y-22852449D01*
X45872231Y-22659934D01*
X45636449Y-22523806D01*
X45373468Y-22453340D01*
X45240985Y-22453340D01*
X45213534Y-22350891D01*
X45077406Y-22115109D01*
X44884891Y-21922594D01*
X44649109Y-21786466D01*
X44386128Y-21716000D01*
X44244378Y-21716000D01*
X44213534Y-21600891D01*
X44077406Y-21365109D01*
X43884891Y-21172594D01*
X43649109Y-21036466D01*
X43386128Y-20966000D01*
X43113872Y-20966000D01*
X42850891Y-21036466D01*
X42615109Y-21172594D01*
X42422594Y-21365109D01*
X42286466Y-21600891D01*
X42216000Y-21863872D01*
X42216000Y-21960611D01*
X40548659Y-23627954D01*
X40548657Y-23627955D01*
X40378302Y-23798311D01*
X40350846Y-23852197D01*
X40315297Y-23901126D01*
X40296609Y-23958643D01*
X40269150Y-24012533D01*
X40259688Y-24072276D01*
X40241001Y-24129787D01*
X40241001Y-24189751D01*
X40241000Y-24189757D01*
X40241001Y-26816354D01*
X40109901Y-26685254D01*
X39874119Y-26549126D01*
X39611138Y-26478660D01*
X39338882Y-26478660D01*
X39075901Y-26549126D01*
X38840119Y-26685254D01*
X38647604Y-26877769D01*
X38511476Y-27113551D01*
X38509000Y-27122791D01*
X38509000Y-20989756D01*
X38508999Y-20989750D01*
X38508999Y-20929786D01*
X38490312Y-20872275D01*
X38480850Y-20812532D01*
X38453391Y-20758642D01*
X38434703Y-20701125D01*
X38399154Y-20652196D01*
X38371698Y-20598310D01*
X38321918Y-20548531D01*
X34355382Y-16581996D01*
X34361724Y-16561696D01*
X34387492Y-16402594D01*
X34390488Y-16239158D01*
X34389224Y-16229007D01*
X34389224Y-15786455D01*
X34365207Y-15676053D01*
X34389224Y-15509012D01*
X34389224Y-15008133D01*
X34390488Y-14939159D01*
X34389224Y-14929011D01*
X34389224Y-14914474D01*
X34387413Y-14914474D01*
X34370567Y-14779219D01*
X34327569Y-14621503D01*
X34263558Y-14473584D01*
X34178026Y-14334282D01*
X34164162Y-14317582D01*
X60863438Y-14317582D01*
X61091186Y-14483050D01*
X61334375Y-14606961D01*
X61593954Y-14691302D01*
X61863531Y-14734000D01*
X62136469Y-14734000D01*
X62406046Y-14691302D01*
X62665625Y-14606961D01*
X62908814Y-14483050D01*
X63136562Y-14317582D01*
X62000000Y-13181019D01*
X60863438Y-14317582D01*
X34164162Y-14317582D01*
X34075073Y-14210273D01*
X33953878Y-14100572D01*
X33820257Y-14010443D01*
X33673144Y-13939169D01*
X33519230Y-13890049D01*
X33350979Y-13862798D01*
X33304256Y-13862227D01*
X33304256Y-13860776D01*
X33185535Y-13860776D01*
X33181790Y-13860731D01*
X33130270Y-13860101D01*
X33130270Y-13860776D01*
X32973805Y-13860776D01*
X33034000Y-13636128D01*
X33034000Y-13363872D01*
X32963534Y-13100891D01*
X32827406Y-12865109D01*
X32825828Y-12863531D01*
X60266000Y-12863531D01*
X60266000Y-13136469D01*
X60308698Y-13406046D01*
X60393039Y-13665625D01*
X60516950Y-13908814D01*
X60682418Y-14136562D01*
X61818981Y-13000000D01*
X62181019Y-13000000D01*
X63317582Y-14136562D01*
X63483050Y-13908814D01*
X63606961Y-13665625D01*
X63691302Y-13406046D01*
X63734000Y-13136469D01*
X63734000Y-12863531D01*
X63691302Y-12593954D01*
X63606961Y-12334375D01*
X63483050Y-12091186D01*
X63317582Y-11863438D01*
X62181019Y-13000000D01*
X61818981Y-13000000D01*
X60682418Y-11863438D01*
X60516950Y-12091186D01*
X60393039Y-12334375D01*
X60308698Y-12593954D01*
X60266000Y-12863531D01*
X32825828Y-12863531D01*
X32634891Y-12672594D01*
X32399109Y-12536466D01*
X32136128Y-12466000D01*
X31863872Y-12466000D01*
X31600891Y-12536466D01*
X31365109Y-12672594D01*
X31172594Y-12865109D01*
X31036466Y-13100891D01*
X31000000Y-13236983D01*
X30963534Y-13100891D01*
X30827406Y-12865109D01*
X30634891Y-12672594D01*
X30399109Y-12536466D01*
X30136128Y-12466000D01*
X29863872Y-12466000D01*
X29600891Y-12536466D01*
X29365109Y-12672594D01*
X29250000Y-12787703D01*
X29134891Y-12672594D01*
X28899109Y-12536466D01*
X28636128Y-12466000D01*
X28363872Y-12466000D01*
X28100891Y-12536466D01*
X27865109Y-12672594D01*
X27672594Y-12865109D01*
X27536466Y-13100891D01*
X27466000Y-13363872D01*
X27466000Y-13460612D01*
X27065837Y-13860776D01*
X26760238Y-13860776D01*
X26683339Y-13859837D01*
X26521248Y-13881033D01*
X26366009Y-13924377D01*
X26216388Y-13990212D01*
X26079555Y-14075383D01*
X25954424Y-14180567D01*
X25846993Y-14300719D01*
X25756411Y-14436797D01*
X25687023Y-14582273D01*
X25638276Y-14738305D01*
X25612508Y-14897406D01*
X25609512Y-15060842D01*
X25610776Y-15070993D01*
X25610776Y-15513545D01*
X25634793Y-15623953D01*
X25610776Y-15790988D01*
X25610776Y-16291867D01*
X25609512Y-16360841D01*
X25610776Y-16370989D01*
X25610776Y-16385526D01*
X25612587Y-16385526D01*
X25629433Y-16520781D01*
X25672431Y-16678497D01*
X25736442Y-16826416D01*
X25821974Y-16965718D01*
X25924927Y-17089727D01*
X26046122Y-17199427D01*
X26179743Y-17289556D01*
X26326856Y-17360830D01*
X26480770Y-17409950D01*
X26649020Y-17437201D01*
X26695744Y-17437772D01*
X26695744Y-17439224D01*
X26814450Y-17439224D01*
X26869730Y-17439900D01*
X26869730Y-17439224D01*
X27065838Y-17439224D01*
X29741000Y-20114387D01*
X29741001Y-27028706D01*
X29634890Y-26922595D01*
X29399108Y-26786467D01*
X29136127Y-26716001D01*
X28863871Y-26716001D01*
X28600890Y-26786467D01*
X28365108Y-26922595D01*
X28250000Y-27037703D01*
X28134891Y-26922594D01*
X27899109Y-26786466D01*
X27636128Y-26716000D01*
X27363872Y-26716000D01*
X27100891Y-26786466D01*
X26865109Y-26922594D01*
X26672594Y-27115109D01*
X26671924Y-27116270D01*
X26648310Y-27128302D01*
X26065837Y-27710776D01*
X25760238Y-27710776D01*
X25683339Y-27709837D01*
X25521248Y-27731033D01*
X25499996Y-27736967D01*
X25463534Y-27600891D01*
X25327406Y-27365109D01*
X25134891Y-27172594D01*
X24899109Y-27036466D01*
X24636128Y-26966000D01*
X24363872Y-26966000D01*
X24100891Y-27036466D01*
X23865109Y-27172594D01*
X23796704Y-27241000D01*
X23729786Y-27241000D01*
X23672265Y-27259690D01*
X23612533Y-27269150D01*
X23558642Y-27296608D01*
X23501125Y-27315297D01*
X23452195Y-27350847D01*
X23398310Y-27378302D01*
X23354869Y-27421743D01*
X23354862Y-27421749D01*
X23065836Y-27710776D01*
X22760238Y-27710776D01*
X22683339Y-27709837D01*
X22521248Y-27731033D01*
X22380723Y-27770269D01*
X22380723Y-27491707D01*
X22510161Y-27362270D01*
X22606901Y-27362270D01*
X22869882Y-27291804D01*
X23105664Y-27155676D01*
X23298179Y-26963161D01*
X23434307Y-26727379D01*
X23504773Y-26464398D01*
X23504773Y-26192142D01*
X23434307Y-25929161D01*
X23298179Y-25693379D01*
X23105664Y-25500864D01*
X22869882Y-25364736D01*
X22606901Y-25294270D01*
X22334645Y-25294270D01*
X22071664Y-25364736D01*
X21835882Y-25500864D01*
X21643367Y-25693379D01*
X21507239Y-25929161D01*
X21436773Y-26192142D01*
X21436773Y-26288882D01*
X21155922Y-26569734D01*
X21000026Y-26725630D01*
X20972572Y-26779514D01*
X20937020Y-26828445D01*
X20918331Y-26885965D01*
X20890874Y-26939853D01*
X20881413Y-26999588D01*
X20862724Y-27057107D01*
X20862724Y-27127504D01*
X20862723Y-29931966D01*
X10634000Y-29931966D01*
X10634000Y-14317582D01*
X11863438Y-14317582D01*
X12091186Y-14483050D01*
X12334375Y-14606961D01*
X12593954Y-14691302D01*
X12863531Y-14734000D01*
X13136469Y-14734000D01*
X13406046Y-14691302D01*
X13665625Y-14606961D01*
X13908814Y-14483050D01*
X14136562Y-14317582D01*
X13000000Y-13181019D01*
X11863438Y-14317582D01*
X10634000Y-14317582D01*
X10634000Y-12863531D01*
X11266000Y-12863531D01*
X11266000Y-13136469D01*
X11308698Y-13406046D01*
X11393039Y-13665625D01*
X11516950Y-13908814D01*
X11682418Y-14136562D01*
X12818981Y-13000000D01*
X13181019Y-13000000D01*
X14317582Y-14136562D01*
X14483050Y-13908814D01*
X14606961Y-13665625D01*
X14691302Y-13406046D01*
X14734000Y-13136469D01*
X14734000Y-12863531D01*
X14691302Y-12593954D01*
X14606961Y-12334375D01*
X14483050Y-12091186D01*
X14317582Y-11863438D01*
X13181019Y-13000000D01*
X12818981Y-13000000D01*
X11682418Y-11863438D01*
X11516950Y-12091186D01*
X11393039Y-12334375D01*
X11308698Y-12593954D01*
X11266000Y-12863531D01*
X10634000Y-12863531D01*
X10634000Y-11682418D01*
X11863438Y-11682418D01*
X13000000Y-12818981D01*
X14136562Y-11682418D01*
X60863438Y-11682418D01*
X62000000Y-12818981D01*
X63136562Y-11682418D01*
X62908814Y-11516950D01*
X62665625Y-11393039D01*
X62406046Y-11308698D01*
X62136469Y-11266000D01*
X61863531Y-11266000D01*
X61593954Y-11308698D01*
X61334375Y-11393039D01*
X61091186Y-11516950D01*
X60863438Y-11682418D01*
X14136562Y-11682418D01*
X13908814Y-11516950D01*
X13665625Y-11393039D01*
X13406046Y-11308698D01*
X13136469Y-11266000D01*
X12863531Y-11266000D01*
X12593954Y-11308698D01*
X12334375Y-11393039D01*
X12091186Y-11516950D01*
X11863438Y-11682418D01*
X10634000Y-11682418D01*
X10634000Y-10634000D01*
X64366000Y-10634000D01*
X64366000Y-40348931D01*
G37*
D17*
X64366000Y-40348931D02*
X64166711Y-40285713D01*
X63979155Y-40266000D01*
X63628000Y-40266000D01*
X63627999Y-41297001D01*
X63628000Y-41297001D01*
X63627999Y-42584000D01*
X63982135Y-42584000D01*
X64151206Y-42567422D01*
X64366000Y-42502573D01*
X64366000Y-47498931D01*
X64166711Y-47435713D01*
X63979155Y-47416000D01*
X63628000Y-47416000D01*
X63627999Y-48447001D01*
X63628000Y-48447001D01*
X63627999Y-49734000D01*
X63982135Y-49734000D01*
X64151206Y-49717422D01*
X64366000Y-49652572D01*
X64366001Y-89366000D01*
X10634000Y-89366000D01*
X10634000Y-88317582D01*
X11863438Y-88317582D01*
X12091186Y-88483050D01*
X12334375Y-88606961D01*
X12593954Y-88691302D01*
X12863531Y-88734000D01*
X13136469Y-88734000D01*
X13406046Y-88691302D01*
X13665625Y-88606961D01*
X13908814Y-88483050D01*
X14136562Y-88317582D01*
X60863438Y-88317582D01*
X61091186Y-88483050D01*
X61334375Y-88606961D01*
X61593954Y-88691302D01*
X61863531Y-88734000D01*
X62136469Y-88734000D01*
X62406046Y-88691302D01*
X62665625Y-88606961D01*
X62908814Y-88483050D01*
X63136562Y-88317582D01*
X62000000Y-87181019D01*
X60863438Y-88317582D01*
X14136562Y-88317582D01*
X13000000Y-87181019D01*
X11863438Y-88317582D01*
X10634000Y-88317582D01*
X10634000Y-86863531D01*
X11266000Y-86863531D01*
X11266000Y-87136469D01*
X11308698Y-87406046D01*
X11393039Y-87665625D01*
X11516950Y-87908814D01*
X11682418Y-88136562D01*
X12818981Y-87000000D01*
X13181019Y-87000000D01*
X14317582Y-88136562D01*
X14483050Y-87908814D01*
X14606961Y-87665625D01*
X14691302Y-87406046D01*
X14734000Y-87136469D01*
X14734000Y-86863531D01*
X60266000Y-86863531D01*
X60266000Y-87136469D01*
X60308698Y-87406046D01*
X60393039Y-87665625D01*
X60516950Y-87908814D01*
X60682418Y-88136562D01*
X61818981Y-87000000D01*
X62181019Y-87000000D01*
X63317582Y-88136562D01*
X63483050Y-87908814D01*
X63606961Y-87665625D01*
X63691302Y-87406046D01*
X63734000Y-87136469D01*
X63734000Y-86863531D01*
X63691302Y-86593954D01*
X63606961Y-86334375D01*
X63483050Y-86091186D01*
X63317582Y-85863438D01*
X62181019Y-87000000D01*
X61818981Y-87000000D01*
X60682418Y-85863438D01*
X60516950Y-86091186D01*
X60393039Y-86334375D01*
X60308698Y-86593954D01*
X60266000Y-86863531D01*
X14734000Y-86863531D01*
X14691302Y-86593954D01*
X14606961Y-86334375D01*
X14483050Y-86091186D01*
X14317582Y-85863438D01*
X13181019Y-87000000D01*
X12818981Y-87000000D01*
X11682418Y-85863438D01*
X11516950Y-86091186D01*
X11393039Y-86334375D01*
X11308698Y-86593954D01*
X11266000Y-86863531D01*
X10634000Y-86863531D01*
X10634000Y-85682418D01*
X11863438Y-85682418D01*
X13000000Y-86818981D01*
X14136562Y-85682418D01*
X60863438Y-85682418D01*
X62000000Y-86818981D01*
X63136562Y-85682418D01*
X62908814Y-85516950D01*
X62665625Y-85393039D01*
X62406046Y-85308698D01*
X62136469Y-85266000D01*
X61863531Y-85266000D01*
X61593954Y-85308698D01*
X61334375Y-85393039D01*
X61091186Y-85516950D01*
X60863438Y-85682418D01*
X14136562Y-85682418D01*
X13908814Y-85516950D01*
X13665625Y-85393039D01*
X13406046Y-85308698D01*
X13136469Y-85266000D01*
X12863531Y-85266000D01*
X12593954Y-85308698D01*
X12334375Y-85393039D01*
X12091186Y-85516950D01*
X11863438Y-85682418D01*
X10634000Y-85682418D01*
X10634000Y-61363872D01*
X11216000Y-61363872D01*
X11216000Y-61636128D01*
X11286466Y-61899109D01*
X11422594Y-62134891D01*
X11491001Y-62203297D01*
X11491000Y-74414891D01*
X11491001Y-74414897D01*
X11491001Y-74474861D01*
X11509688Y-74532372D01*
X11519150Y-74592115D01*
X11546609Y-74646005D01*
X11565297Y-74703522D01*
X11600846Y-74752451D01*
X11628302Y-74806337D01*
X11798657Y-74976693D01*
X11798661Y-74976695D01*
X18610776Y-81788812D01*
X18610776Y-81863545D01*
X18634793Y-81973947D01*
X18610776Y-82140988D01*
X18610776Y-82653452D01*
X18610341Y-82724774D01*
X18610776Y-82727950D01*
X18610776Y-82738576D01*
X18612232Y-82738576D01*
X18632215Y-82884459D01*
X18677134Y-83041630D01*
X18742947Y-83188758D01*
X18830179Y-83327010D01*
X18934640Y-83449751D01*
X19057160Y-83557958D01*
X19060128Y-83559907D01*
X19036466Y-83600891D01*
X18966000Y-83863872D01*
X18966000Y-84136128D01*
X19036466Y-84399109D01*
X19172594Y-84634891D01*
X19365109Y-84827406D01*
X19600891Y-84963534D01*
X19863872Y-85034000D01*
X20136128Y-85034000D01*
X20399109Y-84963534D01*
X20634891Y-84827406D01*
X20827406Y-84634891D01*
X20963534Y-84399109D01*
X21034000Y-84136128D01*
X21034000Y-83863872D01*
X20963534Y-83600891D01*
X20939243Y-83558817D01*
X21045578Y-83469433D01*
X21153007Y-83349281D01*
X21243589Y-83213203D01*
X21312977Y-83067727D01*
X21361724Y-82911695D01*
X21387492Y-82752594D01*
X21390488Y-82589158D01*
X21389224Y-82579007D01*
X21389224Y-82136455D01*
X21365207Y-82026053D01*
X21389224Y-81859012D01*
X21389224Y-81358133D01*
X21390488Y-81289159D01*
X21389224Y-81279011D01*
X21389224Y-81264474D01*
X21387413Y-81264474D01*
X21370567Y-81129219D01*
X21327569Y-80971503D01*
X21263558Y-80823584D01*
X21178026Y-80684282D01*
X21075073Y-80560273D01*
X20953878Y-80450572D01*
X20820257Y-80360443D01*
X20673144Y-80289169D01*
X20519230Y-80240049D01*
X20350979Y-80212798D01*
X20304256Y-80212227D01*
X20304256Y-80210776D01*
X20185535Y-80210776D01*
X20181790Y-80210731D01*
X20130270Y-80210101D01*
X20130270Y-80210776D01*
X19736456Y-80210776D01*
X19733748Y-80211365D01*
X19676838Y-80210670D01*
X19507968Y-80233803D01*
X19352900Y-80279148D01*
X19280710Y-80311970D01*
X13009000Y-74040262D01*
X13009000Y-62203296D01*
X13077406Y-62134891D01*
X13213534Y-61899109D01*
X13284000Y-61636128D01*
X13284000Y-61363872D01*
X13213534Y-61100891D01*
X13077406Y-60865109D01*
X12884891Y-60672594D01*
X12649109Y-60536466D01*
X12386128Y-60466000D01*
X12113872Y-60466000D01*
X11850891Y-60536466D01*
X11615109Y-60672594D01*
X11422594Y-60865109D01*
X11286466Y-61100891D01*
X11216000Y-61363872D01*
X10634000Y-61363872D01*
X10634000Y-29931966D01*
X20862723Y-29931966D01*
X20862724Y-29931972D01*
X20862724Y-29991936D01*
X20881411Y-30049447D01*
X20890873Y-30109190D01*
X20918332Y-30163080D01*
X20937020Y-30220597D01*
X20972569Y-30269526D01*
X21000025Y-30323412D01*
X21170380Y-30493768D01*
X21170384Y-30493770D01*
X21277953Y-30601339D01*
X21277955Y-30601343D01*
X21448310Y-30771697D01*
X21502199Y-30799156D01*
X21551127Y-30834704D01*
X21608641Y-30853390D01*
X21662532Y-30880850D01*
X21722274Y-30890312D01*
X21779786Y-30908999D01*
X21839750Y-30908999D01*
X21839756Y-30909000D01*
X21899418Y-30909000D01*
X21924928Y-30939727D01*
X22046122Y-31049427D01*
X22179743Y-31139556D01*
X22326856Y-31210830D01*
X22480770Y-31259950D01*
X22649020Y-31287201D01*
X22695744Y-31287772D01*
X22695744Y-31289224D01*
X22814450Y-31289224D01*
X22869730Y-31289900D01*
X22869730Y-31289224D01*
X23263544Y-31289224D01*
X23266252Y-31288635D01*
X23323162Y-31289330D01*
X23492032Y-31266197D01*
X23647101Y-31220852D01*
X23795906Y-31153194D01*
X23931690Y-31066358D01*
X23966000Y-31036795D01*
X23966000Y-31117107D01*
X24036466Y-31380088D01*
X24172594Y-31615870D01*
X24365109Y-31808385D01*
X24600891Y-31944513D01*
X24863872Y-32014979D01*
X25136128Y-32014979D01*
X25399109Y-31944513D01*
X25634891Y-31808385D01*
X25827406Y-31615870D01*
X25963534Y-31380088D01*
X25987881Y-31289224D01*
X26263544Y-31289224D01*
X26266252Y-31288635D01*
X26323162Y-31289330D01*
X26492032Y-31266197D01*
X26647101Y-31220852D01*
X26795906Y-31153194D01*
X26931690Y-31066358D01*
X27055529Y-30959652D01*
X27161482Y-30838196D01*
X27250396Y-30701022D01*
X27318001Y-30554709D01*
X27364837Y-30398098D01*
X27388661Y-30238693D01*
X27389659Y-30075227D01*
X27389224Y-30072051D01*
X27389224Y-29636455D01*
X27365207Y-29526047D01*
X27389224Y-29359012D01*
X27389224Y-28846548D01*
X27389605Y-28784000D01*
X27611837Y-28784000D01*
X27609512Y-28910842D01*
X27610776Y-28920993D01*
X27610776Y-29363545D01*
X27634793Y-29473953D01*
X27610776Y-29640988D01*
X27610776Y-30141867D01*
X27609512Y-30210841D01*
X27610776Y-30220989D01*
X27610776Y-30235526D01*
X27612587Y-30235526D01*
X27629433Y-30370781D01*
X27645800Y-30430814D01*
X27048661Y-31027953D01*
X27048657Y-31027955D01*
X26878302Y-31198311D01*
X26850846Y-31252197D01*
X26815297Y-31301126D01*
X26796609Y-31358643D01*
X26769150Y-31412533D01*
X26759688Y-31472276D01*
X26741001Y-31529787D01*
X26741001Y-31589751D01*
X26741000Y-31589757D01*
X26741001Y-32241000D01*
X23760236Y-32241000D01*
X23760230Y-32241001D01*
X23700266Y-32241001D01*
X23642755Y-32259688D01*
X23583012Y-32269150D01*
X23529122Y-32296609D01*
X23471605Y-32315297D01*
X23422676Y-32350846D01*
X23368790Y-32378302D01*
X23319011Y-32428082D01*
X22323659Y-33423435D01*
X22323655Y-33423437D01*
X22153300Y-33593793D01*
X22125844Y-33647679D01*
X22090295Y-33696608D01*
X22071607Y-33754125D01*
X22044148Y-33808015D01*
X22034686Y-33867758D01*
X22015999Y-33925269D01*
X22015999Y-33985233D01*
X22015998Y-33985239D01*
X22015999Y-76024741D01*
X22015999Y-76245211D01*
X22034688Y-76302730D01*
X22044149Y-76362465D01*
X22071606Y-76416353D01*
X22090295Y-76473873D01*
X22125847Y-76522804D01*
X22153301Y-76576688D01*
X22203080Y-76626466D01*
X26645143Y-81068531D01*
X26635163Y-81101902D01*
X26611339Y-81261307D01*
X26610341Y-81424773D01*
X26610776Y-81427949D01*
X26610776Y-81863545D01*
X26634793Y-81973947D01*
X26610776Y-82140988D01*
X26610776Y-82653452D01*
X26610341Y-82724774D01*
X26610776Y-82727950D01*
X26610776Y-82738576D01*
X26612232Y-82738576D01*
X26632215Y-82884459D01*
X26677134Y-83041630D01*
X26727410Y-83154024D01*
X24472047Y-80898661D01*
X24472045Y-80898657D01*
X24301690Y-80728303D01*
X24247801Y-80700844D01*
X24198873Y-80665296D01*
X24148741Y-80649008D01*
X24075073Y-80560273D01*
X23953878Y-80450572D01*
X23820257Y-80360443D01*
X23673144Y-80289169D01*
X23519230Y-80240049D01*
X23350979Y-80212798D01*
X23304256Y-80212227D01*
X23304256Y-80210776D01*
X23185535Y-80210776D01*
X23181790Y-80210731D01*
X23130270Y-80210101D01*
X23130270Y-80210776D01*
X22736456Y-80210776D01*
X22733748Y-80211365D01*
X22676838Y-80210670D01*
X22507968Y-80233803D01*
X22352900Y-80279148D01*
X22204093Y-80346805D01*
X22068309Y-80433642D01*
X21944470Y-80540348D01*
X21838517Y-80661804D01*
X21749604Y-80798978D01*
X21681999Y-80945291D01*
X21635163Y-81101902D01*
X21611339Y-81261307D01*
X21610341Y-81424773D01*
X21610776Y-81427949D01*
X21610776Y-81863545D01*
X21634793Y-81973947D01*
X21610776Y-82140988D01*
X21610776Y-82653452D01*
X21610341Y-82724774D01*
X21610776Y-82727950D01*
X21610776Y-82738576D01*
X21612232Y-82738576D01*
X21632215Y-82884459D01*
X21677134Y-83041630D01*
X21742947Y-83188758D01*
X21830179Y-83327010D01*
X21934640Y-83449751D01*
X22057160Y-83557958D01*
X22060127Y-83559907D01*
X22036465Y-83600890D01*
X21965999Y-83863871D01*
X21965999Y-84136127D01*
X22036465Y-84399108D01*
X22172593Y-84634890D01*
X22365108Y-84827405D01*
X22600890Y-84963533D01*
X22863871Y-85033999D01*
X23136127Y-85033999D01*
X23399108Y-84963533D01*
X23634890Y-84827405D01*
X23827405Y-84634890D01*
X23963533Y-84399108D01*
X24033999Y-84136127D01*
X24033999Y-83863871D01*
X23963533Y-83600890D01*
X23939242Y-83558817D01*
X24045578Y-83469433D01*
X24153007Y-83349281D01*
X24243589Y-83213203D01*
X24312977Y-83067727D01*
X24356150Y-82929536D01*
X26642414Y-85215801D01*
X26798310Y-85371698D01*
X26852196Y-85399154D01*
X26901125Y-85434703D01*
X26958642Y-85453391D01*
X27012532Y-85480850D01*
X27072275Y-85490312D01*
X27129786Y-85508999D01*
X27189750Y-85508999D01*
X27189756Y-85509000D01*
X31560244Y-85509000D01*
X31560250Y-85508999D01*
X31620213Y-85508999D01*
X31677726Y-85490312D01*
X31737468Y-85480850D01*
X31791359Y-85453390D01*
X31848873Y-85434704D01*
X31897801Y-85399156D01*
X31951690Y-85371697D01*
X32122045Y-85201343D01*
X32122046Y-85201341D01*
X33012758Y-84310631D01*
X33036465Y-84399108D01*
X33172593Y-84634890D01*
X33365108Y-84827405D01*
X33600890Y-84963533D01*
X33863871Y-85033999D01*
X34136127Y-85033999D01*
X34399108Y-84963533D01*
X34634890Y-84827405D01*
X34827405Y-84634890D01*
X34963533Y-84399108D01*
X35033999Y-84136127D01*
X35033999Y-83863871D01*
X34963533Y-83600890D01*
X34939641Y-83559507D01*
X35055529Y-83459652D01*
X35161482Y-83338196D01*
X35250396Y-83201022D01*
X35318001Y-83054709D01*
X35364837Y-82898098D01*
X35388661Y-82738693D01*
X35389659Y-82575227D01*
X35389224Y-82572051D01*
X35389224Y-82136455D01*
X35365207Y-82026047D01*
X35389224Y-81859012D01*
X35389224Y-81346548D01*
X35389659Y-81275226D01*
X35389224Y-81272050D01*
X35389224Y-81261424D01*
X35387768Y-81261424D01*
X35367785Y-81115541D01*
X35322866Y-80958370D01*
X35257053Y-80811242D01*
X35169821Y-80672990D01*
X35065360Y-80550249D01*
X34942840Y-80442043D01*
X34808129Y-80353553D01*
X34759000Y-80330487D01*
X34759000Y-80182388D01*
X34798657Y-80222045D01*
X34798659Y-80222046D01*
X35644618Y-81068006D01*
X35638276Y-81088304D01*
X35612508Y-81247406D01*
X35609512Y-81410842D01*
X35610776Y-81420993D01*
X35610776Y-81863545D01*
X35634793Y-81973953D01*
X35610776Y-82140988D01*
X35610776Y-82641867D01*
X35609512Y-82710841D01*
X35610776Y-82720989D01*
X35610776Y-82735526D01*
X35612587Y-82735526D01*
X35629433Y-82870781D01*
X35672431Y-83028497D01*
X35736442Y-83176416D01*
X35821974Y-83315718D01*
X35924927Y-83439727D01*
X36046122Y-83549427D01*
X36060557Y-83559164D01*
X36036466Y-83600891D01*
X35966000Y-83863872D01*
X35966000Y-84136128D01*
X36036466Y-84399109D01*
X36172594Y-84634891D01*
X36365109Y-84827406D01*
X36600891Y-84963534D01*
X36863872Y-85034000D01*
X37136128Y-85034000D01*
X37399109Y-84963534D01*
X37634891Y-84827406D01*
X37827406Y-84634891D01*
X37963534Y-84399109D01*
X38034000Y-84136128D01*
X38034000Y-83863872D01*
X37963534Y-83600891D01*
X37939641Y-83559507D01*
X38055529Y-83459652D01*
X38161482Y-83338196D01*
X38250396Y-83201022D01*
X38318001Y-83054709D01*
X38364837Y-82898098D01*
X38388661Y-82738693D01*
X38389659Y-82575227D01*
X38389224Y-82572051D01*
X38389224Y-82136455D01*
X38365207Y-82026047D01*
X38389224Y-81859012D01*
X38389224Y-81346548D01*
X38389659Y-81275226D01*
X38389224Y-81272050D01*
X38389224Y-81261424D01*
X38387768Y-81261424D01*
X38367785Y-81115541D01*
X38322866Y-80958370D01*
X38257053Y-80811242D01*
X38169821Y-80672990D01*
X38065360Y-80550249D01*
X37942840Y-80442043D01*
X37808129Y-80353553D01*
X37660154Y-80284079D01*
X37506020Y-80236956D01*
X37344502Y-80211807D01*
X37307362Y-80211353D01*
X37307362Y-80210776D01*
X37260156Y-80210776D01*
X37183336Y-80209837D01*
X37176156Y-80210776D01*
X36934163Y-80210776D01*
X36009000Y-79285614D01*
X36009000Y-60668000D01*
X60502453Y-60668000D01*
X60590516Y-61021201D01*
X60691744Y-61251804D01*
X60830378Y-61462055D01*
X61002457Y-61645942D01*
X61203058Y-61798206D01*
X61426446Y-61914494D01*
X61666233Y-61991482D01*
X61872000Y-62020765D01*
X61872000Y-60668000D01*
X62128000Y-60668000D01*
X62128000Y-62027789D01*
X62414270Y-61970587D01*
X62649387Y-61880334D01*
X62865934Y-61751757D01*
X63057723Y-61588533D01*
X63219268Y-61395327D01*
X63345949Y-61177666D01*
X63434148Y-60941771D01*
X63486373Y-60668000D01*
X62128000Y-60668000D01*
X61872000Y-60668000D01*
X60502453Y-60668000D01*
X36009000Y-60668000D01*
X36009000Y-59363872D01*
X43966000Y-59363872D01*
X43966000Y-59636128D01*
X44036466Y-59899109D01*
X44172594Y-60134891D01*
X44365109Y-60327406D01*
X44600891Y-60463534D01*
X44863872Y-60534000D01*
X45136128Y-60534000D01*
X45399109Y-60463534D01*
X45488369Y-60412000D01*
X60497435Y-60412000D01*
X63483674Y-60412000D01*
X63441596Y-60165835D01*
X63357944Y-59928291D01*
X63235463Y-59708237D01*
X63077658Y-59511966D01*
X63011130Y-59453107D01*
X63167512Y-59411205D01*
X63343165Y-59263815D01*
X63454956Y-59070186D01*
X63491837Y-58861024D01*
X63491837Y-57133412D01*
X63411205Y-56832489D01*
X63263815Y-56656835D01*
X63070186Y-56545044D01*
X62861024Y-56508163D01*
X61133412Y-56508163D01*
X60832489Y-56588795D01*
X60656835Y-56736185D01*
X60545044Y-56929814D01*
X60508163Y-57138976D01*
X60508163Y-58866588D01*
X60588795Y-59167512D01*
X60736185Y-59343165D01*
X60929814Y-59454956D01*
X60977030Y-59463281D01*
X60848296Y-59595661D01*
X60705650Y-59803212D01*
X60600014Y-60031829D01*
X60497435Y-60412000D01*
X45488369Y-60412000D01*
X45536867Y-60384000D01*
X51400970Y-60384000D01*
X51428377Y-60390202D01*
X51528338Y-60384000D01*
X51563400Y-60384000D01*
X51590192Y-60380163D01*
X51681105Y-60374523D01*
X51714985Y-60362291D01*
X51750657Y-60357183D01*
X51833603Y-60319470D01*
X51919643Y-60288409D01*
X51947895Y-60267504D01*
X51981166Y-60252376D01*
X52059157Y-60185174D01*
X52081584Y-60168579D01*
X52101308Y-60148855D01*
X52172992Y-60087088D01*
X52191261Y-60058902D01*
X55055053Y-57195111D01*
X55078822Y-57180114D01*
X55145134Y-57105030D01*
X55169913Y-57080252D01*
X55186140Y-57058600D01*
X55246442Y-56990321D01*
X55261753Y-56957708D01*
X55283361Y-56928877D01*
X55315338Y-56843576D01*
X55354222Y-56760756D01*
X55359418Y-56725994D01*
X55372245Y-56691776D01*
X55379875Y-56589115D01*
X55384000Y-56561513D01*
X55384000Y-56533605D01*
X55391011Y-56439258D01*
X55384000Y-56406414D01*
X55384000Y-48702999D01*
X61904471Y-48702999D01*
X61995200Y-49011268D01*
X62100502Y-49212694D01*
X62242924Y-49389829D01*
X62417038Y-49535929D01*
X62616214Y-49645427D01*
X62833289Y-49714287D01*
X63020845Y-49734000D01*
X63372000Y-49734000D01*
X63372001Y-48703000D01*
X61904471Y-48702999D01*
X55384000Y-48702999D01*
X55384000Y-48447000D01*
X61901318Y-48447000D01*
X63372000Y-48447001D01*
X63372001Y-47416000D01*
X63017865Y-47416000D01*
X62848794Y-47432578D01*
X62631205Y-47498271D01*
X62430519Y-47604978D01*
X62254381Y-47748632D01*
X62109501Y-47923763D01*
X62001396Y-48123699D01*
X61901318Y-48447000D01*
X55384000Y-48447000D01*
X55384000Y-41552999D01*
X61904471Y-41552999D01*
X61995200Y-41861268D01*
X62100502Y-42062694D01*
X62242924Y-42239829D01*
X62417038Y-42385929D01*
X62616214Y-42495427D01*
X62833289Y-42564287D01*
X63020845Y-42584000D01*
X63372000Y-42584000D01*
X63372001Y-41553000D01*
X61904471Y-41552999D01*
X55384000Y-41552999D01*
X55384000Y-41297000D01*
X61901318Y-41297000D01*
X63372000Y-41297001D01*
X63372001Y-40266000D01*
X63017865Y-40266000D01*
X62848794Y-40282578D01*
X62631205Y-40348271D01*
X62430519Y-40454978D01*
X62254381Y-40598632D01*
X62109501Y-40773763D01*
X62001396Y-40973699D01*
X61901318Y-41297000D01*
X55384000Y-41297000D01*
X55384000Y-40036867D01*
X55463534Y-39899109D01*
X55534000Y-39636128D01*
X55534000Y-39363872D01*
X55463534Y-39100891D01*
X55384000Y-38963133D01*
X55384000Y-38312119D01*
X55424406Y-38382105D01*
X55616921Y-38574620D01*
X55852703Y-38710748D01*
X56115684Y-38781214D01*
X56387940Y-38781214D01*
X56650921Y-38710748D01*
X56886703Y-38574620D01*
X56955108Y-38506214D01*
X57608163Y-38506214D01*
X57608163Y-39766588D01*
X57688795Y-40067512D01*
X57836185Y-40243165D01*
X58029814Y-40354956D01*
X58238976Y-40391837D01*
X59766588Y-40391837D01*
X60067512Y-40311205D01*
X60243165Y-40163815D01*
X60354956Y-39970186D01*
X60391837Y-39761024D01*
X60391837Y-38233412D01*
X60311205Y-37932489D01*
X60163815Y-37756835D01*
X59970186Y-37645044D01*
X59761024Y-37608163D01*
X59653489Y-37608163D01*
X59649156Y-37602199D01*
X59621697Y-37548310D01*
X59465225Y-37391837D01*
X59766588Y-37391837D01*
X60067512Y-37311205D01*
X60243165Y-37163815D01*
X60354956Y-36970186D01*
X60391837Y-36761024D01*
X60391837Y-35233412D01*
X60311205Y-34932489D01*
X60163815Y-34756835D01*
X59970186Y-34645044D01*
X59840175Y-34622119D01*
X60067512Y-34561205D01*
X60243165Y-34413815D01*
X60354956Y-34220186D01*
X60391837Y-34011024D01*
X60391837Y-32483412D01*
X60311205Y-32182489D01*
X60163815Y-32006835D01*
X59970186Y-31895044D01*
X59761024Y-31858163D01*
X58233412Y-31858163D01*
X57932489Y-31938795D01*
X57756835Y-32086185D01*
X57645044Y-32279814D01*
X57608163Y-32488976D01*
X57608163Y-32491000D01*
X57439756Y-32491000D01*
X57439750Y-32491001D01*
X57379786Y-32491001D01*
X57322275Y-32509688D01*
X57262532Y-32519150D01*
X57208642Y-32546609D01*
X57151125Y-32565297D01*
X57102196Y-32600846D01*
X57048310Y-32628302D01*
X56998531Y-32678082D01*
X56210614Y-33466000D01*
X56113872Y-33466000D01*
X55850891Y-33536466D01*
X55615109Y-33672594D01*
X55422594Y-33865109D01*
X55286466Y-34100891D01*
X55216506Y-34361983D01*
X55213534Y-34350891D01*
X55077406Y-34115109D01*
X54884891Y-33922594D01*
X54649109Y-33786466D01*
X54386128Y-33716000D01*
X54113872Y-33716000D01*
X53850891Y-33786466D01*
X53615109Y-33922594D01*
X53422594Y-34115109D01*
X53286466Y-34350891D01*
X53216000Y-34613872D01*
X53216000Y-34886128D01*
X53286466Y-35149109D01*
X53422594Y-35384891D01*
X53615109Y-35577406D01*
X53616001Y-35577921D01*
X53616000Y-38963133D01*
X53536466Y-39100891D01*
X53466000Y-39363872D01*
X53466000Y-39636128D01*
X53536466Y-39899109D01*
X53616000Y-40036867D01*
X53616001Y-56133835D01*
X51133837Y-58616000D01*
X45536867Y-58616000D01*
X45399109Y-58536466D01*
X45136128Y-58466000D01*
X44863872Y-58466000D01*
X44600891Y-58536466D01*
X44365109Y-58672594D01*
X44172594Y-58865109D01*
X44036466Y-59100891D01*
X43966000Y-59363872D01*
X36009000Y-59363872D01*
X36009000Y-57505441D01*
X36008999Y-57505435D01*
X36008999Y-57445471D01*
X35990312Y-57387959D01*
X35980850Y-57328217D01*
X35953390Y-57274326D01*
X35934704Y-57216812D01*
X35928988Y-57208945D01*
X35963534Y-57149109D01*
X36034000Y-56886128D01*
X36034000Y-56613872D01*
X35963534Y-56350891D01*
X35827406Y-56115109D01*
X35634891Y-55922594D01*
X35399109Y-55786466D01*
X35136128Y-55716000D01*
X34984001Y-55716000D01*
X34984001Y-53839385D01*
X35039386Y-53784000D01*
X35136128Y-53784000D01*
X35399109Y-53713534D01*
X35634891Y-53577406D01*
X35827406Y-53384891D01*
X35963534Y-53149109D01*
X36034000Y-52886128D01*
X36034000Y-52613872D01*
X35967013Y-52363872D01*
X37216000Y-52363872D01*
X37216000Y-52636128D01*
X37286466Y-52899109D01*
X37366000Y-53036867D01*
X37366001Y-56900965D01*
X37359798Y-56928377D01*
X37366001Y-57028354D01*
X37366001Y-57063399D01*
X37369837Y-57090186D01*
X37375477Y-57181105D01*
X37387711Y-57214995D01*
X37392819Y-57250658D01*
X37430523Y-57333585D01*
X37461592Y-57419645D01*
X37482498Y-57447897D01*
X37497624Y-57481165D01*
X37564815Y-57559143D01*
X37581421Y-57581585D01*
X37601153Y-57601316D01*
X37662913Y-57672992D01*
X37691096Y-57691259D01*
X38554888Y-58555051D01*
X38569885Y-58578821D01*
X38644970Y-58645134D01*
X38669748Y-58669913D01*
X38691400Y-58686140D01*
X38759679Y-58746442D01*
X38792292Y-58761753D01*
X38821123Y-58783361D01*
X38906424Y-58815338D01*
X38989244Y-58854222D01*
X39024006Y-58859418D01*
X39058224Y-58872245D01*
X39160885Y-58879875D01*
X39188487Y-58884000D01*
X39216395Y-58884000D01*
X39310742Y-58891011D01*
X39343586Y-58884000D01*
X41213133Y-58884000D01*
X41350891Y-58963534D01*
X41613872Y-59034000D01*
X41886128Y-59034000D01*
X42149109Y-58963534D01*
X42384891Y-58827406D01*
X42577406Y-58634891D01*
X42713534Y-58399109D01*
X42784000Y-58136128D01*
X42784000Y-57863872D01*
X42713534Y-57600891D01*
X42577406Y-57365109D01*
X42384891Y-57172594D01*
X42149109Y-57036466D01*
X41886128Y-56966000D01*
X41613872Y-56966000D01*
X41350891Y-57036466D01*
X41213133Y-57116000D01*
X39616165Y-57116000D01*
X39134000Y-56633836D01*
X39134000Y-53036867D01*
X39213534Y-52899109D01*
X39284000Y-52636128D01*
X39284000Y-52363872D01*
X39213534Y-52100891D01*
X39077406Y-51865109D01*
X38884891Y-51672594D01*
X38649109Y-51536466D01*
X38386128Y-51466000D01*
X38113872Y-51466000D01*
X37850891Y-51536466D01*
X37615109Y-51672594D01*
X37422594Y-51865109D01*
X37286466Y-52100891D01*
X37216000Y-52363872D01*
X35967013Y-52363872D01*
X35963534Y-52350891D01*
X35827406Y-52115109D01*
X35634891Y-51922594D01*
X35399109Y-51786466D01*
X35136128Y-51716000D01*
X34863872Y-51716000D01*
X34600891Y-51786466D01*
X34365109Y-51922594D01*
X34172594Y-52115109D01*
X34036466Y-52350891D01*
X33966000Y-52613872D01*
X33966000Y-52710614D01*
X33603304Y-53073309D01*
X33575850Y-53127193D01*
X33540298Y-53176124D01*
X33521609Y-53233644D01*
X33509000Y-53258391D01*
X33509000Y-48363872D01*
X48716000Y-48363872D01*
X48716000Y-48636128D01*
X48786466Y-48899109D01*
X48922594Y-49134891D01*
X49115109Y-49327406D01*
X49350891Y-49463534D01*
X49613872Y-49534000D01*
X49886128Y-49534000D01*
X50118497Y-49471737D01*
X50180567Y-49545578D01*
X50300719Y-49653007D01*
X50436797Y-49743589D01*
X50582273Y-49812977D01*
X50738305Y-49861724D01*
X50897406Y-49887492D01*
X51060843Y-49890488D01*
X51070994Y-49889224D01*
X51513547Y-49889224D01*
X51623948Y-49865207D01*
X51790988Y-49889224D01*
X52291868Y-49889224D01*
X52360842Y-49890488D01*
X52370990Y-49889224D01*
X52385526Y-49889224D01*
X52385526Y-49887414D01*
X52520782Y-49870567D01*
X52678498Y-49827569D01*
X52826417Y-49763558D01*
X52965719Y-49678026D01*
X53089728Y-49575073D01*
X53199428Y-49453878D01*
X53289557Y-49320257D01*
X53360831Y-49173144D01*
X53409951Y-49019230D01*
X53437202Y-48850979D01*
X53437773Y-48804256D01*
X53439224Y-48804256D01*
X53439224Y-48685535D01*
X53439272Y-48681581D01*
X53439899Y-48630270D01*
X53439224Y-48630270D01*
X53439224Y-48236455D01*
X53438635Y-48233747D01*
X53439330Y-48176837D01*
X53416197Y-48007967D01*
X53370852Y-47852898D01*
X53303194Y-47704093D01*
X53216358Y-47568309D01*
X53109652Y-47444470D01*
X52988196Y-47338517D01*
X52851022Y-47249604D01*
X52849950Y-47249109D01*
X52965719Y-47178026D01*
X53089728Y-47075073D01*
X53199428Y-46953878D01*
X53289557Y-46820257D01*
X53360831Y-46673144D01*
X53409951Y-46519230D01*
X53437202Y-46350979D01*
X53437773Y-46304256D01*
X53439224Y-46304256D01*
X53439224Y-46185535D01*
X53439272Y-46181581D01*
X53439899Y-46130270D01*
X53439224Y-46130270D01*
X53439224Y-45736455D01*
X53438635Y-45733747D01*
X53439330Y-45676837D01*
X53416197Y-45507967D01*
X53370852Y-45352898D01*
X53303194Y-45204093D01*
X53216358Y-45068309D01*
X53109652Y-44944470D01*
X52988196Y-44838517D01*
X52851022Y-44749604D01*
X52704709Y-44681999D01*
X52548098Y-44635163D01*
X52388693Y-44611339D01*
X52225226Y-44610341D01*
X52222050Y-44610776D01*
X51786453Y-44610776D01*
X51759000Y-44616748D01*
X51759000Y-44453296D01*
X51827406Y-44384891D01*
X51963534Y-44149109D01*
X52034000Y-43886128D01*
X52034000Y-43613872D01*
X51963534Y-43350891D01*
X51827406Y-43115109D01*
X51634891Y-42922594D01*
X51399109Y-42786466D01*
X51136128Y-42716000D01*
X50863872Y-42716000D01*
X50600891Y-42786466D01*
X50365109Y-42922594D01*
X50172594Y-43115109D01*
X50036466Y-43350891D01*
X49966000Y-43613872D01*
X49966000Y-43886128D01*
X50036466Y-44149109D01*
X50172594Y-44384891D01*
X50241000Y-44453296D01*
X50241001Y-44899956D01*
X50200248Y-44934640D01*
X50092042Y-45057160D01*
X50003552Y-45191871D01*
X49934078Y-45339846D01*
X49886955Y-45493980D01*
X49861806Y-45655499D01*
X49861352Y-45692638D01*
X49860776Y-45692638D01*
X49860776Y-45739806D01*
X49859837Y-45816664D01*
X49860776Y-45823844D01*
X49860776Y-46239763D01*
X49859837Y-46316662D01*
X49881033Y-46478753D01*
X49924377Y-46633992D01*
X49990212Y-46783613D01*
X50075383Y-46920446D01*
X50180567Y-47045578D01*
X50300719Y-47153007D01*
X50436797Y-47243589D01*
X50450138Y-47249952D01*
X50322989Y-47330179D01*
X50200248Y-47434640D01*
X50117741Y-47528061D01*
X49886128Y-47466000D01*
X49613872Y-47466000D01*
X49350891Y-47536466D01*
X49115109Y-47672594D01*
X48922594Y-47865109D01*
X48786466Y-48100891D01*
X48716000Y-48363872D01*
X33509000Y-48363872D01*
X33509000Y-47410481D01*
X33600891Y-47463534D01*
X33863872Y-47534000D01*
X34136128Y-47534000D01*
X34399109Y-47463534D01*
X34634891Y-47327406D01*
X34827406Y-47134891D01*
X34963534Y-46899109D01*
X35034000Y-46636128D01*
X35034000Y-46527544D01*
X35049154Y-46497804D01*
X35084702Y-46448876D01*
X35103390Y-46391359D01*
X35130849Y-46337469D01*
X35138127Y-46291516D01*
X35426000Y-46579389D01*
X35426000Y-46676128D01*
X35496466Y-46939109D01*
X35632594Y-47174891D01*
X35825109Y-47367406D01*
X36060891Y-47503534D01*
X36323872Y-47574000D01*
X36596128Y-47574000D01*
X36859109Y-47503534D01*
X37094891Y-47367406D01*
X37287406Y-47174891D01*
X37423534Y-46939109D01*
X37494000Y-46676128D01*
X37494000Y-46403872D01*
X37423534Y-46140891D01*
X37287406Y-45905109D01*
X37094891Y-45712594D01*
X36859109Y-45576466D01*
X36596128Y-45506000D01*
X36499389Y-45506000D01*
X36028861Y-45035473D01*
X36028861Y-39421948D01*
X36100891Y-39463534D01*
X36363872Y-39534000D01*
X36636128Y-39534000D01*
X36899109Y-39463534D01*
X37134891Y-39327406D01*
X37203296Y-39259000D01*
X41230025Y-39259000D01*
X41246806Y-39295907D01*
X41333642Y-39431690D01*
X41440348Y-39555529D01*
X41561804Y-39661482D01*
X41698978Y-39750396D01*
X41757111Y-39777257D01*
X41684282Y-39821974D01*
X41560273Y-39924927D01*
X41450573Y-40046122D01*
X41360444Y-40179743D01*
X41289170Y-40326856D01*
X41240050Y-40480770D01*
X41212798Y-40649020D01*
X41212227Y-40695744D01*
X41210776Y-40695744D01*
X41210776Y-40814465D01*
X41210731Y-40818177D01*
X41210101Y-40869730D01*
X41210776Y-40869730D01*
X41210776Y-41263544D01*
X41211365Y-41266252D01*
X41210670Y-41323162D01*
X41233803Y-41492032D01*
X41279148Y-41647101D01*
X41346806Y-41795906D01*
X41433642Y-41931690D01*
X41540348Y-42055529D01*
X41661804Y-42161482D01*
X41798978Y-42250396D01*
X41800051Y-42250892D01*
X41684282Y-42321974D01*
X41560273Y-42424927D01*
X41450573Y-42546122D01*
X41360444Y-42679743D01*
X41289170Y-42826856D01*
X41240050Y-42980770D01*
X41212798Y-43149020D01*
X41212227Y-43195744D01*
X41210776Y-43195744D01*
X41210776Y-43314465D01*
X41210731Y-43318177D01*
X41210101Y-43369730D01*
X41210776Y-43369730D01*
X41210776Y-43763544D01*
X41211365Y-43766252D01*
X41210670Y-43823162D01*
X41233803Y-43992032D01*
X41279148Y-44147101D01*
X41346806Y-44295906D01*
X41433642Y-44431690D01*
X41540348Y-44555529D01*
X41631872Y-44635371D01*
X41432489Y-44688795D01*
X41256835Y-44836185D01*
X41145044Y-45029814D01*
X41108163Y-45238976D01*
X41108163Y-46766588D01*
X41188795Y-47067512D01*
X41336185Y-47243165D01*
X41529814Y-47354956D01*
X41738976Y-47391837D01*
X43266588Y-47391837D01*
X43567512Y-47311205D01*
X43743165Y-47163815D01*
X43854956Y-46970186D01*
X43891837Y-46761024D01*
X43891837Y-46653489D01*
X43897801Y-46649156D01*
X43951690Y-46621697D01*
X44122045Y-46451343D01*
X44122047Y-46451339D01*
X46571918Y-44001469D01*
X46621698Y-43951690D01*
X46649154Y-43897804D01*
X46684703Y-43848875D01*
X46703391Y-43791358D01*
X46730850Y-43737468D01*
X46740312Y-43677725D01*
X46758999Y-43620214D01*
X46758999Y-43560250D01*
X46759000Y-43560244D01*
X46759000Y-42953296D01*
X46827406Y-42884891D01*
X46963534Y-42649109D01*
X47034000Y-42386128D01*
X47034000Y-42113872D01*
X46963534Y-41850891D01*
X46833117Y-41625000D01*
X46963534Y-41399109D01*
X47034000Y-41136128D01*
X47034000Y-40863872D01*
X46963534Y-40600891D01*
X46827406Y-40365109D01*
X46634891Y-40172594D01*
X46399109Y-40036466D01*
X46136128Y-39966000D01*
X45863872Y-39966000D01*
X45718410Y-40004977D01*
X46208881Y-39514506D01*
X46399109Y-39463534D01*
X46634891Y-39327406D01*
X46827406Y-39134891D01*
X46963534Y-38899109D01*
X47034000Y-38636128D01*
X47034000Y-38363872D01*
X46963534Y-38100891D01*
X46833117Y-37875000D01*
X46963534Y-37649109D01*
X47034000Y-37386128D01*
X47034000Y-37113872D01*
X46963534Y-36850891D01*
X46905285Y-36750000D01*
X46963534Y-36649109D01*
X47034000Y-36386128D01*
X47034000Y-36113872D01*
X46963534Y-35850891D01*
X46905285Y-35750000D01*
X46963534Y-35649109D01*
X47034000Y-35386128D01*
X47034000Y-35113872D01*
X46963534Y-34850891D01*
X46827406Y-34615109D01*
X46634891Y-34422594D01*
X46577092Y-34389224D01*
X46653452Y-34389224D01*
X46724774Y-34389659D01*
X46727950Y-34389224D01*
X46738576Y-34389224D01*
X46738576Y-34387768D01*
X46884459Y-34367785D01*
X47041630Y-34322866D01*
X47184404Y-34259000D01*
X50296704Y-34259000D01*
X50365109Y-34327406D01*
X50600891Y-34463534D01*
X50863872Y-34534000D01*
X51136128Y-34534000D01*
X51399109Y-34463534D01*
X51634891Y-34327406D01*
X51827406Y-34134891D01*
X51963534Y-33899109D01*
X52034000Y-33636128D01*
X52034000Y-33363872D01*
X51963534Y-33100891D01*
X51827406Y-32865109D01*
X51634891Y-32672594D01*
X51399109Y-32536466D01*
X51136128Y-32466000D01*
X50863872Y-32466000D01*
X50600891Y-32536466D01*
X50365109Y-32672594D01*
X50296704Y-32741000D01*
X49784000Y-32741000D01*
X49784000Y-32613872D01*
X49713534Y-32350891D01*
X49577406Y-32115109D01*
X49384891Y-31922594D01*
X49149109Y-31786466D01*
X48886128Y-31716000D01*
X48789387Y-31716000D01*
X45996340Y-28922954D01*
X45996340Y-24863872D01*
X49216000Y-24863872D01*
X49216000Y-25136128D01*
X49286466Y-25399109D01*
X49422594Y-25634891D01*
X49491001Y-25703297D01*
X49491001Y-26370213D01*
X49509690Y-26427732D01*
X49519151Y-26487467D01*
X49546608Y-26541355D01*
X49565297Y-26598875D01*
X49600849Y-26647806D01*
X49628303Y-26701690D01*
X49716000Y-26789386D01*
X49716000Y-26886128D01*
X49786466Y-27149109D01*
X49922594Y-27384891D01*
X50115109Y-27577406D01*
X50350891Y-27713534D01*
X50613872Y-27784000D01*
X50886128Y-27784000D01*
X51149109Y-27713534D01*
X51384891Y-27577406D01*
X51577406Y-27384891D01*
X51713534Y-27149109D01*
X51784000Y-26886128D01*
X51784000Y-26613872D01*
X51713534Y-26350891D01*
X51577406Y-26115109D01*
X51384891Y-25922594D01*
X51149109Y-25786466D01*
X51009000Y-25748924D01*
X51009000Y-25703296D01*
X51077406Y-25634891D01*
X51213534Y-25399109D01*
X51284000Y-25136128D01*
X51284000Y-24863872D01*
X51213534Y-24600891D01*
X51077406Y-24365109D01*
X50884891Y-24172594D01*
X50649109Y-24036466D01*
X50386128Y-23966000D01*
X50113872Y-23966000D01*
X49850891Y-24036466D01*
X49615109Y-24172594D01*
X49422594Y-24365109D01*
X49286466Y-24600891D01*
X49216000Y-24863872D01*
X45996340Y-24863872D01*
X45996340Y-24190636D01*
X46064746Y-24122231D01*
X46200874Y-23886449D01*
X46271340Y-23623468D01*
X46271340Y-23351212D01*
X46200874Y-23088231D01*
X46064746Y-22852449D01*
X45872231Y-22659934D01*
X45636449Y-22523806D01*
X45373468Y-22453340D01*
X45240985Y-22453340D01*
X45213534Y-22350891D01*
X45077406Y-22115109D01*
X44884891Y-21922594D01*
X44649109Y-21786466D01*
X44386128Y-21716000D01*
X44244378Y-21716000D01*
X44213534Y-21600891D01*
X44077406Y-21365109D01*
X43884891Y-21172594D01*
X43649109Y-21036466D01*
X43386128Y-20966000D01*
X43113872Y-20966000D01*
X42850891Y-21036466D01*
X42615109Y-21172594D01*
X42422594Y-21365109D01*
X42286466Y-21600891D01*
X42216000Y-21863872D01*
X42216000Y-21960611D01*
X40548659Y-23627954D01*
X40548657Y-23627955D01*
X40378302Y-23798311D01*
X40350846Y-23852197D01*
X40315297Y-23901126D01*
X40296609Y-23958643D01*
X40269150Y-24012533D01*
X40259688Y-24072276D01*
X40241001Y-24129787D01*
X40241001Y-24189751D01*
X40241000Y-24189757D01*
X40241001Y-26816354D01*
X40109901Y-26685254D01*
X39874119Y-26549126D01*
X39611138Y-26478660D01*
X39338882Y-26478660D01*
X39075901Y-26549126D01*
X38840119Y-26685254D01*
X38647604Y-26877769D01*
X38511476Y-27113551D01*
X38509000Y-27122791D01*
X38509000Y-20989756D01*
X38508999Y-20989750D01*
X38508999Y-20929786D01*
X38490312Y-20872275D01*
X38480850Y-20812532D01*
X38453391Y-20758642D01*
X38434703Y-20701125D01*
X38399154Y-20652196D01*
X38371698Y-20598310D01*
X38321918Y-20548531D01*
X34355382Y-16581996D01*
X34361724Y-16561696D01*
X34387492Y-16402594D01*
X34390488Y-16239158D01*
X34389224Y-16229007D01*
X34389224Y-15786455D01*
X34365207Y-15676053D01*
X34389224Y-15509012D01*
X34389224Y-15008133D01*
X34390488Y-14939159D01*
X34389224Y-14929011D01*
X34389224Y-14914474D01*
X34387413Y-14914474D01*
X34370567Y-14779219D01*
X34327569Y-14621503D01*
X34263558Y-14473584D01*
X34178026Y-14334282D01*
X34164162Y-14317582D01*
X60863438Y-14317582D01*
X61091186Y-14483050D01*
X61334375Y-14606961D01*
X61593954Y-14691302D01*
X61863531Y-14734000D01*
X62136469Y-14734000D01*
X62406046Y-14691302D01*
X62665625Y-14606961D01*
X62908814Y-14483050D01*
X63136562Y-14317582D01*
X62000000Y-13181019D01*
X60863438Y-14317582D01*
X34164162Y-14317582D01*
X34075073Y-14210273D01*
X33953878Y-14100572D01*
X33820257Y-14010443D01*
X33673144Y-13939169D01*
X33519230Y-13890049D01*
X33350979Y-13862798D01*
X33304256Y-13862227D01*
X33304256Y-13860776D01*
X33185535Y-13860776D01*
X33181790Y-13860731D01*
X33130270Y-13860101D01*
X33130270Y-13860776D01*
X32973805Y-13860776D01*
X33034000Y-13636128D01*
X33034000Y-13363872D01*
X32963534Y-13100891D01*
X32827406Y-12865109D01*
X32825828Y-12863531D01*
X60266000Y-12863531D01*
X60266000Y-13136469D01*
X60308698Y-13406046D01*
X60393039Y-13665625D01*
X60516950Y-13908814D01*
X60682418Y-14136562D01*
X61818981Y-13000000D01*
X62181019Y-13000000D01*
X63317582Y-14136562D01*
X63483050Y-13908814D01*
X63606961Y-13665625D01*
X63691302Y-13406046D01*
X63734000Y-13136469D01*
X63734000Y-12863531D01*
X63691302Y-12593954D01*
X63606961Y-12334375D01*
X63483050Y-12091186D01*
X63317582Y-11863438D01*
X62181019Y-13000000D01*
X61818981Y-13000000D01*
X60682418Y-11863438D01*
X60516950Y-12091186D01*
X60393039Y-12334375D01*
X60308698Y-12593954D01*
X60266000Y-12863531D01*
X32825828Y-12863531D01*
X32634891Y-12672594D01*
X32399109Y-12536466D01*
X32136128Y-12466000D01*
X31863872Y-12466000D01*
X31600891Y-12536466D01*
X31365109Y-12672594D01*
X31172594Y-12865109D01*
X31036466Y-13100891D01*
X31000000Y-13236983D01*
X30963534Y-13100891D01*
X30827406Y-12865109D01*
X30634891Y-12672594D01*
X30399109Y-12536466D01*
X30136128Y-12466000D01*
X29863872Y-12466000D01*
X29600891Y-12536466D01*
X29365109Y-12672594D01*
X29250000Y-12787703D01*
X29134891Y-12672594D01*
X28899109Y-12536466D01*
X28636128Y-12466000D01*
X28363872Y-12466000D01*
X28100891Y-12536466D01*
X27865109Y-12672594D01*
X27672594Y-12865109D01*
X27536466Y-13100891D01*
X27466000Y-13363872D01*
X27466000Y-13460612D01*
X27065837Y-13860776D01*
X26760238Y-13860776D01*
X26683339Y-13859837D01*
X26521248Y-13881033D01*
X26366009Y-13924377D01*
X26216388Y-13990212D01*
X26079555Y-14075383D01*
X25954424Y-14180567D01*
X25846993Y-14300719D01*
X25756411Y-14436797D01*
X25687023Y-14582273D01*
X25638276Y-14738305D01*
X25612508Y-14897406D01*
X25609512Y-15060842D01*
X25610776Y-15070993D01*
X25610776Y-15513545D01*
X25634793Y-15623953D01*
X25610776Y-15790988D01*
X25610776Y-16291867D01*
X25609512Y-16360841D01*
X25610776Y-16370989D01*
X25610776Y-16385526D01*
X25612587Y-16385526D01*
X25629433Y-16520781D01*
X25672431Y-16678497D01*
X25736442Y-16826416D01*
X25821974Y-16965718D01*
X25924927Y-17089727D01*
X26046122Y-17199427D01*
X26179743Y-17289556D01*
X26326856Y-17360830D01*
X26480770Y-17409950D01*
X26649020Y-17437201D01*
X26695744Y-17437772D01*
X26695744Y-17439224D01*
X26814450Y-17439224D01*
X26869730Y-17439900D01*
X26869730Y-17439224D01*
X27065838Y-17439224D01*
X29741000Y-20114387D01*
X29741001Y-27028706D01*
X29634890Y-26922595D01*
X29399108Y-26786467D01*
X29136127Y-26716001D01*
X28863871Y-26716001D01*
X28600890Y-26786467D01*
X28365108Y-26922595D01*
X28250000Y-27037703D01*
X28134891Y-26922594D01*
X27899109Y-26786466D01*
X27636128Y-26716000D01*
X27363872Y-26716000D01*
X27100891Y-26786466D01*
X26865109Y-26922594D01*
X26672594Y-27115109D01*
X26671924Y-27116270D01*
X26648310Y-27128302D01*
X26065837Y-27710776D01*
X25760238Y-27710776D01*
X25683339Y-27709837D01*
X25521248Y-27731033D01*
X25499996Y-27736967D01*
X25463534Y-27600891D01*
X25327406Y-27365109D01*
X25134891Y-27172594D01*
X24899109Y-27036466D01*
X24636128Y-26966000D01*
X24363872Y-26966000D01*
X24100891Y-27036466D01*
X23865109Y-27172594D01*
X23796704Y-27241000D01*
X23729786Y-27241000D01*
X23672265Y-27259690D01*
X23612533Y-27269150D01*
X23558642Y-27296608D01*
X23501125Y-27315297D01*
X23452195Y-27350847D01*
X23398310Y-27378302D01*
X23354869Y-27421743D01*
X23354862Y-27421749D01*
X23065836Y-27710776D01*
X22760238Y-27710776D01*
X22683339Y-27709837D01*
X22521248Y-27731033D01*
X22380723Y-27770269D01*
X22380723Y-27491707D01*
X22510161Y-27362270D01*
X22606901Y-27362270D01*
X22869882Y-27291804D01*
X23105664Y-27155676D01*
X23298179Y-26963161D01*
X23434307Y-26727379D01*
X23504773Y-26464398D01*
X23504773Y-26192142D01*
X23434307Y-25929161D01*
X23298179Y-25693379D01*
X23105664Y-25500864D01*
X22869882Y-25364736D01*
X22606901Y-25294270D01*
X22334645Y-25294270D01*
X22071664Y-25364736D01*
X21835882Y-25500864D01*
X21643367Y-25693379D01*
X21507239Y-25929161D01*
X21436773Y-26192142D01*
X21436773Y-26288882D01*
X21155922Y-26569734D01*
X21000026Y-26725630D01*
X20972572Y-26779514D01*
X20937020Y-26828445D01*
X20918331Y-26885965D01*
X20890874Y-26939853D01*
X20881413Y-26999588D01*
X20862724Y-27057107D01*
X20862724Y-27127504D01*
X20862723Y-29931966D01*
X10634000Y-29931966D01*
X10634000Y-14317582D01*
X11863438Y-14317582D01*
X12091186Y-14483050D01*
X12334375Y-14606961D01*
X12593954Y-14691302D01*
X12863531Y-14734000D01*
X13136469Y-14734000D01*
X13406046Y-14691302D01*
X13665625Y-14606961D01*
X13908814Y-14483050D01*
X14136562Y-14317582D01*
X13000000Y-13181019D01*
X11863438Y-14317582D01*
X10634000Y-14317582D01*
X10634000Y-12863531D01*
X11266000Y-12863531D01*
X11266000Y-13136469D01*
X11308698Y-13406046D01*
X11393039Y-13665625D01*
X11516950Y-13908814D01*
X11682418Y-14136562D01*
X12818981Y-13000000D01*
X13181019Y-13000000D01*
X14317582Y-14136562D01*
X14483050Y-13908814D01*
X14606961Y-13665625D01*
X14691302Y-13406046D01*
X14734000Y-13136469D01*
X14734000Y-12863531D01*
X14691302Y-12593954D01*
X14606961Y-12334375D01*
X14483050Y-12091186D01*
X14317582Y-11863438D01*
X13181019Y-13000000D01*
X12818981Y-13000000D01*
X11682418Y-11863438D01*
X11516950Y-12091186D01*
X11393039Y-12334375D01*
X11308698Y-12593954D01*
X11266000Y-12863531D01*
X10634000Y-12863531D01*
X10634000Y-11682418D01*
X11863438Y-11682418D01*
X13000000Y-12818981D01*
X14136562Y-11682418D01*
X60863438Y-11682418D01*
X62000000Y-12818981D01*
X63136562Y-11682418D01*
X62908814Y-11516950D01*
X62665625Y-11393039D01*
X62406046Y-11308698D01*
X62136469Y-11266000D01*
X61863531Y-11266000D01*
X61593954Y-11308698D01*
X61334375Y-11393039D01*
X61091186Y-11516950D01*
X60863438Y-11682418D01*
X14136562Y-11682418D01*
X13908814Y-11516950D01*
X13665625Y-11393039D01*
X13406046Y-11308698D01*
X13136469Y-11266000D01*
X12863531Y-11266000D01*
X12593954Y-11308698D01*
X12334375Y-11393039D01*
X12091186Y-11516950D01*
X11863438Y-11682418D01*
X10634000Y-11682418D01*
X10634000Y-10634000D01*
X64366000Y-10634000D01*
X64366000Y-40348931D01*
G36*
X30991000Y-77060243D02*
G01*
X30991001Y-77060249D01*
X30991001Y-77120213D01*
X31009688Y-77177724D01*
X31019150Y-77237467D01*
X31046609Y-77291357D01*
X31065297Y-77348874D01*
X31100846Y-77397803D01*
X31128302Y-77451689D01*
X31298657Y-77622045D01*
X31298661Y-77622047D01*
X33241001Y-79564389D01*
X33241000Y-80310802D01*
X33240312Y-80308686D01*
X33230850Y-80248943D01*
X33203391Y-80195053D01*
X33184703Y-80137536D01*
X33149154Y-80088607D01*
X33121698Y-80034721D01*
X32965801Y-79878825D01*
X29678861Y-76591886D01*
X29678861Y-69788479D01*
X29692638Y-69788648D01*
X29692638Y-69789224D01*
X29739806Y-69789224D01*
X29816664Y-69790163D01*
X29823844Y-69789224D01*
X30239762Y-69789224D01*
X30316661Y-69790163D01*
X30478752Y-69768967D01*
X30633991Y-69725623D01*
X30783612Y-69659788D01*
X30920446Y-69574617D01*
X30991001Y-69515310D01*
X30991000Y-77060243D01*
G37*
X30991000Y-77060243D02*
X30991001Y-77060249D01*
X30991001Y-77120213D01*
X31009688Y-77177724D01*
X31019150Y-77237467D01*
X31046609Y-77291357D01*
X31065297Y-77348874D01*
X31100846Y-77397803D01*
X31128302Y-77451689D01*
X31298657Y-77622045D01*
X31298661Y-77622047D01*
X33241001Y-79564389D01*
X33241000Y-80310802D01*
X33240312Y-80308686D01*
X33230850Y-80248943D01*
X33203391Y-80195053D01*
X33184703Y-80137536D01*
X33149154Y-80088607D01*
X33121698Y-80034721D01*
X32965801Y-79878825D01*
X29678861Y-76591886D01*
X29678861Y-69788479D01*
X29692638Y-69788648D01*
X29692638Y-69789224D01*
X29739806Y-69789224D01*
X29816664Y-69790163D01*
X29823844Y-69789224D01*
X30239762Y-69789224D01*
X30316661Y-69790163D01*
X30478752Y-69768967D01*
X30633991Y-69725623D01*
X30783612Y-69659788D01*
X30920446Y-69574617D01*
X30991001Y-69515310D01*
X30991000Y-77060243D01*
G36*
X25536466Y-66149109D02*
G01*
X25672594Y-66384891D01*
X25741000Y-66453296D01*
X25741000Y-66819108D01*
X25687023Y-66932273D01*
X25638276Y-67088305D01*
X25612508Y-67247406D01*
X25609512Y-67410842D01*
X25610776Y-67420993D01*
X25610776Y-67863545D01*
X25634793Y-67973953D01*
X25610776Y-68140988D01*
X25610776Y-68641867D01*
X25609512Y-68710841D01*
X25610776Y-68720989D01*
X25610776Y-68735526D01*
X25612587Y-68735526D01*
X25629433Y-68870781D01*
X25672431Y-69028497D01*
X25736442Y-69176416D01*
X25821974Y-69315718D01*
X25924927Y-69439727D01*
X26046122Y-69549427D01*
X26179743Y-69639556D01*
X26326856Y-69710830D01*
X26480770Y-69759950D01*
X26649020Y-69787201D01*
X26695744Y-69787772D01*
X26695744Y-69789224D01*
X26814450Y-69789224D01*
X26869730Y-69789900D01*
X26869730Y-69789224D01*
X27263544Y-69789224D01*
X27266252Y-69788635D01*
X27323162Y-69789330D01*
X27492032Y-69766197D01*
X27647101Y-69720852D01*
X27795906Y-69653194D01*
X27931690Y-69566358D01*
X28055529Y-69459652D01*
X28160861Y-69338908D01*
X28160861Y-76966515D01*
X28160862Y-76966521D01*
X28160862Y-77026485D01*
X28179549Y-77083996D01*
X28189011Y-77143739D01*
X28216470Y-77197629D01*
X28235158Y-77255146D01*
X28270707Y-77304075D01*
X28298163Y-77357961D01*
X28468518Y-77528317D01*
X28468522Y-77528319D01*
X31150978Y-80210776D01*
X30934163Y-80210776D01*
X24509000Y-73785614D01*
X24509000Y-71255900D01*
X24613872Y-71284000D01*
X24886128Y-71284000D01*
X25149109Y-71213534D01*
X25384891Y-71077406D01*
X25577406Y-70884891D01*
X25713534Y-70649109D01*
X25784000Y-70386128D01*
X25784000Y-70113872D01*
X25713534Y-69850891D01*
X25577406Y-69615109D01*
X25509000Y-69546704D01*
X25509000Y-66046605D01*
X25536466Y-66149109D01*
G37*
X25536466Y-66149109D02*
X25672594Y-66384891D01*
X25741000Y-66453296D01*
X25741000Y-66819108D01*
X25687023Y-66932273D01*
X25638276Y-67088305D01*
X25612508Y-67247406D01*
X25609512Y-67410842D01*
X25610776Y-67420993D01*
X25610776Y-67863545D01*
X25634793Y-67973953D01*
X25610776Y-68140988D01*
X25610776Y-68641867D01*
X25609512Y-68710841D01*
X25610776Y-68720989D01*
X25610776Y-68735526D01*
X25612587Y-68735526D01*
X25629433Y-68870781D01*
X25672431Y-69028497D01*
X25736442Y-69176416D01*
X25821974Y-69315718D01*
X25924927Y-69439727D01*
X26046122Y-69549427D01*
X26179743Y-69639556D01*
X26326856Y-69710830D01*
X26480770Y-69759950D01*
X26649020Y-69787201D01*
X26695744Y-69787772D01*
X26695744Y-69789224D01*
X26814450Y-69789224D01*
X26869730Y-69789900D01*
X26869730Y-69789224D01*
X27263544Y-69789224D01*
X27266252Y-69788635D01*
X27323162Y-69789330D01*
X27492032Y-69766197D01*
X27647101Y-69720852D01*
X27795906Y-69653194D01*
X27931690Y-69566358D01*
X28055529Y-69459652D01*
X28160861Y-69338908D01*
X28160861Y-76966515D01*
X28160862Y-76966521D01*
X28160862Y-77026485D01*
X28179549Y-77083996D01*
X28189011Y-77143739D01*
X28216470Y-77197629D01*
X28235158Y-77255146D01*
X28270707Y-77304075D01*
X28298163Y-77357961D01*
X28468518Y-77528317D01*
X28468522Y-77528319D01*
X31150978Y-80210776D01*
X30934163Y-80210776D01*
X24509000Y-73785614D01*
X24509000Y-71255900D01*
X24613872Y-71284000D01*
X24886128Y-71284000D01*
X25149109Y-71213534D01*
X25384891Y-71077406D01*
X25577406Y-70884891D01*
X25713534Y-70649109D01*
X25784000Y-70386128D01*
X25784000Y-70113872D01*
X25713534Y-69850891D01*
X25577406Y-69615109D01*
X25509000Y-69546704D01*
X25509000Y-66046605D01*
X25536466Y-66149109D01*
G36*
X34491000Y-78667611D02*
G01*
X32509000Y-76685614D01*
X32509000Y-69765384D01*
X32655499Y-69788194D01*
X32692638Y-69788648D01*
X32692638Y-69789224D01*
X32739806Y-69789224D01*
X32816664Y-69790163D01*
X32823844Y-69789224D01*
X33239762Y-69789224D01*
X33316661Y-69790163D01*
X33478752Y-69768967D01*
X33633991Y-69725623D01*
X33783612Y-69659788D01*
X33920446Y-69574617D01*
X34045578Y-69469433D01*
X34153007Y-69349281D01*
X34204196Y-69272382D01*
X34205538Y-69271698D01*
X34375893Y-69101343D01*
X34375895Y-69101339D01*
X34491000Y-68986234D01*
X34491000Y-78667611D01*
G37*
X34491000Y-78667611D02*
X32509000Y-76685614D01*
X32509000Y-69765384D01*
X32655499Y-69788194D01*
X32692638Y-69788648D01*
X32692638Y-69789224D01*
X32739806Y-69789224D01*
X32816664Y-69790163D01*
X32823844Y-69789224D01*
X33239762Y-69789224D01*
X33316661Y-69790163D01*
X33478752Y-69768967D01*
X33633991Y-69725623D01*
X33783612Y-69659788D01*
X33920446Y-69574617D01*
X34045578Y-69469433D01*
X34153007Y-69349281D01*
X34204196Y-69272382D01*
X34205538Y-69271698D01*
X34375893Y-69101343D01*
X34375895Y-69101339D01*
X34491000Y-68986234D01*
X34491000Y-78667611D01*
G36*
X25422594Y-35134891D02*
G01*
X25491001Y-35203297D01*
X25491000Y-36560243D01*
X25491001Y-36560249D01*
X25491001Y-36620213D01*
X25509688Y-36677724D01*
X25519150Y-36737467D01*
X25546609Y-36791357D01*
X25565297Y-36848874D01*
X25600846Y-36897803D01*
X25628302Y-36951689D01*
X25798657Y-37122045D01*
X25798659Y-37122046D01*
X27729864Y-39053253D01*
X27729871Y-39053259D01*
X27773312Y-39096700D01*
X27827197Y-39124155D01*
X27876127Y-39159705D01*
X27933644Y-39178394D01*
X27987535Y-39205852D01*
X28047267Y-39215312D01*
X28104788Y-39234002D01*
X30972572Y-39234002D01*
X30972578Y-39234001D01*
X31032541Y-39234001D01*
X31090054Y-39215314D01*
X31149796Y-39205852D01*
X31203687Y-39178392D01*
X31261201Y-39159706D01*
X31282068Y-39144545D01*
X27784200Y-42642414D01*
X27628303Y-42798310D01*
X27600849Y-42852194D01*
X27565297Y-42901125D01*
X27546608Y-42958645D01*
X27519151Y-43012533D01*
X27509690Y-43072268D01*
X27491001Y-43129787D01*
X27491001Y-51089520D01*
X27399109Y-51036466D01*
X27136128Y-50966000D01*
X26863872Y-50966000D01*
X26600891Y-51036466D01*
X26365109Y-51172594D01*
X26172594Y-51365109D01*
X26036466Y-51600891D01*
X25966000Y-51863872D01*
X25966000Y-52136128D01*
X26036466Y-52399109D01*
X26172594Y-52634891D01*
X26241000Y-52703296D01*
X26241001Y-54766703D01*
X26157594Y-54850109D01*
X26021466Y-55085891D01*
X25951000Y-55348872D01*
X25951000Y-55621128D01*
X26021466Y-55884109D01*
X26157594Y-56119891D01*
X26350109Y-56312406D01*
X26585891Y-56448534D01*
X26848872Y-56519000D01*
X27121128Y-56519000D01*
X27384109Y-56448534D01*
X27491000Y-56386821D01*
X27491000Y-65453395D01*
X27463534Y-65350891D01*
X27327406Y-65115109D01*
X27134891Y-64922594D01*
X26899109Y-64786466D01*
X26636128Y-64716000D01*
X26363872Y-64716000D01*
X26100891Y-64786466D01*
X25865109Y-64922594D01*
X25672594Y-65115109D01*
X25536466Y-65350891D01*
X25509000Y-65453395D01*
X25509000Y-57229430D01*
X25534000Y-57136128D01*
X25534000Y-56863872D01*
X25463534Y-56600891D01*
X25327406Y-56365109D01*
X25134891Y-56172594D01*
X24899109Y-56036466D01*
X24636128Y-55966000D01*
X24509000Y-55966000D01*
X24509000Y-38953296D01*
X24577406Y-38884891D01*
X24713534Y-38649109D01*
X24784000Y-38386128D01*
X24784000Y-38113872D01*
X24759000Y-38020570D01*
X24759000Y-37669975D01*
X24795907Y-37653194D01*
X24931690Y-37566358D01*
X25055529Y-37459652D01*
X25161482Y-37338196D01*
X25250396Y-37201022D01*
X25318001Y-37054709D01*
X25364837Y-36898098D01*
X25388661Y-36738693D01*
X25389659Y-36575227D01*
X25389224Y-36572051D01*
X25389224Y-36136455D01*
X25365207Y-36026047D01*
X25389224Y-35859012D01*
X25389224Y-35346548D01*
X25389659Y-35275226D01*
X25389224Y-35272050D01*
X25389224Y-35261424D01*
X25387768Y-35261424D01*
X25367785Y-35115541D01*
X25325009Y-34965867D01*
X25422594Y-35134891D01*
G37*
X25422594Y-35134891D02*
X25491001Y-35203297D01*
X25491000Y-36560243D01*
X25491001Y-36560249D01*
X25491001Y-36620213D01*
X25509688Y-36677724D01*
X25519150Y-36737467D01*
X25546609Y-36791357D01*
X25565297Y-36848874D01*
X25600846Y-36897803D01*
X25628302Y-36951689D01*
X25798657Y-37122045D01*
X25798659Y-37122046D01*
X27729864Y-39053253D01*
X27729871Y-39053259D01*
X27773312Y-39096700D01*
X27827197Y-39124155D01*
X27876127Y-39159705D01*
X27933644Y-39178394D01*
X27987535Y-39205852D01*
X28047267Y-39215312D01*
X28104788Y-39234002D01*
X30972572Y-39234002D01*
X30972578Y-39234001D01*
X31032541Y-39234001D01*
X31090054Y-39215314D01*
X31149796Y-39205852D01*
X31203687Y-39178392D01*
X31261201Y-39159706D01*
X31282068Y-39144545D01*
X27784200Y-42642414D01*
X27628303Y-42798310D01*
X27600849Y-42852194D01*
X27565297Y-42901125D01*
X27546608Y-42958645D01*
X27519151Y-43012533D01*
X27509690Y-43072268D01*
X27491001Y-43129787D01*
X27491001Y-51089520D01*
X27399109Y-51036466D01*
X27136128Y-50966000D01*
X26863872Y-50966000D01*
X26600891Y-51036466D01*
X26365109Y-51172594D01*
X26172594Y-51365109D01*
X26036466Y-51600891D01*
X25966000Y-51863872D01*
X25966000Y-52136128D01*
X26036466Y-52399109D01*
X26172594Y-52634891D01*
X26241000Y-52703296D01*
X26241001Y-54766703D01*
X26157594Y-54850109D01*
X26021466Y-55085891D01*
X25951000Y-55348872D01*
X25951000Y-55621128D01*
X26021466Y-55884109D01*
X26157594Y-56119891D01*
X26350109Y-56312406D01*
X26585891Y-56448534D01*
X26848872Y-56519000D01*
X27121128Y-56519000D01*
X27384109Y-56448534D01*
X27491000Y-56386821D01*
X27491000Y-65453395D01*
X27463534Y-65350891D01*
X27327406Y-65115109D01*
X27134891Y-64922594D01*
X26899109Y-64786466D01*
X26636128Y-64716000D01*
X26363872Y-64716000D01*
X26100891Y-64786466D01*
X25865109Y-64922594D01*
X25672594Y-65115109D01*
X25536466Y-65350891D01*
X25509000Y-65453395D01*
X25509000Y-57229430D01*
X25534000Y-57136128D01*
X25534000Y-56863872D01*
X25463534Y-56600891D01*
X25327406Y-56365109D01*
X25134891Y-56172594D01*
X24899109Y-56036466D01*
X24636128Y-55966000D01*
X24509000Y-55966000D01*
X24509000Y-38953296D01*
X24577406Y-38884891D01*
X24713534Y-38649109D01*
X24784000Y-38386128D01*
X24784000Y-38113872D01*
X24759000Y-38020570D01*
X24759000Y-37669975D01*
X24795907Y-37653194D01*
X24931690Y-37566358D01*
X25055529Y-37459652D01*
X25161482Y-37338196D01*
X25250396Y-37201022D01*
X25318001Y-37054709D01*
X25364837Y-36898098D01*
X25388661Y-36738693D01*
X25389659Y-36575227D01*
X25389224Y-36572051D01*
X25389224Y-36136455D01*
X25365207Y-36026047D01*
X25389224Y-35859012D01*
X25389224Y-35346548D01*
X25389659Y-35275226D01*
X25389224Y-35272050D01*
X25389224Y-35261424D01*
X25387768Y-35261424D01*
X25367785Y-35115541D01*
X25325009Y-34965867D01*
X25422594Y-35134891D01*
G36*
X33641000Y-45525719D02*
G01*
X33600891Y-45536466D01*
X33509000Y-45589519D01*
X33509000Y-40137389D01*
X33641000Y-40005389D01*
X33641000Y-45525719D01*
G37*
X33641000Y-45525719D02*
X33600891Y-45536466D01*
X33509000Y-45589519D01*
X33509000Y-40137389D01*
X33641000Y-40005389D01*
X33641000Y-45525719D01*
G36*
X44273806Y-23886449D02*
G01*
X44409934Y-24122231D01*
X44478341Y-24190637D01*
X44478341Y-24490709D01*
X44386128Y-24466000D01*
X44113872Y-24466000D01*
X43850891Y-24536466D01*
X43615109Y-24672594D01*
X43422594Y-24865109D01*
X43286466Y-25100891D01*
X43216000Y-25363872D01*
X43216000Y-25636128D01*
X43286466Y-25899109D01*
X43422594Y-26134891D01*
X43491001Y-26203297D01*
X43491000Y-27686609D01*
X42759000Y-28418610D01*
X42759000Y-25314387D01*
X44255449Y-23817940D01*
X44273806Y-23886449D01*
G37*
X44273806Y-23886449D02*
X44409934Y-24122231D01*
X44478341Y-24190637D01*
X44478341Y-24490709D01*
X44386128Y-24466000D01*
X44113872Y-24466000D01*
X43850891Y-24536466D01*
X43615109Y-24672594D01*
X43422594Y-24865109D01*
X43286466Y-25100891D01*
X43216000Y-25363872D01*
X43216000Y-25636128D01*
X43286466Y-25899109D01*
X43422594Y-26134891D01*
X43491001Y-26203297D01*
X43491000Y-27686609D01*
X42759000Y-28418610D01*
X42759000Y-25314387D01*
X44255449Y-23817940D01*
X44273806Y-23886449D01*
G36*
X28681999Y-14595291D02*
G01*
X28635163Y-14751902D01*
X28611339Y-14911307D01*
X28610341Y-15074773D01*
X28610776Y-15077949D01*
X28610776Y-15513545D01*
X28634793Y-15623947D01*
X28610776Y-15790988D01*
X28610776Y-16303452D01*
X28610341Y-16374774D01*
X28610776Y-16377950D01*
X28610776Y-16388576D01*
X28612232Y-16388576D01*
X28632215Y-16534459D01*
X28677134Y-16691630D01*
X28742947Y-16838758D01*
X28830179Y-16977010D01*
X28934640Y-17099751D01*
X29057160Y-17207958D01*
X29191871Y-17296448D01*
X29339846Y-17365922D01*
X29493980Y-17413045D01*
X29655499Y-17438194D01*
X29692638Y-17438648D01*
X29692638Y-17439224D01*
X29739806Y-17439224D01*
X29816664Y-17440163D01*
X29823844Y-17439224D01*
X30065838Y-17439224D01*
X36241000Y-23614387D01*
X36241001Y-27822045D01*
X36173144Y-27789169D01*
X36019230Y-27740049D01*
X35850979Y-27712798D01*
X35804256Y-27712227D01*
X35804256Y-27710776D01*
X35685535Y-27710776D01*
X35681790Y-27710731D01*
X35630270Y-27710101D01*
X35630270Y-27710776D01*
X35236456Y-27710776D01*
X35233748Y-27711365D01*
X35176838Y-27710670D01*
X35007968Y-27733803D01*
X34852900Y-27779148D01*
X34852648Y-27779262D01*
X34784000Y-27710614D01*
X34784000Y-27613872D01*
X34713534Y-27350891D01*
X34577406Y-27115109D01*
X34384891Y-26922594D01*
X34149109Y-26786466D01*
X33886128Y-26716000D01*
X33613872Y-26716000D01*
X33350891Y-26786466D01*
X33115109Y-26922594D01*
X32922594Y-27115109D01*
X32875000Y-27197545D01*
X32827406Y-27115109D01*
X32634891Y-26922594D01*
X32399109Y-26786466D01*
X32136128Y-26716000D01*
X31863872Y-26716000D01*
X31600891Y-26786466D01*
X31365109Y-26922594D01*
X31259000Y-27028703D01*
X31259000Y-19739756D01*
X31258999Y-19739750D01*
X31258999Y-19679786D01*
X31240312Y-19622275D01*
X31230850Y-19562532D01*
X31203391Y-19508642D01*
X31184703Y-19451125D01*
X31149154Y-19402196D01*
X31121698Y-19348310D01*
X28354857Y-16581470D01*
X28364837Y-16548098D01*
X28388661Y-16388693D01*
X28389659Y-16225227D01*
X28389224Y-16222051D01*
X28389224Y-15786455D01*
X28365207Y-15676047D01*
X28389224Y-15509012D01*
X28389224Y-14996548D01*
X28389659Y-14925226D01*
X28389224Y-14922050D01*
X28389224Y-14911424D01*
X28387768Y-14911424D01*
X28367785Y-14765541D01*
X28354462Y-14718925D01*
X28539387Y-14534000D01*
X28636128Y-14534000D01*
X28720802Y-14511311D01*
X28681999Y-14595291D01*
G37*
X28681999Y-14595291D02*
X28635163Y-14751902D01*
X28611339Y-14911307D01*
X28610341Y-15074773D01*
X28610776Y-15077949D01*
X28610776Y-15513545D01*
X28634793Y-15623947D01*
X28610776Y-15790988D01*
X28610776Y-16303452D01*
X28610341Y-16374774D01*
X28610776Y-16377950D01*
X28610776Y-16388576D01*
X28612232Y-16388576D01*
X28632215Y-16534459D01*
X28677134Y-16691630D01*
X28742947Y-16838758D01*
X28830179Y-16977010D01*
X28934640Y-17099751D01*
X29057160Y-17207958D01*
X29191871Y-17296448D01*
X29339846Y-17365922D01*
X29493980Y-17413045D01*
X29655499Y-17438194D01*
X29692638Y-17438648D01*
X29692638Y-17439224D01*
X29739806Y-17439224D01*
X29816664Y-17440163D01*
X29823844Y-17439224D01*
X30065838Y-17439224D01*
X36241000Y-23614387D01*
X36241001Y-27822045D01*
X36173144Y-27789169D01*
X36019230Y-27740049D01*
X35850979Y-27712798D01*
X35804256Y-27712227D01*
X35804256Y-27710776D01*
X35685535Y-27710776D01*
X35681790Y-27710731D01*
X35630270Y-27710101D01*
X35630270Y-27710776D01*
X35236456Y-27710776D01*
X35233748Y-27711365D01*
X35176838Y-27710670D01*
X35007968Y-27733803D01*
X34852900Y-27779148D01*
X34852648Y-27779262D01*
X34784000Y-27710614D01*
X34784000Y-27613872D01*
X34713534Y-27350891D01*
X34577406Y-27115109D01*
X34384891Y-26922594D01*
X34149109Y-26786466D01*
X33886128Y-26716000D01*
X33613872Y-26716000D01*
X33350891Y-26786466D01*
X33115109Y-26922594D01*
X32922594Y-27115109D01*
X32875000Y-27197545D01*
X32827406Y-27115109D01*
X32634891Y-26922594D01*
X32399109Y-26786466D01*
X32136128Y-26716000D01*
X31863872Y-26716000D01*
X31600891Y-26786466D01*
X31365109Y-26922594D01*
X31259000Y-27028703D01*
X31259000Y-19739756D01*
X31258999Y-19739750D01*
X31258999Y-19679786D01*
X31240312Y-19622275D01*
X31230850Y-19562532D01*
X31203391Y-19508642D01*
X31184703Y-19451125D01*
X31149154Y-19402196D01*
X31121698Y-19348310D01*
X28354857Y-16581470D01*
X28364837Y-16548098D01*
X28388661Y-16388693D01*
X28389659Y-16225227D01*
X28389224Y-16222051D01*
X28389224Y-15786455D01*
X28365207Y-15676047D01*
X28389224Y-15509012D01*
X28389224Y-14996548D01*
X28389659Y-14925226D01*
X28389224Y-14922050D01*
X28389224Y-14911424D01*
X28387768Y-14911424D01*
X28367785Y-14765541D01*
X28354462Y-14718925D01*
X28539387Y-14534000D01*
X28636128Y-14534000D01*
X28720802Y-14511311D01*
X28681999Y-14595291D01*
G36*
X31036466Y-13899109D02*
G01*
X31172594Y-14134891D01*
X31268017Y-14230313D01*
X31269150Y-14237466D01*
X31296608Y-14291357D01*
X31315297Y-14348875D01*
X31350845Y-14397801D01*
X31378303Y-14451690D01*
X31428082Y-14501468D01*
X31645143Y-14718530D01*
X31635163Y-14751902D01*
X31611339Y-14911307D01*
X31610341Y-15074773D01*
X31610776Y-15077949D01*
X31610776Y-15513545D01*
X31634793Y-15623947D01*
X31610776Y-15790988D01*
X31610776Y-16303452D01*
X31610341Y-16374774D01*
X31610776Y-16377950D01*
X31610776Y-16388576D01*
X31612232Y-16388576D01*
X31632215Y-16534459D01*
X31677134Y-16691630D01*
X31742947Y-16838758D01*
X31830179Y-16977010D01*
X31934640Y-17099751D01*
X32057160Y-17207958D01*
X32191871Y-17296448D01*
X32339846Y-17365922D01*
X32493980Y-17413045D01*
X32655499Y-17438194D01*
X32692638Y-17438648D01*
X32692638Y-17439224D01*
X32739806Y-17439224D01*
X32816664Y-17440163D01*
X32823844Y-17439224D01*
X33065838Y-17439224D01*
X36991000Y-21364387D01*
X36991000Y-22217613D01*
X31355382Y-16581996D01*
X31361724Y-16561696D01*
X31387492Y-16402594D01*
X31390488Y-16239158D01*
X31389224Y-16229007D01*
X31389224Y-15786455D01*
X31365207Y-15676053D01*
X31389224Y-15509012D01*
X31389224Y-15008133D01*
X31390488Y-14939159D01*
X31389224Y-14929011D01*
X31389224Y-14914474D01*
X31387413Y-14914474D01*
X31370567Y-14779219D01*
X31327569Y-14621503D01*
X31263558Y-14473584D01*
X31178026Y-14334282D01*
X31075073Y-14210273D01*
X30953878Y-14100572D01*
X30877114Y-14048794D01*
X30963534Y-13899109D01*
X31000000Y-13763017D01*
X31036466Y-13899109D01*
G37*
X31036466Y-13899109D02*
X31172594Y-14134891D01*
X31268017Y-14230313D01*
X31269150Y-14237466D01*
X31296608Y-14291357D01*
X31315297Y-14348875D01*
X31350845Y-14397801D01*
X31378303Y-14451690D01*
X31428082Y-14501468D01*
X31645143Y-14718530D01*
X31635163Y-14751902D01*
X31611339Y-14911307D01*
X31610341Y-15074773D01*
X31610776Y-15077949D01*
X31610776Y-15513545D01*
X31634793Y-15623947D01*
X31610776Y-15790988D01*
X31610776Y-16303452D01*
X31610341Y-16374774D01*
X31610776Y-16377950D01*
X31610776Y-16388576D01*
X31612232Y-16388576D01*
X31632215Y-16534459D01*
X31677134Y-16691630D01*
X31742947Y-16838758D01*
X31830179Y-16977010D01*
X31934640Y-17099751D01*
X32057160Y-17207958D01*
X32191871Y-17296448D01*
X32339846Y-17365922D01*
X32493980Y-17413045D01*
X32655499Y-17438194D01*
X32692638Y-17438648D01*
X32692638Y-17439224D01*
X32739806Y-17439224D01*
X32816664Y-17440163D01*
X32823844Y-17439224D01*
X33065838Y-17439224D01*
X36991000Y-21364387D01*
X36991000Y-22217613D01*
X31355382Y-16581996D01*
X31361724Y-16561696D01*
X31387492Y-16402594D01*
X31390488Y-16239158D01*
X31389224Y-16229007D01*
X31389224Y-15786455D01*
X31365207Y-15676053D01*
X31389224Y-15509012D01*
X31389224Y-15008133D01*
X31390488Y-14939159D01*
X31389224Y-14929011D01*
X31389224Y-14914474D01*
X31387413Y-14914474D01*
X31370567Y-14779219D01*
X31327569Y-14621503D01*
X31263558Y-14473584D01*
X31178026Y-14334282D01*
X31075073Y-14210273D01*
X30953878Y-14100572D01*
X30877114Y-14048794D01*
X30963534Y-13899109D01*
X31000000Y-13763017D01*
X31036466Y-13899109D01*
G36*
X57688795Y-34317512D02*
G01*
X57836185Y-34493165D01*
X58029814Y-34604956D01*
X58159825Y-34627881D01*
X57932489Y-34688795D01*
X57756835Y-34836185D01*
X57645044Y-35029814D01*
X57608163Y-35238976D01*
X57608163Y-35241000D01*
X56971297Y-35241000D01*
X57077406Y-35134891D01*
X57213534Y-34899109D01*
X57284000Y-34636128D01*
X57284000Y-34539387D01*
X57650140Y-34173248D01*
X57688795Y-34317512D01*
G37*
X57688795Y-34317512D02*
X57836185Y-34493165D01*
X58029814Y-34604956D01*
X58159825Y-34627881D01*
X57932489Y-34688795D01*
X57756835Y-34836185D01*
X57645044Y-35029814D01*
X57608163Y-35238976D01*
X57608163Y-35241000D01*
X56971297Y-35241000D01*
X57077406Y-35134891D01*
X57213534Y-34899109D01*
X57284000Y-34636128D01*
X57284000Y-34539387D01*
X57650140Y-34173248D01*
X57688795Y-34317512D01*
M02*
