G04 #@! TF.GenerationSoftware,KiCad,Pcbnew,5.99.0-unknown-38f13ef~100~ubuntu18.04.1*
G04 #@! TF.CreationDate,2020-01-22T11:40:01-08:00*
G04 #@! TF.ProjectId,board_esp32,626f6172-645f-4657-9370-33322e6b6963,rev?*
G04 #@! TF.SameCoordinates,Original*
G04 #@! TF.FileFunction,Soldermask,Bot*
G04 #@! TF.FilePolarity,Negative*
%FSLAX46Y46*%
G04 Gerber Fmt 4.6, Leading zero omitted, Abs format (unit mm)*
G04 Created by KiCad (PCBNEW 5.99.0-unknown-38f13ef~100~ubuntu18.04.1) date 2020-01-22 11:40:01*
%MOMM*%
%LPD*%
G04 APERTURE LIST*
G04 APERTURE END LIST*
G36*
X62042240Y-85847018D02*
G01*
X62066523Y-85846255D01*
X62144421Y-85857758D01*
X62225511Y-85866281D01*
X62248746Y-85873164D01*
X62269783Y-85876270D01*
X62347281Y-85902351D01*
X62428338Y-85926361D01*
X62447232Y-85935988D01*
X62464517Y-85941805D01*
X62538826Y-85982657D01*
X62616821Y-86022398D01*
X62631247Y-86033467D01*
X62644561Y-86040787D01*
X62712810Y-86096053D01*
X62784646Y-86151175D01*
X62794781Y-86162431D01*
X62804238Y-86170089D01*
X62863628Y-86238894D01*
X62926193Y-86308379D01*
X62932525Y-86318712D01*
X62938493Y-86325626D01*
X62986322Y-86406500D01*
X63036722Y-86488745D01*
X63039978Y-86497227D01*
X63043084Y-86502479D01*
X63076959Y-86593567D01*
X63112531Y-86686234D01*
X63113633Y-86692178D01*
X63114700Y-86695048D01*
X63132497Y-86793960D01*
X63151081Y-86894231D01*
X63143968Y-87165867D01*
X63120159Y-87265038D01*
X63097214Y-87362864D01*
X63095999Y-87365671D01*
X63094585Y-87371562D01*
X63054163Y-87462352D01*
X63015613Y-87551436D01*
X63012237Y-87556517D01*
X63008544Y-87564812D01*
X62953925Y-87644283D01*
X62901911Y-87722570D01*
X62895589Y-87729162D01*
X62888727Y-87739147D01*
X62822616Y-87805258D01*
X62759704Y-87870862D01*
X62749860Y-87878014D01*
X62739147Y-87888727D01*
X62664537Y-87940005D01*
X62593480Y-87991631D01*
X62579795Y-87998247D01*
X62564812Y-88008544D01*
X62484825Y-88044157D01*
X62408493Y-88081057D01*
X62390937Y-88085959D01*
X62371562Y-88094585D01*
X62289347Y-88114323D01*
X62210602Y-88136309D01*
X62189435Y-88138310D01*
X62165867Y-88143968D01*
X62084420Y-88148236D01*
X62006054Y-88155644D01*
X61981852Y-88153612D01*
X61954618Y-88155039D01*
X61876725Y-88144784D01*
X61801308Y-88138451D01*
X61774922Y-88131381D01*
X61744889Y-88127427D01*
X61673044Y-88104083D01*
X61602843Y-88085273D01*
X61575382Y-88072351D01*
X61543704Y-88062058D01*
X61479966Y-88027451D01*
X61416937Y-87997792D01*
X61389732Y-87978459D01*
X61357800Y-87961121D01*
X61303773Y-87917371D01*
X61249459Y-87878772D01*
X61223990Y-87852764D01*
X61193403Y-87827995D01*
X61150210Y-87777422D01*
X61105705Y-87731975D01*
X61083543Y-87699364D01*
X61056020Y-87667139D01*
X61024271Y-87612149D01*
X60990216Y-87562038D01*
X60972950Y-87523259D01*
X60950250Y-87483941D01*
X60930060Y-87426926D01*
X60906647Y-87374340D01*
X60895800Y-87330178D01*
X60879637Y-87284536D01*
X60870647Y-87227775D01*
X60857636Y-87174804D01*
X60854591Y-87126401D01*
X60846545Y-87075601D01*
X60847970Y-87021164D01*
X60844736Y-86969752D01*
X60850656Y-86918584D01*
X60852082Y-86864135D01*
X60862779Y-86813810D01*
X60868352Y-86765644D01*
X60884114Y-86713436D01*
X60896064Y-86657219D01*
X60914594Y-86612483D01*
X60927736Y-86568955D01*
X60953864Y-86517676D01*
X60977016Y-86461782D01*
X61001750Y-86423695D01*
X61021016Y-86385884D01*
X61057638Y-86337636D01*
X61092229Y-86284371D01*
X61121405Y-86253626D01*
X61145237Y-86222228D01*
X61192046Y-86179185D01*
X61237842Y-86130926D01*
X61269697Y-86107782D01*
X61296482Y-86083152D01*
X61352722Y-86047461D01*
X61408981Y-86006586D01*
X61441783Y-85990940D01*
X61469956Y-85973061D01*
X61534433Y-85946748D01*
X61599913Y-85915516D01*
X61632097Y-85906892D01*
X61660192Y-85895427D01*
X61731272Y-85880319D01*
X61804244Y-85860766D01*
X61834442Y-85858389D01*
X61861162Y-85852710D01*
X61936826Y-85850332D01*
X62015131Y-85844169D01*
X62042240Y-85847018D01*
G37*
G36*
X13042240Y-85847018D02*
G01*
X13066523Y-85846255D01*
X13144421Y-85857758D01*
X13225511Y-85866281D01*
X13248746Y-85873164D01*
X13269783Y-85876270D01*
X13347281Y-85902351D01*
X13428338Y-85926361D01*
X13447232Y-85935988D01*
X13464517Y-85941805D01*
X13538826Y-85982657D01*
X13616821Y-86022398D01*
X13631247Y-86033467D01*
X13644561Y-86040787D01*
X13712810Y-86096053D01*
X13784646Y-86151175D01*
X13794781Y-86162431D01*
X13804238Y-86170089D01*
X13863628Y-86238894D01*
X13926193Y-86308379D01*
X13932525Y-86318712D01*
X13938493Y-86325626D01*
X13986322Y-86406500D01*
X14036722Y-86488745D01*
X14039978Y-86497227D01*
X14043084Y-86502479D01*
X14076959Y-86593567D01*
X14112531Y-86686234D01*
X14113633Y-86692178D01*
X14114700Y-86695048D01*
X14132497Y-86793960D01*
X14151081Y-86894231D01*
X14143968Y-87165867D01*
X14120159Y-87265038D01*
X14097214Y-87362864D01*
X14095999Y-87365671D01*
X14094585Y-87371562D01*
X14054163Y-87462352D01*
X14015613Y-87551436D01*
X14012237Y-87556517D01*
X14008544Y-87564812D01*
X13953925Y-87644283D01*
X13901911Y-87722570D01*
X13895589Y-87729162D01*
X13888727Y-87739147D01*
X13822616Y-87805258D01*
X13759704Y-87870862D01*
X13749860Y-87878014D01*
X13739147Y-87888727D01*
X13664537Y-87940005D01*
X13593480Y-87991631D01*
X13579795Y-87998247D01*
X13564812Y-88008544D01*
X13484825Y-88044157D01*
X13408493Y-88081057D01*
X13390937Y-88085959D01*
X13371562Y-88094585D01*
X13289347Y-88114323D01*
X13210602Y-88136309D01*
X13189435Y-88138310D01*
X13165867Y-88143968D01*
X13084420Y-88148236D01*
X13006054Y-88155644D01*
X12981852Y-88153612D01*
X12954618Y-88155039D01*
X12876725Y-88144784D01*
X12801308Y-88138451D01*
X12774922Y-88131381D01*
X12744889Y-88127427D01*
X12673044Y-88104083D01*
X12602843Y-88085273D01*
X12575382Y-88072351D01*
X12543704Y-88062058D01*
X12479966Y-88027451D01*
X12416937Y-87997792D01*
X12389732Y-87978459D01*
X12357800Y-87961121D01*
X12303773Y-87917371D01*
X12249459Y-87878772D01*
X12223990Y-87852764D01*
X12193403Y-87827995D01*
X12150210Y-87777422D01*
X12105705Y-87731975D01*
X12083543Y-87699364D01*
X12056020Y-87667139D01*
X12024271Y-87612149D01*
X11990216Y-87562038D01*
X11972950Y-87523259D01*
X11950250Y-87483941D01*
X11930060Y-87426926D01*
X11906647Y-87374340D01*
X11895800Y-87330178D01*
X11879637Y-87284536D01*
X11870647Y-87227775D01*
X11857636Y-87174804D01*
X11854591Y-87126401D01*
X11846545Y-87075601D01*
X11847970Y-87021164D01*
X11844736Y-86969752D01*
X11850656Y-86918584D01*
X11852082Y-86864135D01*
X11862779Y-86813810D01*
X11868352Y-86765644D01*
X11884114Y-86713436D01*
X11896064Y-86657219D01*
X11914594Y-86612483D01*
X11927736Y-86568955D01*
X11953864Y-86517676D01*
X11977016Y-86461782D01*
X12001750Y-86423695D01*
X12021016Y-86385884D01*
X12057638Y-86337636D01*
X12092229Y-86284371D01*
X12121405Y-86253626D01*
X12145237Y-86222228D01*
X12192046Y-86179185D01*
X12237842Y-86130926D01*
X12269697Y-86107782D01*
X12296482Y-86083152D01*
X12352722Y-86047461D01*
X12408981Y-86006586D01*
X12441783Y-85990940D01*
X12469956Y-85973061D01*
X12534433Y-85946748D01*
X12599913Y-85915516D01*
X12632097Y-85906892D01*
X12660192Y-85895427D01*
X12731272Y-85880319D01*
X12804244Y-85860766D01*
X12834442Y-85858389D01*
X12861162Y-85852710D01*
X12936826Y-85850332D01*
X13015131Y-85844169D01*
X13042240Y-85847018D01*
G37*
G36*
X31319475Y-80796321D02*
G01*
X31352153Y-80801410D01*
X31472082Y-80838075D01*
X31502015Y-80852128D01*
X31606838Y-80920985D01*
X31631621Y-80942873D01*
X31712903Y-81038378D01*
X31730553Y-81066351D01*
X31781760Y-81180825D01*
X31790848Y-81212625D01*
X31807868Y-81336868D01*
X31807665Y-81369943D01*
X31805821Y-81382284D01*
X31804448Y-81400761D01*
X31804447Y-81837688D01*
X31801998Y-81849999D01*
X31801998Y-81850000D01*
X31798040Y-81869899D01*
X31786768Y-81886769D01*
X31772852Y-81896067D01*
X31727685Y-81950111D01*
X31718907Y-82019994D01*
X31772850Y-82103932D01*
X31786769Y-82113232D01*
X31786770Y-82113233D01*
X31798041Y-82130102D01*
X31804448Y-82162313D01*
X31804448Y-82603386D01*
X31805605Y-82620351D01*
X31807868Y-82636868D01*
X31807665Y-82669943D01*
X31789128Y-82793975D01*
X31779653Y-82825659D01*
X31727052Y-82939498D01*
X31709059Y-82967258D01*
X31626619Y-83061759D01*
X31601567Y-83083346D01*
X31495917Y-83150911D01*
X31465809Y-83164600D01*
X31345803Y-83199692D01*
X31311660Y-83204369D01*
X31255421Y-83203682D01*
X31247129Y-83204448D01*
X30821744Y-83204447D01*
X30821744Y-83207813D01*
X30820907Y-83207690D01*
X30820946Y-83204482D01*
X30818818Y-83204456D01*
X30817291Y-83204447D01*
X30755405Y-83204447D01*
X30747123Y-83203580D01*
X30674817Y-83202697D01*
X30640789Y-83197185D01*
X30521682Y-83159173D01*
X30491918Y-83144753D01*
X30387952Y-83074627D01*
X30363428Y-83052429D01*
X30283322Y-82955941D01*
X30266021Y-82927763D01*
X30216215Y-82812670D01*
X30207515Y-82780760D01*
X30192014Y-82656305D01*
X30192620Y-82623247D01*
X30193944Y-82615071D01*
X30195552Y-82595086D01*
X30195553Y-82162312D01*
X30201960Y-82130101D01*
X30213232Y-82113231D01*
X30227148Y-82103932D01*
X30272315Y-82049889D01*
X30281093Y-81980006D01*
X30227150Y-81896068D01*
X30213231Y-81886768D01*
X30201959Y-81869898D01*
X30198001Y-81849999D01*
X30195552Y-81837687D01*
X30195552Y-81392468D01*
X30194594Y-81377018D01*
X30192014Y-81356306D01*
X30192620Y-81323247D01*
X30212670Y-81199448D01*
X30222532Y-81167884D01*
X30276522Y-81054691D01*
X30294846Y-81027163D01*
X30378440Y-80933670D01*
X30403752Y-80912393D01*
X30510225Y-80846120D01*
X30540494Y-80832802D01*
X30661280Y-80799077D01*
X30694077Y-80794788D01*
X30755876Y-80795543D01*
X30757403Y-80795552D01*
X31180090Y-80795553D01*
X31192177Y-80794766D01*
X31319475Y-80796321D01*
G37*
G36*
X34319475Y-80796321D02*
G01*
X34352153Y-80801410D01*
X34472082Y-80838075D01*
X34502015Y-80852128D01*
X34606838Y-80920985D01*
X34631621Y-80942873D01*
X34712903Y-81038378D01*
X34730553Y-81066351D01*
X34781760Y-81180825D01*
X34790848Y-81212625D01*
X34807868Y-81336868D01*
X34807665Y-81369943D01*
X34805821Y-81382284D01*
X34804448Y-81400761D01*
X34804447Y-81837688D01*
X34801998Y-81849999D01*
X34801998Y-81850000D01*
X34798040Y-81869899D01*
X34786768Y-81886769D01*
X34772852Y-81896067D01*
X34727685Y-81950111D01*
X34718907Y-82019994D01*
X34772850Y-82103932D01*
X34786769Y-82113232D01*
X34786770Y-82113233D01*
X34798041Y-82130102D01*
X34804448Y-82162313D01*
X34804448Y-82603386D01*
X34805605Y-82620351D01*
X34807868Y-82636868D01*
X34807665Y-82669943D01*
X34789128Y-82793975D01*
X34779653Y-82825659D01*
X34727052Y-82939498D01*
X34709059Y-82967258D01*
X34626619Y-83061759D01*
X34601567Y-83083346D01*
X34495917Y-83150911D01*
X34465809Y-83164600D01*
X34345803Y-83199692D01*
X34311660Y-83204369D01*
X34255421Y-83203682D01*
X34247129Y-83204448D01*
X33821744Y-83204447D01*
X33821744Y-83207813D01*
X33820907Y-83207690D01*
X33820946Y-83204482D01*
X33818818Y-83204456D01*
X33817291Y-83204447D01*
X33755405Y-83204447D01*
X33747123Y-83203580D01*
X33674817Y-83202697D01*
X33640789Y-83197185D01*
X33521682Y-83159173D01*
X33491918Y-83144753D01*
X33387952Y-83074627D01*
X33363428Y-83052429D01*
X33283322Y-82955941D01*
X33266021Y-82927763D01*
X33216215Y-82812670D01*
X33207515Y-82780760D01*
X33192014Y-82656305D01*
X33192620Y-82623247D01*
X33193944Y-82615071D01*
X33195552Y-82595086D01*
X33195553Y-82162312D01*
X33201960Y-82130101D01*
X33213232Y-82113231D01*
X33227148Y-82103932D01*
X33272315Y-82049889D01*
X33281093Y-81980006D01*
X33227150Y-81896068D01*
X33213231Y-81886768D01*
X33201959Y-81869898D01*
X33198001Y-81849999D01*
X33195552Y-81837687D01*
X33195552Y-81392468D01*
X33194594Y-81377018D01*
X33192014Y-81356306D01*
X33192620Y-81323247D01*
X33212670Y-81199448D01*
X33222532Y-81167884D01*
X33276522Y-81054691D01*
X33294846Y-81027163D01*
X33378440Y-80933670D01*
X33403752Y-80912393D01*
X33510225Y-80846120D01*
X33540494Y-80832802D01*
X33661280Y-80799077D01*
X33694077Y-80794788D01*
X33755876Y-80795543D01*
X33757403Y-80795552D01*
X34180090Y-80795553D01*
X34192177Y-80794766D01*
X34319475Y-80796321D01*
G37*
G36*
X37319475Y-80796321D02*
G01*
X37352153Y-80801410D01*
X37472082Y-80838075D01*
X37502015Y-80852128D01*
X37606838Y-80920985D01*
X37631621Y-80942873D01*
X37712903Y-81038378D01*
X37730553Y-81066351D01*
X37781760Y-81180825D01*
X37790848Y-81212625D01*
X37807868Y-81336868D01*
X37807665Y-81369943D01*
X37805821Y-81382284D01*
X37804448Y-81400761D01*
X37804447Y-81837688D01*
X37801998Y-81849999D01*
X37801998Y-81850000D01*
X37798040Y-81869899D01*
X37786768Y-81886769D01*
X37772852Y-81896067D01*
X37727685Y-81950111D01*
X37718907Y-82019994D01*
X37772850Y-82103932D01*
X37786769Y-82113232D01*
X37786770Y-82113233D01*
X37798041Y-82130102D01*
X37804448Y-82162313D01*
X37804448Y-82603386D01*
X37805605Y-82620351D01*
X37807868Y-82636868D01*
X37807665Y-82669943D01*
X37789128Y-82793975D01*
X37779653Y-82825659D01*
X37727052Y-82939498D01*
X37709059Y-82967258D01*
X37626619Y-83061759D01*
X37601567Y-83083346D01*
X37495917Y-83150911D01*
X37465809Y-83164600D01*
X37345803Y-83199692D01*
X37311660Y-83204369D01*
X37255421Y-83203682D01*
X37247129Y-83204448D01*
X36821744Y-83204447D01*
X36821744Y-83207813D01*
X36820907Y-83207690D01*
X36820946Y-83204482D01*
X36818818Y-83204456D01*
X36817291Y-83204447D01*
X36755405Y-83204447D01*
X36747123Y-83203580D01*
X36674817Y-83202697D01*
X36640789Y-83197185D01*
X36521682Y-83159173D01*
X36491918Y-83144753D01*
X36387952Y-83074627D01*
X36363428Y-83052429D01*
X36283322Y-82955941D01*
X36266021Y-82927763D01*
X36216215Y-82812670D01*
X36207515Y-82780760D01*
X36192014Y-82656305D01*
X36192620Y-82623247D01*
X36193944Y-82615071D01*
X36195552Y-82595086D01*
X36195553Y-82162312D01*
X36201960Y-82130101D01*
X36213232Y-82113231D01*
X36227148Y-82103932D01*
X36272315Y-82049889D01*
X36281093Y-81980006D01*
X36227150Y-81896068D01*
X36213231Y-81886768D01*
X36201959Y-81869898D01*
X36198001Y-81849999D01*
X36195552Y-81837687D01*
X36195552Y-81392468D01*
X36194594Y-81377018D01*
X36192014Y-81356306D01*
X36192620Y-81323247D01*
X36212670Y-81199448D01*
X36222532Y-81167884D01*
X36276522Y-81054691D01*
X36294846Y-81027163D01*
X36378440Y-80933670D01*
X36403752Y-80912393D01*
X36510225Y-80846120D01*
X36540494Y-80832802D01*
X36661280Y-80799077D01*
X36694077Y-80794788D01*
X36755876Y-80795543D01*
X36757403Y-80795552D01*
X37180090Y-80795553D01*
X37192177Y-80794766D01*
X37319475Y-80796321D01*
G37*
G36*
X23179093Y-80792309D02*
G01*
X23179054Y-80795517D01*
X23181182Y-80795543D01*
X23182709Y-80795552D01*
X23244595Y-80795552D01*
X23252877Y-80796419D01*
X23325183Y-80797302D01*
X23359211Y-80802814D01*
X23478322Y-80840827D01*
X23508077Y-80855243D01*
X23612052Y-80925376D01*
X23636572Y-80947570D01*
X23716678Y-81044059D01*
X23733979Y-81072237D01*
X23783785Y-81187330D01*
X23792485Y-81219240D01*
X23807986Y-81343695D01*
X23807380Y-81376753D01*
X23806056Y-81384929D01*
X23804448Y-81404914D01*
X23804448Y-81837688D01*
X23798041Y-81869899D01*
X23786769Y-81886769D01*
X23772853Y-81896067D01*
X23727686Y-81950111D01*
X23718908Y-82019994D01*
X23772851Y-82103932D01*
X23786769Y-82113232D01*
X23798042Y-82130103D01*
X23804448Y-82162310D01*
X23804448Y-82607532D01*
X23805406Y-82622982D01*
X23807986Y-82643694D01*
X23807380Y-82676753D01*
X23787330Y-82800552D01*
X23777468Y-82832116D01*
X23723478Y-82945309D01*
X23705154Y-82972837D01*
X23621560Y-83066331D01*
X23596249Y-83087607D01*
X23489775Y-83153881D01*
X23459507Y-83167199D01*
X23338718Y-83200924D01*
X23305927Y-83205212D01*
X23244124Y-83204457D01*
X23242597Y-83204448D01*
X22819910Y-83204448D01*
X22807823Y-83205235D01*
X22680525Y-83203680D01*
X22647847Y-83198591D01*
X22527921Y-83161927D01*
X22497977Y-83147868D01*
X22393165Y-83079018D01*
X22368379Y-83057127D01*
X22287097Y-82961622D01*
X22269447Y-82933649D01*
X22218240Y-82819175D01*
X22209152Y-82787375D01*
X22192132Y-82663132D01*
X22192335Y-82630057D01*
X22194179Y-82617716D01*
X22195552Y-82599239D01*
X22195552Y-82162312D01*
X22201959Y-82130101D01*
X22213231Y-82113231D01*
X22227147Y-82103933D01*
X22272314Y-82049889D01*
X22281092Y-81980006D01*
X22227149Y-81896068D01*
X22213231Y-81886768D01*
X22201958Y-81869897D01*
X22195552Y-81837690D01*
X22195552Y-81396614D01*
X22194395Y-81379649D01*
X22192132Y-81363132D01*
X22192335Y-81330057D01*
X22210872Y-81206025D01*
X22220347Y-81174341D01*
X22272950Y-81060498D01*
X22290937Y-81032746D01*
X22373380Y-80938240D01*
X22398432Y-80916655D01*
X22504082Y-80849089D01*
X22534190Y-80835400D01*
X22654196Y-80800308D01*
X22688340Y-80795631D01*
X22744579Y-80796318D01*
X22752871Y-80795552D01*
X23178256Y-80795552D01*
X23178256Y-80792186D01*
X23179093Y-80792309D01*
G37*
G36*
X28179093Y-80792309D02*
G01*
X28179054Y-80795517D01*
X28181182Y-80795543D01*
X28182709Y-80795552D01*
X28244595Y-80795552D01*
X28252877Y-80796419D01*
X28325183Y-80797302D01*
X28359211Y-80802814D01*
X28478322Y-80840827D01*
X28508077Y-80855243D01*
X28612052Y-80925376D01*
X28636572Y-80947570D01*
X28716678Y-81044059D01*
X28733979Y-81072237D01*
X28783785Y-81187330D01*
X28792485Y-81219240D01*
X28807986Y-81343695D01*
X28807380Y-81376753D01*
X28806056Y-81384929D01*
X28804448Y-81404914D01*
X28804448Y-81837688D01*
X28798041Y-81869899D01*
X28786769Y-81886769D01*
X28772853Y-81896067D01*
X28727686Y-81950111D01*
X28718908Y-82019994D01*
X28772851Y-82103932D01*
X28786769Y-82113232D01*
X28798042Y-82130103D01*
X28804448Y-82162310D01*
X28804448Y-82607532D01*
X28805406Y-82622982D01*
X28807986Y-82643694D01*
X28807380Y-82676753D01*
X28787330Y-82800552D01*
X28777468Y-82832116D01*
X28723478Y-82945309D01*
X28705154Y-82972837D01*
X28621560Y-83066331D01*
X28596249Y-83087607D01*
X28489775Y-83153881D01*
X28459507Y-83167199D01*
X28338718Y-83200924D01*
X28305927Y-83205212D01*
X28244124Y-83204457D01*
X28242597Y-83204448D01*
X27819910Y-83204448D01*
X27807823Y-83205235D01*
X27680525Y-83203680D01*
X27647847Y-83198591D01*
X27527921Y-83161927D01*
X27497977Y-83147868D01*
X27393165Y-83079018D01*
X27368379Y-83057127D01*
X27287097Y-82961622D01*
X27269447Y-82933649D01*
X27218240Y-82819175D01*
X27209152Y-82787375D01*
X27192132Y-82663132D01*
X27192335Y-82630057D01*
X27194179Y-82617716D01*
X27195552Y-82599239D01*
X27195552Y-82162312D01*
X27201959Y-82130101D01*
X27213231Y-82113231D01*
X27227147Y-82103933D01*
X27272314Y-82049889D01*
X27281092Y-81980006D01*
X27227149Y-81896068D01*
X27213231Y-81886768D01*
X27201958Y-81869897D01*
X27195552Y-81837690D01*
X27195552Y-81396614D01*
X27194395Y-81379649D01*
X27192132Y-81363132D01*
X27192335Y-81330057D01*
X27210872Y-81206025D01*
X27220347Y-81174341D01*
X27272950Y-81060498D01*
X27290937Y-81032746D01*
X27373380Y-80938240D01*
X27398432Y-80916655D01*
X27504082Y-80849089D01*
X27534190Y-80835400D01*
X27654196Y-80800308D01*
X27688340Y-80795631D01*
X27744579Y-80796318D01*
X27752871Y-80795552D01*
X28178256Y-80795552D01*
X28178256Y-80792186D01*
X28179093Y-80792309D01*
G37*
G36*
X20179093Y-80792309D02*
G01*
X20179054Y-80795517D01*
X20181182Y-80795543D01*
X20182709Y-80795552D01*
X20244595Y-80795552D01*
X20252877Y-80796419D01*
X20325183Y-80797302D01*
X20359211Y-80802814D01*
X20478322Y-80840827D01*
X20508077Y-80855243D01*
X20612052Y-80925376D01*
X20636572Y-80947570D01*
X20716678Y-81044059D01*
X20733979Y-81072237D01*
X20783785Y-81187330D01*
X20792485Y-81219240D01*
X20807986Y-81343695D01*
X20807380Y-81376753D01*
X20806056Y-81384929D01*
X20804448Y-81404914D01*
X20804448Y-81837688D01*
X20798041Y-81869899D01*
X20786769Y-81886769D01*
X20772853Y-81896067D01*
X20727686Y-81950111D01*
X20718908Y-82019994D01*
X20772851Y-82103932D01*
X20786769Y-82113232D01*
X20798042Y-82130103D01*
X20804448Y-82162310D01*
X20804448Y-82607532D01*
X20805406Y-82622982D01*
X20807986Y-82643694D01*
X20807380Y-82676753D01*
X20787330Y-82800552D01*
X20777468Y-82832116D01*
X20723478Y-82945309D01*
X20705154Y-82972837D01*
X20621560Y-83066331D01*
X20596249Y-83087607D01*
X20489775Y-83153881D01*
X20459507Y-83167199D01*
X20338718Y-83200924D01*
X20305927Y-83205212D01*
X20244124Y-83204457D01*
X20242597Y-83204448D01*
X19819910Y-83204448D01*
X19807823Y-83205235D01*
X19680525Y-83203680D01*
X19647847Y-83198591D01*
X19527921Y-83161927D01*
X19497977Y-83147868D01*
X19393165Y-83079018D01*
X19368379Y-83057127D01*
X19287097Y-82961622D01*
X19269447Y-82933649D01*
X19218240Y-82819175D01*
X19209152Y-82787375D01*
X19192132Y-82663132D01*
X19192335Y-82630057D01*
X19194179Y-82617716D01*
X19195552Y-82599239D01*
X19195552Y-82162312D01*
X19201959Y-82130101D01*
X19213231Y-82113231D01*
X19227147Y-82103933D01*
X19272314Y-82049889D01*
X19281092Y-81980006D01*
X19227149Y-81896068D01*
X19213231Y-81886768D01*
X19201958Y-81869897D01*
X19195552Y-81837690D01*
X19195552Y-81396614D01*
X19194395Y-81379649D01*
X19192132Y-81363132D01*
X19192335Y-81330057D01*
X19210872Y-81206025D01*
X19220347Y-81174341D01*
X19272950Y-81060498D01*
X19290937Y-81032746D01*
X19373380Y-80938240D01*
X19398432Y-80916655D01*
X19504082Y-80849089D01*
X19534190Y-80835400D01*
X19654196Y-80800308D01*
X19688340Y-80795631D01*
X19744579Y-80796318D01*
X19752871Y-80795552D01*
X20178256Y-80795552D01*
X20178256Y-80792186D01*
X20179093Y-80792309D01*
G37*
G36*
X27319475Y-66796321D02*
G01*
X27352153Y-66801410D01*
X27472082Y-66838075D01*
X27502015Y-66852128D01*
X27606838Y-66920985D01*
X27631621Y-66942873D01*
X27712903Y-67038378D01*
X27730553Y-67066351D01*
X27781760Y-67180825D01*
X27790848Y-67212625D01*
X27807868Y-67336868D01*
X27807665Y-67369943D01*
X27805821Y-67382284D01*
X27804448Y-67400761D01*
X27804447Y-67837688D01*
X27801998Y-67849999D01*
X27801998Y-67850000D01*
X27798040Y-67869899D01*
X27786768Y-67886769D01*
X27772852Y-67896067D01*
X27727685Y-67950111D01*
X27718907Y-68019994D01*
X27772850Y-68103932D01*
X27786769Y-68113232D01*
X27786770Y-68113233D01*
X27798041Y-68130102D01*
X27804448Y-68162313D01*
X27804448Y-68603386D01*
X27805605Y-68620351D01*
X27807868Y-68636868D01*
X27807665Y-68669943D01*
X27789128Y-68793975D01*
X27779653Y-68825659D01*
X27727052Y-68939498D01*
X27709059Y-68967258D01*
X27626619Y-69061759D01*
X27601567Y-69083346D01*
X27495917Y-69150911D01*
X27465809Y-69164600D01*
X27345803Y-69199692D01*
X27311660Y-69204369D01*
X27255421Y-69203682D01*
X27247129Y-69204448D01*
X26821744Y-69204447D01*
X26821744Y-69207813D01*
X26820907Y-69207690D01*
X26820946Y-69204482D01*
X26818818Y-69204456D01*
X26817291Y-69204447D01*
X26755405Y-69204447D01*
X26747123Y-69203580D01*
X26674817Y-69202697D01*
X26640789Y-69197185D01*
X26521682Y-69159173D01*
X26491918Y-69144753D01*
X26387952Y-69074627D01*
X26363428Y-69052429D01*
X26283322Y-68955941D01*
X26266021Y-68927763D01*
X26216215Y-68812670D01*
X26207515Y-68780760D01*
X26192014Y-68656305D01*
X26192620Y-68623247D01*
X26193944Y-68615071D01*
X26195552Y-68595086D01*
X26195553Y-68162312D01*
X26201960Y-68130101D01*
X26213232Y-68113231D01*
X26227148Y-68103932D01*
X26272315Y-68049889D01*
X26281093Y-67980006D01*
X26227150Y-67896068D01*
X26213231Y-67886768D01*
X26201959Y-67869898D01*
X26198001Y-67849999D01*
X26195552Y-67837687D01*
X26195552Y-67392468D01*
X26194594Y-67377018D01*
X26192014Y-67356306D01*
X26192620Y-67323247D01*
X26212670Y-67199448D01*
X26222532Y-67167884D01*
X26276522Y-67054691D01*
X26294846Y-67027163D01*
X26378440Y-66933670D01*
X26403752Y-66912393D01*
X26510225Y-66846120D01*
X26540494Y-66832802D01*
X26661280Y-66799077D01*
X26694077Y-66794788D01*
X26755876Y-66795543D01*
X26757403Y-66795552D01*
X27180090Y-66795553D01*
X27192177Y-66794766D01*
X27319475Y-66796321D01*
G37*
G36*
X33179093Y-66792309D02*
G01*
X33179054Y-66795517D01*
X33181182Y-66795543D01*
X33182709Y-66795552D01*
X33244595Y-66795552D01*
X33252877Y-66796419D01*
X33325183Y-66797302D01*
X33359211Y-66802814D01*
X33478322Y-66840827D01*
X33508077Y-66855243D01*
X33612052Y-66925376D01*
X33636572Y-66947570D01*
X33716678Y-67044059D01*
X33733979Y-67072237D01*
X33783785Y-67187330D01*
X33792485Y-67219240D01*
X33807986Y-67343695D01*
X33807380Y-67376753D01*
X33806056Y-67384929D01*
X33804448Y-67404914D01*
X33804448Y-67837688D01*
X33798041Y-67869899D01*
X33786769Y-67886769D01*
X33772853Y-67896067D01*
X33727686Y-67950111D01*
X33718908Y-68019994D01*
X33772851Y-68103932D01*
X33786769Y-68113232D01*
X33798042Y-68130103D01*
X33804448Y-68162310D01*
X33804448Y-68607532D01*
X33805406Y-68622982D01*
X33807986Y-68643694D01*
X33807380Y-68676753D01*
X33787330Y-68800552D01*
X33777468Y-68832116D01*
X33723478Y-68945309D01*
X33705154Y-68972837D01*
X33621560Y-69066331D01*
X33596249Y-69087607D01*
X33489775Y-69153881D01*
X33459507Y-69167199D01*
X33338718Y-69200924D01*
X33305927Y-69205212D01*
X33244124Y-69204457D01*
X33242597Y-69204448D01*
X32819910Y-69204448D01*
X32807823Y-69205235D01*
X32680525Y-69203680D01*
X32647847Y-69198591D01*
X32527921Y-69161927D01*
X32497977Y-69147868D01*
X32393165Y-69079018D01*
X32368379Y-69057127D01*
X32287097Y-68961622D01*
X32269447Y-68933649D01*
X32218240Y-68819175D01*
X32209152Y-68787375D01*
X32192132Y-68663132D01*
X32192335Y-68630057D01*
X32194179Y-68617716D01*
X32195552Y-68599239D01*
X32195552Y-68162312D01*
X32201959Y-68130101D01*
X32213231Y-68113231D01*
X32227147Y-68103933D01*
X32272314Y-68049889D01*
X32281092Y-67980006D01*
X32227149Y-67896068D01*
X32213231Y-67886768D01*
X32201958Y-67869897D01*
X32195552Y-67837690D01*
X32195552Y-67396614D01*
X32194395Y-67379649D01*
X32192132Y-67363132D01*
X32192335Y-67330057D01*
X32210872Y-67206025D01*
X32220347Y-67174341D01*
X32272950Y-67060498D01*
X32290937Y-67032746D01*
X32373380Y-66938240D01*
X32398432Y-66916655D01*
X32504082Y-66849089D01*
X32534190Y-66835400D01*
X32654196Y-66800308D01*
X32688340Y-66795631D01*
X32744579Y-66796318D01*
X32752871Y-66795552D01*
X33178256Y-66795552D01*
X33178256Y-66792186D01*
X33179093Y-66792309D01*
G37*
G36*
X30179093Y-66792309D02*
G01*
X30179054Y-66795517D01*
X30181182Y-66795543D01*
X30182709Y-66795552D01*
X30244595Y-66795552D01*
X30252877Y-66796419D01*
X30325183Y-66797302D01*
X30359211Y-66802814D01*
X30478322Y-66840827D01*
X30508077Y-66855243D01*
X30612052Y-66925376D01*
X30636572Y-66947570D01*
X30716678Y-67044059D01*
X30733979Y-67072237D01*
X30783785Y-67187330D01*
X30792485Y-67219240D01*
X30807986Y-67343695D01*
X30807380Y-67376753D01*
X30806056Y-67384929D01*
X30804448Y-67404914D01*
X30804448Y-67837688D01*
X30798041Y-67869899D01*
X30786769Y-67886769D01*
X30772853Y-67896067D01*
X30727686Y-67950111D01*
X30718908Y-68019994D01*
X30772851Y-68103932D01*
X30786769Y-68113232D01*
X30798042Y-68130103D01*
X30804448Y-68162310D01*
X30804448Y-68607532D01*
X30805406Y-68622982D01*
X30807986Y-68643694D01*
X30807380Y-68676753D01*
X30787330Y-68800552D01*
X30777468Y-68832116D01*
X30723478Y-68945309D01*
X30705154Y-68972837D01*
X30621560Y-69066331D01*
X30596249Y-69087607D01*
X30489775Y-69153881D01*
X30459507Y-69167199D01*
X30338718Y-69200924D01*
X30305927Y-69205212D01*
X30244124Y-69204457D01*
X30242597Y-69204448D01*
X29819910Y-69204448D01*
X29807823Y-69205235D01*
X29680525Y-69203680D01*
X29647847Y-69198591D01*
X29527921Y-69161927D01*
X29497977Y-69147868D01*
X29393165Y-69079018D01*
X29368379Y-69057127D01*
X29287097Y-68961622D01*
X29269447Y-68933649D01*
X29218240Y-68819175D01*
X29209152Y-68787375D01*
X29192132Y-68663132D01*
X29192335Y-68630057D01*
X29194179Y-68617716D01*
X29195552Y-68599239D01*
X29195552Y-68162312D01*
X29201959Y-68130101D01*
X29213231Y-68113231D01*
X29227147Y-68103933D01*
X29272314Y-68049889D01*
X29281092Y-67980006D01*
X29227149Y-67896068D01*
X29213231Y-67886768D01*
X29201958Y-67869897D01*
X29195552Y-67837690D01*
X29195552Y-67396614D01*
X29194395Y-67379649D01*
X29192132Y-67363132D01*
X29192335Y-67330057D01*
X29210872Y-67206025D01*
X29220347Y-67174341D01*
X29272950Y-67060498D01*
X29290937Y-67032746D01*
X29373380Y-66938240D01*
X29398432Y-66916655D01*
X29504082Y-66849089D01*
X29534190Y-66835400D01*
X29654196Y-66800308D01*
X29688340Y-66795631D01*
X29744579Y-66796318D01*
X29752871Y-66795552D01*
X30178256Y-66795552D01*
X30178256Y-66792186D01*
X30179093Y-66792309D01*
G37*
G36*
X62049902Y-59639283D02*
G01*
X62094637Y-59639595D01*
X62138460Y-59648590D01*
X62188360Y-59653835D01*
X62230132Y-59667408D01*
X62267723Y-59675124D01*
X62314851Y-59694935D01*
X62368488Y-59712363D01*
X62401099Y-59731191D01*
X62430614Y-59743598D01*
X62478301Y-59775763D01*
X62532511Y-59807061D01*
X62555826Y-59828054D01*
X62577101Y-59842404D01*
X62622183Y-59887802D01*
X62673261Y-59933793D01*
X62688003Y-59954083D01*
X62701608Y-59967784D01*
X62740643Y-60026537D01*
X62784586Y-60087019D01*
X62792221Y-60104168D01*
X62799388Y-60114955D01*
X62828865Y-60186472D01*
X62861621Y-60260042D01*
X62864211Y-60272225D01*
X62866724Y-60278323D01*
X62883292Y-60361997D01*
X62900999Y-60445301D01*
X62900999Y-60634699D01*
X62898115Y-60648269D01*
X62898030Y-60654331D01*
X62879342Y-60736585D01*
X62861621Y-60819958D01*
X62859129Y-60825555D01*
X62859078Y-60825780D01*
X62787210Y-60987197D01*
X62787078Y-60987385D01*
X62784586Y-60992981D01*
X62734480Y-61061946D01*
X62685357Y-61131582D01*
X62680585Y-61136126D01*
X62673261Y-61146207D01*
X62613396Y-61200110D01*
X62557396Y-61253438D01*
X62546464Y-61260376D01*
X62532511Y-61272939D01*
X62467764Y-61310321D01*
X62408211Y-61348114D01*
X62390209Y-61355097D01*
X62368488Y-61367637D01*
X62303115Y-61388878D01*
X62243468Y-61412014D01*
X62218200Y-61416469D01*
X62188360Y-61426165D01*
X62126095Y-61432709D01*
X62069460Y-61442695D01*
X62037459Y-61442025D01*
X62000000Y-61445962D01*
X61943902Y-61440066D01*
X61892799Y-61438996D01*
X61855323Y-61430756D01*
X61811640Y-61426165D01*
X61763917Y-61410659D01*
X61720225Y-61401052D01*
X61679230Y-61383142D01*
X61631512Y-61367637D01*
X61593473Y-61345675D01*
X61558310Y-61330313D01*
X61516337Y-61301141D01*
X61467489Y-61272939D01*
X61439504Y-61247741D01*
X61413215Y-61229470D01*
X61373257Y-61188092D01*
X61326739Y-61146207D01*
X61308296Y-61120823D01*
X61290473Y-61102366D01*
X61255821Y-61048597D01*
X61215414Y-60992981D01*
X61205212Y-60970066D01*
X61194754Y-60953839D01*
X61168789Y-60888261D01*
X61138379Y-60819958D01*
X61134476Y-60801596D01*
X61129707Y-60789551D01*
X61115740Y-60713448D01*
X61099001Y-60634699D01*
X61099001Y-60622246D01*
X61097811Y-60615762D01*
X61099001Y-60530535D01*
X61099001Y-60445301D01*
X61100275Y-60439308D01*
X61100278Y-60439077D01*
X61137015Y-60266246D01*
X61137105Y-60266036D01*
X61138379Y-60260042D01*
X61173042Y-60182188D01*
X61206622Y-60103839D01*
X61210348Y-60098397D01*
X61215414Y-60087019D01*
X61262746Y-60021872D01*
X61306452Y-59958041D01*
X61315706Y-59948979D01*
X61326739Y-59933793D01*
X61382297Y-59883769D01*
X61432693Y-59834417D01*
X61448848Y-59823846D01*
X61467489Y-59807061D01*
X61527026Y-59772687D01*
X61580551Y-59737662D01*
X61604340Y-59728050D01*
X61631512Y-59712363D01*
X61691045Y-59693019D01*
X61744376Y-59671472D01*
X61775820Y-59665474D01*
X61811640Y-59653835D01*
X61867744Y-59647938D01*
X61917945Y-59638362D01*
X61956312Y-59638630D01*
X62000000Y-59634038D01*
X62049902Y-59639283D01*
G37*
G36*
X62869899Y-57101959D02*
G01*
X62886769Y-57113231D01*
X62898041Y-57130101D01*
X62904448Y-57162312D01*
X62904448Y-58837688D01*
X62901999Y-58850000D01*
X62898041Y-58869899D01*
X62886769Y-58886769D01*
X62869899Y-58898041D01*
X62850000Y-58901999D01*
X62837688Y-58904448D01*
X61162312Y-58904448D01*
X61130101Y-58898041D01*
X61113231Y-58886769D01*
X61101959Y-58869899D01*
X61095552Y-58837688D01*
X61095552Y-57162312D01*
X61101959Y-57130101D01*
X61113231Y-57113231D01*
X61130101Y-57101959D01*
X61162312Y-57095552D01*
X62837688Y-57095552D01*
X62869899Y-57101959D01*
G37*
G36*
X52319943Y-47692335D02*
G01*
X52443975Y-47710872D01*
X52475659Y-47720347D01*
X52589502Y-47772950D01*
X52617254Y-47790937D01*
X52711760Y-47873380D01*
X52733345Y-47898432D01*
X52800911Y-48004082D01*
X52814600Y-48034190D01*
X52849692Y-48154196D01*
X52854369Y-48188339D01*
X52853682Y-48244578D01*
X52854448Y-48252870D01*
X52854448Y-48678256D01*
X52857814Y-48678256D01*
X52857691Y-48679093D01*
X52854483Y-48679054D01*
X52854457Y-48681182D01*
X52854448Y-48682709D01*
X52854448Y-48744595D01*
X52853581Y-48752877D01*
X52852698Y-48825183D01*
X52847186Y-48859211D01*
X52809174Y-48978318D01*
X52794754Y-49008082D01*
X52724628Y-49112048D01*
X52702430Y-49136572D01*
X52605942Y-49216678D01*
X52577764Y-49233979D01*
X52462671Y-49283785D01*
X52430761Y-49292485D01*
X52306305Y-49307986D01*
X52273247Y-49307380D01*
X52265071Y-49306056D01*
X52245086Y-49304448D01*
X51812312Y-49304448D01*
X51780101Y-49298041D01*
X51763231Y-49286769D01*
X51761039Y-49283488D01*
X51753932Y-49272853D01*
X51699889Y-49227686D01*
X51630006Y-49218908D01*
X51546067Y-49272853D01*
X51536769Y-49286769D01*
X51519899Y-49298041D01*
X51500000Y-49301999D01*
X51487688Y-49304448D01*
X51042468Y-49304448D01*
X51027019Y-49305406D01*
X51006306Y-49307986D01*
X50973247Y-49307380D01*
X50849448Y-49287330D01*
X50817884Y-49277468D01*
X50704691Y-49223478D01*
X50677163Y-49205154D01*
X50583669Y-49121560D01*
X50562393Y-49096249D01*
X50496120Y-48989776D01*
X50482802Y-48959507D01*
X50449077Y-48838721D01*
X50444788Y-48805924D01*
X50445543Y-48744125D01*
X50445552Y-48742598D01*
X50445552Y-48319910D01*
X50444765Y-48307823D01*
X50446320Y-48180525D01*
X50451409Y-48147847D01*
X50488074Y-48027918D01*
X50502127Y-47997985D01*
X50570984Y-47893162D01*
X50592872Y-47868379D01*
X50688377Y-47787097D01*
X50716350Y-47769447D01*
X50830824Y-47718240D01*
X50862624Y-47709152D01*
X50986868Y-47692132D01*
X51019943Y-47692335D01*
X51032284Y-47694179D01*
X51050761Y-47695552D01*
X51487688Y-47695552D01*
X51519899Y-47701959D01*
X51536769Y-47713231D01*
X51546067Y-47727147D01*
X51600111Y-47772314D01*
X51669994Y-47781092D01*
X51753933Y-47727147D01*
X51763231Y-47713231D01*
X51780101Y-47701959D01*
X51812312Y-47695552D01*
X52253386Y-47695552D01*
X52270350Y-47694395D01*
X52286867Y-47692132D01*
X52319943Y-47692335D01*
G37*
G36*
X64075366Y-48013826D02*
G01*
X64138358Y-48039918D01*
X64199189Y-48063635D01*
X64204317Y-48067239D01*
X64215485Y-48071865D01*
X64265441Y-48110198D01*
X64313254Y-48143801D01*
X64321393Y-48153131D01*
X64335808Y-48164192D01*
X64370630Y-48209573D01*
X64404902Y-48248860D01*
X64413381Y-48265287D01*
X64428135Y-48284515D01*
X64447761Y-48331895D01*
X64468846Y-48372747D01*
X64474587Y-48396660D01*
X64486174Y-48424634D01*
X64492089Y-48469562D01*
X64501391Y-48508309D01*
X64501230Y-48538998D01*
X64505970Y-48575000D01*
X64500838Y-48613984D01*
X64500661Y-48647722D01*
X64491699Y-48683403D01*
X64486174Y-48725366D01*
X64473430Y-48756134D01*
X64466697Y-48782937D01*
X64446624Y-48820848D01*
X64428135Y-48865485D01*
X64411537Y-48887116D01*
X64401459Y-48906150D01*
X64368833Y-48942768D01*
X64335808Y-48985808D01*
X64318987Y-48998715D01*
X64308717Y-49010242D01*
X64263164Y-49041549D01*
X64215485Y-49078135D01*
X64201508Y-49083924D01*
X64193819Y-49089209D01*
X64136044Y-49111040D01*
X64075366Y-49136174D01*
X64066410Y-49137353D01*
X64063409Y-49138487D01*
X63993986Y-49146888D01*
X63962751Y-49151000D01*
X63037249Y-49151000D01*
X62924634Y-49136174D01*
X62861642Y-49110082D01*
X62800811Y-49086365D01*
X62795683Y-49082761D01*
X62784515Y-49078135D01*
X62734559Y-49039802D01*
X62686746Y-49006199D01*
X62678607Y-48996869D01*
X62664192Y-48985808D01*
X62629370Y-48940427D01*
X62595098Y-48901140D01*
X62586619Y-48884713D01*
X62571865Y-48865485D01*
X62552239Y-48818105D01*
X62531154Y-48777253D01*
X62525413Y-48753340D01*
X62513826Y-48725366D01*
X62507911Y-48680438D01*
X62498609Y-48641691D01*
X62498770Y-48611002D01*
X62494030Y-48575000D01*
X62499162Y-48536016D01*
X62499339Y-48502278D01*
X62508301Y-48466597D01*
X62513826Y-48424634D01*
X62526570Y-48393866D01*
X62533303Y-48367063D01*
X62553376Y-48329152D01*
X62571865Y-48284515D01*
X62588463Y-48262884D01*
X62598541Y-48243850D01*
X62631167Y-48207232D01*
X62664192Y-48164192D01*
X62681013Y-48151285D01*
X62691283Y-48139758D01*
X62736836Y-48108451D01*
X62784515Y-48071865D01*
X62798492Y-48066076D01*
X62806181Y-48060791D01*
X62863956Y-48038960D01*
X62924634Y-48013826D01*
X62933590Y-48012647D01*
X62936591Y-48011513D01*
X63006014Y-48003112D01*
X63037249Y-47999000D01*
X63962751Y-47999000D01*
X64075366Y-48013826D01*
G37*
G36*
X52319943Y-45192335D02*
G01*
X52443975Y-45210872D01*
X52475659Y-45220347D01*
X52589502Y-45272950D01*
X52617254Y-45290937D01*
X52711760Y-45373380D01*
X52733345Y-45398432D01*
X52800911Y-45504082D01*
X52814600Y-45534190D01*
X52849692Y-45654196D01*
X52854369Y-45688339D01*
X52853682Y-45744578D01*
X52854448Y-45752870D01*
X52854448Y-46178256D01*
X52857814Y-46178256D01*
X52857691Y-46179093D01*
X52854483Y-46179054D01*
X52854457Y-46181182D01*
X52854448Y-46182709D01*
X52854448Y-46244595D01*
X52853581Y-46252877D01*
X52852698Y-46325183D01*
X52847186Y-46359211D01*
X52809174Y-46478318D01*
X52794754Y-46508082D01*
X52724628Y-46612048D01*
X52702430Y-46636572D01*
X52605942Y-46716678D01*
X52577764Y-46733979D01*
X52462671Y-46783785D01*
X52430761Y-46792485D01*
X52306305Y-46807986D01*
X52273247Y-46807380D01*
X52265071Y-46806056D01*
X52245086Y-46804448D01*
X51812312Y-46804448D01*
X51780101Y-46798041D01*
X51763231Y-46786769D01*
X51761039Y-46783488D01*
X51753932Y-46772853D01*
X51699889Y-46727686D01*
X51630006Y-46718908D01*
X51546067Y-46772853D01*
X51536769Y-46786769D01*
X51519899Y-46798041D01*
X51500000Y-46801999D01*
X51487688Y-46804448D01*
X51042468Y-46804448D01*
X51027019Y-46805406D01*
X51006306Y-46807986D01*
X50973247Y-46807380D01*
X50849448Y-46787330D01*
X50817884Y-46777468D01*
X50704691Y-46723478D01*
X50677163Y-46705154D01*
X50583669Y-46621560D01*
X50562393Y-46596249D01*
X50496120Y-46489776D01*
X50482802Y-46459507D01*
X50449077Y-46338721D01*
X50444788Y-46305924D01*
X50445543Y-46244125D01*
X50445552Y-46242598D01*
X50445552Y-45819910D01*
X50444765Y-45807823D01*
X50446320Y-45680525D01*
X50451409Y-45647847D01*
X50488074Y-45527918D01*
X50502127Y-45497985D01*
X50570984Y-45393162D01*
X50592872Y-45368379D01*
X50688377Y-45287097D01*
X50716350Y-45269447D01*
X50830824Y-45218240D01*
X50862624Y-45209152D01*
X50986868Y-45192132D01*
X51019943Y-45192335D01*
X51032284Y-45194179D01*
X51050761Y-45195552D01*
X51487688Y-45195552D01*
X51519899Y-45201959D01*
X51536769Y-45213231D01*
X51546067Y-45227147D01*
X51600111Y-45272314D01*
X51669994Y-45281092D01*
X51753933Y-45227147D01*
X51763231Y-45213231D01*
X51780101Y-45201959D01*
X51812312Y-45195552D01*
X52253386Y-45195552D01*
X52270350Y-45194395D01*
X52286867Y-45192132D01*
X52319943Y-45192335D01*
G37*
G36*
X43269899Y-45201959D02*
G01*
X43286769Y-45213231D01*
X43298041Y-45230101D01*
X43304448Y-45262312D01*
X43304448Y-46737688D01*
X43301999Y-46750000D01*
X43298041Y-46769899D01*
X43286769Y-46786769D01*
X43269899Y-46798041D01*
X43250000Y-46801999D01*
X43237688Y-46804448D01*
X41762312Y-46804448D01*
X41730101Y-46798041D01*
X41713231Y-46786769D01*
X41701959Y-46769899D01*
X41695552Y-46737688D01*
X41695552Y-45262312D01*
X41701959Y-45230101D01*
X41713231Y-45213231D01*
X41730101Y-45201959D01*
X41762312Y-45195552D01*
X43237688Y-45195552D01*
X43269899Y-45201959D01*
G37*
G36*
X43676753Y-42692620D02*
G01*
X43800552Y-42712670D01*
X43832116Y-42722532D01*
X43945309Y-42776522D01*
X43972837Y-42794846D01*
X44066331Y-42878440D01*
X44087607Y-42903751D01*
X44153880Y-43010224D01*
X44167198Y-43040494D01*
X44200923Y-43161280D01*
X44205212Y-43194077D01*
X44204457Y-43255876D01*
X44204448Y-43257403D01*
X44204448Y-43680090D01*
X44205235Y-43692184D01*
X44203679Y-43819475D01*
X44198590Y-43852154D01*
X44161925Y-43972082D01*
X44147872Y-44002015D01*
X44079015Y-44106838D01*
X44057127Y-44131621D01*
X43961622Y-44212903D01*
X43933649Y-44230553D01*
X43819175Y-44281760D01*
X43787375Y-44290848D01*
X43663132Y-44307868D01*
X43630057Y-44307665D01*
X43617716Y-44305821D01*
X43599239Y-44304448D01*
X43162312Y-44304447D01*
X43130101Y-44298040D01*
X43113231Y-44286768D01*
X43103932Y-44272851D01*
X43049889Y-44227685D01*
X42980006Y-44218907D01*
X42896068Y-44272850D01*
X42886768Y-44286769D01*
X42886767Y-44286770D01*
X42869899Y-44298040D01*
X42869898Y-44298041D01*
X42849999Y-44301999D01*
X42837687Y-44304448D01*
X42396614Y-44304448D01*
X42379649Y-44305605D01*
X42363132Y-44307868D01*
X42330057Y-44307665D01*
X42206025Y-44289128D01*
X42174341Y-44279653D01*
X42060498Y-44227050D01*
X42032746Y-44209063D01*
X41938240Y-44126620D01*
X41916655Y-44101568D01*
X41849089Y-43995917D01*
X41835400Y-43965809D01*
X41800308Y-43845803D01*
X41795631Y-43811660D01*
X41796318Y-43755421D01*
X41795552Y-43747129D01*
X41795552Y-43321744D01*
X41792186Y-43321744D01*
X41792309Y-43320906D01*
X41795517Y-43320945D01*
X41795543Y-43318816D01*
X41795552Y-43317292D01*
X41795553Y-43255403D01*
X41796420Y-43247120D01*
X41797303Y-43174817D01*
X41802815Y-43140789D01*
X41840827Y-43021682D01*
X41855247Y-42991918D01*
X41925373Y-42887952D01*
X41947571Y-42863428D01*
X42044059Y-42783322D01*
X42072237Y-42766021D01*
X42187330Y-42716215D01*
X42219240Y-42707515D01*
X42343695Y-42692014D01*
X42376753Y-42692620D01*
X42384929Y-42693944D01*
X42404914Y-42695552D01*
X42837688Y-42695553D01*
X42850000Y-42698002D01*
X42869899Y-42701960D01*
X42886769Y-42713232D01*
X42886771Y-42713234D01*
X42896068Y-42727148D01*
X42950112Y-42772314D01*
X43019996Y-42781091D01*
X43103932Y-42727149D01*
X43113232Y-42713231D01*
X43130103Y-42701958D01*
X43162310Y-42695552D01*
X43607532Y-42695552D01*
X43622982Y-42694594D01*
X43643694Y-42692014D01*
X43676753Y-42692620D01*
G37*
G36*
X64075366Y-40863826D02*
G01*
X64138358Y-40889918D01*
X64199189Y-40913635D01*
X64204317Y-40917239D01*
X64215485Y-40921865D01*
X64265441Y-40960198D01*
X64313254Y-40993801D01*
X64321393Y-41003131D01*
X64335808Y-41014192D01*
X64370630Y-41059573D01*
X64404902Y-41098860D01*
X64413381Y-41115287D01*
X64428135Y-41134515D01*
X64447761Y-41181895D01*
X64468846Y-41222747D01*
X64474587Y-41246660D01*
X64486174Y-41274634D01*
X64492089Y-41319562D01*
X64501391Y-41358309D01*
X64501230Y-41388998D01*
X64505970Y-41425000D01*
X64500838Y-41463984D01*
X64500661Y-41497722D01*
X64491699Y-41533403D01*
X64486174Y-41575366D01*
X64473430Y-41606134D01*
X64466697Y-41632937D01*
X64446624Y-41670848D01*
X64428135Y-41715485D01*
X64411537Y-41737116D01*
X64401459Y-41756150D01*
X64368833Y-41792768D01*
X64335808Y-41835808D01*
X64318987Y-41848715D01*
X64308717Y-41860242D01*
X64263164Y-41891549D01*
X64215485Y-41928135D01*
X64201508Y-41933924D01*
X64193819Y-41939209D01*
X64136044Y-41961040D01*
X64075366Y-41986174D01*
X64066410Y-41987353D01*
X64063409Y-41988487D01*
X63993986Y-41996888D01*
X63962751Y-42001000D01*
X63037249Y-42001000D01*
X62924634Y-41986174D01*
X62861642Y-41960082D01*
X62800811Y-41936365D01*
X62795683Y-41932761D01*
X62784515Y-41928135D01*
X62734559Y-41889802D01*
X62686746Y-41856199D01*
X62678607Y-41846869D01*
X62664192Y-41835808D01*
X62629370Y-41790427D01*
X62595098Y-41751140D01*
X62586619Y-41734713D01*
X62571865Y-41715485D01*
X62552239Y-41668105D01*
X62531154Y-41627253D01*
X62525413Y-41603340D01*
X62513826Y-41575366D01*
X62507911Y-41530438D01*
X62498609Y-41491691D01*
X62498770Y-41461002D01*
X62494030Y-41425000D01*
X62499162Y-41386016D01*
X62499339Y-41352278D01*
X62508301Y-41316597D01*
X62513826Y-41274634D01*
X62526570Y-41243866D01*
X62533303Y-41217063D01*
X62553376Y-41179152D01*
X62571865Y-41134515D01*
X62588463Y-41112884D01*
X62598541Y-41093850D01*
X62631167Y-41057232D01*
X62664192Y-41014192D01*
X62681013Y-41001285D01*
X62691283Y-40989758D01*
X62736836Y-40958451D01*
X62784515Y-40921865D01*
X62798492Y-40916076D01*
X62806181Y-40910791D01*
X62863956Y-40888960D01*
X62924634Y-40863826D01*
X62933590Y-40862647D01*
X62936591Y-40861513D01*
X63006014Y-40853112D01*
X63037249Y-40849000D01*
X63962751Y-40849000D01*
X64075366Y-40863826D01*
G37*
G36*
X43676753Y-40192620D02*
G01*
X43800552Y-40212670D01*
X43832116Y-40222532D01*
X43945309Y-40276522D01*
X43972837Y-40294846D01*
X44066331Y-40378440D01*
X44087607Y-40403751D01*
X44153880Y-40510224D01*
X44167198Y-40540494D01*
X44200923Y-40661280D01*
X44205212Y-40694077D01*
X44204457Y-40755876D01*
X44204448Y-40757403D01*
X44204448Y-41180090D01*
X44205235Y-41192184D01*
X44203679Y-41319475D01*
X44198590Y-41352154D01*
X44161925Y-41472082D01*
X44147872Y-41502015D01*
X44079015Y-41606838D01*
X44057127Y-41631621D01*
X43961622Y-41712903D01*
X43933649Y-41730553D01*
X43819175Y-41781760D01*
X43787375Y-41790848D01*
X43663132Y-41807868D01*
X43630057Y-41807665D01*
X43617716Y-41805821D01*
X43599239Y-41804448D01*
X43162312Y-41804447D01*
X43130101Y-41798040D01*
X43113231Y-41786768D01*
X43103932Y-41772851D01*
X43049889Y-41727685D01*
X42980006Y-41718907D01*
X42896068Y-41772850D01*
X42886768Y-41786769D01*
X42886767Y-41786770D01*
X42869899Y-41798040D01*
X42869898Y-41798041D01*
X42849999Y-41801999D01*
X42837687Y-41804448D01*
X42396614Y-41804448D01*
X42379649Y-41805605D01*
X42363132Y-41807868D01*
X42330057Y-41807665D01*
X42206025Y-41789128D01*
X42174341Y-41779653D01*
X42060498Y-41727050D01*
X42032746Y-41709063D01*
X41938240Y-41626620D01*
X41916655Y-41601568D01*
X41849089Y-41495917D01*
X41835400Y-41465809D01*
X41800308Y-41345803D01*
X41795631Y-41311660D01*
X41796318Y-41255421D01*
X41795552Y-41247129D01*
X41795552Y-40821744D01*
X41792186Y-40821744D01*
X41792309Y-40820906D01*
X41795517Y-40820945D01*
X41795543Y-40818816D01*
X41795552Y-40817292D01*
X41795553Y-40755403D01*
X41796420Y-40747120D01*
X41797303Y-40674817D01*
X41802815Y-40640789D01*
X41840827Y-40521682D01*
X41855247Y-40491918D01*
X41925373Y-40387952D01*
X41947571Y-40363428D01*
X42044059Y-40283322D01*
X42072237Y-40266021D01*
X42187330Y-40216215D01*
X42219240Y-40207515D01*
X42343695Y-40192014D01*
X42376753Y-40192620D01*
X42384929Y-40193944D01*
X42404914Y-40195552D01*
X42837688Y-40195553D01*
X42850000Y-40198002D01*
X42869899Y-40201960D01*
X42886769Y-40213232D01*
X42886771Y-40213234D01*
X42896068Y-40227148D01*
X42950112Y-40272314D01*
X43019996Y-40281091D01*
X43103932Y-40227149D01*
X43113232Y-40213231D01*
X43130103Y-40201958D01*
X43162310Y-40195552D01*
X43607532Y-40195552D01*
X43622982Y-40194594D01*
X43643694Y-40192014D01*
X43676753Y-40192620D01*
G37*
G36*
X59769899Y-38201959D02*
G01*
X59786769Y-38213231D01*
X59798041Y-38230101D01*
X59804448Y-38262312D01*
X59804448Y-39737688D01*
X59801999Y-39750000D01*
X59798041Y-39769899D01*
X59786769Y-39786769D01*
X59769899Y-39798041D01*
X59750000Y-39801999D01*
X59737688Y-39804448D01*
X58262312Y-39804448D01*
X58230101Y-39798041D01*
X58213231Y-39786769D01*
X58201959Y-39769899D01*
X58195552Y-39737688D01*
X58195552Y-38262312D01*
X58201959Y-38230101D01*
X58213231Y-38213231D01*
X58230101Y-38201959D01*
X58262312Y-38195552D01*
X59737688Y-38195552D01*
X59769899Y-38201959D01*
G37*
G36*
X43576753Y-37692620D02*
G01*
X43700552Y-37712670D01*
X43732116Y-37722532D01*
X43845309Y-37776522D01*
X43872837Y-37794846D01*
X43966331Y-37878440D01*
X43987607Y-37903751D01*
X44053880Y-38010224D01*
X44067198Y-38040494D01*
X44100923Y-38161280D01*
X44105212Y-38194077D01*
X44104457Y-38255876D01*
X44104448Y-38257403D01*
X44104448Y-38680090D01*
X44105235Y-38692184D01*
X44103679Y-38819475D01*
X44098590Y-38852154D01*
X44061925Y-38972082D01*
X44047872Y-39002015D01*
X43979015Y-39106838D01*
X43957127Y-39131621D01*
X43861622Y-39212903D01*
X43833649Y-39230553D01*
X43719175Y-39281760D01*
X43687375Y-39290848D01*
X43563132Y-39307868D01*
X43530057Y-39307665D01*
X43517716Y-39305821D01*
X43499239Y-39304448D01*
X43062312Y-39304447D01*
X43030101Y-39298040D01*
X43013231Y-39286768D01*
X43003932Y-39272851D01*
X42949889Y-39227685D01*
X42880006Y-39218907D01*
X42796068Y-39272850D01*
X42786768Y-39286769D01*
X42786767Y-39286770D01*
X42769899Y-39298040D01*
X42769898Y-39298041D01*
X42749999Y-39301999D01*
X42737687Y-39304448D01*
X42296614Y-39304448D01*
X42279649Y-39305605D01*
X42263132Y-39307868D01*
X42230057Y-39307665D01*
X42106025Y-39289128D01*
X42074341Y-39279653D01*
X41960498Y-39227050D01*
X41932746Y-39209063D01*
X41838240Y-39126620D01*
X41816655Y-39101568D01*
X41749089Y-38995917D01*
X41735400Y-38965809D01*
X41700308Y-38845803D01*
X41695631Y-38811660D01*
X41696318Y-38755421D01*
X41695552Y-38747129D01*
X41695552Y-38321744D01*
X41692186Y-38321744D01*
X41692309Y-38320906D01*
X41695517Y-38320945D01*
X41695543Y-38318816D01*
X41695552Y-38317292D01*
X41695553Y-38255403D01*
X41696420Y-38247120D01*
X41697303Y-38174817D01*
X41702815Y-38140789D01*
X41740827Y-38021682D01*
X41755247Y-37991918D01*
X41825373Y-37887952D01*
X41847571Y-37863428D01*
X41944059Y-37783322D01*
X41972237Y-37766021D01*
X42087330Y-37716215D01*
X42119240Y-37707515D01*
X42243695Y-37692014D01*
X42276753Y-37692620D01*
X42284929Y-37693944D01*
X42304914Y-37695552D01*
X42737688Y-37695553D01*
X42750000Y-37698002D01*
X42769899Y-37701960D01*
X42786769Y-37713232D01*
X42786771Y-37713234D01*
X42796068Y-37727148D01*
X42850112Y-37772314D01*
X42919996Y-37781091D01*
X43003932Y-37727149D01*
X43013232Y-37713231D01*
X43030103Y-37701958D01*
X43062310Y-37695552D01*
X43507532Y-37695552D01*
X43522982Y-37694594D01*
X43543694Y-37692014D01*
X43576753Y-37692620D01*
G37*
G36*
X31169475Y-34796321D02*
G01*
X31202153Y-34801410D01*
X31322082Y-34838075D01*
X31352015Y-34852128D01*
X31456838Y-34920985D01*
X31481621Y-34942873D01*
X31562903Y-35038378D01*
X31580553Y-35066351D01*
X31631760Y-35180825D01*
X31640848Y-35212625D01*
X31657868Y-35336868D01*
X31657665Y-35369943D01*
X31655821Y-35382284D01*
X31654448Y-35400761D01*
X31654447Y-35837688D01*
X31651998Y-35849999D01*
X31651998Y-35850000D01*
X31648040Y-35869899D01*
X31636768Y-35886769D01*
X31622852Y-35896067D01*
X31577685Y-35950111D01*
X31568907Y-36019994D01*
X31622850Y-36103932D01*
X31636769Y-36113232D01*
X31636770Y-36113233D01*
X31648041Y-36130102D01*
X31654448Y-36162313D01*
X31654448Y-36603386D01*
X31655605Y-36620351D01*
X31657868Y-36636868D01*
X31657665Y-36669943D01*
X31639128Y-36793975D01*
X31629653Y-36825659D01*
X31577052Y-36939498D01*
X31559059Y-36967258D01*
X31476619Y-37061759D01*
X31451567Y-37083346D01*
X31345917Y-37150911D01*
X31315809Y-37164600D01*
X31195803Y-37199692D01*
X31161660Y-37204369D01*
X31105421Y-37203682D01*
X31097129Y-37204448D01*
X30671744Y-37204447D01*
X30671744Y-37207813D01*
X30670907Y-37207690D01*
X30670946Y-37204482D01*
X30668818Y-37204456D01*
X30667291Y-37204447D01*
X30605405Y-37204447D01*
X30597123Y-37203580D01*
X30524817Y-37202697D01*
X30490789Y-37197185D01*
X30371682Y-37159173D01*
X30341918Y-37144753D01*
X30237952Y-37074627D01*
X30213428Y-37052429D01*
X30133322Y-36955941D01*
X30116021Y-36927763D01*
X30066215Y-36812670D01*
X30057515Y-36780760D01*
X30042014Y-36656305D01*
X30042620Y-36623247D01*
X30043944Y-36615071D01*
X30045552Y-36595086D01*
X30045553Y-36162312D01*
X30051960Y-36130101D01*
X30063232Y-36113231D01*
X30077148Y-36103932D01*
X30122315Y-36049889D01*
X30131093Y-35980006D01*
X30077150Y-35896068D01*
X30063231Y-35886768D01*
X30051959Y-35869898D01*
X30048001Y-35849999D01*
X30045552Y-35837687D01*
X30045552Y-35392468D01*
X30044594Y-35377018D01*
X30042014Y-35356306D01*
X30042620Y-35323247D01*
X30062670Y-35199448D01*
X30072532Y-35167884D01*
X30126522Y-35054691D01*
X30144846Y-35027163D01*
X30228440Y-34933670D01*
X30253752Y-34912393D01*
X30360225Y-34846120D01*
X30390494Y-34832802D01*
X30511280Y-34799077D01*
X30544077Y-34794788D01*
X30605876Y-34795543D01*
X30607403Y-34795552D01*
X31030090Y-34795553D01*
X31042177Y-34794766D01*
X31169475Y-34796321D01*
G37*
G36*
X24319475Y-34796321D02*
G01*
X24352153Y-34801410D01*
X24472082Y-34838075D01*
X24502015Y-34852128D01*
X24606838Y-34920985D01*
X24631621Y-34942873D01*
X24712903Y-35038378D01*
X24730553Y-35066351D01*
X24781760Y-35180825D01*
X24790848Y-35212625D01*
X24807868Y-35336868D01*
X24807665Y-35369943D01*
X24805821Y-35382284D01*
X24804448Y-35400761D01*
X24804447Y-35837688D01*
X24801998Y-35849999D01*
X24801998Y-35850000D01*
X24798040Y-35869899D01*
X24786768Y-35886769D01*
X24772852Y-35896067D01*
X24727685Y-35950111D01*
X24718907Y-36019994D01*
X24772850Y-36103932D01*
X24786769Y-36113232D01*
X24786770Y-36113233D01*
X24798041Y-36130102D01*
X24804448Y-36162313D01*
X24804448Y-36603386D01*
X24805605Y-36620351D01*
X24807868Y-36636868D01*
X24807665Y-36669943D01*
X24789128Y-36793975D01*
X24779653Y-36825659D01*
X24727052Y-36939498D01*
X24709059Y-36967258D01*
X24626619Y-37061759D01*
X24601567Y-37083346D01*
X24495917Y-37150911D01*
X24465809Y-37164600D01*
X24345803Y-37199692D01*
X24311660Y-37204369D01*
X24255421Y-37203682D01*
X24247129Y-37204448D01*
X23821744Y-37204447D01*
X23821744Y-37207813D01*
X23820907Y-37207690D01*
X23820946Y-37204482D01*
X23818818Y-37204456D01*
X23817291Y-37204447D01*
X23755405Y-37204447D01*
X23747123Y-37203580D01*
X23674817Y-37202697D01*
X23640789Y-37197185D01*
X23521682Y-37159173D01*
X23491918Y-37144753D01*
X23387952Y-37074627D01*
X23363428Y-37052429D01*
X23283322Y-36955941D01*
X23266021Y-36927763D01*
X23216215Y-36812670D01*
X23207515Y-36780760D01*
X23192014Y-36656305D01*
X23192620Y-36623247D01*
X23193944Y-36615071D01*
X23195552Y-36595086D01*
X23195553Y-36162312D01*
X23201960Y-36130101D01*
X23213232Y-36113231D01*
X23227148Y-36103932D01*
X23272315Y-36049889D01*
X23281093Y-35980006D01*
X23227150Y-35896068D01*
X23213231Y-35886768D01*
X23201959Y-35869898D01*
X23198001Y-35849999D01*
X23195552Y-35837687D01*
X23195552Y-35392468D01*
X23194594Y-35377018D01*
X23192014Y-35356306D01*
X23192620Y-35323247D01*
X23212670Y-35199448D01*
X23222532Y-35167884D01*
X23276522Y-35054691D01*
X23294846Y-35027163D01*
X23378440Y-34933670D01*
X23403752Y-34912393D01*
X23510225Y-34846120D01*
X23540494Y-34832802D01*
X23661280Y-34799077D01*
X23694077Y-34794788D01*
X23755876Y-34795543D01*
X23757403Y-34795552D01*
X24180090Y-34795553D01*
X24192177Y-34794766D01*
X24319475Y-34796321D01*
G37*
G36*
X36529093Y-34792309D02*
G01*
X36529054Y-34795517D01*
X36531182Y-34795543D01*
X36532709Y-34795552D01*
X36594595Y-34795552D01*
X36602877Y-34796419D01*
X36675183Y-34797302D01*
X36709211Y-34802814D01*
X36828322Y-34840827D01*
X36858077Y-34855243D01*
X36962052Y-34925376D01*
X36986572Y-34947570D01*
X37066678Y-35044059D01*
X37083979Y-35072237D01*
X37133785Y-35187330D01*
X37142485Y-35219240D01*
X37157986Y-35343695D01*
X37157380Y-35376753D01*
X37156056Y-35384929D01*
X37154448Y-35404914D01*
X37154448Y-35837688D01*
X37148041Y-35869899D01*
X37136769Y-35886769D01*
X37122853Y-35896067D01*
X37077686Y-35950111D01*
X37068908Y-36019994D01*
X37122851Y-36103932D01*
X37136769Y-36113232D01*
X37148042Y-36130103D01*
X37154448Y-36162310D01*
X37154448Y-36607532D01*
X37155406Y-36622982D01*
X37157986Y-36643694D01*
X37157380Y-36676753D01*
X37137330Y-36800552D01*
X37127468Y-36832116D01*
X37073478Y-36945309D01*
X37055154Y-36972837D01*
X36971560Y-37066331D01*
X36946249Y-37087607D01*
X36839775Y-37153881D01*
X36809507Y-37167199D01*
X36688718Y-37200924D01*
X36655927Y-37205212D01*
X36594124Y-37204457D01*
X36592597Y-37204448D01*
X36169910Y-37204448D01*
X36157823Y-37205235D01*
X36030525Y-37203680D01*
X35997847Y-37198591D01*
X35877921Y-37161927D01*
X35847977Y-37147868D01*
X35743165Y-37079018D01*
X35718379Y-37057127D01*
X35637097Y-36961622D01*
X35619447Y-36933649D01*
X35568240Y-36819175D01*
X35559152Y-36787375D01*
X35542132Y-36663132D01*
X35542335Y-36630057D01*
X35544179Y-36617716D01*
X35545552Y-36599239D01*
X35545552Y-36162312D01*
X35551959Y-36130101D01*
X35563231Y-36113231D01*
X35577147Y-36103933D01*
X35622314Y-36049889D01*
X35631092Y-35980006D01*
X35577149Y-35896068D01*
X35563231Y-35886768D01*
X35551958Y-35869897D01*
X35545552Y-35837690D01*
X35545552Y-35396614D01*
X35544395Y-35379649D01*
X35542132Y-35363132D01*
X35542335Y-35330057D01*
X35560872Y-35206025D01*
X35570347Y-35174341D01*
X35622950Y-35060498D01*
X35640937Y-35032746D01*
X35723380Y-34938240D01*
X35748432Y-34916655D01*
X35854082Y-34849089D01*
X35884190Y-34835400D01*
X36004196Y-34800308D01*
X36038340Y-34795631D01*
X36094579Y-34796318D01*
X36102871Y-34795552D01*
X36528256Y-34795552D01*
X36528256Y-34792186D01*
X36529093Y-34792309D01*
G37*
G36*
X43526753Y-35192620D02*
G01*
X43650552Y-35212670D01*
X43682116Y-35222532D01*
X43795309Y-35276522D01*
X43822837Y-35294846D01*
X43916331Y-35378440D01*
X43937607Y-35403751D01*
X44003880Y-35510224D01*
X44017198Y-35540494D01*
X44050923Y-35661280D01*
X44055212Y-35694077D01*
X44054457Y-35755876D01*
X44054448Y-35757403D01*
X44054448Y-36180090D01*
X44055235Y-36192184D01*
X44053679Y-36319475D01*
X44048590Y-36352154D01*
X44011925Y-36472082D01*
X43997872Y-36502015D01*
X43929015Y-36606838D01*
X43907127Y-36631621D01*
X43811622Y-36712903D01*
X43783649Y-36730553D01*
X43669175Y-36781760D01*
X43637375Y-36790848D01*
X43513132Y-36807868D01*
X43480057Y-36807665D01*
X43467716Y-36805821D01*
X43449239Y-36804448D01*
X43012312Y-36804447D01*
X42980101Y-36798040D01*
X42963231Y-36786768D01*
X42953932Y-36772851D01*
X42899889Y-36727685D01*
X42830006Y-36718907D01*
X42746068Y-36772850D01*
X42736768Y-36786769D01*
X42736767Y-36786770D01*
X42725983Y-36793975D01*
X42719898Y-36798041D01*
X42699999Y-36801999D01*
X42687687Y-36804448D01*
X42246614Y-36804448D01*
X42229649Y-36805605D01*
X42213132Y-36807868D01*
X42180057Y-36807665D01*
X42056025Y-36789128D01*
X42024341Y-36779653D01*
X41910498Y-36727050D01*
X41882746Y-36709063D01*
X41788240Y-36626620D01*
X41766655Y-36601568D01*
X41699089Y-36495917D01*
X41685400Y-36465809D01*
X41650308Y-36345803D01*
X41645631Y-36311660D01*
X41646318Y-36255421D01*
X41645552Y-36247129D01*
X41645552Y-35821744D01*
X41642186Y-35821744D01*
X41642309Y-35820906D01*
X41645517Y-35820945D01*
X41645543Y-35818816D01*
X41645552Y-35817292D01*
X41645553Y-35755403D01*
X41646420Y-35747120D01*
X41647303Y-35674817D01*
X41652815Y-35640789D01*
X41690827Y-35521682D01*
X41705247Y-35491918D01*
X41775373Y-35387952D01*
X41797571Y-35363428D01*
X41894059Y-35283322D01*
X41922237Y-35266021D01*
X42037330Y-35216215D01*
X42069240Y-35207515D01*
X42193695Y-35192014D01*
X42226753Y-35192620D01*
X42234929Y-35193944D01*
X42254914Y-35195552D01*
X42687688Y-35195553D01*
X42700000Y-35198002D01*
X42719899Y-35201960D01*
X42736769Y-35213232D01*
X42736771Y-35213234D01*
X42746068Y-35227148D01*
X42800112Y-35272314D01*
X42869996Y-35281091D01*
X42953932Y-35227149D01*
X42963232Y-35213231D01*
X42980103Y-35201958D01*
X43012310Y-35195552D01*
X43457532Y-35195552D01*
X43472982Y-35194594D01*
X43493694Y-35192014D01*
X43526753Y-35192620D01*
G37*
G36*
X59769899Y-35201959D02*
G01*
X59786769Y-35213231D01*
X59798041Y-35230101D01*
X59804448Y-35262312D01*
X59804448Y-36737688D01*
X59801999Y-36749999D01*
X59801999Y-36750000D01*
X59798041Y-36769899D01*
X59786769Y-36786769D01*
X59769899Y-36798041D01*
X59750000Y-36801999D01*
X59737688Y-36804448D01*
X58262312Y-36804448D01*
X58230101Y-36798041D01*
X58213231Y-36786769D01*
X58201959Y-36769899D01*
X58195552Y-36737688D01*
X58195552Y-35262312D01*
X58201959Y-35230101D01*
X58213231Y-35213231D01*
X58230101Y-35201959D01*
X58262312Y-35195552D01*
X59737688Y-35195552D01*
X59769899Y-35201959D01*
G37*
G36*
X59769899Y-32451959D02*
G01*
X59786769Y-32463231D01*
X59798041Y-32480101D01*
X59804448Y-32512312D01*
X59804448Y-33987688D01*
X59801999Y-34000000D01*
X59798041Y-34019899D01*
X59786769Y-34036769D01*
X59769899Y-34048041D01*
X59750000Y-34051999D01*
X59737688Y-34054448D01*
X58262312Y-34054448D01*
X58230101Y-34048041D01*
X58213231Y-34036769D01*
X58201959Y-34019899D01*
X58195552Y-33987688D01*
X58195552Y-32512312D01*
X58201959Y-32480101D01*
X58213231Y-32463231D01*
X58230101Y-32451959D01*
X58262312Y-32445552D01*
X59737688Y-32445552D01*
X59769899Y-32451959D01*
G37*
G36*
X46676753Y-32192620D02*
G01*
X46800552Y-32212670D01*
X46832116Y-32222532D01*
X46945309Y-32276522D01*
X46972837Y-32294846D01*
X47066331Y-32378440D01*
X47087607Y-32403751D01*
X47153880Y-32510224D01*
X47167198Y-32540494D01*
X47200923Y-32661280D01*
X47205212Y-32694077D01*
X47204457Y-32755876D01*
X47204448Y-32757403D01*
X47204448Y-33180090D01*
X47205235Y-33192184D01*
X47203679Y-33319475D01*
X47198590Y-33352154D01*
X47161925Y-33472082D01*
X47147872Y-33502015D01*
X47079015Y-33606838D01*
X47057127Y-33631621D01*
X46961622Y-33712903D01*
X46933649Y-33730553D01*
X46819175Y-33781760D01*
X46787375Y-33790848D01*
X46663132Y-33807868D01*
X46630057Y-33807665D01*
X46617716Y-33805821D01*
X46599239Y-33804448D01*
X46162312Y-33804447D01*
X46130101Y-33798040D01*
X46113231Y-33786768D01*
X46103932Y-33772851D01*
X46049889Y-33727685D01*
X45980006Y-33718907D01*
X45896068Y-33772850D01*
X45886768Y-33786769D01*
X45886767Y-33786770D01*
X45869899Y-33798040D01*
X45869898Y-33798041D01*
X45849999Y-33801999D01*
X45837687Y-33804448D01*
X45396614Y-33804448D01*
X45379649Y-33805605D01*
X45363132Y-33807868D01*
X45330057Y-33807665D01*
X45206025Y-33789128D01*
X45174341Y-33779653D01*
X45060498Y-33727050D01*
X45032746Y-33709063D01*
X44938240Y-33626620D01*
X44916655Y-33601568D01*
X44849089Y-33495917D01*
X44835400Y-33465809D01*
X44800308Y-33345803D01*
X44795631Y-33311660D01*
X44796318Y-33255421D01*
X44795552Y-33247129D01*
X44795552Y-32821744D01*
X44792186Y-32821744D01*
X44792309Y-32820906D01*
X44795517Y-32820945D01*
X44795543Y-32818816D01*
X44795552Y-32817292D01*
X44795553Y-32755403D01*
X44796420Y-32747120D01*
X44797303Y-32674817D01*
X44802815Y-32640789D01*
X44840827Y-32521682D01*
X44855247Y-32491918D01*
X44925373Y-32387952D01*
X44947571Y-32363428D01*
X45044059Y-32283322D01*
X45072237Y-32266021D01*
X45187330Y-32216215D01*
X45219240Y-32207515D01*
X45343695Y-32192014D01*
X45376753Y-32192620D01*
X45384929Y-32193944D01*
X45404914Y-32195552D01*
X45837688Y-32195553D01*
X45850000Y-32198002D01*
X45869899Y-32201960D01*
X45886769Y-32213232D01*
X45886771Y-32213234D01*
X45896068Y-32227148D01*
X45950112Y-32272314D01*
X46019996Y-32281091D01*
X46103932Y-32227149D01*
X46113232Y-32213231D01*
X46130103Y-32201958D01*
X46162310Y-32195552D01*
X46607532Y-32195552D01*
X46622982Y-32194594D01*
X46643694Y-32192014D01*
X46676753Y-32192620D01*
G37*
G36*
X40676753Y-32192620D02*
G01*
X40800552Y-32212670D01*
X40832116Y-32222532D01*
X40945309Y-32276522D01*
X40972837Y-32294846D01*
X41066331Y-32378440D01*
X41087607Y-32403751D01*
X41153880Y-32510224D01*
X41167198Y-32540494D01*
X41200923Y-32661280D01*
X41205212Y-32694077D01*
X41204457Y-32755876D01*
X41204448Y-32757403D01*
X41204448Y-33180090D01*
X41205235Y-33192184D01*
X41203679Y-33319475D01*
X41198590Y-33352154D01*
X41161925Y-33472082D01*
X41147872Y-33502015D01*
X41079015Y-33606838D01*
X41057127Y-33631621D01*
X40961622Y-33712903D01*
X40933649Y-33730553D01*
X40819175Y-33781760D01*
X40787375Y-33790848D01*
X40663132Y-33807868D01*
X40630057Y-33807665D01*
X40617716Y-33805821D01*
X40599239Y-33804448D01*
X40162312Y-33804447D01*
X40130101Y-33798040D01*
X40113231Y-33786768D01*
X40103932Y-33772851D01*
X40049889Y-33727685D01*
X39980006Y-33718907D01*
X39896068Y-33772850D01*
X39886768Y-33786769D01*
X39886767Y-33786770D01*
X39869899Y-33798040D01*
X39869898Y-33798041D01*
X39849999Y-33801999D01*
X39837687Y-33804448D01*
X39396614Y-33804448D01*
X39379649Y-33805605D01*
X39363132Y-33807868D01*
X39330057Y-33807665D01*
X39206025Y-33789128D01*
X39174341Y-33779653D01*
X39060498Y-33727050D01*
X39032746Y-33709063D01*
X38938240Y-33626620D01*
X38916655Y-33601568D01*
X38849089Y-33495917D01*
X38835400Y-33465809D01*
X38800308Y-33345803D01*
X38795631Y-33311660D01*
X38796318Y-33255421D01*
X38795552Y-33247129D01*
X38795552Y-32821744D01*
X38792186Y-32821744D01*
X38792309Y-32820906D01*
X38795517Y-32820945D01*
X38795543Y-32818816D01*
X38795552Y-32817292D01*
X38795553Y-32755403D01*
X38796420Y-32747120D01*
X38797303Y-32674817D01*
X38802815Y-32640789D01*
X38840827Y-32521682D01*
X38855247Y-32491918D01*
X38925373Y-32387952D01*
X38947571Y-32363428D01*
X39044059Y-32283322D01*
X39072237Y-32266021D01*
X39187330Y-32216215D01*
X39219240Y-32207515D01*
X39343695Y-32192014D01*
X39376753Y-32192620D01*
X39384929Y-32193944D01*
X39404914Y-32195552D01*
X39837688Y-32195553D01*
X39850000Y-32198002D01*
X39869899Y-32201960D01*
X39886769Y-32213232D01*
X39886771Y-32213234D01*
X39896068Y-32227148D01*
X39950112Y-32272314D01*
X40019996Y-32281091D01*
X40103932Y-32227149D01*
X40113232Y-32213231D01*
X40130103Y-32201958D01*
X40162310Y-32195552D01*
X40607532Y-32195552D01*
X40622982Y-32194594D01*
X40643694Y-32192014D01*
X40676753Y-32192620D01*
G37*
G36*
X26319475Y-28296321D02*
G01*
X26352153Y-28301410D01*
X26472082Y-28338075D01*
X26502015Y-28352128D01*
X26606838Y-28420985D01*
X26631621Y-28442873D01*
X26712903Y-28538378D01*
X26730553Y-28566351D01*
X26781760Y-28680825D01*
X26790848Y-28712625D01*
X26807868Y-28836868D01*
X26807665Y-28869943D01*
X26805821Y-28882284D01*
X26804448Y-28900761D01*
X26804447Y-29337688D01*
X26801998Y-29349999D01*
X26801998Y-29350000D01*
X26798040Y-29369899D01*
X26786768Y-29386769D01*
X26772852Y-29396067D01*
X26727685Y-29450111D01*
X26718907Y-29519994D01*
X26772850Y-29603932D01*
X26786769Y-29613232D01*
X26786770Y-29613233D01*
X26798041Y-29630102D01*
X26804448Y-29662313D01*
X26804448Y-30103386D01*
X26805605Y-30120351D01*
X26807868Y-30136868D01*
X26807665Y-30169943D01*
X26789128Y-30293975D01*
X26779653Y-30325659D01*
X26727052Y-30439498D01*
X26709059Y-30467258D01*
X26626619Y-30561759D01*
X26601567Y-30583346D01*
X26495917Y-30650911D01*
X26465809Y-30664600D01*
X26345803Y-30699692D01*
X26311660Y-30704369D01*
X26255421Y-30703682D01*
X26247129Y-30704448D01*
X25821744Y-30704447D01*
X25821744Y-30707813D01*
X25820907Y-30707690D01*
X25820946Y-30704482D01*
X25818818Y-30704456D01*
X25817291Y-30704447D01*
X25755405Y-30704447D01*
X25747123Y-30703580D01*
X25674817Y-30702697D01*
X25640789Y-30697185D01*
X25521682Y-30659173D01*
X25491918Y-30644753D01*
X25387952Y-30574627D01*
X25363428Y-30552429D01*
X25283322Y-30455941D01*
X25266021Y-30427763D01*
X25216215Y-30312670D01*
X25207515Y-30280760D01*
X25192014Y-30156305D01*
X25192620Y-30123247D01*
X25193944Y-30115071D01*
X25195552Y-30095086D01*
X25195553Y-29662312D01*
X25201960Y-29630101D01*
X25213232Y-29613231D01*
X25227148Y-29603932D01*
X25272315Y-29549889D01*
X25281093Y-29480006D01*
X25227150Y-29396068D01*
X25213231Y-29386768D01*
X25201959Y-29369898D01*
X25198001Y-29349999D01*
X25195552Y-29337687D01*
X25195552Y-28892468D01*
X25194594Y-28877018D01*
X25192014Y-28856306D01*
X25192620Y-28823247D01*
X25212670Y-28699448D01*
X25222532Y-28667884D01*
X25276522Y-28554691D01*
X25294846Y-28527163D01*
X25378440Y-28433670D01*
X25403752Y-28412393D01*
X25510225Y-28346120D01*
X25540494Y-28332802D01*
X25661280Y-28299077D01*
X25694077Y-28294788D01*
X25755876Y-28295543D01*
X25757403Y-28295552D01*
X26180090Y-28295553D01*
X26192177Y-28294766D01*
X26319475Y-28296321D01*
G37*
G36*
X23319475Y-28296321D02*
G01*
X23352153Y-28301410D01*
X23472082Y-28338075D01*
X23502015Y-28352128D01*
X23606838Y-28420985D01*
X23631621Y-28442873D01*
X23712903Y-28538378D01*
X23730553Y-28566351D01*
X23781760Y-28680825D01*
X23790848Y-28712625D01*
X23807868Y-28836868D01*
X23807665Y-28869943D01*
X23805821Y-28882284D01*
X23804448Y-28900761D01*
X23804447Y-29337688D01*
X23801998Y-29349999D01*
X23801998Y-29350000D01*
X23798040Y-29369899D01*
X23786768Y-29386769D01*
X23772852Y-29396067D01*
X23727685Y-29450111D01*
X23718907Y-29519994D01*
X23772850Y-29603932D01*
X23786769Y-29613232D01*
X23786770Y-29613233D01*
X23798041Y-29630102D01*
X23804448Y-29662313D01*
X23804448Y-30103386D01*
X23805605Y-30120351D01*
X23807868Y-30136868D01*
X23807665Y-30169943D01*
X23789128Y-30293975D01*
X23779653Y-30325659D01*
X23727052Y-30439498D01*
X23709059Y-30467258D01*
X23626619Y-30561759D01*
X23601567Y-30583346D01*
X23495917Y-30650911D01*
X23465809Y-30664600D01*
X23345803Y-30699692D01*
X23311660Y-30704369D01*
X23255421Y-30703682D01*
X23247129Y-30704448D01*
X22821744Y-30704447D01*
X22821744Y-30707813D01*
X22820907Y-30707690D01*
X22820946Y-30704482D01*
X22818818Y-30704456D01*
X22817291Y-30704447D01*
X22755405Y-30704447D01*
X22747123Y-30703580D01*
X22674817Y-30702697D01*
X22640789Y-30697185D01*
X22521682Y-30659173D01*
X22491918Y-30644753D01*
X22387952Y-30574627D01*
X22363428Y-30552429D01*
X22283322Y-30455941D01*
X22266021Y-30427763D01*
X22216215Y-30312670D01*
X22207515Y-30280760D01*
X22192014Y-30156305D01*
X22192620Y-30123247D01*
X22193944Y-30115071D01*
X22195552Y-30095086D01*
X22195553Y-29662312D01*
X22201960Y-29630101D01*
X22213232Y-29613231D01*
X22227148Y-29603932D01*
X22272315Y-29549889D01*
X22281093Y-29480006D01*
X22227150Y-29396068D01*
X22213231Y-29386768D01*
X22201959Y-29369898D01*
X22198001Y-29349999D01*
X22195552Y-29337687D01*
X22195552Y-28892468D01*
X22194594Y-28877018D01*
X22192014Y-28856306D01*
X22192620Y-28823247D01*
X22212670Y-28699448D01*
X22222532Y-28667884D01*
X22276522Y-28554691D01*
X22294846Y-28527163D01*
X22378440Y-28433670D01*
X22403752Y-28412393D01*
X22510225Y-28346120D01*
X22540494Y-28332802D01*
X22661280Y-28299077D01*
X22694077Y-28294788D01*
X22755876Y-28295543D01*
X22757403Y-28295552D01*
X23180090Y-28295553D01*
X23192177Y-28294766D01*
X23319475Y-28296321D01*
G37*
G36*
X29319475Y-28296321D02*
G01*
X29352153Y-28301410D01*
X29472082Y-28338075D01*
X29502015Y-28352128D01*
X29606838Y-28420985D01*
X29631621Y-28442873D01*
X29712903Y-28538378D01*
X29730553Y-28566351D01*
X29781760Y-28680825D01*
X29790848Y-28712625D01*
X29807868Y-28836868D01*
X29807665Y-28869943D01*
X29805821Y-28882284D01*
X29804448Y-28900761D01*
X29804447Y-29337688D01*
X29801998Y-29349999D01*
X29801998Y-29350000D01*
X29798040Y-29369899D01*
X29786768Y-29386769D01*
X29772852Y-29396067D01*
X29727685Y-29450111D01*
X29718907Y-29519994D01*
X29772850Y-29603932D01*
X29786769Y-29613232D01*
X29786770Y-29613233D01*
X29798041Y-29630102D01*
X29804448Y-29662313D01*
X29804448Y-30103386D01*
X29805605Y-30120351D01*
X29807868Y-30136868D01*
X29807665Y-30169943D01*
X29789128Y-30293975D01*
X29779653Y-30325659D01*
X29727052Y-30439498D01*
X29709059Y-30467258D01*
X29626619Y-30561759D01*
X29601567Y-30583346D01*
X29495917Y-30650911D01*
X29465809Y-30664600D01*
X29345803Y-30699692D01*
X29311660Y-30704369D01*
X29255421Y-30703682D01*
X29247129Y-30704448D01*
X28821744Y-30704447D01*
X28821744Y-30707813D01*
X28820907Y-30707690D01*
X28820946Y-30704482D01*
X28818818Y-30704456D01*
X28817291Y-30704447D01*
X28755405Y-30704447D01*
X28747123Y-30703580D01*
X28674817Y-30702697D01*
X28640789Y-30697185D01*
X28521682Y-30659173D01*
X28491918Y-30644753D01*
X28387952Y-30574627D01*
X28363428Y-30552429D01*
X28283322Y-30455941D01*
X28266021Y-30427763D01*
X28216215Y-30312670D01*
X28207515Y-30280760D01*
X28192014Y-30156305D01*
X28192620Y-30123247D01*
X28193944Y-30115071D01*
X28195552Y-30095086D01*
X28195553Y-29662312D01*
X28201960Y-29630101D01*
X28213232Y-29613231D01*
X28227148Y-29603932D01*
X28272315Y-29549889D01*
X28281093Y-29480006D01*
X28227150Y-29396068D01*
X28213231Y-29386768D01*
X28201959Y-29369898D01*
X28198001Y-29349999D01*
X28195552Y-29337687D01*
X28195552Y-28892468D01*
X28194594Y-28877018D01*
X28192014Y-28856306D01*
X28192620Y-28823247D01*
X28212670Y-28699448D01*
X28222532Y-28667884D01*
X28276522Y-28554691D01*
X28294846Y-28527163D01*
X28378440Y-28433670D01*
X28403752Y-28412393D01*
X28510225Y-28346120D01*
X28540494Y-28332802D01*
X28661280Y-28299077D01*
X28694077Y-28294788D01*
X28755876Y-28295543D01*
X28757403Y-28295552D01*
X29180090Y-28295553D01*
X29192177Y-28294766D01*
X29319475Y-28296321D01*
G37*
G36*
X32179093Y-28292309D02*
G01*
X32179054Y-28295517D01*
X32181182Y-28295543D01*
X32182709Y-28295552D01*
X32244595Y-28295552D01*
X32252877Y-28296419D01*
X32325183Y-28297302D01*
X32359211Y-28302814D01*
X32478322Y-28340827D01*
X32508077Y-28355243D01*
X32612052Y-28425376D01*
X32636572Y-28447570D01*
X32716678Y-28544059D01*
X32733979Y-28572237D01*
X32783785Y-28687330D01*
X32792485Y-28719240D01*
X32807986Y-28843695D01*
X32807380Y-28876753D01*
X32806056Y-28884929D01*
X32804448Y-28904914D01*
X32804448Y-29337688D01*
X32798041Y-29369899D01*
X32786769Y-29386769D01*
X32772853Y-29396067D01*
X32727686Y-29450111D01*
X32718908Y-29519994D01*
X32772851Y-29603932D01*
X32786769Y-29613232D01*
X32798042Y-29630103D01*
X32804448Y-29662310D01*
X32804448Y-30107532D01*
X32805406Y-30122982D01*
X32807986Y-30143694D01*
X32807380Y-30176753D01*
X32787330Y-30300552D01*
X32777468Y-30332116D01*
X32723478Y-30445309D01*
X32705154Y-30472837D01*
X32621560Y-30566331D01*
X32596249Y-30587607D01*
X32489775Y-30653881D01*
X32459507Y-30667199D01*
X32338718Y-30700924D01*
X32305927Y-30705212D01*
X32244124Y-30704457D01*
X32242597Y-30704448D01*
X31819910Y-30704448D01*
X31807823Y-30705235D01*
X31680525Y-30703680D01*
X31647847Y-30698591D01*
X31527921Y-30661927D01*
X31497977Y-30647868D01*
X31393165Y-30579018D01*
X31368379Y-30557127D01*
X31287097Y-30461622D01*
X31269447Y-30433649D01*
X31218240Y-30319175D01*
X31209152Y-30287375D01*
X31192132Y-30163132D01*
X31192335Y-30130057D01*
X31194179Y-30117716D01*
X31195552Y-30099239D01*
X31195552Y-29662312D01*
X31201959Y-29630101D01*
X31213231Y-29613231D01*
X31227147Y-29603933D01*
X31272314Y-29549889D01*
X31281092Y-29480006D01*
X31227149Y-29396068D01*
X31213231Y-29386768D01*
X31201958Y-29369897D01*
X31195552Y-29337690D01*
X31195552Y-28896614D01*
X31194395Y-28879649D01*
X31192132Y-28863132D01*
X31192335Y-28830057D01*
X31210872Y-28706025D01*
X31220347Y-28674341D01*
X31272950Y-28560498D01*
X31290937Y-28532746D01*
X31373380Y-28438240D01*
X31398432Y-28416655D01*
X31504082Y-28349089D01*
X31534190Y-28335400D01*
X31654196Y-28300308D01*
X31688340Y-28295631D01*
X31744579Y-28296318D01*
X31752871Y-28295552D01*
X32178256Y-28295552D01*
X32178256Y-28292186D01*
X32179093Y-28292309D01*
G37*
G36*
X35679093Y-28292309D02*
G01*
X35679054Y-28295517D01*
X35681182Y-28295543D01*
X35682709Y-28295552D01*
X35744595Y-28295552D01*
X35752877Y-28296419D01*
X35825183Y-28297302D01*
X35859211Y-28302814D01*
X35978322Y-28340827D01*
X36008077Y-28355243D01*
X36112052Y-28425376D01*
X36136572Y-28447570D01*
X36216678Y-28544059D01*
X36233979Y-28572237D01*
X36283785Y-28687330D01*
X36292485Y-28719240D01*
X36307986Y-28843695D01*
X36307380Y-28876753D01*
X36306056Y-28884929D01*
X36304448Y-28904914D01*
X36304448Y-29337688D01*
X36298041Y-29369899D01*
X36286769Y-29386769D01*
X36272853Y-29396067D01*
X36227686Y-29450111D01*
X36218908Y-29519994D01*
X36272851Y-29603932D01*
X36286769Y-29613232D01*
X36298042Y-29630103D01*
X36304448Y-29662310D01*
X36304448Y-30107532D01*
X36305406Y-30122982D01*
X36307986Y-30143694D01*
X36307380Y-30176753D01*
X36287330Y-30300552D01*
X36277468Y-30332116D01*
X36223478Y-30445309D01*
X36205154Y-30472837D01*
X36121560Y-30566331D01*
X36096249Y-30587607D01*
X35989775Y-30653881D01*
X35959507Y-30667199D01*
X35838718Y-30700924D01*
X35805927Y-30705212D01*
X35744124Y-30704457D01*
X35742597Y-30704448D01*
X35319910Y-30704448D01*
X35307823Y-30705235D01*
X35180525Y-30703680D01*
X35147847Y-30698591D01*
X35027921Y-30661927D01*
X34997977Y-30647868D01*
X34893165Y-30579018D01*
X34868379Y-30557127D01*
X34787097Y-30461622D01*
X34769447Y-30433649D01*
X34718240Y-30319175D01*
X34709152Y-30287375D01*
X34692132Y-30163132D01*
X34692335Y-30130057D01*
X34694179Y-30117716D01*
X34695552Y-30099239D01*
X34695552Y-29662312D01*
X34701959Y-29630101D01*
X34713231Y-29613231D01*
X34727147Y-29603933D01*
X34772314Y-29549889D01*
X34781092Y-29480006D01*
X34727149Y-29396068D01*
X34713231Y-29386768D01*
X34701958Y-29369897D01*
X34695552Y-29337690D01*
X34695552Y-28896614D01*
X34694395Y-28879649D01*
X34692132Y-28863132D01*
X34692335Y-28830057D01*
X34710872Y-28706025D01*
X34720347Y-28674341D01*
X34772950Y-28560498D01*
X34790937Y-28532746D01*
X34873380Y-28438240D01*
X34898432Y-28416655D01*
X35004082Y-28349089D01*
X35034190Y-28335400D01*
X35154196Y-28300308D01*
X35188340Y-28295631D01*
X35244579Y-28296318D01*
X35252871Y-28295552D01*
X35678256Y-28295552D01*
X35678256Y-28292186D01*
X35679093Y-28292309D01*
G37*
G36*
X39679093Y-28292309D02*
G01*
X39679054Y-28295517D01*
X39681182Y-28295543D01*
X39682709Y-28295552D01*
X39744595Y-28295552D01*
X39752877Y-28296419D01*
X39825183Y-28297302D01*
X39859211Y-28302814D01*
X39978322Y-28340827D01*
X40008077Y-28355243D01*
X40112052Y-28425376D01*
X40136572Y-28447570D01*
X40216678Y-28544059D01*
X40233979Y-28572237D01*
X40283785Y-28687330D01*
X40292485Y-28719240D01*
X40307986Y-28843695D01*
X40307380Y-28876753D01*
X40306056Y-28884929D01*
X40304448Y-28904914D01*
X40304448Y-29337688D01*
X40298041Y-29369899D01*
X40286769Y-29386769D01*
X40272853Y-29396067D01*
X40227686Y-29450111D01*
X40218908Y-29519994D01*
X40272851Y-29603932D01*
X40286769Y-29613232D01*
X40298042Y-29630103D01*
X40304448Y-29662310D01*
X40304448Y-30107532D01*
X40305406Y-30122982D01*
X40307986Y-30143694D01*
X40307380Y-30176753D01*
X40287330Y-30300552D01*
X40277468Y-30332116D01*
X40223478Y-30445309D01*
X40205154Y-30472837D01*
X40121560Y-30566331D01*
X40096249Y-30587607D01*
X39989775Y-30653881D01*
X39959507Y-30667199D01*
X39838718Y-30700924D01*
X39805927Y-30705212D01*
X39744124Y-30704457D01*
X39742597Y-30704448D01*
X39319910Y-30704448D01*
X39307823Y-30705235D01*
X39180525Y-30703680D01*
X39147847Y-30698591D01*
X39027921Y-30661927D01*
X38997977Y-30647868D01*
X38893165Y-30579018D01*
X38868379Y-30557127D01*
X38787097Y-30461622D01*
X38769447Y-30433649D01*
X38718240Y-30319175D01*
X38709152Y-30287375D01*
X38692132Y-30163132D01*
X38692335Y-30130057D01*
X38694179Y-30117716D01*
X38695552Y-30099239D01*
X38695552Y-29662312D01*
X38701959Y-29630101D01*
X38713231Y-29613231D01*
X38727147Y-29603933D01*
X38772314Y-29549889D01*
X38781092Y-29480006D01*
X38727149Y-29396068D01*
X38713231Y-29386768D01*
X38701958Y-29369897D01*
X38695552Y-29337690D01*
X38695552Y-28896614D01*
X38694395Y-28879649D01*
X38692132Y-28863132D01*
X38692335Y-28830057D01*
X38710872Y-28706025D01*
X38720347Y-28674341D01*
X38772950Y-28560498D01*
X38790937Y-28532746D01*
X38873380Y-28438240D01*
X38898432Y-28416655D01*
X39004082Y-28349089D01*
X39034190Y-28335400D01*
X39154196Y-28300308D01*
X39188340Y-28295631D01*
X39244579Y-28296318D01*
X39252871Y-28295552D01*
X39678256Y-28295552D01*
X39678256Y-28292186D01*
X39679093Y-28292309D01*
G37*
G36*
X27319475Y-14446321D02*
G01*
X27352153Y-14451410D01*
X27472082Y-14488075D01*
X27502015Y-14502128D01*
X27606838Y-14570985D01*
X27631621Y-14592873D01*
X27712903Y-14688378D01*
X27730553Y-14716351D01*
X27781760Y-14830825D01*
X27790848Y-14862625D01*
X27807868Y-14986868D01*
X27807665Y-15019943D01*
X27805821Y-15032284D01*
X27804448Y-15050761D01*
X27804447Y-15487688D01*
X27801998Y-15499999D01*
X27801998Y-15500000D01*
X27798040Y-15519899D01*
X27786768Y-15536769D01*
X27772852Y-15546067D01*
X27727685Y-15600111D01*
X27718907Y-15669994D01*
X27772850Y-15753932D01*
X27786769Y-15763232D01*
X27786770Y-15763233D01*
X27798041Y-15780102D01*
X27804448Y-15812313D01*
X27804448Y-16253386D01*
X27805605Y-16270351D01*
X27807868Y-16286868D01*
X27807665Y-16319943D01*
X27789128Y-16443975D01*
X27779653Y-16475659D01*
X27727052Y-16589498D01*
X27709059Y-16617258D01*
X27626619Y-16711759D01*
X27601567Y-16733346D01*
X27495917Y-16800911D01*
X27465809Y-16814600D01*
X27345803Y-16849692D01*
X27311660Y-16854369D01*
X27255421Y-16853682D01*
X27247129Y-16854448D01*
X26821744Y-16854447D01*
X26821744Y-16857813D01*
X26820907Y-16857690D01*
X26820946Y-16854482D01*
X26818818Y-16854456D01*
X26817291Y-16854447D01*
X26755405Y-16854447D01*
X26747123Y-16853580D01*
X26674817Y-16852697D01*
X26640789Y-16847185D01*
X26521682Y-16809173D01*
X26491918Y-16794753D01*
X26387952Y-16724627D01*
X26363428Y-16702429D01*
X26283322Y-16605941D01*
X26266021Y-16577763D01*
X26216215Y-16462670D01*
X26207515Y-16430760D01*
X26192014Y-16306305D01*
X26192620Y-16273247D01*
X26193944Y-16265071D01*
X26195552Y-16245086D01*
X26195553Y-15812312D01*
X26201960Y-15780101D01*
X26213232Y-15763231D01*
X26227148Y-15753932D01*
X26272315Y-15699889D01*
X26281093Y-15630006D01*
X26227150Y-15546068D01*
X26213231Y-15536768D01*
X26201959Y-15519898D01*
X26198001Y-15499999D01*
X26195552Y-15487687D01*
X26195552Y-15042468D01*
X26194594Y-15027018D01*
X26192014Y-15006306D01*
X26192620Y-14973247D01*
X26212670Y-14849448D01*
X26222532Y-14817884D01*
X26276522Y-14704691D01*
X26294846Y-14677163D01*
X26378440Y-14583670D01*
X26403752Y-14562393D01*
X26510225Y-14496120D01*
X26540494Y-14482802D01*
X26661280Y-14449077D01*
X26694077Y-14444788D01*
X26755876Y-14445543D01*
X26757403Y-14445552D01*
X27180090Y-14445553D01*
X27192177Y-14444766D01*
X27319475Y-14446321D01*
G37*
G36*
X33179093Y-14442309D02*
G01*
X33179054Y-14445517D01*
X33181182Y-14445543D01*
X33182709Y-14445552D01*
X33244595Y-14445552D01*
X33252877Y-14446419D01*
X33325183Y-14447302D01*
X33359211Y-14452814D01*
X33478322Y-14490827D01*
X33508077Y-14505243D01*
X33612052Y-14575376D01*
X33636572Y-14597570D01*
X33716678Y-14694059D01*
X33733979Y-14722237D01*
X33783785Y-14837330D01*
X33792485Y-14869240D01*
X33807986Y-14993695D01*
X33807380Y-15026753D01*
X33806056Y-15034929D01*
X33804448Y-15054914D01*
X33804448Y-15487688D01*
X33798041Y-15519899D01*
X33786769Y-15536769D01*
X33772853Y-15546067D01*
X33727686Y-15600111D01*
X33718908Y-15669994D01*
X33772851Y-15753932D01*
X33786769Y-15763232D01*
X33798042Y-15780103D01*
X33804448Y-15812310D01*
X33804448Y-16257532D01*
X33805406Y-16272982D01*
X33807986Y-16293694D01*
X33807380Y-16326753D01*
X33787330Y-16450552D01*
X33777468Y-16482116D01*
X33723478Y-16595309D01*
X33705154Y-16622837D01*
X33621560Y-16716331D01*
X33596249Y-16737607D01*
X33489775Y-16803881D01*
X33459507Y-16817199D01*
X33338718Y-16850924D01*
X33305927Y-16855212D01*
X33244124Y-16854457D01*
X33242597Y-16854448D01*
X32819910Y-16854448D01*
X32807823Y-16855235D01*
X32680525Y-16853680D01*
X32647847Y-16848591D01*
X32527921Y-16811927D01*
X32497977Y-16797868D01*
X32393165Y-16729018D01*
X32368379Y-16707127D01*
X32287097Y-16611622D01*
X32269447Y-16583649D01*
X32218240Y-16469175D01*
X32209152Y-16437375D01*
X32192132Y-16313132D01*
X32192335Y-16280057D01*
X32194179Y-16267716D01*
X32195552Y-16249239D01*
X32195552Y-15812312D01*
X32201959Y-15780101D01*
X32213231Y-15763231D01*
X32227147Y-15753933D01*
X32272314Y-15699889D01*
X32281092Y-15630006D01*
X32227149Y-15546068D01*
X32213231Y-15536768D01*
X32201958Y-15519897D01*
X32195552Y-15487690D01*
X32195552Y-15046614D01*
X32194395Y-15029649D01*
X32192132Y-15013132D01*
X32192335Y-14980057D01*
X32210872Y-14856025D01*
X32220347Y-14824341D01*
X32272950Y-14710498D01*
X32290937Y-14682746D01*
X32373380Y-14588240D01*
X32398432Y-14566655D01*
X32504082Y-14499089D01*
X32534190Y-14485400D01*
X32654196Y-14450308D01*
X32688340Y-14445631D01*
X32744579Y-14446318D01*
X32752871Y-14445552D01*
X33178256Y-14445552D01*
X33178256Y-14442186D01*
X33179093Y-14442309D01*
G37*
G36*
X30179093Y-14442309D02*
G01*
X30179054Y-14445517D01*
X30181182Y-14445543D01*
X30182709Y-14445552D01*
X30244595Y-14445552D01*
X30252877Y-14446419D01*
X30325183Y-14447302D01*
X30359211Y-14452814D01*
X30478322Y-14490827D01*
X30508077Y-14505243D01*
X30612052Y-14575376D01*
X30636572Y-14597570D01*
X30716678Y-14694059D01*
X30733979Y-14722237D01*
X30783785Y-14837330D01*
X30792485Y-14869240D01*
X30807986Y-14993695D01*
X30807380Y-15026753D01*
X30806056Y-15034929D01*
X30804448Y-15054914D01*
X30804448Y-15487688D01*
X30798041Y-15519899D01*
X30786769Y-15536769D01*
X30772853Y-15546067D01*
X30727686Y-15600111D01*
X30718908Y-15669994D01*
X30772851Y-15753932D01*
X30786769Y-15763232D01*
X30798042Y-15780103D01*
X30804448Y-15812310D01*
X30804448Y-16257532D01*
X30805406Y-16272982D01*
X30807986Y-16293694D01*
X30807380Y-16326753D01*
X30787330Y-16450552D01*
X30777468Y-16482116D01*
X30723478Y-16595309D01*
X30705154Y-16622837D01*
X30621560Y-16716331D01*
X30596249Y-16737607D01*
X30489775Y-16803881D01*
X30459507Y-16817199D01*
X30338718Y-16850924D01*
X30305927Y-16855212D01*
X30244124Y-16854457D01*
X30242597Y-16854448D01*
X29819910Y-16854448D01*
X29807823Y-16855235D01*
X29680525Y-16853680D01*
X29647847Y-16848591D01*
X29527921Y-16811927D01*
X29497977Y-16797868D01*
X29393165Y-16729018D01*
X29368379Y-16707127D01*
X29287097Y-16611622D01*
X29269447Y-16583649D01*
X29218240Y-16469175D01*
X29209152Y-16437375D01*
X29192132Y-16313132D01*
X29192335Y-16280057D01*
X29194179Y-16267716D01*
X29195552Y-16249239D01*
X29195552Y-15812312D01*
X29201959Y-15780101D01*
X29213231Y-15763231D01*
X29227147Y-15753933D01*
X29272314Y-15699889D01*
X29281092Y-15630006D01*
X29227149Y-15546068D01*
X29213231Y-15536768D01*
X29201958Y-15519897D01*
X29195552Y-15487690D01*
X29195552Y-15046614D01*
X29194395Y-15029649D01*
X29192132Y-15013132D01*
X29192335Y-14980057D01*
X29210872Y-14856025D01*
X29220347Y-14824341D01*
X29272950Y-14710498D01*
X29290937Y-14682746D01*
X29373380Y-14588240D01*
X29398432Y-14566655D01*
X29504082Y-14499089D01*
X29534190Y-14485400D01*
X29654196Y-14450308D01*
X29688340Y-14445631D01*
X29744579Y-14446318D01*
X29752871Y-14445552D01*
X30178256Y-14445552D01*
X30178256Y-14442186D01*
X30179093Y-14442309D01*
G37*
G36*
X62042240Y-11847018D02*
G01*
X62066523Y-11846255D01*
X62144421Y-11857758D01*
X62225511Y-11866281D01*
X62248746Y-11873164D01*
X62269783Y-11876270D01*
X62347281Y-11902351D01*
X62428338Y-11926361D01*
X62447232Y-11935988D01*
X62464517Y-11941805D01*
X62538826Y-11982657D01*
X62616821Y-12022398D01*
X62631247Y-12033467D01*
X62644561Y-12040787D01*
X62712810Y-12096053D01*
X62784646Y-12151175D01*
X62794781Y-12162431D01*
X62804238Y-12170089D01*
X62863628Y-12238894D01*
X62926193Y-12308379D01*
X62932525Y-12318712D01*
X62938493Y-12325626D01*
X62986322Y-12406500D01*
X63036722Y-12488745D01*
X63039978Y-12497227D01*
X63043084Y-12502479D01*
X63076959Y-12593567D01*
X63112531Y-12686234D01*
X63113633Y-12692178D01*
X63114700Y-12695048D01*
X63132497Y-12793960D01*
X63151081Y-12894231D01*
X63143968Y-13165867D01*
X63120159Y-13265038D01*
X63097214Y-13362864D01*
X63095999Y-13365671D01*
X63094585Y-13371562D01*
X63054163Y-13462352D01*
X63015613Y-13551436D01*
X63012237Y-13556517D01*
X63008544Y-13564812D01*
X62953925Y-13644283D01*
X62901911Y-13722570D01*
X62895589Y-13729162D01*
X62888727Y-13739147D01*
X62822616Y-13805258D01*
X62759704Y-13870862D01*
X62749860Y-13878014D01*
X62739147Y-13888727D01*
X62664537Y-13940005D01*
X62593480Y-13991631D01*
X62579795Y-13998247D01*
X62564812Y-14008544D01*
X62484825Y-14044157D01*
X62408493Y-14081057D01*
X62390937Y-14085959D01*
X62371562Y-14094585D01*
X62289347Y-14114323D01*
X62210602Y-14136309D01*
X62189435Y-14138310D01*
X62165867Y-14143968D01*
X62084420Y-14148236D01*
X62006054Y-14155644D01*
X61981852Y-14153612D01*
X61954618Y-14155039D01*
X61876725Y-14144784D01*
X61801308Y-14138451D01*
X61774922Y-14131381D01*
X61744889Y-14127427D01*
X61673044Y-14104083D01*
X61602843Y-14085273D01*
X61575382Y-14072351D01*
X61543704Y-14062058D01*
X61479966Y-14027451D01*
X61416937Y-13997792D01*
X61389732Y-13978459D01*
X61357800Y-13961121D01*
X61303773Y-13917371D01*
X61249459Y-13878772D01*
X61223990Y-13852764D01*
X61193403Y-13827995D01*
X61150210Y-13777422D01*
X61105705Y-13731975D01*
X61083543Y-13699364D01*
X61056020Y-13667139D01*
X61024271Y-13612149D01*
X60990216Y-13562038D01*
X60972950Y-13523259D01*
X60950250Y-13483941D01*
X60930060Y-13426926D01*
X60906647Y-13374340D01*
X60895800Y-13330178D01*
X60879637Y-13284536D01*
X60870647Y-13227775D01*
X60857636Y-13174804D01*
X60854591Y-13126401D01*
X60846545Y-13075601D01*
X60847970Y-13021164D01*
X60844736Y-12969752D01*
X60850656Y-12918584D01*
X60852082Y-12864135D01*
X60862779Y-12813810D01*
X60868352Y-12765644D01*
X60884114Y-12713436D01*
X60896064Y-12657219D01*
X60914594Y-12612483D01*
X60927736Y-12568955D01*
X60953864Y-12517676D01*
X60977016Y-12461782D01*
X61001750Y-12423695D01*
X61021016Y-12385884D01*
X61057638Y-12337636D01*
X61092229Y-12284371D01*
X61121405Y-12253626D01*
X61145237Y-12222228D01*
X61192046Y-12179185D01*
X61237842Y-12130926D01*
X61269697Y-12107782D01*
X61296482Y-12083152D01*
X61352722Y-12047461D01*
X61408981Y-12006586D01*
X61441783Y-11990940D01*
X61469956Y-11973061D01*
X61534433Y-11946748D01*
X61599913Y-11915516D01*
X61632097Y-11906892D01*
X61660192Y-11895427D01*
X61731272Y-11880319D01*
X61804244Y-11860766D01*
X61834442Y-11858389D01*
X61861162Y-11852710D01*
X61936826Y-11850332D01*
X62015131Y-11844169D01*
X62042240Y-11847018D01*
G37*
G36*
X13042240Y-11847018D02*
G01*
X13066523Y-11846255D01*
X13144421Y-11857758D01*
X13225511Y-11866281D01*
X13248746Y-11873164D01*
X13269783Y-11876270D01*
X13347281Y-11902351D01*
X13428338Y-11926361D01*
X13447232Y-11935988D01*
X13464517Y-11941805D01*
X13538826Y-11982657D01*
X13616821Y-12022398D01*
X13631247Y-12033467D01*
X13644561Y-12040787D01*
X13712810Y-12096053D01*
X13784646Y-12151175D01*
X13794781Y-12162431D01*
X13804238Y-12170089D01*
X13863628Y-12238894D01*
X13926193Y-12308379D01*
X13932525Y-12318712D01*
X13938493Y-12325626D01*
X13986322Y-12406500D01*
X14036722Y-12488745D01*
X14039978Y-12497227D01*
X14043084Y-12502479D01*
X14076959Y-12593567D01*
X14112531Y-12686234D01*
X14113633Y-12692178D01*
X14114700Y-12695048D01*
X14132497Y-12793960D01*
X14151081Y-12894231D01*
X14143968Y-13165867D01*
X14120159Y-13265038D01*
X14097214Y-13362864D01*
X14095999Y-13365671D01*
X14094585Y-13371562D01*
X14054163Y-13462352D01*
X14015613Y-13551436D01*
X14012237Y-13556517D01*
X14008544Y-13564812D01*
X13953925Y-13644283D01*
X13901911Y-13722570D01*
X13895589Y-13729162D01*
X13888727Y-13739147D01*
X13822616Y-13805258D01*
X13759704Y-13870862D01*
X13749860Y-13878014D01*
X13739147Y-13888727D01*
X13664537Y-13940005D01*
X13593480Y-13991631D01*
X13579795Y-13998247D01*
X13564812Y-14008544D01*
X13484825Y-14044157D01*
X13408493Y-14081057D01*
X13390937Y-14085959D01*
X13371562Y-14094585D01*
X13289347Y-14114323D01*
X13210602Y-14136309D01*
X13189435Y-14138310D01*
X13165867Y-14143968D01*
X13084420Y-14148236D01*
X13006054Y-14155644D01*
X12981852Y-14153612D01*
X12954618Y-14155039D01*
X12876725Y-14144784D01*
X12801308Y-14138451D01*
X12774922Y-14131381D01*
X12744889Y-14127427D01*
X12673044Y-14104083D01*
X12602843Y-14085273D01*
X12575382Y-14072351D01*
X12543704Y-14062058D01*
X12479966Y-14027451D01*
X12416937Y-13997792D01*
X12389732Y-13978459D01*
X12357800Y-13961121D01*
X12303773Y-13917371D01*
X12249459Y-13878772D01*
X12223990Y-13852764D01*
X12193403Y-13827995D01*
X12150210Y-13777422D01*
X12105705Y-13731975D01*
X12083543Y-13699364D01*
X12056020Y-13667139D01*
X12024271Y-13612149D01*
X11990216Y-13562038D01*
X11972950Y-13523259D01*
X11950250Y-13483941D01*
X11930060Y-13426926D01*
X11906647Y-13374340D01*
X11895800Y-13330178D01*
X11879637Y-13284536D01*
X11870647Y-13227775D01*
X11857636Y-13174804D01*
X11854591Y-13126401D01*
X11846545Y-13075601D01*
X11847970Y-13021164D01*
X11844736Y-12969752D01*
X11850656Y-12918584D01*
X11852082Y-12864135D01*
X11862779Y-12813810D01*
X11868352Y-12765644D01*
X11884114Y-12713436D01*
X11896064Y-12657219D01*
X11914594Y-12612483D01*
X11927736Y-12568955D01*
X11953864Y-12517676D01*
X11977016Y-12461782D01*
X12001750Y-12423695D01*
X12021016Y-12385884D01*
X12057638Y-12337636D01*
X12092229Y-12284371D01*
X12121405Y-12253626D01*
X12145237Y-12222228D01*
X12192046Y-12179185D01*
X12237842Y-12130926D01*
X12269697Y-12107782D01*
X12296482Y-12083152D01*
X12352722Y-12047461D01*
X12408981Y-12006586D01*
X12441783Y-11990940D01*
X12469956Y-11973061D01*
X12534433Y-11946748D01*
X12599913Y-11915516D01*
X12632097Y-11906892D01*
X12660192Y-11895427D01*
X12731272Y-11880319D01*
X12804244Y-11860766D01*
X12834442Y-11858389D01*
X12861162Y-11852710D01*
X12936826Y-11850332D01*
X13015131Y-11844169D01*
X13042240Y-11847018D01*
G37*
M02*
