M48
; DRILL file {KiCad 5.99.0-unknown-38f13ef~100~ubuntu18.04.1} date Mon 03 Feb 2020 12:08:39 PM PST
; FORMAT={-:-/ absolute / inch / decimal}
; #@! TF.CreationDate,2020-02-03T12:08:39-08:00
; #@! TF.GenerationSoftware,Kicad,Pcbnew,5.99.0-unknown-38f13ef~100~ubuntu18.04.1
FMAT,2
INCH
T1C0.0157
T2C0.0177
T3C0.0394
T4C0.0866
%
G90
G05
T1
X0.4823Y-2.4213
X0.5118Y-3.2185
X0.5906Y-2.5689
X0.6791Y-0.748
X0.689Y-0.9843
X0.689Y-2.3622
X0.7579Y-2.8445
X0.7677Y-2.4016
X0.7874Y-3.3071
X0.8071Y-2.3228
X0.8465Y-1.2795
X0.8661Y-0.5413
X0.8661Y-2.0177
X0.8661Y-2.0866
X0.8661Y-2.2638
X0.8847Y-1.0365
X0.9055Y-3.3071
X0.935Y-1.5059
X0.9449Y-1.3438
X0.9646Y-1.1024
X0.9646Y-2.2441
X0.9744Y-2.7657
X0.9843Y-0.5413
X0.9843Y-0.9547
X0.9843Y-1.2197
X0.9941Y-1.5945
X0.9941Y-1.7618
X1.0138Y-2.4016
X1.0335Y-0.5413
X1.0335Y-1.3583
X1.0335Y-2.874
X1.0433Y-2.5886
X1.0624Y-2.1844
X1.063Y-2.0472
X1.0827Y-1.0925
X1.1024Y-3.3071
X1.122Y-0.5315
X1.1417Y-1.0925
X1.1418Y-1.437
X1.1713Y-2.5689
X1.1811Y-0.5315
X1.1816Y-2.0768
X1.1909Y-2.874
X1.2008Y-1.1811
X1.2205Y-3.3071
X1.2303Y-2.0768
X1.2402Y-1.31
X1.2598Y-0.5315
X1.2598Y-0.8366
X1.2598Y-1.0925
X1.2608Y-1.471
X1.2894Y-1.437
X1.2992Y-2.5984
X1.3189Y-1.6339
X1.3189Y-2.1457
X1.3189Y-2.3622
X1.3287Y-1.0925
X1.3386Y-3.3071
X1.3386Y-1.1888
X1.3386Y-1.8307
X1.3386Y-2.874
X1.3551Y-2.0447
X1.3681Y-0.7776
X1.378Y-2.0768
X1.378Y-2.2343
X1.3976Y-0.4724
X1.4354Y-1.8323
X1.437Y-1.5157
X1.4567Y-3.3071
X1.4665Y-1.7224
X1.4764Y-2.5591
X1.4943Y-1.3581
X1.5059Y-1.4469
X1.5059Y-2.0669
X1.5128Y-1.1834
X1.5354Y-0.4724
X1.5453Y-0.689
X1.5541Y-1.0832
X1.6142Y-1.1909
X1.6142Y-2.6772
X1.624Y-3.0413
X1.6437Y-1.8799
X1.6437Y-2.2835
X1.6515Y-1.3406
X1.6535Y-1.2205
X1.6831Y-1.2598
X1.6929Y-1.1024
X1.6929Y-3.4547
X1.7028Y-0.8661
X1.7028Y-2.4508
X1.7033Y-1.1806
X1.7155Y-1.3239
X1.7421Y-0.8957
X1.7421Y-1.0039
X1.752Y-0.4724
X1.7717Y-2.3386
X1.781Y-0.9247
X1.811Y-1.3878
X1.811Y-1.4272
X1.811Y-1.4665
X1.811Y-1.5157
X1.811Y-1.565
X1.811Y-1.6142
X1.811Y-1.6634
X1.8504Y-1.0236
X1.8504Y-1.8504
X1.8504Y-2.0374
X1.8504Y-2.2441
X1.8701Y-2.6378
X1.8898Y-3.0217
X1.9193Y-1.2894
X1.9587Y-1.9094
X1.9587Y-2.0276
X1.9783Y-0.9843
X1.998Y-0.9055
X1.998Y-1.0531
X2.0079Y-1.3189
X2.0079Y-1.7224
X2.0276Y-1.5157
X2.0472Y-2.4606
X2.0472Y-3.4547
X2.1358Y-1.3681
X2.1457Y-1.5551
X2.1457Y-2.8642
X2.1555Y-2.6673
X2.1791Y-1.4595
X2.2047Y-0.4921
X2.2047Y-1.6929
X2.2146Y-1.3583
X2.2146Y-1.8209
X2.2146Y-3.061
X2.2146Y-1.4861
X2.2539Y-0.9744
X2.2539Y-1.1909
X2.2539Y-1.378
X2.2638Y-1.5354
X2.2638Y-1.5846
X2.2835Y-2.0571
X2.3031Y-1.6535
X2.3031Y-1.9488
X2.3425Y-1.6929
X2.372Y-0.7185
X2.3917Y-1.3287
X2.4508Y-1.5157
X2.4508Y-2.0669
X2.4705Y-0.9941
X2.4705Y-2.5689
X2.4705Y-3.061
T3
X2.4409Y-2.2835
X2.4409Y-2.3835
T4
X2.4409Y-3.4252
X0.5118Y-3.4252
X2.4409Y-0.5118
X0.5118Y-0.5118
T2
G00X2.4843Y-1.6309
M15
G01X2.5157Y-1.6309
M16
G05
G00X2.5157Y-1.9124
M15
G01X2.4843Y-1.9124
M16
G05
T0
M30
