%TF.GenerationSoftware,KiCad,Pcbnew,(2017-11-19 revision 8b2b138)-master*%
%TF.CreationDate,2018-01-29T21:55:45-08:00*%
%TF.ProjectId,lora_nodemcu,6C6F72615F6E6F64656D63752E6B6963,rev?*%
%TF.SameCoordinates,Original*%
%TF.FileFunction,Copper,L1,Top,Signal*%
%TF.FilePolarity,Positive*%
%FSLAX46Y46*%
G04 Gerber Fmt 4.6, Leading zero omitted, Abs format (unit mm)*
G04 Created by KiCad (PCBNEW (2017-11-19 revision 8b2b138)-master) date Monday, January 29, 2018 'PMt' 09:55:45 PM*
%MOMM*%
%LPD*%
G01*
G04 APERTURE LIST*
%TA.AperFunction,ComponentPad*%
%ADD10C,1.800000*%
%TD*%
%TA.AperFunction,SMDPad,CuDef*%
%ADD11R,2.290000X5.080000*%
%TD*%
%TA.AperFunction,SMDPad,CuDef*%
%ADD12R,2.420000X5.080000*%
%TD*%
%TA.AperFunction,ViaPad*%
%ADD13C,0.970000*%
%TD*%
%TA.AperFunction,Conductor*%
%ADD14R,0.460000X0.890000*%
%TD*%
%TA.AperFunction,SMDPad,CuDef*%
%ADD15R,1.600000X3.000000*%
%TD*%
%TA.AperFunction,SMDPad,CuDef*%
%ADD16R,2.000000X3.800000*%
%TD*%
%TA.AperFunction,SMDPad,CuDef*%
%ADD17R,2.000000X1.500000*%
%TD*%
%TA.AperFunction,ViaPad*%
%ADD18C,0.600000*%
%TD*%
%TA.AperFunction,ViaPad*%
%ADD19C,0.800000*%
%TD*%
%TA.AperFunction,Conductor*%
%ADD20C,0.250000*%
%TD*%
%TA.AperFunction,Conductor*%
%ADD21C,0.500000*%
%TD*%
%TA.AperFunction,Conductor*%
%ADD22C,0.335589*%
%TD*%
%TA.AperFunction,Conductor*%
%ADD23C,0.254000*%
%TD*%
G04 APERTURE END LIST*
D10*
%TO.P,U3,8*%
%TO.N,Net-(U3-Pad8)*%
X137236200Y-76962000D03*
%TO.P,U3,7*%
%TO.N,Net-(U3-Pad7)*%
X137236200Y-79502000D03*
%TO.P,U3,6*%
%TO.N,Net-(R2-Pad1)*%
X137236200Y-82042000D03*
%TO.P,U3,5*%
%TO.N,Net-(R1-Pad1)*%
X137236200Y-84582000D03*
%TO.P,U3,4*%
%TO.N,Net-(U3-Pad4)*%
X137236200Y-87122000D03*
%TO.P,U3,3*%
%TO.N,Net-(U3-Pad3)*%
X137236200Y-89662000D03*
%TO.P,U3,2*%
%TO.N,GND*%
X137236200Y-92202000D03*
%TO.P,U3,1*%
%TO.N,/wemos_5V*%
X137236200Y-94742000D03*
%TO.P,U3,16*%
%TO.N,Net-(C5-Pad2)*%
X160096200Y-94742000D03*
%TO.P,U3,15*%
%TO.N,/SS*%
X160096200Y-92202000D03*
%TO.P,U3,14*%
%TO.N,/MOSI*%
X160096200Y-89662000D03*
%TO.P,U3,13*%
%TO.N,/MISO*%
X160096200Y-87122000D03*
%TO.P,U3,12*%
%TO.N,/SCK*%
X160096200Y-84582000D03*
%TO.P,U3,11*%
%TO.N,Net-(U3-Pad11)*%
X160096200Y-82042000D03*
%TO.P,U3,10*%
%TO.N,Net-(U3-Pad10)*%
X160096200Y-79502000D03*
%TO.P,U3,9*%
%TO.N,Net-(U3-Pad9)*%
X160096200Y-76962000D03*
%TD*%
D11*
%TO.P,AE1,1*%
%TO.N,/50Ohm*%
X142000000Y-105020000D03*
D12*
%TO.P,AE1,2*%
%TO.N,GND*%
X137620000Y-105020000D03*
X146380000Y-105020000D03*
D13*
%TD*%
%TO.N,GND*%
%TO.C,AE1*%
X137620000Y-101580000D03*
%TO.N,GND*%
%TO.C,AE1*%
X146380000Y-101580000D03*
D14*
X137620000Y-102030000D03*
X146380000Y-102030000D03*
%TD*%
D15*
%TO.P,U1,16*%
%TO.N,Net-(U1-Pad16)*%
X155513800Y-94609200D03*
%TO.P,U1,1*%
%TO.N,GND*%
X155513800Y-78009200D03*
%TO.P,U1,15*%
%TO.N,Net-(U1-Pad15)*%
X153513800Y-94609200D03*
%TO.P,U1,2*%
%TO.N,Net-(R5-Pad2)*%
X153513800Y-78009200D03*
%TO.P,U1,14*%
%TO.N,Net-(R1-Pad2)*%
X151513800Y-94609200D03*
%TO.P,U1,3*%
%TO.N,Net-(R6-Pad2)*%
X151513800Y-78009200D03*
%TO.P,U1,13*%
%TO.N,/RF95_3V3*%
X149513800Y-94609200D03*
%TO.P,U1,4*%
%TO.N,Net-(R4-Pad2)*%
X149513800Y-78009200D03*
%TO.P,U1,12*%
%TO.N,Net-(U1-Pad12)*%
X147513800Y-94609200D03*
%TO.P,U1,5*%
%TO.N,Net-(R3-Pad2)*%
X147513800Y-78009200D03*
%TO.P,U1,11*%
%TO.N,Net-(U1-Pad11)*%
X145513800Y-94609200D03*
%TO.P,U1,6*%
%TO.N,Net-(R2-Pad2)*%
X145513800Y-78009200D03*
%TO.P,U1,10*%
%TO.N,GND*%
X143513800Y-94609200D03*
%TO.P,U1,7*%
%TO.N,Net-(U1-Pad7)*%
X143513800Y-78009200D03*
%TO.P,U1,9*%
%TO.N,/50Ohm*%
X141513800Y-94609200D03*
%TO.P,U1,8*%
%TO.N,GND*%
X141513800Y-78009200D03*
%TD*%
D16*
%TO.P,U2,4*%
%TO.N,+3V3*%
X158140800Y-104013000D03*
D17*
%TO.P,U2,2*%
X151840800Y-104013000D03*
%TO.P,U2,3*%
%TO.N,+5V*%
X151840800Y-106313000D03*
%TO.P,U2,1*%
%TO.N,GND*%
X151840800Y-101713000D03*
%TD*%
D18*
%TO.N,Net-(R1-Pad2)*%
X149900000Y-90900000D03*
%TO.N,Net-(R2-Pad2)*%
X145594409Y-80499601D03*
X145594409Y-80499601D03*
%TO.N,/SS*%
X160096200Y-92202000D03*
%TO.N,Net-(R3-Pad2)*%
X148000000Y-80600000D03*
%TO.N,/SCK*%
X157900000Y-85500000D03*
%TO.N,Net-(R4-Pad2)*%
X149670978Y-81036697D03*
%TO.N,Net-(R5-Pad2)*%
X153100000Y-80400000D03*
%TO.N,Net-(R6-Pad2)*%
X151045786Y-85723543D03*
D19*
%TO.N,GND*%
X144700000Y-88400000D03*
X138950000Y-76450000D03*
X157950000Y-76450000D03*
X160250000Y-106450000D03*
X148650000Y-106550000D03*
X150000000Y-99750000D03*
X143500000Y-92100000D03*
D18*
X144000000Y-98750000D03*
X139000000Y-97500000D03*
X139000000Y-96000000D03*
X139000000Y-100500000D03*
X144000000Y-100000000D03*
X139000000Y-99000000D03*
D19*
X143500000Y-97000000D03*
X155500000Y-80500000D03*
X141500000Y-80750000D03*
X153750000Y-101500000D03*
X148400000Y-97475000D03*
X151800000Y-99775000D03*
X153025000Y-100050000D03*
X145304999Y-101095001D03*
X137600000Y-100000000D03*
%TO.N,+3V3*%
X153850000Y-104125000D03*
%TO.N,+5V*%
X150000000Y-106300000D03*
%TO.N,/RF95_3V3*%
X151150000Y-96900000D03*
%TD*%
D20*
%TO.N,Net-(R1-Pad2)*%
X149900000Y-90900000D02*
X151513800Y-92513800D01*
X151513800Y-92513800D02*
X151513800Y-94609200D01*
%TO.N,Net-(R2-Pad2)*%
X145513800Y-78009200D02*
X145513800Y-80418992D01*
X145513800Y-80418992D02*
X145594409Y-80499601D01*
%TO.N,/SS*%
X159494200Y-91600000D02*
X160096200Y-92202000D01*
%TO.N,Net-(R3-Pad2)*%
X148000000Y-80600000D02*
X147513800Y-80113800D01*
X147513800Y-80113800D02*
X147513800Y-78009200D01*
%TO.N,/SCK*%
X157900000Y-85500000D02*
X158818000Y-84582000D01*
X158818000Y-84582000D02*
X160096200Y-84582000D01*
%TO.N,Net-(R4-Pad2)*%
X149670978Y-81036697D02*
X149670978Y-78166378D01*
X149670978Y-78166378D02*
X149513800Y-78009200D01*
%TO.N,Net-(R5-Pad2)*%
X153100000Y-80400000D02*
X153513800Y-79986200D01*
X153513800Y-79986200D02*
X153513800Y-78009200D01*
%TO.N,Net-(R6-Pad2)*%
X151045786Y-85723543D02*
X151045786Y-78477214D01*
X151045786Y-78477214D02*
X151513800Y-78009200D01*
D21*
%TO.N,GND*%
X143513800Y-94609200D02*
X143513800Y-92113800D01*
X143513800Y-92113800D02*
X143500000Y-92100000D01*
X143513800Y-94609200D02*
X143513800Y-96986200D01*
X143513800Y-96986200D02*
X143500000Y-97000000D01*
X155513800Y-78009200D02*
X155513800Y-80486200D01*
X155513800Y-80486200D02*
X155500000Y-80500000D01*
X141513800Y-78009200D02*
X141513800Y-80736200D01*
X141513800Y-80736200D02*
X141500000Y-80750000D01*
X151840800Y-99559200D02*
X151840800Y-99734200D01*
X151840800Y-99734200D02*
X151800000Y-99775000D01*
X151840800Y-101713000D02*
X151840800Y-99559200D01*
X137600000Y-100874107D02*
X137600000Y-100000000D01*
X137620000Y-101580000D02*
X137620000Y-100894107D01*
X137620000Y-100894107D02*
X137600000Y-100874107D01*
%TO.N,+3V3*%
X158140800Y-104013000D02*
X153962000Y-104013000D01*
X153962000Y-104013000D02*
X153850000Y-104125000D01*
X151840800Y-104013000D02*
X153738000Y-104013000D01*
X153738000Y-104013000D02*
X153850000Y-104125000D01*
%TO.N,+5V*%
X151840800Y-106313000D02*
X150013000Y-106313000D01*
X150013000Y-106313000D02*
X150000000Y-106300000D01*
D22*
%TO.N,/50Ohm*%
X141513800Y-94609200D02*
X141513800Y-104533800D01*
D20*
X141513800Y-104533800D02*
X142000000Y-105020000D01*
D21*
%TO.N,/RF95_3V3*%
X149513800Y-96609200D02*
X149513800Y-94609200D01*
X149804600Y-96900000D02*
X149513800Y-96609200D01*
X151150000Y-96900000D02*
X149804600Y-96900000D01*
%TD*%
D23*
%TO.N,GND*%
G36*
X137735000Y-102951250D02*
X137747000Y-102963250D01*
X137747000Y-104893000D01*
X138873000Y-104893000D01*
X138873000Y-105147000D01*
X137747000Y-105147000D01*
X137747000Y-107519400D01*
X137493000Y-107519400D01*
X137493000Y-105147000D01*
X136198928Y-105147000D01*
X136198241Y-104893000D01*
X137493000Y-104893000D01*
X137493000Y-102963250D01*
X137505000Y-102951250D01*
X137505000Y-102711238D01*
X137735000Y-102694608D01*
X137735000Y-102951250D01*
X137735000Y-102951250D01*
G37*
X137735000Y-102951250D02*
X137747000Y-102963250D01*
X137747000Y-104893000D01*
X138873000Y-104893000D01*
X138873000Y-105147000D01*
X137747000Y-105147000D01*
X137747000Y-107519400D01*
X137493000Y-107519400D01*
X137493000Y-105147000D01*
X136198928Y-105147000D01*
X136198241Y-104893000D01*
X137493000Y-104893000D01*
X137493000Y-102963250D01*
X137505000Y-102951250D01*
X137505000Y-102711238D01*
X137735000Y-102694608D01*
X137735000Y-102951250D01*
G36*
X161215000Y-76456628D02*
X161137006Y-76267869D01*
X160792147Y-75922407D01*
X160341336Y-75735214D01*
X159853205Y-75734788D01*
X159402069Y-75921194D01*
X159056607Y-76266053D01*
X158869414Y-76716864D01*
X158868988Y-77204995D01*
X159055394Y-77656131D01*
X159400253Y-78001593D01*
X159851064Y-78188786D01*
X160339195Y-78189212D01*
X160790331Y-78002806D01*
X161135793Y-77657947D01*
X161215000Y-77467195D01*
X161215000Y-78996628D01*
X161137006Y-78807869D01*
X160792147Y-78462407D01*
X160341336Y-78275214D01*
X159853205Y-78274788D01*
X159402069Y-78461194D01*
X159056607Y-78806053D01*
X158869414Y-79256864D01*
X158868988Y-79744995D01*
X159055394Y-80196131D01*
X159400253Y-80541593D01*
X159851064Y-80728786D01*
X160339195Y-80729212D01*
X160790331Y-80542806D01*
X161135793Y-80197947D01*
X161215000Y-80007195D01*
X161215000Y-81536628D01*
X161137006Y-81347869D01*
X160792147Y-81002407D01*
X160341336Y-80815214D01*
X159853205Y-80814788D01*
X159402069Y-81001194D01*
X159056607Y-81346053D01*
X158869414Y-81796864D01*
X158868988Y-82284995D01*
X159055394Y-82736131D01*
X159400253Y-83081593D01*
X159851064Y-83268786D01*
X160339195Y-83269212D01*
X160790331Y-83082806D01*
X161135793Y-82737947D01*
X161215000Y-82547195D01*
X161215000Y-84076628D01*
X161137006Y-83887869D01*
X160792147Y-83542407D01*
X160341336Y-83355214D01*
X159853205Y-83354788D01*
X159402069Y-83541194D01*
X159056607Y-83886053D01*
X158955311Y-84130000D01*
X158818000Y-84130000D01*
X158645027Y-84164406D01*
X158498388Y-84262388D01*
X157887787Y-84872989D01*
X157775829Y-84872891D01*
X157545297Y-84968145D01*
X157368765Y-85144369D01*
X157273109Y-85374735D01*
X157272891Y-85624171D01*
X157368145Y-85854703D01*
X157544369Y-86031235D01*
X157774735Y-86126891D01*
X158024171Y-86127109D01*
X158254703Y-86031855D01*
X158431235Y-85855631D01*
X158526891Y-85625265D01*
X158526990Y-85512234D01*
X158969930Y-85069294D01*
X159055394Y-85276131D01*
X159400253Y-85621593D01*
X159851064Y-85808786D01*
X160339195Y-85809212D01*
X160790331Y-85622806D01*
X161135793Y-85277947D01*
X161215000Y-85087195D01*
X161215000Y-86616628D01*
X161137006Y-86427869D01*
X160792147Y-86082407D01*
X160341336Y-85895214D01*
X159853205Y-85894788D01*
X159402069Y-86081194D01*
X159056607Y-86426053D01*
X158869414Y-86876864D01*
X158868988Y-87364995D01*
X159055394Y-87816131D01*
X159400253Y-88161593D01*
X159851064Y-88348786D01*
X160339195Y-88349212D01*
X160790331Y-88162806D01*
X161135793Y-87817947D01*
X161215000Y-87627195D01*
X161215000Y-89156628D01*
X161137006Y-88967869D01*
X160792147Y-88622407D01*
X160341336Y-88435214D01*
X159853205Y-88434788D01*
X159402069Y-88621194D01*
X159056607Y-88966053D01*
X158869414Y-89416864D01*
X158868988Y-89904995D01*
X159055394Y-90356131D01*
X159400253Y-90701593D01*
X159851064Y-90888786D01*
X160339195Y-90889212D01*
X160790331Y-90702806D01*
X161135793Y-90357947D01*
X161215000Y-90167195D01*
X161215000Y-91696628D01*
X161137006Y-91507869D01*
X160792147Y-91162407D01*
X160341336Y-90975214D01*
X159853205Y-90974788D01*
X159402069Y-91161194D01*
X159395649Y-91167603D01*
X159321227Y-91182406D01*
X159174588Y-91280388D01*
X159076606Y-91427027D01*
X159061947Y-91500722D01*
X159056607Y-91506053D01*
X158869414Y-91956864D01*
X158868988Y-92444995D01*
X159055394Y-92896131D01*
X159400253Y-93241593D01*
X159851064Y-93428786D01*
X160339195Y-93429212D01*
X160790331Y-93242806D01*
X161135793Y-92897947D01*
X161215000Y-92707195D01*
X161215000Y-94236628D01*
X161137006Y-94047869D01*
X160792147Y-93702407D01*
X160341336Y-93515214D01*
X159853205Y-93514788D01*
X159402069Y-93701194D01*
X159056607Y-94046053D01*
X158869414Y-94496864D01*
X158868988Y-94984995D01*
X159055394Y-95436131D01*
X159400253Y-95781593D01*
X159851064Y-95968786D01*
X160339195Y-95969212D01*
X160790331Y-95782806D01*
X161135793Y-95437947D01*
X161215000Y-95247195D01*
X161215000Y-107519400D01*
X148225000Y-107519400D01*
X148225000Y-106443975D01*
X149272874Y-106443975D01*
X149383320Y-106711275D01*
X149587650Y-106915961D01*
X149854756Y-107026874D01*
X150143975Y-107027126D01*
X150411275Y-106916680D01*
X150438001Y-106890000D01*
X150507394Y-106890000D01*
X150507394Y-107063000D01*
X150532773Y-107190589D01*
X150605046Y-107298754D01*
X150713211Y-107371027D01*
X150840800Y-107396406D01*
X152840800Y-107396406D01*
X152968389Y-107371027D01*
X153076554Y-107298754D01*
X153148827Y-107190589D01*
X153174206Y-107063000D01*
X153174206Y-105563000D01*
X153148827Y-105435411D01*
X153076554Y-105327246D01*
X152968389Y-105254973D01*
X152840800Y-105229594D01*
X150840800Y-105229594D01*
X150713211Y-105254973D01*
X150605046Y-105327246D01*
X150532773Y-105435411D01*
X150507394Y-105563000D01*
X150507394Y-105736000D01*
X150464221Y-105736000D01*
X150412350Y-105684039D01*
X150145244Y-105573126D01*
X149856025Y-105572874D01*
X149588725Y-105683320D01*
X149384039Y-105887650D01*
X149273126Y-106154756D01*
X149272874Y-106443975D01*
X148225000Y-106443975D01*
X148225000Y-105305750D01*
X148066250Y-105147000D01*
X146507000Y-105147000D01*
X146507000Y-107519400D01*
X146253000Y-107519400D01*
X146253000Y-105147000D01*
X145327000Y-105147000D01*
X145327000Y-104893000D01*
X146253000Y-104893000D01*
X146253000Y-102963250D01*
X146265000Y-102951250D01*
X146265000Y-102711238D01*
X146495000Y-102694608D01*
X146495000Y-102951250D01*
X146507000Y-102963250D01*
X146507000Y-104893000D01*
X148066250Y-104893000D01*
X148225000Y-104734250D01*
X148225000Y-102353691D01*
X148128327Y-102120302D01*
X148006776Y-101998750D01*
X150205800Y-101998750D01*
X150205800Y-102589310D01*
X150302473Y-102822699D01*
X150481102Y-103001327D01*
X150591743Y-103047156D01*
X150532773Y-103135411D01*
X150507394Y-103263000D01*
X150507394Y-104763000D01*
X150532773Y-104890589D01*
X150605046Y-104998754D01*
X150713211Y-105071027D01*
X150840800Y-105096406D01*
X152840800Y-105096406D01*
X152968389Y-105071027D01*
X153076554Y-104998754D01*
X153148827Y-104890589D01*
X153174206Y-104763000D01*
X153174206Y-104590000D01*
X153286952Y-104590000D01*
X153437650Y-104740961D01*
X153704756Y-104851874D01*
X153993975Y-104852126D01*
X154261275Y-104741680D01*
X154413219Y-104590000D01*
X156807394Y-104590000D01*
X156807394Y-105913000D01*
X156832773Y-106040589D01*
X156905046Y-106148754D01*
X157013211Y-106221027D01*
X157140800Y-106246406D01*
X159140800Y-106246406D01*
X159268389Y-106221027D01*
X159376554Y-106148754D01*
X159448827Y-106040589D01*
X159474206Y-105913000D01*
X159474206Y-102113000D01*
X159448827Y-101985411D01*
X159376554Y-101877246D01*
X159268389Y-101804973D01*
X159140800Y-101779594D01*
X157140800Y-101779594D01*
X157013211Y-101804973D01*
X156905046Y-101877246D01*
X156832773Y-101985411D01*
X156807394Y-102113000D01*
X156807394Y-103436000D01*
X154086454Y-103436000D01*
X153995244Y-103398126D01*
X153706025Y-103397874D01*
X153613753Y-103436000D01*
X153174206Y-103436000D01*
X153174206Y-103263000D01*
X153148827Y-103135411D01*
X153089857Y-103047156D01*
X153200498Y-103001327D01*
X153379127Y-102822699D01*
X153475800Y-102589310D01*
X153475800Y-101998750D01*
X153317050Y-101840000D01*
X151967800Y-101840000D01*
X151967800Y-102929594D01*
X151713800Y-102929594D01*
X151713800Y-101840000D01*
X150364550Y-101840000D01*
X150205800Y-101998750D01*
X148006776Y-101998750D01*
X147949699Y-101941673D01*
X147716310Y-101845000D01*
X147472129Y-101845000D01*
X147513149Y-101721436D01*
X147481018Y-101277032D01*
X147372768Y-101015692D01*
X147159200Y-100980405D01*
X147031315Y-101108290D01*
X146969699Y-101046673D01*
X146802838Y-100977557D01*
X146943705Y-100836690D01*
X150205800Y-100836690D01*
X150205800Y-101427250D01*
X150364550Y-101586000D01*
X151713800Y-101586000D01*
X151713800Y-100486750D01*
X151967800Y-100486750D01*
X151967800Y-101586000D01*
X153317050Y-101586000D01*
X153475800Y-101427250D01*
X153475800Y-100836690D01*
X153379127Y-100603301D01*
X153200498Y-100424673D01*
X152967109Y-100328000D01*
X152126550Y-100328000D01*
X151967800Y-100486750D01*
X151713800Y-100486750D01*
X151555050Y-100328000D01*
X150714491Y-100328000D01*
X150481102Y-100424673D01*
X150302473Y-100603301D01*
X150205800Y-100836690D01*
X146943705Y-100836690D01*
X146979595Y-100800800D01*
X146944308Y-100587232D01*
X146521436Y-100446851D01*
X146077032Y-100478982D01*
X145815692Y-100587232D01*
X145780405Y-100800800D01*
X145957162Y-100977557D01*
X145790301Y-101046673D01*
X145728685Y-101108290D01*
X145600800Y-100980405D01*
X145387232Y-101015692D01*
X145246851Y-101438564D01*
X145276237Y-101845000D01*
X145043690Y-101845000D01*
X144810301Y-101941673D01*
X144631673Y-102120302D01*
X144609845Y-102173000D01*
X143274126Y-102173000D01*
X143272589Y-102171973D01*
X143145000Y-102146594D01*
X142008594Y-102146594D01*
X142008594Y-96442606D01*
X142164582Y-96442606D01*
X142175473Y-96468899D01*
X142354102Y-96647527D01*
X142587491Y-96744200D01*
X143228050Y-96744200D01*
X143386800Y-96585450D01*
X143386800Y-94736200D01*
X142647206Y-94736200D01*
X142647206Y-94482200D01*
X143386800Y-94482200D01*
X143386800Y-92632950D01*
X143640800Y-92632950D01*
X143640800Y-94482200D01*
X144380394Y-94482200D01*
X144380394Y-94736200D01*
X143640800Y-94736200D01*
X143640800Y-96585450D01*
X143799550Y-96744200D01*
X144440109Y-96744200D01*
X144673498Y-96647527D01*
X144852127Y-96468899D01*
X144863018Y-96442606D01*
X146313800Y-96442606D01*
X146441389Y-96417227D01*
X146513800Y-96368844D01*
X146586211Y-96417227D01*
X146713800Y-96442606D01*
X148313800Y-96442606D01*
X148441389Y-96417227D01*
X148513800Y-96368844D01*
X148586211Y-96417227D01*
X148713800Y-96442606D01*
X148936800Y-96442606D01*
X148936800Y-96609195D01*
X148936799Y-96609200D01*
X148980722Y-96830008D01*
X149105799Y-97017201D01*
X149396597Y-97307998D01*
X149396599Y-97308001D01*
X149583792Y-97433078D01*
X149804600Y-97477000D01*
X150698757Y-97477000D01*
X150737650Y-97515961D01*
X151004756Y-97626874D01*
X151293975Y-97627126D01*
X151561275Y-97516680D01*
X151765961Y-97312350D01*
X151876874Y-97045244D01*
X151877126Y-96756025D01*
X151766680Y-96488725D01*
X151720641Y-96442606D01*
X152313800Y-96442606D01*
X152441389Y-96417227D01*
X152513800Y-96368844D01*
X152586211Y-96417227D01*
X152713800Y-96442606D01*
X154313800Y-96442606D01*
X154441389Y-96417227D01*
X154513800Y-96368844D01*
X154586211Y-96417227D01*
X154713800Y-96442606D01*
X156313800Y-96442606D01*
X156441389Y-96417227D01*
X156549554Y-96344954D01*
X156621827Y-96236789D01*
X156647206Y-96109200D01*
X156647206Y-93109200D01*
X156621827Y-92981611D01*
X156549554Y-92873446D01*
X156441389Y-92801173D01*
X156313800Y-92775794D01*
X154713800Y-92775794D01*
X154586211Y-92801173D01*
X154513800Y-92849556D01*
X154441389Y-92801173D01*
X154313800Y-92775794D01*
X152713800Y-92775794D01*
X152586211Y-92801173D01*
X152513800Y-92849556D01*
X152441389Y-92801173D01*
X152313800Y-92775794D01*
X151965800Y-92775794D01*
X151965800Y-92513800D01*
X151931394Y-92340827D01*
X151833412Y-92194188D01*
X150527011Y-90887787D01*
X150527109Y-90775829D01*
X150431855Y-90545297D01*
X150255631Y-90368765D01*
X150025265Y-90273109D01*
X149775829Y-90272891D01*
X149545297Y-90368145D01*
X149368765Y-90544369D01*
X149273109Y-90774735D01*
X149272891Y-91024171D01*
X149368145Y-91254703D01*
X149544369Y-91431235D01*
X149774735Y-91526891D01*
X149887766Y-91526990D01*
X151061800Y-92701024D01*
X151061800Y-92775794D01*
X150713800Y-92775794D01*
X150586211Y-92801173D01*
X150513800Y-92849556D01*
X150441389Y-92801173D01*
X150313800Y-92775794D01*
X148713800Y-92775794D01*
X148586211Y-92801173D01*
X148513800Y-92849556D01*
X148441389Y-92801173D01*
X148313800Y-92775794D01*
X146713800Y-92775794D01*
X146586211Y-92801173D01*
X146513800Y-92849556D01*
X146441389Y-92801173D01*
X146313800Y-92775794D01*
X144863018Y-92775794D01*
X144852127Y-92749501D01*
X144673498Y-92570873D01*
X144440109Y-92474200D01*
X143799550Y-92474200D01*
X143640800Y-92632950D01*
X143386800Y-92632950D01*
X143228050Y-92474200D01*
X142587491Y-92474200D01*
X142354102Y-92570873D01*
X142175473Y-92749501D01*
X142164582Y-92775794D01*
X140713800Y-92775794D01*
X140586211Y-92801173D01*
X140478046Y-92873446D01*
X140405773Y-92981611D01*
X140380394Y-93109200D01*
X140380394Y-96109200D01*
X140405773Y-96236789D01*
X140478046Y-96344954D01*
X140586211Y-96417227D01*
X140713800Y-96442606D01*
X141019006Y-96442606D01*
X141019006Y-102146594D01*
X140855000Y-102146594D01*
X140727411Y-102171973D01*
X140725874Y-102173000D01*
X139390155Y-102173000D01*
X139368327Y-102120302D01*
X139189699Y-101941673D01*
X138956310Y-101845000D01*
X138712129Y-101845000D01*
X138753149Y-101721436D01*
X138721018Y-101277032D01*
X138612768Y-101015692D01*
X138399200Y-100980405D01*
X138271315Y-101108290D01*
X138209699Y-101046673D01*
X138042838Y-100977557D01*
X138219595Y-100800800D01*
X138184308Y-100587232D01*
X137761436Y-100446851D01*
X137317032Y-100478982D01*
X137055692Y-100587232D01*
X137020405Y-100800800D01*
X137197162Y-100977557D01*
X137030301Y-101046673D01*
X136968685Y-101108290D01*
X136840800Y-100980405D01*
X136627232Y-101015692D01*
X136486851Y-101438564D01*
X136516237Y-101845000D01*
X136283690Y-101845000D01*
X136190103Y-101883765D01*
X136172517Y-95380764D01*
X136195394Y-95436131D01*
X136540253Y-95781593D01*
X136991064Y-95968786D01*
X137479195Y-95969212D01*
X137930331Y-95782806D01*
X138275793Y-95437947D01*
X138462986Y-94987136D01*
X138463412Y-94499005D01*
X138277006Y-94047869D01*
X137932147Y-93702407D01*
X137793738Y-93644935D01*
X138050348Y-93538643D01*
X138136754Y-93282159D01*
X137236200Y-92381605D01*
X136335646Y-93282159D01*
X136422052Y-93538643D01*
X136694359Y-93638269D01*
X136542069Y-93701194D01*
X136196607Y-94046053D01*
X136169087Y-94112329D01*
X136166328Y-93092267D01*
X137056595Y-92202000D01*
X137415805Y-92202000D01*
X138316359Y-93102554D01*
X138572843Y-93016148D01*
X138782658Y-92442664D01*
X138757039Y-91832540D01*
X138572843Y-91387852D01*
X138316359Y-91301446D01*
X137415805Y-92202000D01*
X137056595Y-92202000D01*
X136161500Y-91306905D01*
X136158689Y-90267297D01*
X136195394Y-90356131D01*
X136540253Y-90701593D01*
X136678662Y-90759065D01*
X136422052Y-90865357D01*
X136335646Y-91121841D01*
X137236200Y-92022395D01*
X138136754Y-91121841D01*
X138050348Y-90865357D01*
X137778041Y-90765731D01*
X137930331Y-90702806D01*
X138275793Y-90357947D01*
X138462986Y-89907136D01*
X138463412Y-89419005D01*
X138277006Y-88967869D01*
X137932147Y-88622407D01*
X137481336Y-88435214D01*
X136993205Y-88434788D01*
X136542069Y-88621194D01*
X136196607Y-88966053D01*
X136155438Y-89065199D01*
X136151775Y-87710564D01*
X136195394Y-87816131D01*
X136540253Y-88161593D01*
X136991064Y-88348786D01*
X137479195Y-88349212D01*
X137930331Y-88162806D01*
X138275793Y-87817947D01*
X138462986Y-87367136D01*
X138463412Y-86879005D01*
X138277006Y-86427869D01*
X137932147Y-86082407D01*
X137481336Y-85895214D01*
X136993205Y-85894788D01*
X136542069Y-86081194D01*
X136196607Y-86426053D01*
X136148613Y-86541634D01*
X136144860Y-85153831D01*
X136195394Y-85276131D01*
X136540253Y-85621593D01*
X136991064Y-85808786D01*
X137479195Y-85809212D01*
X137930331Y-85622806D01*
X138275793Y-85277947D01*
X138462986Y-84827136D01*
X138463412Y-84339005D01*
X138277006Y-83887869D01*
X137932147Y-83542407D01*
X137481336Y-83355214D01*
X136993205Y-83354788D01*
X136542069Y-83541194D01*
X136196607Y-83886053D01*
X136141789Y-84018069D01*
X136137946Y-82597097D01*
X136195394Y-82736131D01*
X136540253Y-83081593D01*
X136991064Y-83268786D01*
X137479195Y-83269212D01*
X137930331Y-83082806D01*
X138275793Y-82737947D01*
X138462986Y-82287136D01*
X138463412Y-81799005D01*
X138277006Y-81347869D01*
X137932147Y-81002407D01*
X137481336Y-80815214D01*
X136993205Y-80814788D01*
X136542069Y-81001194D01*
X136196607Y-81346053D01*
X136134965Y-81494505D01*
X136131032Y-80040364D01*
X136195394Y-80196131D01*
X136540253Y-80541593D01*
X136991064Y-80728786D01*
X137479195Y-80729212D01*
X137930331Y-80542806D01*
X138275793Y-80197947D01*
X138462986Y-79747136D01*
X138463412Y-79259005D01*
X138277006Y-78807869D01*
X137932147Y-78462407D01*
X137528866Y-78294950D01*
X140078800Y-78294950D01*
X140078800Y-79635510D01*
X140175473Y-79868899D01*
X140354102Y-80047527D01*
X140587491Y-80144200D01*
X141228050Y-80144200D01*
X141386800Y-79985450D01*
X141386800Y-78136200D01*
X140237550Y-78136200D01*
X140078800Y-78294950D01*
X137528866Y-78294950D01*
X137481336Y-78275214D01*
X136993205Y-78274788D01*
X136542069Y-78461194D01*
X136196607Y-78806053D01*
X136128140Y-78970940D01*
X136124118Y-77483630D01*
X136195394Y-77656131D01*
X136540253Y-78001593D01*
X136991064Y-78188786D01*
X137479195Y-78189212D01*
X137930331Y-78002806D01*
X138275793Y-77657947D01*
X138462986Y-77207136D01*
X138463412Y-76719005D01*
X138324532Y-76382890D01*
X140078800Y-76382890D01*
X140078800Y-77723450D01*
X140237550Y-77882200D01*
X141386800Y-77882200D01*
X141386800Y-76032950D01*
X141640800Y-76032950D01*
X141640800Y-77882200D01*
X142380394Y-77882200D01*
X142380394Y-78136200D01*
X141640800Y-78136200D01*
X141640800Y-79985450D01*
X141799550Y-80144200D01*
X142440109Y-80144200D01*
X142673498Y-80047527D01*
X142852127Y-79868899D01*
X142863018Y-79842606D01*
X144313800Y-79842606D01*
X144441389Y-79817227D01*
X144513800Y-79768844D01*
X144586211Y-79817227D01*
X144713800Y-79842606D01*
X145061800Y-79842606D01*
X145061800Y-80147279D01*
X144967518Y-80374336D01*
X144967300Y-80623772D01*
X145062554Y-80854304D01*
X145238778Y-81030836D01*
X145469144Y-81126492D01*
X145718580Y-81126710D01*
X145949112Y-81031456D01*
X146125644Y-80855232D01*
X146221300Y-80624866D01*
X146221518Y-80375430D01*
X146126264Y-80144898D01*
X145965800Y-79984154D01*
X145965800Y-79842606D01*
X146313800Y-79842606D01*
X146441389Y-79817227D01*
X146513800Y-79768844D01*
X146586211Y-79817227D01*
X146713800Y-79842606D01*
X147061800Y-79842606D01*
X147061800Y-80113800D01*
X147096206Y-80286773D01*
X147194188Y-80433412D01*
X147372989Y-80612213D01*
X147372891Y-80724171D01*
X147468145Y-80954703D01*
X147644369Y-81131235D01*
X147874735Y-81226891D01*
X148124171Y-81227109D01*
X148354703Y-81131855D01*
X148531235Y-80955631D01*
X148626891Y-80725265D01*
X148627109Y-80475829D01*
X148531855Y-80245297D01*
X148355631Y-80068765D01*
X148125265Y-79973109D01*
X148012235Y-79973010D01*
X147965800Y-79926576D01*
X147965800Y-79842606D01*
X148313800Y-79842606D01*
X148441389Y-79817227D01*
X148513800Y-79768844D01*
X148586211Y-79817227D01*
X148713800Y-79842606D01*
X149218978Y-79842606D01*
X149218978Y-80601969D01*
X149139743Y-80681066D01*
X149044087Y-80911432D01*
X149043869Y-81160868D01*
X149139123Y-81391400D01*
X149315347Y-81567932D01*
X149545713Y-81663588D01*
X149795149Y-81663806D01*
X150025681Y-81568552D01*
X150202213Y-81392328D01*
X150297869Y-81161962D01*
X150298087Y-80912526D01*
X150202833Y-80681994D01*
X150122978Y-80601999D01*
X150122978Y-79842606D01*
X150313800Y-79842606D01*
X150441389Y-79817227D01*
X150513800Y-79768844D01*
X150586211Y-79817227D01*
X150593786Y-79818734D01*
X150593786Y-85288815D01*
X150514551Y-85367912D01*
X150418895Y-85598278D01*
X150418677Y-85847714D01*
X150513931Y-86078246D01*
X150690155Y-86254778D01*
X150920521Y-86350434D01*
X151169957Y-86350652D01*
X151400489Y-86255398D01*
X151577021Y-86079174D01*
X151672677Y-85848808D01*
X151672895Y-85599372D01*
X151577641Y-85368840D01*
X151497786Y-85288845D01*
X151497786Y-79842606D01*
X152313800Y-79842606D01*
X152441389Y-79817227D01*
X152513800Y-79768844D01*
X152586211Y-79817227D01*
X152713800Y-79842606D01*
X152807106Y-79842606D01*
X152745297Y-79868145D01*
X152568765Y-80044369D01*
X152473109Y-80274735D01*
X152472891Y-80524171D01*
X152568145Y-80754703D01*
X152744369Y-80931235D01*
X152974735Y-81026891D01*
X153224171Y-81027109D01*
X153454703Y-80931855D01*
X153631235Y-80755631D01*
X153726891Y-80525265D01*
X153726990Y-80412235D01*
X153833413Y-80305812D01*
X153931394Y-80159173D01*
X153965800Y-79986200D01*
X153965800Y-79842606D01*
X154164582Y-79842606D01*
X154175473Y-79868899D01*
X154354102Y-80047527D01*
X154587491Y-80144200D01*
X155228050Y-80144200D01*
X155386800Y-79985450D01*
X155386800Y-78136200D01*
X155640800Y-78136200D01*
X155640800Y-79985450D01*
X155799550Y-80144200D01*
X156440109Y-80144200D01*
X156673498Y-80047527D01*
X156852127Y-79868899D01*
X156948800Y-79635510D01*
X156948800Y-78294950D01*
X156790050Y-78136200D01*
X155640800Y-78136200D01*
X155386800Y-78136200D01*
X154647206Y-78136200D01*
X154647206Y-77882200D01*
X155386800Y-77882200D01*
X155386800Y-76032950D01*
X155640800Y-76032950D01*
X155640800Y-77882200D01*
X156790050Y-77882200D01*
X156948800Y-77723450D01*
X156948800Y-76382890D01*
X156852127Y-76149501D01*
X156673498Y-75970873D01*
X156440109Y-75874200D01*
X155799550Y-75874200D01*
X155640800Y-76032950D01*
X155386800Y-76032950D01*
X155228050Y-75874200D01*
X154587491Y-75874200D01*
X154354102Y-75970873D01*
X154175473Y-76149501D01*
X154164582Y-76175794D01*
X152713800Y-76175794D01*
X152586211Y-76201173D01*
X152513800Y-76249556D01*
X152441389Y-76201173D01*
X152313800Y-76175794D01*
X150713800Y-76175794D01*
X150586211Y-76201173D01*
X150513800Y-76249556D01*
X150441389Y-76201173D01*
X150313800Y-76175794D01*
X148713800Y-76175794D01*
X148586211Y-76201173D01*
X148513800Y-76249556D01*
X148441389Y-76201173D01*
X148313800Y-76175794D01*
X146713800Y-76175794D01*
X146586211Y-76201173D01*
X146513800Y-76249556D01*
X146441389Y-76201173D01*
X146313800Y-76175794D01*
X144713800Y-76175794D01*
X144586211Y-76201173D01*
X144513800Y-76249556D01*
X144441389Y-76201173D01*
X144313800Y-76175794D01*
X142863018Y-76175794D01*
X142852127Y-76149501D01*
X142673498Y-75970873D01*
X142440109Y-75874200D01*
X141799550Y-75874200D01*
X141640800Y-76032950D01*
X141386800Y-76032950D01*
X141228050Y-75874200D01*
X140587491Y-75874200D01*
X140354102Y-75970873D01*
X140175473Y-76149501D01*
X140078800Y-76382890D01*
X138324532Y-76382890D01*
X138277006Y-76267869D01*
X137932147Y-75922407D01*
X137481336Y-75735214D01*
X136993205Y-75734788D01*
X136542069Y-75921194D01*
X136196607Y-76266053D01*
X136121316Y-76447375D01*
X136118360Y-75354400D01*
X161215000Y-75354400D01*
X161215000Y-76456628D01*
X161215000Y-76456628D01*
G37*
X161215000Y-76456628D02*
X161137006Y-76267869D01*
X160792147Y-75922407D01*
X160341336Y-75735214D01*
X159853205Y-75734788D01*
X159402069Y-75921194D01*
X159056607Y-76266053D01*
X158869414Y-76716864D01*
X158868988Y-77204995D01*
X159055394Y-77656131D01*
X159400253Y-78001593D01*
X159851064Y-78188786D01*
X160339195Y-78189212D01*
X160790331Y-78002806D01*
X161135793Y-77657947D01*
X161215000Y-77467195D01*
X161215000Y-78996628D01*
X161137006Y-78807869D01*
X160792147Y-78462407D01*
X160341336Y-78275214D01*
X159853205Y-78274788D01*
X159402069Y-78461194D01*
X159056607Y-78806053D01*
X158869414Y-79256864D01*
X158868988Y-79744995D01*
X159055394Y-80196131D01*
X159400253Y-80541593D01*
X159851064Y-80728786D01*
X160339195Y-80729212D01*
X160790331Y-80542806D01*
X161135793Y-80197947D01*
X161215000Y-80007195D01*
X161215000Y-81536628D01*
X161137006Y-81347869D01*
X160792147Y-81002407D01*
X160341336Y-80815214D01*
X159853205Y-80814788D01*
X159402069Y-81001194D01*
X159056607Y-81346053D01*
X158869414Y-81796864D01*
X158868988Y-82284995D01*
X159055394Y-82736131D01*
X159400253Y-83081593D01*
X159851064Y-83268786D01*
X160339195Y-83269212D01*
X160790331Y-83082806D01*
X161135793Y-82737947D01*
X161215000Y-82547195D01*
X161215000Y-84076628D01*
X161137006Y-83887869D01*
X160792147Y-83542407D01*
X160341336Y-83355214D01*
X159853205Y-83354788D01*
X159402069Y-83541194D01*
X159056607Y-83886053D01*
X158955311Y-84130000D01*
X158818000Y-84130000D01*
X158645027Y-84164406D01*
X158498388Y-84262388D01*
X157887787Y-84872989D01*
X157775829Y-84872891D01*
X157545297Y-84968145D01*
X157368765Y-85144369D01*
X157273109Y-85374735D01*
X157272891Y-85624171D01*
X157368145Y-85854703D01*
X157544369Y-86031235D01*
X157774735Y-86126891D01*
X158024171Y-86127109D01*
X158254703Y-86031855D01*
X158431235Y-85855631D01*
X158526891Y-85625265D01*
X158526990Y-85512234D01*
X158969930Y-85069294D01*
X159055394Y-85276131D01*
X159400253Y-85621593D01*
X159851064Y-85808786D01*
X160339195Y-85809212D01*
X160790331Y-85622806D01*
X161135793Y-85277947D01*
X161215000Y-85087195D01*
X161215000Y-86616628D01*
X161137006Y-86427869D01*
X160792147Y-86082407D01*
X160341336Y-85895214D01*
X159853205Y-85894788D01*
X159402069Y-86081194D01*
X159056607Y-86426053D01*
X158869414Y-86876864D01*
X158868988Y-87364995D01*
X159055394Y-87816131D01*
X159400253Y-88161593D01*
X159851064Y-88348786D01*
X160339195Y-88349212D01*
X160790331Y-88162806D01*
X161135793Y-87817947D01*
X161215000Y-87627195D01*
X161215000Y-89156628D01*
X161137006Y-88967869D01*
X160792147Y-88622407D01*
X160341336Y-88435214D01*
X159853205Y-88434788D01*
X159402069Y-88621194D01*
X159056607Y-88966053D01*
X158869414Y-89416864D01*
X158868988Y-89904995D01*
X159055394Y-90356131D01*
X159400253Y-90701593D01*
X159851064Y-90888786D01*
X160339195Y-90889212D01*
X160790331Y-90702806D01*
X161135793Y-90357947D01*
X161215000Y-90167195D01*
X161215000Y-91696628D01*
X161137006Y-91507869D01*
X160792147Y-91162407D01*
X160341336Y-90975214D01*
X159853205Y-90974788D01*
X159402069Y-91161194D01*
X159395649Y-91167603D01*
X159321227Y-91182406D01*
X159174588Y-91280388D01*
X159076606Y-91427027D01*
X159061947Y-91500722D01*
X159056607Y-91506053D01*
X158869414Y-91956864D01*
X158868988Y-92444995D01*
X159055394Y-92896131D01*
X159400253Y-93241593D01*
X159851064Y-93428786D01*
X160339195Y-93429212D01*
X160790331Y-93242806D01*
X161135793Y-92897947D01*
X161215000Y-92707195D01*
X161215000Y-94236628D01*
X161137006Y-94047869D01*
X160792147Y-93702407D01*
X160341336Y-93515214D01*
X159853205Y-93514788D01*
X159402069Y-93701194D01*
X159056607Y-94046053D01*
X158869414Y-94496864D01*
X158868988Y-94984995D01*
X159055394Y-95436131D01*
X159400253Y-95781593D01*
X159851064Y-95968786D01*
X160339195Y-95969212D01*
X160790331Y-95782806D01*
X161135793Y-95437947D01*
X161215000Y-95247195D01*
X161215000Y-107519400D01*
X148225000Y-107519400D01*
X148225000Y-106443975D01*
X149272874Y-106443975D01*
X149383320Y-106711275D01*
X149587650Y-106915961D01*
X149854756Y-107026874D01*
X150143975Y-107027126D01*
X150411275Y-106916680D01*
X150438001Y-106890000D01*
X150507394Y-106890000D01*
X150507394Y-107063000D01*
X150532773Y-107190589D01*
X150605046Y-107298754D01*
X150713211Y-107371027D01*
X150840800Y-107396406D01*
X152840800Y-107396406D01*
X152968389Y-107371027D01*
X153076554Y-107298754D01*
X153148827Y-107190589D01*
X153174206Y-107063000D01*
X153174206Y-105563000D01*
X153148827Y-105435411D01*
X153076554Y-105327246D01*
X152968389Y-105254973D01*
X152840800Y-105229594D01*
X150840800Y-105229594D01*
X150713211Y-105254973D01*
X150605046Y-105327246D01*
X150532773Y-105435411D01*
X150507394Y-105563000D01*
X150507394Y-105736000D01*
X150464221Y-105736000D01*
X150412350Y-105684039D01*
X150145244Y-105573126D01*
X149856025Y-105572874D01*
X149588725Y-105683320D01*
X149384039Y-105887650D01*
X149273126Y-106154756D01*
X149272874Y-106443975D01*
X148225000Y-106443975D01*
X148225000Y-105305750D01*
X148066250Y-105147000D01*
X146507000Y-105147000D01*
X146507000Y-107519400D01*
X146253000Y-107519400D01*
X146253000Y-105147000D01*
X145327000Y-105147000D01*
X145327000Y-104893000D01*
X146253000Y-104893000D01*
X146253000Y-102963250D01*
X146265000Y-102951250D01*
X146265000Y-102711238D01*
X146495000Y-102694608D01*
X146495000Y-102951250D01*
X146507000Y-102963250D01*
X146507000Y-104893000D01*
X148066250Y-104893000D01*
X148225000Y-104734250D01*
X148225000Y-102353691D01*
X148128327Y-102120302D01*
X148006776Y-101998750D01*
X150205800Y-101998750D01*
X150205800Y-102589310D01*
X150302473Y-102822699D01*
X150481102Y-103001327D01*
X150591743Y-103047156D01*
X150532773Y-103135411D01*
X150507394Y-103263000D01*
X150507394Y-104763000D01*
X150532773Y-104890589D01*
X150605046Y-104998754D01*
X150713211Y-105071027D01*
X150840800Y-105096406D01*
X152840800Y-105096406D01*
X152968389Y-105071027D01*
X153076554Y-104998754D01*
X153148827Y-104890589D01*
X153174206Y-104763000D01*
X153174206Y-104590000D01*
X153286952Y-104590000D01*
X153437650Y-104740961D01*
X153704756Y-104851874D01*
X153993975Y-104852126D01*
X154261275Y-104741680D01*
X154413219Y-104590000D01*
X156807394Y-104590000D01*
X156807394Y-105913000D01*
X156832773Y-106040589D01*
X156905046Y-106148754D01*
X157013211Y-106221027D01*
X157140800Y-106246406D01*
X159140800Y-106246406D01*
X159268389Y-106221027D01*
X159376554Y-106148754D01*
X159448827Y-106040589D01*
X159474206Y-105913000D01*
X159474206Y-102113000D01*
X159448827Y-101985411D01*
X159376554Y-101877246D01*
X159268389Y-101804973D01*
X159140800Y-101779594D01*
X157140800Y-101779594D01*
X157013211Y-101804973D01*
X156905046Y-101877246D01*
X156832773Y-101985411D01*
X156807394Y-102113000D01*
X156807394Y-103436000D01*
X154086454Y-103436000D01*
X153995244Y-103398126D01*
X153706025Y-103397874D01*
X153613753Y-103436000D01*
X153174206Y-103436000D01*
X153174206Y-103263000D01*
X153148827Y-103135411D01*
X153089857Y-103047156D01*
X153200498Y-103001327D01*
X153379127Y-102822699D01*
X153475800Y-102589310D01*
X153475800Y-101998750D01*
X153317050Y-101840000D01*
X151967800Y-101840000D01*
X151967800Y-102929594D01*
X151713800Y-102929594D01*
X151713800Y-101840000D01*
X150364550Y-101840000D01*
X150205800Y-101998750D01*
X148006776Y-101998750D01*
X147949699Y-101941673D01*
X147716310Y-101845000D01*
X147472129Y-101845000D01*
X147513149Y-101721436D01*
X147481018Y-101277032D01*
X147372768Y-101015692D01*
X147159200Y-100980405D01*
X147031315Y-101108290D01*
X146969699Y-101046673D01*
X146802838Y-100977557D01*
X146943705Y-100836690D01*
X150205800Y-100836690D01*
X150205800Y-101427250D01*
X150364550Y-101586000D01*
X151713800Y-101586000D01*
X151713800Y-100486750D01*
X151967800Y-100486750D01*
X151967800Y-101586000D01*
X153317050Y-101586000D01*
X153475800Y-101427250D01*
X153475800Y-100836690D01*
X153379127Y-100603301D01*
X153200498Y-100424673D01*
X152967109Y-100328000D01*
X152126550Y-100328000D01*
X151967800Y-100486750D01*
X151713800Y-100486750D01*
X151555050Y-100328000D01*
X150714491Y-100328000D01*
X150481102Y-100424673D01*
X150302473Y-100603301D01*
X150205800Y-100836690D01*
X146943705Y-100836690D01*
X146979595Y-100800800D01*
X146944308Y-100587232D01*
X146521436Y-100446851D01*
X146077032Y-100478982D01*
X145815692Y-100587232D01*
X145780405Y-100800800D01*
X145957162Y-100977557D01*
X145790301Y-101046673D01*
X145728685Y-101108290D01*
X145600800Y-100980405D01*
X145387232Y-101015692D01*
X145246851Y-101438564D01*
X145276237Y-101845000D01*
X145043690Y-101845000D01*
X144810301Y-101941673D01*
X144631673Y-102120302D01*
X144609845Y-102173000D01*
X143274126Y-102173000D01*
X143272589Y-102171973D01*
X143145000Y-102146594D01*
X142008594Y-102146594D01*
X142008594Y-96442606D01*
X142164582Y-96442606D01*
X142175473Y-96468899D01*
X142354102Y-96647527D01*
X142587491Y-96744200D01*
X143228050Y-96744200D01*
X143386800Y-96585450D01*
X143386800Y-94736200D01*
X142647206Y-94736200D01*
X142647206Y-94482200D01*
X143386800Y-94482200D01*
X143386800Y-92632950D01*
X143640800Y-92632950D01*
X143640800Y-94482200D01*
X144380394Y-94482200D01*
X144380394Y-94736200D01*
X143640800Y-94736200D01*
X143640800Y-96585450D01*
X143799550Y-96744200D01*
X144440109Y-96744200D01*
X144673498Y-96647527D01*
X144852127Y-96468899D01*
X144863018Y-96442606D01*
X146313800Y-96442606D01*
X146441389Y-96417227D01*
X146513800Y-96368844D01*
X146586211Y-96417227D01*
X146713800Y-96442606D01*
X148313800Y-96442606D01*
X148441389Y-96417227D01*
X148513800Y-96368844D01*
X148586211Y-96417227D01*
X148713800Y-96442606D01*
X148936800Y-96442606D01*
X148936800Y-96609195D01*
X148936799Y-96609200D01*
X148980722Y-96830008D01*
X149105799Y-97017201D01*
X149396597Y-97307998D01*
X149396599Y-97308001D01*
X149583792Y-97433078D01*
X149804600Y-97477000D01*
X150698757Y-97477000D01*
X150737650Y-97515961D01*
X151004756Y-97626874D01*
X151293975Y-97627126D01*
X151561275Y-97516680D01*
X151765961Y-97312350D01*
X151876874Y-97045244D01*
X151877126Y-96756025D01*
X151766680Y-96488725D01*
X151720641Y-96442606D01*
X152313800Y-96442606D01*
X152441389Y-96417227D01*
X152513800Y-96368844D01*
X152586211Y-96417227D01*
X152713800Y-96442606D01*
X154313800Y-96442606D01*
X154441389Y-96417227D01*
X154513800Y-96368844D01*
X154586211Y-96417227D01*
X154713800Y-96442606D01*
X156313800Y-96442606D01*
X156441389Y-96417227D01*
X156549554Y-96344954D01*
X156621827Y-96236789D01*
X156647206Y-96109200D01*
X156647206Y-93109200D01*
X156621827Y-92981611D01*
X156549554Y-92873446D01*
X156441389Y-92801173D01*
X156313800Y-92775794D01*
X154713800Y-92775794D01*
X154586211Y-92801173D01*
X154513800Y-92849556D01*
X154441389Y-92801173D01*
X154313800Y-92775794D01*
X152713800Y-92775794D01*
X152586211Y-92801173D01*
X152513800Y-92849556D01*
X152441389Y-92801173D01*
X152313800Y-92775794D01*
X151965800Y-92775794D01*
X151965800Y-92513800D01*
X151931394Y-92340827D01*
X151833412Y-92194188D01*
X150527011Y-90887787D01*
X150527109Y-90775829D01*
X150431855Y-90545297D01*
X150255631Y-90368765D01*
X150025265Y-90273109D01*
X149775829Y-90272891D01*
X149545297Y-90368145D01*
X149368765Y-90544369D01*
X149273109Y-90774735D01*
X149272891Y-91024171D01*
X149368145Y-91254703D01*
X149544369Y-91431235D01*
X149774735Y-91526891D01*
X149887766Y-91526990D01*
X151061800Y-92701024D01*
X151061800Y-92775794D01*
X150713800Y-92775794D01*
X150586211Y-92801173D01*
X150513800Y-92849556D01*
X150441389Y-92801173D01*
X150313800Y-92775794D01*
X148713800Y-92775794D01*
X148586211Y-92801173D01*
X148513800Y-92849556D01*
X148441389Y-92801173D01*
X148313800Y-92775794D01*
X146713800Y-92775794D01*
X146586211Y-92801173D01*
X146513800Y-92849556D01*
X146441389Y-92801173D01*
X146313800Y-92775794D01*
X144863018Y-92775794D01*
X144852127Y-92749501D01*
X144673498Y-92570873D01*
X144440109Y-92474200D01*
X143799550Y-92474200D01*
X143640800Y-92632950D01*
X143386800Y-92632950D01*
X143228050Y-92474200D01*
X142587491Y-92474200D01*
X142354102Y-92570873D01*
X142175473Y-92749501D01*
X142164582Y-92775794D01*
X140713800Y-92775794D01*
X140586211Y-92801173D01*
X140478046Y-92873446D01*
X140405773Y-92981611D01*
X140380394Y-93109200D01*
X140380394Y-96109200D01*
X140405773Y-96236789D01*
X140478046Y-96344954D01*
X140586211Y-96417227D01*
X140713800Y-96442606D01*
X141019006Y-96442606D01*
X141019006Y-102146594D01*
X140855000Y-102146594D01*
X140727411Y-102171973D01*
X140725874Y-102173000D01*
X139390155Y-102173000D01*
X139368327Y-102120302D01*
X139189699Y-101941673D01*
X138956310Y-101845000D01*
X138712129Y-101845000D01*
X138753149Y-101721436D01*
X138721018Y-101277032D01*
X138612768Y-101015692D01*
X138399200Y-100980405D01*
X138271315Y-101108290D01*
X138209699Y-101046673D01*
X138042838Y-100977557D01*
X138219595Y-100800800D01*
X138184308Y-100587232D01*
X137761436Y-100446851D01*
X137317032Y-100478982D01*
X137055692Y-100587232D01*
X137020405Y-100800800D01*
X137197162Y-100977557D01*
X137030301Y-101046673D01*
X136968685Y-101108290D01*
X136840800Y-100980405D01*
X136627232Y-101015692D01*
X136486851Y-101438564D01*
X136516237Y-101845000D01*
X136283690Y-101845000D01*
X136190103Y-101883765D01*
X136172517Y-95380764D01*
X136195394Y-95436131D01*
X136540253Y-95781593D01*
X136991064Y-95968786D01*
X137479195Y-95969212D01*
X137930331Y-95782806D01*
X138275793Y-95437947D01*
X138462986Y-94987136D01*
X138463412Y-94499005D01*
X138277006Y-94047869D01*
X137932147Y-93702407D01*
X137793738Y-93644935D01*
X138050348Y-93538643D01*
X138136754Y-93282159D01*
X137236200Y-92381605D01*
X136335646Y-93282159D01*
X136422052Y-93538643D01*
X136694359Y-93638269D01*
X136542069Y-93701194D01*
X136196607Y-94046053D01*
X136169087Y-94112329D01*
X136166328Y-93092267D01*
X137056595Y-92202000D01*
X137415805Y-92202000D01*
X138316359Y-93102554D01*
X138572843Y-93016148D01*
X138782658Y-92442664D01*
X138757039Y-91832540D01*
X138572843Y-91387852D01*
X138316359Y-91301446D01*
X137415805Y-92202000D01*
X137056595Y-92202000D01*
X136161500Y-91306905D01*
X136158689Y-90267297D01*
X136195394Y-90356131D01*
X136540253Y-90701593D01*
X136678662Y-90759065D01*
X136422052Y-90865357D01*
X136335646Y-91121841D01*
X137236200Y-92022395D01*
X138136754Y-91121841D01*
X138050348Y-90865357D01*
X137778041Y-90765731D01*
X137930331Y-90702806D01*
X138275793Y-90357947D01*
X138462986Y-89907136D01*
X138463412Y-89419005D01*
X138277006Y-88967869D01*
X137932147Y-88622407D01*
X137481336Y-88435214D01*
X136993205Y-88434788D01*
X136542069Y-88621194D01*
X136196607Y-88966053D01*
X136155438Y-89065199D01*
X136151775Y-87710564D01*
X136195394Y-87816131D01*
X136540253Y-88161593D01*
X136991064Y-88348786D01*
X137479195Y-88349212D01*
X137930331Y-88162806D01*
X138275793Y-87817947D01*
X138462986Y-87367136D01*
X138463412Y-86879005D01*
X138277006Y-86427869D01*
X137932147Y-86082407D01*
X137481336Y-85895214D01*
X136993205Y-85894788D01*
X136542069Y-86081194D01*
X136196607Y-86426053D01*
X136148613Y-86541634D01*
X136144860Y-85153831D01*
X136195394Y-85276131D01*
X136540253Y-85621593D01*
X136991064Y-85808786D01*
X137479195Y-85809212D01*
X137930331Y-85622806D01*
X138275793Y-85277947D01*
X138462986Y-84827136D01*
X138463412Y-84339005D01*
X138277006Y-83887869D01*
X137932147Y-83542407D01*
X137481336Y-83355214D01*
X136993205Y-83354788D01*
X136542069Y-83541194D01*
X136196607Y-83886053D01*
X136141789Y-84018069D01*
X136137946Y-82597097D01*
X136195394Y-82736131D01*
X136540253Y-83081593D01*
X136991064Y-83268786D01*
X137479195Y-83269212D01*
X137930331Y-83082806D01*
X138275793Y-82737947D01*
X138462986Y-82287136D01*
X138463412Y-81799005D01*
X138277006Y-81347869D01*
X137932147Y-81002407D01*
X137481336Y-80815214D01*
X136993205Y-80814788D01*
X136542069Y-81001194D01*
X136196607Y-81346053D01*
X136134965Y-81494505D01*
X136131032Y-80040364D01*
X136195394Y-80196131D01*
X136540253Y-80541593D01*
X136991064Y-80728786D01*
X137479195Y-80729212D01*
X137930331Y-80542806D01*
X138275793Y-80197947D01*
X138462986Y-79747136D01*
X138463412Y-79259005D01*
X138277006Y-78807869D01*
X137932147Y-78462407D01*
X137528866Y-78294950D01*
X140078800Y-78294950D01*
X140078800Y-79635510D01*
X140175473Y-79868899D01*
X140354102Y-80047527D01*
X140587491Y-80144200D01*
X141228050Y-80144200D01*
X141386800Y-79985450D01*
X141386800Y-78136200D01*
X140237550Y-78136200D01*
X140078800Y-78294950D01*
X137528866Y-78294950D01*
X137481336Y-78275214D01*
X136993205Y-78274788D01*
X136542069Y-78461194D01*
X136196607Y-78806053D01*
X136128140Y-78970940D01*
X136124118Y-77483630D01*
X136195394Y-77656131D01*
X136540253Y-78001593D01*
X136991064Y-78188786D01*
X137479195Y-78189212D01*
X137930331Y-78002806D01*
X138275793Y-77657947D01*
X138462986Y-77207136D01*
X138463412Y-76719005D01*
X138324532Y-76382890D01*
X140078800Y-76382890D01*
X140078800Y-77723450D01*
X140237550Y-77882200D01*
X141386800Y-77882200D01*
X141386800Y-76032950D01*
X141640800Y-76032950D01*
X141640800Y-77882200D01*
X142380394Y-77882200D01*
X142380394Y-78136200D01*
X141640800Y-78136200D01*
X141640800Y-79985450D01*
X141799550Y-80144200D01*
X142440109Y-80144200D01*
X142673498Y-80047527D01*
X142852127Y-79868899D01*
X142863018Y-79842606D01*
X144313800Y-79842606D01*
X144441389Y-79817227D01*
X144513800Y-79768844D01*
X144586211Y-79817227D01*
X144713800Y-79842606D01*
X145061800Y-79842606D01*
X145061800Y-80147279D01*
X144967518Y-80374336D01*
X144967300Y-80623772D01*
X145062554Y-80854304D01*
X145238778Y-81030836D01*
X145469144Y-81126492D01*
X145718580Y-81126710D01*
X145949112Y-81031456D01*
X146125644Y-80855232D01*
X146221300Y-80624866D01*
X146221518Y-80375430D01*
X146126264Y-80144898D01*
X145965800Y-79984154D01*
X145965800Y-79842606D01*
X146313800Y-79842606D01*
X146441389Y-79817227D01*
X146513800Y-79768844D01*
X146586211Y-79817227D01*
X146713800Y-79842606D01*
X147061800Y-79842606D01*
X147061800Y-80113800D01*
X147096206Y-80286773D01*
X147194188Y-80433412D01*
X147372989Y-80612213D01*
X147372891Y-80724171D01*
X147468145Y-80954703D01*
X147644369Y-81131235D01*
X147874735Y-81226891D01*
X148124171Y-81227109D01*
X148354703Y-81131855D01*
X148531235Y-80955631D01*
X148626891Y-80725265D01*
X148627109Y-80475829D01*
X148531855Y-80245297D01*
X148355631Y-80068765D01*
X148125265Y-79973109D01*
X148012235Y-79973010D01*
X147965800Y-79926576D01*
X147965800Y-79842606D01*
X148313800Y-79842606D01*
X148441389Y-79817227D01*
X148513800Y-79768844D01*
X148586211Y-79817227D01*
X148713800Y-79842606D01*
X149218978Y-79842606D01*
X149218978Y-80601969D01*
X149139743Y-80681066D01*
X149044087Y-80911432D01*
X149043869Y-81160868D01*
X149139123Y-81391400D01*
X149315347Y-81567932D01*
X149545713Y-81663588D01*
X149795149Y-81663806D01*
X150025681Y-81568552D01*
X150202213Y-81392328D01*
X150297869Y-81161962D01*
X150298087Y-80912526D01*
X150202833Y-80681994D01*
X150122978Y-80601999D01*
X150122978Y-79842606D01*
X150313800Y-79842606D01*
X150441389Y-79817227D01*
X150513800Y-79768844D01*
X150586211Y-79817227D01*
X150593786Y-79818734D01*
X150593786Y-85288815D01*
X150514551Y-85367912D01*
X150418895Y-85598278D01*
X150418677Y-85847714D01*
X150513931Y-86078246D01*
X150690155Y-86254778D01*
X150920521Y-86350434D01*
X151169957Y-86350652D01*
X151400489Y-86255398D01*
X151577021Y-86079174D01*
X151672677Y-85848808D01*
X151672895Y-85599372D01*
X151577641Y-85368840D01*
X151497786Y-85288845D01*
X151497786Y-79842606D01*
X152313800Y-79842606D01*
X152441389Y-79817227D01*
X152513800Y-79768844D01*
X152586211Y-79817227D01*
X152713800Y-79842606D01*
X152807106Y-79842606D01*
X152745297Y-79868145D01*
X152568765Y-80044369D01*
X152473109Y-80274735D01*
X152472891Y-80524171D01*
X152568145Y-80754703D01*
X152744369Y-80931235D01*
X152974735Y-81026891D01*
X153224171Y-81027109D01*
X153454703Y-80931855D01*
X153631235Y-80755631D01*
X153726891Y-80525265D01*
X153726990Y-80412235D01*
X153833413Y-80305812D01*
X153931394Y-80159173D01*
X153965800Y-79986200D01*
X153965800Y-79842606D01*
X154164582Y-79842606D01*
X154175473Y-79868899D01*
X154354102Y-80047527D01*
X154587491Y-80144200D01*
X155228050Y-80144200D01*
X155386800Y-79985450D01*
X155386800Y-78136200D01*
X155640800Y-78136200D01*
X155640800Y-79985450D01*
X155799550Y-80144200D01*
X156440109Y-80144200D01*
X156673498Y-80047527D01*
X156852127Y-79868899D01*
X156948800Y-79635510D01*
X156948800Y-78294950D01*
X156790050Y-78136200D01*
X155640800Y-78136200D01*
X155386800Y-78136200D01*
X154647206Y-78136200D01*
X154647206Y-77882200D01*
X155386800Y-77882200D01*
X155386800Y-76032950D01*
X155640800Y-76032950D01*
X155640800Y-77882200D01*
X156790050Y-77882200D01*
X156948800Y-77723450D01*
X156948800Y-76382890D01*
X156852127Y-76149501D01*
X156673498Y-75970873D01*
X156440109Y-75874200D01*
X155799550Y-75874200D01*
X155640800Y-76032950D01*
X155386800Y-76032950D01*
X155228050Y-75874200D01*
X154587491Y-75874200D01*
X154354102Y-75970873D01*
X154175473Y-76149501D01*
X154164582Y-76175794D01*
X152713800Y-76175794D01*
X152586211Y-76201173D01*
X152513800Y-76249556D01*
X152441389Y-76201173D01*
X152313800Y-76175794D01*
X150713800Y-76175794D01*
X150586211Y-76201173D01*
X150513800Y-76249556D01*
X150441389Y-76201173D01*
X150313800Y-76175794D01*
X148713800Y-76175794D01*
X148586211Y-76201173D01*
X148513800Y-76249556D01*
X148441389Y-76201173D01*
X148313800Y-76175794D01*
X146713800Y-76175794D01*
X146586211Y-76201173D01*
X146513800Y-76249556D01*
X146441389Y-76201173D01*
X146313800Y-76175794D01*
X144713800Y-76175794D01*
X144586211Y-76201173D01*
X144513800Y-76249556D01*
X144441389Y-76201173D01*
X144313800Y-76175794D01*
X142863018Y-76175794D01*
X142852127Y-76149501D01*
X142673498Y-75970873D01*
X142440109Y-75874200D01*
X141799550Y-75874200D01*
X141640800Y-76032950D01*
X141386800Y-76032950D01*
X141228050Y-75874200D01*
X140587491Y-75874200D01*
X140354102Y-75970873D01*
X140175473Y-76149501D01*
X140078800Y-76382890D01*
X138324532Y-76382890D01*
X138277006Y-76267869D01*
X137932147Y-75922407D01*
X137481336Y-75735214D01*
X136993205Y-75734788D01*
X136542069Y-75921194D01*
X136196607Y-76266053D01*
X136121316Y-76447375D01*
X136118360Y-75354400D01*
X161215000Y-75354400D01*
X161215000Y-76456628D01*
G36*
X146495000Y-101874605D02*
X146380000Y-101759605D01*
X146265000Y-101874605D01*
X146265000Y-101285395D01*
X146380000Y-101400395D01*
X146495000Y-101285395D01*
X146495000Y-101874605D01*
X146495000Y-101874605D01*
G37*
X146495000Y-101874605D02*
X146380000Y-101759605D01*
X146265000Y-101874605D01*
X146265000Y-101285395D01*
X146380000Y-101400395D01*
X146495000Y-101285395D01*
X146495000Y-101874605D01*
G36*
X137735000Y-101874605D02*
X137620000Y-101759605D01*
X137505000Y-101874605D01*
X137505000Y-101285395D01*
X137620000Y-101400395D01*
X137735000Y-101285395D01*
X137735000Y-101874605D01*
X137735000Y-101874605D01*
G37*
X137735000Y-101874605D02*
X137620000Y-101759605D01*
X137505000Y-101874605D01*
X137505000Y-101285395D01*
X137620000Y-101400395D01*
X137735000Y-101285395D01*
X137735000Y-101874605D01*
%TD*%
M02*
