%TF.GenerationSoftware,KiCad,Pcbnew,5.0.0-rc2-dev-unknown-f2bb398~62~ubuntu17.10.1*%
%TF.CreationDate,2018-03-07T22:53:53-08:00*%
%TF.ProjectId,lora_nodemcu,6C6F72615F6E6F64656D63752E6B6963,rev?*%
%TF.SameCoordinates,Original*%
%TF.FileFunction,Legend,Top*%
%TF.FilePolarity,Positive*%
%FSLAX46Y46*%
G04 Gerber Fmt 4.6, Leading zero omitted, Abs format (unit mm)*
G04 Created by KiCad (PCBNEW 5.0.0-rc2-dev-unknown-f2bb398~62~ubuntu17.10.1) date Wed Mar  7 22:53:53 2018*
%MOMM*%
%LPD*%
G01*
G04 APERTURE LIST*
%ADD10C,0.100000*%
%ADD11C,0.150000*%
%ADD12C,0.120000*%
G04 APERTURE END LIST*
D10*
X139054761Y-94476190D02*
X138816666Y-94476190D01*
X138792857Y-94714285D01*
X138816666Y-94690476D01*
X138864285Y-94666666D01*
X138983333Y-94666666D01*
X139030952Y-94690476D01*
X139054761Y-94714285D01*
X139078571Y-94761904D01*
X139078571Y-94880952D01*
X139054761Y-94928571D01*
X139030952Y-94952380D01*
X138983333Y-94976190D01*
X138864285Y-94976190D01*
X138816666Y-94952380D01*
X138792857Y-94928571D01*
X139221428Y-94476190D02*
X139388095Y-94976190D01*
X139554761Y-94476190D01*
X138819047Y-91950000D02*
X138771428Y-91926190D01*
X138700000Y-91926190D01*
X138628571Y-91950000D01*
X138580952Y-91997619D01*
X138557142Y-92045238D01*
X138533333Y-92140476D01*
X138533333Y-92211904D01*
X138557142Y-92307142D01*
X138580952Y-92354761D01*
X138628571Y-92402380D01*
X138700000Y-92426190D01*
X138747619Y-92426190D01*
X138819047Y-92402380D01*
X138842857Y-92378571D01*
X138842857Y-92211904D01*
X138747619Y-92211904D01*
X139057142Y-92426190D02*
X139057142Y-91926190D01*
X139342857Y-92426190D01*
X139342857Y-91926190D01*
X139580952Y-92426190D02*
X139580952Y-91926190D01*
X139700000Y-91926190D01*
X139771428Y-91950000D01*
X139819047Y-91997619D01*
X139842857Y-92045238D01*
X139866666Y-92140476D01*
X139866666Y-92211904D01*
X139842857Y-92307142D01*
X139819047Y-92354761D01*
X139771428Y-92402380D01*
X139700000Y-92426190D01*
X139580952Y-92426190D01*
X157619047Y-92452380D02*
X157690476Y-92476190D01*
X157809523Y-92476190D01*
X157857142Y-92452380D01*
X157880952Y-92428571D01*
X157904761Y-92380952D01*
X157904761Y-92333333D01*
X157880952Y-92285714D01*
X157857142Y-92261904D01*
X157809523Y-92238095D01*
X157714285Y-92214285D01*
X157666666Y-92190476D01*
X157642857Y-92166666D01*
X157619047Y-92119047D01*
X157619047Y-92071428D01*
X157642857Y-92023809D01*
X157666666Y-92000000D01*
X157714285Y-91976190D01*
X157833333Y-91976190D01*
X157904761Y-92000000D01*
X158095238Y-92452380D02*
X158166666Y-92476190D01*
X158285714Y-92476190D01*
X158333333Y-92452380D01*
X158357142Y-92428571D01*
X158380952Y-92380952D01*
X158380952Y-92333333D01*
X158357142Y-92285714D01*
X158333333Y-92261904D01*
X158285714Y-92238095D01*
X158190476Y-92214285D01*
X158142857Y-92190476D01*
X158119047Y-92166666D01*
X158095238Y-92119047D01*
X158095238Y-92071428D01*
X158119047Y-92023809D01*
X158142857Y-92000000D01*
X158190476Y-91976190D01*
X158309523Y-91976190D01*
X158380952Y-92000000D01*
X157264285Y-89926190D02*
X157264285Y-89426190D01*
X157430952Y-89783333D01*
X157597619Y-89426190D01*
X157597619Y-89926190D01*
X157930952Y-89426190D02*
X158026190Y-89426190D01*
X158073809Y-89450000D01*
X158121428Y-89497619D01*
X158145238Y-89592857D01*
X158145238Y-89759523D01*
X158121428Y-89854761D01*
X158073809Y-89902380D01*
X158026190Y-89926190D01*
X157930952Y-89926190D01*
X157883333Y-89902380D01*
X157835714Y-89854761D01*
X157811904Y-89759523D01*
X157811904Y-89592857D01*
X157835714Y-89497619D01*
X157883333Y-89450000D01*
X157930952Y-89426190D01*
X158335714Y-89902380D02*
X158407142Y-89926190D01*
X158526190Y-89926190D01*
X158573809Y-89902380D01*
X158597619Y-89878571D01*
X158621428Y-89830952D01*
X158621428Y-89783333D01*
X158597619Y-89735714D01*
X158573809Y-89711904D01*
X158526190Y-89688095D01*
X158430952Y-89664285D01*
X158383333Y-89640476D01*
X158359523Y-89616666D01*
X158335714Y-89569047D01*
X158335714Y-89521428D01*
X158359523Y-89473809D01*
X158383333Y-89450000D01*
X158430952Y-89426190D01*
X158550000Y-89426190D01*
X158621428Y-89450000D01*
X158835714Y-89926190D02*
X158835714Y-89426190D01*
X157114285Y-87276190D02*
X157114285Y-86776190D01*
X157280952Y-87133333D01*
X157447619Y-86776190D01*
X157447619Y-87276190D01*
X157685714Y-87276190D02*
X157685714Y-86776190D01*
X157900000Y-87252380D02*
X157971428Y-87276190D01*
X158090476Y-87276190D01*
X158138095Y-87252380D01*
X158161904Y-87228571D01*
X158185714Y-87180952D01*
X158185714Y-87133333D01*
X158161904Y-87085714D01*
X158138095Y-87061904D01*
X158090476Y-87038095D01*
X157995238Y-87014285D01*
X157947619Y-86990476D01*
X157923809Y-86966666D01*
X157900000Y-86919047D01*
X157900000Y-86871428D01*
X157923809Y-86823809D01*
X157947619Y-86800000D01*
X157995238Y-86776190D01*
X158114285Y-86776190D01*
X158185714Y-86800000D01*
X158495238Y-86776190D02*
X158590476Y-86776190D01*
X158638095Y-86800000D01*
X158685714Y-86847619D01*
X158709523Y-86942857D01*
X158709523Y-87109523D01*
X158685714Y-87204761D01*
X158638095Y-87252380D01*
X158590476Y-87276190D01*
X158495238Y-87276190D01*
X158447619Y-87252380D01*
X158400000Y-87204761D01*
X158376190Y-87109523D01*
X158376190Y-86942857D01*
X158400000Y-86847619D01*
X158447619Y-86800000D01*
X158495238Y-86776190D01*
X157257142Y-84852380D02*
X157328571Y-84876190D01*
X157447619Y-84876190D01*
X157495238Y-84852380D01*
X157519047Y-84828571D01*
X157542857Y-84780952D01*
X157542857Y-84733333D01*
X157519047Y-84685714D01*
X157495238Y-84661904D01*
X157447619Y-84638095D01*
X157352380Y-84614285D01*
X157304761Y-84590476D01*
X157280952Y-84566666D01*
X157257142Y-84519047D01*
X157257142Y-84471428D01*
X157280952Y-84423809D01*
X157304761Y-84400000D01*
X157352380Y-84376190D01*
X157471428Y-84376190D01*
X157542857Y-84400000D01*
X158042857Y-84828571D02*
X158019047Y-84852380D01*
X157947619Y-84876190D01*
X157900000Y-84876190D01*
X157828571Y-84852380D01*
X157780952Y-84804761D01*
X157757142Y-84757142D01*
X157733333Y-84661904D01*
X157733333Y-84590476D01*
X157757142Y-84495238D01*
X157780952Y-84447619D01*
X157828571Y-84400000D01*
X157900000Y-84376190D01*
X157947619Y-84376190D01*
X158019047Y-84400000D01*
X158042857Y-84423809D01*
X158257142Y-84876190D02*
X158257142Y-84376190D01*
X158542857Y-84876190D02*
X158328571Y-84590476D01*
X158542857Y-84376190D02*
X158257142Y-84661904D01*
D11*
%TO.C,U1*%
X156813800Y-77009200D02*
X155813800Y-76009200D01*
X156813800Y-96609200D02*
X156813800Y-77009200D01*
X155813800Y-76009200D02*
X140213800Y-76009200D01*
X140213800Y-76009200D02*
X140213800Y-96609200D01*
X140213800Y-96609200D02*
X156813800Y-96609200D01*
D12*
%TO.C,U2*%
X156900800Y-107423000D02*
X156900800Y-106163000D01*
X156900800Y-100603000D02*
X156900800Y-101863000D01*
X153140800Y-107423000D02*
X156900800Y-107423000D01*
X150890800Y-100603000D02*
X156900800Y-100603000D01*
%TO.C,AE1*%
D11*
X136533333Y-99666666D02*
X137009523Y-99666666D01*
X136438095Y-99952380D02*
X136771428Y-98952380D01*
X137104761Y-99952380D01*
X137438095Y-99428571D02*
X137771428Y-99428571D01*
X137914285Y-99952380D02*
X137438095Y-99952380D01*
X137438095Y-98952380D01*
X137914285Y-98952380D01*
X138866666Y-99952380D02*
X138295238Y-99952380D01*
X138580952Y-99952380D02*
X138580952Y-98952380D01*
X138485714Y-99095238D01*
X138390476Y-99190476D01*
X138295238Y-99238095D01*
%TO.C,U2*%
X154228895Y-98965380D02*
X154228895Y-99774904D01*
X154276514Y-99870142D01*
X154324133Y-99917761D01*
X154419371Y-99965380D01*
X154609847Y-99965380D01*
X154705085Y-99917761D01*
X154752704Y-99870142D01*
X154800323Y-99774904D01*
X154800323Y-98965380D01*
X155228895Y-99060619D02*
X155276514Y-99013000D01*
X155371752Y-98965380D01*
X155609847Y-98965380D01*
X155705085Y-99013000D01*
X155752704Y-99060619D01*
X155800323Y-99155857D01*
X155800323Y-99251095D01*
X155752704Y-99393952D01*
X155181276Y-99965380D01*
X155800323Y-99965380D01*
%TD*%
M02*
