M48
;DRILL file {KiCad (2017-11-19 revision 8b2b138)-master} date Monday, January 29, 2018 'PMt' 09:56:00 PM
;FORMAT={2:4/ absolute / inch / suppress leading zeros}
FMAT,2
INCH,TZ
T1C0.016
T2C0.018
T3C0.020
T4C0.040
%
G90
G05
M72
T1
X54724Y-37795
X54724Y-38386
X54724Y-38976
X54724Y-39567
X56693Y-38878
X56693Y-39370
X57321Y-31693
X57321Y-31693
X58268Y-31732
X58926Y-31904
X59016Y-35787
X59467Y-33749
X60276Y-31654
X62165Y-33661
X63030Y-36300
T2
X54181Y-39992
X57630Y-39992
T3
X54173Y-39370
X54705Y-30098
X55709Y-31791
X56496Y-36260
X56496Y-38189
X56969Y-34803
X57207Y-39801
X58425Y-38376
X58524Y-41949
X59055Y-39272
X59055Y-41850
X59508Y-38150
X59764Y-39281
X60246Y-39390
X60531Y-39961
X60571Y-40994
X61220Y-31693
X62185Y-30098
X63091Y-41909
T4
X54030Y-30300
X54030Y-31300
X54030Y-32300
X54030Y-33300
X54030Y-34300
X54030Y-35300
X54030Y-36300
X54030Y-37300
X63030Y-30300
X63030Y-31300
X63030Y-32300
X63030Y-33300
X63030Y-34300
X63030Y-35300
X63030Y-36300
X63030Y-37300
T0
M30
