%TF.GenerationSoftware,KiCad,Pcbnew,(2017-11-19 revision 8b2b138)-master*%
%TF.CreationDate,2018-01-29T21:55:45-08:00*%
%TF.ProjectId,lora_nodemcu,6C6F72615F6E6F64656D63752E6B6963,rev?*%
%TF.SameCoordinates,Original*%
%TF.FileFunction,Copper,L2,Inr,Plane*%
%TF.FilePolarity,Positive*%
%FSLAX46Y46*%
G04 Gerber Fmt 4.6, Leading zero omitted, Abs format (unit mm)*
G04 Created by KiCad (PCBNEW (2017-11-19 revision 8b2b138)-master) date Monday, January 29, 2018 'PMt' 09:55:45 PM*
%MOMM*%
%LPD*%
G01*
G04 APERTURE LIST*
%TA.AperFunction,ViaPad*%
%ADD10C,1.800000*%
%TD*%
%TA.AperFunction,ViaPad*%
%ADD11C,0.970000*%
%TD*%
%TA.AperFunction,ViaPad*%
%ADD12C,0.600000*%
%TD*%
%TA.AperFunction,ViaPad*%
%ADD13C,0.800000*%
%TD*%
%TA.AperFunction,Conductor*%
%ADD14C,0.254000*%
%TD*%
G04 APERTURE END LIST*
D10*
%TO.N,Net-(U3-Pad8)*%
%TO.C,U3*%
X137236200Y-76962000D03*
%TO.N,Net-(U3-Pad7)*%
X137236200Y-79502000D03*
%TO.N,Net-(R2-Pad1)*%
X137236200Y-82042000D03*
%TO.N,Net-(R1-Pad1)*%
X137236200Y-84582000D03*
%TO.N,Net-(U3-Pad4)*%
X137236200Y-87122000D03*
%TO.N,Net-(U3-Pad3)*%
X137236200Y-89662000D03*
%TO.N,GND*%
X137236200Y-92202000D03*
%TO.N,/wemos_5V*%
X137236200Y-94742000D03*
%TO.N,Net-(C5-Pad2)*%
X160096200Y-94742000D03*
%TO.N,/SS*%
X160096200Y-92202000D03*
%TO.N,/MOSI*%
X160096200Y-89662000D03*
%TO.N,/MISO*%
X160096200Y-87122000D03*
%TO.N,/SCK*%
X160096200Y-84582000D03*
%TO.N,Net-(U3-Pad11)*%
X160096200Y-82042000D03*
%TO.N,Net-(U3-Pad10)*%
X160096200Y-79502000D03*
%TO.N,Net-(U3-Pad9)*%
X160096200Y-76962000D03*
%TD*%
D11*
%TO.N,GND*%
%TO.C,AE1*%
X137620000Y-101580000D03*
X146380000Y-101580000D03*
%TD*%
D12*
%TO.N,Net-(R1-Pad2)*%
X149900000Y-90900000D03*
%TO.N,Net-(R2-Pad2)*%
X145594409Y-80499601D03*
X145594409Y-80499601D03*
%TO.N,/SS*%
X160096200Y-92202000D03*
%TO.N,Net-(R3-Pad2)*%
X148000000Y-80600000D03*
%TO.N,/SCK*%
X157900000Y-85500000D03*
%TO.N,Net-(R4-Pad2)*%
X149670978Y-81036697D03*
%TO.N,Net-(R5-Pad2)*%
X153100000Y-80400000D03*
%TO.N,Net-(R6-Pad2)*%
X151045786Y-85723543D03*
D13*
%TO.N,GND*%
X144700000Y-88400000D03*
X138950000Y-76450000D03*
X157950000Y-76450000D03*
X160250000Y-106450000D03*
X148650000Y-106550000D03*
X150000000Y-99750000D03*
X143500000Y-92100000D03*
D12*
X144000000Y-98750000D03*
X139000000Y-97500000D03*
X139000000Y-96000000D03*
X139000000Y-100500000D03*
X144000000Y-100000000D03*
X139000000Y-99000000D03*
D13*
X143500000Y-97000000D03*
X155500000Y-80500000D03*
X141500000Y-80750000D03*
X153750000Y-101500000D03*
X148400000Y-97475000D03*
X151800000Y-99775000D03*
X153025000Y-100050000D03*
X145304999Y-101095001D03*
X137600000Y-100000000D03*
%TO.N,+3V3*%
X153850000Y-104125000D03*
%TO.N,+5V*%
X150000000Y-106300000D03*
%TO.N,/RF95_3V3*%
X151150000Y-96900000D03*
%TD*%
D14*
%TO.N,GND*%
G36*
X161215000Y-76456628D02*
X161137006Y-76267869D01*
X160792147Y-75922407D01*
X160341336Y-75735214D01*
X159853205Y-75734788D01*
X159402069Y-75921194D01*
X159056607Y-76266053D01*
X158869414Y-76716864D01*
X158868988Y-77204995D01*
X159055394Y-77656131D01*
X159400253Y-78001593D01*
X159851064Y-78188786D01*
X160339195Y-78189212D01*
X160790331Y-78002806D01*
X161135793Y-77657947D01*
X161215000Y-77467195D01*
X161215000Y-78996628D01*
X161137006Y-78807869D01*
X160792147Y-78462407D01*
X160341336Y-78275214D01*
X159853205Y-78274788D01*
X159402069Y-78461194D01*
X159056607Y-78806053D01*
X158869414Y-79256864D01*
X158868988Y-79744995D01*
X159055394Y-80196131D01*
X159400253Y-80541593D01*
X159851064Y-80728786D01*
X160339195Y-80729212D01*
X160790331Y-80542806D01*
X161135793Y-80197947D01*
X161215000Y-80007195D01*
X161215000Y-81536628D01*
X161137006Y-81347869D01*
X160792147Y-81002407D01*
X160341336Y-80815214D01*
X159853205Y-80814788D01*
X159402069Y-81001194D01*
X159056607Y-81346053D01*
X158869414Y-81796864D01*
X158868988Y-82284995D01*
X159055394Y-82736131D01*
X159400253Y-83081593D01*
X159851064Y-83268786D01*
X160339195Y-83269212D01*
X160790331Y-83082806D01*
X161135793Y-82737947D01*
X161215000Y-82547195D01*
X161215000Y-84076628D01*
X161137006Y-83887869D01*
X160792147Y-83542407D01*
X160341336Y-83355214D01*
X159853205Y-83354788D01*
X159402069Y-83541194D01*
X159056607Y-83886053D01*
X158869414Y-84336864D01*
X158868988Y-84824995D01*
X159055394Y-85276131D01*
X159400253Y-85621593D01*
X159851064Y-85808786D01*
X160339195Y-85809212D01*
X160790331Y-85622806D01*
X161135793Y-85277947D01*
X161215000Y-85087195D01*
X161215000Y-86616628D01*
X161137006Y-86427869D01*
X160792147Y-86082407D01*
X160341336Y-85895214D01*
X159853205Y-85894788D01*
X159402069Y-86081194D01*
X159056607Y-86426053D01*
X158869414Y-86876864D01*
X158868988Y-87364995D01*
X159055394Y-87816131D01*
X159400253Y-88161593D01*
X159851064Y-88348786D01*
X160339195Y-88349212D01*
X160790331Y-88162806D01*
X161135793Y-87817947D01*
X161215000Y-87627195D01*
X161215000Y-89156628D01*
X161137006Y-88967869D01*
X160792147Y-88622407D01*
X160341336Y-88435214D01*
X159853205Y-88434788D01*
X159402069Y-88621194D01*
X159056607Y-88966053D01*
X158869414Y-89416864D01*
X158868988Y-89904995D01*
X159055394Y-90356131D01*
X159400253Y-90701593D01*
X159851064Y-90888786D01*
X160339195Y-90889212D01*
X160790331Y-90702806D01*
X161135793Y-90357947D01*
X161215000Y-90167195D01*
X161215000Y-91696628D01*
X161137006Y-91507869D01*
X160792147Y-91162407D01*
X160341336Y-90975214D01*
X159853205Y-90974788D01*
X159402069Y-91161194D01*
X159056607Y-91506053D01*
X158869414Y-91956864D01*
X158868988Y-92444995D01*
X159055394Y-92896131D01*
X159400253Y-93241593D01*
X159851064Y-93428786D01*
X160339195Y-93429212D01*
X160790331Y-93242806D01*
X161135793Y-92897947D01*
X161215000Y-92707195D01*
X161215000Y-94236628D01*
X161137006Y-94047869D01*
X160792147Y-93702407D01*
X160341336Y-93515214D01*
X159853205Y-93514788D01*
X159402069Y-93701194D01*
X159056607Y-94046053D01*
X158869414Y-94496864D01*
X158868988Y-94984995D01*
X159055394Y-95436131D01*
X159400253Y-95781593D01*
X159851064Y-95968786D01*
X160339195Y-95969212D01*
X160790331Y-95782806D01*
X161135793Y-95437947D01*
X161215000Y-95247195D01*
X161215000Y-107519400D01*
X145327000Y-107519400D01*
X145327000Y-106443975D01*
X149272874Y-106443975D01*
X149383320Y-106711275D01*
X149587650Y-106915961D01*
X149854756Y-107026874D01*
X150143975Y-107027126D01*
X150411275Y-106916680D01*
X150615961Y-106712350D01*
X150726874Y-106445244D01*
X150727126Y-106156025D01*
X150616680Y-105888725D01*
X150412350Y-105684039D01*
X150145244Y-105573126D01*
X149856025Y-105572874D01*
X149588725Y-105683320D01*
X149384039Y-105887650D01*
X149273126Y-106154756D01*
X149272874Y-106443975D01*
X145327000Y-106443975D01*
X145327000Y-104268975D01*
X153122874Y-104268975D01*
X153233320Y-104536275D01*
X153437650Y-104740961D01*
X153704756Y-104851874D01*
X153993975Y-104852126D01*
X154261275Y-104741680D01*
X154465961Y-104537350D01*
X154576874Y-104270244D01*
X154577126Y-103981025D01*
X154466680Y-103713725D01*
X154262350Y-103509039D01*
X153995244Y-103398126D01*
X153706025Y-103397874D01*
X153438725Y-103508320D01*
X153234039Y-103712650D01*
X153123126Y-103979756D01*
X153122874Y-104268975D01*
X145327000Y-104268975D01*
X145327000Y-102359200D01*
X145780405Y-102359200D01*
X145815692Y-102572768D01*
X146238564Y-102713149D01*
X146682968Y-102681018D01*
X146944308Y-102572768D01*
X146979595Y-102359200D01*
X146380000Y-101759605D01*
X145780405Y-102359200D01*
X145327000Y-102359200D01*
X145327000Y-102300000D01*
X145317333Y-102251399D01*
X145289803Y-102210197D01*
X145248601Y-102182667D01*
X145200000Y-102173000D01*
X139000000Y-102173000D01*
X138951399Y-102182667D01*
X138910197Y-102210197D01*
X138882667Y-102251399D01*
X138873000Y-102300000D01*
X138873000Y-107519400D01*
X136205343Y-107519400D01*
X136191389Y-102359200D01*
X137020405Y-102359200D01*
X137055692Y-102572768D01*
X137478564Y-102713149D01*
X137922968Y-102681018D01*
X138184308Y-102572768D01*
X138219595Y-102359200D01*
X137620000Y-101759605D01*
X137020405Y-102359200D01*
X136191389Y-102359200D01*
X136188899Y-101438564D01*
X136486851Y-101438564D01*
X136518982Y-101882968D01*
X136627232Y-102144308D01*
X136840800Y-102179595D01*
X137440395Y-101580000D01*
X137799605Y-101580000D01*
X138399200Y-102179595D01*
X138612768Y-102144308D01*
X138753149Y-101721436D01*
X138732697Y-101438564D01*
X145246851Y-101438564D01*
X145278982Y-101882968D01*
X145387232Y-102144308D01*
X145600800Y-102179595D01*
X146200395Y-101580000D01*
X146559605Y-101580000D01*
X147159200Y-102179595D01*
X147372768Y-102144308D01*
X147513149Y-101721436D01*
X147481018Y-101277032D01*
X147372768Y-101015692D01*
X147159200Y-100980405D01*
X146559605Y-101580000D01*
X146200395Y-101580000D01*
X145600800Y-100980405D01*
X145387232Y-101015692D01*
X145246851Y-101438564D01*
X138732697Y-101438564D01*
X138721018Y-101277032D01*
X138612768Y-101015692D01*
X138399200Y-100980405D01*
X137799605Y-101580000D01*
X137440395Y-101580000D01*
X136840800Y-100980405D01*
X136627232Y-101015692D01*
X136486851Y-101438564D01*
X136188899Y-101438564D01*
X136187175Y-100800800D01*
X137020405Y-100800800D01*
X137620000Y-101400395D01*
X138219595Y-100800800D01*
X145780405Y-100800800D01*
X146380000Y-101400395D01*
X146979595Y-100800800D01*
X146944308Y-100587232D01*
X146521436Y-100446851D01*
X146077032Y-100478982D01*
X145815692Y-100587232D01*
X145780405Y-100800800D01*
X138219595Y-100800800D01*
X138184308Y-100587232D01*
X137761436Y-100446851D01*
X137317032Y-100478982D01*
X137055692Y-100587232D01*
X137020405Y-100800800D01*
X136187175Y-100800800D01*
X136177016Y-97043975D01*
X150422874Y-97043975D01*
X150533320Y-97311275D01*
X150737650Y-97515961D01*
X151004756Y-97626874D01*
X151293975Y-97627126D01*
X151561275Y-97516680D01*
X151765961Y-97312350D01*
X151876874Y-97045244D01*
X151877126Y-96756025D01*
X151766680Y-96488725D01*
X151562350Y-96284039D01*
X151295244Y-96173126D01*
X151006025Y-96172874D01*
X150738725Y-96283320D01*
X150534039Y-96487650D01*
X150423126Y-96754756D01*
X150422874Y-97043975D01*
X136177016Y-97043975D01*
X136172517Y-95380764D01*
X136195394Y-95436131D01*
X136540253Y-95781593D01*
X136991064Y-95968786D01*
X137479195Y-95969212D01*
X137930331Y-95782806D01*
X138275793Y-95437947D01*
X138462986Y-94987136D01*
X138463412Y-94499005D01*
X138277006Y-94047869D01*
X137932147Y-93702407D01*
X137793738Y-93644935D01*
X138050348Y-93538643D01*
X138136754Y-93282159D01*
X137236200Y-92381605D01*
X136335646Y-93282159D01*
X136422052Y-93538643D01*
X136694359Y-93638269D01*
X136542069Y-93701194D01*
X136196607Y-94046053D01*
X136169087Y-94112329D01*
X136166328Y-93092267D01*
X137056595Y-92202000D01*
X137415805Y-92202000D01*
X138316359Y-93102554D01*
X138572843Y-93016148D01*
X138782658Y-92442664D01*
X138757039Y-91832540D01*
X138572843Y-91387852D01*
X138316359Y-91301446D01*
X137415805Y-92202000D01*
X137056595Y-92202000D01*
X136161500Y-91306905D01*
X136158689Y-90267297D01*
X136195394Y-90356131D01*
X136540253Y-90701593D01*
X136678662Y-90759065D01*
X136422052Y-90865357D01*
X136335646Y-91121841D01*
X137236200Y-92022395D01*
X138136754Y-91121841D01*
X138103851Y-91024171D01*
X149272891Y-91024171D01*
X149368145Y-91254703D01*
X149544369Y-91431235D01*
X149774735Y-91526891D01*
X150024171Y-91527109D01*
X150254703Y-91431855D01*
X150431235Y-91255631D01*
X150526891Y-91025265D01*
X150527109Y-90775829D01*
X150431855Y-90545297D01*
X150255631Y-90368765D01*
X150025265Y-90273109D01*
X149775829Y-90272891D01*
X149545297Y-90368145D01*
X149368765Y-90544369D01*
X149273109Y-90774735D01*
X149272891Y-91024171D01*
X138103851Y-91024171D01*
X138050348Y-90865357D01*
X137778041Y-90765731D01*
X137930331Y-90702806D01*
X138275793Y-90357947D01*
X138462986Y-89907136D01*
X138463412Y-89419005D01*
X138277006Y-88967869D01*
X137932147Y-88622407D01*
X137481336Y-88435214D01*
X136993205Y-88434788D01*
X136542069Y-88621194D01*
X136196607Y-88966053D01*
X136155438Y-89065199D01*
X136151775Y-87710564D01*
X136195394Y-87816131D01*
X136540253Y-88161593D01*
X136991064Y-88348786D01*
X137479195Y-88349212D01*
X137930331Y-88162806D01*
X138275793Y-87817947D01*
X138462986Y-87367136D01*
X138463412Y-86879005D01*
X138277006Y-86427869D01*
X137932147Y-86082407D01*
X137481336Y-85895214D01*
X136993205Y-85894788D01*
X136542069Y-86081194D01*
X136196607Y-86426053D01*
X136148613Y-86541634D01*
X136146737Y-85847714D01*
X150418677Y-85847714D01*
X150513931Y-86078246D01*
X150690155Y-86254778D01*
X150920521Y-86350434D01*
X151169957Y-86350652D01*
X151400489Y-86255398D01*
X151577021Y-86079174D01*
X151672677Y-85848808D01*
X151672873Y-85624171D01*
X157272891Y-85624171D01*
X157368145Y-85854703D01*
X157544369Y-86031235D01*
X157774735Y-86126891D01*
X158024171Y-86127109D01*
X158254703Y-86031855D01*
X158431235Y-85855631D01*
X158526891Y-85625265D01*
X158527109Y-85375829D01*
X158431855Y-85145297D01*
X158255631Y-84968765D01*
X158025265Y-84873109D01*
X157775829Y-84872891D01*
X157545297Y-84968145D01*
X157368765Y-85144369D01*
X157273109Y-85374735D01*
X157272891Y-85624171D01*
X151672873Y-85624171D01*
X151672895Y-85599372D01*
X151577641Y-85368840D01*
X151401417Y-85192308D01*
X151171051Y-85096652D01*
X150921615Y-85096434D01*
X150691083Y-85191688D01*
X150514551Y-85367912D01*
X150418895Y-85598278D01*
X150418677Y-85847714D01*
X136146737Y-85847714D01*
X136144860Y-85153831D01*
X136195394Y-85276131D01*
X136540253Y-85621593D01*
X136991064Y-85808786D01*
X137479195Y-85809212D01*
X137930331Y-85622806D01*
X138275793Y-85277947D01*
X138462986Y-84827136D01*
X138463412Y-84339005D01*
X138277006Y-83887869D01*
X137932147Y-83542407D01*
X137481336Y-83355214D01*
X136993205Y-83354788D01*
X136542069Y-83541194D01*
X136196607Y-83886053D01*
X136141789Y-84018069D01*
X136137946Y-82597097D01*
X136195394Y-82736131D01*
X136540253Y-83081593D01*
X136991064Y-83268786D01*
X137479195Y-83269212D01*
X137930331Y-83082806D01*
X138275793Y-82737947D01*
X138462986Y-82287136D01*
X138463412Y-81799005D01*
X138277006Y-81347869D01*
X137932147Y-81002407D01*
X137481336Y-80815214D01*
X136993205Y-80814788D01*
X136542069Y-81001194D01*
X136196607Y-81346053D01*
X136134965Y-81494505D01*
X136131032Y-80040364D01*
X136195394Y-80196131D01*
X136540253Y-80541593D01*
X136991064Y-80728786D01*
X137479195Y-80729212D01*
X137734378Y-80623772D01*
X144967300Y-80623772D01*
X145062554Y-80854304D01*
X145238778Y-81030836D01*
X145469144Y-81126492D01*
X145718580Y-81126710D01*
X145949112Y-81031456D01*
X146125644Y-80855232D01*
X146180065Y-80724171D01*
X147372891Y-80724171D01*
X147468145Y-80954703D01*
X147644369Y-81131235D01*
X147874735Y-81226891D01*
X148124171Y-81227109D01*
X148284486Y-81160868D01*
X149043869Y-81160868D01*
X149139123Y-81391400D01*
X149315347Y-81567932D01*
X149545713Y-81663588D01*
X149795149Y-81663806D01*
X150025681Y-81568552D01*
X150202213Y-81392328D01*
X150297869Y-81161962D01*
X150298087Y-80912526D01*
X150202833Y-80681994D01*
X150045286Y-80524171D01*
X152472891Y-80524171D01*
X152568145Y-80754703D01*
X152744369Y-80931235D01*
X152974735Y-81026891D01*
X153224171Y-81027109D01*
X153454703Y-80931855D01*
X153631235Y-80755631D01*
X153726891Y-80525265D01*
X153727109Y-80275829D01*
X153631855Y-80045297D01*
X153455631Y-79868765D01*
X153225265Y-79773109D01*
X152975829Y-79772891D01*
X152745297Y-79868145D01*
X152568765Y-80044369D01*
X152473109Y-80274735D01*
X152472891Y-80524171D01*
X150045286Y-80524171D01*
X150026609Y-80505462D01*
X149796243Y-80409806D01*
X149546807Y-80409588D01*
X149316275Y-80504842D01*
X149139743Y-80681066D01*
X149044087Y-80911432D01*
X149043869Y-81160868D01*
X148284486Y-81160868D01*
X148354703Y-81131855D01*
X148531235Y-80955631D01*
X148626891Y-80725265D01*
X148627109Y-80475829D01*
X148531855Y-80245297D01*
X148355631Y-80068765D01*
X148125265Y-79973109D01*
X147875829Y-79972891D01*
X147645297Y-80068145D01*
X147468765Y-80244369D01*
X147373109Y-80474735D01*
X147372891Y-80724171D01*
X146180065Y-80724171D01*
X146221300Y-80624866D01*
X146221518Y-80375430D01*
X146126264Y-80144898D01*
X145950040Y-79968366D01*
X145719674Y-79872710D01*
X145470238Y-79872492D01*
X145239706Y-79967746D01*
X145063174Y-80143970D01*
X144967518Y-80374336D01*
X144967300Y-80623772D01*
X137734378Y-80623772D01*
X137930331Y-80542806D01*
X138275793Y-80197947D01*
X138462986Y-79747136D01*
X138463412Y-79259005D01*
X138277006Y-78807869D01*
X137932147Y-78462407D01*
X137481336Y-78275214D01*
X136993205Y-78274788D01*
X136542069Y-78461194D01*
X136196607Y-78806053D01*
X136128140Y-78970940D01*
X136124118Y-77483630D01*
X136195394Y-77656131D01*
X136540253Y-78001593D01*
X136991064Y-78188786D01*
X137479195Y-78189212D01*
X137930331Y-78002806D01*
X138275793Y-77657947D01*
X138462986Y-77207136D01*
X138463412Y-76719005D01*
X138277006Y-76267869D01*
X137932147Y-75922407D01*
X137481336Y-75735214D01*
X136993205Y-75734788D01*
X136542069Y-75921194D01*
X136196607Y-76266053D01*
X136121316Y-76447375D01*
X136118360Y-75354400D01*
X161215000Y-75354400D01*
X161215000Y-76456628D01*
X161215000Y-76456628D01*
G37*
X161215000Y-76456628D02*
X161137006Y-76267869D01*
X160792147Y-75922407D01*
X160341336Y-75735214D01*
X159853205Y-75734788D01*
X159402069Y-75921194D01*
X159056607Y-76266053D01*
X158869414Y-76716864D01*
X158868988Y-77204995D01*
X159055394Y-77656131D01*
X159400253Y-78001593D01*
X159851064Y-78188786D01*
X160339195Y-78189212D01*
X160790331Y-78002806D01*
X161135793Y-77657947D01*
X161215000Y-77467195D01*
X161215000Y-78996628D01*
X161137006Y-78807869D01*
X160792147Y-78462407D01*
X160341336Y-78275214D01*
X159853205Y-78274788D01*
X159402069Y-78461194D01*
X159056607Y-78806053D01*
X158869414Y-79256864D01*
X158868988Y-79744995D01*
X159055394Y-80196131D01*
X159400253Y-80541593D01*
X159851064Y-80728786D01*
X160339195Y-80729212D01*
X160790331Y-80542806D01*
X161135793Y-80197947D01*
X161215000Y-80007195D01*
X161215000Y-81536628D01*
X161137006Y-81347869D01*
X160792147Y-81002407D01*
X160341336Y-80815214D01*
X159853205Y-80814788D01*
X159402069Y-81001194D01*
X159056607Y-81346053D01*
X158869414Y-81796864D01*
X158868988Y-82284995D01*
X159055394Y-82736131D01*
X159400253Y-83081593D01*
X159851064Y-83268786D01*
X160339195Y-83269212D01*
X160790331Y-83082806D01*
X161135793Y-82737947D01*
X161215000Y-82547195D01*
X161215000Y-84076628D01*
X161137006Y-83887869D01*
X160792147Y-83542407D01*
X160341336Y-83355214D01*
X159853205Y-83354788D01*
X159402069Y-83541194D01*
X159056607Y-83886053D01*
X158869414Y-84336864D01*
X158868988Y-84824995D01*
X159055394Y-85276131D01*
X159400253Y-85621593D01*
X159851064Y-85808786D01*
X160339195Y-85809212D01*
X160790331Y-85622806D01*
X161135793Y-85277947D01*
X161215000Y-85087195D01*
X161215000Y-86616628D01*
X161137006Y-86427869D01*
X160792147Y-86082407D01*
X160341336Y-85895214D01*
X159853205Y-85894788D01*
X159402069Y-86081194D01*
X159056607Y-86426053D01*
X158869414Y-86876864D01*
X158868988Y-87364995D01*
X159055394Y-87816131D01*
X159400253Y-88161593D01*
X159851064Y-88348786D01*
X160339195Y-88349212D01*
X160790331Y-88162806D01*
X161135793Y-87817947D01*
X161215000Y-87627195D01*
X161215000Y-89156628D01*
X161137006Y-88967869D01*
X160792147Y-88622407D01*
X160341336Y-88435214D01*
X159853205Y-88434788D01*
X159402069Y-88621194D01*
X159056607Y-88966053D01*
X158869414Y-89416864D01*
X158868988Y-89904995D01*
X159055394Y-90356131D01*
X159400253Y-90701593D01*
X159851064Y-90888786D01*
X160339195Y-90889212D01*
X160790331Y-90702806D01*
X161135793Y-90357947D01*
X161215000Y-90167195D01*
X161215000Y-91696628D01*
X161137006Y-91507869D01*
X160792147Y-91162407D01*
X160341336Y-90975214D01*
X159853205Y-90974788D01*
X159402069Y-91161194D01*
X159056607Y-91506053D01*
X158869414Y-91956864D01*
X158868988Y-92444995D01*
X159055394Y-92896131D01*
X159400253Y-93241593D01*
X159851064Y-93428786D01*
X160339195Y-93429212D01*
X160790331Y-93242806D01*
X161135793Y-92897947D01*
X161215000Y-92707195D01*
X161215000Y-94236628D01*
X161137006Y-94047869D01*
X160792147Y-93702407D01*
X160341336Y-93515214D01*
X159853205Y-93514788D01*
X159402069Y-93701194D01*
X159056607Y-94046053D01*
X158869414Y-94496864D01*
X158868988Y-94984995D01*
X159055394Y-95436131D01*
X159400253Y-95781593D01*
X159851064Y-95968786D01*
X160339195Y-95969212D01*
X160790331Y-95782806D01*
X161135793Y-95437947D01*
X161215000Y-95247195D01*
X161215000Y-107519400D01*
X145327000Y-107519400D01*
X145327000Y-106443975D01*
X149272874Y-106443975D01*
X149383320Y-106711275D01*
X149587650Y-106915961D01*
X149854756Y-107026874D01*
X150143975Y-107027126D01*
X150411275Y-106916680D01*
X150615961Y-106712350D01*
X150726874Y-106445244D01*
X150727126Y-106156025D01*
X150616680Y-105888725D01*
X150412350Y-105684039D01*
X150145244Y-105573126D01*
X149856025Y-105572874D01*
X149588725Y-105683320D01*
X149384039Y-105887650D01*
X149273126Y-106154756D01*
X149272874Y-106443975D01*
X145327000Y-106443975D01*
X145327000Y-104268975D01*
X153122874Y-104268975D01*
X153233320Y-104536275D01*
X153437650Y-104740961D01*
X153704756Y-104851874D01*
X153993975Y-104852126D01*
X154261275Y-104741680D01*
X154465961Y-104537350D01*
X154576874Y-104270244D01*
X154577126Y-103981025D01*
X154466680Y-103713725D01*
X154262350Y-103509039D01*
X153995244Y-103398126D01*
X153706025Y-103397874D01*
X153438725Y-103508320D01*
X153234039Y-103712650D01*
X153123126Y-103979756D01*
X153122874Y-104268975D01*
X145327000Y-104268975D01*
X145327000Y-102359200D01*
X145780405Y-102359200D01*
X145815692Y-102572768D01*
X146238564Y-102713149D01*
X146682968Y-102681018D01*
X146944308Y-102572768D01*
X146979595Y-102359200D01*
X146380000Y-101759605D01*
X145780405Y-102359200D01*
X145327000Y-102359200D01*
X145327000Y-102300000D01*
X145317333Y-102251399D01*
X145289803Y-102210197D01*
X145248601Y-102182667D01*
X145200000Y-102173000D01*
X139000000Y-102173000D01*
X138951399Y-102182667D01*
X138910197Y-102210197D01*
X138882667Y-102251399D01*
X138873000Y-102300000D01*
X138873000Y-107519400D01*
X136205343Y-107519400D01*
X136191389Y-102359200D01*
X137020405Y-102359200D01*
X137055692Y-102572768D01*
X137478564Y-102713149D01*
X137922968Y-102681018D01*
X138184308Y-102572768D01*
X138219595Y-102359200D01*
X137620000Y-101759605D01*
X137020405Y-102359200D01*
X136191389Y-102359200D01*
X136188899Y-101438564D01*
X136486851Y-101438564D01*
X136518982Y-101882968D01*
X136627232Y-102144308D01*
X136840800Y-102179595D01*
X137440395Y-101580000D01*
X137799605Y-101580000D01*
X138399200Y-102179595D01*
X138612768Y-102144308D01*
X138753149Y-101721436D01*
X138732697Y-101438564D01*
X145246851Y-101438564D01*
X145278982Y-101882968D01*
X145387232Y-102144308D01*
X145600800Y-102179595D01*
X146200395Y-101580000D01*
X146559605Y-101580000D01*
X147159200Y-102179595D01*
X147372768Y-102144308D01*
X147513149Y-101721436D01*
X147481018Y-101277032D01*
X147372768Y-101015692D01*
X147159200Y-100980405D01*
X146559605Y-101580000D01*
X146200395Y-101580000D01*
X145600800Y-100980405D01*
X145387232Y-101015692D01*
X145246851Y-101438564D01*
X138732697Y-101438564D01*
X138721018Y-101277032D01*
X138612768Y-101015692D01*
X138399200Y-100980405D01*
X137799605Y-101580000D01*
X137440395Y-101580000D01*
X136840800Y-100980405D01*
X136627232Y-101015692D01*
X136486851Y-101438564D01*
X136188899Y-101438564D01*
X136187175Y-100800800D01*
X137020405Y-100800800D01*
X137620000Y-101400395D01*
X138219595Y-100800800D01*
X145780405Y-100800800D01*
X146380000Y-101400395D01*
X146979595Y-100800800D01*
X146944308Y-100587232D01*
X146521436Y-100446851D01*
X146077032Y-100478982D01*
X145815692Y-100587232D01*
X145780405Y-100800800D01*
X138219595Y-100800800D01*
X138184308Y-100587232D01*
X137761436Y-100446851D01*
X137317032Y-100478982D01*
X137055692Y-100587232D01*
X137020405Y-100800800D01*
X136187175Y-100800800D01*
X136177016Y-97043975D01*
X150422874Y-97043975D01*
X150533320Y-97311275D01*
X150737650Y-97515961D01*
X151004756Y-97626874D01*
X151293975Y-97627126D01*
X151561275Y-97516680D01*
X151765961Y-97312350D01*
X151876874Y-97045244D01*
X151877126Y-96756025D01*
X151766680Y-96488725D01*
X151562350Y-96284039D01*
X151295244Y-96173126D01*
X151006025Y-96172874D01*
X150738725Y-96283320D01*
X150534039Y-96487650D01*
X150423126Y-96754756D01*
X150422874Y-97043975D01*
X136177016Y-97043975D01*
X136172517Y-95380764D01*
X136195394Y-95436131D01*
X136540253Y-95781593D01*
X136991064Y-95968786D01*
X137479195Y-95969212D01*
X137930331Y-95782806D01*
X138275793Y-95437947D01*
X138462986Y-94987136D01*
X138463412Y-94499005D01*
X138277006Y-94047869D01*
X137932147Y-93702407D01*
X137793738Y-93644935D01*
X138050348Y-93538643D01*
X138136754Y-93282159D01*
X137236200Y-92381605D01*
X136335646Y-93282159D01*
X136422052Y-93538643D01*
X136694359Y-93638269D01*
X136542069Y-93701194D01*
X136196607Y-94046053D01*
X136169087Y-94112329D01*
X136166328Y-93092267D01*
X137056595Y-92202000D01*
X137415805Y-92202000D01*
X138316359Y-93102554D01*
X138572843Y-93016148D01*
X138782658Y-92442664D01*
X138757039Y-91832540D01*
X138572843Y-91387852D01*
X138316359Y-91301446D01*
X137415805Y-92202000D01*
X137056595Y-92202000D01*
X136161500Y-91306905D01*
X136158689Y-90267297D01*
X136195394Y-90356131D01*
X136540253Y-90701593D01*
X136678662Y-90759065D01*
X136422052Y-90865357D01*
X136335646Y-91121841D01*
X137236200Y-92022395D01*
X138136754Y-91121841D01*
X138103851Y-91024171D01*
X149272891Y-91024171D01*
X149368145Y-91254703D01*
X149544369Y-91431235D01*
X149774735Y-91526891D01*
X150024171Y-91527109D01*
X150254703Y-91431855D01*
X150431235Y-91255631D01*
X150526891Y-91025265D01*
X150527109Y-90775829D01*
X150431855Y-90545297D01*
X150255631Y-90368765D01*
X150025265Y-90273109D01*
X149775829Y-90272891D01*
X149545297Y-90368145D01*
X149368765Y-90544369D01*
X149273109Y-90774735D01*
X149272891Y-91024171D01*
X138103851Y-91024171D01*
X138050348Y-90865357D01*
X137778041Y-90765731D01*
X137930331Y-90702806D01*
X138275793Y-90357947D01*
X138462986Y-89907136D01*
X138463412Y-89419005D01*
X138277006Y-88967869D01*
X137932147Y-88622407D01*
X137481336Y-88435214D01*
X136993205Y-88434788D01*
X136542069Y-88621194D01*
X136196607Y-88966053D01*
X136155438Y-89065199D01*
X136151775Y-87710564D01*
X136195394Y-87816131D01*
X136540253Y-88161593D01*
X136991064Y-88348786D01*
X137479195Y-88349212D01*
X137930331Y-88162806D01*
X138275793Y-87817947D01*
X138462986Y-87367136D01*
X138463412Y-86879005D01*
X138277006Y-86427869D01*
X137932147Y-86082407D01*
X137481336Y-85895214D01*
X136993205Y-85894788D01*
X136542069Y-86081194D01*
X136196607Y-86426053D01*
X136148613Y-86541634D01*
X136146737Y-85847714D01*
X150418677Y-85847714D01*
X150513931Y-86078246D01*
X150690155Y-86254778D01*
X150920521Y-86350434D01*
X151169957Y-86350652D01*
X151400489Y-86255398D01*
X151577021Y-86079174D01*
X151672677Y-85848808D01*
X151672873Y-85624171D01*
X157272891Y-85624171D01*
X157368145Y-85854703D01*
X157544369Y-86031235D01*
X157774735Y-86126891D01*
X158024171Y-86127109D01*
X158254703Y-86031855D01*
X158431235Y-85855631D01*
X158526891Y-85625265D01*
X158527109Y-85375829D01*
X158431855Y-85145297D01*
X158255631Y-84968765D01*
X158025265Y-84873109D01*
X157775829Y-84872891D01*
X157545297Y-84968145D01*
X157368765Y-85144369D01*
X157273109Y-85374735D01*
X157272891Y-85624171D01*
X151672873Y-85624171D01*
X151672895Y-85599372D01*
X151577641Y-85368840D01*
X151401417Y-85192308D01*
X151171051Y-85096652D01*
X150921615Y-85096434D01*
X150691083Y-85191688D01*
X150514551Y-85367912D01*
X150418895Y-85598278D01*
X150418677Y-85847714D01*
X136146737Y-85847714D01*
X136144860Y-85153831D01*
X136195394Y-85276131D01*
X136540253Y-85621593D01*
X136991064Y-85808786D01*
X137479195Y-85809212D01*
X137930331Y-85622806D01*
X138275793Y-85277947D01*
X138462986Y-84827136D01*
X138463412Y-84339005D01*
X138277006Y-83887869D01*
X137932147Y-83542407D01*
X137481336Y-83355214D01*
X136993205Y-83354788D01*
X136542069Y-83541194D01*
X136196607Y-83886053D01*
X136141789Y-84018069D01*
X136137946Y-82597097D01*
X136195394Y-82736131D01*
X136540253Y-83081593D01*
X136991064Y-83268786D01*
X137479195Y-83269212D01*
X137930331Y-83082806D01*
X138275793Y-82737947D01*
X138462986Y-82287136D01*
X138463412Y-81799005D01*
X138277006Y-81347869D01*
X137932147Y-81002407D01*
X137481336Y-80815214D01*
X136993205Y-80814788D01*
X136542069Y-81001194D01*
X136196607Y-81346053D01*
X136134965Y-81494505D01*
X136131032Y-80040364D01*
X136195394Y-80196131D01*
X136540253Y-80541593D01*
X136991064Y-80728786D01*
X137479195Y-80729212D01*
X137734378Y-80623772D01*
X144967300Y-80623772D01*
X145062554Y-80854304D01*
X145238778Y-81030836D01*
X145469144Y-81126492D01*
X145718580Y-81126710D01*
X145949112Y-81031456D01*
X146125644Y-80855232D01*
X146180065Y-80724171D01*
X147372891Y-80724171D01*
X147468145Y-80954703D01*
X147644369Y-81131235D01*
X147874735Y-81226891D01*
X148124171Y-81227109D01*
X148284486Y-81160868D01*
X149043869Y-81160868D01*
X149139123Y-81391400D01*
X149315347Y-81567932D01*
X149545713Y-81663588D01*
X149795149Y-81663806D01*
X150025681Y-81568552D01*
X150202213Y-81392328D01*
X150297869Y-81161962D01*
X150298087Y-80912526D01*
X150202833Y-80681994D01*
X150045286Y-80524171D01*
X152472891Y-80524171D01*
X152568145Y-80754703D01*
X152744369Y-80931235D01*
X152974735Y-81026891D01*
X153224171Y-81027109D01*
X153454703Y-80931855D01*
X153631235Y-80755631D01*
X153726891Y-80525265D01*
X153727109Y-80275829D01*
X153631855Y-80045297D01*
X153455631Y-79868765D01*
X153225265Y-79773109D01*
X152975829Y-79772891D01*
X152745297Y-79868145D01*
X152568765Y-80044369D01*
X152473109Y-80274735D01*
X152472891Y-80524171D01*
X150045286Y-80524171D01*
X150026609Y-80505462D01*
X149796243Y-80409806D01*
X149546807Y-80409588D01*
X149316275Y-80504842D01*
X149139743Y-80681066D01*
X149044087Y-80911432D01*
X149043869Y-81160868D01*
X148284486Y-81160868D01*
X148354703Y-81131855D01*
X148531235Y-80955631D01*
X148626891Y-80725265D01*
X148627109Y-80475829D01*
X148531855Y-80245297D01*
X148355631Y-80068765D01*
X148125265Y-79973109D01*
X147875829Y-79972891D01*
X147645297Y-80068145D01*
X147468765Y-80244369D01*
X147373109Y-80474735D01*
X147372891Y-80724171D01*
X146180065Y-80724171D01*
X146221300Y-80624866D01*
X146221518Y-80375430D01*
X146126264Y-80144898D01*
X145950040Y-79968366D01*
X145719674Y-79872710D01*
X145470238Y-79872492D01*
X145239706Y-79967746D01*
X145063174Y-80143970D01*
X144967518Y-80374336D01*
X144967300Y-80623772D01*
X137734378Y-80623772D01*
X137930331Y-80542806D01*
X138275793Y-80197947D01*
X138462986Y-79747136D01*
X138463412Y-79259005D01*
X138277006Y-78807869D01*
X137932147Y-78462407D01*
X137481336Y-78275214D01*
X136993205Y-78274788D01*
X136542069Y-78461194D01*
X136196607Y-78806053D01*
X136128140Y-78970940D01*
X136124118Y-77483630D01*
X136195394Y-77656131D01*
X136540253Y-78001593D01*
X136991064Y-78188786D01*
X137479195Y-78189212D01*
X137930331Y-78002806D01*
X138275793Y-77657947D01*
X138462986Y-77207136D01*
X138463412Y-76719005D01*
X138277006Y-76267869D01*
X137932147Y-75922407D01*
X137481336Y-75735214D01*
X136993205Y-75734788D01*
X136542069Y-75921194D01*
X136196607Y-76266053D01*
X136121316Y-76447375D01*
X136118360Y-75354400D01*
X161215000Y-75354400D01*
X161215000Y-76456628D01*
%TD*%
M02*
