%TF.GenerationSoftware,KiCad,Pcbnew,no-vcs-found-c6d0075~61~ubuntu17.10.1*%
%TF.CreationDate,2018-01-30T21:37:05-08:00*%
%TF.ProjectId,lora_nodemcu,6C6F72615F6E6F64656D63752E6B6963,rev?*%
%TF.SameCoordinates,Original*%
%TF.FileFunction,Copper,L2,Inr,Plane*%
%TF.FilePolarity,Positive*%
%FSLAX46Y46*%
G04 Gerber Fmt 4.6, Leading zero omitted, Abs format (unit mm)*
G04 Created by KiCad (PCBNEW no-vcs-found-c6d0075~61~ubuntu17.10.1) date Tue Jan 30 21:37:05 2018*
%MOMM*%
%LPD*%
G01*
G04 APERTURE LIST*
%TA.AperFunction,ViaPad*%
%ADD10C,1.800000*%
%TD*%
%TA.AperFunction,ViaPad*%
%ADD11C,0.970000*%
%TD*%
%TA.AperFunction,ViaPad*%
%ADD12C,0.600000*%
%TD*%
%TA.AperFunction,ViaPad*%
%ADD13C,0.800000*%
%TD*%
%TA.AperFunction,Conductor*%
%ADD14C,0.254000*%
%TD*%
G04 APERTURE END LIST*
D10*
%TO.N,Net-(U3-Pad8)*%
%TO.C,U3*%
X137236200Y-76962000D03*
%TO.N,Net-(U3-Pad7)*%
X137236200Y-79502000D03*
%TO.N,Net-(R2-Pad1)*%
X137236200Y-82042000D03*
%TO.N,Net-(R1-Pad1)*%
X137236200Y-84582000D03*
%TO.N,Net-(U3-Pad4)*%
X137236200Y-87122000D03*
%TO.N,Net-(U3-Pad3)*%
X137236200Y-89662000D03*
%TO.N,GND*%
X137236200Y-92202000D03*
%TO.N,/wemos_5V*%
X137236200Y-94742000D03*
%TO.N,Net-(C5-Pad2)*%
X160096200Y-94742000D03*
%TO.N,/SS*%
X160096200Y-92202000D03*
%TO.N,/MOSI*%
X160096200Y-89662000D03*
%TO.N,/MISO*%
X160096200Y-87122000D03*
%TO.N,/SCK*%
X160096200Y-84582000D03*
%TO.N,Net-(U3-Pad11)*%
X160096200Y-82042000D03*
%TO.N,Net-(U3-Pad10)*%
X160096200Y-79502000D03*
%TO.N,Net-(U3-Pad9)*%
X160096200Y-76962000D03*
%TD*%
D11*
%TO.N,GND*%
%TO.C,AE1*%
X137620000Y-101580000D03*
X146380000Y-101580000D03*
%TD*%
D12*
%TO.N,Net-(R1-Pad2)*%
X149900000Y-90900000D03*
%TO.N,Net-(R2-Pad2)*%
X145594409Y-80499601D03*
X145594409Y-80499601D03*
%TO.N,/SS*%
X160096200Y-92202000D03*
%TO.N,Net-(R3-Pad2)*%
X148000000Y-80600000D03*
%TO.N,/SCK*%
X157900000Y-85500000D03*
%TO.N,Net-(R4-Pad2)*%
X149670978Y-81036697D03*
%TO.N,Net-(R5-Pad2)*%
X153100000Y-80400000D03*
%TO.N,Net-(R6-Pad2)*%
X151045786Y-85723543D03*
D13*
%TO.N,GND*%
X144700000Y-88400000D03*
X138950000Y-76450000D03*
X157950000Y-76450000D03*
X160250000Y-106450000D03*
X148650000Y-106550000D03*
X150000000Y-99750000D03*
X143500000Y-92100000D03*
D12*
X144000000Y-98750000D03*
X139000000Y-97500000D03*
X139000000Y-96000000D03*
X139000000Y-100500000D03*
X144000000Y-100000000D03*
X139000000Y-99000000D03*
D13*
X143500000Y-97000000D03*
X155500000Y-80500000D03*
X141500000Y-80750000D03*
X153750000Y-101500000D03*
X148400000Y-97475000D03*
X151800000Y-99775000D03*
X153025000Y-100050000D03*
X145304999Y-101095001D03*
X137600000Y-100000000D03*
%TO.N,+3V3*%
X153850000Y-104125000D03*
%TO.N,+5V*%
X150000000Y-106300000D03*
%TO.N,/RF95_3V3*%
X151150000Y-96900000D03*
%TD*%
D14*
%TO.N,GND*%
G36*
X161215000Y-76456718D02*
X161136400Y-76266961D01*
X160791239Y-75921800D01*
X160340265Y-75735000D01*
X159852135Y-75735000D01*
X159401161Y-75921800D01*
X159056000Y-76266961D01*
X158869200Y-76717935D01*
X158869200Y-77206065D01*
X159056000Y-77657039D01*
X159401161Y-78002200D01*
X159852135Y-78189000D01*
X160340265Y-78189000D01*
X160791239Y-78002200D01*
X161136400Y-77657039D01*
X161215000Y-77467282D01*
X161215000Y-78996718D01*
X161136400Y-78806961D01*
X160791239Y-78461800D01*
X160340265Y-78275000D01*
X159852135Y-78275000D01*
X159401161Y-78461800D01*
X159056000Y-78806961D01*
X158869200Y-79257935D01*
X158869200Y-79746065D01*
X159056000Y-80197039D01*
X159401161Y-80542200D01*
X159852135Y-80729000D01*
X160340265Y-80729000D01*
X160791239Y-80542200D01*
X161136400Y-80197039D01*
X161215000Y-80007282D01*
X161215000Y-81536718D01*
X161136400Y-81346961D01*
X160791239Y-81001800D01*
X160340265Y-80815000D01*
X159852135Y-80815000D01*
X159401161Y-81001800D01*
X159056000Y-81346961D01*
X158869200Y-81797935D01*
X158869200Y-82286065D01*
X159056000Y-82737039D01*
X159401161Y-83082200D01*
X159852135Y-83269000D01*
X160340265Y-83269000D01*
X160791239Y-83082200D01*
X161136400Y-82737039D01*
X161215000Y-82547282D01*
X161215000Y-84076718D01*
X161136400Y-83886961D01*
X160791239Y-83541800D01*
X160340265Y-83355000D01*
X159852135Y-83355000D01*
X159401161Y-83541800D01*
X159056000Y-83886961D01*
X158869200Y-84337935D01*
X158869200Y-84826065D01*
X159056000Y-85277039D01*
X159401161Y-85622200D01*
X159852135Y-85809000D01*
X160340265Y-85809000D01*
X160791239Y-85622200D01*
X161136400Y-85277039D01*
X161215000Y-85087282D01*
X161215000Y-86616719D01*
X161136400Y-86426961D01*
X160791239Y-86081800D01*
X160340265Y-85895000D01*
X159852135Y-85895000D01*
X159401161Y-86081800D01*
X159056000Y-86426961D01*
X158869200Y-86877935D01*
X158869200Y-87366065D01*
X159056000Y-87817039D01*
X159401161Y-88162200D01*
X159852135Y-88349000D01*
X160340265Y-88349000D01*
X160791239Y-88162200D01*
X161136400Y-87817039D01*
X161215000Y-87627281D01*
X161215000Y-89156719D01*
X161136400Y-88966961D01*
X160791239Y-88621800D01*
X160340265Y-88435000D01*
X159852135Y-88435000D01*
X159401161Y-88621800D01*
X159056000Y-88966961D01*
X158869200Y-89417935D01*
X158869200Y-89906065D01*
X159056000Y-90357039D01*
X159401161Y-90702200D01*
X159852135Y-90889000D01*
X160340265Y-90889000D01*
X160791239Y-90702200D01*
X161136400Y-90357039D01*
X161215000Y-90167281D01*
X161215001Y-91696719D01*
X161136400Y-91506961D01*
X160791239Y-91161800D01*
X160340265Y-90975000D01*
X159852135Y-90975000D01*
X159401161Y-91161800D01*
X159056000Y-91506961D01*
X158869200Y-91957935D01*
X158869200Y-92446065D01*
X159056000Y-92897039D01*
X159401161Y-93242200D01*
X159852135Y-93429000D01*
X160340265Y-93429000D01*
X160791239Y-93242200D01*
X161136400Y-92897039D01*
X161215001Y-92707281D01*
X161215001Y-94236719D01*
X161136400Y-94046961D01*
X160791239Y-93701800D01*
X160340265Y-93515000D01*
X159852135Y-93515000D01*
X159401161Y-93701800D01*
X159056000Y-94046961D01*
X158869200Y-94497935D01*
X158869200Y-94986065D01*
X159056000Y-95437039D01*
X159401161Y-95782200D01*
X159852135Y-95969000D01*
X160340265Y-95969000D01*
X160791239Y-95782200D01*
X161136400Y-95437039D01*
X161215001Y-95247281D01*
X161215001Y-107519400D01*
X145327000Y-107519400D01*
X145327000Y-106155391D01*
X149273000Y-106155391D01*
X149273000Y-106444609D01*
X149383679Y-106711813D01*
X149588187Y-106916321D01*
X149855391Y-107027000D01*
X150144609Y-107027000D01*
X150411813Y-106916321D01*
X150616321Y-106711813D01*
X150727000Y-106444609D01*
X150727000Y-106155391D01*
X150616321Y-105888187D01*
X150411813Y-105683679D01*
X150144609Y-105573000D01*
X149855391Y-105573000D01*
X149588187Y-105683679D01*
X149383679Y-105888187D01*
X149273000Y-106155391D01*
X145327000Y-106155391D01*
X145327000Y-103980391D01*
X153123000Y-103980391D01*
X153123000Y-104269609D01*
X153233679Y-104536813D01*
X153438187Y-104741321D01*
X153705391Y-104852000D01*
X153994609Y-104852000D01*
X154261813Y-104741321D01*
X154466321Y-104536813D01*
X154577000Y-104269609D01*
X154577000Y-103980391D01*
X154466321Y-103713187D01*
X154261813Y-103508679D01*
X153994609Y-103398000D01*
X153705391Y-103398000D01*
X153438187Y-103508679D01*
X153233679Y-103713187D01*
X153123000Y-103980391D01*
X145327000Y-103980391D01*
X145327000Y-102300000D01*
X145317333Y-102251399D01*
X145289803Y-102210197D01*
X145248601Y-102182667D01*
X145200000Y-102173000D01*
X139000000Y-102173000D01*
X138951399Y-102182667D01*
X138910197Y-102210197D01*
X138882667Y-102251399D01*
X138873000Y-102300000D01*
X138873000Y-107519400D01*
X136205343Y-107519400D01*
X136176234Y-96755391D01*
X150423000Y-96755391D01*
X150423000Y-97044609D01*
X150533679Y-97311813D01*
X150738187Y-97516321D01*
X151005391Y-97627000D01*
X151294609Y-97627000D01*
X151561813Y-97516321D01*
X151766321Y-97311813D01*
X151877000Y-97044609D01*
X151877000Y-96755391D01*
X151766321Y-96488187D01*
X151561813Y-96283679D01*
X151294609Y-96173000D01*
X151005391Y-96173000D01*
X150738187Y-96283679D01*
X150533679Y-96488187D01*
X150423000Y-96755391D01*
X136176234Y-96755391D01*
X136172515Y-95380342D01*
X136196000Y-95437039D01*
X136541161Y-95782200D01*
X136992135Y-95969000D01*
X137480265Y-95969000D01*
X137931239Y-95782200D01*
X138276400Y-95437039D01*
X138463200Y-94986065D01*
X138463200Y-94497935D01*
X138276400Y-94046961D01*
X137931239Y-93701800D01*
X137793846Y-93644890D01*
X138050348Y-93538643D01*
X138136754Y-93282159D01*
X137236200Y-92381605D01*
X137222058Y-92395748D01*
X137042453Y-92216143D01*
X137056595Y-92202000D01*
X137415805Y-92202000D01*
X138316359Y-93102554D01*
X138572843Y-93016148D01*
X138782658Y-92442664D01*
X138757039Y-91832540D01*
X138572843Y-91387852D01*
X138316359Y-91301446D01*
X137415805Y-92202000D01*
X137056595Y-92202000D01*
X137042453Y-92187858D01*
X137222058Y-92008253D01*
X137236200Y-92022395D01*
X138136754Y-91121841D01*
X138050348Y-90865357D01*
X137804148Y-90775282D01*
X149273000Y-90775282D01*
X149273000Y-91024718D01*
X149368455Y-91255167D01*
X149544833Y-91431545D01*
X149775282Y-91527000D01*
X150024718Y-91527000D01*
X150255167Y-91431545D01*
X150431545Y-91255167D01*
X150527000Y-91024718D01*
X150527000Y-90775282D01*
X150431545Y-90544833D01*
X150255167Y-90368455D01*
X150024718Y-90273000D01*
X149775282Y-90273000D01*
X149544833Y-90368455D01*
X149368455Y-90544833D01*
X149273000Y-90775282D01*
X137804148Y-90775282D01*
X137777946Y-90765696D01*
X137931239Y-90702200D01*
X138276400Y-90357039D01*
X138463200Y-89906065D01*
X138463200Y-89417935D01*
X138276400Y-88966961D01*
X137931239Y-88621800D01*
X137480265Y-88435000D01*
X136992135Y-88435000D01*
X136541161Y-88621800D01*
X136196000Y-88966961D01*
X136155436Y-89064890D01*
X136151773Y-87710266D01*
X136196000Y-87817039D01*
X136541161Y-88162200D01*
X136992135Y-88349000D01*
X137480265Y-88349000D01*
X137931239Y-88162200D01*
X138276400Y-87817039D01*
X138463200Y-87366065D01*
X138463200Y-86877935D01*
X138276400Y-86426961D01*
X137931239Y-86081800D01*
X137480265Y-85895000D01*
X136992135Y-85895000D01*
X136541161Y-86081800D01*
X136196000Y-86426961D01*
X136148612Y-86541365D01*
X136144859Y-85153574D01*
X136196000Y-85277039D01*
X136541161Y-85622200D01*
X136992135Y-85809000D01*
X137480265Y-85809000D01*
X137931239Y-85622200D01*
X137954614Y-85598825D01*
X150418786Y-85598825D01*
X150418786Y-85848261D01*
X150514241Y-86078710D01*
X150690619Y-86255088D01*
X150921068Y-86350543D01*
X151170504Y-86350543D01*
X151400953Y-86255088D01*
X151577331Y-86078710D01*
X151672786Y-85848261D01*
X151672786Y-85598825D01*
X151580192Y-85375282D01*
X157273000Y-85375282D01*
X157273000Y-85624718D01*
X157368455Y-85855167D01*
X157544833Y-86031545D01*
X157775282Y-86127000D01*
X158024718Y-86127000D01*
X158255167Y-86031545D01*
X158431545Y-85855167D01*
X158527000Y-85624718D01*
X158527000Y-85375282D01*
X158431545Y-85144833D01*
X158255167Y-84968455D01*
X158024718Y-84873000D01*
X157775282Y-84873000D01*
X157544833Y-84968455D01*
X157368455Y-85144833D01*
X157273000Y-85375282D01*
X151580192Y-85375282D01*
X151577331Y-85368376D01*
X151400953Y-85191998D01*
X151170504Y-85096543D01*
X150921068Y-85096543D01*
X150690619Y-85191998D01*
X150514241Y-85368376D01*
X150418786Y-85598825D01*
X137954614Y-85598825D01*
X138276400Y-85277039D01*
X138463200Y-84826065D01*
X138463200Y-84337935D01*
X138276400Y-83886961D01*
X137931239Y-83541800D01*
X137480265Y-83355000D01*
X136992135Y-83355000D01*
X136541161Y-83541800D01*
X136196000Y-83886961D01*
X136141788Y-84017840D01*
X136137945Y-82596883D01*
X136196000Y-82737039D01*
X136541161Y-83082200D01*
X136992135Y-83269000D01*
X137480265Y-83269000D01*
X137931239Y-83082200D01*
X138276400Y-82737039D01*
X138463200Y-82286065D01*
X138463200Y-81797935D01*
X138276400Y-81346961D01*
X137931239Y-81001800D01*
X137480265Y-80815000D01*
X136992135Y-80815000D01*
X136541161Y-81001800D01*
X136196000Y-81346961D01*
X136134963Y-81494316D01*
X136131031Y-80040191D01*
X136196000Y-80197039D01*
X136541161Y-80542200D01*
X136992135Y-80729000D01*
X137480265Y-80729000D01*
X137931239Y-80542200D01*
X138098556Y-80374883D01*
X144967409Y-80374883D01*
X144967409Y-80624319D01*
X145062864Y-80854768D01*
X145239242Y-81031146D01*
X145469691Y-81126601D01*
X145719127Y-81126601D01*
X145949576Y-81031146D01*
X146125954Y-80854768D01*
X146221409Y-80624319D01*
X146221409Y-80475282D01*
X147373000Y-80475282D01*
X147373000Y-80724718D01*
X147468455Y-80955167D01*
X147644833Y-81131545D01*
X147875282Y-81227000D01*
X148124718Y-81227000D01*
X148355167Y-81131545D01*
X148531545Y-80955167D01*
X148549434Y-80911979D01*
X149043978Y-80911979D01*
X149043978Y-81161415D01*
X149139433Y-81391864D01*
X149315811Y-81568242D01*
X149546260Y-81663697D01*
X149795696Y-81663697D01*
X150026145Y-81568242D01*
X150202523Y-81391864D01*
X150297978Y-81161415D01*
X150297978Y-80911979D01*
X150202523Y-80681530D01*
X150026145Y-80505152D01*
X149795696Y-80409697D01*
X149546260Y-80409697D01*
X149315811Y-80505152D01*
X149139433Y-80681530D01*
X149043978Y-80911979D01*
X148549434Y-80911979D01*
X148627000Y-80724718D01*
X148627000Y-80475282D01*
X148544158Y-80275282D01*
X152473000Y-80275282D01*
X152473000Y-80524718D01*
X152568455Y-80755167D01*
X152744833Y-80931545D01*
X152975282Y-81027000D01*
X153224718Y-81027000D01*
X153455167Y-80931545D01*
X153631545Y-80755167D01*
X153727000Y-80524718D01*
X153727000Y-80275282D01*
X153631545Y-80044833D01*
X153455167Y-79868455D01*
X153224718Y-79773000D01*
X152975282Y-79773000D01*
X152744833Y-79868455D01*
X152568455Y-80044833D01*
X152473000Y-80275282D01*
X148544158Y-80275282D01*
X148531545Y-80244833D01*
X148355167Y-80068455D01*
X148124718Y-79973000D01*
X147875282Y-79973000D01*
X147644833Y-80068455D01*
X147468455Y-80244833D01*
X147373000Y-80475282D01*
X146221409Y-80475282D01*
X146221409Y-80374883D01*
X146125954Y-80144434D01*
X145949576Y-79968056D01*
X145719127Y-79872601D01*
X145469691Y-79872601D01*
X145239242Y-79968056D01*
X145062864Y-80144434D01*
X144967409Y-80374883D01*
X138098556Y-80374883D01*
X138276400Y-80197039D01*
X138463200Y-79746065D01*
X138463200Y-79257935D01*
X138276400Y-78806961D01*
X137931239Y-78461800D01*
X137480265Y-78275000D01*
X136992135Y-78275000D01*
X136541161Y-78461800D01*
X136196000Y-78806961D01*
X136128139Y-78970791D01*
X136124117Y-77483499D01*
X136196000Y-77657039D01*
X136541161Y-78002200D01*
X136992135Y-78189000D01*
X137480265Y-78189000D01*
X137931239Y-78002200D01*
X138276400Y-77657039D01*
X138463200Y-77206065D01*
X138463200Y-76717935D01*
X138276400Y-76266961D01*
X137931239Y-75921800D01*
X137480265Y-75735000D01*
X136992135Y-75735000D01*
X136541161Y-75921800D01*
X136196000Y-76266961D01*
X136121315Y-76447267D01*
X136118359Y-75354400D01*
X161215000Y-75354400D01*
X161215000Y-76456718D01*
X161215000Y-76456718D01*
G37*
X161215000Y-76456718D02*
X161136400Y-76266961D01*
X160791239Y-75921800D01*
X160340265Y-75735000D01*
X159852135Y-75735000D01*
X159401161Y-75921800D01*
X159056000Y-76266961D01*
X158869200Y-76717935D01*
X158869200Y-77206065D01*
X159056000Y-77657039D01*
X159401161Y-78002200D01*
X159852135Y-78189000D01*
X160340265Y-78189000D01*
X160791239Y-78002200D01*
X161136400Y-77657039D01*
X161215000Y-77467282D01*
X161215000Y-78996718D01*
X161136400Y-78806961D01*
X160791239Y-78461800D01*
X160340265Y-78275000D01*
X159852135Y-78275000D01*
X159401161Y-78461800D01*
X159056000Y-78806961D01*
X158869200Y-79257935D01*
X158869200Y-79746065D01*
X159056000Y-80197039D01*
X159401161Y-80542200D01*
X159852135Y-80729000D01*
X160340265Y-80729000D01*
X160791239Y-80542200D01*
X161136400Y-80197039D01*
X161215000Y-80007282D01*
X161215000Y-81536718D01*
X161136400Y-81346961D01*
X160791239Y-81001800D01*
X160340265Y-80815000D01*
X159852135Y-80815000D01*
X159401161Y-81001800D01*
X159056000Y-81346961D01*
X158869200Y-81797935D01*
X158869200Y-82286065D01*
X159056000Y-82737039D01*
X159401161Y-83082200D01*
X159852135Y-83269000D01*
X160340265Y-83269000D01*
X160791239Y-83082200D01*
X161136400Y-82737039D01*
X161215000Y-82547282D01*
X161215000Y-84076718D01*
X161136400Y-83886961D01*
X160791239Y-83541800D01*
X160340265Y-83355000D01*
X159852135Y-83355000D01*
X159401161Y-83541800D01*
X159056000Y-83886961D01*
X158869200Y-84337935D01*
X158869200Y-84826065D01*
X159056000Y-85277039D01*
X159401161Y-85622200D01*
X159852135Y-85809000D01*
X160340265Y-85809000D01*
X160791239Y-85622200D01*
X161136400Y-85277039D01*
X161215000Y-85087282D01*
X161215000Y-86616719D01*
X161136400Y-86426961D01*
X160791239Y-86081800D01*
X160340265Y-85895000D01*
X159852135Y-85895000D01*
X159401161Y-86081800D01*
X159056000Y-86426961D01*
X158869200Y-86877935D01*
X158869200Y-87366065D01*
X159056000Y-87817039D01*
X159401161Y-88162200D01*
X159852135Y-88349000D01*
X160340265Y-88349000D01*
X160791239Y-88162200D01*
X161136400Y-87817039D01*
X161215000Y-87627281D01*
X161215000Y-89156719D01*
X161136400Y-88966961D01*
X160791239Y-88621800D01*
X160340265Y-88435000D01*
X159852135Y-88435000D01*
X159401161Y-88621800D01*
X159056000Y-88966961D01*
X158869200Y-89417935D01*
X158869200Y-89906065D01*
X159056000Y-90357039D01*
X159401161Y-90702200D01*
X159852135Y-90889000D01*
X160340265Y-90889000D01*
X160791239Y-90702200D01*
X161136400Y-90357039D01*
X161215000Y-90167281D01*
X161215001Y-91696719D01*
X161136400Y-91506961D01*
X160791239Y-91161800D01*
X160340265Y-90975000D01*
X159852135Y-90975000D01*
X159401161Y-91161800D01*
X159056000Y-91506961D01*
X158869200Y-91957935D01*
X158869200Y-92446065D01*
X159056000Y-92897039D01*
X159401161Y-93242200D01*
X159852135Y-93429000D01*
X160340265Y-93429000D01*
X160791239Y-93242200D01*
X161136400Y-92897039D01*
X161215001Y-92707281D01*
X161215001Y-94236719D01*
X161136400Y-94046961D01*
X160791239Y-93701800D01*
X160340265Y-93515000D01*
X159852135Y-93515000D01*
X159401161Y-93701800D01*
X159056000Y-94046961D01*
X158869200Y-94497935D01*
X158869200Y-94986065D01*
X159056000Y-95437039D01*
X159401161Y-95782200D01*
X159852135Y-95969000D01*
X160340265Y-95969000D01*
X160791239Y-95782200D01*
X161136400Y-95437039D01*
X161215001Y-95247281D01*
X161215001Y-107519400D01*
X145327000Y-107519400D01*
X145327000Y-106155391D01*
X149273000Y-106155391D01*
X149273000Y-106444609D01*
X149383679Y-106711813D01*
X149588187Y-106916321D01*
X149855391Y-107027000D01*
X150144609Y-107027000D01*
X150411813Y-106916321D01*
X150616321Y-106711813D01*
X150727000Y-106444609D01*
X150727000Y-106155391D01*
X150616321Y-105888187D01*
X150411813Y-105683679D01*
X150144609Y-105573000D01*
X149855391Y-105573000D01*
X149588187Y-105683679D01*
X149383679Y-105888187D01*
X149273000Y-106155391D01*
X145327000Y-106155391D01*
X145327000Y-103980391D01*
X153123000Y-103980391D01*
X153123000Y-104269609D01*
X153233679Y-104536813D01*
X153438187Y-104741321D01*
X153705391Y-104852000D01*
X153994609Y-104852000D01*
X154261813Y-104741321D01*
X154466321Y-104536813D01*
X154577000Y-104269609D01*
X154577000Y-103980391D01*
X154466321Y-103713187D01*
X154261813Y-103508679D01*
X153994609Y-103398000D01*
X153705391Y-103398000D01*
X153438187Y-103508679D01*
X153233679Y-103713187D01*
X153123000Y-103980391D01*
X145327000Y-103980391D01*
X145327000Y-102300000D01*
X145317333Y-102251399D01*
X145289803Y-102210197D01*
X145248601Y-102182667D01*
X145200000Y-102173000D01*
X139000000Y-102173000D01*
X138951399Y-102182667D01*
X138910197Y-102210197D01*
X138882667Y-102251399D01*
X138873000Y-102300000D01*
X138873000Y-107519400D01*
X136205343Y-107519400D01*
X136176234Y-96755391D01*
X150423000Y-96755391D01*
X150423000Y-97044609D01*
X150533679Y-97311813D01*
X150738187Y-97516321D01*
X151005391Y-97627000D01*
X151294609Y-97627000D01*
X151561813Y-97516321D01*
X151766321Y-97311813D01*
X151877000Y-97044609D01*
X151877000Y-96755391D01*
X151766321Y-96488187D01*
X151561813Y-96283679D01*
X151294609Y-96173000D01*
X151005391Y-96173000D01*
X150738187Y-96283679D01*
X150533679Y-96488187D01*
X150423000Y-96755391D01*
X136176234Y-96755391D01*
X136172515Y-95380342D01*
X136196000Y-95437039D01*
X136541161Y-95782200D01*
X136992135Y-95969000D01*
X137480265Y-95969000D01*
X137931239Y-95782200D01*
X138276400Y-95437039D01*
X138463200Y-94986065D01*
X138463200Y-94497935D01*
X138276400Y-94046961D01*
X137931239Y-93701800D01*
X137793846Y-93644890D01*
X138050348Y-93538643D01*
X138136754Y-93282159D01*
X137236200Y-92381605D01*
X137222058Y-92395748D01*
X137042453Y-92216143D01*
X137056595Y-92202000D01*
X137415805Y-92202000D01*
X138316359Y-93102554D01*
X138572843Y-93016148D01*
X138782658Y-92442664D01*
X138757039Y-91832540D01*
X138572843Y-91387852D01*
X138316359Y-91301446D01*
X137415805Y-92202000D01*
X137056595Y-92202000D01*
X137042453Y-92187858D01*
X137222058Y-92008253D01*
X137236200Y-92022395D01*
X138136754Y-91121841D01*
X138050348Y-90865357D01*
X137804148Y-90775282D01*
X149273000Y-90775282D01*
X149273000Y-91024718D01*
X149368455Y-91255167D01*
X149544833Y-91431545D01*
X149775282Y-91527000D01*
X150024718Y-91527000D01*
X150255167Y-91431545D01*
X150431545Y-91255167D01*
X150527000Y-91024718D01*
X150527000Y-90775282D01*
X150431545Y-90544833D01*
X150255167Y-90368455D01*
X150024718Y-90273000D01*
X149775282Y-90273000D01*
X149544833Y-90368455D01*
X149368455Y-90544833D01*
X149273000Y-90775282D01*
X137804148Y-90775282D01*
X137777946Y-90765696D01*
X137931239Y-90702200D01*
X138276400Y-90357039D01*
X138463200Y-89906065D01*
X138463200Y-89417935D01*
X138276400Y-88966961D01*
X137931239Y-88621800D01*
X137480265Y-88435000D01*
X136992135Y-88435000D01*
X136541161Y-88621800D01*
X136196000Y-88966961D01*
X136155436Y-89064890D01*
X136151773Y-87710266D01*
X136196000Y-87817039D01*
X136541161Y-88162200D01*
X136992135Y-88349000D01*
X137480265Y-88349000D01*
X137931239Y-88162200D01*
X138276400Y-87817039D01*
X138463200Y-87366065D01*
X138463200Y-86877935D01*
X138276400Y-86426961D01*
X137931239Y-86081800D01*
X137480265Y-85895000D01*
X136992135Y-85895000D01*
X136541161Y-86081800D01*
X136196000Y-86426961D01*
X136148612Y-86541365D01*
X136144859Y-85153574D01*
X136196000Y-85277039D01*
X136541161Y-85622200D01*
X136992135Y-85809000D01*
X137480265Y-85809000D01*
X137931239Y-85622200D01*
X137954614Y-85598825D01*
X150418786Y-85598825D01*
X150418786Y-85848261D01*
X150514241Y-86078710D01*
X150690619Y-86255088D01*
X150921068Y-86350543D01*
X151170504Y-86350543D01*
X151400953Y-86255088D01*
X151577331Y-86078710D01*
X151672786Y-85848261D01*
X151672786Y-85598825D01*
X151580192Y-85375282D01*
X157273000Y-85375282D01*
X157273000Y-85624718D01*
X157368455Y-85855167D01*
X157544833Y-86031545D01*
X157775282Y-86127000D01*
X158024718Y-86127000D01*
X158255167Y-86031545D01*
X158431545Y-85855167D01*
X158527000Y-85624718D01*
X158527000Y-85375282D01*
X158431545Y-85144833D01*
X158255167Y-84968455D01*
X158024718Y-84873000D01*
X157775282Y-84873000D01*
X157544833Y-84968455D01*
X157368455Y-85144833D01*
X157273000Y-85375282D01*
X151580192Y-85375282D01*
X151577331Y-85368376D01*
X151400953Y-85191998D01*
X151170504Y-85096543D01*
X150921068Y-85096543D01*
X150690619Y-85191998D01*
X150514241Y-85368376D01*
X150418786Y-85598825D01*
X137954614Y-85598825D01*
X138276400Y-85277039D01*
X138463200Y-84826065D01*
X138463200Y-84337935D01*
X138276400Y-83886961D01*
X137931239Y-83541800D01*
X137480265Y-83355000D01*
X136992135Y-83355000D01*
X136541161Y-83541800D01*
X136196000Y-83886961D01*
X136141788Y-84017840D01*
X136137945Y-82596883D01*
X136196000Y-82737039D01*
X136541161Y-83082200D01*
X136992135Y-83269000D01*
X137480265Y-83269000D01*
X137931239Y-83082200D01*
X138276400Y-82737039D01*
X138463200Y-82286065D01*
X138463200Y-81797935D01*
X138276400Y-81346961D01*
X137931239Y-81001800D01*
X137480265Y-80815000D01*
X136992135Y-80815000D01*
X136541161Y-81001800D01*
X136196000Y-81346961D01*
X136134963Y-81494316D01*
X136131031Y-80040191D01*
X136196000Y-80197039D01*
X136541161Y-80542200D01*
X136992135Y-80729000D01*
X137480265Y-80729000D01*
X137931239Y-80542200D01*
X138098556Y-80374883D01*
X144967409Y-80374883D01*
X144967409Y-80624319D01*
X145062864Y-80854768D01*
X145239242Y-81031146D01*
X145469691Y-81126601D01*
X145719127Y-81126601D01*
X145949576Y-81031146D01*
X146125954Y-80854768D01*
X146221409Y-80624319D01*
X146221409Y-80475282D01*
X147373000Y-80475282D01*
X147373000Y-80724718D01*
X147468455Y-80955167D01*
X147644833Y-81131545D01*
X147875282Y-81227000D01*
X148124718Y-81227000D01*
X148355167Y-81131545D01*
X148531545Y-80955167D01*
X148549434Y-80911979D01*
X149043978Y-80911979D01*
X149043978Y-81161415D01*
X149139433Y-81391864D01*
X149315811Y-81568242D01*
X149546260Y-81663697D01*
X149795696Y-81663697D01*
X150026145Y-81568242D01*
X150202523Y-81391864D01*
X150297978Y-81161415D01*
X150297978Y-80911979D01*
X150202523Y-80681530D01*
X150026145Y-80505152D01*
X149795696Y-80409697D01*
X149546260Y-80409697D01*
X149315811Y-80505152D01*
X149139433Y-80681530D01*
X149043978Y-80911979D01*
X148549434Y-80911979D01*
X148627000Y-80724718D01*
X148627000Y-80475282D01*
X148544158Y-80275282D01*
X152473000Y-80275282D01*
X152473000Y-80524718D01*
X152568455Y-80755167D01*
X152744833Y-80931545D01*
X152975282Y-81027000D01*
X153224718Y-81027000D01*
X153455167Y-80931545D01*
X153631545Y-80755167D01*
X153727000Y-80524718D01*
X153727000Y-80275282D01*
X153631545Y-80044833D01*
X153455167Y-79868455D01*
X153224718Y-79773000D01*
X152975282Y-79773000D01*
X152744833Y-79868455D01*
X152568455Y-80044833D01*
X152473000Y-80275282D01*
X148544158Y-80275282D01*
X148531545Y-80244833D01*
X148355167Y-80068455D01*
X148124718Y-79973000D01*
X147875282Y-79973000D01*
X147644833Y-80068455D01*
X147468455Y-80244833D01*
X147373000Y-80475282D01*
X146221409Y-80475282D01*
X146221409Y-80374883D01*
X146125954Y-80144434D01*
X145949576Y-79968056D01*
X145719127Y-79872601D01*
X145469691Y-79872601D01*
X145239242Y-79968056D01*
X145062864Y-80144434D01*
X144967409Y-80374883D01*
X138098556Y-80374883D01*
X138276400Y-80197039D01*
X138463200Y-79746065D01*
X138463200Y-79257935D01*
X138276400Y-78806961D01*
X137931239Y-78461800D01*
X137480265Y-78275000D01*
X136992135Y-78275000D01*
X136541161Y-78461800D01*
X136196000Y-78806961D01*
X136128139Y-78970791D01*
X136124117Y-77483499D01*
X136196000Y-77657039D01*
X136541161Y-78002200D01*
X136992135Y-78189000D01*
X137480265Y-78189000D01*
X137931239Y-78002200D01*
X138276400Y-77657039D01*
X138463200Y-77206065D01*
X138463200Y-76717935D01*
X138276400Y-76266961D01*
X137931239Y-75921800D01*
X137480265Y-75735000D01*
X136992135Y-75735000D01*
X136541161Y-75921800D01*
X136196000Y-76266961D01*
X136121315Y-76447267D01*
X136118359Y-75354400D01*
X161215000Y-75354400D01*
X161215000Y-76456718D01*
%TD*%
M02*
