M48
;DRILL file {KiCad 4.0.6} date Tuesday, October 17, 2017 'PMt' 10:38:05 PM
;FORMAT={2:4/ absolute / inch / suppress leading zeros}
FMAT,2
INCH,TZ
T1C0.016
T2C0.040
%
G90
G05
M72
T1
X60090Y-57105
X61015Y-56795
X61635Y-50380
X62545Y-45185
X62825Y-46480
X63545Y-60200
X63945Y-46725
X64055Y-57770
X65310Y-54005
X65495Y-51590
X65505Y-46320
X65955Y-47695
X65975Y-57365
X67160Y-50155
X67670Y-48335
X67740Y-47865
X67875Y-49155
X68085Y-46560
X68145Y-49545
T2
X59814Y-45759
X59814Y-46759
X59814Y-47759
X59814Y-48759
X59814Y-49759
X59814Y-50759
X59814Y-51759
X59814Y-52759
X68814Y-45759
X68814Y-46759
X68814Y-47759
X68814Y-48759
X68814Y-49759
X68814Y-50759
X68814Y-51759
X68814Y-52759
T0
M30
