%TF.GenerationSoftware,KiCad,Pcbnew,5.0.0-rc2-dev-unknown-f2bb398~62~ubuntu17.10.1*%
%TF.CreationDate,2018-03-07T22:53:53-08:00*%
%TF.ProjectId,lora_nodemcu,6C6F72615F6E6F64656D63752E6B6963,rev?*%
%TF.SameCoordinates,Original*%
%TF.FileFunction,Legend,Bot*%
%TF.FilePolarity,Positive*%
%FSLAX46Y46*%
G04 Gerber Fmt 4.6, Leading zero omitted, Abs format (unit mm)*
G04 Created by KiCad (PCBNEW 5.0.0-rc2-dev-unknown-f2bb398~62~ubuntu17.10.1) date Wed Mar  7 22:53:53 2018*
%MOMM*%
%LPD*%
G01*
G04 APERTURE LIST*
%ADD10C,0.100000*%
%ADD11C,0.120000*%
%ADD12C,0.150000*%
G04 APERTURE END LIST*
D10*
X141521428Y-93126190D02*
X141473809Y-93126190D01*
X141426190Y-93150000D01*
X141402380Y-93173809D01*
X141378571Y-93221428D01*
X141354761Y-93316666D01*
X141354761Y-93435714D01*
X141378571Y-93530952D01*
X141402380Y-93578571D01*
X141426190Y-93602380D01*
X141473809Y-93626190D01*
X141521428Y-93626190D01*
X141569047Y-93602380D01*
X141592857Y-93578571D01*
X141616666Y-93530952D01*
X141640476Y-93435714D01*
X141640476Y-93316666D01*
X141616666Y-93221428D01*
X141592857Y-93173809D01*
X141569047Y-93150000D01*
X141521428Y-93126190D01*
X141140476Y-93578571D02*
X141116666Y-93602380D01*
X141140476Y-93626190D01*
X141164285Y-93602380D01*
X141140476Y-93578571D01*
X141140476Y-93626190D01*
X140640476Y-93626190D02*
X140926190Y-93626190D01*
X140783333Y-93626190D02*
X140783333Y-93126190D01*
X140830952Y-93197619D01*
X140878571Y-93245238D01*
X140926190Y-93269047D01*
X140211904Y-93292857D02*
X140211904Y-93626190D01*
X140426190Y-93292857D02*
X140426190Y-93554761D01*
X140402380Y-93602380D01*
X140354761Y-93626190D01*
X140283333Y-93626190D01*
X140235714Y-93602380D01*
X140211904Y-93578571D01*
X139807142Y-93364285D02*
X139973809Y-93364285D01*
X139973809Y-93626190D02*
X139973809Y-93126190D01*
X139735714Y-93126190D01*
X157176190Y-102164285D02*
X157176190Y-101878571D01*
X157176190Y-102021428D02*
X156676190Y-102021428D01*
X156747619Y-101973809D01*
X156795238Y-101926190D01*
X156819047Y-101878571D01*
X156676190Y-102473809D02*
X156676190Y-102521428D01*
X156700000Y-102569047D01*
X156723809Y-102592857D01*
X156771428Y-102616666D01*
X156866666Y-102640476D01*
X156985714Y-102640476D01*
X157080952Y-102616666D01*
X157128571Y-102592857D01*
X157152380Y-102569047D01*
X157176190Y-102521428D01*
X157176190Y-102473809D01*
X157152380Y-102426190D01*
X157128571Y-102402380D01*
X157080952Y-102378571D01*
X156985714Y-102354761D01*
X156866666Y-102354761D01*
X156771428Y-102378571D01*
X156723809Y-102402380D01*
X156700000Y-102426190D01*
X156676190Y-102473809D01*
X156842857Y-103069047D02*
X157176190Y-103069047D01*
X156842857Y-102854761D02*
X157104761Y-102854761D01*
X157152380Y-102878571D01*
X157176190Y-102926190D01*
X157176190Y-102997619D01*
X157152380Y-103045238D01*
X157128571Y-103069047D01*
X156914285Y-103473809D02*
X156914285Y-103307142D01*
X157176190Y-103307142D02*
X156676190Y-103307142D01*
X156676190Y-103545238D01*
X152676190Y-102264285D02*
X152676190Y-101978571D01*
X152676190Y-102121428D02*
X152176190Y-102121428D01*
X152247619Y-102073809D01*
X152295238Y-102026190D01*
X152319047Y-101978571D01*
X152176190Y-102573809D02*
X152176190Y-102621428D01*
X152200000Y-102669047D01*
X152223809Y-102692857D01*
X152271428Y-102716666D01*
X152366666Y-102740476D01*
X152485714Y-102740476D01*
X152580952Y-102716666D01*
X152628571Y-102692857D01*
X152652380Y-102669047D01*
X152676190Y-102621428D01*
X152676190Y-102573809D01*
X152652380Y-102526190D01*
X152628571Y-102502380D01*
X152580952Y-102478571D01*
X152485714Y-102454761D01*
X152366666Y-102454761D01*
X152271428Y-102478571D01*
X152223809Y-102502380D01*
X152200000Y-102526190D01*
X152176190Y-102573809D01*
X152342857Y-103169047D02*
X152676190Y-103169047D01*
X152342857Y-102954761D02*
X152604761Y-102954761D01*
X152652380Y-102978571D01*
X152676190Y-103026190D01*
X152676190Y-103097619D01*
X152652380Y-103145238D01*
X152628571Y-103169047D01*
X152414285Y-103573809D02*
X152414285Y-103407142D01*
X152676190Y-103407142D02*
X152176190Y-103407142D01*
X152176190Y-103645238D01*
X157952380Y-99426190D02*
X157952380Y-99783333D01*
X157976190Y-99854761D01*
X158023809Y-99902380D01*
X158095238Y-99926190D01*
X158142857Y-99926190D01*
X157714285Y-99426190D02*
X157714285Y-99830952D01*
X157690476Y-99878571D01*
X157666666Y-99902380D01*
X157619047Y-99926190D01*
X157523809Y-99926190D01*
X157476190Y-99902380D01*
X157452380Y-99878571D01*
X157428571Y-99830952D01*
X157428571Y-99426190D01*
X157190476Y-99926190D02*
X157190476Y-99426190D01*
X157023809Y-99783333D01*
X156857142Y-99426190D01*
X156857142Y-99926190D01*
X156619047Y-99926190D02*
X156619047Y-99426190D01*
X156428571Y-99426190D01*
X156380952Y-99450000D01*
X156357142Y-99473809D01*
X156333333Y-99521428D01*
X156333333Y-99592857D01*
X156357142Y-99640476D01*
X156380952Y-99664285D01*
X156428571Y-99688095D01*
X156619047Y-99688095D01*
X156119047Y-99664285D02*
X155952380Y-99664285D01*
X155880952Y-99926190D02*
X156119047Y-99926190D01*
X156119047Y-99426190D01*
X155880952Y-99426190D01*
X155380952Y-99926190D02*
X155547619Y-99688095D01*
X155666666Y-99926190D02*
X155666666Y-99426190D01*
X155476190Y-99426190D01*
X155428571Y-99450000D01*
X155404761Y-99473809D01*
X155380952Y-99521428D01*
X155380952Y-99592857D01*
X155404761Y-99640476D01*
X155428571Y-99664285D01*
X155476190Y-99688095D01*
X155666666Y-99688095D01*
X151921428Y-99376190D02*
X151873809Y-99376190D01*
X151826190Y-99400000D01*
X151802380Y-99423809D01*
X151778571Y-99471428D01*
X151754761Y-99566666D01*
X151754761Y-99685714D01*
X151778571Y-99780952D01*
X151802380Y-99828571D01*
X151826190Y-99852380D01*
X151873809Y-99876190D01*
X151921428Y-99876190D01*
X151969047Y-99852380D01*
X151992857Y-99828571D01*
X152016666Y-99780952D01*
X152040476Y-99685714D01*
X152040476Y-99566666D01*
X152016666Y-99471428D01*
X151992857Y-99423809D01*
X151969047Y-99400000D01*
X151921428Y-99376190D01*
X151540476Y-99828571D02*
X151516666Y-99852380D01*
X151540476Y-99876190D01*
X151564285Y-99852380D01*
X151540476Y-99828571D01*
X151540476Y-99876190D01*
X151040476Y-99876190D02*
X151326190Y-99876190D01*
X151183333Y-99876190D02*
X151183333Y-99376190D01*
X151230952Y-99447619D01*
X151278571Y-99495238D01*
X151326190Y-99519047D01*
X150611904Y-99542857D02*
X150611904Y-99876190D01*
X150826190Y-99542857D02*
X150826190Y-99804761D01*
X150802380Y-99852380D01*
X150754761Y-99876190D01*
X150683333Y-99876190D01*
X150635714Y-99852380D01*
X150611904Y-99828571D01*
X150207142Y-99614285D02*
X150373809Y-99614285D01*
X150373809Y-99876190D02*
X150373809Y-99376190D01*
X150135714Y-99376190D01*
X147976190Y-95397619D02*
X148333333Y-95397619D01*
X148404761Y-95373809D01*
X148452380Y-95326190D01*
X148476190Y-95254761D01*
X148476190Y-95207142D01*
X147976190Y-95635714D02*
X148380952Y-95635714D01*
X148428571Y-95659523D01*
X148452380Y-95683333D01*
X148476190Y-95730952D01*
X148476190Y-95826190D01*
X148452380Y-95873809D01*
X148428571Y-95897619D01*
X148380952Y-95921428D01*
X147976190Y-95921428D01*
X148476190Y-96159523D02*
X147976190Y-96159523D01*
X148333333Y-96326190D01*
X147976190Y-96492857D01*
X148476190Y-96492857D01*
X148476190Y-96730952D02*
X147976190Y-96730952D01*
X147976190Y-96921428D01*
X148000000Y-96969047D01*
X148023809Y-96992857D01*
X148071428Y-97016666D01*
X148142857Y-97016666D01*
X148190476Y-96992857D01*
X148214285Y-96969047D01*
X148238095Y-96921428D01*
X148238095Y-96730952D01*
X148214285Y-97230952D02*
X148214285Y-97397619D01*
X148476190Y-97469047D02*
X148476190Y-97230952D01*
X147976190Y-97230952D01*
X147976190Y-97469047D01*
X148476190Y-97969047D02*
X148238095Y-97802380D01*
X148476190Y-97683333D02*
X147976190Y-97683333D01*
X147976190Y-97873809D01*
X148000000Y-97921428D01*
X148023809Y-97945238D01*
X148071428Y-97969047D01*
X148142857Y-97969047D01*
X148190476Y-97945238D01*
X148214285Y-97921428D01*
X148238095Y-97873809D01*
X148238095Y-97683333D01*
X154621428Y-95076190D02*
X154573809Y-95076190D01*
X154526190Y-95100000D01*
X154502380Y-95123809D01*
X154478571Y-95171428D01*
X154454761Y-95266666D01*
X154454761Y-95385714D01*
X154478571Y-95480952D01*
X154502380Y-95528571D01*
X154526190Y-95552380D01*
X154573809Y-95576190D01*
X154621428Y-95576190D01*
X154669047Y-95552380D01*
X154692857Y-95528571D01*
X154716666Y-95480952D01*
X154740476Y-95385714D01*
X154740476Y-95266666D01*
X154716666Y-95171428D01*
X154692857Y-95123809D01*
X154669047Y-95100000D01*
X154621428Y-95076190D01*
X154240476Y-95528571D02*
X154216666Y-95552380D01*
X154240476Y-95576190D01*
X154264285Y-95552380D01*
X154240476Y-95528571D01*
X154240476Y-95576190D01*
X153740476Y-95576190D02*
X154026190Y-95576190D01*
X153883333Y-95576190D02*
X153883333Y-95076190D01*
X153930952Y-95147619D01*
X153978571Y-95195238D01*
X154026190Y-95219047D01*
X153311904Y-95242857D02*
X153311904Y-95576190D01*
X153526190Y-95242857D02*
X153526190Y-95504761D01*
X153502380Y-95552380D01*
X153454761Y-95576190D01*
X153383333Y-95576190D01*
X153335714Y-95552380D01*
X153311904Y-95528571D01*
X152907142Y-95314285D02*
X153073809Y-95314285D01*
X153073809Y-95576190D02*
X153073809Y-95076190D01*
X152835714Y-95076190D01*
X155652380Y-89726190D02*
X155652380Y-90083333D01*
X155676190Y-90154761D01*
X155723809Y-90202380D01*
X155795238Y-90226190D01*
X155842857Y-90226190D01*
X155414285Y-89726190D02*
X155414285Y-90130952D01*
X155390476Y-90178571D01*
X155366666Y-90202380D01*
X155319047Y-90226190D01*
X155223809Y-90226190D01*
X155176190Y-90202380D01*
X155152380Y-90178571D01*
X155128571Y-90130952D01*
X155128571Y-89726190D01*
X154890476Y-90226190D02*
X154890476Y-89726190D01*
X154723809Y-90083333D01*
X154557142Y-89726190D01*
X154557142Y-90226190D01*
X154319047Y-90226190D02*
X154319047Y-89726190D01*
X154128571Y-89726190D01*
X154080952Y-89750000D01*
X154057142Y-89773809D01*
X154033333Y-89821428D01*
X154033333Y-89892857D01*
X154057142Y-89940476D01*
X154080952Y-89964285D01*
X154128571Y-89988095D01*
X154319047Y-89988095D01*
X153819047Y-89964285D02*
X153652380Y-89964285D01*
X153580952Y-90226190D02*
X153819047Y-90226190D01*
X153819047Y-89726190D01*
X153580952Y-89726190D01*
X153080952Y-90226190D02*
X153247619Y-89988095D01*
X153366666Y-90226190D02*
X153366666Y-89726190D01*
X153176190Y-89726190D01*
X153128571Y-89750000D01*
X153104761Y-89773809D01*
X153080952Y-89821428D01*
X153080952Y-89892857D01*
X153104761Y-89940476D01*
X153128571Y-89964285D01*
X153176190Y-89988095D01*
X153366666Y-89988095D01*
X155602380Y-86876190D02*
X155602380Y-87233333D01*
X155626190Y-87304761D01*
X155673809Y-87352380D01*
X155745238Y-87376190D01*
X155792857Y-87376190D01*
X155364285Y-86876190D02*
X155364285Y-87280952D01*
X155340476Y-87328571D01*
X155316666Y-87352380D01*
X155269047Y-87376190D01*
X155173809Y-87376190D01*
X155126190Y-87352380D01*
X155102380Y-87328571D01*
X155078571Y-87280952D01*
X155078571Y-86876190D01*
X154840476Y-87376190D02*
X154840476Y-86876190D01*
X154673809Y-87233333D01*
X154507142Y-86876190D01*
X154507142Y-87376190D01*
X154269047Y-87376190D02*
X154269047Y-86876190D01*
X154078571Y-86876190D01*
X154030952Y-86900000D01*
X154007142Y-86923809D01*
X153983333Y-86971428D01*
X153983333Y-87042857D01*
X154007142Y-87090476D01*
X154030952Y-87114285D01*
X154078571Y-87138095D01*
X154269047Y-87138095D01*
X153769047Y-87114285D02*
X153602380Y-87114285D01*
X153530952Y-87376190D02*
X153769047Y-87376190D01*
X153769047Y-86876190D01*
X153530952Y-86876190D01*
X153030952Y-87376190D02*
X153197619Y-87138095D01*
X153316666Y-87376190D02*
X153316666Y-86876190D01*
X153126190Y-86876190D01*
X153078571Y-86900000D01*
X153054761Y-86923809D01*
X153030952Y-86971428D01*
X153030952Y-87042857D01*
X153054761Y-87090476D01*
X153078571Y-87114285D01*
X153126190Y-87138095D01*
X153316666Y-87138095D01*
X155652380Y-83926190D02*
X155652380Y-84283333D01*
X155676190Y-84354761D01*
X155723809Y-84402380D01*
X155795238Y-84426190D01*
X155842857Y-84426190D01*
X155414285Y-83926190D02*
X155414285Y-84330952D01*
X155390476Y-84378571D01*
X155366666Y-84402380D01*
X155319047Y-84426190D01*
X155223809Y-84426190D01*
X155176190Y-84402380D01*
X155152380Y-84378571D01*
X155128571Y-84330952D01*
X155128571Y-83926190D01*
X154890476Y-84426190D02*
X154890476Y-83926190D01*
X154723809Y-84283333D01*
X154557142Y-83926190D01*
X154557142Y-84426190D01*
X154319047Y-84426190D02*
X154319047Y-83926190D01*
X154128571Y-83926190D01*
X154080952Y-83950000D01*
X154057142Y-83973809D01*
X154033333Y-84021428D01*
X154033333Y-84092857D01*
X154057142Y-84140476D01*
X154080952Y-84164285D01*
X154128571Y-84188095D01*
X154319047Y-84188095D01*
X153819047Y-84164285D02*
X153652380Y-84164285D01*
X153580952Y-84426190D02*
X153819047Y-84426190D01*
X153819047Y-83926190D01*
X153580952Y-83926190D01*
X153080952Y-84426190D02*
X153247619Y-84188095D01*
X153366666Y-84426190D02*
X153366666Y-83926190D01*
X153176190Y-83926190D01*
X153128571Y-83950000D01*
X153104761Y-83973809D01*
X153080952Y-84021428D01*
X153080952Y-84092857D01*
X153104761Y-84140476D01*
X153128571Y-84164285D01*
X153176190Y-84188095D01*
X153366666Y-84188095D01*
X155702380Y-80526190D02*
X155702380Y-80883333D01*
X155726190Y-80954761D01*
X155773809Y-81002380D01*
X155845238Y-81026190D01*
X155892857Y-81026190D01*
X155464285Y-80526190D02*
X155464285Y-80930952D01*
X155440476Y-80978571D01*
X155416666Y-81002380D01*
X155369047Y-81026190D01*
X155273809Y-81026190D01*
X155226190Y-81002380D01*
X155202380Y-80978571D01*
X155178571Y-80930952D01*
X155178571Y-80526190D01*
X154940476Y-81026190D02*
X154940476Y-80526190D01*
X154773809Y-80883333D01*
X154607142Y-80526190D01*
X154607142Y-81026190D01*
X154369047Y-81026190D02*
X154369047Y-80526190D01*
X154178571Y-80526190D01*
X154130952Y-80550000D01*
X154107142Y-80573809D01*
X154083333Y-80621428D01*
X154083333Y-80692857D01*
X154107142Y-80740476D01*
X154130952Y-80764285D01*
X154178571Y-80788095D01*
X154369047Y-80788095D01*
X153869047Y-80764285D02*
X153702380Y-80764285D01*
X153630952Y-81026190D02*
X153869047Y-81026190D01*
X153869047Y-80526190D01*
X153630952Y-80526190D01*
X153130952Y-81026190D02*
X153297619Y-80788095D01*
X153416666Y-81026190D02*
X153416666Y-80526190D01*
X153226190Y-80526190D01*
X153178571Y-80550000D01*
X153154761Y-80573809D01*
X153130952Y-80621428D01*
X153130952Y-80692857D01*
X153154761Y-80740476D01*
X153178571Y-80764285D01*
X153226190Y-80788095D01*
X153416666Y-80788095D01*
X146002380Y-83126190D02*
X146002380Y-83483333D01*
X146026190Y-83554761D01*
X146073809Y-83602380D01*
X146145238Y-83626190D01*
X146192857Y-83626190D01*
X145764285Y-83126190D02*
X145764285Y-83530952D01*
X145740476Y-83578571D01*
X145716666Y-83602380D01*
X145669047Y-83626190D01*
X145573809Y-83626190D01*
X145526190Y-83602380D01*
X145502380Y-83578571D01*
X145478571Y-83530952D01*
X145478571Y-83126190D01*
X145240476Y-83626190D02*
X145240476Y-83126190D01*
X145073809Y-83483333D01*
X144907142Y-83126190D01*
X144907142Y-83626190D01*
X144669047Y-83626190D02*
X144669047Y-83126190D01*
X144478571Y-83126190D01*
X144430952Y-83150000D01*
X144407142Y-83173809D01*
X144383333Y-83221428D01*
X144383333Y-83292857D01*
X144407142Y-83340476D01*
X144430952Y-83364285D01*
X144478571Y-83388095D01*
X144669047Y-83388095D01*
X144169047Y-83364285D02*
X144002380Y-83364285D01*
X143930952Y-83626190D02*
X144169047Y-83626190D01*
X144169047Y-83126190D01*
X143930952Y-83126190D01*
X143430952Y-83626190D02*
X143597619Y-83388095D01*
X143716666Y-83626190D02*
X143716666Y-83126190D01*
X143526190Y-83126190D01*
X143478571Y-83150000D01*
X143454761Y-83173809D01*
X143430952Y-83221428D01*
X143430952Y-83292857D01*
X143454761Y-83340476D01*
X143478571Y-83364285D01*
X143526190Y-83388095D01*
X143716666Y-83388095D01*
X145952380Y-80276190D02*
X145952380Y-80633333D01*
X145976190Y-80704761D01*
X146023809Y-80752380D01*
X146095238Y-80776190D01*
X146142857Y-80776190D01*
X145714285Y-80276190D02*
X145714285Y-80680952D01*
X145690476Y-80728571D01*
X145666666Y-80752380D01*
X145619047Y-80776190D01*
X145523809Y-80776190D01*
X145476190Y-80752380D01*
X145452380Y-80728571D01*
X145428571Y-80680952D01*
X145428571Y-80276190D01*
X145190476Y-80776190D02*
X145190476Y-80276190D01*
X145023809Y-80633333D01*
X144857142Y-80276190D01*
X144857142Y-80776190D01*
X144619047Y-80776190D02*
X144619047Y-80276190D01*
X144428571Y-80276190D01*
X144380952Y-80300000D01*
X144357142Y-80323809D01*
X144333333Y-80371428D01*
X144333333Y-80442857D01*
X144357142Y-80490476D01*
X144380952Y-80514285D01*
X144428571Y-80538095D01*
X144619047Y-80538095D01*
X144119047Y-80514285D02*
X143952380Y-80514285D01*
X143880952Y-80776190D02*
X144119047Y-80776190D01*
X144119047Y-80276190D01*
X143880952Y-80276190D01*
X143380952Y-80776190D02*
X143547619Y-80538095D01*
X143666666Y-80776190D02*
X143666666Y-80276190D01*
X143476190Y-80276190D01*
X143428571Y-80300000D01*
X143404761Y-80323809D01*
X143380952Y-80371428D01*
X143380952Y-80442857D01*
X143404761Y-80490476D01*
X143428571Y-80514285D01*
X143476190Y-80538095D01*
X143666666Y-80538095D01*
X152085714Y-77526190D02*
X152085714Y-77026190D01*
X151871428Y-77526190D02*
X151871428Y-77264285D01*
X151895238Y-77216666D01*
X151942857Y-77192857D01*
X152014285Y-77192857D01*
X152061904Y-77216666D01*
X152085714Y-77240476D01*
X151704761Y-77192857D02*
X151514285Y-77192857D01*
X151633333Y-77026190D02*
X151633333Y-77454761D01*
X151609523Y-77502380D01*
X151561904Y-77526190D01*
X151514285Y-77526190D01*
X151419047Y-77192857D02*
X151228571Y-77192857D01*
X151347619Y-77026190D02*
X151347619Y-77454761D01*
X151323809Y-77502380D01*
X151276190Y-77526190D01*
X151228571Y-77526190D01*
X151061904Y-77192857D02*
X151061904Y-77692857D01*
X151061904Y-77216666D02*
X151014285Y-77192857D01*
X150919047Y-77192857D01*
X150871428Y-77216666D01*
X150847619Y-77240476D01*
X150823809Y-77288095D01*
X150823809Y-77430952D01*
X150847619Y-77478571D01*
X150871428Y-77502380D01*
X150919047Y-77526190D01*
X151014285Y-77526190D01*
X151061904Y-77502380D01*
X150633333Y-77502380D02*
X150585714Y-77526190D01*
X150490476Y-77526190D01*
X150442857Y-77502380D01*
X150419047Y-77454761D01*
X150419047Y-77430952D01*
X150442857Y-77383333D01*
X150490476Y-77359523D01*
X150561904Y-77359523D01*
X150609523Y-77335714D01*
X150633333Y-77288095D01*
X150633333Y-77264285D01*
X150609523Y-77216666D01*
X150561904Y-77192857D01*
X150490476Y-77192857D01*
X150442857Y-77216666D01*
X150204761Y-77478571D02*
X150180952Y-77502380D01*
X150204761Y-77526190D01*
X150228571Y-77502380D01*
X150204761Y-77478571D01*
X150204761Y-77526190D01*
X150204761Y-77216666D02*
X150180952Y-77240476D01*
X150204761Y-77264285D01*
X150228571Y-77240476D01*
X150204761Y-77216666D01*
X150204761Y-77264285D01*
X149609523Y-77002380D02*
X150038095Y-77645238D01*
X149085714Y-77002380D02*
X149514285Y-77645238D01*
X148704761Y-77526190D02*
X148704761Y-77026190D01*
X148704761Y-77502380D02*
X148752380Y-77526190D01*
X148847619Y-77526190D01*
X148895238Y-77502380D01*
X148919047Y-77478571D01*
X148942857Y-77430952D01*
X148942857Y-77288095D01*
X148919047Y-77240476D01*
X148895238Y-77216666D01*
X148847619Y-77192857D01*
X148752380Y-77192857D01*
X148704761Y-77216666D01*
X148466666Y-77526190D02*
X148466666Y-77192857D01*
X148466666Y-77026190D02*
X148490476Y-77050000D01*
X148466666Y-77073809D01*
X148442857Y-77050000D01*
X148466666Y-77026190D01*
X148466666Y-77073809D01*
X148252380Y-77502380D02*
X148204761Y-77526190D01*
X148109523Y-77526190D01*
X148061904Y-77502380D01*
X148038095Y-77454761D01*
X148038095Y-77430952D01*
X148061904Y-77383333D01*
X148109523Y-77359523D01*
X148180952Y-77359523D01*
X148228571Y-77335714D01*
X148252380Y-77288095D01*
X148252380Y-77264285D01*
X148228571Y-77216666D01*
X148180952Y-77192857D01*
X148109523Y-77192857D01*
X148061904Y-77216666D01*
X147609523Y-77526190D02*
X147609523Y-77264285D01*
X147633333Y-77216666D01*
X147680952Y-77192857D01*
X147776190Y-77192857D01*
X147823809Y-77216666D01*
X147609523Y-77502380D02*
X147657142Y-77526190D01*
X147776190Y-77526190D01*
X147823809Y-77502380D01*
X147847619Y-77454761D01*
X147847619Y-77407142D01*
X147823809Y-77359523D01*
X147776190Y-77335714D01*
X147657142Y-77335714D01*
X147609523Y-77311904D01*
X147395238Y-77502380D02*
X147347619Y-77526190D01*
X147252380Y-77526190D01*
X147204761Y-77502380D01*
X147180952Y-77454761D01*
X147180952Y-77430952D01*
X147204761Y-77383333D01*
X147252380Y-77359523D01*
X147323809Y-77359523D01*
X147371428Y-77335714D01*
X147395238Y-77288095D01*
X147395238Y-77264285D01*
X147371428Y-77216666D01*
X147323809Y-77192857D01*
X147252380Y-77192857D01*
X147204761Y-77216666D01*
X147038095Y-77192857D02*
X146847619Y-77192857D01*
X146966666Y-77026190D02*
X146966666Y-77454761D01*
X146942857Y-77502380D01*
X146895238Y-77526190D01*
X146847619Y-77526190D01*
X146490476Y-77502380D02*
X146538095Y-77526190D01*
X146633333Y-77526190D01*
X146680952Y-77502380D01*
X146704761Y-77454761D01*
X146704761Y-77264285D01*
X146680952Y-77216666D01*
X146633333Y-77192857D01*
X146538095Y-77192857D01*
X146490476Y-77216666D01*
X146466666Y-77264285D01*
X146466666Y-77311904D01*
X146704761Y-77359523D01*
X146252380Y-77526190D02*
X146252380Y-77192857D01*
X146252380Y-77288095D02*
X146228571Y-77240476D01*
X146204761Y-77216666D01*
X146157142Y-77192857D01*
X146109523Y-77192857D01*
X145942857Y-77478571D02*
X145919047Y-77502380D01*
X145942857Y-77526190D01*
X145966666Y-77502380D01*
X145942857Y-77478571D01*
X145942857Y-77526190D01*
X145704761Y-77526190D02*
X145704761Y-77192857D01*
X145704761Y-77288095D02*
X145680952Y-77240476D01*
X145657142Y-77216666D01*
X145609523Y-77192857D01*
X145561904Y-77192857D01*
X145180952Y-77526190D02*
X145180952Y-77264285D01*
X145204761Y-77216666D01*
X145252380Y-77192857D01*
X145347619Y-77192857D01*
X145395238Y-77216666D01*
X145180952Y-77502380D02*
X145228571Y-77526190D01*
X145347619Y-77526190D01*
X145395238Y-77502380D01*
X145419047Y-77454761D01*
X145419047Y-77407142D01*
X145395238Y-77359523D01*
X145347619Y-77335714D01*
X145228571Y-77335714D01*
X145180952Y-77311904D01*
X144728571Y-77526190D02*
X144728571Y-77026190D01*
X144728571Y-77502380D02*
X144776190Y-77526190D01*
X144871428Y-77526190D01*
X144919047Y-77502380D01*
X144942857Y-77478571D01*
X144966666Y-77430952D01*
X144966666Y-77288095D01*
X144942857Y-77240476D01*
X144919047Y-77216666D01*
X144871428Y-77192857D01*
X144776190Y-77192857D01*
X144728571Y-77216666D01*
X144490476Y-77526190D02*
X144490476Y-77192857D01*
X144490476Y-77026190D02*
X144514285Y-77050000D01*
X144490476Y-77073809D01*
X144466666Y-77050000D01*
X144490476Y-77026190D01*
X144490476Y-77073809D01*
X144180952Y-77526190D02*
X144228571Y-77502380D01*
X144252380Y-77478571D01*
X144276190Y-77430952D01*
X144276190Y-77288095D01*
X144252380Y-77240476D01*
X144228571Y-77216666D01*
X144180952Y-77192857D01*
X144109523Y-77192857D01*
X144061904Y-77216666D01*
X144038095Y-77240476D01*
X144014285Y-77288095D01*
X144014285Y-77430952D01*
X144038095Y-77478571D01*
X144061904Y-77502380D01*
X144109523Y-77526190D01*
X144180952Y-77526190D01*
X143442857Y-77002380D02*
X143871428Y-77645238D01*
X153100000Y-76476190D02*
X153100000Y-75976190D01*
X152980952Y-75976190D01*
X152909523Y-76000000D01*
X152861904Y-76047619D01*
X152838095Y-76095238D01*
X152814285Y-76190476D01*
X152814285Y-76261904D01*
X152838095Y-76357142D01*
X152861904Y-76404761D01*
X152909523Y-76452380D01*
X152980952Y-76476190D01*
X153100000Y-76476190D01*
X152600000Y-76476190D02*
X152600000Y-76142857D01*
X152600000Y-75976190D02*
X152623809Y-76000000D01*
X152600000Y-76023809D01*
X152576190Y-76000000D01*
X152600000Y-75976190D01*
X152600000Y-76023809D01*
X152385714Y-76452380D02*
X152338095Y-76476190D01*
X152242857Y-76476190D01*
X152195238Y-76452380D01*
X152171428Y-76404761D01*
X152171428Y-76380952D01*
X152195238Y-76333333D01*
X152242857Y-76309523D01*
X152314285Y-76309523D01*
X152361904Y-76285714D01*
X152385714Y-76238095D01*
X152385714Y-76214285D01*
X152361904Y-76166666D01*
X152314285Y-76142857D01*
X152242857Y-76142857D01*
X152195238Y-76166666D01*
X151742857Y-76476190D02*
X151742857Y-76214285D01*
X151766666Y-76166666D01*
X151814285Y-76142857D01*
X151909523Y-76142857D01*
X151957142Y-76166666D01*
X151742857Y-76452380D02*
X151790476Y-76476190D01*
X151909523Y-76476190D01*
X151957142Y-76452380D01*
X151980952Y-76404761D01*
X151980952Y-76357142D01*
X151957142Y-76309523D01*
X151909523Y-76285714D01*
X151790476Y-76285714D01*
X151742857Y-76261904D01*
X151528571Y-76452380D02*
X151480952Y-76476190D01*
X151385714Y-76476190D01*
X151338095Y-76452380D01*
X151314285Y-76404761D01*
X151314285Y-76380952D01*
X151338095Y-76333333D01*
X151385714Y-76309523D01*
X151457142Y-76309523D01*
X151504761Y-76285714D01*
X151528571Y-76238095D01*
X151528571Y-76214285D01*
X151504761Y-76166666D01*
X151457142Y-76142857D01*
X151385714Y-76142857D01*
X151338095Y-76166666D01*
X151171428Y-76142857D02*
X150980952Y-76142857D01*
X151100000Y-75976190D02*
X151100000Y-76404761D01*
X151076190Y-76452380D01*
X151028571Y-76476190D01*
X150980952Y-76476190D01*
X150623809Y-76452380D02*
X150671428Y-76476190D01*
X150766666Y-76476190D01*
X150814285Y-76452380D01*
X150838095Y-76404761D01*
X150838095Y-76214285D01*
X150814285Y-76166666D01*
X150766666Y-76142857D01*
X150671428Y-76142857D01*
X150623809Y-76166666D01*
X150600000Y-76214285D01*
X150600000Y-76261904D01*
X150838095Y-76309523D01*
X150385714Y-76476190D02*
X150385714Y-76142857D01*
X150385714Y-76238095D02*
X150361904Y-76190476D01*
X150338095Y-76166666D01*
X150290476Y-76142857D01*
X150242857Y-76142857D01*
X149409523Y-76476190D02*
X149576190Y-76238095D01*
X149695238Y-76476190D02*
X149695238Y-75976190D01*
X149504761Y-75976190D01*
X149457142Y-76000000D01*
X149433333Y-76023809D01*
X149409523Y-76071428D01*
X149409523Y-76142857D01*
X149433333Y-76190476D01*
X149457142Y-76214285D01*
X149504761Y-76238095D01*
X149695238Y-76238095D01*
X148980952Y-76476190D02*
X148980952Y-76214285D01*
X149004761Y-76166666D01*
X149052380Y-76142857D01*
X149147619Y-76142857D01*
X149195238Y-76166666D01*
X148980952Y-76452380D02*
X149028571Y-76476190D01*
X149147619Y-76476190D01*
X149195238Y-76452380D01*
X149219047Y-76404761D01*
X149219047Y-76357142D01*
X149195238Y-76309523D01*
X149147619Y-76285714D01*
X149028571Y-76285714D01*
X148980952Y-76261904D01*
X148528571Y-76476190D02*
X148528571Y-75976190D01*
X148528571Y-76452380D02*
X148576190Y-76476190D01*
X148671428Y-76476190D01*
X148719047Y-76452380D01*
X148742857Y-76428571D01*
X148766666Y-76380952D01*
X148766666Y-76238095D01*
X148742857Y-76190476D01*
X148719047Y-76166666D01*
X148671428Y-76142857D01*
X148576190Y-76142857D01*
X148528571Y-76166666D01*
X148290476Y-76476190D02*
X148290476Y-76142857D01*
X148290476Y-75976190D02*
X148314285Y-76000000D01*
X148290476Y-76023809D01*
X148266666Y-76000000D01*
X148290476Y-75976190D01*
X148290476Y-76023809D01*
X147980952Y-76476190D02*
X148028571Y-76452380D01*
X148052380Y-76428571D01*
X148076190Y-76380952D01*
X148076190Y-76238095D01*
X148052380Y-76190476D01*
X148028571Y-76166666D01*
X147980952Y-76142857D01*
X147909523Y-76142857D01*
X147861904Y-76166666D01*
X147838095Y-76190476D01*
X147814285Y-76238095D01*
X147814285Y-76380952D01*
X147838095Y-76428571D01*
X147861904Y-76452380D01*
X147909523Y-76476190D01*
X147980952Y-76476190D01*
X147290476Y-75976190D02*
X147123809Y-76476190D01*
X146957142Y-75976190D01*
X146695238Y-75976190D02*
X146647619Y-75976190D01*
X146600000Y-76000000D01*
X146576190Y-76023809D01*
X146552380Y-76071428D01*
X146528571Y-76166666D01*
X146528571Y-76285714D01*
X146552380Y-76380952D01*
X146576190Y-76428571D01*
X146600000Y-76452380D01*
X146647619Y-76476190D01*
X146695238Y-76476190D01*
X146742857Y-76452380D01*
X146766666Y-76428571D01*
X146790476Y-76380952D01*
X146814285Y-76285714D01*
X146814285Y-76166666D01*
X146790476Y-76071428D01*
X146766666Y-76023809D01*
X146742857Y-76000000D01*
X146695238Y-75976190D01*
X146314285Y-76428571D02*
X146290476Y-76452380D01*
X146314285Y-76476190D01*
X146338095Y-76452380D01*
X146314285Y-76428571D01*
X146314285Y-76476190D01*
X146100000Y-76023809D02*
X146076190Y-76000000D01*
X146028571Y-75976190D01*
X145909523Y-75976190D01*
X145861904Y-76000000D01*
X145838095Y-76023809D01*
X145814285Y-76071428D01*
X145814285Y-76119047D01*
X145838095Y-76190476D01*
X146123809Y-76476190D01*
X145814285Y-76476190D01*
X144957142Y-76476190D02*
X145242857Y-76476190D01*
X145100000Y-76476190D02*
X145100000Y-75976190D01*
X145147619Y-76047619D01*
X145195238Y-76095238D01*
X145242857Y-76119047D01*
X144671428Y-76190476D02*
X144719047Y-76166666D01*
X144742857Y-76142857D01*
X144766666Y-76095238D01*
X144766666Y-76071428D01*
X144742857Y-76023809D01*
X144719047Y-76000000D01*
X144671428Y-75976190D01*
X144576190Y-75976190D01*
X144528571Y-76000000D01*
X144504761Y-76023809D01*
X144480952Y-76071428D01*
X144480952Y-76095238D01*
X144504761Y-76142857D01*
X144528571Y-76166666D01*
X144576190Y-76190476D01*
X144671428Y-76190476D01*
X144719047Y-76214285D01*
X144742857Y-76238095D01*
X144766666Y-76285714D01*
X144766666Y-76380952D01*
X144742857Y-76428571D01*
X144719047Y-76452380D01*
X144671428Y-76476190D01*
X144576190Y-76476190D01*
X144528571Y-76452380D01*
X144504761Y-76428571D01*
X144480952Y-76380952D01*
X144480952Y-76285714D01*
X144504761Y-76238095D01*
X144528571Y-76214285D01*
X144576190Y-76190476D01*
X144171428Y-75976190D02*
X144123809Y-75976190D01*
X144076190Y-76000000D01*
X144052380Y-76023809D01*
X144028571Y-76071428D01*
X144004761Y-76166666D01*
X144004761Y-76285714D01*
X144028571Y-76380952D01*
X144052380Y-76428571D01*
X144076190Y-76452380D01*
X144123809Y-76476190D01*
X144171428Y-76476190D01*
X144219047Y-76452380D01*
X144242857Y-76428571D01*
X144266666Y-76380952D01*
X144290476Y-76285714D01*
X144290476Y-76166666D01*
X144266666Y-76071428D01*
X144242857Y-76023809D01*
X144219047Y-76000000D01*
X144171428Y-75976190D01*
X143528571Y-76476190D02*
X143814285Y-76476190D01*
X143671428Y-76476190D02*
X143671428Y-75976190D01*
X143719047Y-76047619D01*
X143766666Y-76095238D01*
X143814285Y-76119047D01*
X143219047Y-75976190D02*
X143171428Y-75976190D01*
X143123809Y-76000000D01*
X143100000Y-76023809D01*
X143076190Y-76071428D01*
X143052380Y-76166666D01*
X143052380Y-76285714D01*
X143076190Y-76380952D01*
X143100000Y-76428571D01*
X143123809Y-76452380D01*
X143171428Y-76476190D01*
X143219047Y-76476190D01*
X143266666Y-76452380D01*
X143290476Y-76428571D01*
X143314285Y-76380952D01*
X143338095Y-76285714D01*
X143338095Y-76166666D01*
X143314285Y-76071428D01*
X143290476Y-76023809D01*
X143266666Y-76000000D01*
X143219047Y-75976190D01*
X142814285Y-76476190D02*
X142719047Y-76476190D01*
X142671428Y-76452380D01*
X142647619Y-76428571D01*
X142600000Y-76357142D01*
X142576190Y-76261904D01*
X142576190Y-76071428D01*
X142600000Y-76023809D01*
X142623809Y-76000000D01*
X142671428Y-75976190D01*
X142766666Y-75976190D01*
X142814285Y-76000000D01*
X142838095Y-76023809D01*
X142861904Y-76071428D01*
X142861904Y-76190476D01*
X142838095Y-76238095D01*
X142814285Y-76261904D01*
X142766666Y-76285714D01*
X142671428Y-76285714D01*
X142623809Y-76261904D01*
X142600000Y-76238095D01*
X142576190Y-76190476D01*
D11*
%TO.C,C3*%
X151625000Y-99100000D02*
X150625000Y-99100000D01*
X150625000Y-97400000D02*
X151625000Y-97400000D01*
%TO.C,C5*%
X154200000Y-93050000D02*
X155200000Y-93050000D01*
X155200000Y-94750000D02*
X154200000Y-94750000D01*
%TO.C,C4*%
X141100000Y-90000000D02*
X141100000Y-91000000D01*
X139400000Y-91000000D02*
X139400000Y-90000000D01*
%TO.C,L2*%
X147630000Y-97350000D02*
X147630000Y-96150000D01*
X145870000Y-96150000D02*
X145870000Y-97350000D01*
%TO.C,L1*%
X156150000Y-99130000D02*
X157350000Y-99130000D01*
X157350000Y-97370000D02*
X156150000Y-97370000D01*
%TO.C,C1*%
X149850000Y-103350000D02*
X149850000Y-102350000D01*
X151550000Y-102350000D02*
X151550000Y-103350000D01*
%TO.C,C2*%
X154500000Y-103150000D02*
X154500000Y-102150000D01*
X156200000Y-102150000D02*
X156200000Y-103150000D01*
%TO.C,R1*%
X145400000Y-83820000D02*
X144200000Y-83820000D01*
X144200000Y-85580000D02*
X145400000Y-85580000D01*
%TO.C,R2*%
X145300000Y-81120000D02*
X144100000Y-81120000D01*
X144100000Y-82880000D02*
X145300000Y-82880000D01*
%TO.C,R3*%
X153900000Y-92180000D02*
X155100000Y-92180000D01*
X155100000Y-90420000D02*
X153900000Y-90420000D01*
%TO.C,R4*%
X153800000Y-86580000D02*
X155000000Y-86580000D01*
X155000000Y-84820000D02*
X153800000Y-84820000D01*
%TO.C,R5*%
X153900000Y-83080000D02*
X155100000Y-83080000D01*
X155100000Y-81320000D02*
X153900000Y-81320000D01*
%TO.C,R6*%
X153900000Y-89480000D02*
X155100000Y-89480000D01*
X155100000Y-87720000D02*
X153900000Y-87720000D01*
%TO.C,C3*%
D12*
X151291666Y-96857142D02*
X151339285Y-96904761D01*
X151482142Y-96952380D01*
X151577380Y-96952380D01*
X151720238Y-96904761D01*
X151815476Y-96809523D01*
X151863095Y-96714285D01*
X151910714Y-96523809D01*
X151910714Y-96380952D01*
X151863095Y-96190476D01*
X151815476Y-96095238D01*
X151720238Y-96000000D01*
X151577380Y-95952380D01*
X151482142Y-95952380D01*
X151339285Y-96000000D01*
X151291666Y-96047619D01*
X150958333Y-95952380D02*
X150339285Y-95952380D01*
X150672619Y-96333333D01*
X150529761Y-96333333D01*
X150434523Y-96380952D01*
X150386904Y-96428571D01*
X150339285Y-96523809D01*
X150339285Y-96761904D01*
X150386904Y-96857142D01*
X150434523Y-96904761D01*
X150529761Y-96952380D01*
X150815476Y-96952380D01*
X150910714Y-96904761D01*
X150958333Y-96857142D01*
%TO.C,C5*%
X151416666Y-94307142D02*
X151464285Y-94354761D01*
X151607142Y-94402380D01*
X151702380Y-94402380D01*
X151845238Y-94354761D01*
X151940476Y-94259523D01*
X151988095Y-94164285D01*
X152035714Y-93973809D01*
X152035714Y-93830952D01*
X151988095Y-93640476D01*
X151940476Y-93545238D01*
X151845238Y-93450000D01*
X151702380Y-93402380D01*
X151607142Y-93402380D01*
X151464285Y-93450000D01*
X151416666Y-93497619D01*
X150511904Y-93402380D02*
X150988095Y-93402380D01*
X151035714Y-93878571D01*
X150988095Y-93830952D01*
X150892857Y-93783333D01*
X150654761Y-93783333D01*
X150559523Y-93830952D01*
X150511904Y-93878571D01*
X150464285Y-93973809D01*
X150464285Y-94211904D01*
X150511904Y-94307142D01*
X150559523Y-94354761D01*
X150654761Y-94402380D01*
X150892857Y-94402380D01*
X150988095Y-94354761D01*
X151035714Y-94307142D01*
%TO.C,C4*%
X142707142Y-90083333D02*
X142754761Y-90035714D01*
X142802380Y-89892857D01*
X142802380Y-89797619D01*
X142754761Y-89654761D01*
X142659523Y-89559523D01*
X142564285Y-89511904D01*
X142373809Y-89464285D01*
X142230952Y-89464285D01*
X142040476Y-89511904D01*
X141945238Y-89559523D01*
X141850000Y-89654761D01*
X141802380Y-89797619D01*
X141802380Y-89892857D01*
X141850000Y-90035714D01*
X141897619Y-90083333D01*
X142135714Y-90940476D02*
X142802380Y-90940476D01*
X141754761Y-90702380D02*
X142469047Y-90464285D01*
X142469047Y-91083333D01*
%TO.C,L2*%
X145102380Y-96583333D02*
X145102380Y-96107142D01*
X144102380Y-96107142D01*
X144197619Y-96869047D02*
X144150000Y-96916666D01*
X144102380Y-97011904D01*
X144102380Y-97250000D01*
X144150000Y-97345238D01*
X144197619Y-97392857D01*
X144292857Y-97440476D01*
X144388095Y-97440476D01*
X144530952Y-97392857D01*
X145102380Y-96821428D01*
X145102380Y-97440476D01*
%TO.C,L1*%
X156916666Y-96902380D02*
X157392857Y-96902380D01*
X157392857Y-95902380D01*
X156059523Y-96902380D02*
X156630952Y-96902380D01*
X156345238Y-96902380D02*
X156345238Y-95902380D01*
X156440476Y-96045238D01*
X156535714Y-96140476D01*
X156630952Y-96188095D01*
%TO.C,C1*%
X151207142Y-106083333D02*
X151254761Y-106035714D01*
X151302380Y-105892857D01*
X151302380Y-105797619D01*
X151254761Y-105654761D01*
X151159523Y-105559523D01*
X151064285Y-105511904D01*
X150873809Y-105464285D01*
X150730952Y-105464285D01*
X150540476Y-105511904D01*
X150445238Y-105559523D01*
X150350000Y-105654761D01*
X150302380Y-105797619D01*
X150302380Y-105892857D01*
X150350000Y-106035714D01*
X150397619Y-106083333D01*
X151302380Y-107035714D02*
X151302380Y-106464285D01*
X151302380Y-106750000D02*
X150302380Y-106750000D01*
X150445238Y-106654761D01*
X150540476Y-106559523D01*
X150588095Y-106464285D01*
%TO.C,C2*%
X155707142Y-105983333D02*
X155754761Y-105935714D01*
X155802380Y-105792857D01*
X155802380Y-105697619D01*
X155754761Y-105554761D01*
X155659523Y-105459523D01*
X155564285Y-105411904D01*
X155373809Y-105364285D01*
X155230952Y-105364285D01*
X155040476Y-105411904D01*
X154945238Y-105459523D01*
X154850000Y-105554761D01*
X154802380Y-105697619D01*
X154802380Y-105792857D01*
X154850000Y-105935714D01*
X154897619Y-105983333D01*
X154897619Y-106364285D02*
X154850000Y-106411904D01*
X154802380Y-106507142D01*
X154802380Y-106745238D01*
X154850000Y-106840476D01*
X154897619Y-106888095D01*
X154992857Y-106935714D01*
X155088095Y-106935714D01*
X155230952Y-106888095D01*
X155802380Y-106316666D01*
X155802380Y-106935714D01*
%TO.C,R1*%
X148516666Y-85152380D02*
X148850000Y-84676190D01*
X149088095Y-85152380D02*
X149088095Y-84152380D01*
X148707142Y-84152380D01*
X148611904Y-84200000D01*
X148564285Y-84247619D01*
X148516666Y-84342857D01*
X148516666Y-84485714D01*
X148564285Y-84580952D01*
X148611904Y-84628571D01*
X148707142Y-84676190D01*
X149088095Y-84676190D01*
X147564285Y-85152380D02*
X148135714Y-85152380D01*
X147850000Y-85152380D02*
X147850000Y-84152380D01*
X147945238Y-84295238D01*
X148040476Y-84390476D01*
X148135714Y-84438095D01*
%TO.C,R2*%
X148216666Y-82352380D02*
X148550000Y-81876190D01*
X148788095Y-82352380D02*
X148788095Y-81352380D01*
X148407142Y-81352380D01*
X148311904Y-81400000D01*
X148264285Y-81447619D01*
X148216666Y-81542857D01*
X148216666Y-81685714D01*
X148264285Y-81780952D01*
X148311904Y-81828571D01*
X148407142Y-81876190D01*
X148788095Y-81876190D01*
X147835714Y-81447619D02*
X147788095Y-81400000D01*
X147692857Y-81352380D01*
X147454761Y-81352380D01*
X147359523Y-81400000D01*
X147311904Y-81447619D01*
X147264285Y-81542857D01*
X147264285Y-81638095D01*
X147311904Y-81780952D01*
X147883333Y-82352380D01*
X147264285Y-82352380D01*
%TO.C,R3*%
X151216666Y-91852380D02*
X151550000Y-91376190D01*
X151788095Y-91852380D02*
X151788095Y-90852380D01*
X151407142Y-90852380D01*
X151311904Y-90900000D01*
X151264285Y-90947619D01*
X151216666Y-91042857D01*
X151216666Y-91185714D01*
X151264285Y-91280952D01*
X151311904Y-91328571D01*
X151407142Y-91376190D01*
X151788095Y-91376190D01*
X150883333Y-90852380D02*
X150264285Y-90852380D01*
X150597619Y-91233333D01*
X150454761Y-91233333D01*
X150359523Y-91280952D01*
X150311904Y-91328571D01*
X150264285Y-91423809D01*
X150264285Y-91661904D01*
X150311904Y-91757142D01*
X150359523Y-91804761D01*
X150454761Y-91852380D01*
X150740476Y-91852380D01*
X150835714Y-91804761D01*
X150883333Y-91757142D01*
%TO.C,R4*%
X151166666Y-86202380D02*
X151500000Y-85726190D01*
X151738095Y-86202380D02*
X151738095Y-85202380D01*
X151357142Y-85202380D01*
X151261904Y-85250000D01*
X151214285Y-85297619D01*
X151166666Y-85392857D01*
X151166666Y-85535714D01*
X151214285Y-85630952D01*
X151261904Y-85678571D01*
X151357142Y-85726190D01*
X151738095Y-85726190D01*
X150309523Y-85535714D02*
X150309523Y-86202380D01*
X150547619Y-85154761D02*
X150785714Y-85869047D01*
X150166666Y-85869047D01*
%TO.C,R5*%
X151116666Y-82652380D02*
X151450000Y-82176190D01*
X151688095Y-82652380D02*
X151688095Y-81652380D01*
X151307142Y-81652380D01*
X151211904Y-81700000D01*
X151164285Y-81747619D01*
X151116666Y-81842857D01*
X151116666Y-81985714D01*
X151164285Y-82080952D01*
X151211904Y-82128571D01*
X151307142Y-82176190D01*
X151688095Y-82176190D01*
X150211904Y-81652380D02*
X150688095Y-81652380D01*
X150735714Y-82128571D01*
X150688095Y-82080952D01*
X150592857Y-82033333D01*
X150354761Y-82033333D01*
X150259523Y-82080952D01*
X150211904Y-82128571D01*
X150164285Y-82223809D01*
X150164285Y-82461904D01*
X150211904Y-82557142D01*
X150259523Y-82604761D01*
X150354761Y-82652380D01*
X150592857Y-82652380D01*
X150688095Y-82604761D01*
X150735714Y-82557142D01*
%TO.C,R6*%
X150866666Y-89102380D02*
X151200000Y-88626190D01*
X151438095Y-89102380D02*
X151438095Y-88102380D01*
X151057142Y-88102380D01*
X150961904Y-88150000D01*
X150914285Y-88197619D01*
X150866666Y-88292857D01*
X150866666Y-88435714D01*
X150914285Y-88530952D01*
X150961904Y-88578571D01*
X151057142Y-88626190D01*
X151438095Y-88626190D01*
X150009523Y-88102380D02*
X150200000Y-88102380D01*
X150295238Y-88150000D01*
X150342857Y-88197619D01*
X150438095Y-88340476D01*
X150485714Y-88530952D01*
X150485714Y-88911904D01*
X150438095Y-89007142D01*
X150390476Y-89054761D01*
X150295238Y-89102380D01*
X150104761Y-89102380D01*
X150009523Y-89054761D01*
X149961904Y-89007142D01*
X149914285Y-88911904D01*
X149914285Y-88673809D01*
X149961904Y-88578571D01*
X150009523Y-88530952D01*
X150104761Y-88483333D01*
X150295238Y-88483333D01*
X150390476Y-88530952D01*
X150438095Y-88578571D01*
X150485714Y-88673809D01*
%TD*%
M02*
