%TF.GenerationSoftware,KiCad,Pcbnew,no-vcs-found-c6d0075~61~ubuntu17.10.1*%
%TF.CreationDate,2018-01-30T21:37:05-08:00*%
%TF.ProjectId,lora_nodemcu,6C6F72615F6E6F64656D63752E6B6963,rev?*%
%TF.SameCoordinates,Original*%
%TF.FileFunction,Copper,L1,Top,Signal*%
%TF.FilePolarity,Positive*%
%FSLAX46Y46*%
G04 Gerber Fmt 4.6, Leading zero omitted, Abs format (unit mm)*
G04 Created by KiCad (PCBNEW no-vcs-found-c6d0075~61~ubuntu17.10.1) date Tue Jan 30 21:37:05 2018*
%MOMM*%
%LPD*%
G01*
G04 APERTURE LIST*
%TA.AperFunction,ComponentPad*%
%ADD10C,1.800000*%
%TD*%
%TA.AperFunction,SMDPad,CuDef*%
%ADD11R,2.290000X5.080000*%
%TD*%
%TA.AperFunction,SMDPad,CuDef*%
%ADD12R,2.420000X5.080000*%
%TD*%
%TA.AperFunction,ViaPad*%
%ADD13C,0.970000*%
%TD*%
%TA.AperFunction,Conductor*%
%ADD14R,0.460000X0.890000*%
%TD*%
%TA.AperFunction,SMDPad,CuDef*%
%ADD15R,1.600000X3.000000*%
%TD*%
%TA.AperFunction,SMDPad,CuDef*%
%ADD16R,2.000000X3.800000*%
%TD*%
%TA.AperFunction,SMDPad,CuDef*%
%ADD17R,2.000000X1.500000*%
%TD*%
%TA.AperFunction,ViaPad*%
%ADD18C,0.600000*%
%TD*%
%TA.AperFunction,ViaPad*%
%ADD19C,0.800000*%
%TD*%
%TA.AperFunction,Conductor*%
%ADD20C,0.250000*%
%TD*%
%TA.AperFunction,Conductor*%
%ADD21C,0.500000*%
%TD*%
%TA.AperFunction,Conductor*%
%ADD22C,0.335589*%
%TD*%
%TA.AperFunction,Conductor*%
%ADD23C,0.254000*%
%TD*%
G04 APERTURE END LIST*
D10*
%TO.P,U3,8*%
%TO.N,Net-(U3-Pad8)*%
X137236200Y-76962000D03*
%TO.P,U3,7*%
%TO.N,Net-(U3-Pad7)*%
X137236200Y-79502000D03*
%TO.P,U3,6*%
%TO.N,Net-(R2-Pad1)*%
X137236200Y-82042000D03*
%TO.P,U3,5*%
%TO.N,Net-(R1-Pad1)*%
X137236200Y-84582000D03*
%TO.P,U3,4*%
%TO.N,Net-(U3-Pad4)*%
X137236200Y-87122000D03*
%TO.P,U3,3*%
%TO.N,Net-(U3-Pad3)*%
X137236200Y-89662000D03*
%TO.P,U3,2*%
%TO.N,GND*%
X137236200Y-92202000D03*
%TO.P,U3,1*%
%TO.N,/wemos_5V*%
X137236200Y-94742000D03*
%TO.P,U3,16*%
%TO.N,Net-(C5-Pad2)*%
X160096200Y-94742000D03*
%TO.P,U3,15*%
%TO.N,/SS*%
X160096200Y-92202000D03*
%TO.P,U3,14*%
%TO.N,/MOSI*%
X160096200Y-89662000D03*
%TO.P,U3,13*%
%TO.N,/MISO*%
X160096200Y-87122000D03*
%TO.P,U3,12*%
%TO.N,/SCK*%
X160096200Y-84582000D03*
%TO.P,U3,11*%
%TO.N,Net-(U3-Pad11)*%
X160096200Y-82042000D03*
%TO.P,U3,10*%
%TO.N,Net-(U3-Pad10)*%
X160096200Y-79502000D03*
%TO.P,U3,9*%
%TO.N,Net-(U3-Pad9)*%
X160096200Y-76962000D03*
%TD*%
D11*
%TO.P,AE1,1*%
%TO.N,/50Ohm*%
X142000000Y-105020000D03*
D12*
%TO.P,AE1,2*%
%TO.N,GND*%
X137620000Y-105020000D03*
X146380000Y-105020000D03*
D13*
%TD*%
%TO.N,GND*%
%TO.C,AE1*%
X137620000Y-101580000D03*
%TO.N,GND*%
%TO.C,AE1*%
X146380000Y-101580000D03*
D14*
X137620000Y-102030000D03*
X146380000Y-102030000D03*
%TD*%
D15*
%TO.P,U1,16*%
%TO.N,Net-(U1-Pad16)*%
X155513800Y-94609200D03*
%TO.P,U1,1*%
%TO.N,GND*%
X155513800Y-78009200D03*
%TO.P,U1,15*%
%TO.N,Net-(U1-Pad15)*%
X153513800Y-94609200D03*
%TO.P,U1,2*%
%TO.N,Net-(R5-Pad2)*%
X153513800Y-78009200D03*
%TO.P,U1,14*%
%TO.N,Net-(R1-Pad2)*%
X151513800Y-94609200D03*
%TO.P,U1,3*%
%TO.N,Net-(R6-Pad2)*%
X151513800Y-78009200D03*
%TO.P,U1,13*%
%TO.N,/RF95_3V3*%
X149513800Y-94609200D03*
%TO.P,U1,4*%
%TO.N,Net-(R4-Pad2)*%
X149513800Y-78009200D03*
%TO.P,U1,12*%
%TO.N,Net-(U1-Pad12)*%
X147513800Y-94609200D03*
%TO.P,U1,5*%
%TO.N,Net-(R3-Pad2)*%
X147513800Y-78009200D03*
%TO.P,U1,11*%
%TO.N,Net-(U1-Pad11)*%
X145513800Y-94609200D03*
%TO.P,U1,6*%
%TO.N,Net-(R2-Pad2)*%
X145513800Y-78009200D03*
%TO.P,U1,10*%
%TO.N,GND*%
X143513800Y-94609200D03*
%TO.P,U1,7*%
%TO.N,Net-(U1-Pad7)*%
X143513800Y-78009200D03*
%TO.P,U1,9*%
%TO.N,/50Ohm*%
X141513800Y-94609200D03*
%TO.P,U1,8*%
%TO.N,GND*%
X141513800Y-78009200D03*
%TD*%
D16*
%TO.P,U2,4*%
%TO.N,+3V3*%
X158140800Y-104013000D03*
D17*
%TO.P,U2,2*%
X151840800Y-104013000D03*
%TO.P,U2,3*%
%TO.N,+5V*%
X151840800Y-106313000D03*
%TO.P,U2,1*%
%TO.N,GND*%
X151840800Y-101713000D03*
%TD*%
D18*
%TO.N,Net-(R1-Pad2)*%
X149900000Y-90900000D03*
%TO.N,Net-(R2-Pad2)*%
X145594409Y-80499601D03*
X145594409Y-80499601D03*
%TO.N,/SS*%
X160096200Y-92202000D03*
%TO.N,Net-(R3-Pad2)*%
X148000000Y-80600000D03*
%TO.N,/SCK*%
X157900000Y-85500000D03*
%TO.N,Net-(R4-Pad2)*%
X149670978Y-81036697D03*
%TO.N,Net-(R5-Pad2)*%
X153100000Y-80400000D03*
%TO.N,Net-(R6-Pad2)*%
X151045786Y-85723543D03*
D19*
%TO.N,GND*%
X144700000Y-88400000D03*
X138950000Y-76450000D03*
X157950000Y-76450000D03*
X160250000Y-106450000D03*
X148650000Y-106550000D03*
X150000000Y-99750000D03*
X143500000Y-92100000D03*
D18*
X144000000Y-98750000D03*
X139000000Y-97500000D03*
X139000000Y-96000000D03*
X139000000Y-100500000D03*
X144000000Y-100000000D03*
X139000000Y-99000000D03*
D19*
X143500000Y-97000000D03*
X155500000Y-80500000D03*
X141500000Y-80750000D03*
X153750000Y-101500000D03*
X148400000Y-97475000D03*
X151800000Y-99775000D03*
X153025000Y-100050000D03*
X145304999Y-101095001D03*
X137600000Y-100000000D03*
%TO.N,+3V3*%
X153850000Y-104125000D03*
%TO.N,+5V*%
X150000000Y-106300000D03*
%TO.N,/RF95_3V3*%
X151150000Y-96900000D03*
%TD*%
D20*
%TO.N,Net-(R1-Pad2)*%
X149900000Y-90900000D02*
X151513800Y-92513800D01*
X151513800Y-92513800D02*
X151513800Y-94609200D01*
%TO.N,Net-(R2-Pad2)*%
X145513800Y-78009200D02*
X145513800Y-80418992D01*
X145513800Y-80418992D02*
X145594409Y-80499601D01*
%TO.N,/SS*%
X159494200Y-91600000D02*
X160096200Y-92202000D01*
%TO.N,Net-(R3-Pad2)*%
X148000000Y-80600000D02*
X147513800Y-80113800D01*
X147513800Y-80113800D02*
X147513800Y-78009200D01*
%TO.N,/SCK*%
X157900000Y-85500000D02*
X158818000Y-84582000D01*
X158818000Y-84582000D02*
X160096200Y-84582000D01*
%TO.N,Net-(R4-Pad2)*%
X149670978Y-81036697D02*
X149670978Y-78166378D01*
X149670978Y-78166378D02*
X149513800Y-78009200D01*
%TO.N,Net-(R5-Pad2)*%
X153100000Y-80400000D02*
X153513800Y-79986200D01*
X153513800Y-79986200D02*
X153513800Y-78009200D01*
%TO.N,Net-(R6-Pad2)*%
X151045786Y-85723543D02*
X151045786Y-78477214D01*
X151045786Y-78477214D02*
X151513800Y-78009200D01*
D21*
%TO.N,GND*%
X137620000Y-101580000D02*
X137620000Y-105020000D01*
X143513800Y-94609200D02*
X143513800Y-92113800D01*
X143513800Y-92113800D02*
X143500000Y-92100000D01*
X143513800Y-94609200D02*
X143513800Y-96986200D01*
X143513800Y-96986200D02*
X143500000Y-97000000D01*
X155513800Y-78009200D02*
X155513800Y-80486200D01*
X155513800Y-80486200D02*
X155500000Y-80500000D01*
X141513800Y-78009200D02*
X141513800Y-80736200D01*
X141513800Y-80736200D02*
X141500000Y-80750000D01*
X151840800Y-99559200D02*
X151840800Y-99734200D01*
X151840800Y-99734200D02*
X151800000Y-99775000D01*
X151840800Y-101713000D02*
X151840800Y-99559200D01*
X137600000Y-100874107D02*
X137600000Y-100000000D01*
X137620000Y-101580000D02*
X137620000Y-100894107D01*
X137620000Y-100894107D02*
X137600000Y-100874107D01*
%TO.N,+3V3*%
X158140800Y-104013000D02*
X153962000Y-104013000D01*
X153962000Y-104013000D02*
X153850000Y-104125000D01*
X151840800Y-104013000D02*
X153738000Y-104013000D01*
X153738000Y-104013000D02*
X153850000Y-104125000D01*
%TO.N,+5V*%
X151840800Y-106313000D02*
X150013000Y-106313000D01*
X150013000Y-106313000D02*
X150000000Y-106300000D01*
D22*
%TO.N,/50Ohm*%
X141513800Y-94609200D02*
X141513800Y-104533800D01*
D20*
X141513800Y-104533800D02*
X142000000Y-105020000D01*
D21*
%TO.N,/RF95_3V3*%
X149513800Y-96609200D02*
X149513800Y-94609200D01*
X149804600Y-96900000D02*
X149513800Y-96609200D01*
X151150000Y-96900000D02*
X149804600Y-96900000D01*
%TD*%
D23*
%TO.N,GND*%
G36*
X161215000Y-76456718D02*
X161136400Y-76266961D01*
X160791239Y-75921800D01*
X160340265Y-75735000D01*
X159852135Y-75735000D01*
X159401161Y-75921800D01*
X159056000Y-76266961D01*
X158869200Y-76717935D01*
X158869200Y-77206065D01*
X159056000Y-77657039D01*
X159401161Y-78002200D01*
X159852135Y-78189000D01*
X160340265Y-78189000D01*
X160791239Y-78002200D01*
X161136400Y-77657039D01*
X161215000Y-77467282D01*
X161215000Y-78996718D01*
X161136400Y-78806961D01*
X160791239Y-78461800D01*
X160340265Y-78275000D01*
X159852135Y-78275000D01*
X159401161Y-78461800D01*
X159056000Y-78806961D01*
X158869200Y-79257935D01*
X158869200Y-79746065D01*
X159056000Y-80197039D01*
X159401161Y-80542200D01*
X159852135Y-80729000D01*
X160340265Y-80729000D01*
X160791239Y-80542200D01*
X161136400Y-80197039D01*
X161215000Y-80007282D01*
X161215000Y-81536718D01*
X161136400Y-81346961D01*
X160791239Y-81001800D01*
X160340265Y-80815000D01*
X159852135Y-80815000D01*
X159401161Y-81001800D01*
X159056000Y-81346961D01*
X158869200Y-81797935D01*
X158869200Y-82286065D01*
X159056000Y-82737039D01*
X159401161Y-83082200D01*
X159852135Y-83269000D01*
X160340265Y-83269000D01*
X160791239Y-83082200D01*
X161136400Y-82737039D01*
X161215000Y-82547282D01*
X161215000Y-84076718D01*
X161136400Y-83886961D01*
X160791239Y-83541800D01*
X160340265Y-83355000D01*
X159852135Y-83355000D01*
X159401161Y-83541800D01*
X159056000Y-83886961D01*
X158955330Y-84130000D01*
X158862517Y-84130000D01*
X158817999Y-84121145D01*
X158641638Y-84156225D01*
X158492126Y-84256126D01*
X158466908Y-84293867D01*
X157887776Y-84873000D01*
X157775282Y-84873000D01*
X157544833Y-84968455D01*
X157368455Y-85144833D01*
X157273000Y-85375282D01*
X157273000Y-85624718D01*
X157368455Y-85855167D01*
X157544833Y-86031545D01*
X157775282Y-86127000D01*
X158024718Y-86127000D01*
X158255167Y-86031545D01*
X158431545Y-85855167D01*
X158527000Y-85624718D01*
X158527000Y-85512224D01*
X158969944Y-85069281D01*
X159056000Y-85277039D01*
X159401161Y-85622200D01*
X159852135Y-85809000D01*
X160340265Y-85809000D01*
X160791239Y-85622200D01*
X161136400Y-85277039D01*
X161215000Y-85087282D01*
X161215000Y-86616719D01*
X161136400Y-86426961D01*
X160791239Y-86081800D01*
X160340265Y-85895000D01*
X159852135Y-85895000D01*
X159401161Y-86081800D01*
X159056000Y-86426961D01*
X158869200Y-86877935D01*
X158869200Y-87366065D01*
X159056000Y-87817039D01*
X159401161Y-88162200D01*
X159852135Y-88349000D01*
X160340265Y-88349000D01*
X160791239Y-88162200D01*
X161136400Y-87817039D01*
X161215000Y-87627281D01*
X161215000Y-89156719D01*
X161136400Y-88966961D01*
X160791239Y-88621800D01*
X160340265Y-88435000D01*
X159852135Y-88435000D01*
X159401161Y-88621800D01*
X159056000Y-88966961D01*
X158869200Y-89417935D01*
X158869200Y-89906065D01*
X159056000Y-90357039D01*
X159401161Y-90702200D01*
X159852135Y-90889000D01*
X160340265Y-90889000D01*
X160791239Y-90702200D01*
X161136400Y-90357039D01*
X161215000Y-90167281D01*
X161215001Y-91696719D01*
X161136400Y-91506961D01*
X160791239Y-91161800D01*
X160340265Y-90975000D01*
X159852135Y-90975000D01*
X159420430Y-91153819D01*
X159317839Y-91174225D01*
X159168327Y-91274127D01*
X159068425Y-91423639D01*
X159048019Y-91526230D01*
X158869200Y-91957935D01*
X158869200Y-92446065D01*
X159056000Y-92897039D01*
X159401161Y-93242200D01*
X159852135Y-93429000D01*
X160340265Y-93429000D01*
X160791239Y-93242200D01*
X161136400Y-92897039D01*
X161215001Y-92707281D01*
X161215001Y-94236719D01*
X161136400Y-94046961D01*
X160791239Y-93701800D01*
X160340265Y-93515000D01*
X159852135Y-93515000D01*
X159401161Y-93701800D01*
X159056000Y-94046961D01*
X158869200Y-94497935D01*
X158869200Y-94986065D01*
X159056000Y-95437039D01*
X159401161Y-95782200D01*
X159852135Y-95969000D01*
X160340265Y-95969000D01*
X160791239Y-95782200D01*
X161136400Y-95437039D01*
X161215001Y-95247281D01*
X161215001Y-107519400D01*
X145327000Y-107519400D01*
X145327000Y-106155391D01*
X149273000Y-106155391D01*
X149273000Y-106444609D01*
X149383679Y-106711813D01*
X149588187Y-106916321D01*
X149855391Y-107027000D01*
X150144609Y-107027000D01*
X150411813Y-106916321D01*
X150438134Y-106890000D01*
X150507394Y-106890000D01*
X150507394Y-107063000D01*
X150532773Y-107190589D01*
X150605046Y-107298754D01*
X150713211Y-107371027D01*
X150840800Y-107396406D01*
X152840800Y-107396406D01*
X152968389Y-107371027D01*
X153076554Y-107298754D01*
X153148827Y-107190589D01*
X153174206Y-107063000D01*
X153174206Y-105563000D01*
X153148827Y-105435411D01*
X153076554Y-105327246D01*
X152968389Y-105254973D01*
X152840800Y-105229594D01*
X150840800Y-105229594D01*
X150713211Y-105254973D01*
X150605046Y-105327246D01*
X150532773Y-105435411D01*
X150507394Y-105563000D01*
X150507394Y-105736000D01*
X150464134Y-105736000D01*
X150411813Y-105683679D01*
X150144609Y-105573000D01*
X149855391Y-105573000D01*
X149588187Y-105683679D01*
X149383679Y-105888187D01*
X149273000Y-106155391D01*
X145327000Y-106155391D01*
X145327000Y-102300000D01*
X145317333Y-102251399D01*
X145289803Y-102210197D01*
X145248601Y-102182667D01*
X145200000Y-102173000D01*
X143274126Y-102173000D01*
X143272589Y-102171973D01*
X143145000Y-102146594D01*
X142008594Y-102146594D01*
X142008594Y-101998750D01*
X150205800Y-101998750D01*
X150205800Y-102589310D01*
X150302473Y-102822699D01*
X150481102Y-103001327D01*
X150591743Y-103047156D01*
X150532773Y-103135411D01*
X150507394Y-103263000D01*
X150507394Y-104763000D01*
X150532773Y-104890589D01*
X150605046Y-104998754D01*
X150713211Y-105071027D01*
X150840800Y-105096406D01*
X152840800Y-105096406D01*
X152968389Y-105071027D01*
X153076554Y-104998754D01*
X153148827Y-104890589D01*
X153174206Y-104763000D01*
X153174206Y-104590000D01*
X153286866Y-104590000D01*
X153438187Y-104741321D01*
X153705391Y-104852000D01*
X153994609Y-104852000D01*
X154261813Y-104741321D01*
X154413134Y-104590000D01*
X156807394Y-104590000D01*
X156807394Y-105913000D01*
X156832773Y-106040589D01*
X156905046Y-106148754D01*
X157013211Y-106221027D01*
X157140800Y-106246406D01*
X159140800Y-106246406D01*
X159268389Y-106221027D01*
X159376554Y-106148754D01*
X159448827Y-106040589D01*
X159474206Y-105913000D01*
X159474206Y-102113000D01*
X159448827Y-101985411D01*
X159376554Y-101877246D01*
X159268389Y-101804973D01*
X159140800Y-101779594D01*
X157140800Y-101779594D01*
X157013211Y-101804973D01*
X156905046Y-101877246D01*
X156832773Y-101985411D01*
X156807394Y-102113000D01*
X156807394Y-103436000D01*
X154086350Y-103436000D01*
X153994609Y-103398000D01*
X153705391Y-103398000D01*
X153613650Y-103436000D01*
X153174206Y-103436000D01*
X153174206Y-103263000D01*
X153148827Y-103135411D01*
X153089857Y-103047156D01*
X153200498Y-103001327D01*
X153379127Y-102822699D01*
X153475800Y-102589310D01*
X153475800Y-101998750D01*
X153317050Y-101840000D01*
X151967800Y-101840000D01*
X151967800Y-101860000D01*
X151713800Y-101860000D01*
X151713800Y-101840000D01*
X150364550Y-101840000D01*
X150205800Y-101998750D01*
X142008594Y-101998750D01*
X142008594Y-100836690D01*
X150205800Y-100836690D01*
X150205800Y-101427250D01*
X150364550Y-101586000D01*
X151713800Y-101586000D01*
X151713800Y-100486750D01*
X151967800Y-100486750D01*
X151967800Y-101586000D01*
X153317050Y-101586000D01*
X153475800Y-101427250D01*
X153475800Y-100836690D01*
X153379127Y-100603301D01*
X153200498Y-100424673D01*
X152967109Y-100328000D01*
X152126550Y-100328000D01*
X151967800Y-100486750D01*
X151713800Y-100486750D01*
X151555050Y-100328000D01*
X150714491Y-100328000D01*
X150481102Y-100424673D01*
X150302473Y-100603301D01*
X150205800Y-100836690D01*
X142008594Y-100836690D01*
X142008594Y-96442606D01*
X142164582Y-96442606D01*
X142175473Y-96468899D01*
X142354102Y-96647527D01*
X142587491Y-96744200D01*
X143228050Y-96744200D01*
X143386800Y-96585450D01*
X143386800Y-94736200D01*
X143366800Y-94736200D01*
X143366800Y-94482200D01*
X143386800Y-94482200D01*
X143386800Y-92632950D01*
X143640800Y-92632950D01*
X143640800Y-94482200D01*
X143660800Y-94482200D01*
X143660800Y-94736200D01*
X143640800Y-94736200D01*
X143640800Y-96585450D01*
X143799550Y-96744200D01*
X144440109Y-96744200D01*
X144673498Y-96647527D01*
X144852127Y-96468899D01*
X144863018Y-96442606D01*
X146313800Y-96442606D01*
X146441389Y-96417227D01*
X146513800Y-96368844D01*
X146586211Y-96417227D01*
X146713800Y-96442606D01*
X148313800Y-96442606D01*
X148441389Y-96417227D01*
X148513800Y-96368844D01*
X148586211Y-96417227D01*
X148713800Y-96442606D01*
X148936800Y-96442606D01*
X148936800Y-96552372D01*
X148925496Y-96609200D01*
X148936800Y-96666028D01*
X148970278Y-96834333D01*
X149097806Y-97025194D01*
X149145988Y-97057388D01*
X149356412Y-97267812D01*
X149388606Y-97315994D01*
X149579466Y-97443522D01*
X149747771Y-97477000D01*
X149804599Y-97488304D01*
X149861427Y-97477000D01*
X150698866Y-97477000D01*
X150738187Y-97516321D01*
X151005391Y-97627000D01*
X151294609Y-97627000D01*
X151561813Y-97516321D01*
X151766321Y-97311813D01*
X151877000Y-97044609D01*
X151877000Y-96755391D01*
X151766321Y-96488187D01*
X151720740Y-96442606D01*
X152313800Y-96442606D01*
X152441389Y-96417227D01*
X152513800Y-96368844D01*
X152586211Y-96417227D01*
X152713800Y-96442606D01*
X154313800Y-96442606D01*
X154441389Y-96417227D01*
X154513800Y-96368844D01*
X154586211Y-96417227D01*
X154713800Y-96442606D01*
X156313800Y-96442606D01*
X156441389Y-96417227D01*
X156549554Y-96344954D01*
X156621827Y-96236789D01*
X156647206Y-96109200D01*
X156647206Y-93109200D01*
X156621827Y-92981611D01*
X156549554Y-92873446D01*
X156441389Y-92801173D01*
X156313800Y-92775794D01*
X154713800Y-92775794D01*
X154586211Y-92801173D01*
X154513800Y-92849556D01*
X154441389Y-92801173D01*
X154313800Y-92775794D01*
X152713800Y-92775794D01*
X152586211Y-92801173D01*
X152513800Y-92849556D01*
X152441389Y-92801173D01*
X152313800Y-92775794D01*
X151965800Y-92775794D01*
X151965800Y-92558318D01*
X151974655Y-92513800D01*
X151939575Y-92337438D01*
X151864891Y-92225666D01*
X151839674Y-92187926D01*
X151801934Y-92162709D01*
X150527000Y-90887776D01*
X150527000Y-90775282D01*
X150431545Y-90544833D01*
X150255167Y-90368455D01*
X150024718Y-90273000D01*
X149775282Y-90273000D01*
X149544833Y-90368455D01*
X149368455Y-90544833D01*
X149273000Y-90775282D01*
X149273000Y-91024718D01*
X149368455Y-91255167D01*
X149544833Y-91431545D01*
X149775282Y-91527000D01*
X149887776Y-91527000D01*
X151061800Y-92701025D01*
X151061800Y-92775794D01*
X150713800Y-92775794D01*
X150586211Y-92801173D01*
X150513800Y-92849556D01*
X150441389Y-92801173D01*
X150313800Y-92775794D01*
X148713800Y-92775794D01*
X148586211Y-92801173D01*
X148513800Y-92849556D01*
X148441389Y-92801173D01*
X148313800Y-92775794D01*
X146713800Y-92775794D01*
X146586211Y-92801173D01*
X146513800Y-92849556D01*
X146441389Y-92801173D01*
X146313800Y-92775794D01*
X144863018Y-92775794D01*
X144852127Y-92749501D01*
X144673498Y-92570873D01*
X144440109Y-92474200D01*
X143799550Y-92474200D01*
X143640800Y-92632950D01*
X143386800Y-92632950D01*
X143228050Y-92474200D01*
X142587491Y-92474200D01*
X142354102Y-92570873D01*
X142175473Y-92749501D01*
X142164582Y-92775794D01*
X140713800Y-92775794D01*
X140586211Y-92801173D01*
X140478046Y-92873446D01*
X140405773Y-92981611D01*
X140380394Y-93109200D01*
X140380394Y-96109200D01*
X140405773Y-96236789D01*
X140478046Y-96344954D01*
X140586211Y-96417227D01*
X140713800Y-96442606D01*
X141019006Y-96442606D01*
X141019007Y-102146594D01*
X140855000Y-102146594D01*
X140727411Y-102171973D01*
X140725874Y-102173000D01*
X139000000Y-102173000D01*
X138951399Y-102182667D01*
X138910197Y-102210197D01*
X138882667Y-102251399D01*
X138873000Y-102300000D01*
X138873000Y-107519400D01*
X136205343Y-107519400D01*
X136172515Y-95380342D01*
X136196000Y-95437039D01*
X136541161Y-95782200D01*
X136992135Y-95969000D01*
X137480265Y-95969000D01*
X137931239Y-95782200D01*
X138276400Y-95437039D01*
X138463200Y-94986065D01*
X138463200Y-94497935D01*
X138276400Y-94046961D01*
X137931239Y-93701800D01*
X137793846Y-93644890D01*
X138050348Y-93538643D01*
X138136754Y-93282159D01*
X137236200Y-92381605D01*
X137222058Y-92395748D01*
X137042453Y-92216143D01*
X137056595Y-92202000D01*
X137415805Y-92202000D01*
X138316359Y-93102554D01*
X138572843Y-93016148D01*
X138782658Y-92442664D01*
X138757039Y-91832540D01*
X138572843Y-91387852D01*
X138316359Y-91301446D01*
X137415805Y-92202000D01*
X137056595Y-92202000D01*
X137042453Y-92187858D01*
X137222058Y-92008253D01*
X137236200Y-92022395D01*
X138136754Y-91121841D01*
X138050348Y-90865357D01*
X137777946Y-90765696D01*
X137931239Y-90702200D01*
X138276400Y-90357039D01*
X138463200Y-89906065D01*
X138463200Y-89417935D01*
X138276400Y-88966961D01*
X137931239Y-88621800D01*
X137480265Y-88435000D01*
X136992135Y-88435000D01*
X136541161Y-88621800D01*
X136196000Y-88966961D01*
X136155436Y-89064890D01*
X136151773Y-87710266D01*
X136196000Y-87817039D01*
X136541161Y-88162200D01*
X136992135Y-88349000D01*
X137480265Y-88349000D01*
X137931239Y-88162200D01*
X138276400Y-87817039D01*
X138463200Y-87366065D01*
X138463200Y-86877935D01*
X138276400Y-86426961D01*
X137931239Y-86081800D01*
X137480265Y-85895000D01*
X136992135Y-85895000D01*
X136541161Y-86081800D01*
X136196000Y-86426961D01*
X136148612Y-86541365D01*
X136144859Y-85153574D01*
X136196000Y-85277039D01*
X136541161Y-85622200D01*
X136992135Y-85809000D01*
X137480265Y-85809000D01*
X137931239Y-85622200D01*
X138276400Y-85277039D01*
X138463200Y-84826065D01*
X138463200Y-84337935D01*
X138276400Y-83886961D01*
X137931239Y-83541800D01*
X137480265Y-83355000D01*
X136992135Y-83355000D01*
X136541161Y-83541800D01*
X136196000Y-83886961D01*
X136141788Y-84017840D01*
X136137945Y-82596883D01*
X136196000Y-82737039D01*
X136541161Y-83082200D01*
X136992135Y-83269000D01*
X137480265Y-83269000D01*
X137931239Y-83082200D01*
X138276400Y-82737039D01*
X138463200Y-82286065D01*
X138463200Y-81797935D01*
X138276400Y-81346961D01*
X137931239Y-81001800D01*
X137480265Y-80815000D01*
X136992135Y-80815000D01*
X136541161Y-81001800D01*
X136196000Y-81346961D01*
X136134963Y-81494316D01*
X136131031Y-80040191D01*
X136196000Y-80197039D01*
X136541161Y-80542200D01*
X136992135Y-80729000D01*
X137480265Y-80729000D01*
X137931239Y-80542200D01*
X138276400Y-80197039D01*
X138463200Y-79746065D01*
X138463200Y-79257935D01*
X138276400Y-78806961D01*
X137931239Y-78461800D01*
X137528429Y-78294950D01*
X140078800Y-78294950D01*
X140078800Y-79635510D01*
X140175473Y-79868899D01*
X140354102Y-80047527D01*
X140587491Y-80144200D01*
X141228050Y-80144200D01*
X141386800Y-79985450D01*
X141386800Y-78136200D01*
X140237550Y-78136200D01*
X140078800Y-78294950D01*
X137528429Y-78294950D01*
X137480265Y-78275000D01*
X136992135Y-78275000D01*
X136541161Y-78461800D01*
X136196000Y-78806961D01*
X136128139Y-78970791D01*
X136124117Y-77483499D01*
X136196000Y-77657039D01*
X136541161Y-78002200D01*
X136992135Y-78189000D01*
X137480265Y-78189000D01*
X137931239Y-78002200D01*
X138276400Y-77657039D01*
X138463200Y-77206065D01*
X138463200Y-76717935D01*
X138324420Y-76382890D01*
X140078800Y-76382890D01*
X140078800Y-77723450D01*
X140237550Y-77882200D01*
X141386800Y-77882200D01*
X141386800Y-76032950D01*
X141640800Y-76032950D01*
X141640800Y-77882200D01*
X141660800Y-77882200D01*
X141660800Y-78136200D01*
X141640800Y-78136200D01*
X141640800Y-79985450D01*
X141799550Y-80144200D01*
X142440109Y-80144200D01*
X142673498Y-80047527D01*
X142852127Y-79868899D01*
X142863018Y-79842606D01*
X144313800Y-79842606D01*
X144441389Y-79817227D01*
X144513800Y-79768844D01*
X144586211Y-79817227D01*
X144713800Y-79842606D01*
X145061801Y-79842606D01*
X145061801Y-80147001D01*
X144967409Y-80374883D01*
X144967409Y-80624319D01*
X145062864Y-80854768D01*
X145239242Y-81031146D01*
X145469691Y-81126601D01*
X145719127Y-81126601D01*
X145949576Y-81031146D01*
X146125954Y-80854768D01*
X146221409Y-80624319D01*
X146221409Y-80374883D01*
X146125954Y-80144434D01*
X145965800Y-79984280D01*
X145965800Y-79842606D01*
X146313800Y-79842606D01*
X146441389Y-79817227D01*
X146513800Y-79768844D01*
X146586211Y-79817227D01*
X146713800Y-79842606D01*
X147061800Y-79842606D01*
X147061800Y-80069282D01*
X147052945Y-80113800D01*
X147061800Y-80158317D01*
X147088025Y-80290161D01*
X147187926Y-80439674D01*
X147225669Y-80464893D01*
X147373000Y-80612224D01*
X147373000Y-80724718D01*
X147468455Y-80955167D01*
X147644833Y-81131545D01*
X147875282Y-81227000D01*
X148124718Y-81227000D01*
X148355167Y-81131545D01*
X148531545Y-80955167D01*
X148627000Y-80724718D01*
X148627000Y-80475282D01*
X148531545Y-80244833D01*
X148355167Y-80068455D01*
X148124718Y-79973000D01*
X148012224Y-79973000D01*
X147965800Y-79926576D01*
X147965800Y-79842606D01*
X148313800Y-79842606D01*
X148441389Y-79817227D01*
X148513800Y-79768844D01*
X148586211Y-79817227D01*
X148713800Y-79842606D01*
X149218978Y-79842606D01*
X149218978Y-80601985D01*
X149139433Y-80681530D01*
X149043978Y-80911979D01*
X149043978Y-81161415D01*
X149139433Y-81391864D01*
X149315811Y-81568242D01*
X149546260Y-81663697D01*
X149795696Y-81663697D01*
X150026145Y-81568242D01*
X150202523Y-81391864D01*
X150297978Y-81161415D01*
X150297978Y-80911979D01*
X150202523Y-80681530D01*
X150122978Y-80601985D01*
X150122978Y-79842606D01*
X150313800Y-79842606D01*
X150441389Y-79817227D01*
X150513800Y-79768844D01*
X150586211Y-79817227D01*
X150593787Y-79818734D01*
X150593786Y-85288831D01*
X150514241Y-85368376D01*
X150418786Y-85598825D01*
X150418786Y-85848261D01*
X150514241Y-86078710D01*
X150690619Y-86255088D01*
X150921068Y-86350543D01*
X151170504Y-86350543D01*
X151400953Y-86255088D01*
X151577331Y-86078710D01*
X151672786Y-85848261D01*
X151672786Y-85598825D01*
X151577331Y-85368376D01*
X151497786Y-85288831D01*
X151497786Y-79842606D01*
X152313800Y-79842606D01*
X152441389Y-79817227D01*
X152513800Y-79768844D01*
X152586211Y-79817227D01*
X152713800Y-79842606D01*
X152807238Y-79842606D01*
X152744833Y-79868455D01*
X152568455Y-80044833D01*
X152473000Y-80275282D01*
X152473000Y-80524718D01*
X152568455Y-80755167D01*
X152744833Y-80931545D01*
X152975282Y-81027000D01*
X153224718Y-81027000D01*
X153455167Y-80931545D01*
X153631545Y-80755167D01*
X153727000Y-80524718D01*
X153727000Y-80412224D01*
X153801931Y-80337293D01*
X153839674Y-80312074D01*
X153939575Y-80162562D01*
X153965800Y-80030718D01*
X153965800Y-80030717D01*
X153974655Y-79986200D01*
X153965800Y-79941682D01*
X153965800Y-79842606D01*
X154164582Y-79842606D01*
X154175473Y-79868899D01*
X154354102Y-80047527D01*
X154587491Y-80144200D01*
X155228050Y-80144200D01*
X155386800Y-79985450D01*
X155386800Y-78136200D01*
X155640800Y-78136200D01*
X155640800Y-79985450D01*
X155799550Y-80144200D01*
X156440109Y-80144200D01*
X156673498Y-80047527D01*
X156852127Y-79868899D01*
X156948800Y-79635510D01*
X156948800Y-78294950D01*
X156790050Y-78136200D01*
X155640800Y-78136200D01*
X155386800Y-78136200D01*
X155366800Y-78136200D01*
X155366800Y-77882200D01*
X155386800Y-77882200D01*
X155386800Y-76032950D01*
X155640800Y-76032950D01*
X155640800Y-77882200D01*
X156790050Y-77882200D01*
X156948800Y-77723450D01*
X156948800Y-76382890D01*
X156852127Y-76149501D01*
X156673498Y-75970873D01*
X156440109Y-75874200D01*
X155799550Y-75874200D01*
X155640800Y-76032950D01*
X155386800Y-76032950D01*
X155228050Y-75874200D01*
X154587491Y-75874200D01*
X154354102Y-75970873D01*
X154175473Y-76149501D01*
X154164582Y-76175794D01*
X152713800Y-76175794D01*
X152586211Y-76201173D01*
X152513800Y-76249556D01*
X152441389Y-76201173D01*
X152313800Y-76175794D01*
X150713800Y-76175794D01*
X150586211Y-76201173D01*
X150513800Y-76249556D01*
X150441389Y-76201173D01*
X150313800Y-76175794D01*
X148713800Y-76175794D01*
X148586211Y-76201173D01*
X148513800Y-76249556D01*
X148441389Y-76201173D01*
X148313800Y-76175794D01*
X146713800Y-76175794D01*
X146586211Y-76201173D01*
X146513800Y-76249556D01*
X146441389Y-76201173D01*
X146313800Y-76175794D01*
X144713800Y-76175794D01*
X144586211Y-76201173D01*
X144513800Y-76249556D01*
X144441389Y-76201173D01*
X144313800Y-76175794D01*
X142863018Y-76175794D01*
X142852127Y-76149501D01*
X142673498Y-75970873D01*
X142440109Y-75874200D01*
X141799550Y-75874200D01*
X141640800Y-76032950D01*
X141386800Y-76032950D01*
X141228050Y-75874200D01*
X140587491Y-75874200D01*
X140354102Y-75970873D01*
X140175473Y-76149501D01*
X140078800Y-76382890D01*
X138324420Y-76382890D01*
X138276400Y-76266961D01*
X137931239Y-75921800D01*
X137480265Y-75735000D01*
X136992135Y-75735000D01*
X136541161Y-75921800D01*
X136196000Y-76266961D01*
X136121315Y-76447267D01*
X136118359Y-75354400D01*
X161215000Y-75354400D01*
X161215000Y-76456718D01*
X161215000Y-76456718D01*
G37*
X161215000Y-76456718D02*
X161136400Y-76266961D01*
X160791239Y-75921800D01*
X160340265Y-75735000D01*
X159852135Y-75735000D01*
X159401161Y-75921800D01*
X159056000Y-76266961D01*
X158869200Y-76717935D01*
X158869200Y-77206065D01*
X159056000Y-77657039D01*
X159401161Y-78002200D01*
X159852135Y-78189000D01*
X160340265Y-78189000D01*
X160791239Y-78002200D01*
X161136400Y-77657039D01*
X161215000Y-77467282D01*
X161215000Y-78996718D01*
X161136400Y-78806961D01*
X160791239Y-78461800D01*
X160340265Y-78275000D01*
X159852135Y-78275000D01*
X159401161Y-78461800D01*
X159056000Y-78806961D01*
X158869200Y-79257935D01*
X158869200Y-79746065D01*
X159056000Y-80197039D01*
X159401161Y-80542200D01*
X159852135Y-80729000D01*
X160340265Y-80729000D01*
X160791239Y-80542200D01*
X161136400Y-80197039D01*
X161215000Y-80007282D01*
X161215000Y-81536718D01*
X161136400Y-81346961D01*
X160791239Y-81001800D01*
X160340265Y-80815000D01*
X159852135Y-80815000D01*
X159401161Y-81001800D01*
X159056000Y-81346961D01*
X158869200Y-81797935D01*
X158869200Y-82286065D01*
X159056000Y-82737039D01*
X159401161Y-83082200D01*
X159852135Y-83269000D01*
X160340265Y-83269000D01*
X160791239Y-83082200D01*
X161136400Y-82737039D01*
X161215000Y-82547282D01*
X161215000Y-84076718D01*
X161136400Y-83886961D01*
X160791239Y-83541800D01*
X160340265Y-83355000D01*
X159852135Y-83355000D01*
X159401161Y-83541800D01*
X159056000Y-83886961D01*
X158955330Y-84130000D01*
X158862517Y-84130000D01*
X158817999Y-84121145D01*
X158641638Y-84156225D01*
X158492126Y-84256126D01*
X158466908Y-84293867D01*
X157887776Y-84873000D01*
X157775282Y-84873000D01*
X157544833Y-84968455D01*
X157368455Y-85144833D01*
X157273000Y-85375282D01*
X157273000Y-85624718D01*
X157368455Y-85855167D01*
X157544833Y-86031545D01*
X157775282Y-86127000D01*
X158024718Y-86127000D01*
X158255167Y-86031545D01*
X158431545Y-85855167D01*
X158527000Y-85624718D01*
X158527000Y-85512224D01*
X158969944Y-85069281D01*
X159056000Y-85277039D01*
X159401161Y-85622200D01*
X159852135Y-85809000D01*
X160340265Y-85809000D01*
X160791239Y-85622200D01*
X161136400Y-85277039D01*
X161215000Y-85087282D01*
X161215000Y-86616719D01*
X161136400Y-86426961D01*
X160791239Y-86081800D01*
X160340265Y-85895000D01*
X159852135Y-85895000D01*
X159401161Y-86081800D01*
X159056000Y-86426961D01*
X158869200Y-86877935D01*
X158869200Y-87366065D01*
X159056000Y-87817039D01*
X159401161Y-88162200D01*
X159852135Y-88349000D01*
X160340265Y-88349000D01*
X160791239Y-88162200D01*
X161136400Y-87817039D01*
X161215000Y-87627281D01*
X161215000Y-89156719D01*
X161136400Y-88966961D01*
X160791239Y-88621800D01*
X160340265Y-88435000D01*
X159852135Y-88435000D01*
X159401161Y-88621800D01*
X159056000Y-88966961D01*
X158869200Y-89417935D01*
X158869200Y-89906065D01*
X159056000Y-90357039D01*
X159401161Y-90702200D01*
X159852135Y-90889000D01*
X160340265Y-90889000D01*
X160791239Y-90702200D01*
X161136400Y-90357039D01*
X161215000Y-90167281D01*
X161215001Y-91696719D01*
X161136400Y-91506961D01*
X160791239Y-91161800D01*
X160340265Y-90975000D01*
X159852135Y-90975000D01*
X159420430Y-91153819D01*
X159317839Y-91174225D01*
X159168327Y-91274127D01*
X159068425Y-91423639D01*
X159048019Y-91526230D01*
X158869200Y-91957935D01*
X158869200Y-92446065D01*
X159056000Y-92897039D01*
X159401161Y-93242200D01*
X159852135Y-93429000D01*
X160340265Y-93429000D01*
X160791239Y-93242200D01*
X161136400Y-92897039D01*
X161215001Y-92707281D01*
X161215001Y-94236719D01*
X161136400Y-94046961D01*
X160791239Y-93701800D01*
X160340265Y-93515000D01*
X159852135Y-93515000D01*
X159401161Y-93701800D01*
X159056000Y-94046961D01*
X158869200Y-94497935D01*
X158869200Y-94986065D01*
X159056000Y-95437039D01*
X159401161Y-95782200D01*
X159852135Y-95969000D01*
X160340265Y-95969000D01*
X160791239Y-95782200D01*
X161136400Y-95437039D01*
X161215001Y-95247281D01*
X161215001Y-107519400D01*
X145327000Y-107519400D01*
X145327000Y-106155391D01*
X149273000Y-106155391D01*
X149273000Y-106444609D01*
X149383679Y-106711813D01*
X149588187Y-106916321D01*
X149855391Y-107027000D01*
X150144609Y-107027000D01*
X150411813Y-106916321D01*
X150438134Y-106890000D01*
X150507394Y-106890000D01*
X150507394Y-107063000D01*
X150532773Y-107190589D01*
X150605046Y-107298754D01*
X150713211Y-107371027D01*
X150840800Y-107396406D01*
X152840800Y-107396406D01*
X152968389Y-107371027D01*
X153076554Y-107298754D01*
X153148827Y-107190589D01*
X153174206Y-107063000D01*
X153174206Y-105563000D01*
X153148827Y-105435411D01*
X153076554Y-105327246D01*
X152968389Y-105254973D01*
X152840800Y-105229594D01*
X150840800Y-105229594D01*
X150713211Y-105254973D01*
X150605046Y-105327246D01*
X150532773Y-105435411D01*
X150507394Y-105563000D01*
X150507394Y-105736000D01*
X150464134Y-105736000D01*
X150411813Y-105683679D01*
X150144609Y-105573000D01*
X149855391Y-105573000D01*
X149588187Y-105683679D01*
X149383679Y-105888187D01*
X149273000Y-106155391D01*
X145327000Y-106155391D01*
X145327000Y-102300000D01*
X145317333Y-102251399D01*
X145289803Y-102210197D01*
X145248601Y-102182667D01*
X145200000Y-102173000D01*
X143274126Y-102173000D01*
X143272589Y-102171973D01*
X143145000Y-102146594D01*
X142008594Y-102146594D01*
X142008594Y-101998750D01*
X150205800Y-101998750D01*
X150205800Y-102589310D01*
X150302473Y-102822699D01*
X150481102Y-103001327D01*
X150591743Y-103047156D01*
X150532773Y-103135411D01*
X150507394Y-103263000D01*
X150507394Y-104763000D01*
X150532773Y-104890589D01*
X150605046Y-104998754D01*
X150713211Y-105071027D01*
X150840800Y-105096406D01*
X152840800Y-105096406D01*
X152968389Y-105071027D01*
X153076554Y-104998754D01*
X153148827Y-104890589D01*
X153174206Y-104763000D01*
X153174206Y-104590000D01*
X153286866Y-104590000D01*
X153438187Y-104741321D01*
X153705391Y-104852000D01*
X153994609Y-104852000D01*
X154261813Y-104741321D01*
X154413134Y-104590000D01*
X156807394Y-104590000D01*
X156807394Y-105913000D01*
X156832773Y-106040589D01*
X156905046Y-106148754D01*
X157013211Y-106221027D01*
X157140800Y-106246406D01*
X159140800Y-106246406D01*
X159268389Y-106221027D01*
X159376554Y-106148754D01*
X159448827Y-106040589D01*
X159474206Y-105913000D01*
X159474206Y-102113000D01*
X159448827Y-101985411D01*
X159376554Y-101877246D01*
X159268389Y-101804973D01*
X159140800Y-101779594D01*
X157140800Y-101779594D01*
X157013211Y-101804973D01*
X156905046Y-101877246D01*
X156832773Y-101985411D01*
X156807394Y-102113000D01*
X156807394Y-103436000D01*
X154086350Y-103436000D01*
X153994609Y-103398000D01*
X153705391Y-103398000D01*
X153613650Y-103436000D01*
X153174206Y-103436000D01*
X153174206Y-103263000D01*
X153148827Y-103135411D01*
X153089857Y-103047156D01*
X153200498Y-103001327D01*
X153379127Y-102822699D01*
X153475800Y-102589310D01*
X153475800Y-101998750D01*
X153317050Y-101840000D01*
X151967800Y-101840000D01*
X151967800Y-101860000D01*
X151713800Y-101860000D01*
X151713800Y-101840000D01*
X150364550Y-101840000D01*
X150205800Y-101998750D01*
X142008594Y-101998750D01*
X142008594Y-100836690D01*
X150205800Y-100836690D01*
X150205800Y-101427250D01*
X150364550Y-101586000D01*
X151713800Y-101586000D01*
X151713800Y-100486750D01*
X151967800Y-100486750D01*
X151967800Y-101586000D01*
X153317050Y-101586000D01*
X153475800Y-101427250D01*
X153475800Y-100836690D01*
X153379127Y-100603301D01*
X153200498Y-100424673D01*
X152967109Y-100328000D01*
X152126550Y-100328000D01*
X151967800Y-100486750D01*
X151713800Y-100486750D01*
X151555050Y-100328000D01*
X150714491Y-100328000D01*
X150481102Y-100424673D01*
X150302473Y-100603301D01*
X150205800Y-100836690D01*
X142008594Y-100836690D01*
X142008594Y-96442606D01*
X142164582Y-96442606D01*
X142175473Y-96468899D01*
X142354102Y-96647527D01*
X142587491Y-96744200D01*
X143228050Y-96744200D01*
X143386800Y-96585450D01*
X143386800Y-94736200D01*
X143366800Y-94736200D01*
X143366800Y-94482200D01*
X143386800Y-94482200D01*
X143386800Y-92632950D01*
X143640800Y-92632950D01*
X143640800Y-94482200D01*
X143660800Y-94482200D01*
X143660800Y-94736200D01*
X143640800Y-94736200D01*
X143640800Y-96585450D01*
X143799550Y-96744200D01*
X144440109Y-96744200D01*
X144673498Y-96647527D01*
X144852127Y-96468899D01*
X144863018Y-96442606D01*
X146313800Y-96442606D01*
X146441389Y-96417227D01*
X146513800Y-96368844D01*
X146586211Y-96417227D01*
X146713800Y-96442606D01*
X148313800Y-96442606D01*
X148441389Y-96417227D01*
X148513800Y-96368844D01*
X148586211Y-96417227D01*
X148713800Y-96442606D01*
X148936800Y-96442606D01*
X148936800Y-96552372D01*
X148925496Y-96609200D01*
X148936800Y-96666028D01*
X148970278Y-96834333D01*
X149097806Y-97025194D01*
X149145988Y-97057388D01*
X149356412Y-97267812D01*
X149388606Y-97315994D01*
X149579466Y-97443522D01*
X149747771Y-97477000D01*
X149804599Y-97488304D01*
X149861427Y-97477000D01*
X150698866Y-97477000D01*
X150738187Y-97516321D01*
X151005391Y-97627000D01*
X151294609Y-97627000D01*
X151561813Y-97516321D01*
X151766321Y-97311813D01*
X151877000Y-97044609D01*
X151877000Y-96755391D01*
X151766321Y-96488187D01*
X151720740Y-96442606D01*
X152313800Y-96442606D01*
X152441389Y-96417227D01*
X152513800Y-96368844D01*
X152586211Y-96417227D01*
X152713800Y-96442606D01*
X154313800Y-96442606D01*
X154441389Y-96417227D01*
X154513800Y-96368844D01*
X154586211Y-96417227D01*
X154713800Y-96442606D01*
X156313800Y-96442606D01*
X156441389Y-96417227D01*
X156549554Y-96344954D01*
X156621827Y-96236789D01*
X156647206Y-96109200D01*
X156647206Y-93109200D01*
X156621827Y-92981611D01*
X156549554Y-92873446D01*
X156441389Y-92801173D01*
X156313800Y-92775794D01*
X154713800Y-92775794D01*
X154586211Y-92801173D01*
X154513800Y-92849556D01*
X154441389Y-92801173D01*
X154313800Y-92775794D01*
X152713800Y-92775794D01*
X152586211Y-92801173D01*
X152513800Y-92849556D01*
X152441389Y-92801173D01*
X152313800Y-92775794D01*
X151965800Y-92775794D01*
X151965800Y-92558318D01*
X151974655Y-92513800D01*
X151939575Y-92337438D01*
X151864891Y-92225666D01*
X151839674Y-92187926D01*
X151801934Y-92162709D01*
X150527000Y-90887776D01*
X150527000Y-90775282D01*
X150431545Y-90544833D01*
X150255167Y-90368455D01*
X150024718Y-90273000D01*
X149775282Y-90273000D01*
X149544833Y-90368455D01*
X149368455Y-90544833D01*
X149273000Y-90775282D01*
X149273000Y-91024718D01*
X149368455Y-91255167D01*
X149544833Y-91431545D01*
X149775282Y-91527000D01*
X149887776Y-91527000D01*
X151061800Y-92701025D01*
X151061800Y-92775794D01*
X150713800Y-92775794D01*
X150586211Y-92801173D01*
X150513800Y-92849556D01*
X150441389Y-92801173D01*
X150313800Y-92775794D01*
X148713800Y-92775794D01*
X148586211Y-92801173D01*
X148513800Y-92849556D01*
X148441389Y-92801173D01*
X148313800Y-92775794D01*
X146713800Y-92775794D01*
X146586211Y-92801173D01*
X146513800Y-92849556D01*
X146441389Y-92801173D01*
X146313800Y-92775794D01*
X144863018Y-92775794D01*
X144852127Y-92749501D01*
X144673498Y-92570873D01*
X144440109Y-92474200D01*
X143799550Y-92474200D01*
X143640800Y-92632950D01*
X143386800Y-92632950D01*
X143228050Y-92474200D01*
X142587491Y-92474200D01*
X142354102Y-92570873D01*
X142175473Y-92749501D01*
X142164582Y-92775794D01*
X140713800Y-92775794D01*
X140586211Y-92801173D01*
X140478046Y-92873446D01*
X140405773Y-92981611D01*
X140380394Y-93109200D01*
X140380394Y-96109200D01*
X140405773Y-96236789D01*
X140478046Y-96344954D01*
X140586211Y-96417227D01*
X140713800Y-96442606D01*
X141019006Y-96442606D01*
X141019007Y-102146594D01*
X140855000Y-102146594D01*
X140727411Y-102171973D01*
X140725874Y-102173000D01*
X139000000Y-102173000D01*
X138951399Y-102182667D01*
X138910197Y-102210197D01*
X138882667Y-102251399D01*
X138873000Y-102300000D01*
X138873000Y-107519400D01*
X136205343Y-107519400D01*
X136172515Y-95380342D01*
X136196000Y-95437039D01*
X136541161Y-95782200D01*
X136992135Y-95969000D01*
X137480265Y-95969000D01*
X137931239Y-95782200D01*
X138276400Y-95437039D01*
X138463200Y-94986065D01*
X138463200Y-94497935D01*
X138276400Y-94046961D01*
X137931239Y-93701800D01*
X137793846Y-93644890D01*
X138050348Y-93538643D01*
X138136754Y-93282159D01*
X137236200Y-92381605D01*
X137222058Y-92395748D01*
X137042453Y-92216143D01*
X137056595Y-92202000D01*
X137415805Y-92202000D01*
X138316359Y-93102554D01*
X138572843Y-93016148D01*
X138782658Y-92442664D01*
X138757039Y-91832540D01*
X138572843Y-91387852D01*
X138316359Y-91301446D01*
X137415805Y-92202000D01*
X137056595Y-92202000D01*
X137042453Y-92187858D01*
X137222058Y-92008253D01*
X137236200Y-92022395D01*
X138136754Y-91121841D01*
X138050348Y-90865357D01*
X137777946Y-90765696D01*
X137931239Y-90702200D01*
X138276400Y-90357039D01*
X138463200Y-89906065D01*
X138463200Y-89417935D01*
X138276400Y-88966961D01*
X137931239Y-88621800D01*
X137480265Y-88435000D01*
X136992135Y-88435000D01*
X136541161Y-88621800D01*
X136196000Y-88966961D01*
X136155436Y-89064890D01*
X136151773Y-87710266D01*
X136196000Y-87817039D01*
X136541161Y-88162200D01*
X136992135Y-88349000D01*
X137480265Y-88349000D01*
X137931239Y-88162200D01*
X138276400Y-87817039D01*
X138463200Y-87366065D01*
X138463200Y-86877935D01*
X138276400Y-86426961D01*
X137931239Y-86081800D01*
X137480265Y-85895000D01*
X136992135Y-85895000D01*
X136541161Y-86081800D01*
X136196000Y-86426961D01*
X136148612Y-86541365D01*
X136144859Y-85153574D01*
X136196000Y-85277039D01*
X136541161Y-85622200D01*
X136992135Y-85809000D01*
X137480265Y-85809000D01*
X137931239Y-85622200D01*
X138276400Y-85277039D01*
X138463200Y-84826065D01*
X138463200Y-84337935D01*
X138276400Y-83886961D01*
X137931239Y-83541800D01*
X137480265Y-83355000D01*
X136992135Y-83355000D01*
X136541161Y-83541800D01*
X136196000Y-83886961D01*
X136141788Y-84017840D01*
X136137945Y-82596883D01*
X136196000Y-82737039D01*
X136541161Y-83082200D01*
X136992135Y-83269000D01*
X137480265Y-83269000D01*
X137931239Y-83082200D01*
X138276400Y-82737039D01*
X138463200Y-82286065D01*
X138463200Y-81797935D01*
X138276400Y-81346961D01*
X137931239Y-81001800D01*
X137480265Y-80815000D01*
X136992135Y-80815000D01*
X136541161Y-81001800D01*
X136196000Y-81346961D01*
X136134963Y-81494316D01*
X136131031Y-80040191D01*
X136196000Y-80197039D01*
X136541161Y-80542200D01*
X136992135Y-80729000D01*
X137480265Y-80729000D01*
X137931239Y-80542200D01*
X138276400Y-80197039D01*
X138463200Y-79746065D01*
X138463200Y-79257935D01*
X138276400Y-78806961D01*
X137931239Y-78461800D01*
X137528429Y-78294950D01*
X140078800Y-78294950D01*
X140078800Y-79635510D01*
X140175473Y-79868899D01*
X140354102Y-80047527D01*
X140587491Y-80144200D01*
X141228050Y-80144200D01*
X141386800Y-79985450D01*
X141386800Y-78136200D01*
X140237550Y-78136200D01*
X140078800Y-78294950D01*
X137528429Y-78294950D01*
X137480265Y-78275000D01*
X136992135Y-78275000D01*
X136541161Y-78461800D01*
X136196000Y-78806961D01*
X136128139Y-78970791D01*
X136124117Y-77483499D01*
X136196000Y-77657039D01*
X136541161Y-78002200D01*
X136992135Y-78189000D01*
X137480265Y-78189000D01*
X137931239Y-78002200D01*
X138276400Y-77657039D01*
X138463200Y-77206065D01*
X138463200Y-76717935D01*
X138324420Y-76382890D01*
X140078800Y-76382890D01*
X140078800Y-77723450D01*
X140237550Y-77882200D01*
X141386800Y-77882200D01*
X141386800Y-76032950D01*
X141640800Y-76032950D01*
X141640800Y-77882200D01*
X141660800Y-77882200D01*
X141660800Y-78136200D01*
X141640800Y-78136200D01*
X141640800Y-79985450D01*
X141799550Y-80144200D01*
X142440109Y-80144200D01*
X142673498Y-80047527D01*
X142852127Y-79868899D01*
X142863018Y-79842606D01*
X144313800Y-79842606D01*
X144441389Y-79817227D01*
X144513800Y-79768844D01*
X144586211Y-79817227D01*
X144713800Y-79842606D01*
X145061801Y-79842606D01*
X145061801Y-80147001D01*
X144967409Y-80374883D01*
X144967409Y-80624319D01*
X145062864Y-80854768D01*
X145239242Y-81031146D01*
X145469691Y-81126601D01*
X145719127Y-81126601D01*
X145949576Y-81031146D01*
X146125954Y-80854768D01*
X146221409Y-80624319D01*
X146221409Y-80374883D01*
X146125954Y-80144434D01*
X145965800Y-79984280D01*
X145965800Y-79842606D01*
X146313800Y-79842606D01*
X146441389Y-79817227D01*
X146513800Y-79768844D01*
X146586211Y-79817227D01*
X146713800Y-79842606D01*
X147061800Y-79842606D01*
X147061800Y-80069282D01*
X147052945Y-80113800D01*
X147061800Y-80158317D01*
X147088025Y-80290161D01*
X147187926Y-80439674D01*
X147225669Y-80464893D01*
X147373000Y-80612224D01*
X147373000Y-80724718D01*
X147468455Y-80955167D01*
X147644833Y-81131545D01*
X147875282Y-81227000D01*
X148124718Y-81227000D01*
X148355167Y-81131545D01*
X148531545Y-80955167D01*
X148627000Y-80724718D01*
X148627000Y-80475282D01*
X148531545Y-80244833D01*
X148355167Y-80068455D01*
X148124718Y-79973000D01*
X148012224Y-79973000D01*
X147965800Y-79926576D01*
X147965800Y-79842606D01*
X148313800Y-79842606D01*
X148441389Y-79817227D01*
X148513800Y-79768844D01*
X148586211Y-79817227D01*
X148713800Y-79842606D01*
X149218978Y-79842606D01*
X149218978Y-80601985D01*
X149139433Y-80681530D01*
X149043978Y-80911979D01*
X149043978Y-81161415D01*
X149139433Y-81391864D01*
X149315811Y-81568242D01*
X149546260Y-81663697D01*
X149795696Y-81663697D01*
X150026145Y-81568242D01*
X150202523Y-81391864D01*
X150297978Y-81161415D01*
X150297978Y-80911979D01*
X150202523Y-80681530D01*
X150122978Y-80601985D01*
X150122978Y-79842606D01*
X150313800Y-79842606D01*
X150441389Y-79817227D01*
X150513800Y-79768844D01*
X150586211Y-79817227D01*
X150593787Y-79818734D01*
X150593786Y-85288831D01*
X150514241Y-85368376D01*
X150418786Y-85598825D01*
X150418786Y-85848261D01*
X150514241Y-86078710D01*
X150690619Y-86255088D01*
X150921068Y-86350543D01*
X151170504Y-86350543D01*
X151400953Y-86255088D01*
X151577331Y-86078710D01*
X151672786Y-85848261D01*
X151672786Y-85598825D01*
X151577331Y-85368376D01*
X151497786Y-85288831D01*
X151497786Y-79842606D01*
X152313800Y-79842606D01*
X152441389Y-79817227D01*
X152513800Y-79768844D01*
X152586211Y-79817227D01*
X152713800Y-79842606D01*
X152807238Y-79842606D01*
X152744833Y-79868455D01*
X152568455Y-80044833D01*
X152473000Y-80275282D01*
X152473000Y-80524718D01*
X152568455Y-80755167D01*
X152744833Y-80931545D01*
X152975282Y-81027000D01*
X153224718Y-81027000D01*
X153455167Y-80931545D01*
X153631545Y-80755167D01*
X153727000Y-80524718D01*
X153727000Y-80412224D01*
X153801931Y-80337293D01*
X153839674Y-80312074D01*
X153939575Y-80162562D01*
X153965800Y-80030718D01*
X153965800Y-80030717D01*
X153974655Y-79986200D01*
X153965800Y-79941682D01*
X153965800Y-79842606D01*
X154164582Y-79842606D01*
X154175473Y-79868899D01*
X154354102Y-80047527D01*
X154587491Y-80144200D01*
X155228050Y-80144200D01*
X155386800Y-79985450D01*
X155386800Y-78136200D01*
X155640800Y-78136200D01*
X155640800Y-79985450D01*
X155799550Y-80144200D01*
X156440109Y-80144200D01*
X156673498Y-80047527D01*
X156852127Y-79868899D01*
X156948800Y-79635510D01*
X156948800Y-78294950D01*
X156790050Y-78136200D01*
X155640800Y-78136200D01*
X155386800Y-78136200D01*
X155366800Y-78136200D01*
X155366800Y-77882200D01*
X155386800Y-77882200D01*
X155386800Y-76032950D01*
X155640800Y-76032950D01*
X155640800Y-77882200D01*
X156790050Y-77882200D01*
X156948800Y-77723450D01*
X156948800Y-76382890D01*
X156852127Y-76149501D01*
X156673498Y-75970873D01*
X156440109Y-75874200D01*
X155799550Y-75874200D01*
X155640800Y-76032950D01*
X155386800Y-76032950D01*
X155228050Y-75874200D01*
X154587491Y-75874200D01*
X154354102Y-75970873D01*
X154175473Y-76149501D01*
X154164582Y-76175794D01*
X152713800Y-76175794D01*
X152586211Y-76201173D01*
X152513800Y-76249556D01*
X152441389Y-76201173D01*
X152313800Y-76175794D01*
X150713800Y-76175794D01*
X150586211Y-76201173D01*
X150513800Y-76249556D01*
X150441389Y-76201173D01*
X150313800Y-76175794D01*
X148713800Y-76175794D01*
X148586211Y-76201173D01*
X148513800Y-76249556D01*
X148441389Y-76201173D01*
X148313800Y-76175794D01*
X146713800Y-76175794D01*
X146586211Y-76201173D01*
X146513800Y-76249556D01*
X146441389Y-76201173D01*
X146313800Y-76175794D01*
X144713800Y-76175794D01*
X144586211Y-76201173D01*
X144513800Y-76249556D01*
X144441389Y-76201173D01*
X144313800Y-76175794D01*
X142863018Y-76175794D01*
X142852127Y-76149501D01*
X142673498Y-75970873D01*
X142440109Y-75874200D01*
X141799550Y-75874200D01*
X141640800Y-76032950D01*
X141386800Y-76032950D01*
X141228050Y-75874200D01*
X140587491Y-75874200D01*
X140354102Y-75970873D01*
X140175473Y-76149501D01*
X140078800Y-76382890D01*
X138324420Y-76382890D01*
X138276400Y-76266961D01*
X137931239Y-75921800D01*
X137480265Y-75735000D01*
X136992135Y-75735000D01*
X136541161Y-75921800D01*
X136196000Y-76266961D01*
X136121315Y-76447267D01*
X136118359Y-75354400D01*
X161215000Y-75354400D01*
X161215000Y-76456718D01*
%TD*%
M02*
