%TF.GenerationSoftware,KiCad,Pcbnew,5.0.0-rc2-dev-unknown-f2bb398~62~ubuntu17.10.1*%
%TF.CreationDate,2018-03-07T22:53:53-08:00*%
%TF.ProjectId,lora_nodemcu,6C6F72615F6E6F64656D63752E6B6963,rev?*%
%TF.SameCoordinates,Original*%
%TF.FileFunction,Copper,L1,Top,Signal*%
%TF.FilePolarity,Positive*%
%FSLAX46Y46*%
G04 Gerber Fmt 4.6, Leading zero omitted, Abs format (unit mm)*
G04 Created by KiCad (PCBNEW 5.0.0-rc2-dev-unknown-f2bb398~62~ubuntu17.10.1) date Wed Mar  7 22:53:53 2018*
%MOMM*%
%LPD*%
G01*
G04 APERTURE LIST*
%TA.AperFunction,ComponentPad*%
%ADD10C,1.800000*%
%TD*%
%TA.AperFunction,SMDPad,CuDef*%
%ADD11R,2.290000X5.080000*%
%TD*%
%TA.AperFunction,SMDPad,CuDef*%
%ADD12R,2.420000X5.080000*%
%TD*%
%TA.AperFunction,ViaPad*%
%ADD13C,0.970000*%
%TD*%
%TA.AperFunction,Conductor*%
%ADD14R,0.460000X0.890000*%
%TD*%
%TA.AperFunction,SMDPad,CuDef*%
%ADD15R,1.600000X3.000000*%
%TD*%
%TA.AperFunction,SMDPad,CuDef*%
%ADD16R,2.000000X3.800000*%
%TD*%
%TA.AperFunction,SMDPad,CuDef*%
%ADD17R,2.000000X1.500000*%
%TD*%
%TA.AperFunction,ViaPad*%
%ADD18C,0.600000*%
%TD*%
%TA.AperFunction,ViaPad*%
%ADD19C,0.800000*%
%TD*%
%TA.AperFunction,Conductor*%
%ADD20C,0.250000*%
%TD*%
%TA.AperFunction,Conductor*%
%ADD21C,0.500000*%
%TD*%
%TA.AperFunction,Conductor*%
%ADD22C,0.360000*%
%TD*%
%TA.AperFunction,Conductor*%
%ADD23C,0.254000*%
%TD*%
G04 APERTURE END LIST*
D10*
%TO.P,U3,8*%
%TO.N,Net-(U3-Pad8)*%
X137236200Y-76962000D03*
%TO.P,U3,7*%
%TO.N,Net-(U3-Pad7)*%
X137236200Y-79502000D03*
%TO.P,U3,6*%
%TO.N,Net-(R2-Pad1)*%
X137236200Y-82042000D03*
%TO.P,U3,5*%
%TO.N,Net-(R1-Pad1)*%
X137236200Y-84582000D03*
%TO.P,U3,4*%
%TO.N,Net-(U3-Pad4)*%
X137236200Y-87122000D03*
%TO.P,U3,3*%
%TO.N,Net-(U3-Pad3)*%
X137236200Y-89662000D03*
%TO.P,U3,2*%
%TO.N,GND*%
X137236200Y-92202000D03*
%TO.P,U3,1*%
%TO.N,/wemos_5V*%
X137236200Y-94742000D03*
%TO.P,U3,16*%
%TO.N,Net-(C5-Pad2)*%
X160096200Y-94742000D03*
%TO.P,U3,15*%
%TO.N,/SS*%
X160096200Y-92202000D03*
%TO.P,U3,14*%
%TO.N,/MOSI*%
X160096200Y-89662000D03*
%TO.P,U3,13*%
%TO.N,/MISO*%
X160096200Y-87122000D03*
%TO.P,U3,12*%
%TO.N,/SCK*%
X160096200Y-84582000D03*
%TO.P,U3,11*%
%TO.N,Net-(U3-Pad11)*%
X160096200Y-82042000D03*
%TO.P,U3,10*%
%TO.N,Net-(U3-Pad10)*%
X160096200Y-79502000D03*
%TO.P,U3,9*%
%TO.N,Net-(U3-Pad9)*%
X160096200Y-76962000D03*
%TD*%
D11*
%TO.P,AE1,1*%
%TO.N,/50Ohm*%
X142000000Y-105020000D03*
D12*
%TO.P,AE1,2*%
%TO.N,GND*%
X137620000Y-105020000D03*
X146380000Y-105020000D03*
D13*
%TD*%
%TO.N,GND*%
%TO.C,AE1*%
X137620000Y-101580000D03*
%TO.N,GND*%
%TO.C,AE1*%
X146380000Y-101580000D03*
D14*
X137620000Y-102030000D03*
X146380000Y-102030000D03*
%TD*%
D15*
%TO.P,U1,16*%
%TO.N,Net-(U1-Pad16)*%
X155513800Y-94609200D03*
%TO.P,U1,1*%
%TO.N,GND*%
X155513800Y-78009200D03*
%TO.P,U1,15*%
%TO.N,Net-(U1-Pad15)*%
X153513800Y-94609200D03*
%TO.P,U1,2*%
%TO.N,Net-(R5-Pad2)*%
X153513800Y-78009200D03*
%TO.P,U1,14*%
%TO.N,Net-(R1-Pad2)*%
X151513800Y-94609200D03*
%TO.P,U1,3*%
%TO.N,Net-(R6-Pad2)*%
X151513800Y-78009200D03*
%TO.P,U1,13*%
%TO.N,/RF95_3V3*%
X149513800Y-94609200D03*
%TO.P,U1,4*%
%TO.N,Net-(R4-Pad2)*%
X149513800Y-78009200D03*
%TO.P,U1,12*%
%TO.N,Net-(U1-Pad12)*%
X147513800Y-94609200D03*
%TO.P,U1,5*%
%TO.N,Net-(R3-Pad2)*%
X147513800Y-78009200D03*
%TO.P,U1,11*%
%TO.N,Net-(U1-Pad11)*%
X145513800Y-94609200D03*
%TO.P,U1,6*%
%TO.N,Net-(R2-Pad2)*%
X145513800Y-78009200D03*
%TO.P,U1,10*%
%TO.N,GND*%
X143513800Y-94609200D03*
%TO.P,U1,7*%
%TO.N,Net-(U1-Pad7)*%
X143513800Y-78009200D03*
%TO.P,U1,9*%
%TO.N,/50Ohm*%
X141513800Y-94609200D03*
%TO.P,U1,8*%
%TO.N,GND*%
X141513800Y-78009200D03*
%TD*%
D16*
%TO.P,U2,4*%
%TO.N,+3V3*%
X158140800Y-104013000D03*
D17*
%TO.P,U2,2*%
X151840800Y-104013000D03*
%TO.P,U2,3*%
%TO.N,+5V*%
X151840800Y-106313000D03*
%TO.P,U2,1*%
%TO.N,GND*%
X151840800Y-101713000D03*
%TD*%
D18*
%TO.N,Net-(R1-Pad2)*%
X149900000Y-90900000D03*
%TO.N,Net-(R2-Pad2)*%
X145594409Y-80499601D03*
X145594409Y-80499601D03*
%TO.N,/SS*%
X160096200Y-92202000D03*
%TO.N,Net-(R3-Pad2)*%
X148000000Y-80600000D03*
%TO.N,/SCK*%
X157900000Y-85500000D03*
%TO.N,Net-(R4-Pad2)*%
X149670978Y-81036697D03*
%TO.N,Net-(R5-Pad2)*%
X153100000Y-80400000D03*
%TO.N,Net-(R6-Pad2)*%
X151045786Y-85723543D03*
D19*
%TO.N,GND*%
X144700000Y-88400000D03*
X138950000Y-76450000D03*
X157950000Y-76450000D03*
X160250000Y-106450000D03*
X148650000Y-106550000D03*
X150000000Y-99750000D03*
X143500000Y-92100000D03*
D18*
X144000000Y-98750000D03*
X139000000Y-97500000D03*
X139000000Y-96000000D03*
X139000000Y-100500000D03*
X144000000Y-100000000D03*
X139000000Y-99000000D03*
D19*
X143500000Y-97000000D03*
X155500000Y-80500000D03*
X141500000Y-80750000D03*
X153750000Y-101500000D03*
X148400000Y-97475000D03*
X151800000Y-99775000D03*
X153025000Y-100050000D03*
X145304999Y-101095001D03*
X137600000Y-100000000D03*
%TO.N,+3V3*%
X153850000Y-104125000D03*
%TO.N,+5V*%
X150000000Y-106300000D03*
%TO.N,/RF95_3V3*%
X151150000Y-96900000D03*
%TD*%
D20*
%TO.N,Net-(R1-Pad2)*%
X149900000Y-90900000D02*
X151513800Y-92513800D01*
X151513800Y-92513800D02*
X151513800Y-94609200D01*
%TO.N,Net-(R2-Pad2)*%
X145513800Y-78009200D02*
X145513800Y-80418992D01*
X145513800Y-80418992D02*
X145594409Y-80499601D01*
%TO.N,/SS*%
X159494200Y-91600000D02*
X160096200Y-92202000D01*
%TO.N,Net-(R3-Pad2)*%
X148000000Y-80600000D02*
X147513800Y-80113800D01*
X147513800Y-80113800D02*
X147513800Y-78009200D01*
%TO.N,/SCK*%
X157900000Y-85500000D02*
X158818000Y-84582000D01*
X158818000Y-84582000D02*
X160096200Y-84582000D01*
%TO.N,Net-(R4-Pad2)*%
X149670978Y-81036697D02*
X149670978Y-78166378D01*
X149670978Y-78166378D02*
X149513800Y-78009200D01*
%TO.N,Net-(R5-Pad2)*%
X153100000Y-80400000D02*
X153513800Y-79986200D01*
X153513800Y-79986200D02*
X153513800Y-78009200D01*
%TO.N,Net-(R6-Pad2)*%
X151045786Y-85723543D02*
X151045786Y-78477214D01*
X151045786Y-78477214D02*
X151513800Y-78009200D01*
D21*
%TO.N,GND*%
X137620000Y-101580000D02*
X137620000Y-105020000D01*
X143513800Y-94609200D02*
X143513800Y-92113800D01*
X143513800Y-92113800D02*
X143500000Y-92100000D01*
X143513800Y-94609200D02*
X143513800Y-96986200D01*
X143513800Y-96986200D02*
X143500000Y-97000000D01*
X155513800Y-78009200D02*
X155513800Y-80486200D01*
X155513800Y-80486200D02*
X155500000Y-80500000D01*
X141513800Y-78009200D02*
X141513800Y-80736200D01*
X141513800Y-80736200D02*
X141500000Y-80750000D01*
X151840800Y-99559200D02*
X151840800Y-99734200D01*
X151840800Y-99734200D02*
X151800000Y-99775000D01*
X151840800Y-101713000D02*
X151840800Y-99559200D01*
X137600000Y-100874107D02*
X137600000Y-100000000D01*
X137620000Y-101580000D02*
X137620000Y-100894107D01*
X137620000Y-100894107D02*
X137600000Y-100874107D01*
%TO.N,+3V3*%
X158140800Y-104013000D02*
X153962000Y-104013000D01*
X153962000Y-104013000D02*
X153850000Y-104125000D01*
X151840800Y-104013000D02*
X153738000Y-104013000D01*
X153738000Y-104013000D02*
X153850000Y-104125000D01*
%TO.N,+5V*%
X151840800Y-106313000D02*
X150013000Y-106313000D01*
X150013000Y-106313000D02*
X150000000Y-106300000D01*
D22*
%TO.N,/50Ohm*%
X141513800Y-94609200D02*
X141513800Y-104533800D01*
D20*
X141513800Y-104533800D02*
X142000000Y-105020000D01*
D21*
%TO.N,/RF95_3V3*%
X149513800Y-96609200D02*
X149513800Y-94609200D01*
X149804600Y-96900000D02*
X149513800Y-96609200D01*
X151150000Y-96900000D02*
X149804600Y-96900000D01*
%TD*%
D23*
%TO.N,GND*%
G36*
X161065000Y-76050746D02*
X160849244Y-75834990D01*
X160360634Y-75632600D01*
X159831766Y-75632600D01*
X159343156Y-75834990D01*
X158969190Y-76208956D01*
X158766800Y-76697566D01*
X158766800Y-77226434D01*
X158969190Y-77715044D01*
X159343156Y-78089010D01*
X159688363Y-78232000D01*
X159343156Y-78374990D01*
X158969190Y-78748956D01*
X158766800Y-79237566D01*
X158766800Y-79766434D01*
X158969190Y-80255044D01*
X159343156Y-80629010D01*
X159688363Y-80772000D01*
X159343156Y-80914990D01*
X158969190Y-81288956D01*
X158766800Y-81777566D01*
X158766800Y-82306434D01*
X158969190Y-82795044D01*
X159343156Y-83169010D01*
X159688363Y-83312000D01*
X159343156Y-83454990D01*
X158969190Y-83828956D01*
X158886909Y-84027600D01*
X158872600Y-84027600D01*
X158817999Y-84016739D01*
X158763398Y-84027600D01*
X158601684Y-84059767D01*
X158418300Y-84182300D01*
X158387370Y-84228590D01*
X157845361Y-84770600D01*
X157754913Y-84770600D01*
X157486828Y-84881644D01*
X157281644Y-85086828D01*
X157170600Y-85354913D01*
X157170600Y-85645087D01*
X157281644Y-85913172D01*
X157486828Y-86118356D01*
X157754913Y-86229400D01*
X158045087Y-86229400D01*
X158313172Y-86118356D01*
X158518356Y-85913172D01*
X158629400Y-85645087D01*
X158629400Y-85554639D01*
X158933986Y-85250054D01*
X158969190Y-85335044D01*
X159343156Y-85709010D01*
X159688363Y-85852000D01*
X159343156Y-85994990D01*
X158969190Y-86368956D01*
X158766800Y-86857566D01*
X158766800Y-87386434D01*
X158969190Y-87875044D01*
X159343156Y-88249010D01*
X159688363Y-88392000D01*
X159343156Y-88534990D01*
X158969190Y-88908956D01*
X158766800Y-89397566D01*
X158766800Y-89926434D01*
X158969190Y-90415044D01*
X159343156Y-90789010D01*
X159688363Y-90932000D01*
X159390560Y-91055354D01*
X159277885Y-91077767D01*
X159094501Y-91200301D01*
X158971967Y-91383685D01*
X158949554Y-91496360D01*
X158766800Y-91937566D01*
X158766800Y-92466434D01*
X158969190Y-92955044D01*
X159343156Y-93329010D01*
X159688363Y-93472000D01*
X159343156Y-93614990D01*
X158969190Y-93988956D01*
X158766800Y-94477566D01*
X158766800Y-95006434D01*
X158969190Y-95495044D01*
X159343156Y-95869010D01*
X159831766Y-96071400D01*
X160360634Y-96071400D01*
X160849244Y-95869010D01*
X161065001Y-95653253D01*
X161065001Y-107369400D01*
X153152505Y-107369400D01*
X153245286Y-107230543D01*
X153278612Y-107063000D01*
X153278612Y-105563000D01*
X153245286Y-105395457D01*
X153150380Y-105253420D01*
X153015057Y-105163000D01*
X153150380Y-105072580D01*
X153245286Y-104930543D01*
X153278612Y-104763000D01*
X153278612Y-104726560D01*
X153380183Y-104828131D01*
X153685022Y-104954400D01*
X154014978Y-104954400D01*
X154319817Y-104828131D01*
X154455548Y-104692400D01*
X156702988Y-104692400D01*
X156702988Y-105913000D01*
X156736314Y-106080543D01*
X156831220Y-106222580D01*
X156973257Y-106317486D01*
X157140800Y-106350812D01*
X159140800Y-106350812D01*
X159308343Y-106317486D01*
X159450380Y-106222580D01*
X159545286Y-106080543D01*
X159578612Y-105913000D01*
X159578612Y-102113000D01*
X159545286Y-101945457D01*
X159450380Y-101803420D01*
X159308343Y-101708514D01*
X159140800Y-101675188D01*
X157140800Y-101675188D01*
X156973257Y-101708514D01*
X156831220Y-101803420D01*
X156736314Y-101945457D01*
X156702988Y-102113000D01*
X156702988Y-103333600D01*
X154106718Y-103333600D01*
X154014978Y-103295600D01*
X153685022Y-103295600D01*
X153593282Y-103333600D01*
X153278612Y-103333600D01*
X153278612Y-103263000D01*
X153245286Y-103095457D01*
X153186316Y-103007202D01*
X153200498Y-103001327D01*
X153379127Y-102822699D01*
X153475800Y-102589310D01*
X153475800Y-101998750D01*
X153317050Y-101840000D01*
X151967800Y-101840000D01*
X151967800Y-101860000D01*
X151713800Y-101860000D01*
X151713800Y-101840000D01*
X150364550Y-101840000D01*
X150205800Y-101998750D01*
X150205800Y-102589310D01*
X150302473Y-102822699D01*
X150481102Y-103001327D01*
X150495284Y-103007202D01*
X150436314Y-103095457D01*
X150402988Y-103263000D01*
X150402988Y-104763000D01*
X150436314Y-104930543D01*
X150531220Y-105072580D01*
X150666543Y-105163000D01*
X150531220Y-105253420D01*
X150436314Y-105395457D01*
X150402988Y-105563000D01*
X150402988Y-105569187D01*
X150164978Y-105470600D01*
X149835022Y-105470600D01*
X149530183Y-105596869D01*
X149296869Y-105830183D01*
X149170600Y-106135022D01*
X149170600Y-106464978D01*
X149296869Y-106769817D01*
X149530183Y-107003131D01*
X149835022Y-107129400D01*
X150164978Y-107129400D01*
X150402988Y-107030813D01*
X150402988Y-107063000D01*
X150436314Y-107230543D01*
X150529095Y-107369400D01*
X145327000Y-107369400D01*
X145327000Y-102300000D01*
X145317333Y-102251399D01*
X145289803Y-102210197D01*
X145248601Y-102182667D01*
X145200000Y-102173000D01*
X143456304Y-102173000D01*
X143454580Y-102170420D01*
X143312543Y-102075514D01*
X143145000Y-102042188D01*
X142123200Y-102042188D01*
X142123200Y-100836690D01*
X150205800Y-100836690D01*
X150205800Y-101427250D01*
X150364550Y-101586000D01*
X151713800Y-101586000D01*
X151713800Y-100486750D01*
X151967800Y-100486750D01*
X151967800Y-101586000D01*
X153317050Y-101586000D01*
X153475800Y-101427250D01*
X153475800Y-100836690D01*
X153379127Y-100603301D01*
X153200498Y-100424673D01*
X152967109Y-100328000D01*
X152126550Y-100328000D01*
X151967800Y-100486750D01*
X151713800Y-100486750D01*
X151555050Y-100328000D01*
X150714491Y-100328000D01*
X150481102Y-100424673D01*
X150302473Y-100603301D01*
X150205800Y-100836690D01*
X142123200Y-100836690D01*
X142123200Y-96547012D01*
X142253586Y-96547012D01*
X142354102Y-96647527D01*
X142587491Y-96744200D01*
X143228050Y-96744200D01*
X143386800Y-96585450D01*
X143386800Y-94736200D01*
X143366800Y-94736200D01*
X143366800Y-94482200D01*
X143386800Y-94482200D01*
X143386800Y-92632950D01*
X143640800Y-92632950D01*
X143640800Y-94482200D01*
X143660800Y-94482200D01*
X143660800Y-94736200D01*
X143640800Y-94736200D01*
X143640800Y-96585450D01*
X143799550Y-96744200D01*
X144440109Y-96744200D01*
X144673498Y-96647527D01*
X144774014Y-96547012D01*
X146313800Y-96547012D01*
X146481343Y-96513686D01*
X146513800Y-96491999D01*
X146546257Y-96513686D01*
X146713800Y-96547012D01*
X148313800Y-96547012D01*
X148481343Y-96513686D01*
X148513800Y-96491999D01*
X148546257Y-96513686D01*
X148713800Y-96547012D01*
X148833460Y-96547012D01*
X148821090Y-96609200D01*
X148847943Y-96744200D01*
X148873819Y-96874288D01*
X149023980Y-97099019D01*
X149080707Y-97136923D01*
X149276874Y-97333090D01*
X149314780Y-97389820D01*
X149539511Y-97539981D01*
X149737686Y-97579400D01*
X149737690Y-97579400D01*
X149804599Y-97592709D01*
X149871508Y-97579400D01*
X150656452Y-97579400D01*
X150680183Y-97603131D01*
X150985022Y-97729400D01*
X151314978Y-97729400D01*
X151619817Y-97603131D01*
X151853131Y-97369817D01*
X151979400Y-97064978D01*
X151979400Y-96735022D01*
X151901523Y-96547012D01*
X152313800Y-96547012D01*
X152481343Y-96513686D01*
X152513800Y-96491999D01*
X152546257Y-96513686D01*
X152713800Y-96547012D01*
X154313800Y-96547012D01*
X154481343Y-96513686D01*
X154513800Y-96491999D01*
X154546257Y-96513686D01*
X154713800Y-96547012D01*
X156313800Y-96547012D01*
X156481343Y-96513686D01*
X156623380Y-96418780D01*
X156718286Y-96276743D01*
X156751612Y-96109200D01*
X156751612Y-93109200D01*
X156718286Y-92941657D01*
X156623380Y-92799620D01*
X156481343Y-92704714D01*
X156313800Y-92671388D01*
X154713800Y-92671388D01*
X154546257Y-92704714D01*
X154513800Y-92726401D01*
X154481343Y-92704714D01*
X154313800Y-92671388D01*
X152713800Y-92671388D01*
X152546257Y-92704714D01*
X152513800Y-92726401D01*
X152481343Y-92704714D01*
X152313800Y-92671388D01*
X152068200Y-92671388D01*
X152068200Y-92568402D01*
X152079061Y-92513800D01*
X152036033Y-92297484D01*
X151944429Y-92160389D01*
X151913500Y-92114100D01*
X151867211Y-92083171D01*
X150629400Y-90845361D01*
X150629400Y-90754913D01*
X150518356Y-90486828D01*
X150313172Y-90281644D01*
X150045087Y-90170600D01*
X149754913Y-90170600D01*
X149486828Y-90281644D01*
X149281644Y-90486828D01*
X149170600Y-90754913D01*
X149170600Y-91045087D01*
X149281644Y-91313172D01*
X149486828Y-91518356D01*
X149754913Y-91629400D01*
X149845361Y-91629400D01*
X150887348Y-92671388D01*
X150713800Y-92671388D01*
X150546257Y-92704714D01*
X150513800Y-92726401D01*
X150481343Y-92704714D01*
X150313800Y-92671388D01*
X148713800Y-92671388D01*
X148546257Y-92704714D01*
X148513800Y-92726401D01*
X148481343Y-92704714D01*
X148313800Y-92671388D01*
X146713800Y-92671388D01*
X146546257Y-92704714D01*
X146513800Y-92726401D01*
X146481343Y-92704714D01*
X146313800Y-92671388D01*
X144774014Y-92671388D01*
X144673498Y-92570873D01*
X144440109Y-92474200D01*
X143799550Y-92474200D01*
X143640800Y-92632950D01*
X143386800Y-92632950D01*
X143228050Y-92474200D01*
X142587491Y-92474200D01*
X142354102Y-92570873D01*
X142253586Y-92671388D01*
X140713800Y-92671388D01*
X140546257Y-92704714D01*
X140404220Y-92799620D01*
X140309314Y-92941657D01*
X140275988Y-93109200D01*
X140275988Y-96109200D01*
X140309314Y-96276743D01*
X140404220Y-96418780D01*
X140546257Y-96513686D01*
X140713800Y-96547012D01*
X140904400Y-96547012D01*
X140904401Y-102042188D01*
X140855000Y-102042188D01*
X140687457Y-102075514D01*
X140545420Y-102170420D01*
X140543696Y-102173000D01*
X139000000Y-102173000D01*
X138951399Y-102182667D01*
X138910197Y-102210197D01*
X138882667Y-102251399D01*
X138873000Y-102300000D01*
X138873000Y-107369400D01*
X136354937Y-107369400D01*
X136323405Y-95709259D01*
X136483156Y-95869010D01*
X136971766Y-96071400D01*
X137500634Y-96071400D01*
X137989244Y-95869010D01*
X138363210Y-95495044D01*
X138565600Y-95006434D01*
X138565600Y-94477566D01*
X138363210Y-93988956D01*
X137989244Y-93614990D01*
X137927637Y-93589472D01*
X138050348Y-93538643D01*
X138136754Y-93282159D01*
X137236200Y-92381605D01*
X137222058Y-92395748D01*
X137042453Y-92216143D01*
X137056595Y-92202000D01*
X137415805Y-92202000D01*
X138316359Y-93102554D01*
X138572843Y-93016148D01*
X138782658Y-92442664D01*
X138757039Y-91832540D01*
X138572843Y-91387852D01*
X138316359Y-91301446D01*
X137415805Y-92202000D01*
X137056595Y-92202000D01*
X137042453Y-92187858D01*
X137222058Y-92008253D01*
X137236200Y-92022395D01*
X138136754Y-91121841D01*
X138050348Y-90865357D01*
X137920031Y-90817679D01*
X137989244Y-90789010D01*
X138363210Y-90415044D01*
X138565600Y-89926434D01*
X138565600Y-89397566D01*
X138363210Y-88908956D01*
X137989244Y-88534990D01*
X137644037Y-88392000D01*
X137989244Y-88249010D01*
X138363210Y-87875044D01*
X138565600Y-87386434D01*
X138565600Y-86857566D01*
X138363210Y-86368956D01*
X137989244Y-85994990D01*
X137644037Y-85852000D01*
X137989244Y-85709010D01*
X138363210Y-85335044D01*
X138565600Y-84846434D01*
X138565600Y-84317566D01*
X138363210Y-83828956D01*
X137989244Y-83454990D01*
X137644037Y-83312000D01*
X137989244Y-83169010D01*
X138363210Y-82795044D01*
X138565600Y-82306434D01*
X138565600Y-81777566D01*
X138363210Y-81288956D01*
X137989244Y-80914990D01*
X137644037Y-80772000D01*
X137989244Y-80629010D01*
X138363210Y-80255044D01*
X138565600Y-79766434D01*
X138565600Y-79237566D01*
X138363210Y-78748956D01*
X137989244Y-78374990D01*
X137796012Y-78294950D01*
X140078800Y-78294950D01*
X140078800Y-79635510D01*
X140175473Y-79868899D01*
X140354102Y-80047527D01*
X140587491Y-80144200D01*
X141228050Y-80144200D01*
X141386800Y-79985450D01*
X141386800Y-78136200D01*
X140237550Y-78136200D01*
X140078800Y-78294950D01*
X137796012Y-78294950D01*
X137644037Y-78232000D01*
X137989244Y-78089010D01*
X138363210Y-77715044D01*
X138565600Y-77226434D01*
X138565600Y-76697566D01*
X138435257Y-76382890D01*
X140078800Y-76382890D01*
X140078800Y-77723450D01*
X140237550Y-77882200D01*
X141386800Y-77882200D01*
X141386800Y-76032950D01*
X141640800Y-76032950D01*
X141640800Y-77882200D01*
X141660800Y-77882200D01*
X141660800Y-78136200D01*
X141640800Y-78136200D01*
X141640800Y-79985450D01*
X141799550Y-80144200D01*
X142440109Y-80144200D01*
X142673498Y-80047527D01*
X142774014Y-79947012D01*
X144313800Y-79947012D01*
X144481343Y-79913686D01*
X144513800Y-79891999D01*
X144546257Y-79913686D01*
X144713800Y-79947012D01*
X144959401Y-79947012D01*
X144959401Y-80126631D01*
X144865009Y-80354514D01*
X144865009Y-80644688D01*
X144976053Y-80912773D01*
X145181237Y-81117957D01*
X145449322Y-81229001D01*
X145739496Y-81229001D01*
X146007581Y-81117957D01*
X146212765Y-80912773D01*
X146323809Y-80644688D01*
X146323809Y-80354514D01*
X146212765Y-80086429D01*
X146073348Y-79947012D01*
X146313800Y-79947012D01*
X146481343Y-79913686D01*
X146513800Y-79891999D01*
X146546257Y-79913686D01*
X146713800Y-79947012D01*
X146959400Y-79947012D01*
X146959400Y-80059198D01*
X146948539Y-80113800D01*
X146959400Y-80168401D01*
X146991567Y-80330115D01*
X147114100Y-80513500D01*
X147160392Y-80544431D01*
X147270600Y-80654639D01*
X147270600Y-80745087D01*
X147381644Y-81013172D01*
X147586828Y-81218356D01*
X147854913Y-81329400D01*
X148145087Y-81329400D01*
X148413172Y-81218356D01*
X148618356Y-81013172D01*
X148729400Y-80745087D01*
X148729400Y-80454913D01*
X148618356Y-80186828D01*
X148413172Y-79981644D01*
X148324449Y-79944894D01*
X148481343Y-79913686D01*
X148513800Y-79891999D01*
X148546257Y-79913686D01*
X148713800Y-79947012D01*
X149116578Y-79947012D01*
X149116578Y-80559569D01*
X149052622Y-80623525D01*
X148941578Y-80891610D01*
X148941578Y-81181784D01*
X149052622Y-81449869D01*
X149257806Y-81655053D01*
X149525891Y-81766097D01*
X149816065Y-81766097D01*
X150084150Y-81655053D01*
X150289334Y-81449869D01*
X150400378Y-81181784D01*
X150400378Y-80891610D01*
X150289334Y-80623525D01*
X150225378Y-80559569D01*
X150225378Y-79947012D01*
X150313800Y-79947012D01*
X150481343Y-79913686D01*
X150491387Y-79906975D01*
X150491386Y-85246415D01*
X150427430Y-85310371D01*
X150316386Y-85578456D01*
X150316386Y-85868630D01*
X150427430Y-86136715D01*
X150632614Y-86341899D01*
X150900699Y-86452943D01*
X151190873Y-86452943D01*
X151458958Y-86341899D01*
X151664142Y-86136715D01*
X151775186Y-85868630D01*
X151775186Y-85578456D01*
X151664142Y-85310371D01*
X151600186Y-85246415D01*
X151600186Y-79947012D01*
X152313800Y-79947012D01*
X152481343Y-79913686D01*
X152513800Y-79891999D01*
X152546257Y-79913686D01*
X152553371Y-79915101D01*
X152481644Y-79986828D01*
X152370600Y-80254913D01*
X152370600Y-80545087D01*
X152481644Y-80813172D01*
X152686828Y-81018356D01*
X152954913Y-81129400D01*
X153245087Y-81129400D01*
X153513172Y-81018356D01*
X153718356Y-80813172D01*
X153829400Y-80545087D01*
X153829400Y-80454640D01*
X153867210Y-80416830D01*
X153913500Y-80385900D01*
X154036033Y-80202516D01*
X154068200Y-80040802D01*
X154068200Y-80040801D01*
X154079061Y-79986200D01*
X154071266Y-79947012D01*
X154253586Y-79947012D01*
X154354102Y-80047527D01*
X154587491Y-80144200D01*
X155228050Y-80144200D01*
X155386800Y-79985450D01*
X155386800Y-78136200D01*
X155640800Y-78136200D01*
X155640800Y-79985450D01*
X155799550Y-80144200D01*
X156440109Y-80144200D01*
X156673498Y-80047527D01*
X156852127Y-79868899D01*
X156948800Y-79635510D01*
X156948800Y-78294950D01*
X156790050Y-78136200D01*
X155640800Y-78136200D01*
X155386800Y-78136200D01*
X155366800Y-78136200D01*
X155366800Y-77882200D01*
X155386800Y-77882200D01*
X155386800Y-76032950D01*
X155640800Y-76032950D01*
X155640800Y-77882200D01*
X156790050Y-77882200D01*
X156948800Y-77723450D01*
X156948800Y-76382890D01*
X156852127Y-76149501D01*
X156673498Y-75970873D01*
X156440109Y-75874200D01*
X155799550Y-75874200D01*
X155640800Y-76032950D01*
X155386800Y-76032950D01*
X155228050Y-75874200D01*
X154587491Y-75874200D01*
X154354102Y-75970873D01*
X154253586Y-76071388D01*
X152713800Y-76071388D01*
X152546257Y-76104714D01*
X152513800Y-76126401D01*
X152481343Y-76104714D01*
X152313800Y-76071388D01*
X150713800Y-76071388D01*
X150546257Y-76104714D01*
X150513800Y-76126401D01*
X150481343Y-76104714D01*
X150313800Y-76071388D01*
X148713800Y-76071388D01*
X148546257Y-76104714D01*
X148513800Y-76126401D01*
X148481343Y-76104714D01*
X148313800Y-76071388D01*
X146713800Y-76071388D01*
X146546257Y-76104714D01*
X146513800Y-76126401D01*
X146481343Y-76104714D01*
X146313800Y-76071388D01*
X144713800Y-76071388D01*
X144546257Y-76104714D01*
X144513800Y-76126401D01*
X144481343Y-76104714D01*
X144313800Y-76071388D01*
X142774014Y-76071388D01*
X142673498Y-75970873D01*
X142440109Y-75874200D01*
X141799550Y-75874200D01*
X141640800Y-76032950D01*
X141386800Y-76032950D01*
X141228050Y-75874200D01*
X140587491Y-75874200D01*
X140354102Y-75970873D01*
X140175473Y-76149501D01*
X140078800Y-76382890D01*
X138435257Y-76382890D01*
X138363210Y-76208956D01*
X137989244Y-75834990D01*
X137500634Y-75632600D01*
X136971766Y-75632600D01*
X136483156Y-75834990D01*
X136270235Y-76047911D01*
X136268765Y-75504400D01*
X161065000Y-75504400D01*
X161065000Y-76050746D01*
X161065000Y-76050746D01*
G37*
X161065000Y-76050746D02*
X160849244Y-75834990D01*
X160360634Y-75632600D01*
X159831766Y-75632600D01*
X159343156Y-75834990D01*
X158969190Y-76208956D01*
X158766800Y-76697566D01*
X158766800Y-77226434D01*
X158969190Y-77715044D01*
X159343156Y-78089010D01*
X159688363Y-78232000D01*
X159343156Y-78374990D01*
X158969190Y-78748956D01*
X158766800Y-79237566D01*
X158766800Y-79766434D01*
X158969190Y-80255044D01*
X159343156Y-80629010D01*
X159688363Y-80772000D01*
X159343156Y-80914990D01*
X158969190Y-81288956D01*
X158766800Y-81777566D01*
X158766800Y-82306434D01*
X158969190Y-82795044D01*
X159343156Y-83169010D01*
X159688363Y-83312000D01*
X159343156Y-83454990D01*
X158969190Y-83828956D01*
X158886909Y-84027600D01*
X158872600Y-84027600D01*
X158817999Y-84016739D01*
X158763398Y-84027600D01*
X158601684Y-84059767D01*
X158418300Y-84182300D01*
X158387370Y-84228590D01*
X157845361Y-84770600D01*
X157754913Y-84770600D01*
X157486828Y-84881644D01*
X157281644Y-85086828D01*
X157170600Y-85354913D01*
X157170600Y-85645087D01*
X157281644Y-85913172D01*
X157486828Y-86118356D01*
X157754913Y-86229400D01*
X158045087Y-86229400D01*
X158313172Y-86118356D01*
X158518356Y-85913172D01*
X158629400Y-85645087D01*
X158629400Y-85554639D01*
X158933986Y-85250054D01*
X158969190Y-85335044D01*
X159343156Y-85709010D01*
X159688363Y-85852000D01*
X159343156Y-85994990D01*
X158969190Y-86368956D01*
X158766800Y-86857566D01*
X158766800Y-87386434D01*
X158969190Y-87875044D01*
X159343156Y-88249010D01*
X159688363Y-88392000D01*
X159343156Y-88534990D01*
X158969190Y-88908956D01*
X158766800Y-89397566D01*
X158766800Y-89926434D01*
X158969190Y-90415044D01*
X159343156Y-90789010D01*
X159688363Y-90932000D01*
X159390560Y-91055354D01*
X159277885Y-91077767D01*
X159094501Y-91200301D01*
X158971967Y-91383685D01*
X158949554Y-91496360D01*
X158766800Y-91937566D01*
X158766800Y-92466434D01*
X158969190Y-92955044D01*
X159343156Y-93329010D01*
X159688363Y-93472000D01*
X159343156Y-93614990D01*
X158969190Y-93988956D01*
X158766800Y-94477566D01*
X158766800Y-95006434D01*
X158969190Y-95495044D01*
X159343156Y-95869010D01*
X159831766Y-96071400D01*
X160360634Y-96071400D01*
X160849244Y-95869010D01*
X161065001Y-95653253D01*
X161065001Y-107369400D01*
X153152505Y-107369400D01*
X153245286Y-107230543D01*
X153278612Y-107063000D01*
X153278612Y-105563000D01*
X153245286Y-105395457D01*
X153150380Y-105253420D01*
X153015057Y-105163000D01*
X153150380Y-105072580D01*
X153245286Y-104930543D01*
X153278612Y-104763000D01*
X153278612Y-104726560D01*
X153380183Y-104828131D01*
X153685022Y-104954400D01*
X154014978Y-104954400D01*
X154319817Y-104828131D01*
X154455548Y-104692400D01*
X156702988Y-104692400D01*
X156702988Y-105913000D01*
X156736314Y-106080543D01*
X156831220Y-106222580D01*
X156973257Y-106317486D01*
X157140800Y-106350812D01*
X159140800Y-106350812D01*
X159308343Y-106317486D01*
X159450380Y-106222580D01*
X159545286Y-106080543D01*
X159578612Y-105913000D01*
X159578612Y-102113000D01*
X159545286Y-101945457D01*
X159450380Y-101803420D01*
X159308343Y-101708514D01*
X159140800Y-101675188D01*
X157140800Y-101675188D01*
X156973257Y-101708514D01*
X156831220Y-101803420D01*
X156736314Y-101945457D01*
X156702988Y-102113000D01*
X156702988Y-103333600D01*
X154106718Y-103333600D01*
X154014978Y-103295600D01*
X153685022Y-103295600D01*
X153593282Y-103333600D01*
X153278612Y-103333600D01*
X153278612Y-103263000D01*
X153245286Y-103095457D01*
X153186316Y-103007202D01*
X153200498Y-103001327D01*
X153379127Y-102822699D01*
X153475800Y-102589310D01*
X153475800Y-101998750D01*
X153317050Y-101840000D01*
X151967800Y-101840000D01*
X151967800Y-101860000D01*
X151713800Y-101860000D01*
X151713800Y-101840000D01*
X150364550Y-101840000D01*
X150205800Y-101998750D01*
X150205800Y-102589310D01*
X150302473Y-102822699D01*
X150481102Y-103001327D01*
X150495284Y-103007202D01*
X150436314Y-103095457D01*
X150402988Y-103263000D01*
X150402988Y-104763000D01*
X150436314Y-104930543D01*
X150531220Y-105072580D01*
X150666543Y-105163000D01*
X150531220Y-105253420D01*
X150436314Y-105395457D01*
X150402988Y-105563000D01*
X150402988Y-105569187D01*
X150164978Y-105470600D01*
X149835022Y-105470600D01*
X149530183Y-105596869D01*
X149296869Y-105830183D01*
X149170600Y-106135022D01*
X149170600Y-106464978D01*
X149296869Y-106769817D01*
X149530183Y-107003131D01*
X149835022Y-107129400D01*
X150164978Y-107129400D01*
X150402988Y-107030813D01*
X150402988Y-107063000D01*
X150436314Y-107230543D01*
X150529095Y-107369400D01*
X145327000Y-107369400D01*
X145327000Y-102300000D01*
X145317333Y-102251399D01*
X145289803Y-102210197D01*
X145248601Y-102182667D01*
X145200000Y-102173000D01*
X143456304Y-102173000D01*
X143454580Y-102170420D01*
X143312543Y-102075514D01*
X143145000Y-102042188D01*
X142123200Y-102042188D01*
X142123200Y-100836690D01*
X150205800Y-100836690D01*
X150205800Y-101427250D01*
X150364550Y-101586000D01*
X151713800Y-101586000D01*
X151713800Y-100486750D01*
X151967800Y-100486750D01*
X151967800Y-101586000D01*
X153317050Y-101586000D01*
X153475800Y-101427250D01*
X153475800Y-100836690D01*
X153379127Y-100603301D01*
X153200498Y-100424673D01*
X152967109Y-100328000D01*
X152126550Y-100328000D01*
X151967800Y-100486750D01*
X151713800Y-100486750D01*
X151555050Y-100328000D01*
X150714491Y-100328000D01*
X150481102Y-100424673D01*
X150302473Y-100603301D01*
X150205800Y-100836690D01*
X142123200Y-100836690D01*
X142123200Y-96547012D01*
X142253586Y-96547012D01*
X142354102Y-96647527D01*
X142587491Y-96744200D01*
X143228050Y-96744200D01*
X143386800Y-96585450D01*
X143386800Y-94736200D01*
X143366800Y-94736200D01*
X143366800Y-94482200D01*
X143386800Y-94482200D01*
X143386800Y-92632950D01*
X143640800Y-92632950D01*
X143640800Y-94482200D01*
X143660800Y-94482200D01*
X143660800Y-94736200D01*
X143640800Y-94736200D01*
X143640800Y-96585450D01*
X143799550Y-96744200D01*
X144440109Y-96744200D01*
X144673498Y-96647527D01*
X144774014Y-96547012D01*
X146313800Y-96547012D01*
X146481343Y-96513686D01*
X146513800Y-96491999D01*
X146546257Y-96513686D01*
X146713800Y-96547012D01*
X148313800Y-96547012D01*
X148481343Y-96513686D01*
X148513800Y-96491999D01*
X148546257Y-96513686D01*
X148713800Y-96547012D01*
X148833460Y-96547012D01*
X148821090Y-96609200D01*
X148847943Y-96744200D01*
X148873819Y-96874288D01*
X149023980Y-97099019D01*
X149080707Y-97136923D01*
X149276874Y-97333090D01*
X149314780Y-97389820D01*
X149539511Y-97539981D01*
X149737686Y-97579400D01*
X149737690Y-97579400D01*
X149804599Y-97592709D01*
X149871508Y-97579400D01*
X150656452Y-97579400D01*
X150680183Y-97603131D01*
X150985022Y-97729400D01*
X151314978Y-97729400D01*
X151619817Y-97603131D01*
X151853131Y-97369817D01*
X151979400Y-97064978D01*
X151979400Y-96735022D01*
X151901523Y-96547012D01*
X152313800Y-96547012D01*
X152481343Y-96513686D01*
X152513800Y-96491999D01*
X152546257Y-96513686D01*
X152713800Y-96547012D01*
X154313800Y-96547012D01*
X154481343Y-96513686D01*
X154513800Y-96491999D01*
X154546257Y-96513686D01*
X154713800Y-96547012D01*
X156313800Y-96547012D01*
X156481343Y-96513686D01*
X156623380Y-96418780D01*
X156718286Y-96276743D01*
X156751612Y-96109200D01*
X156751612Y-93109200D01*
X156718286Y-92941657D01*
X156623380Y-92799620D01*
X156481343Y-92704714D01*
X156313800Y-92671388D01*
X154713800Y-92671388D01*
X154546257Y-92704714D01*
X154513800Y-92726401D01*
X154481343Y-92704714D01*
X154313800Y-92671388D01*
X152713800Y-92671388D01*
X152546257Y-92704714D01*
X152513800Y-92726401D01*
X152481343Y-92704714D01*
X152313800Y-92671388D01*
X152068200Y-92671388D01*
X152068200Y-92568402D01*
X152079061Y-92513800D01*
X152036033Y-92297484D01*
X151944429Y-92160389D01*
X151913500Y-92114100D01*
X151867211Y-92083171D01*
X150629400Y-90845361D01*
X150629400Y-90754913D01*
X150518356Y-90486828D01*
X150313172Y-90281644D01*
X150045087Y-90170600D01*
X149754913Y-90170600D01*
X149486828Y-90281644D01*
X149281644Y-90486828D01*
X149170600Y-90754913D01*
X149170600Y-91045087D01*
X149281644Y-91313172D01*
X149486828Y-91518356D01*
X149754913Y-91629400D01*
X149845361Y-91629400D01*
X150887348Y-92671388D01*
X150713800Y-92671388D01*
X150546257Y-92704714D01*
X150513800Y-92726401D01*
X150481343Y-92704714D01*
X150313800Y-92671388D01*
X148713800Y-92671388D01*
X148546257Y-92704714D01*
X148513800Y-92726401D01*
X148481343Y-92704714D01*
X148313800Y-92671388D01*
X146713800Y-92671388D01*
X146546257Y-92704714D01*
X146513800Y-92726401D01*
X146481343Y-92704714D01*
X146313800Y-92671388D01*
X144774014Y-92671388D01*
X144673498Y-92570873D01*
X144440109Y-92474200D01*
X143799550Y-92474200D01*
X143640800Y-92632950D01*
X143386800Y-92632950D01*
X143228050Y-92474200D01*
X142587491Y-92474200D01*
X142354102Y-92570873D01*
X142253586Y-92671388D01*
X140713800Y-92671388D01*
X140546257Y-92704714D01*
X140404220Y-92799620D01*
X140309314Y-92941657D01*
X140275988Y-93109200D01*
X140275988Y-96109200D01*
X140309314Y-96276743D01*
X140404220Y-96418780D01*
X140546257Y-96513686D01*
X140713800Y-96547012D01*
X140904400Y-96547012D01*
X140904401Y-102042188D01*
X140855000Y-102042188D01*
X140687457Y-102075514D01*
X140545420Y-102170420D01*
X140543696Y-102173000D01*
X139000000Y-102173000D01*
X138951399Y-102182667D01*
X138910197Y-102210197D01*
X138882667Y-102251399D01*
X138873000Y-102300000D01*
X138873000Y-107369400D01*
X136354937Y-107369400D01*
X136323405Y-95709259D01*
X136483156Y-95869010D01*
X136971766Y-96071400D01*
X137500634Y-96071400D01*
X137989244Y-95869010D01*
X138363210Y-95495044D01*
X138565600Y-95006434D01*
X138565600Y-94477566D01*
X138363210Y-93988956D01*
X137989244Y-93614990D01*
X137927637Y-93589472D01*
X138050348Y-93538643D01*
X138136754Y-93282159D01*
X137236200Y-92381605D01*
X137222058Y-92395748D01*
X137042453Y-92216143D01*
X137056595Y-92202000D01*
X137415805Y-92202000D01*
X138316359Y-93102554D01*
X138572843Y-93016148D01*
X138782658Y-92442664D01*
X138757039Y-91832540D01*
X138572843Y-91387852D01*
X138316359Y-91301446D01*
X137415805Y-92202000D01*
X137056595Y-92202000D01*
X137042453Y-92187858D01*
X137222058Y-92008253D01*
X137236200Y-92022395D01*
X138136754Y-91121841D01*
X138050348Y-90865357D01*
X137920031Y-90817679D01*
X137989244Y-90789010D01*
X138363210Y-90415044D01*
X138565600Y-89926434D01*
X138565600Y-89397566D01*
X138363210Y-88908956D01*
X137989244Y-88534990D01*
X137644037Y-88392000D01*
X137989244Y-88249010D01*
X138363210Y-87875044D01*
X138565600Y-87386434D01*
X138565600Y-86857566D01*
X138363210Y-86368956D01*
X137989244Y-85994990D01*
X137644037Y-85852000D01*
X137989244Y-85709010D01*
X138363210Y-85335044D01*
X138565600Y-84846434D01*
X138565600Y-84317566D01*
X138363210Y-83828956D01*
X137989244Y-83454990D01*
X137644037Y-83312000D01*
X137989244Y-83169010D01*
X138363210Y-82795044D01*
X138565600Y-82306434D01*
X138565600Y-81777566D01*
X138363210Y-81288956D01*
X137989244Y-80914990D01*
X137644037Y-80772000D01*
X137989244Y-80629010D01*
X138363210Y-80255044D01*
X138565600Y-79766434D01*
X138565600Y-79237566D01*
X138363210Y-78748956D01*
X137989244Y-78374990D01*
X137796012Y-78294950D01*
X140078800Y-78294950D01*
X140078800Y-79635510D01*
X140175473Y-79868899D01*
X140354102Y-80047527D01*
X140587491Y-80144200D01*
X141228050Y-80144200D01*
X141386800Y-79985450D01*
X141386800Y-78136200D01*
X140237550Y-78136200D01*
X140078800Y-78294950D01*
X137796012Y-78294950D01*
X137644037Y-78232000D01*
X137989244Y-78089010D01*
X138363210Y-77715044D01*
X138565600Y-77226434D01*
X138565600Y-76697566D01*
X138435257Y-76382890D01*
X140078800Y-76382890D01*
X140078800Y-77723450D01*
X140237550Y-77882200D01*
X141386800Y-77882200D01*
X141386800Y-76032950D01*
X141640800Y-76032950D01*
X141640800Y-77882200D01*
X141660800Y-77882200D01*
X141660800Y-78136200D01*
X141640800Y-78136200D01*
X141640800Y-79985450D01*
X141799550Y-80144200D01*
X142440109Y-80144200D01*
X142673498Y-80047527D01*
X142774014Y-79947012D01*
X144313800Y-79947012D01*
X144481343Y-79913686D01*
X144513800Y-79891999D01*
X144546257Y-79913686D01*
X144713800Y-79947012D01*
X144959401Y-79947012D01*
X144959401Y-80126631D01*
X144865009Y-80354514D01*
X144865009Y-80644688D01*
X144976053Y-80912773D01*
X145181237Y-81117957D01*
X145449322Y-81229001D01*
X145739496Y-81229001D01*
X146007581Y-81117957D01*
X146212765Y-80912773D01*
X146323809Y-80644688D01*
X146323809Y-80354514D01*
X146212765Y-80086429D01*
X146073348Y-79947012D01*
X146313800Y-79947012D01*
X146481343Y-79913686D01*
X146513800Y-79891999D01*
X146546257Y-79913686D01*
X146713800Y-79947012D01*
X146959400Y-79947012D01*
X146959400Y-80059198D01*
X146948539Y-80113800D01*
X146959400Y-80168401D01*
X146991567Y-80330115D01*
X147114100Y-80513500D01*
X147160392Y-80544431D01*
X147270600Y-80654639D01*
X147270600Y-80745087D01*
X147381644Y-81013172D01*
X147586828Y-81218356D01*
X147854913Y-81329400D01*
X148145087Y-81329400D01*
X148413172Y-81218356D01*
X148618356Y-81013172D01*
X148729400Y-80745087D01*
X148729400Y-80454913D01*
X148618356Y-80186828D01*
X148413172Y-79981644D01*
X148324449Y-79944894D01*
X148481343Y-79913686D01*
X148513800Y-79891999D01*
X148546257Y-79913686D01*
X148713800Y-79947012D01*
X149116578Y-79947012D01*
X149116578Y-80559569D01*
X149052622Y-80623525D01*
X148941578Y-80891610D01*
X148941578Y-81181784D01*
X149052622Y-81449869D01*
X149257806Y-81655053D01*
X149525891Y-81766097D01*
X149816065Y-81766097D01*
X150084150Y-81655053D01*
X150289334Y-81449869D01*
X150400378Y-81181784D01*
X150400378Y-80891610D01*
X150289334Y-80623525D01*
X150225378Y-80559569D01*
X150225378Y-79947012D01*
X150313800Y-79947012D01*
X150481343Y-79913686D01*
X150491387Y-79906975D01*
X150491386Y-85246415D01*
X150427430Y-85310371D01*
X150316386Y-85578456D01*
X150316386Y-85868630D01*
X150427430Y-86136715D01*
X150632614Y-86341899D01*
X150900699Y-86452943D01*
X151190873Y-86452943D01*
X151458958Y-86341899D01*
X151664142Y-86136715D01*
X151775186Y-85868630D01*
X151775186Y-85578456D01*
X151664142Y-85310371D01*
X151600186Y-85246415D01*
X151600186Y-79947012D01*
X152313800Y-79947012D01*
X152481343Y-79913686D01*
X152513800Y-79891999D01*
X152546257Y-79913686D01*
X152553371Y-79915101D01*
X152481644Y-79986828D01*
X152370600Y-80254913D01*
X152370600Y-80545087D01*
X152481644Y-80813172D01*
X152686828Y-81018356D01*
X152954913Y-81129400D01*
X153245087Y-81129400D01*
X153513172Y-81018356D01*
X153718356Y-80813172D01*
X153829400Y-80545087D01*
X153829400Y-80454640D01*
X153867210Y-80416830D01*
X153913500Y-80385900D01*
X154036033Y-80202516D01*
X154068200Y-80040802D01*
X154068200Y-80040801D01*
X154079061Y-79986200D01*
X154071266Y-79947012D01*
X154253586Y-79947012D01*
X154354102Y-80047527D01*
X154587491Y-80144200D01*
X155228050Y-80144200D01*
X155386800Y-79985450D01*
X155386800Y-78136200D01*
X155640800Y-78136200D01*
X155640800Y-79985450D01*
X155799550Y-80144200D01*
X156440109Y-80144200D01*
X156673498Y-80047527D01*
X156852127Y-79868899D01*
X156948800Y-79635510D01*
X156948800Y-78294950D01*
X156790050Y-78136200D01*
X155640800Y-78136200D01*
X155386800Y-78136200D01*
X155366800Y-78136200D01*
X155366800Y-77882200D01*
X155386800Y-77882200D01*
X155386800Y-76032950D01*
X155640800Y-76032950D01*
X155640800Y-77882200D01*
X156790050Y-77882200D01*
X156948800Y-77723450D01*
X156948800Y-76382890D01*
X156852127Y-76149501D01*
X156673498Y-75970873D01*
X156440109Y-75874200D01*
X155799550Y-75874200D01*
X155640800Y-76032950D01*
X155386800Y-76032950D01*
X155228050Y-75874200D01*
X154587491Y-75874200D01*
X154354102Y-75970873D01*
X154253586Y-76071388D01*
X152713800Y-76071388D01*
X152546257Y-76104714D01*
X152513800Y-76126401D01*
X152481343Y-76104714D01*
X152313800Y-76071388D01*
X150713800Y-76071388D01*
X150546257Y-76104714D01*
X150513800Y-76126401D01*
X150481343Y-76104714D01*
X150313800Y-76071388D01*
X148713800Y-76071388D01*
X148546257Y-76104714D01*
X148513800Y-76126401D01*
X148481343Y-76104714D01*
X148313800Y-76071388D01*
X146713800Y-76071388D01*
X146546257Y-76104714D01*
X146513800Y-76126401D01*
X146481343Y-76104714D01*
X146313800Y-76071388D01*
X144713800Y-76071388D01*
X144546257Y-76104714D01*
X144513800Y-76126401D01*
X144481343Y-76104714D01*
X144313800Y-76071388D01*
X142774014Y-76071388D01*
X142673498Y-75970873D01*
X142440109Y-75874200D01*
X141799550Y-75874200D01*
X141640800Y-76032950D01*
X141386800Y-76032950D01*
X141228050Y-75874200D01*
X140587491Y-75874200D01*
X140354102Y-75970873D01*
X140175473Y-76149501D01*
X140078800Y-76382890D01*
X138435257Y-76382890D01*
X138363210Y-76208956D01*
X137989244Y-75834990D01*
X137500634Y-75632600D01*
X136971766Y-75632600D01*
X136483156Y-75834990D01*
X136270235Y-76047911D01*
X136268765Y-75504400D01*
X161065000Y-75504400D01*
X161065000Y-76050746D01*
%TD*%
M02*
