%TF.GenerationSoftware,KiCad,Pcbnew,no-vcs-found-c6d0075~61~ubuntu17.10.1*%
%TF.CreationDate,2018-01-30T21:37:05-08:00*%
%TF.ProjectId,lora_nodemcu,6C6F72615F6E6F64656D63752E6B6963,rev?*%
%TF.SameCoordinates,Original*%
%TF.FileFunction,Copper,L4,Bot,Signal*%
%TF.FilePolarity,Positive*%
%FSLAX46Y46*%
G04 Gerber Fmt 4.6, Leading zero omitted, Abs format (unit mm)*
G04 Created by KiCad (PCBNEW no-vcs-found-c6d0075~61~ubuntu17.10.1) date Tue Jan 30 21:37:05 2018*
%MOMM*%
%LPD*%
G01*
G04 APERTURE LIST*
%TA.AperFunction,ComponentPad*%
%ADD10C,1.800000*%
%TD*%
%TA.AperFunction,SMDPad,CuDef*%
%ADD11R,1.500000X1.250000*%
%TD*%
%TA.AperFunction,SMDPad,CuDef*%
%ADD12R,1.250000X1.500000*%
%TD*%
%TA.AperFunction,SMDPad,CuDef*%
%ADD13R,1.300000X1.500000*%
%TD*%
%TA.AperFunction,SMDPad,CuDef*%
%ADD14R,1.500000X1.300000*%
%TD*%
%TA.AperFunction,SMDPad,CuDef*%
%ADD15R,2.420000X5.080000*%
%TD*%
%TA.AperFunction,ViaPad*%
%ADD16C,0.970000*%
%TD*%
%TA.AperFunction,Conductor*%
%ADD17R,0.460000X0.890000*%
%TD*%
%TA.AperFunction,ViaPad*%
%ADD18C,0.600000*%
%TD*%
%TA.AperFunction,ViaPad*%
%ADD19C,0.800000*%
%TD*%
%TA.AperFunction,Conductor*%
%ADD20C,0.250000*%
%TD*%
%TA.AperFunction,Conductor*%
%ADD21C,0.500000*%
%TD*%
%TA.AperFunction,Conductor*%
%ADD22C,0.254000*%
%TD*%
G04 APERTURE END LIST*
D10*
%TO.P,U3,8*%
%TO.N,Net-(U3-Pad8)*%
X137236200Y-76962000D03*
%TO.P,U3,7*%
%TO.N,Net-(U3-Pad7)*%
X137236200Y-79502000D03*
%TO.P,U3,6*%
%TO.N,Net-(R2-Pad1)*%
X137236200Y-82042000D03*
%TO.P,U3,5*%
%TO.N,Net-(R1-Pad1)*%
X137236200Y-84582000D03*
%TO.P,U3,4*%
%TO.N,Net-(U3-Pad4)*%
X137236200Y-87122000D03*
%TO.P,U3,3*%
%TO.N,Net-(U3-Pad3)*%
X137236200Y-89662000D03*
%TO.P,U3,2*%
%TO.N,GND*%
X137236200Y-92202000D03*
%TO.P,U3,1*%
%TO.N,/wemos_5V*%
X137236200Y-94742000D03*
%TO.P,U3,16*%
%TO.N,Net-(C5-Pad2)*%
X160096200Y-94742000D03*
%TO.P,U3,15*%
%TO.N,/SS*%
X160096200Y-92202000D03*
%TO.P,U3,14*%
%TO.N,/MOSI*%
X160096200Y-89662000D03*
%TO.P,U3,13*%
%TO.N,/MISO*%
X160096200Y-87122000D03*
%TO.P,U3,12*%
%TO.N,/SCK*%
X160096200Y-84582000D03*
%TO.P,U3,11*%
%TO.N,Net-(U3-Pad11)*%
X160096200Y-82042000D03*
%TO.P,U3,10*%
%TO.N,Net-(U3-Pad10)*%
X160096200Y-79502000D03*
%TO.P,U3,9*%
%TO.N,Net-(U3-Pad9)*%
X160096200Y-76962000D03*
%TD*%
D11*
%TO.P,C3,2*%
%TO.N,GND*%
X149875000Y-98250000D03*
%TO.P,C3,1*%
%TO.N,/RF95_3V3*%
X152375000Y-98250000D03*
%TD*%
%TO.P,C5,2*%
%TO.N,Net-(C5-Pad2)*%
X155950000Y-93900000D03*
%TO.P,C5,1*%
%TO.N,GND*%
X153450000Y-93900000D03*
%TD*%
D12*
%TO.P,C4,2*%
%TO.N,/wemos_5V*%
X140250000Y-91750000D03*
%TO.P,C4,1*%
%TO.N,GND*%
X140250000Y-89250000D03*
%TD*%
D13*
%TO.P,L2,1*%
%TO.N,/wemos_5V*%
X146750000Y-95400000D03*
%TO.P,L2,2*%
%TO.N,+5V*%
X146750000Y-98100000D03*
%TD*%
D14*
%TO.P,L1,2*%
%TO.N,+3V3*%
X158100000Y-98250000D03*
%TO.P,L1,1*%
%TO.N,/RF95_3V3*%
X155400000Y-98250000D03*
%TD*%
D15*
%TO.P,AE1,2*%
%TO.N,GND*%
X137620000Y-105020000D03*
X146380000Y-105020000D03*
D16*
%TD*%
%TO.N,GND*%
%TO.C,AE1*%
X137620000Y-101580000D03*
%TO.N,GND*%
%TO.C,AE1*%
X146380000Y-101580000D03*
D17*
X137620000Y-102030000D03*
X146380000Y-102030000D03*
%TD*%
D12*
%TO.P,C1,1*%
%TO.N,GND*%
X150700000Y-101600000D03*
%TO.P,C1,2*%
%TO.N,+5V*%
X150700000Y-104100000D03*
%TD*%
%TO.P,C2,1*%
%TO.N,GND*%
X155350000Y-101400000D03*
%TO.P,C2,2*%
%TO.N,+3V3*%
X155350000Y-103900000D03*
%TD*%
D14*
%TO.P,R1,1*%
%TO.N,Net-(R1-Pad1)*%
X143450000Y-84700000D03*
%TO.P,R1,2*%
%TO.N,Net-(R1-Pad2)*%
X146150000Y-84700000D03*
%TD*%
%TO.P,R2,1*%
%TO.N,Net-(R2-Pad1)*%
X143350000Y-82000000D03*
%TO.P,R2,2*%
%TO.N,Net-(R2-Pad2)*%
X146050000Y-82000000D03*
%TD*%
%TO.P,R3,1*%
%TO.N,/SS*%
X155850000Y-91300000D03*
%TO.P,R3,2*%
%TO.N,Net-(R3-Pad2)*%
X153150000Y-91300000D03*
%TD*%
%TO.P,R4,1*%
%TO.N,/SCK*%
X155750000Y-85700000D03*
%TO.P,R4,2*%
%TO.N,Net-(R4-Pad2)*%
X153050000Y-85700000D03*
%TD*%
%TO.P,R5,1*%
%TO.N,/MISO*%
X155850000Y-82200000D03*
%TO.P,R5,2*%
%TO.N,Net-(R5-Pad2)*%
X153150000Y-82200000D03*
%TD*%
%TO.P,R6,1*%
%TO.N,/MOSI*%
X155850000Y-88600000D03*
%TO.P,R6,2*%
%TO.N,Net-(R6-Pad2)*%
X153150000Y-88600000D03*
%TD*%
D18*
%TO.N,Net-(R1-Pad2)*%
X149900000Y-90900000D03*
%TO.N,Net-(R2-Pad2)*%
X145594409Y-80499601D03*
X145594409Y-80499601D03*
%TO.N,/SS*%
X160096200Y-92202000D03*
%TO.N,Net-(R3-Pad2)*%
X148000000Y-80600000D03*
%TO.N,/SCK*%
X157900000Y-85500000D03*
%TO.N,Net-(R4-Pad2)*%
X149670978Y-81036697D03*
%TO.N,Net-(R5-Pad2)*%
X153100000Y-80400000D03*
%TO.N,Net-(R6-Pad2)*%
X151045786Y-85723543D03*
D19*
%TO.N,GND*%
X144700000Y-88400000D03*
X138950000Y-76450000D03*
X157950000Y-76450000D03*
X160250000Y-106450000D03*
X148650000Y-106550000D03*
X150000000Y-99750000D03*
X143500000Y-92100000D03*
D18*
X144000000Y-98750000D03*
X139000000Y-97500000D03*
X139000000Y-96000000D03*
X139000000Y-100500000D03*
X144000000Y-100000000D03*
X139000000Y-99000000D03*
D19*
X143500000Y-97000000D03*
X155500000Y-80500000D03*
X141500000Y-80750000D03*
X153750000Y-101500000D03*
X148400000Y-97475000D03*
X151800000Y-99775000D03*
X153025000Y-100050000D03*
X145304999Y-101095001D03*
X137600000Y-100000000D03*
%TO.N,+3V3*%
X153850000Y-104125000D03*
%TO.N,+5V*%
X150000000Y-106300000D03*
%TO.N,/RF95_3V3*%
X151150000Y-96900000D03*
%TD*%
D20*
%TO.N,Net-(R1-Pad1)*%
X143450000Y-84700000D02*
X137354200Y-84700000D01*
X137354200Y-84700000D02*
X137236200Y-84582000D01*
%TO.N,Net-(R1-Pad2)*%
X149943346Y-89393346D02*
X149943346Y-90856654D01*
X149943346Y-90856654D02*
X149900000Y-90900000D01*
X146150000Y-84700000D02*
X146150000Y-85600000D01*
X146150000Y-85600000D02*
X149943346Y-89393346D01*
%TO.N,Net-(R2-Pad1)*%
X143350000Y-82000000D02*
X137278200Y-82000000D01*
X137278200Y-82000000D02*
X137236200Y-82042000D01*
X143308000Y-82042000D02*
X143350000Y-82000000D01*
%TO.N,Net-(R2-Pad2)*%
X146050000Y-82000000D02*
X146050000Y-81050000D01*
X146050000Y-81050000D02*
X145750000Y-80750000D01*
X145750000Y-80750000D02*
X145750000Y-80655192D01*
X145750000Y-80655192D02*
X145594409Y-80499601D01*
%TO.N,/SS*%
X155850000Y-91300000D02*
X159194200Y-91300000D01*
X159194200Y-91300000D02*
X160096200Y-92202000D01*
%TO.N,Net-(R3-Pad2)*%
X151250000Y-88750000D02*
X151250000Y-89500000D01*
X148046205Y-80646205D02*
X148046205Y-85546205D01*
X148046205Y-85546205D02*
X151250000Y-88750000D01*
X148000000Y-80600000D02*
X148046205Y-80646205D01*
X151250000Y-89500000D02*
X153050000Y-91300000D01*
X153050000Y-91300000D02*
X153150000Y-91300000D01*
%TO.N,/SCK*%
X156904853Y-85545147D02*
X157854853Y-85545147D01*
X157854853Y-85545147D02*
X157900000Y-85500000D01*
X155750000Y-85700000D02*
X156750000Y-85700000D01*
X156750000Y-85700000D02*
X156904853Y-85545147D01*
%TO.N,Net-(R4-Pad2)*%
X149764715Y-83414715D02*
X149764715Y-81130434D01*
X149764715Y-81130434D02*
X149670978Y-81036697D01*
X153050000Y-85700000D02*
X152050000Y-85700000D01*
X152050000Y-85700000D02*
X149764715Y-83414715D01*
%TO.N,/MISO*%
X155850000Y-82200000D02*
X155950000Y-82200000D01*
X155950000Y-82200000D02*
X160096200Y-86346200D01*
X160096200Y-86346200D02*
X160096200Y-87122000D01*
%TO.N,Net-(R5-Pad2)*%
X153107998Y-81257998D02*
X153107998Y-80407998D01*
X153107998Y-80407998D02*
X153100000Y-80400000D01*
X153150000Y-82200000D02*
X153150000Y-81300000D01*
X153150000Y-81300000D02*
X153107998Y-81257998D01*
%TO.N,/MOSI*%
X155850000Y-88600000D02*
X159034200Y-88600000D01*
X159034200Y-88600000D02*
X160096200Y-89662000D01*
%TO.N,Net-(R6-Pad2)*%
X150983295Y-86533295D02*
X150983295Y-85786034D01*
X150983295Y-85786034D02*
X151045786Y-85723543D01*
X153150000Y-88600000D02*
X153050000Y-88600000D01*
X153050000Y-88600000D02*
X150983295Y-86533295D01*
D21*
%TO.N,GND*%
X150700000Y-101600000D02*
X150700000Y-100450000D01*
X150700000Y-100450000D02*
X150000000Y-99750000D01*
X155350000Y-101400000D02*
X153850000Y-101400000D01*
X153850000Y-101400000D02*
X153750000Y-101500000D01*
X149875000Y-98250000D02*
X149175000Y-98250000D01*
X149175000Y-98250000D02*
X148400000Y-97475000D01*
X139775000Y-89675000D02*
X139763200Y-89675000D01*
X139763200Y-89675000D02*
X137236200Y-92202000D01*
X146380000Y-101580000D02*
X145895001Y-101095001D01*
X145895001Y-101095001D02*
X145304999Y-101095001D01*
%TO.N,+3V3*%
X155350000Y-103900000D02*
X154075000Y-103900000D01*
X154075000Y-103900000D02*
X153850000Y-104125000D01*
X155350000Y-103900000D02*
X156100000Y-103900000D01*
X158125000Y-101875000D02*
X158125000Y-98825000D01*
X156100000Y-103900000D02*
X158125000Y-101875000D01*
%TO.N,+5V*%
X149300000Y-103825000D02*
X149300000Y-102725000D01*
X149575000Y-104100000D02*
X149300000Y-103825000D01*
X149300000Y-102725000D02*
X148775000Y-102200000D01*
X150700000Y-104100000D02*
X149575000Y-104100000D01*
X148775000Y-102200000D02*
X148775000Y-100675000D01*
X148775000Y-100675000D02*
X147700000Y-99600000D01*
X147700000Y-99600000D02*
X146750000Y-99600000D01*
X146750000Y-99600000D02*
X146750000Y-98100000D01*
X150700000Y-104100000D02*
X150700000Y-105600000D01*
X150700000Y-105600000D02*
X150000000Y-106300000D01*
D20*
%TO.N,Net-(C5-Pad2)*%
X155950000Y-93900000D02*
X159254200Y-93900000D01*
X159254200Y-93900000D02*
X160096200Y-94742000D01*
%TO.N,GND*%
X146380000Y-101580000D02*
X146380000Y-105020000D01*
X137620000Y-105020000D02*
X137620000Y-101580000D01*
D21*
%TO.N,/wemos_5V*%
X141875000Y-91250000D02*
X145360002Y-91250000D01*
X145360002Y-91250000D02*
X146285002Y-92175000D01*
X140250000Y-91750000D02*
X141375000Y-91750000D01*
X141375000Y-91750000D02*
X141875000Y-91250000D01*
X146750000Y-93189998D02*
X146750000Y-95400000D01*
X146285002Y-92175000D02*
X146750000Y-92500000D01*
X139775000Y-92203200D02*
X137236200Y-94742000D01*
X139775000Y-92175000D02*
X139775000Y-92203200D01*
X146750000Y-92500000D02*
X146750000Y-93189998D01*
%TO.N,/RF95_3V3*%
X155400000Y-98250000D02*
X152375000Y-98250000D01*
X152375000Y-98125000D02*
X151150000Y-96900000D01*
X152375000Y-98250000D02*
X152375000Y-98125000D01*
%TD*%
D22*
%TO.N,GND*%
G36*
X161215000Y-76456718D02*
X161136400Y-76266961D01*
X160791239Y-75921800D01*
X160340265Y-75735000D01*
X159852135Y-75735000D01*
X159401161Y-75921800D01*
X159056000Y-76266961D01*
X158869200Y-76717935D01*
X158869200Y-77206065D01*
X159056000Y-77657039D01*
X159401161Y-78002200D01*
X159852135Y-78189000D01*
X160340265Y-78189000D01*
X160791239Y-78002200D01*
X161136400Y-77657039D01*
X161215000Y-77467282D01*
X161215000Y-78996718D01*
X161136400Y-78806961D01*
X160791239Y-78461800D01*
X160340265Y-78275000D01*
X159852135Y-78275000D01*
X159401161Y-78461800D01*
X159056000Y-78806961D01*
X158869200Y-79257935D01*
X158869200Y-79746065D01*
X159056000Y-80197039D01*
X159401161Y-80542200D01*
X159852135Y-80729000D01*
X160340265Y-80729000D01*
X160791239Y-80542200D01*
X161136400Y-80197039D01*
X161215000Y-80007282D01*
X161215000Y-81536718D01*
X161136400Y-81346961D01*
X160791239Y-81001800D01*
X160340265Y-80815000D01*
X159852135Y-80815000D01*
X159401161Y-81001800D01*
X159056000Y-81346961D01*
X158869200Y-81797935D01*
X158869200Y-82286065D01*
X159056000Y-82737039D01*
X159401161Y-83082200D01*
X159852135Y-83269000D01*
X160340265Y-83269000D01*
X160791239Y-83082200D01*
X161136400Y-82737039D01*
X161215000Y-82547282D01*
X161215000Y-84076718D01*
X161136400Y-83886961D01*
X160791239Y-83541800D01*
X160340265Y-83355000D01*
X159852135Y-83355000D01*
X159401161Y-83541800D01*
X159056000Y-83886961D01*
X158869200Y-84337935D01*
X158869200Y-84479975D01*
X156933406Y-82544182D01*
X156933406Y-81550000D01*
X156908027Y-81422411D01*
X156835754Y-81314246D01*
X156727589Y-81241973D01*
X156600000Y-81216594D01*
X155100000Y-81216594D01*
X154972411Y-81241973D01*
X154864246Y-81314246D01*
X154791973Y-81422411D01*
X154766594Y-81550000D01*
X154766594Y-82850000D01*
X154791973Y-82977589D01*
X154864246Y-83085754D01*
X154972411Y-83158027D01*
X155100000Y-83183406D01*
X156294182Y-83183406D01*
X157983775Y-84873000D01*
X157775282Y-84873000D01*
X157544833Y-84968455D01*
X157420141Y-85093147D01*
X156949370Y-85093147D01*
X156904852Y-85084292D01*
X156860335Y-85093147D01*
X156833406Y-85098503D01*
X156833406Y-85050000D01*
X156808027Y-84922411D01*
X156735754Y-84814246D01*
X156627589Y-84741973D01*
X156500000Y-84716594D01*
X155000000Y-84716594D01*
X154872411Y-84741973D01*
X154764246Y-84814246D01*
X154691973Y-84922411D01*
X154666594Y-85050000D01*
X154666594Y-86350000D01*
X154691973Y-86477589D01*
X154764246Y-86585754D01*
X154872411Y-86658027D01*
X155000000Y-86683406D01*
X156500000Y-86683406D01*
X156627589Y-86658027D01*
X156735754Y-86585754D01*
X156808027Y-86477589D01*
X156833406Y-86350000D01*
X156833406Y-86144265D01*
X156926362Y-86125775D01*
X157075874Y-86025874D01*
X157095069Y-85997147D01*
X157510435Y-85997147D01*
X157544833Y-86031545D01*
X157775282Y-86127000D01*
X158024718Y-86127000D01*
X158255167Y-86031545D01*
X158431545Y-85855167D01*
X158527000Y-85624718D01*
X158527000Y-85416225D01*
X159296868Y-86186093D01*
X159056000Y-86426961D01*
X158869200Y-86877935D01*
X158869200Y-87366065D01*
X159056000Y-87817039D01*
X159401161Y-88162200D01*
X159852135Y-88349000D01*
X160340265Y-88349000D01*
X160791239Y-88162200D01*
X161136400Y-87817039D01*
X161215000Y-87627281D01*
X161215000Y-89156719D01*
X161136400Y-88966961D01*
X160791239Y-88621800D01*
X160340265Y-88435000D01*
X159852135Y-88435000D01*
X159609095Y-88535671D01*
X159385293Y-88311869D01*
X159360074Y-88274126D01*
X159210562Y-88174225D01*
X159078718Y-88148000D01*
X159034200Y-88139145D01*
X158989682Y-88148000D01*
X156933406Y-88148000D01*
X156933406Y-87950000D01*
X156908027Y-87822411D01*
X156835754Y-87714246D01*
X156727589Y-87641973D01*
X156600000Y-87616594D01*
X155100000Y-87616594D01*
X154972411Y-87641973D01*
X154864246Y-87714246D01*
X154791973Y-87822411D01*
X154766594Y-87950000D01*
X154766594Y-89250000D01*
X154791973Y-89377589D01*
X154864246Y-89485754D01*
X154972411Y-89558027D01*
X155100000Y-89583406D01*
X156600000Y-89583406D01*
X156727589Y-89558027D01*
X156835754Y-89485754D01*
X156908027Y-89377589D01*
X156933406Y-89250000D01*
X156933406Y-89052000D01*
X158846976Y-89052000D01*
X158969871Y-89174895D01*
X158869200Y-89417935D01*
X158869200Y-89906065D01*
X159056000Y-90357039D01*
X159401161Y-90702200D01*
X159852135Y-90889000D01*
X160340265Y-90889000D01*
X160791239Y-90702200D01*
X161136400Y-90357039D01*
X161215000Y-90167281D01*
X161215001Y-91696719D01*
X161136400Y-91506961D01*
X160791239Y-91161800D01*
X160340265Y-90975000D01*
X159852135Y-90975000D01*
X159609095Y-91075671D01*
X159545293Y-91011869D01*
X159520074Y-90974126D01*
X159370562Y-90874225D01*
X159238718Y-90848000D01*
X159194200Y-90839145D01*
X159149682Y-90848000D01*
X156933406Y-90848000D01*
X156933406Y-90650000D01*
X156908027Y-90522411D01*
X156835754Y-90414246D01*
X156727589Y-90341973D01*
X156600000Y-90316594D01*
X155100000Y-90316594D01*
X154972411Y-90341973D01*
X154864246Y-90414246D01*
X154791973Y-90522411D01*
X154766594Y-90650000D01*
X154766594Y-91950000D01*
X154791973Y-92077589D01*
X154864246Y-92185754D01*
X154972411Y-92258027D01*
X155100000Y-92283406D01*
X156600000Y-92283406D01*
X156727589Y-92258027D01*
X156835754Y-92185754D01*
X156908027Y-92077589D01*
X156933406Y-91950000D01*
X156933406Y-91752000D01*
X158954501Y-91752000D01*
X158869200Y-91957935D01*
X158869200Y-92446065D01*
X159056000Y-92897039D01*
X159401161Y-93242200D01*
X159852135Y-93429000D01*
X160340265Y-93429000D01*
X160791239Y-93242200D01*
X161136400Y-92897039D01*
X161215001Y-92707281D01*
X161215001Y-94236719D01*
X161136400Y-94046961D01*
X160791239Y-93701800D01*
X160340265Y-93515000D01*
X159852135Y-93515000D01*
X159609095Y-93615671D01*
X159605293Y-93611869D01*
X159580074Y-93574126D01*
X159430562Y-93474225D01*
X159298718Y-93448000D01*
X159254200Y-93439145D01*
X159209682Y-93448000D01*
X157033406Y-93448000D01*
X157033406Y-93275000D01*
X157008027Y-93147411D01*
X156935754Y-93039246D01*
X156827589Y-92966973D01*
X156700000Y-92941594D01*
X155200000Y-92941594D01*
X155072411Y-92966973D01*
X154964246Y-93039246D01*
X154891973Y-93147411D01*
X154866594Y-93275000D01*
X154866594Y-94525000D01*
X154891973Y-94652589D01*
X154964246Y-94760754D01*
X155072411Y-94833027D01*
X155200000Y-94858406D01*
X156700000Y-94858406D01*
X156827589Y-94833027D01*
X156935754Y-94760754D01*
X157008027Y-94652589D01*
X157033406Y-94525000D01*
X157033406Y-94352000D01*
X158929648Y-94352000D01*
X158869200Y-94497935D01*
X158869200Y-94986065D01*
X159056000Y-95437039D01*
X159401161Y-95782200D01*
X159852135Y-95969000D01*
X160340265Y-95969000D01*
X160791239Y-95782200D01*
X161136400Y-95437039D01*
X161215001Y-95247281D01*
X161215001Y-107519400D01*
X136205343Y-107519400D01*
X136177842Y-97350000D01*
X145766594Y-97350000D01*
X145766594Y-98850000D01*
X145791973Y-98977589D01*
X145864246Y-99085754D01*
X145972411Y-99158027D01*
X146100000Y-99183406D01*
X146173000Y-99183406D01*
X146173000Y-99543171D01*
X146161696Y-99600000D01*
X146206478Y-99825134D01*
X146301815Y-99967816D01*
X146334006Y-100015994D01*
X146524866Y-100143522D01*
X146750000Y-100188304D01*
X146806829Y-100177000D01*
X147461000Y-100177000D01*
X148198001Y-100914002D01*
X148198000Y-102143172D01*
X148186696Y-102200000D01*
X148198000Y-102256828D01*
X148231478Y-102425133D01*
X148359006Y-102615994D01*
X148407188Y-102648188D01*
X148723001Y-102964001D01*
X148723000Y-103768172D01*
X148711696Y-103825000D01*
X148723000Y-103881828D01*
X148756478Y-104050133D01*
X148884006Y-104240994D01*
X148932188Y-104273188D01*
X149126812Y-104467812D01*
X149159006Y-104515994D01*
X149302982Y-104612195D01*
X149349865Y-104643522D01*
X149575000Y-104688304D01*
X149631829Y-104677000D01*
X149741594Y-104677000D01*
X149741594Y-104850000D01*
X149766973Y-104977589D01*
X149839246Y-105085754D01*
X149947411Y-105158027D01*
X150075000Y-105183406D01*
X150123001Y-105183406D01*
X150123001Y-105360998D01*
X149911000Y-105573000D01*
X149855391Y-105573000D01*
X149588187Y-105683679D01*
X149383679Y-105888187D01*
X149273000Y-106155391D01*
X149273000Y-106444609D01*
X149383679Y-106711813D01*
X149588187Y-106916321D01*
X149855391Y-107027000D01*
X150144609Y-107027000D01*
X150411813Y-106916321D01*
X150616321Y-106711813D01*
X150727000Y-106444609D01*
X150727000Y-106389000D01*
X151067815Y-106048186D01*
X151115994Y-106015994D01*
X151243522Y-105825134D01*
X151277000Y-105656829D01*
X151288304Y-105600001D01*
X151277000Y-105543173D01*
X151277000Y-105183406D01*
X151325000Y-105183406D01*
X151452589Y-105158027D01*
X151560754Y-105085754D01*
X151633027Y-104977589D01*
X151658406Y-104850000D01*
X151658406Y-103980391D01*
X153123000Y-103980391D01*
X153123000Y-104269609D01*
X153233679Y-104536813D01*
X153438187Y-104741321D01*
X153705391Y-104852000D01*
X153994609Y-104852000D01*
X154261813Y-104741321D01*
X154391594Y-104611540D01*
X154391594Y-104650000D01*
X154416973Y-104777589D01*
X154489246Y-104885754D01*
X154597411Y-104958027D01*
X154725000Y-104983406D01*
X155975000Y-104983406D01*
X156102589Y-104958027D01*
X156210754Y-104885754D01*
X156283027Y-104777589D01*
X156308406Y-104650000D01*
X156308406Y-104446849D01*
X156325134Y-104443522D01*
X156515994Y-104315994D01*
X156548188Y-104267812D01*
X158492815Y-102323186D01*
X158540994Y-102290994D01*
X158668522Y-102100134D01*
X158702000Y-101931829D01*
X158702000Y-101931828D01*
X158713304Y-101875001D01*
X158702000Y-101818173D01*
X158702000Y-99233406D01*
X158850000Y-99233406D01*
X158977589Y-99208027D01*
X159085754Y-99135754D01*
X159158027Y-99027589D01*
X159183406Y-98900000D01*
X159183406Y-97600000D01*
X159158027Y-97472411D01*
X159085754Y-97364246D01*
X158977589Y-97291973D01*
X158850000Y-97266594D01*
X157350000Y-97266594D01*
X157222411Y-97291973D01*
X157114246Y-97364246D01*
X157041973Y-97472411D01*
X157016594Y-97600000D01*
X157016594Y-98900000D01*
X157041973Y-99027589D01*
X157114246Y-99135754D01*
X157222411Y-99208027D01*
X157350000Y-99233406D01*
X157548001Y-99233406D01*
X157548000Y-101635999D01*
X156234386Y-102949614D01*
X156210754Y-102914246D01*
X156102589Y-102841973D01*
X155975000Y-102816594D01*
X154725000Y-102816594D01*
X154597411Y-102841973D01*
X154489246Y-102914246D01*
X154416973Y-103022411D01*
X154391594Y-103150000D01*
X154391594Y-103323000D01*
X154131827Y-103323000D01*
X154074999Y-103311696D01*
X154018172Y-103323000D01*
X154018171Y-103323000D01*
X153849866Y-103356478D01*
X153787724Y-103398000D01*
X153705391Y-103398000D01*
X153438187Y-103508679D01*
X153233679Y-103713187D01*
X153123000Y-103980391D01*
X151658406Y-103980391D01*
X151658406Y-103350000D01*
X151633027Y-103222411D01*
X151560754Y-103114246D01*
X151452589Y-103041973D01*
X151325000Y-103016594D01*
X150075000Y-103016594D01*
X149947411Y-103041973D01*
X149877000Y-103089020D01*
X149877000Y-102955305D01*
X149948690Y-102985000D01*
X150414250Y-102985000D01*
X150573000Y-102826250D01*
X150573000Y-101727000D01*
X150827000Y-101727000D01*
X150827000Y-102826250D01*
X150985750Y-102985000D01*
X151451310Y-102985000D01*
X151684699Y-102888327D01*
X151863327Y-102709698D01*
X151960000Y-102476309D01*
X151960000Y-101885750D01*
X151801250Y-101727000D01*
X150827000Y-101727000D01*
X150573000Y-101727000D01*
X149598750Y-101727000D01*
X149440000Y-101885750D01*
X149440000Y-102049000D01*
X149352000Y-101961000D01*
X149352000Y-101685750D01*
X154090000Y-101685750D01*
X154090000Y-102276309D01*
X154186673Y-102509698D01*
X154365301Y-102688327D01*
X154598690Y-102785000D01*
X155064250Y-102785000D01*
X155223000Y-102626250D01*
X155223000Y-101527000D01*
X155477000Y-101527000D01*
X155477000Y-102626250D01*
X155635750Y-102785000D01*
X156101310Y-102785000D01*
X156334699Y-102688327D01*
X156513327Y-102509698D01*
X156610000Y-102276309D01*
X156610000Y-101685750D01*
X156451250Y-101527000D01*
X155477000Y-101527000D01*
X155223000Y-101527000D01*
X154248750Y-101527000D01*
X154090000Y-101685750D01*
X149352000Y-101685750D01*
X149352000Y-100731829D01*
X149353618Y-100723691D01*
X149440000Y-100723691D01*
X149440000Y-101314250D01*
X149598750Y-101473000D01*
X150573000Y-101473000D01*
X150573000Y-100373750D01*
X150827000Y-100373750D01*
X150827000Y-101473000D01*
X151801250Y-101473000D01*
X151960000Y-101314250D01*
X151960000Y-100723691D01*
X151877158Y-100523691D01*
X154090000Y-100523691D01*
X154090000Y-101114250D01*
X154248750Y-101273000D01*
X155223000Y-101273000D01*
X155223000Y-100173750D01*
X155477000Y-100173750D01*
X155477000Y-101273000D01*
X156451250Y-101273000D01*
X156610000Y-101114250D01*
X156610000Y-100523691D01*
X156513327Y-100290302D01*
X156334699Y-100111673D01*
X156101310Y-100015000D01*
X155635750Y-100015000D01*
X155477000Y-100173750D01*
X155223000Y-100173750D01*
X155064250Y-100015000D01*
X154598690Y-100015000D01*
X154365301Y-100111673D01*
X154186673Y-100290302D01*
X154090000Y-100523691D01*
X151877158Y-100523691D01*
X151863327Y-100490302D01*
X151684699Y-100311673D01*
X151451310Y-100215000D01*
X150985750Y-100215000D01*
X150827000Y-100373750D01*
X150573000Y-100373750D01*
X150414250Y-100215000D01*
X149948690Y-100215000D01*
X149715301Y-100311673D01*
X149536673Y-100490302D01*
X149440000Y-100723691D01*
X149353618Y-100723691D01*
X149363304Y-100675000D01*
X149318522Y-100449865D01*
X149223185Y-100307183D01*
X149223184Y-100307182D01*
X149190994Y-100259006D01*
X149142817Y-100226816D01*
X148148188Y-99232188D01*
X148115994Y-99184006D01*
X147925134Y-99056478D01*
X147756829Y-99023000D01*
X147756828Y-99023000D01*
X147700000Y-99011696D01*
X147682975Y-99015083D01*
X147708027Y-98977589D01*
X147733406Y-98850000D01*
X147733406Y-98535750D01*
X148490000Y-98535750D01*
X148490000Y-99001310D01*
X148586673Y-99234699D01*
X148765302Y-99413327D01*
X148998691Y-99510000D01*
X149589250Y-99510000D01*
X149748000Y-99351250D01*
X149748000Y-98377000D01*
X150002000Y-98377000D01*
X150002000Y-99351250D01*
X150160750Y-99510000D01*
X150751309Y-99510000D01*
X150984698Y-99413327D01*
X151163327Y-99234699D01*
X151260000Y-99001310D01*
X151260000Y-98535750D01*
X151101250Y-98377000D01*
X150002000Y-98377000D01*
X149748000Y-98377000D01*
X148648750Y-98377000D01*
X148490000Y-98535750D01*
X147733406Y-98535750D01*
X147733406Y-97498690D01*
X148490000Y-97498690D01*
X148490000Y-97964250D01*
X148648750Y-98123000D01*
X149748000Y-98123000D01*
X149748000Y-97148750D01*
X150002000Y-97148750D01*
X150002000Y-98123000D01*
X151101250Y-98123000D01*
X151260000Y-97964250D01*
X151260000Y-97826001D01*
X151291594Y-97857595D01*
X151291594Y-98875000D01*
X151316973Y-99002589D01*
X151389246Y-99110754D01*
X151497411Y-99183027D01*
X151625000Y-99208406D01*
X153125000Y-99208406D01*
X153252589Y-99183027D01*
X153360754Y-99110754D01*
X153433027Y-99002589D01*
X153458406Y-98875000D01*
X153458406Y-98827000D01*
X154316594Y-98827000D01*
X154316594Y-98900000D01*
X154341973Y-99027589D01*
X154414246Y-99135754D01*
X154522411Y-99208027D01*
X154650000Y-99233406D01*
X156150000Y-99233406D01*
X156277589Y-99208027D01*
X156385754Y-99135754D01*
X156458027Y-99027589D01*
X156483406Y-98900000D01*
X156483406Y-97600000D01*
X156458027Y-97472411D01*
X156385754Y-97364246D01*
X156277589Y-97291973D01*
X156150000Y-97266594D01*
X154650000Y-97266594D01*
X154522411Y-97291973D01*
X154414246Y-97364246D01*
X154341973Y-97472411D01*
X154316594Y-97600000D01*
X154316594Y-97673000D01*
X153458406Y-97673000D01*
X153458406Y-97625000D01*
X153433027Y-97497411D01*
X153360754Y-97389246D01*
X153252589Y-97316973D01*
X153125000Y-97291594D01*
X152357595Y-97291594D01*
X151877000Y-96810999D01*
X151877000Y-96755391D01*
X151766321Y-96488187D01*
X151561813Y-96283679D01*
X151294609Y-96173000D01*
X151005391Y-96173000D01*
X150738187Y-96283679D01*
X150533679Y-96488187D01*
X150423000Y-96755391D01*
X150423000Y-96990000D01*
X150160750Y-96990000D01*
X150002000Y-97148750D01*
X149748000Y-97148750D01*
X149589250Y-96990000D01*
X148998691Y-96990000D01*
X148765302Y-97086673D01*
X148586673Y-97265301D01*
X148490000Y-97498690D01*
X147733406Y-97498690D01*
X147733406Y-97350000D01*
X147708027Y-97222411D01*
X147635754Y-97114246D01*
X147527589Y-97041973D01*
X147400000Y-97016594D01*
X146100000Y-97016594D01*
X145972411Y-97041973D01*
X145864246Y-97114246D01*
X145791973Y-97222411D01*
X145766594Y-97350000D01*
X136177842Y-97350000D01*
X136172515Y-95380342D01*
X136196000Y-95437039D01*
X136541161Y-95782200D01*
X136992135Y-95969000D01*
X137480265Y-95969000D01*
X137931239Y-95782200D01*
X138276400Y-95437039D01*
X138463200Y-94986065D01*
X138463200Y-94497935D01*
X138414306Y-94379894D01*
X139960795Y-92833406D01*
X140875000Y-92833406D01*
X141002589Y-92808027D01*
X141110754Y-92735754D01*
X141183027Y-92627589D01*
X141208406Y-92500000D01*
X141208406Y-92327000D01*
X141318172Y-92327000D01*
X141375000Y-92338304D01*
X141431828Y-92327000D01*
X141431829Y-92327000D01*
X141600134Y-92293522D01*
X141790994Y-92165994D01*
X141823188Y-92117812D01*
X142114001Y-91827000D01*
X145121002Y-91827000D01*
X145872775Y-92578775D01*
X145907876Y-92615379D01*
X145912868Y-92618868D01*
X145917185Y-92623185D01*
X145959444Y-92651422D01*
X146173000Y-92800682D01*
X146173000Y-93133170D01*
X146173001Y-94316594D01*
X146100000Y-94316594D01*
X145972411Y-94341973D01*
X145864246Y-94414246D01*
X145791973Y-94522411D01*
X145766594Y-94650000D01*
X145766594Y-96150000D01*
X145791973Y-96277589D01*
X145864246Y-96385754D01*
X145972411Y-96458027D01*
X146100000Y-96483406D01*
X147400000Y-96483406D01*
X147527589Y-96458027D01*
X147635754Y-96385754D01*
X147708027Y-96277589D01*
X147733406Y-96150000D01*
X147733406Y-94650000D01*
X147708027Y-94522411D01*
X147635754Y-94414246D01*
X147527589Y-94341973D01*
X147400000Y-94316594D01*
X147327000Y-94316594D01*
X147327000Y-94185750D01*
X152065000Y-94185750D01*
X152065000Y-94651310D01*
X152161673Y-94884699D01*
X152340302Y-95063327D01*
X152573691Y-95160000D01*
X153164250Y-95160000D01*
X153323000Y-95001250D01*
X153323000Y-94027000D01*
X153577000Y-94027000D01*
X153577000Y-95001250D01*
X153735750Y-95160000D01*
X154326309Y-95160000D01*
X154559698Y-95063327D01*
X154738327Y-94884699D01*
X154835000Y-94651310D01*
X154835000Y-94185750D01*
X154676250Y-94027000D01*
X153577000Y-94027000D01*
X153323000Y-94027000D01*
X152223750Y-94027000D01*
X152065000Y-94185750D01*
X147327000Y-94185750D01*
X147327000Y-93148690D01*
X152065000Y-93148690D01*
X152065000Y-93614250D01*
X152223750Y-93773000D01*
X153323000Y-93773000D01*
X153323000Y-92798750D01*
X153577000Y-92798750D01*
X153577000Y-93773000D01*
X154676250Y-93773000D01*
X154835000Y-93614250D01*
X154835000Y-93148690D01*
X154738327Y-92915301D01*
X154559698Y-92736673D01*
X154326309Y-92640000D01*
X153735750Y-92640000D01*
X153577000Y-92798750D01*
X153323000Y-92798750D01*
X153164250Y-92640000D01*
X152573691Y-92640000D01*
X152340302Y-92736673D01*
X152161673Y-92915301D01*
X152065000Y-93148690D01*
X147327000Y-93148690D01*
X147327000Y-92506057D01*
X147329279Y-92397344D01*
X147306015Y-92337675D01*
X147293522Y-92274866D01*
X147264725Y-92231768D01*
X147245898Y-92183478D01*
X147201576Y-92137258D01*
X147165994Y-92084006D01*
X147075564Y-92023583D01*
X146657137Y-91731133D01*
X145808190Y-90882188D01*
X145775996Y-90834006D01*
X145585136Y-90706478D01*
X145416831Y-90673000D01*
X145416830Y-90673000D01*
X145360002Y-90661696D01*
X145303174Y-90673000D01*
X141931829Y-90673000D01*
X141875000Y-90661696D01*
X141649865Y-90706478D01*
X141580037Y-90753136D01*
X141459006Y-90834006D01*
X141426814Y-90882186D01*
X141208406Y-91100594D01*
X141208406Y-91000000D01*
X141183027Y-90872411D01*
X141110754Y-90764246D01*
X141002589Y-90691973D01*
X140875000Y-90666594D01*
X139625000Y-90666594D01*
X139497411Y-90691973D01*
X139389246Y-90764246D01*
X139316973Y-90872411D01*
X139291594Y-91000000D01*
X139291594Y-91859896D01*
X139270030Y-91892169D01*
X138780114Y-92382085D01*
X138757039Y-91832540D01*
X138572843Y-91387852D01*
X138316359Y-91301446D01*
X137415805Y-92202000D01*
X137429948Y-92216143D01*
X137250343Y-92395748D01*
X137236200Y-92381605D01*
X137222058Y-92395748D01*
X137042453Y-92216143D01*
X137056595Y-92202000D01*
X137042453Y-92187858D01*
X137222058Y-92008253D01*
X137236200Y-92022395D01*
X138136754Y-91121841D01*
X138050348Y-90865357D01*
X137777946Y-90765696D01*
X137931239Y-90702200D01*
X138276400Y-90357039D01*
X138463200Y-89906065D01*
X138463200Y-89535750D01*
X138990000Y-89535750D01*
X138990000Y-90126309D01*
X139086673Y-90359698D01*
X139265301Y-90538327D01*
X139498690Y-90635000D01*
X139964250Y-90635000D01*
X140123000Y-90476250D01*
X140123000Y-89377000D01*
X140377000Y-89377000D01*
X140377000Y-90476250D01*
X140535750Y-90635000D01*
X141001310Y-90635000D01*
X141234699Y-90538327D01*
X141413327Y-90359698D01*
X141510000Y-90126309D01*
X141510000Y-89535750D01*
X141351250Y-89377000D01*
X140377000Y-89377000D01*
X140123000Y-89377000D01*
X139148750Y-89377000D01*
X138990000Y-89535750D01*
X138463200Y-89535750D01*
X138463200Y-89417935D01*
X138276400Y-88966961D01*
X137931239Y-88621800D01*
X137480265Y-88435000D01*
X136992135Y-88435000D01*
X136541161Y-88621800D01*
X136196000Y-88966961D01*
X136155436Y-89064890D01*
X136153567Y-88373691D01*
X138990000Y-88373691D01*
X138990000Y-88964250D01*
X139148750Y-89123000D01*
X140123000Y-89123000D01*
X140123000Y-88023750D01*
X140377000Y-88023750D01*
X140377000Y-89123000D01*
X141351250Y-89123000D01*
X141510000Y-88964250D01*
X141510000Y-88373691D01*
X141413327Y-88140302D01*
X141234699Y-87961673D01*
X141001310Y-87865000D01*
X140535750Y-87865000D01*
X140377000Y-88023750D01*
X140123000Y-88023750D01*
X139964250Y-87865000D01*
X139498690Y-87865000D01*
X139265301Y-87961673D01*
X139086673Y-88140302D01*
X138990000Y-88373691D01*
X136153567Y-88373691D01*
X136151773Y-87710266D01*
X136196000Y-87817039D01*
X136541161Y-88162200D01*
X136992135Y-88349000D01*
X137480265Y-88349000D01*
X137931239Y-88162200D01*
X138276400Y-87817039D01*
X138463200Y-87366065D01*
X138463200Y-86877935D01*
X138276400Y-86426961D01*
X137931239Y-86081800D01*
X137480265Y-85895000D01*
X136992135Y-85895000D01*
X136541161Y-86081800D01*
X136196000Y-86426961D01*
X136148612Y-86541365D01*
X136144859Y-85153574D01*
X136196000Y-85277039D01*
X136541161Y-85622200D01*
X136992135Y-85809000D01*
X137480265Y-85809000D01*
X137931239Y-85622200D01*
X138276400Y-85277039D01*
X138328193Y-85152000D01*
X142366594Y-85152000D01*
X142366594Y-85350000D01*
X142391973Y-85477589D01*
X142464246Y-85585754D01*
X142572411Y-85658027D01*
X142700000Y-85683406D01*
X144200000Y-85683406D01*
X144327589Y-85658027D01*
X144435754Y-85585754D01*
X144508027Y-85477589D01*
X144533406Y-85350000D01*
X144533406Y-84050000D01*
X145066594Y-84050000D01*
X145066594Y-85350000D01*
X145091973Y-85477589D01*
X145164246Y-85585754D01*
X145272411Y-85658027D01*
X145400000Y-85683406D01*
X145705735Y-85683406D01*
X145724225Y-85776361D01*
X145787475Y-85871021D01*
X145824127Y-85925874D01*
X145861867Y-85951091D01*
X149491346Y-89580570D01*
X149491347Y-90421941D01*
X149368455Y-90544833D01*
X149273000Y-90775282D01*
X149273000Y-91024718D01*
X149368455Y-91255167D01*
X149544833Y-91431545D01*
X149775282Y-91527000D01*
X150024718Y-91527000D01*
X150255167Y-91431545D01*
X150431545Y-91255167D01*
X150527000Y-91024718D01*
X150527000Y-90775282D01*
X150431545Y-90544833D01*
X150395346Y-90508634D01*
X150395346Y-89437862D01*
X150404201Y-89393345D01*
X150395346Y-89348828D01*
X150369121Y-89216984D01*
X150269220Y-89067472D01*
X150231477Y-89042253D01*
X146872630Y-85683406D01*
X146900000Y-85683406D01*
X147027589Y-85658027D01*
X147135754Y-85585754D01*
X147208027Y-85477589D01*
X147233406Y-85350000D01*
X147233406Y-84050000D01*
X147208027Y-83922411D01*
X147135754Y-83814246D01*
X147027589Y-83741973D01*
X146900000Y-83716594D01*
X145400000Y-83716594D01*
X145272411Y-83741973D01*
X145164246Y-83814246D01*
X145091973Y-83922411D01*
X145066594Y-84050000D01*
X144533406Y-84050000D01*
X144508027Y-83922411D01*
X144435754Y-83814246D01*
X144327589Y-83741973D01*
X144200000Y-83716594D01*
X142700000Y-83716594D01*
X142572411Y-83741973D01*
X142464246Y-83814246D01*
X142391973Y-83922411D01*
X142366594Y-84050000D01*
X142366594Y-84248000D01*
X138425948Y-84248000D01*
X138276400Y-83886961D01*
X137931239Y-83541800D01*
X137480265Y-83355000D01*
X136992135Y-83355000D01*
X136541161Y-83541800D01*
X136196000Y-83886961D01*
X136141788Y-84017840D01*
X136137945Y-82596883D01*
X136196000Y-82737039D01*
X136541161Y-83082200D01*
X136992135Y-83269000D01*
X137480265Y-83269000D01*
X137931239Y-83082200D01*
X138276400Y-82737039D01*
X138394467Y-82452000D01*
X142266594Y-82452000D01*
X142266594Y-82650000D01*
X142291973Y-82777589D01*
X142364246Y-82885754D01*
X142472411Y-82958027D01*
X142600000Y-82983406D01*
X144100000Y-82983406D01*
X144227589Y-82958027D01*
X144335754Y-82885754D01*
X144408027Y-82777589D01*
X144433406Y-82650000D01*
X144433406Y-81350000D01*
X144966594Y-81350000D01*
X144966594Y-82650000D01*
X144991973Y-82777589D01*
X145064246Y-82885754D01*
X145172411Y-82958027D01*
X145300000Y-82983406D01*
X146800000Y-82983406D01*
X146927589Y-82958027D01*
X147035754Y-82885754D01*
X147108027Y-82777589D01*
X147133406Y-82650000D01*
X147133406Y-81350000D01*
X147108027Y-81222411D01*
X147035754Y-81114246D01*
X146927589Y-81041973D01*
X146800000Y-81016594D01*
X146504210Y-81016594D01*
X146475775Y-80873638D01*
X146429618Y-80804560D01*
X146375874Y-80724126D01*
X146338133Y-80698908D01*
X146221409Y-80582184D01*
X146221409Y-80475282D01*
X147373000Y-80475282D01*
X147373000Y-80724718D01*
X147468455Y-80955167D01*
X147594205Y-81080917D01*
X147594206Y-85501682D01*
X147585350Y-85546205D01*
X147620430Y-85722566D01*
X147620431Y-85722567D01*
X147720332Y-85872079D01*
X147758072Y-85897296D01*
X150798000Y-88937225D01*
X150798001Y-89455478D01*
X150789145Y-89500000D01*
X150824225Y-89676361D01*
X150898909Y-89788133D01*
X150924127Y-89825874D01*
X150961867Y-89851091D01*
X152066594Y-90955818D01*
X152066594Y-91950000D01*
X152091973Y-92077589D01*
X152164246Y-92185754D01*
X152272411Y-92258027D01*
X152400000Y-92283406D01*
X153900000Y-92283406D01*
X154027589Y-92258027D01*
X154135754Y-92185754D01*
X154208027Y-92077589D01*
X154233406Y-91950000D01*
X154233406Y-90650000D01*
X154208027Y-90522411D01*
X154135754Y-90414246D01*
X154027589Y-90341973D01*
X153900000Y-90316594D01*
X152705818Y-90316594D01*
X151702000Y-89312776D01*
X151702000Y-88794516D01*
X151710855Y-88749999D01*
X151702000Y-88705482D01*
X151675775Y-88573638D01*
X151575874Y-88424126D01*
X151538134Y-88398909D01*
X148498205Y-85358981D01*
X148498205Y-80988507D01*
X148531545Y-80955167D01*
X148549434Y-80911979D01*
X149043978Y-80911979D01*
X149043978Y-81161415D01*
X149139433Y-81391864D01*
X149312716Y-81565147D01*
X149312715Y-83370197D01*
X149303860Y-83414715D01*
X149312715Y-83459232D01*
X149338940Y-83591076D01*
X149438841Y-83740589D01*
X149476584Y-83765808D01*
X150840635Y-85129859D01*
X150690619Y-85191998D01*
X150514241Y-85368376D01*
X150418786Y-85598825D01*
X150418786Y-85848261D01*
X150514241Y-86078710D01*
X150531296Y-86095765D01*
X150531295Y-86488777D01*
X150522440Y-86533295D01*
X150550044Y-86672073D01*
X150557520Y-86709656D01*
X150657421Y-86859169D01*
X150695164Y-86884388D01*
X152066594Y-88255819D01*
X152066594Y-89250000D01*
X152091973Y-89377589D01*
X152164246Y-89485754D01*
X152272411Y-89558027D01*
X152400000Y-89583406D01*
X153900000Y-89583406D01*
X154027589Y-89558027D01*
X154135754Y-89485754D01*
X154208027Y-89377589D01*
X154233406Y-89250000D01*
X154233406Y-87950000D01*
X154208027Y-87822411D01*
X154135754Y-87714246D01*
X154027589Y-87641973D01*
X153900000Y-87616594D01*
X152705819Y-87616594D01*
X151435295Y-86346071D01*
X151435295Y-86220746D01*
X151577331Y-86078710D01*
X151639469Y-85928694D01*
X151698909Y-85988134D01*
X151724126Y-86025874D01*
X151807825Y-86081800D01*
X151873638Y-86125775D01*
X151966594Y-86144265D01*
X151966594Y-86350000D01*
X151991973Y-86477589D01*
X152064246Y-86585754D01*
X152172411Y-86658027D01*
X152300000Y-86683406D01*
X153800000Y-86683406D01*
X153927589Y-86658027D01*
X154035754Y-86585754D01*
X154108027Y-86477589D01*
X154133406Y-86350000D01*
X154133406Y-85050000D01*
X154108027Y-84922411D01*
X154035754Y-84814246D01*
X153927589Y-84741973D01*
X153800000Y-84716594D01*
X152300000Y-84716594D01*
X152172411Y-84741973D01*
X152064246Y-84814246D01*
X151991973Y-84922411D01*
X151978644Y-84989419D01*
X150216715Y-83227491D01*
X150216715Y-81550000D01*
X152066594Y-81550000D01*
X152066594Y-82850000D01*
X152091973Y-82977589D01*
X152164246Y-83085754D01*
X152272411Y-83158027D01*
X152400000Y-83183406D01*
X153900000Y-83183406D01*
X154027589Y-83158027D01*
X154135754Y-83085754D01*
X154208027Y-82977589D01*
X154233406Y-82850000D01*
X154233406Y-81550000D01*
X154208027Y-81422411D01*
X154135754Y-81314246D01*
X154027589Y-81241973D01*
X153900000Y-81216594D01*
X153594265Y-81216594D01*
X153575775Y-81123638D01*
X153559998Y-81100026D01*
X153559998Y-80826714D01*
X153631545Y-80755167D01*
X153727000Y-80524718D01*
X153727000Y-80275282D01*
X153631545Y-80044833D01*
X153455167Y-79868455D01*
X153224718Y-79773000D01*
X152975282Y-79773000D01*
X152744833Y-79868455D01*
X152568455Y-80044833D01*
X152473000Y-80275282D01*
X152473000Y-80524718D01*
X152568455Y-80755167D01*
X152655998Y-80842710D01*
X152655998Y-81213480D01*
X152655379Y-81216594D01*
X152400000Y-81216594D01*
X152272411Y-81241973D01*
X152164246Y-81314246D01*
X152091973Y-81422411D01*
X152066594Y-81550000D01*
X150216715Y-81550000D01*
X150216715Y-81357601D01*
X150297978Y-81161415D01*
X150297978Y-80911979D01*
X150202523Y-80681530D01*
X150026145Y-80505152D01*
X149795696Y-80409697D01*
X149546260Y-80409697D01*
X149315811Y-80505152D01*
X149139433Y-80681530D01*
X149043978Y-80911979D01*
X148549434Y-80911979D01*
X148627000Y-80724718D01*
X148627000Y-80475282D01*
X148531545Y-80244833D01*
X148355167Y-80068455D01*
X148124718Y-79973000D01*
X147875282Y-79973000D01*
X147644833Y-80068455D01*
X147468455Y-80244833D01*
X147373000Y-80475282D01*
X146221409Y-80475282D01*
X146221409Y-80374883D01*
X146125954Y-80144434D01*
X145949576Y-79968056D01*
X145719127Y-79872601D01*
X145469691Y-79872601D01*
X145239242Y-79968056D01*
X145062864Y-80144434D01*
X144967409Y-80374883D01*
X144967409Y-80624319D01*
X145062864Y-80854768D01*
X145237185Y-81029089D01*
X145172411Y-81041973D01*
X145064246Y-81114246D01*
X144991973Y-81222411D01*
X144966594Y-81350000D01*
X144433406Y-81350000D01*
X144408027Y-81222411D01*
X144335754Y-81114246D01*
X144227589Y-81041973D01*
X144100000Y-81016594D01*
X142600000Y-81016594D01*
X142472411Y-81041973D01*
X142364246Y-81114246D01*
X142291973Y-81222411D01*
X142266594Y-81350000D01*
X142266594Y-81548000D01*
X138359673Y-81548000D01*
X138276400Y-81346961D01*
X137931239Y-81001800D01*
X137480265Y-80815000D01*
X136992135Y-80815000D01*
X136541161Y-81001800D01*
X136196000Y-81346961D01*
X136134963Y-81494316D01*
X136131031Y-80040191D01*
X136196000Y-80197039D01*
X136541161Y-80542200D01*
X136992135Y-80729000D01*
X137480265Y-80729000D01*
X137931239Y-80542200D01*
X138276400Y-80197039D01*
X138463200Y-79746065D01*
X138463200Y-79257935D01*
X138276400Y-78806961D01*
X137931239Y-78461800D01*
X137480265Y-78275000D01*
X136992135Y-78275000D01*
X136541161Y-78461800D01*
X136196000Y-78806961D01*
X136128139Y-78970791D01*
X136124117Y-77483499D01*
X136196000Y-77657039D01*
X136541161Y-78002200D01*
X136992135Y-78189000D01*
X137480265Y-78189000D01*
X137931239Y-78002200D01*
X138276400Y-77657039D01*
X138463200Y-77206065D01*
X138463200Y-76717935D01*
X138276400Y-76266961D01*
X137931239Y-75921800D01*
X137480265Y-75735000D01*
X136992135Y-75735000D01*
X136541161Y-75921800D01*
X136196000Y-76266961D01*
X136121315Y-76447267D01*
X136118359Y-75354400D01*
X161215000Y-75354400D01*
X161215000Y-76456718D01*
X161215000Y-76456718D01*
G37*
X161215000Y-76456718D02*
X161136400Y-76266961D01*
X160791239Y-75921800D01*
X160340265Y-75735000D01*
X159852135Y-75735000D01*
X159401161Y-75921800D01*
X159056000Y-76266961D01*
X158869200Y-76717935D01*
X158869200Y-77206065D01*
X159056000Y-77657039D01*
X159401161Y-78002200D01*
X159852135Y-78189000D01*
X160340265Y-78189000D01*
X160791239Y-78002200D01*
X161136400Y-77657039D01*
X161215000Y-77467282D01*
X161215000Y-78996718D01*
X161136400Y-78806961D01*
X160791239Y-78461800D01*
X160340265Y-78275000D01*
X159852135Y-78275000D01*
X159401161Y-78461800D01*
X159056000Y-78806961D01*
X158869200Y-79257935D01*
X158869200Y-79746065D01*
X159056000Y-80197039D01*
X159401161Y-80542200D01*
X159852135Y-80729000D01*
X160340265Y-80729000D01*
X160791239Y-80542200D01*
X161136400Y-80197039D01*
X161215000Y-80007282D01*
X161215000Y-81536718D01*
X161136400Y-81346961D01*
X160791239Y-81001800D01*
X160340265Y-80815000D01*
X159852135Y-80815000D01*
X159401161Y-81001800D01*
X159056000Y-81346961D01*
X158869200Y-81797935D01*
X158869200Y-82286065D01*
X159056000Y-82737039D01*
X159401161Y-83082200D01*
X159852135Y-83269000D01*
X160340265Y-83269000D01*
X160791239Y-83082200D01*
X161136400Y-82737039D01*
X161215000Y-82547282D01*
X161215000Y-84076718D01*
X161136400Y-83886961D01*
X160791239Y-83541800D01*
X160340265Y-83355000D01*
X159852135Y-83355000D01*
X159401161Y-83541800D01*
X159056000Y-83886961D01*
X158869200Y-84337935D01*
X158869200Y-84479975D01*
X156933406Y-82544182D01*
X156933406Y-81550000D01*
X156908027Y-81422411D01*
X156835754Y-81314246D01*
X156727589Y-81241973D01*
X156600000Y-81216594D01*
X155100000Y-81216594D01*
X154972411Y-81241973D01*
X154864246Y-81314246D01*
X154791973Y-81422411D01*
X154766594Y-81550000D01*
X154766594Y-82850000D01*
X154791973Y-82977589D01*
X154864246Y-83085754D01*
X154972411Y-83158027D01*
X155100000Y-83183406D01*
X156294182Y-83183406D01*
X157983775Y-84873000D01*
X157775282Y-84873000D01*
X157544833Y-84968455D01*
X157420141Y-85093147D01*
X156949370Y-85093147D01*
X156904852Y-85084292D01*
X156860335Y-85093147D01*
X156833406Y-85098503D01*
X156833406Y-85050000D01*
X156808027Y-84922411D01*
X156735754Y-84814246D01*
X156627589Y-84741973D01*
X156500000Y-84716594D01*
X155000000Y-84716594D01*
X154872411Y-84741973D01*
X154764246Y-84814246D01*
X154691973Y-84922411D01*
X154666594Y-85050000D01*
X154666594Y-86350000D01*
X154691973Y-86477589D01*
X154764246Y-86585754D01*
X154872411Y-86658027D01*
X155000000Y-86683406D01*
X156500000Y-86683406D01*
X156627589Y-86658027D01*
X156735754Y-86585754D01*
X156808027Y-86477589D01*
X156833406Y-86350000D01*
X156833406Y-86144265D01*
X156926362Y-86125775D01*
X157075874Y-86025874D01*
X157095069Y-85997147D01*
X157510435Y-85997147D01*
X157544833Y-86031545D01*
X157775282Y-86127000D01*
X158024718Y-86127000D01*
X158255167Y-86031545D01*
X158431545Y-85855167D01*
X158527000Y-85624718D01*
X158527000Y-85416225D01*
X159296868Y-86186093D01*
X159056000Y-86426961D01*
X158869200Y-86877935D01*
X158869200Y-87366065D01*
X159056000Y-87817039D01*
X159401161Y-88162200D01*
X159852135Y-88349000D01*
X160340265Y-88349000D01*
X160791239Y-88162200D01*
X161136400Y-87817039D01*
X161215000Y-87627281D01*
X161215000Y-89156719D01*
X161136400Y-88966961D01*
X160791239Y-88621800D01*
X160340265Y-88435000D01*
X159852135Y-88435000D01*
X159609095Y-88535671D01*
X159385293Y-88311869D01*
X159360074Y-88274126D01*
X159210562Y-88174225D01*
X159078718Y-88148000D01*
X159034200Y-88139145D01*
X158989682Y-88148000D01*
X156933406Y-88148000D01*
X156933406Y-87950000D01*
X156908027Y-87822411D01*
X156835754Y-87714246D01*
X156727589Y-87641973D01*
X156600000Y-87616594D01*
X155100000Y-87616594D01*
X154972411Y-87641973D01*
X154864246Y-87714246D01*
X154791973Y-87822411D01*
X154766594Y-87950000D01*
X154766594Y-89250000D01*
X154791973Y-89377589D01*
X154864246Y-89485754D01*
X154972411Y-89558027D01*
X155100000Y-89583406D01*
X156600000Y-89583406D01*
X156727589Y-89558027D01*
X156835754Y-89485754D01*
X156908027Y-89377589D01*
X156933406Y-89250000D01*
X156933406Y-89052000D01*
X158846976Y-89052000D01*
X158969871Y-89174895D01*
X158869200Y-89417935D01*
X158869200Y-89906065D01*
X159056000Y-90357039D01*
X159401161Y-90702200D01*
X159852135Y-90889000D01*
X160340265Y-90889000D01*
X160791239Y-90702200D01*
X161136400Y-90357039D01*
X161215000Y-90167281D01*
X161215001Y-91696719D01*
X161136400Y-91506961D01*
X160791239Y-91161800D01*
X160340265Y-90975000D01*
X159852135Y-90975000D01*
X159609095Y-91075671D01*
X159545293Y-91011869D01*
X159520074Y-90974126D01*
X159370562Y-90874225D01*
X159238718Y-90848000D01*
X159194200Y-90839145D01*
X159149682Y-90848000D01*
X156933406Y-90848000D01*
X156933406Y-90650000D01*
X156908027Y-90522411D01*
X156835754Y-90414246D01*
X156727589Y-90341973D01*
X156600000Y-90316594D01*
X155100000Y-90316594D01*
X154972411Y-90341973D01*
X154864246Y-90414246D01*
X154791973Y-90522411D01*
X154766594Y-90650000D01*
X154766594Y-91950000D01*
X154791973Y-92077589D01*
X154864246Y-92185754D01*
X154972411Y-92258027D01*
X155100000Y-92283406D01*
X156600000Y-92283406D01*
X156727589Y-92258027D01*
X156835754Y-92185754D01*
X156908027Y-92077589D01*
X156933406Y-91950000D01*
X156933406Y-91752000D01*
X158954501Y-91752000D01*
X158869200Y-91957935D01*
X158869200Y-92446065D01*
X159056000Y-92897039D01*
X159401161Y-93242200D01*
X159852135Y-93429000D01*
X160340265Y-93429000D01*
X160791239Y-93242200D01*
X161136400Y-92897039D01*
X161215001Y-92707281D01*
X161215001Y-94236719D01*
X161136400Y-94046961D01*
X160791239Y-93701800D01*
X160340265Y-93515000D01*
X159852135Y-93515000D01*
X159609095Y-93615671D01*
X159605293Y-93611869D01*
X159580074Y-93574126D01*
X159430562Y-93474225D01*
X159298718Y-93448000D01*
X159254200Y-93439145D01*
X159209682Y-93448000D01*
X157033406Y-93448000D01*
X157033406Y-93275000D01*
X157008027Y-93147411D01*
X156935754Y-93039246D01*
X156827589Y-92966973D01*
X156700000Y-92941594D01*
X155200000Y-92941594D01*
X155072411Y-92966973D01*
X154964246Y-93039246D01*
X154891973Y-93147411D01*
X154866594Y-93275000D01*
X154866594Y-94525000D01*
X154891973Y-94652589D01*
X154964246Y-94760754D01*
X155072411Y-94833027D01*
X155200000Y-94858406D01*
X156700000Y-94858406D01*
X156827589Y-94833027D01*
X156935754Y-94760754D01*
X157008027Y-94652589D01*
X157033406Y-94525000D01*
X157033406Y-94352000D01*
X158929648Y-94352000D01*
X158869200Y-94497935D01*
X158869200Y-94986065D01*
X159056000Y-95437039D01*
X159401161Y-95782200D01*
X159852135Y-95969000D01*
X160340265Y-95969000D01*
X160791239Y-95782200D01*
X161136400Y-95437039D01*
X161215001Y-95247281D01*
X161215001Y-107519400D01*
X136205343Y-107519400D01*
X136177842Y-97350000D01*
X145766594Y-97350000D01*
X145766594Y-98850000D01*
X145791973Y-98977589D01*
X145864246Y-99085754D01*
X145972411Y-99158027D01*
X146100000Y-99183406D01*
X146173000Y-99183406D01*
X146173000Y-99543171D01*
X146161696Y-99600000D01*
X146206478Y-99825134D01*
X146301815Y-99967816D01*
X146334006Y-100015994D01*
X146524866Y-100143522D01*
X146750000Y-100188304D01*
X146806829Y-100177000D01*
X147461000Y-100177000D01*
X148198001Y-100914002D01*
X148198000Y-102143172D01*
X148186696Y-102200000D01*
X148198000Y-102256828D01*
X148231478Y-102425133D01*
X148359006Y-102615994D01*
X148407188Y-102648188D01*
X148723001Y-102964001D01*
X148723000Y-103768172D01*
X148711696Y-103825000D01*
X148723000Y-103881828D01*
X148756478Y-104050133D01*
X148884006Y-104240994D01*
X148932188Y-104273188D01*
X149126812Y-104467812D01*
X149159006Y-104515994D01*
X149302982Y-104612195D01*
X149349865Y-104643522D01*
X149575000Y-104688304D01*
X149631829Y-104677000D01*
X149741594Y-104677000D01*
X149741594Y-104850000D01*
X149766973Y-104977589D01*
X149839246Y-105085754D01*
X149947411Y-105158027D01*
X150075000Y-105183406D01*
X150123001Y-105183406D01*
X150123001Y-105360998D01*
X149911000Y-105573000D01*
X149855391Y-105573000D01*
X149588187Y-105683679D01*
X149383679Y-105888187D01*
X149273000Y-106155391D01*
X149273000Y-106444609D01*
X149383679Y-106711813D01*
X149588187Y-106916321D01*
X149855391Y-107027000D01*
X150144609Y-107027000D01*
X150411813Y-106916321D01*
X150616321Y-106711813D01*
X150727000Y-106444609D01*
X150727000Y-106389000D01*
X151067815Y-106048186D01*
X151115994Y-106015994D01*
X151243522Y-105825134D01*
X151277000Y-105656829D01*
X151288304Y-105600001D01*
X151277000Y-105543173D01*
X151277000Y-105183406D01*
X151325000Y-105183406D01*
X151452589Y-105158027D01*
X151560754Y-105085754D01*
X151633027Y-104977589D01*
X151658406Y-104850000D01*
X151658406Y-103980391D01*
X153123000Y-103980391D01*
X153123000Y-104269609D01*
X153233679Y-104536813D01*
X153438187Y-104741321D01*
X153705391Y-104852000D01*
X153994609Y-104852000D01*
X154261813Y-104741321D01*
X154391594Y-104611540D01*
X154391594Y-104650000D01*
X154416973Y-104777589D01*
X154489246Y-104885754D01*
X154597411Y-104958027D01*
X154725000Y-104983406D01*
X155975000Y-104983406D01*
X156102589Y-104958027D01*
X156210754Y-104885754D01*
X156283027Y-104777589D01*
X156308406Y-104650000D01*
X156308406Y-104446849D01*
X156325134Y-104443522D01*
X156515994Y-104315994D01*
X156548188Y-104267812D01*
X158492815Y-102323186D01*
X158540994Y-102290994D01*
X158668522Y-102100134D01*
X158702000Y-101931829D01*
X158702000Y-101931828D01*
X158713304Y-101875001D01*
X158702000Y-101818173D01*
X158702000Y-99233406D01*
X158850000Y-99233406D01*
X158977589Y-99208027D01*
X159085754Y-99135754D01*
X159158027Y-99027589D01*
X159183406Y-98900000D01*
X159183406Y-97600000D01*
X159158027Y-97472411D01*
X159085754Y-97364246D01*
X158977589Y-97291973D01*
X158850000Y-97266594D01*
X157350000Y-97266594D01*
X157222411Y-97291973D01*
X157114246Y-97364246D01*
X157041973Y-97472411D01*
X157016594Y-97600000D01*
X157016594Y-98900000D01*
X157041973Y-99027589D01*
X157114246Y-99135754D01*
X157222411Y-99208027D01*
X157350000Y-99233406D01*
X157548001Y-99233406D01*
X157548000Y-101635999D01*
X156234386Y-102949614D01*
X156210754Y-102914246D01*
X156102589Y-102841973D01*
X155975000Y-102816594D01*
X154725000Y-102816594D01*
X154597411Y-102841973D01*
X154489246Y-102914246D01*
X154416973Y-103022411D01*
X154391594Y-103150000D01*
X154391594Y-103323000D01*
X154131827Y-103323000D01*
X154074999Y-103311696D01*
X154018172Y-103323000D01*
X154018171Y-103323000D01*
X153849866Y-103356478D01*
X153787724Y-103398000D01*
X153705391Y-103398000D01*
X153438187Y-103508679D01*
X153233679Y-103713187D01*
X153123000Y-103980391D01*
X151658406Y-103980391D01*
X151658406Y-103350000D01*
X151633027Y-103222411D01*
X151560754Y-103114246D01*
X151452589Y-103041973D01*
X151325000Y-103016594D01*
X150075000Y-103016594D01*
X149947411Y-103041973D01*
X149877000Y-103089020D01*
X149877000Y-102955305D01*
X149948690Y-102985000D01*
X150414250Y-102985000D01*
X150573000Y-102826250D01*
X150573000Y-101727000D01*
X150827000Y-101727000D01*
X150827000Y-102826250D01*
X150985750Y-102985000D01*
X151451310Y-102985000D01*
X151684699Y-102888327D01*
X151863327Y-102709698D01*
X151960000Y-102476309D01*
X151960000Y-101885750D01*
X151801250Y-101727000D01*
X150827000Y-101727000D01*
X150573000Y-101727000D01*
X149598750Y-101727000D01*
X149440000Y-101885750D01*
X149440000Y-102049000D01*
X149352000Y-101961000D01*
X149352000Y-101685750D01*
X154090000Y-101685750D01*
X154090000Y-102276309D01*
X154186673Y-102509698D01*
X154365301Y-102688327D01*
X154598690Y-102785000D01*
X155064250Y-102785000D01*
X155223000Y-102626250D01*
X155223000Y-101527000D01*
X155477000Y-101527000D01*
X155477000Y-102626250D01*
X155635750Y-102785000D01*
X156101310Y-102785000D01*
X156334699Y-102688327D01*
X156513327Y-102509698D01*
X156610000Y-102276309D01*
X156610000Y-101685750D01*
X156451250Y-101527000D01*
X155477000Y-101527000D01*
X155223000Y-101527000D01*
X154248750Y-101527000D01*
X154090000Y-101685750D01*
X149352000Y-101685750D01*
X149352000Y-100731829D01*
X149353618Y-100723691D01*
X149440000Y-100723691D01*
X149440000Y-101314250D01*
X149598750Y-101473000D01*
X150573000Y-101473000D01*
X150573000Y-100373750D01*
X150827000Y-100373750D01*
X150827000Y-101473000D01*
X151801250Y-101473000D01*
X151960000Y-101314250D01*
X151960000Y-100723691D01*
X151877158Y-100523691D01*
X154090000Y-100523691D01*
X154090000Y-101114250D01*
X154248750Y-101273000D01*
X155223000Y-101273000D01*
X155223000Y-100173750D01*
X155477000Y-100173750D01*
X155477000Y-101273000D01*
X156451250Y-101273000D01*
X156610000Y-101114250D01*
X156610000Y-100523691D01*
X156513327Y-100290302D01*
X156334699Y-100111673D01*
X156101310Y-100015000D01*
X155635750Y-100015000D01*
X155477000Y-100173750D01*
X155223000Y-100173750D01*
X155064250Y-100015000D01*
X154598690Y-100015000D01*
X154365301Y-100111673D01*
X154186673Y-100290302D01*
X154090000Y-100523691D01*
X151877158Y-100523691D01*
X151863327Y-100490302D01*
X151684699Y-100311673D01*
X151451310Y-100215000D01*
X150985750Y-100215000D01*
X150827000Y-100373750D01*
X150573000Y-100373750D01*
X150414250Y-100215000D01*
X149948690Y-100215000D01*
X149715301Y-100311673D01*
X149536673Y-100490302D01*
X149440000Y-100723691D01*
X149353618Y-100723691D01*
X149363304Y-100675000D01*
X149318522Y-100449865D01*
X149223185Y-100307183D01*
X149223184Y-100307182D01*
X149190994Y-100259006D01*
X149142817Y-100226816D01*
X148148188Y-99232188D01*
X148115994Y-99184006D01*
X147925134Y-99056478D01*
X147756829Y-99023000D01*
X147756828Y-99023000D01*
X147700000Y-99011696D01*
X147682975Y-99015083D01*
X147708027Y-98977589D01*
X147733406Y-98850000D01*
X147733406Y-98535750D01*
X148490000Y-98535750D01*
X148490000Y-99001310D01*
X148586673Y-99234699D01*
X148765302Y-99413327D01*
X148998691Y-99510000D01*
X149589250Y-99510000D01*
X149748000Y-99351250D01*
X149748000Y-98377000D01*
X150002000Y-98377000D01*
X150002000Y-99351250D01*
X150160750Y-99510000D01*
X150751309Y-99510000D01*
X150984698Y-99413327D01*
X151163327Y-99234699D01*
X151260000Y-99001310D01*
X151260000Y-98535750D01*
X151101250Y-98377000D01*
X150002000Y-98377000D01*
X149748000Y-98377000D01*
X148648750Y-98377000D01*
X148490000Y-98535750D01*
X147733406Y-98535750D01*
X147733406Y-97498690D01*
X148490000Y-97498690D01*
X148490000Y-97964250D01*
X148648750Y-98123000D01*
X149748000Y-98123000D01*
X149748000Y-97148750D01*
X150002000Y-97148750D01*
X150002000Y-98123000D01*
X151101250Y-98123000D01*
X151260000Y-97964250D01*
X151260000Y-97826001D01*
X151291594Y-97857595D01*
X151291594Y-98875000D01*
X151316973Y-99002589D01*
X151389246Y-99110754D01*
X151497411Y-99183027D01*
X151625000Y-99208406D01*
X153125000Y-99208406D01*
X153252589Y-99183027D01*
X153360754Y-99110754D01*
X153433027Y-99002589D01*
X153458406Y-98875000D01*
X153458406Y-98827000D01*
X154316594Y-98827000D01*
X154316594Y-98900000D01*
X154341973Y-99027589D01*
X154414246Y-99135754D01*
X154522411Y-99208027D01*
X154650000Y-99233406D01*
X156150000Y-99233406D01*
X156277589Y-99208027D01*
X156385754Y-99135754D01*
X156458027Y-99027589D01*
X156483406Y-98900000D01*
X156483406Y-97600000D01*
X156458027Y-97472411D01*
X156385754Y-97364246D01*
X156277589Y-97291973D01*
X156150000Y-97266594D01*
X154650000Y-97266594D01*
X154522411Y-97291973D01*
X154414246Y-97364246D01*
X154341973Y-97472411D01*
X154316594Y-97600000D01*
X154316594Y-97673000D01*
X153458406Y-97673000D01*
X153458406Y-97625000D01*
X153433027Y-97497411D01*
X153360754Y-97389246D01*
X153252589Y-97316973D01*
X153125000Y-97291594D01*
X152357595Y-97291594D01*
X151877000Y-96810999D01*
X151877000Y-96755391D01*
X151766321Y-96488187D01*
X151561813Y-96283679D01*
X151294609Y-96173000D01*
X151005391Y-96173000D01*
X150738187Y-96283679D01*
X150533679Y-96488187D01*
X150423000Y-96755391D01*
X150423000Y-96990000D01*
X150160750Y-96990000D01*
X150002000Y-97148750D01*
X149748000Y-97148750D01*
X149589250Y-96990000D01*
X148998691Y-96990000D01*
X148765302Y-97086673D01*
X148586673Y-97265301D01*
X148490000Y-97498690D01*
X147733406Y-97498690D01*
X147733406Y-97350000D01*
X147708027Y-97222411D01*
X147635754Y-97114246D01*
X147527589Y-97041973D01*
X147400000Y-97016594D01*
X146100000Y-97016594D01*
X145972411Y-97041973D01*
X145864246Y-97114246D01*
X145791973Y-97222411D01*
X145766594Y-97350000D01*
X136177842Y-97350000D01*
X136172515Y-95380342D01*
X136196000Y-95437039D01*
X136541161Y-95782200D01*
X136992135Y-95969000D01*
X137480265Y-95969000D01*
X137931239Y-95782200D01*
X138276400Y-95437039D01*
X138463200Y-94986065D01*
X138463200Y-94497935D01*
X138414306Y-94379894D01*
X139960795Y-92833406D01*
X140875000Y-92833406D01*
X141002589Y-92808027D01*
X141110754Y-92735754D01*
X141183027Y-92627589D01*
X141208406Y-92500000D01*
X141208406Y-92327000D01*
X141318172Y-92327000D01*
X141375000Y-92338304D01*
X141431828Y-92327000D01*
X141431829Y-92327000D01*
X141600134Y-92293522D01*
X141790994Y-92165994D01*
X141823188Y-92117812D01*
X142114001Y-91827000D01*
X145121002Y-91827000D01*
X145872775Y-92578775D01*
X145907876Y-92615379D01*
X145912868Y-92618868D01*
X145917185Y-92623185D01*
X145959444Y-92651422D01*
X146173000Y-92800682D01*
X146173000Y-93133170D01*
X146173001Y-94316594D01*
X146100000Y-94316594D01*
X145972411Y-94341973D01*
X145864246Y-94414246D01*
X145791973Y-94522411D01*
X145766594Y-94650000D01*
X145766594Y-96150000D01*
X145791973Y-96277589D01*
X145864246Y-96385754D01*
X145972411Y-96458027D01*
X146100000Y-96483406D01*
X147400000Y-96483406D01*
X147527589Y-96458027D01*
X147635754Y-96385754D01*
X147708027Y-96277589D01*
X147733406Y-96150000D01*
X147733406Y-94650000D01*
X147708027Y-94522411D01*
X147635754Y-94414246D01*
X147527589Y-94341973D01*
X147400000Y-94316594D01*
X147327000Y-94316594D01*
X147327000Y-94185750D01*
X152065000Y-94185750D01*
X152065000Y-94651310D01*
X152161673Y-94884699D01*
X152340302Y-95063327D01*
X152573691Y-95160000D01*
X153164250Y-95160000D01*
X153323000Y-95001250D01*
X153323000Y-94027000D01*
X153577000Y-94027000D01*
X153577000Y-95001250D01*
X153735750Y-95160000D01*
X154326309Y-95160000D01*
X154559698Y-95063327D01*
X154738327Y-94884699D01*
X154835000Y-94651310D01*
X154835000Y-94185750D01*
X154676250Y-94027000D01*
X153577000Y-94027000D01*
X153323000Y-94027000D01*
X152223750Y-94027000D01*
X152065000Y-94185750D01*
X147327000Y-94185750D01*
X147327000Y-93148690D01*
X152065000Y-93148690D01*
X152065000Y-93614250D01*
X152223750Y-93773000D01*
X153323000Y-93773000D01*
X153323000Y-92798750D01*
X153577000Y-92798750D01*
X153577000Y-93773000D01*
X154676250Y-93773000D01*
X154835000Y-93614250D01*
X154835000Y-93148690D01*
X154738327Y-92915301D01*
X154559698Y-92736673D01*
X154326309Y-92640000D01*
X153735750Y-92640000D01*
X153577000Y-92798750D01*
X153323000Y-92798750D01*
X153164250Y-92640000D01*
X152573691Y-92640000D01*
X152340302Y-92736673D01*
X152161673Y-92915301D01*
X152065000Y-93148690D01*
X147327000Y-93148690D01*
X147327000Y-92506057D01*
X147329279Y-92397344D01*
X147306015Y-92337675D01*
X147293522Y-92274866D01*
X147264725Y-92231768D01*
X147245898Y-92183478D01*
X147201576Y-92137258D01*
X147165994Y-92084006D01*
X147075564Y-92023583D01*
X146657137Y-91731133D01*
X145808190Y-90882188D01*
X145775996Y-90834006D01*
X145585136Y-90706478D01*
X145416831Y-90673000D01*
X145416830Y-90673000D01*
X145360002Y-90661696D01*
X145303174Y-90673000D01*
X141931829Y-90673000D01*
X141875000Y-90661696D01*
X141649865Y-90706478D01*
X141580037Y-90753136D01*
X141459006Y-90834006D01*
X141426814Y-90882186D01*
X141208406Y-91100594D01*
X141208406Y-91000000D01*
X141183027Y-90872411D01*
X141110754Y-90764246D01*
X141002589Y-90691973D01*
X140875000Y-90666594D01*
X139625000Y-90666594D01*
X139497411Y-90691973D01*
X139389246Y-90764246D01*
X139316973Y-90872411D01*
X139291594Y-91000000D01*
X139291594Y-91859896D01*
X139270030Y-91892169D01*
X138780114Y-92382085D01*
X138757039Y-91832540D01*
X138572843Y-91387852D01*
X138316359Y-91301446D01*
X137415805Y-92202000D01*
X137429948Y-92216143D01*
X137250343Y-92395748D01*
X137236200Y-92381605D01*
X137222058Y-92395748D01*
X137042453Y-92216143D01*
X137056595Y-92202000D01*
X137042453Y-92187858D01*
X137222058Y-92008253D01*
X137236200Y-92022395D01*
X138136754Y-91121841D01*
X138050348Y-90865357D01*
X137777946Y-90765696D01*
X137931239Y-90702200D01*
X138276400Y-90357039D01*
X138463200Y-89906065D01*
X138463200Y-89535750D01*
X138990000Y-89535750D01*
X138990000Y-90126309D01*
X139086673Y-90359698D01*
X139265301Y-90538327D01*
X139498690Y-90635000D01*
X139964250Y-90635000D01*
X140123000Y-90476250D01*
X140123000Y-89377000D01*
X140377000Y-89377000D01*
X140377000Y-90476250D01*
X140535750Y-90635000D01*
X141001310Y-90635000D01*
X141234699Y-90538327D01*
X141413327Y-90359698D01*
X141510000Y-90126309D01*
X141510000Y-89535750D01*
X141351250Y-89377000D01*
X140377000Y-89377000D01*
X140123000Y-89377000D01*
X139148750Y-89377000D01*
X138990000Y-89535750D01*
X138463200Y-89535750D01*
X138463200Y-89417935D01*
X138276400Y-88966961D01*
X137931239Y-88621800D01*
X137480265Y-88435000D01*
X136992135Y-88435000D01*
X136541161Y-88621800D01*
X136196000Y-88966961D01*
X136155436Y-89064890D01*
X136153567Y-88373691D01*
X138990000Y-88373691D01*
X138990000Y-88964250D01*
X139148750Y-89123000D01*
X140123000Y-89123000D01*
X140123000Y-88023750D01*
X140377000Y-88023750D01*
X140377000Y-89123000D01*
X141351250Y-89123000D01*
X141510000Y-88964250D01*
X141510000Y-88373691D01*
X141413327Y-88140302D01*
X141234699Y-87961673D01*
X141001310Y-87865000D01*
X140535750Y-87865000D01*
X140377000Y-88023750D01*
X140123000Y-88023750D01*
X139964250Y-87865000D01*
X139498690Y-87865000D01*
X139265301Y-87961673D01*
X139086673Y-88140302D01*
X138990000Y-88373691D01*
X136153567Y-88373691D01*
X136151773Y-87710266D01*
X136196000Y-87817039D01*
X136541161Y-88162200D01*
X136992135Y-88349000D01*
X137480265Y-88349000D01*
X137931239Y-88162200D01*
X138276400Y-87817039D01*
X138463200Y-87366065D01*
X138463200Y-86877935D01*
X138276400Y-86426961D01*
X137931239Y-86081800D01*
X137480265Y-85895000D01*
X136992135Y-85895000D01*
X136541161Y-86081800D01*
X136196000Y-86426961D01*
X136148612Y-86541365D01*
X136144859Y-85153574D01*
X136196000Y-85277039D01*
X136541161Y-85622200D01*
X136992135Y-85809000D01*
X137480265Y-85809000D01*
X137931239Y-85622200D01*
X138276400Y-85277039D01*
X138328193Y-85152000D01*
X142366594Y-85152000D01*
X142366594Y-85350000D01*
X142391973Y-85477589D01*
X142464246Y-85585754D01*
X142572411Y-85658027D01*
X142700000Y-85683406D01*
X144200000Y-85683406D01*
X144327589Y-85658027D01*
X144435754Y-85585754D01*
X144508027Y-85477589D01*
X144533406Y-85350000D01*
X144533406Y-84050000D01*
X145066594Y-84050000D01*
X145066594Y-85350000D01*
X145091973Y-85477589D01*
X145164246Y-85585754D01*
X145272411Y-85658027D01*
X145400000Y-85683406D01*
X145705735Y-85683406D01*
X145724225Y-85776361D01*
X145787475Y-85871021D01*
X145824127Y-85925874D01*
X145861867Y-85951091D01*
X149491346Y-89580570D01*
X149491347Y-90421941D01*
X149368455Y-90544833D01*
X149273000Y-90775282D01*
X149273000Y-91024718D01*
X149368455Y-91255167D01*
X149544833Y-91431545D01*
X149775282Y-91527000D01*
X150024718Y-91527000D01*
X150255167Y-91431545D01*
X150431545Y-91255167D01*
X150527000Y-91024718D01*
X150527000Y-90775282D01*
X150431545Y-90544833D01*
X150395346Y-90508634D01*
X150395346Y-89437862D01*
X150404201Y-89393345D01*
X150395346Y-89348828D01*
X150369121Y-89216984D01*
X150269220Y-89067472D01*
X150231477Y-89042253D01*
X146872630Y-85683406D01*
X146900000Y-85683406D01*
X147027589Y-85658027D01*
X147135754Y-85585754D01*
X147208027Y-85477589D01*
X147233406Y-85350000D01*
X147233406Y-84050000D01*
X147208027Y-83922411D01*
X147135754Y-83814246D01*
X147027589Y-83741973D01*
X146900000Y-83716594D01*
X145400000Y-83716594D01*
X145272411Y-83741973D01*
X145164246Y-83814246D01*
X145091973Y-83922411D01*
X145066594Y-84050000D01*
X144533406Y-84050000D01*
X144508027Y-83922411D01*
X144435754Y-83814246D01*
X144327589Y-83741973D01*
X144200000Y-83716594D01*
X142700000Y-83716594D01*
X142572411Y-83741973D01*
X142464246Y-83814246D01*
X142391973Y-83922411D01*
X142366594Y-84050000D01*
X142366594Y-84248000D01*
X138425948Y-84248000D01*
X138276400Y-83886961D01*
X137931239Y-83541800D01*
X137480265Y-83355000D01*
X136992135Y-83355000D01*
X136541161Y-83541800D01*
X136196000Y-83886961D01*
X136141788Y-84017840D01*
X136137945Y-82596883D01*
X136196000Y-82737039D01*
X136541161Y-83082200D01*
X136992135Y-83269000D01*
X137480265Y-83269000D01*
X137931239Y-83082200D01*
X138276400Y-82737039D01*
X138394467Y-82452000D01*
X142266594Y-82452000D01*
X142266594Y-82650000D01*
X142291973Y-82777589D01*
X142364246Y-82885754D01*
X142472411Y-82958027D01*
X142600000Y-82983406D01*
X144100000Y-82983406D01*
X144227589Y-82958027D01*
X144335754Y-82885754D01*
X144408027Y-82777589D01*
X144433406Y-82650000D01*
X144433406Y-81350000D01*
X144966594Y-81350000D01*
X144966594Y-82650000D01*
X144991973Y-82777589D01*
X145064246Y-82885754D01*
X145172411Y-82958027D01*
X145300000Y-82983406D01*
X146800000Y-82983406D01*
X146927589Y-82958027D01*
X147035754Y-82885754D01*
X147108027Y-82777589D01*
X147133406Y-82650000D01*
X147133406Y-81350000D01*
X147108027Y-81222411D01*
X147035754Y-81114246D01*
X146927589Y-81041973D01*
X146800000Y-81016594D01*
X146504210Y-81016594D01*
X146475775Y-80873638D01*
X146429618Y-80804560D01*
X146375874Y-80724126D01*
X146338133Y-80698908D01*
X146221409Y-80582184D01*
X146221409Y-80475282D01*
X147373000Y-80475282D01*
X147373000Y-80724718D01*
X147468455Y-80955167D01*
X147594205Y-81080917D01*
X147594206Y-85501682D01*
X147585350Y-85546205D01*
X147620430Y-85722566D01*
X147620431Y-85722567D01*
X147720332Y-85872079D01*
X147758072Y-85897296D01*
X150798000Y-88937225D01*
X150798001Y-89455478D01*
X150789145Y-89500000D01*
X150824225Y-89676361D01*
X150898909Y-89788133D01*
X150924127Y-89825874D01*
X150961867Y-89851091D01*
X152066594Y-90955818D01*
X152066594Y-91950000D01*
X152091973Y-92077589D01*
X152164246Y-92185754D01*
X152272411Y-92258027D01*
X152400000Y-92283406D01*
X153900000Y-92283406D01*
X154027589Y-92258027D01*
X154135754Y-92185754D01*
X154208027Y-92077589D01*
X154233406Y-91950000D01*
X154233406Y-90650000D01*
X154208027Y-90522411D01*
X154135754Y-90414246D01*
X154027589Y-90341973D01*
X153900000Y-90316594D01*
X152705818Y-90316594D01*
X151702000Y-89312776D01*
X151702000Y-88794516D01*
X151710855Y-88749999D01*
X151702000Y-88705482D01*
X151675775Y-88573638D01*
X151575874Y-88424126D01*
X151538134Y-88398909D01*
X148498205Y-85358981D01*
X148498205Y-80988507D01*
X148531545Y-80955167D01*
X148549434Y-80911979D01*
X149043978Y-80911979D01*
X149043978Y-81161415D01*
X149139433Y-81391864D01*
X149312716Y-81565147D01*
X149312715Y-83370197D01*
X149303860Y-83414715D01*
X149312715Y-83459232D01*
X149338940Y-83591076D01*
X149438841Y-83740589D01*
X149476584Y-83765808D01*
X150840635Y-85129859D01*
X150690619Y-85191998D01*
X150514241Y-85368376D01*
X150418786Y-85598825D01*
X150418786Y-85848261D01*
X150514241Y-86078710D01*
X150531296Y-86095765D01*
X150531295Y-86488777D01*
X150522440Y-86533295D01*
X150550044Y-86672073D01*
X150557520Y-86709656D01*
X150657421Y-86859169D01*
X150695164Y-86884388D01*
X152066594Y-88255819D01*
X152066594Y-89250000D01*
X152091973Y-89377589D01*
X152164246Y-89485754D01*
X152272411Y-89558027D01*
X152400000Y-89583406D01*
X153900000Y-89583406D01*
X154027589Y-89558027D01*
X154135754Y-89485754D01*
X154208027Y-89377589D01*
X154233406Y-89250000D01*
X154233406Y-87950000D01*
X154208027Y-87822411D01*
X154135754Y-87714246D01*
X154027589Y-87641973D01*
X153900000Y-87616594D01*
X152705819Y-87616594D01*
X151435295Y-86346071D01*
X151435295Y-86220746D01*
X151577331Y-86078710D01*
X151639469Y-85928694D01*
X151698909Y-85988134D01*
X151724126Y-86025874D01*
X151807825Y-86081800D01*
X151873638Y-86125775D01*
X151966594Y-86144265D01*
X151966594Y-86350000D01*
X151991973Y-86477589D01*
X152064246Y-86585754D01*
X152172411Y-86658027D01*
X152300000Y-86683406D01*
X153800000Y-86683406D01*
X153927589Y-86658027D01*
X154035754Y-86585754D01*
X154108027Y-86477589D01*
X154133406Y-86350000D01*
X154133406Y-85050000D01*
X154108027Y-84922411D01*
X154035754Y-84814246D01*
X153927589Y-84741973D01*
X153800000Y-84716594D01*
X152300000Y-84716594D01*
X152172411Y-84741973D01*
X152064246Y-84814246D01*
X151991973Y-84922411D01*
X151978644Y-84989419D01*
X150216715Y-83227491D01*
X150216715Y-81550000D01*
X152066594Y-81550000D01*
X152066594Y-82850000D01*
X152091973Y-82977589D01*
X152164246Y-83085754D01*
X152272411Y-83158027D01*
X152400000Y-83183406D01*
X153900000Y-83183406D01*
X154027589Y-83158027D01*
X154135754Y-83085754D01*
X154208027Y-82977589D01*
X154233406Y-82850000D01*
X154233406Y-81550000D01*
X154208027Y-81422411D01*
X154135754Y-81314246D01*
X154027589Y-81241973D01*
X153900000Y-81216594D01*
X153594265Y-81216594D01*
X153575775Y-81123638D01*
X153559998Y-81100026D01*
X153559998Y-80826714D01*
X153631545Y-80755167D01*
X153727000Y-80524718D01*
X153727000Y-80275282D01*
X153631545Y-80044833D01*
X153455167Y-79868455D01*
X153224718Y-79773000D01*
X152975282Y-79773000D01*
X152744833Y-79868455D01*
X152568455Y-80044833D01*
X152473000Y-80275282D01*
X152473000Y-80524718D01*
X152568455Y-80755167D01*
X152655998Y-80842710D01*
X152655998Y-81213480D01*
X152655379Y-81216594D01*
X152400000Y-81216594D01*
X152272411Y-81241973D01*
X152164246Y-81314246D01*
X152091973Y-81422411D01*
X152066594Y-81550000D01*
X150216715Y-81550000D01*
X150216715Y-81357601D01*
X150297978Y-81161415D01*
X150297978Y-80911979D01*
X150202523Y-80681530D01*
X150026145Y-80505152D01*
X149795696Y-80409697D01*
X149546260Y-80409697D01*
X149315811Y-80505152D01*
X149139433Y-80681530D01*
X149043978Y-80911979D01*
X148549434Y-80911979D01*
X148627000Y-80724718D01*
X148627000Y-80475282D01*
X148531545Y-80244833D01*
X148355167Y-80068455D01*
X148124718Y-79973000D01*
X147875282Y-79973000D01*
X147644833Y-80068455D01*
X147468455Y-80244833D01*
X147373000Y-80475282D01*
X146221409Y-80475282D01*
X146221409Y-80374883D01*
X146125954Y-80144434D01*
X145949576Y-79968056D01*
X145719127Y-79872601D01*
X145469691Y-79872601D01*
X145239242Y-79968056D01*
X145062864Y-80144434D01*
X144967409Y-80374883D01*
X144967409Y-80624319D01*
X145062864Y-80854768D01*
X145237185Y-81029089D01*
X145172411Y-81041973D01*
X145064246Y-81114246D01*
X144991973Y-81222411D01*
X144966594Y-81350000D01*
X144433406Y-81350000D01*
X144408027Y-81222411D01*
X144335754Y-81114246D01*
X144227589Y-81041973D01*
X144100000Y-81016594D01*
X142600000Y-81016594D01*
X142472411Y-81041973D01*
X142364246Y-81114246D01*
X142291973Y-81222411D01*
X142266594Y-81350000D01*
X142266594Y-81548000D01*
X138359673Y-81548000D01*
X138276400Y-81346961D01*
X137931239Y-81001800D01*
X137480265Y-80815000D01*
X136992135Y-80815000D01*
X136541161Y-81001800D01*
X136196000Y-81346961D01*
X136134963Y-81494316D01*
X136131031Y-80040191D01*
X136196000Y-80197039D01*
X136541161Y-80542200D01*
X136992135Y-80729000D01*
X137480265Y-80729000D01*
X137931239Y-80542200D01*
X138276400Y-80197039D01*
X138463200Y-79746065D01*
X138463200Y-79257935D01*
X138276400Y-78806961D01*
X137931239Y-78461800D01*
X137480265Y-78275000D01*
X136992135Y-78275000D01*
X136541161Y-78461800D01*
X136196000Y-78806961D01*
X136128139Y-78970791D01*
X136124117Y-77483499D01*
X136196000Y-77657039D01*
X136541161Y-78002200D01*
X136992135Y-78189000D01*
X137480265Y-78189000D01*
X137931239Y-78002200D01*
X138276400Y-77657039D01*
X138463200Y-77206065D01*
X138463200Y-76717935D01*
X138276400Y-76266961D01*
X137931239Y-75921800D01*
X137480265Y-75735000D01*
X136992135Y-75735000D01*
X136541161Y-75921800D01*
X136196000Y-76266961D01*
X136121315Y-76447267D01*
X136118359Y-75354400D01*
X161215000Y-75354400D01*
X161215000Y-76456718D01*
%TD*%
M02*
