%TF.GenerationSoftware,KiCad,Pcbnew,5.0.0-rc2-dev-unknown-f2bb398~62~ubuntu17.10.1*%
%TF.CreationDate,2018-03-07T22:53:53-08:00*%
%TF.ProjectId,lora_nodemcu,6C6F72615F6E6F64656D63752E6B6963,rev?*%
%TF.SameCoordinates,Original*%
%TF.FileFunction,Copper,L3,Inr,Plane*%
%TF.FilePolarity,Positive*%
%FSLAX46Y46*%
G04 Gerber Fmt 4.6, Leading zero omitted, Abs format (unit mm)*
G04 Created by KiCad (PCBNEW 5.0.0-rc2-dev-unknown-f2bb398~62~ubuntu17.10.1) date Wed Mar  7 22:53:53 2018*
%MOMM*%
%LPD*%
G01*
G04 APERTURE LIST*
%TA.AperFunction,ViaPad*%
%ADD10C,1.800000*%
%TD*%
%TA.AperFunction,ViaPad*%
%ADD11C,0.970000*%
%TD*%
%TA.AperFunction,ViaPad*%
%ADD12C,0.600000*%
%TD*%
%TA.AperFunction,ViaPad*%
%ADD13C,0.800000*%
%TD*%
%TA.AperFunction,Conductor*%
%ADD14C,0.254000*%
%TD*%
G04 APERTURE END LIST*
D10*
%TO.N,Net-(U3-Pad8)*%
%TO.C,U3*%
X137236200Y-76962000D03*
%TO.N,Net-(U3-Pad7)*%
X137236200Y-79502000D03*
%TO.N,Net-(R2-Pad1)*%
X137236200Y-82042000D03*
%TO.N,Net-(R1-Pad1)*%
X137236200Y-84582000D03*
%TO.N,Net-(U3-Pad4)*%
X137236200Y-87122000D03*
%TO.N,Net-(U3-Pad3)*%
X137236200Y-89662000D03*
%TO.N,GND*%
X137236200Y-92202000D03*
%TO.N,/wemos_5V*%
X137236200Y-94742000D03*
%TO.N,Net-(C5-Pad2)*%
X160096200Y-94742000D03*
%TO.N,/SS*%
X160096200Y-92202000D03*
%TO.N,/MOSI*%
X160096200Y-89662000D03*
%TO.N,/MISO*%
X160096200Y-87122000D03*
%TO.N,/SCK*%
X160096200Y-84582000D03*
%TO.N,Net-(U3-Pad11)*%
X160096200Y-82042000D03*
%TO.N,Net-(U3-Pad10)*%
X160096200Y-79502000D03*
%TO.N,Net-(U3-Pad9)*%
X160096200Y-76962000D03*
%TD*%
D11*
%TO.N,GND*%
%TO.C,AE1*%
X137620000Y-101580000D03*
X146380000Y-101580000D03*
%TD*%
D12*
%TO.N,Net-(R1-Pad2)*%
X149900000Y-90900000D03*
%TO.N,Net-(R2-Pad2)*%
X145594409Y-80499601D03*
X145594409Y-80499601D03*
%TO.N,/SS*%
X160096200Y-92202000D03*
%TO.N,Net-(R3-Pad2)*%
X148000000Y-80600000D03*
%TO.N,/SCK*%
X157900000Y-85500000D03*
%TO.N,Net-(R4-Pad2)*%
X149670978Y-81036697D03*
%TO.N,Net-(R5-Pad2)*%
X153100000Y-80400000D03*
%TO.N,Net-(R6-Pad2)*%
X151045786Y-85723543D03*
D13*
%TO.N,GND*%
X144700000Y-88400000D03*
X138950000Y-76450000D03*
X157950000Y-76450000D03*
X160250000Y-106450000D03*
X148650000Y-106550000D03*
X150000000Y-99750000D03*
X143500000Y-92100000D03*
D12*
X144000000Y-98750000D03*
X139000000Y-97500000D03*
X139000000Y-96000000D03*
X139000000Y-100500000D03*
X144000000Y-100000000D03*
X139000000Y-99000000D03*
D13*
X143500000Y-97000000D03*
X155500000Y-80500000D03*
X141500000Y-80750000D03*
X153750000Y-101500000D03*
X148400000Y-97475000D03*
X151800000Y-99775000D03*
X153025000Y-100050000D03*
X145304999Y-101095001D03*
X137600000Y-100000000D03*
%TO.N,+3V3*%
X153850000Y-104125000D03*
%TO.N,+5V*%
X150000000Y-106300000D03*
%TO.N,/RF95_3V3*%
X151150000Y-96900000D03*
%TD*%
D14*
%TO.N,GND*%
G36*
X161113400Y-76167593D02*
X160821828Y-75876021D01*
X160351007Y-75681000D01*
X159841393Y-75681000D01*
X159370572Y-75876021D01*
X159010221Y-76236372D01*
X158815200Y-76707193D01*
X158815200Y-77216807D01*
X159010221Y-77687628D01*
X159370572Y-78047979D01*
X159814837Y-78232000D01*
X159370572Y-78416021D01*
X159010221Y-78776372D01*
X158815200Y-79247193D01*
X158815200Y-79756807D01*
X159010221Y-80227628D01*
X159370572Y-80587979D01*
X159814837Y-80772000D01*
X159370572Y-80956021D01*
X159010221Y-81316372D01*
X158815200Y-81787193D01*
X158815200Y-82296807D01*
X159010221Y-82767628D01*
X159370572Y-83127979D01*
X159814837Y-83312000D01*
X159370572Y-83496021D01*
X159010221Y-83856372D01*
X158815200Y-84327193D01*
X158815200Y-84836807D01*
X159010221Y-85307628D01*
X159370572Y-85667979D01*
X159814837Y-85852000D01*
X159370572Y-86036021D01*
X159010221Y-86396372D01*
X158815200Y-86867193D01*
X158815200Y-87376807D01*
X159010221Y-87847628D01*
X159370572Y-88207979D01*
X159814837Y-88392000D01*
X159370572Y-88576021D01*
X159010221Y-88936372D01*
X158815200Y-89407193D01*
X158815200Y-89916807D01*
X159010221Y-90387628D01*
X159370572Y-90747979D01*
X159814837Y-90932000D01*
X159370572Y-91116021D01*
X159010221Y-91476372D01*
X158815200Y-91947193D01*
X158815200Y-92456807D01*
X159010221Y-92927628D01*
X159370572Y-93287979D01*
X159814837Y-93472000D01*
X159370572Y-93656021D01*
X159010221Y-94016372D01*
X158815200Y-94487193D01*
X158815200Y-94996807D01*
X159010221Y-95467628D01*
X159370572Y-95827979D01*
X159841393Y-96023000D01*
X160351007Y-96023000D01*
X160821828Y-95827979D01*
X161113401Y-95536406D01*
X161113401Y-107417800D01*
X136306668Y-107417800D01*
X136303226Y-106144649D01*
X149219000Y-106144649D01*
X149219000Y-106455351D01*
X149337900Y-106742401D01*
X149557599Y-106962100D01*
X149844649Y-107081000D01*
X150155351Y-107081000D01*
X150442401Y-106962100D01*
X150662100Y-106742401D01*
X150781000Y-106455351D01*
X150781000Y-106144649D01*
X150662100Y-105857599D01*
X150442401Y-105637900D01*
X150155351Y-105519000D01*
X149844649Y-105519000D01*
X149557599Y-105637900D01*
X149337900Y-105857599D01*
X149219000Y-106144649D01*
X136303226Y-106144649D01*
X136297345Y-103969649D01*
X153069000Y-103969649D01*
X153069000Y-104280351D01*
X153187900Y-104567401D01*
X153407599Y-104787100D01*
X153694649Y-104906000D01*
X154005351Y-104906000D01*
X154292401Y-104787100D01*
X154512100Y-104567401D01*
X154631000Y-104280351D01*
X154631000Y-103969649D01*
X154512100Y-103682599D01*
X154292401Y-103462900D01*
X154005351Y-103344000D01*
X153694649Y-103344000D01*
X153407599Y-103462900D01*
X153187900Y-103682599D01*
X153069000Y-103969649D01*
X136297345Y-103969649D01*
X136277805Y-96744649D01*
X150369000Y-96744649D01*
X150369000Y-97055351D01*
X150487900Y-97342401D01*
X150707599Y-97562100D01*
X150994649Y-97681000D01*
X151305351Y-97681000D01*
X151592401Y-97562100D01*
X151812100Y-97342401D01*
X151931000Y-97055351D01*
X151931000Y-96744649D01*
X151812100Y-96457599D01*
X151592401Y-96237900D01*
X151305351Y-96119000D01*
X150994649Y-96119000D01*
X150707599Y-96237900D01*
X150487900Y-96457599D01*
X150369000Y-96744649D01*
X136277805Y-96744649D01*
X136274688Y-95592095D01*
X136510572Y-95827979D01*
X136981393Y-96023000D01*
X137491007Y-96023000D01*
X137961828Y-95827979D01*
X138322179Y-95467628D01*
X138517200Y-94996807D01*
X138517200Y-94487193D01*
X138322179Y-94016372D01*
X137961828Y-93656021D01*
X137864400Y-93615665D01*
X138050348Y-93538643D01*
X138136754Y-93282159D01*
X137236200Y-92381605D01*
X137222058Y-92395748D01*
X137042453Y-92216143D01*
X137056595Y-92202000D01*
X137415805Y-92202000D01*
X138316359Y-93102554D01*
X138572843Y-93016148D01*
X138782658Y-92442664D01*
X138757039Y-91832540D01*
X138572843Y-91387852D01*
X138316359Y-91301446D01*
X137415805Y-92202000D01*
X137056595Y-92202000D01*
X137042453Y-92187858D01*
X137222058Y-92008253D01*
X137236200Y-92022395D01*
X138136754Y-91121841D01*
X138050348Y-90865357D01*
X137852874Y-90793109D01*
X137921843Y-90764541D01*
X149219000Y-90764541D01*
X149219000Y-91035459D01*
X149322676Y-91285756D01*
X149514244Y-91477324D01*
X149764541Y-91581000D01*
X150035459Y-91581000D01*
X150285756Y-91477324D01*
X150477324Y-91285756D01*
X150581000Y-91035459D01*
X150581000Y-90764541D01*
X150477324Y-90514244D01*
X150285756Y-90322676D01*
X150035459Y-90219000D01*
X149764541Y-90219000D01*
X149514244Y-90322676D01*
X149322676Y-90514244D01*
X149219000Y-90764541D01*
X137921843Y-90764541D01*
X137961828Y-90747979D01*
X138322179Y-90387628D01*
X138517200Y-89916807D01*
X138517200Y-89407193D01*
X138322179Y-88936372D01*
X137961828Y-88576021D01*
X137517563Y-88392000D01*
X137961828Y-88207979D01*
X138322179Y-87847628D01*
X138517200Y-87376807D01*
X138517200Y-86867193D01*
X138322179Y-86396372D01*
X137961828Y-86036021D01*
X137517563Y-85852000D01*
X137961828Y-85667979D01*
X138041723Y-85588084D01*
X150364786Y-85588084D01*
X150364786Y-85859002D01*
X150468462Y-86109299D01*
X150660030Y-86300867D01*
X150910327Y-86404543D01*
X151181245Y-86404543D01*
X151431542Y-86300867D01*
X151623110Y-86109299D01*
X151726786Y-85859002D01*
X151726786Y-85588084D01*
X151634192Y-85364541D01*
X157219000Y-85364541D01*
X157219000Y-85635459D01*
X157322676Y-85885756D01*
X157514244Y-86077324D01*
X157764541Y-86181000D01*
X158035459Y-86181000D01*
X158285756Y-86077324D01*
X158477324Y-85885756D01*
X158581000Y-85635459D01*
X158581000Y-85364541D01*
X158477324Y-85114244D01*
X158285756Y-84922676D01*
X158035459Y-84819000D01*
X157764541Y-84819000D01*
X157514244Y-84922676D01*
X157322676Y-85114244D01*
X157219000Y-85364541D01*
X151634192Y-85364541D01*
X151623110Y-85337787D01*
X151431542Y-85146219D01*
X151181245Y-85042543D01*
X150910327Y-85042543D01*
X150660030Y-85146219D01*
X150468462Y-85337787D01*
X150364786Y-85588084D01*
X138041723Y-85588084D01*
X138322179Y-85307628D01*
X138517200Y-84836807D01*
X138517200Y-84327193D01*
X138322179Y-83856372D01*
X137961828Y-83496021D01*
X137517563Y-83312000D01*
X137961828Y-83127979D01*
X138322179Y-82767628D01*
X138517200Y-82296807D01*
X138517200Y-81787193D01*
X138322179Y-81316372D01*
X137961828Y-80956021D01*
X137517563Y-80772000D01*
X137961828Y-80587979D01*
X138185665Y-80364142D01*
X144913409Y-80364142D01*
X144913409Y-80635060D01*
X145017085Y-80885357D01*
X145208653Y-81076925D01*
X145458950Y-81180601D01*
X145729868Y-81180601D01*
X145980165Y-81076925D01*
X146171733Y-80885357D01*
X146275409Y-80635060D01*
X146275409Y-80464541D01*
X147319000Y-80464541D01*
X147319000Y-80735459D01*
X147422676Y-80985756D01*
X147614244Y-81177324D01*
X147864541Y-81281000D01*
X148135459Y-81281000D01*
X148385756Y-81177324D01*
X148577324Y-80985756D01*
X148612332Y-80901238D01*
X148989978Y-80901238D01*
X148989978Y-81172156D01*
X149093654Y-81422453D01*
X149285222Y-81614021D01*
X149535519Y-81717697D01*
X149806437Y-81717697D01*
X150056734Y-81614021D01*
X150248302Y-81422453D01*
X150351978Y-81172156D01*
X150351978Y-80901238D01*
X150248302Y-80650941D01*
X150056734Y-80459373D01*
X149806437Y-80355697D01*
X149535519Y-80355697D01*
X149285222Y-80459373D01*
X149093654Y-80650941D01*
X148989978Y-80901238D01*
X148612332Y-80901238D01*
X148681000Y-80735459D01*
X148681000Y-80464541D01*
X148598158Y-80264541D01*
X152419000Y-80264541D01*
X152419000Y-80535459D01*
X152522676Y-80785756D01*
X152714244Y-80977324D01*
X152964541Y-81081000D01*
X153235459Y-81081000D01*
X153485756Y-80977324D01*
X153677324Y-80785756D01*
X153781000Y-80535459D01*
X153781000Y-80264541D01*
X153677324Y-80014244D01*
X153485756Y-79822676D01*
X153235459Y-79719000D01*
X152964541Y-79719000D01*
X152714244Y-79822676D01*
X152522676Y-80014244D01*
X152419000Y-80264541D01*
X148598158Y-80264541D01*
X148577324Y-80214244D01*
X148385756Y-80022676D01*
X148135459Y-79919000D01*
X147864541Y-79919000D01*
X147614244Y-80022676D01*
X147422676Y-80214244D01*
X147319000Y-80464541D01*
X146275409Y-80464541D01*
X146275409Y-80364142D01*
X146171733Y-80113845D01*
X145980165Y-79922277D01*
X145729868Y-79818601D01*
X145458950Y-79818601D01*
X145208653Y-79922277D01*
X145017085Y-80113845D01*
X144913409Y-80364142D01*
X138185665Y-80364142D01*
X138322179Y-80227628D01*
X138517200Y-79756807D01*
X138517200Y-79247193D01*
X138322179Y-78776372D01*
X137961828Y-78416021D01*
X137517563Y-78232000D01*
X137961828Y-78047979D01*
X138322179Y-77687628D01*
X138517200Y-77216807D01*
X138517200Y-76707193D01*
X138322179Y-76236372D01*
X137961828Y-75876021D01*
X137491007Y-75681000D01*
X136981393Y-75681000D01*
X136510572Y-75876021D01*
X136222150Y-76164443D01*
X136220234Y-75456000D01*
X161113400Y-75456000D01*
X161113400Y-76167593D01*
X161113400Y-76167593D01*
G37*
X161113400Y-76167593D02*
X160821828Y-75876021D01*
X160351007Y-75681000D01*
X159841393Y-75681000D01*
X159370572Y-75876021D01*
X159010221Y-76236372D01*
X158815200Y-76707193D01*
X158815200Y-77216807D01*
X159010221Y-77687628D01*
X159370572Y-78047979D01*
X159814837Y-78232000D01*
X159370572Y-78416021D01*
X159010221Y-78776372D01*
X158815200Y-79247193D01*
X158815200Y-79756807D01*
X159010221Y-80227628D01*
X159370572Y-80587979D01*
X159814837Y-80772000D01*
X159370572Y-80956021D01*
X159010221Y-81316372D01*
X158815200Y-81787193D01*
X158815200Y-82296807D01*
X159010221Y-82767628D01*
X159370572Y-83127979D01*
X159814837Y-83312000D01*
X159370572Y-83496021D01*
X159010221Y-83856372D01*
X158815200Y-84327193D01*
X158815200Y-84836807D01*
X159010221Y-85307628D01*
X159370572Y-85667979D01*
X159814837Y-85852000D01*
X159370572Y-86036021D01*
X159010221Y-86396372D01*
X158815200Y-86867193D01*
X158815200Y-87376807D01*
X159010221Y-87847628D01*
X159370572Y-88207979D01*
X159814837Y-88392000D01*
X159370572Y-88576021D01*
X159010221Y-88936372D01*
X158815200Y-89407193D01*
X158815200Y-89916807D01*
X159010221Y-90387628D01*
X159370572Y-90747979D01*
X159814837Y-90932000D01*
X159370572Y-91116021D01*
X159010221Y-91476372D01*
X158815200Y-91947193D01*
X158815200Y-92456807D01*
X159010221Y-92927628D01*
X159370572Y-93287979D01*
X159814837Y-93472000D01*
X159370572Y-93656021D01*
X159010221Y-94016372D01*
X158815200Y-94487193D01*
X158815200Y-94996807D01*
X159010221Y-95467628D01*
X159370572Y-95827979D01*
X159841393Y-96023000D01*
X160351007Y-96023000D01*
X160821828Y-95827979D01*
X161113401Y-95536406D01*
X161113401Y-107417800D01*
X136306668Y-107417800D01*
X136303226Y-106144649D01*
X149219000Y-106144649D01*
X149219000Y-106455351D01*
X149337900Y-106742401D01*
X149557599Y-106962100D01*
X149844649Y-107081000D01*
X150155351Y-107081000D01*
X150442401Y-106962100D01*
X150662100Y-106742401D01*
X150781000Y-106455351D01*
X150781000Y-106144649D01*
X150662100Y-105857599D01*
X150442401Y-105637900D01*
X150155351Y-105519000D01*
X149844649Y-105519000D01*
X149557599Y-105637900D01*
X149337900Y-105857599D01*
X149219000Y-106144649D01*
X136303226Y-106144649D01*
X136297345Y-103969649D01*
X153069000Y-103969649D01*
X153069000Y-104280351D01*
X153187900Y-104567401D01*
X153407599Y-104787100D01*
X153694649Y-104906000D01*
X154005351Y-104906000D01*
X154292401Y-104787100D01*
X154512100Y-104567401D01*
X154631000Y-104280351D01*
X154631000Y-103969649D01*
X154512100Y-103682599D01*
X154292401Y-103462900D01*
X154005351Y-103344000D01*
X153694649Y-103344000D01*
X153407599Y-103462900D01*
X153187900Y-103682599D01*
X153069000Y-103969649D01*
X136297345Y-103969649D01*
X136277805Y-96744649D01*
X150369000Y-96744649D01*
X150369000Y-97055351D01*
X150487900Y-97342401D01*
X150707599Y-97562100D01*
X150994649Y-97681000D01*
X151305351Y-97681000D01*
X151592401Y-97562100D01*
X151812100Y-97342401D01*
X151931000Y-97055351D01*
X151931000Y-96744649D01*
X151812100Y-96457599D01*
X151592401Y-96237900D01*
X151305351Y-96119000D01*
X150994649Y-96119000D01*
X150707599Y-96237900D01*
X150487900Y-96457599D01*
X150369000Y-96744649D01*
X136277805Y-96744649D01*
X136274688Y-95592095D01*
X136510572Y-95827979D01*
X136981393Y-96023000D01*
X137491007Y-96023000D01*
X137961828Y-95827979D01*
X138322179Y-95467628D01*
X138517200Y-94996807D01*
X138517200Y-94487193D01*
X138322179Y-94016372D01*
X137961828Y-93656021D01*
X137864400Y-93615665D01*
X138050348Y-93538643D01*
X138136754Y-93282159D01*
X137236200Y-92381605D01*
X137222058Y-92395748D01*
X137042453Y-92216143D01*
X137056595Y-92202000D01*
X137415805Y-92202000D01*
X138316359Y-93102554D01*
X138572843Y-93016148D01*
X138782658Y-92442664D01*
X138757039Y-91832540D01*
X138572843Y-91387852D01*
X138316359Y-91301446D01*
X137415805Y-92202000D01*
X137056595Y-92202000D01*
X137042453Y-92187858D01*
X137222058Y-92008253D01*
X137236200Y-92022395D01*
X138136754Y-91121841D01*
X138050348Y-90865357D01*
X137852874Y-90793109D01*
X137921843Y-90764541D01*
X149219000Y-90764541D01*
X149219000Y-91035459D01*
X149322676Y-91285756D01*
X149514244Y-91477324D01*
X149764541Y-91581000D01*
X150035459Y-91581000D01*
X150285756Y-91477324D01*
X150477324Y-91285756D01*
X150581000Y-91035459D01*
X150581000Y-90764541D01*
X150477324Y-90514244D01*
X150285756Y-90322676D01*
X150035459Y-90219000D01*
X149764541Y-90219000D01*
X149514244Y-90322676D01*
X149322676Y-90514244D01*
X149219000Y-90764541D01*
X137921843Y-90764541D01*
X137961828Y-90747979D01*
X138322179Y-90387628D01*
X138517200Y-89916807D01*
X138517200Y-89407193D01*
X138322179Y-88936372D01*
X137961828Y-88576021D01*
X137517563Y-88392000D01*
X137961828Y-88207979D01*
X138322179Y-87847628D01*
X138517200Y-87376807D01*
X138517200Y-86867193D01*
X138322179Y-86396372D01*
X137961828Y-86036021D01*
X137517563Y-85852000D01*
X137961828Y-85667979D01*
X138041723Y-85588084D01*
X150364786Y-85588084D01*
X150364786Y-85859002D01*
X150468462Y-86109299D01*
X150660030Y-86300867D01*
X150910327Y-86404543D01*
X151181245Y-86404543D01*
X151431542Y-86300867D01*
X151623110Y-86109299D01*
X151726786Y-85859002D01*
X151726786Y-85588084D01*
X151634192Y-85364541D01*
X157219000Y-85364541D01*
X157219000Y-85635459D01*
X157322676Y-85885756D01*
X157514244Y-86077324D01*
X157764541Y-86181000D01*
X158035459Y-86181000D01*
X158285756Y-86077324D01*
X158477324Y-85885756D01*
X158581000Y-85635459D01*
X158581000Y-85364541D01*
X158477324Y-85114244D01*
X158285756Y-84922676D01*
X158035459Y-84819000D01*
X157764541Y-84819000D01*
X157514244Y-84922676D01*
X157322676Y-85114244D01*
X157219000Y-85364541D01*
X151634192Y-85364541D01*
X151623110Y-85337787D01*
X151431542Y-85146219D01*
X151181245Y-85042543D01*
X150910327Y-85042543D01*
X150660030Y-85146219D01*
X150468462Y-85337787D01*
X150364786Y-85588084D01*
X138041723Y-85588084D01*
X138322179Y-85307628D01*
X138517200Y-84836807D01*
X138517200Y-84327193D01*
X138322179Y-83856372D01*
X137961828Y-83496021D01*
X137517563Y-83312000D01*
X137961828Y-83127979D01*
X138322179Y-82767628D01*
X138517200Y-82296807D01*
X138517200Y-81787193D01*
X138322179Y-81316372D01*
X137961828Y-80956021D01*
X137517563Y-80772000D01*
X137961828Y-80587979D01*
X138185665Y-80364142D01*
X144913409Y-80364142D01*
X144913409Y-80635060D01*
X145017085Y-80885357D01*
X145208653Y-81076925D01*
X145458950Y-81180601D01*
X145729868Y-81180601D01*
X145980165Y-81076925D01*
X146171733Y-80885357D01*
X146275409Y-80635060D01*
X146275409Y-80464541D01*
X147319000Y-80464541D01*
X147319000Y-80735459D01*
X147422676Y-80985756D01*
X147614244Y-81177324D01*
X147864541Y-81281000D01*
X148135459Y-81281000D01*
X148385756Y-81177324D01*
X148577324Y-80985756D01*
X148612332Y-80901238D01*
X148989978Y-80901238D01*
X148989978Y-81172156D01*
X149093654Y-81422453D01*
X149285222Y-81614021D01*
X149535519Y-81717697D01*
X149806437Y-81717697D01*
X150056734Y-81614021D01*
X150248302Y-81422453D01*
X150351978Y-81172156D01*
X150351978Y-80901238D01*
X150248302Y-80650941D01*
X150056734Y-80459373D01*
X149806437Y-80355697D01*
X149535519Y-80355697D01*
X149285222Y-80459373D01*
X149093654Y-80650941D01*
X148989978Y-80901238D01*
X148612332Y-80901238D01*
X148681000Y-80735459D01*
X148681000Y-80464541D01*
X148598158Y-80264541D01*
X152419000Y-80264541D01*
X152419000Y-80535459D01*
X152522676Y-80785756D01*
X152714244Y-80977324D01*
X152964541Y-81081000D01*
X153235459Y-81081000D01*
X153485756Y-80977324D01*
X153677324Y-80785756D01*
X153781000Y-80535459D01*
X153781000Y-80264541D01*
X153677324Y-80014244D01*
X153485756Y-79822676D01*
X153235459Y-79719000D01*
X152964541Y-79719000D01*
X152714244Y-79822676D01*
X152522676Y-80014244D01*
X152419000Y-80264541D01*
X148598158Y-80264541D01*
X148577324Y-80214244D01*
X148385756Y-80022676D01*
X148135459Y-79919000D01*
X147864541Y-79919000D01*
X147614244Y-80022676D01*
X147422676Y-80214244D01*
X147319000Y-80464541D01*
X146275409Y-80464541D01*
X146275409Y-80364142D01*
X146171733Y-80113845D01*
X145980165Y-79922277D01*
X145729868Y-79818601D01*
X145458950Y-79818601D01*
X145208653Y-79922277D01*
X145017085Y-80113845D01*
X144913409Y-80364142D01*
X138185665Y-80364142D01*
X138322179Y-80227628D01*
X138517200Y-79756807D01*
X138517200Y-79247193D01*
X138322179Y-78776372D01*
X137961828Y-78416021D01*
X137517563Y-78232000D01*
X137961828Y-78047979D01*
X138322179Y-77687628D01*
X138517200Y-77216807D01*
X138517200Y-76707193D01*
X138322179Y-76236372D01*
X137961828Y-75876021D01*
X137491007Y-75681000D01*
X136981393Y-75681000D01*
X136510572Y-75876021D01*
X136222150Y-76164443D01*
X136220234Y-75456000D01*
X161113400Y-75456000D01*
X161113400Y-76167593D01*
%TD*%
M02*
