%TF.GenerationSoftware,KiCad,Pcbnew,5.0.0-rc2-dev-unknown-c6ef0d5~62~ubuntu17.10.1*%
%TF.CreationDate,2018-03-19T22:23:23-07:00*%
%TF.ProjectId,lora_nodemcu,6C6F72615F6E6F64656D63752E6B6963,rev?*%
%TF.SameCoordinates,Original*%
%TF.FileFunction,Legend,Bot*%
%TF.FilePolarity,Positive*%
%FSLAX46Y46*%
G04 Gerber Fmt 4.6, Leading zero omitted, Abs format (unit mm)*
G04 Created by KiCad (PCBNEW 5.0.0-rc2-dev-unknown-c6ef0d5~62~ubuntu17.10.1) date Mon Mar 19 22:23:23 2018*
%MOMM*%
%LPD*%
G01*
G04 APERTURE LIST*
%ADD10C,0.100000*%
%ADD11C,0.120000*%
%ADD12C,0.150000*%
G04 APERTURE END LIST*
D10*
X141521428Y-93126190D02*
X141473809Y-93126190D01*
X141426190Y-93150000D01*
X141402380Y-93173809D01*
X141378571Y-93221428D01*
X141354761Y-93316666D01*
X141354761Y-93435714D01*
X141378571Y-93530952D01*
X141402380Y-93578571D01*
X141426190Y-93602380D01*
X141473809Y-93626190D01*
X141521428Y-93626190D01*
X141569047Y-93602380D01*
X141592857Y-93578571D01*
X141616666Y-93530952D01*
X141640476Y-93435714D01*
X141640476Y-93316666D01*
X141616666Y-93221428D01*
X141592857Y-93173809D01*
X141569047Y-93150000D01*
X141521428Y-93126190D01*
X141140476Y-93578571D02*
X141116666Y-93602380D01*
X141140476Y-93626190D01*
X141164285Y-93602380D01*
X141140476Y-93578571D01*
X141140476Y-93626190D01*
X140640476Y-93626190D02*
X140926190Y-93626190D01*
X140783333Y-93626190D02*
X140783333Y-93126190D01*
X140830952Y-93197619D01*
X140878571Y-93245238D01*
X140926190Y-93269047D01*
X140211904Y-93292857D02*
X140211904Y-93626190D01*
X140426190Y-93292857D02*
X140426190Y-93554761D01*
X140402380Y-93602380D01*
X140354761Y-93626190D01*
X140283333Y-93626190D01*
X140235714Y-93602380D01*
X140211904Y-93578571D01*
X139807142Y-93364285D02*
X139973809Y-93364285D01*
X139973809Y-93626190D02*
X139973809Y-93126190D01*
X139735714Y-93126190D01*
X157176190Y-102164285D02*
X157176190Y-101878571D01*
X157176190Y-102021428D02*
X156676190Y-102021428D01*
X156747619Y-101973809D01*
X156795238Y-101926190D01*
X156819047Y-101878571D01*
X156676190Y-102473809D02*
X156676190Y-102521428D01*
X156700000Y-102569047D01*
X156723809Y-102592857D01*
X156771428Y-102616666D01*
X156866666Y-102640476D01*
X156985714Y-102640476D01*
X157080952Y-102616666D01*
X157128571Y-102592857D01*
X157152380Y-102569047D01*
X157176190Y-102521428D01*
X157176190Y-102473809D01*
X157152380Y-102426190D01*
X157128571Y-102402380D01*
X157080952Y-102378571D01*
X156985714Y-102354761D01*
X156866666Y-102354761D01*
X156771428Y-102378571D01*
X156723809Y-102402380D01*
X156700000Y-102426190D01*
X156676190Y-102473809D01*
X156842857Y-103069047D02*
X157176190Y-103069047D01*
X156842857Y-102854761D02*
X157104761Y-102854761D01*
X157152380Y-102878571D01*
X157176190Y-102926190D01*
X157176190Y-102997619D01*
X157152380Y-103045238D01*
X157128571Y-103069047D01*
X156914285Y-103473809D02*
X156914285Y-103307142D01*
X157176190Y-103307142D02*
X156676190Y-103307142D01*
X156676190Y-103545238D01*
X152676190Y-102264285D02*
X152676190Y-101978571D01*
X152676190Y-102121428D02*
X152176190Y-102121428D01*
X152247619Y-102073809D01*
X152295238Y-102026190D01*
X152319047Y-101978571D01*
X152176190Y-102573809D02*
X152176190Y-102621428D01*
X152200000Y-102669047D01*
X152223809Y-102692857D01*
X152271428Y-102716666D01*
X152366666Y-102740476D01*
X152485714Y-102740476D01*
X152580952Y-102716666D01*
X152628571Y-102692857D01*
X152652380Y-102669047D01*
X152676190Y-102621428D01*
X152676190Y-102573809D01*
X152652380Y-102526190D01*
X152628571Y-102502380D01*
X152580952Y-102478571D01*
X152485714Y-102454761D01*
X152366666Y-102454761D01*
X152271428Y-102478571D01*
X152223809Y-102502380D01*
X152200000Y-102526190D01*
X152176190Y-102573809D01*
X152342857Y-103169047D02*
X152676190Y-103169047D01*
X152342857Y-102954761D02*
X152604761Y-102954761D01*
X152652380Y-102978571D01*
X152676190Y-103026190D01*
X152676190Y-103097619D01*
X152652380Y-103145238D01*
X152628571Y-103169047D01*
X152414285Y-103573809D02*
X152414285Y-103407142D01*
X152676190Y-103407142D02*
X152176190Y-103407142D01*
X152176190Y-103645238D01*
X158202380Y-96226190D02*
X158202380Y-96583333D01*
X158226190Y-96654761D01*
X158273809Y-96702380D01*
X158345238Y-96726190D01*
X158392857Y-96726190D01*
X157964285Y-96226190D02*
X157964285Y-96630952D01*
X157940476Y-96678571D01*
X157916666Y-96702380D01*
X157869047Y-96726190D01*
X157773809Y-96726190D01*
X157726190Y-96702380D01*
X157702380Y-96678571D01*
X157678571Y-96630952D01*
X157678571Y-96226190D01*
X157440476Y-96726190D02*
X157440476Y-96226190D01*
X157273809Y-96583333D01*
X157107142Y-96226190D01*
X157107142Y-96726190D01*
X156869047Y-96726190D02*
X156869047Y-96226190D01*
X156678571Y-96226190D01*
X156630952Y-96250000D01*
X156607142Y-96273809D01*
X156583333Y-96321428D01*
X156583333Y-96392857D01*
X156607142Y-96440476D01*
X156630952Y-96464285D01*
X156678571Y-96488095D01*
X156869047Y-96488095D01*
X156369047Y-96464285D02*
X156202380Y-96464285D01*
X156130952Y-96726190D02*
X156369047Y-96726190D01*
X156369047Y-96226190D01*
X156130952Y-96226190D01*
X155630952Y-96726190D02*
X155797619Y-96488095D01*
X155916666Y-96726190D02*
X155916666Y-96226190D01*
X155726190Y-96226190D01*
X155678571Y-96250000D01*
X155654761Y-96273809D01*
X155630952Y-96321428D01*
X155630952Y-96392857D01*
X155654761Y-96440476D01*
X155678571Y-96464285D01*
X155726190Y-96488095D01*
X155916666Y-96488095D01*
X151921428Y-99376190D02*
X151873809Y-99376190D01*
X151826190Y-99400000D01*
X151802380Y-99423809D01*
X151778571Y-99471428D01*
X151754761Y-99566666D01*
X151754761Y-99685714D01*
X151778571Y-99780952D01*
X151802380Y-99828571D01*
X151826190Y-99852380D01*
X151873809Y-99876190D01*
X151921428Y-99876190D01*
X151969047Y-99852380D01*
X151992857Y-99828571D01*
X152016666Y-99780952D01*
X152040476Y-99685714D01*
X152040476Y-99566666D01*
X152016666Y-99471428D01*
X151992857Y-99423809D01*
X151969047Y-99400000D01*
X151921428Y-99376190D01*
X151540476Y-99828571D02*
X151516666Y-99852380D01*
X151540476Y-99876190D01*
X151564285Y-99852380D01*
X151540476Y-99828571D01*
X151540476Y-99876190D01*
X151040476Y-99876190D02*
X151326190Y-99876190D01*
X151183333Y-99876190D02*
X151183333Y-99376190D01*
X151230952Y-99447619D01*
X151278571Y-99495238D01*
X151326190Y-99519047D01*
X150611904Y-99542857D02*
X150611904Y-99876190D01*
X150826190Y-99542857D02*
X150826190Y-99804761D01*
X150802380Y-99852380D01*
X150754761Y-99876190D01*
X150683333Y-99876190D01*
X150635714Y-99852380D01*
X150611904Y-99828571D01*
X150207142Y-99614285D02*
X150373809Y-99614285D01*
X150373809Y-99876190D02*
X150373809Y-99376190D01*
X150135714Y-99376190D01*
X147976190Y-95397619D02*
X148333333Y-95397619D01*
X148404761Y-95373809D01*
X148452380Y-95326190D01*
X148476190Y-95254761D01*
X148476190Y-95207142D01*
X147976190Y-95635714D02*
X148380952Y-95635714D01*
X148428571Y-95659523D01*
X148452380Y-95683333D01*
X148476190Y-95730952D01*
X148476190Y-95826190D01*
X148452380Y-95873809D01*
X148428571Y-95897619D01*
X148380952Y-95921428D01*
X147976190Y-95921428D01*
X148476190Y-96159523D02*
X147976190Y-96159523D01*
X148333333Y-96326190D01*
X147976190Y-96492857D01*
X148476190Y-96492857D01*
X148476190Y-96730952D02*
X147976190Y-96730952D01*
X147976190Y-96921428D01*
X148000000Y-96969047D01*
X148023809Y-96992857D01*
X148071428Y-97016666D01*
X148142857Y-97016666D01*
X148190476Y-96992857D01*
X148214285Y-96969047D01*
X148238095Y-96921428D01*
X148238095Y-96730952D01*
X148214285Y-97230952D02*
X148214285Y-97397619D01*
X148476190Y-97469047D02*
X148476190Y-97230952D01*
X147976190Y-97230952D01*
X147976190Y-97469047D01*
X148476190Y-97969047D02*
X148238095Y-97802380D01*
X148476190Y-97683333D02*
X147976190Y-97683333D01*
X147976190Y-97873809D01*
X148000000Y-97921428D01*
X148023809Y-97945238D01*
X148071428Y-97969047D01*
X148142857Y-97969047D01*
X148190476Y-97945238D01*
X148214285Y-97921428D01*
X148238095Y-97873809D01*
X148238095Y-97683333D01*
X154621428Y-95076190D02*
X154573809Y-95076190D01*
X154526190Y-95100000D01*
X154502380Y-95123809D01*
X154478571Y-95171428D01*
X154454761Y-95266666D01*
X154454761Y-95385714D01*
X154478571Y-95480952D01*
X154502380Y-95528571D01*
X154526190Y-95552380D01*
X154573809Y-95576190D01*
X154621428Y-95576190D01*
X154669047Y-95552380D01*
X154692857Y-95528571D01*
X154716666Y-95480952D01*
X154740476Y-95385714D01*
X154740476Y-95266666D01*
X154716666Y-95171428D01*
X154692857Y-95123809D01*
X154669047Y-95100000D01*
X154621428Y-95076190D01*
X154240476Y-95528571D02*
X154216666Y-95552380D01*
X154240476Y-95576190D01*
X154264285Y-95552380D01*
X154240476Y-95528571D01*
X154240476Y-95576190D01*
X153740476Y-95576190D02*
X154026190Y-95576190D01*
X153883333Y-95576190D02*
X153883333Y-95076190D01*
X153930952Y-95147619D01*
X153978571Y-95195238D01*
X154026190Y-95219047D01*
X153311904Y-95242857D02*
X153311904Y-95576190D01*
X153526190Y-95242857D02*
X153526190Y-95504761D01*
X153502380Y-95552380D01*
X153454761Y-95576190D01*
X153383333Y-95576190D01*
X153335714Y-95552380D01*
X153311904Y-95528571D01*
X152907142Y-95314285D02*
X153073809Y-95314285D01*
X153073809Y-95576190D02*
X153073809Y-95076190D01*
X152835714Y-95076190D01*
X152380952Y-91202380D02*
X152309523Y-91226190D01*
X152190476Y-91226190D01*
X152142857Y-91202380D01*
X152119047Y-91178571D01*
X152095238Y-91130952D01*
X152095238Y-91083333D01*
X152119047Y-91035714D01*
X152142857Y-91011904D01*
X152190476Y-90988095D01*
X152285714Y-90964285D01*
X152333333Y-90940476D01*
X152357142Y-90916666D01*
X152380952Y-90869047D01*
X152380952Y-90821428D01*
X152357142Y-90773809D01*
X152333333Y-90750000D01*
X152285714Y-90726190D01*
X152166666Y-90726190D01*
X152095238Y-90750000D01*
X151904761Y-91202380D02*
X151833333Y-91226190D01*
X151714285Y-91226190D01*
X151666666Y-91202380D01*
X151642857Y-91178571D01*
X151619047Y-91130952D01*
X151619047Y-91083333D01*
X151642857Y-91035714D01*
X151666666Y-91011904D01*
X151714285Y-90988095D01*
X151809523Y-90964285D01*
X151857142Y-90940476D01*
X151880952Y-90916666D01*
X151904761Y-90869047D01*
X151904761Y-90821428D01*
X151880952Y-90773809D01*
X151857142Y-90750000D01*
X151809523Y-90726190D01*
X151690476Y-90726190D01*
X151619047Y-90750000D01*
X152785714Y-89226190D02*
X152785714Y-88726190D01*
X152619047Y-89083333D01*
X152452380Y-88726190D01*
X152452380Y-89226190D01*
X152119047Y-88726190D02*
X152023809Y-88726190D01*
X151976190Y-88750000D01*
X151928571Y-88797619D01*
X151904761Y-88892857D01*
X151904761Y-89059523D01*
X151928571Y-89154761D01*
X151976190Y-89202380D01*
X152023809Y-89226190D01*
X152119047Y-89226190D01*
X152166666Y-89202380D01*
X152214285Y-89154761D01*
X152238095Y-89059523D01*
X152238095Y-88892857D01*
X152214285Y-88797619D01*
X152166666Y-88750000D01*
X152119047Y-88726190D01*
X151714285Y-89202380D02*
X151642857Y-89226190D01*
X151523809Y-89226190D01*
X151476190Y-89202380D01*
X151452380Y-89178571D01*
X151428571Y-89130952D01*
X151428571Y-89083333D01*
X151452380Y-89035714D01*
X151476190Y-89011904D01*
X151523809Y-88988095D01*
X151619047Y-88964285D01*
X151666666Y-88940476D01*
X151690476Y-88916666D01*
X151714285Y-88869047D01*
X151714285Y-88821428D01*
X151690476Y-88773809D01*
X151666666Y-88750000D01*
X151619047Y-88726190D01*
X151500000Y-88726190D01*
X151428571Y-88750000D01*
X151214285Y-89226190D02*
X151214285Y-88726190D01*
X152642857Y-86202380D02*
X152571428Y-86226190D01*
X152452380Y-86226190D01*
X152404761Y-86202380D01*
X152380952Y-86178571D01*
X152357142Y-86130952D01*
X152357142Y-86083333D01*
X152380952Y-86035714D01*
X152404761Y-86011904D01*
X152452380Y-85988095D01*
X152547619Y-85964285D01*
X152595238Y-85940476D01*
X152619047Y-85916666D01*
X152642857Y-85869047D01*
X152642857Y-85821428D01*
X152619047Y-85773809D01*
X152595238Y-85750000D01*
X152547619Y-85726190D01*
X152428571Y-85726190D01*
X152357142Y-85750000D01*
X151857142Y-86178571D02*
X151880952Y-86202380D01*
X151952380Y-86226190D01*
X152000000Y-86226190D01*
X152071428Y-86202380D01*
X152119047Y-86154761D01*
X152142857Y-86107142D01*
X152166666Y-86011904D01*
X152166666Y-85940476D01*
X152142857Y-85845238D01*
X152119047Y-85797619D01*
X152071428Y-85750000D01*
X152000000Y-85726190D01*
X151952380Y-85726190D01*
X151880952Y-85750000D01*
X151857142Y-85773809D01*
X151642857Y-86226190D02*
X151642857Y-85726190D01*
X151357142Y-86226190D02*
X151571428Y-85940476D01*
X151357142Y-85726190D02*
X151642857Y-86011904D01*
X152785714Y-82226190D02*
X152785714Y-81726190D01*
X152619047Y-82083333D01*
X152452380Y-81726190D01*
X152452380Y-82226190D01*
X152214285Y-82226190D02*
X152214285Y-81726190D01*
X152000000Y-82202380D02*
X151928571Y-82226190D01*
X151809523Y-82226190D01*
X151761904Y-82202380D01*
X151738095Y-82178571D01*
X151714285Y-82130952D01*
X151714285Y-82083333D01*
X151738095Y-82035714D01*
X151761904Y-82011904D01*
X151809523Y-81988095D01*
X151904761Y-81964285D01*
X151952380Y-81940476D01*
X151976190Y-81916666D01*
X152000000Y-81869047D01*
X152000000Y-81821428D01*
X151976190Y-81773809D01*
X151952380Y-81750000D01*
X151904761Y-81726190D01*
X151785714Y-81726190D01*
X151714285Y-81750000D01*
X151404761Y-81726190D02*
X151309523Y-81726190D01*
X151261904Y-81750000D01*
X151214285Y-81797619D01*
X151190476Y-81892857D01*
X151190476Y-82059523D01*
X151214285Y-82154761D01*
X151261904Y-82202380D01*
X151309523Y-82226190D01*
X151404761Y-82226190D01*
X151452380Y-82202380D01*
X151500000Y-82154761D01*
X151523809Y-82059523D01*
X151523809Y-81892857D01*
X151500000Y-81797619D01*
X151452380Y-81750000D01*
X151404761Y-81726190D01*
X147369047Y-85226190D02*
X147369047Y-84726190D01*
X147250000Y-84726190D01*
X147178571Y-84750000D01*
X147130952Y-84797619D01*
X147107142Y-84845238D01*
X147083333Y-84940476D01*
X147083333Y-85011904D01*
X147107142Y-85107142D01*
X147130952Y-85154761D01*
X147178571Y-85202380D01*
X147250000Y-85226190D01*
X147369047Y-85226190D01*
X146892857Y-84773809D02*
X146869047Y-84750000D01*
X146821428Y-84726190D01*
X146702380Y-84726190D01*
X146654761Y-84750000D01*
X146630952Y-84773809D01*
X146607142Y-84821428D01*
X146607142Y-84869047D01*
X146630952Y-84940476D01*
X146916666Y-85226190D01*
X146607142Y-85226190D01*
X148726190Y-82226190D02*
X148892857Y-81988095D01*
X149011904Y-82226190D02*
X149011904Y-81726190D01*
X148821428Y-81726190D01*
X148773809Y-81750000D01*
X148750000Y-81773809D01*
X148726190Y-81821428D01*
X148726190Y-81892857D01*
X148750000Y-81940476D01*
X148773809Y-81964285D01*
X148821428Y-81988095D01*
X149011904Y-81988095D01*
X148511904Y-81964285D02*
X148345238Y-81964285D01*
X148273809Y-82226190D02*
X148511904Y-82226190D01*
X148511904Y-81726190D01*
X148273809Y-81726190D01*
X148083333Y-82202380D02*
X148011904Y-82226190D01*
X147892857Y-82226190D01*
X147845238Y-82202380D01*
X147821428Y-82178571D01*
X147797619Y-82130952D01*
X147797619Y-82083333D01*
X147821428Y-82035714D01*
X147845238Y-82011904D01*
X147892857Y-81988095D01*
X147988095Y-81964285D01*
X148035714Y-81940476D01*
X148059523Y-81916666D01*
X148083333Y-81869047D01*
X148083333Y-81821428D01*
X148059523Y-81773809D01*
X148035714Y-81750000D01*
X147988095Y-81726190D01*
X147869047Y-81726190D01*
X147797619Y-81750000D01*
X147583333Y-81964285D02*
X147416666Y-81964285D01*
X147345238Y-82226190D02*
X147583333Y-82226190D01*
X147583333Y-81726190D01*
X147345238Y-81726190D01*
X147202380Y-81726190D02*
X146916666Y-81726190D01*
X147059523Y-82226190D02*
X147059523Y-81726190D01*
X152085714Y-77526190D02*
X152085714Y-77026190D01*
X151871428Y-77526190D02*
X151871428Y-77264285D01*
X151895238Y-77216666D01*
X151942857Y-77192857D01*
X152014285Y-77192857D01*
X152061904Y-77216666D01*
X152085714Y-77240476D01*
X151704761Y-77192857D02*
X151514285Y-77192857D01*
X151633333Y-77026190D02*
X151633333Y-77454761D01*
X151609523Y-77502380D01*
X151561904Y-77526190D01*
X151514285Y-77526190D01*
X151419047Y-77192857D02*
X151228571Y-77192857D01*
X151347619Y-77026190D02*
X151347619Y-77454761D01*
X151323809Y-77502380D01*
X151276190Y-77526190D01*
X151228571Y-77526190D01*
X151061904Y-77192857D02*
X151061904Y-77692857D01*
X151061904Y-77216666D02*
X151014285Y-77192857D01*
X150919047Y-77192857D01*
X150871428Y-77216666D01*
X150847619Y-77240476D01*
X150823809Y-77288095D01*
X150823809Y-77430952D01*
X150847619Y-77478571D01*
X150871428Y-77502380D01*
X150919047Y-77526190D01*
X151014285Y-77526190D01*
X151061904Y-77502380D01*
X150633333Y-77502380D02*
X150585714Y-77526190D01*
X150490476Y-77526190D01*
X150442857Y-77502380D01*
X150419047Y-77454761D01*
X150419047Y-77430952D01*
X150442857Y-77383333D01*
X150490476Y-77359523D01*
X150561904Y-77359523D01*
X150609523Y-77335714D01*
X150633333Y-77288095D01*
X150633333Y-77264285D01*
X150609523Y-77216666D01*
X150561904Y-77192857D01*
X150490476Y-77192857D01*
X150442857Y-77216666D01*
X150204761Y-77478571D02*
X150180952Y-77502380D01*
X150204761Y-77526190D01*
X150228571Y-77502380D01*
X150204761Y-77478571D01*
X150204761Y-77526190D01*
X150204761Y-77216666D02*
X150180952Y-77240476D01*
X150204761Y-77264285D01*
X150228571Y-77240476D01*
X150204761Y-77216666D01*
X150204761Y-77264285D01*
X149609523Y-77002380D02*
X150038095Y-77645238D01*
X149085714Y-77002380D02*
X149514285Y-77645238D01*
X148704761Y-77526190D02*
X148704761Y-77026190D01*
X148704761Y-77502380D02*
X148752380Y-77526190D01*
X148847619Y-77526190D01*
X148895238Y-77502380D01*
X148919047Y-77478571D01*
X148942857Y-77430952D01*
X148942857Y-77288095D01*
X148919047Y-77240476D01*
X148895238Y-77216666D01*
X148847619Y-77192857D01*
X148752380Y-77192857D01*
X148704761Y-77216666D01*
X148466666Y-77526190D02*
X148466666Y-77192857D01*
X148466666Y-77026190D02*
X148490476Y-77050000D01*
X148466666Y-77073809D01*
X148442857Y-77050000D01*
X148466666Y-77026190D01*
X148466666Y-77073809D01*
X148252380Y-77502380D02*
X148204761Y-77526190D01*
X148109523Y-77526190D01*
X148061904Y-77502380D01*
X148038095Y-77454761D01*
X148038095Y-77430952D01*
X148061904Y-77383333D01*
X148109523Y-77359523D01*
X148180952Y-77359523D01*
X148228571Y-77335714D01*
X148252380Y-77288095D01*
X148252380Y-77264285D01*
X148228571Y-77216666D01*
X148180952Y-77192857D01*
X148109523Y-77192857D01*
X148061904Y-77216666D01*
X147609523Y-77526190D02*
X147609523Y-77264285D01*
X147633333Y-77216666D01*
X147680952Y-77192857D01*
X147776190Y-77192857D01*
X147823809Y-77216666D01*
X147609523Y-77502380D02*
X147657142Y-77526190D01*
X147776190Y-77526190D01*
X147823809Y-77502380D01*
X147847619Y-77454761D01*
X147847619Y-77407142D01*
X147823809Y-77359523D01*
X147776190Y-77335714D01*
X147657142Y-77335714D01*
X147609523Y-77311904D01*
X147395238Y-77502380D02*
X147347619Y-77526190D01*
X147252380Y-77526190D01*
X147204761Y-77502380D01*
X147180952Y-77454761D01*
X147180952Y-77430952D01*
X147204761Y-77383333D01*
X147252380Y-77359523D01*
X147323809Y-77359523D01*
X147371428Y-77335714D01*
X147395238Y-77288095D01*
X147395238Y-77264285D01*
X147371428Y-77216666D01*
X147323809Y-77192857D01*
X147252380Y-77192857D01*
X147204761Y-77216666D01*
X147038095Y-77192857D02*
X146847619Y-77192857D01*
X146966666Y-77026190D02*
X146966666Y-77454761D01*
X146942857Y-77502380D01*
X146895238Y-77526190D01*
X146847619Y-77526190D01*
X146490476Y-77502380D02*
X146538095Y-77526190D01*
X146633333Y-77526190D01*
X146680952Y-77502380D01*
X146704761Y-77454761D01*
X146704761Y-77264285D01*
X146680952Y-77216666D01*
X146633333Y-77192857D01*
X146538095Y-77192857D01*
X146490476Y-77216666D01*
X146466666Y-77264285D01*
X146466666Y-77311904D01*
X146704761Y-77359523D01*
X146252380Y-77526190D02*
X146252380Y-77192857D01*
X146252380Y-77288095D02*
X146228571Y-77240476D01*
X146204761Y-77216666D01*
X146157142Y-77192857D01*
X146109523Y-77192857D01*
X145942857Y-77478571D02*
X145919047Y-77502380D01*
X145942857Y-77526190D01*
X145966666Y-77502380D01*
X145942857Y-77478571D01*
X145942857Y-77526190D01*
X145704761Y-77526190D02*
X145704761Y-77192857D01*
X145704761Y-77288095D02*
X145680952Y-77240476D01*
X145657142Y-77216666D01*
X145609523Y-77192857D01*
X145561904Y-77192857D01*
X145180952Y-77526190D02*
X145180952Y-77264285D01*
X145204761Y-77216666D01*
X145252380Y-77192857D01*
X145347619Y-77192857D01*
X145395238Y-77216666D01*
X145180952Y-77502380D02*
X145228571Y-77526190D01*
X145347619Y-77526190D01*
X145395238Y-77502380D01*
X145419047Y-77454761D01*
X145419047Y-77407142D01*
X145395238Y-77359523D01*
X145347619Y-77335714D01*
X145228571Y-77335714D01*
X145180952Y-77311904D01*
X144728571Y-77526190D02*
X144728571Y-77026190D01*
X144728571Y-77502380D02*
X144776190Y-77526190D01*
X144871428Y-77526190D01*
X144919047Y-77502380D01*
X144942857Y-77478571D01*
X144966666Y-77430952D01*
X144966666Y-77288095D01*
X144942857Y-77240476D01*
X144919047Y-77216666D01*
X144871428Y-77192857D01*
X144776190Y-77192857D01*
X144728571Y-77216666D01*
X144490476Y-77526190D02*
X144490476Y-77192857D01*
X144490476Y-77026190D02*
X144514285Y-77050000D01*
X144490476Y-77073809D01*
X144466666Y-77050000D01*
X144490476Y-77026190D01*
X144490476Y-77073809D01*
X144180952Y-77526190D02*
X144228571Y-77502380D01*
X144252380Y-77478571D01*
X144276190Y-77430952D01*
X144276190Y-77288095D01*
X144252380Y-77240476D01*
X144228571Y-77216666D01*
X144180952Y-77192857D01*
X144109523Y-77192857D01*
X144061904Y-77216666D01*
X144038095Y-77240476D01*
X144014285Y-77288095D01*
X144014285Y-77430952D01*
X144038095Y-77478571D01*
X144061904Y-77502380D01*
X144109523Y-77526190D01*
X144180952Y-77526190D01*
X143442857Y-77002380D02*
X143871428Y-77645238D01*
X153100000Y-76476190D02*
X153100000Y-75976190D01*
X152980952Y-75976190D01*
X152909523Y-76000000D01*
X152861904Y-76047619D01*
X152838095Y-76095238D01*
X152814285Y-76190476D01*
X152814285Y-76261904D01*
X152838095Y-76357142D01*
X152861904Y-76404761D01*
X152909523Y-76452380D01*
X152980952Y-76476190D01*
X153100000Y-76476190D01*
X152600000Y-76476190D02*
X152600000Y-76142857D01*
X152600000Y-75976190D02*
X152623809Y-76000000D01*
X152600000Y-76023809D01*
X152576190Y-76000000D01*
X152600000Y-75976190D01*
X152600000Y-76023809D01*
X152385714Y-76452380D02*
X152338095Y-76476190D01*
X152242857Y-76476190D01*
X152195238Y-76452380D01*
X152171428Y-76404761D01*
X152171428Y-76380952D01*
X152195238Y-76333333D01*
X152242857Y-76309523D01*
X152314285Y-76309523D01*
X152361904Y-76285714D01*
X152385714Y-76238095D01*
X152385714Y-76214285D01*
X152361904Y-76166666D01*
X152314285Y-76142857D01*
X152242857Y-76142857D01*
X152195238Y-76166666D01*
X151742857Y-76476190D02*
X151742857Y-76214285D01*
X151766666Y-76166666D01*
X151814285Y-76142857D01*
X151909523Y-76142857D01*
X151957142Y-76166666D01*
X151742857Y-76452380D02*
X151790476Y-76476190D01*
X151909523Y-76476190D01*
X151957142Y-76452380D01*
X151980952Y-76404761D01*
X151980952Y-76357142D01*
X151957142Y-76309523D01*
X151909523Y-76285714D01*
X151790476Y-76285714D01*
X151742857Y-76261904D01*
X151528571Y-76452380D02*
X151480952Y-76476190D01*
X151385714Y-76476190D01*
X151338095Y-76452380D01*
X151314285Y-76404761D01*
X151314285Y-76380952D01*
X151338095Y-76333333D01*
X151385714Y-76309523D01*
X151457142Y-76309523D01*
X151504761Y-76285714D01*
X151528571Y-76238095D01*
X151528571Y-76214285D01*
X151504761Y-76166666D01*
X151457142Y-76142857D01*
X151385714Y-76142857D01*
X151338095Y-76166666D01*
X151171428Y-76142857D02*
X150980952Y-76142857D01*
X151100000Y-75976190D02*
X151100000Y-76404761D01*
X151076190Y-76452380D01*
X151028571Y-76476190D01*
X150980952Y-76476190D01*
X150623809Y-76452380D02*
X150671428Y-76476190D01*
X150766666Y-76476190D01*
X150814285Y-76452380D01*
X150838095Y-76404761D01*
X150838095Y-76214285D01*
X150814285Y-76166666D01*
X150766666Y-76142857D01*
X150671428Y-76142857D01*
X150623809Y-76166666D01*
X150600000Y-76214285D01*
X150600000Y-76261904D01*
X150838095Y-76309523D01*
X150385714Y-76476190D02*
X150385714Y-76142857D01*
X150385714Y-76238095D02*
X150361904Y-76190476D01*
X150338095Y-76166666D01*
X150290476Y-76142857D01*
X150242857Y-76142857D01*
X149409523Y-76476190D02*
X149576190Y-76238095D01*
X149695238Y-76476190D02*
X149695238Y-75976190D01*
X149504761Y-75976190D01*
X149457142Y-76000000D01*
X149433333Y-76023809D01*
X149409523Y-76071428D01*
X149409523Y-76142857D01*
X149433333Y-76190476D01*
X149457142Y-76214285D01*
X149504761Y-76238095D01*
X149695238Y-76238095D01*
X148980952Y-76476190D02*
X148980952Y-76214285D01*
X149004761Y-76166666D01*
X149052380Y-76142857D01*
X149147619Y-76142857D01*
X149195238Y-76166666D01*
X148980952Y-76452380D02*
X149028571Y-76476190D01*
X149147619Y-76476190D01*
X149195238Y-76452380D01*
X149219047Y-76404761D01*
X149219047Y-76357142D01*
X149195238Y-76309523D01*
X149147619Y-76285714D01*
X149028571Y-76285714D01*
X148980952Y-76261904D01*
X148528571Y-76476190D02*
X148528571Y-75976190D01*
X148528571Y-76452380D02*
X148576190Y-76476190D01*
X148671428Y-76476190D01*
X148719047Y-76452380D01*
X148742857Y-76428571D01*
X148766666Y-76380952D01*
X148766666Y-76238095D01*
X148742857Y-76190476D01*
X148719047Y-76166666D01*
X148671428Y-76142857D01*
X148576190Y-76142857D01*
X148528571Y-76166666D01*
X148290476Y-76476190D02*
X148290476Y-76142857D01*
X148290476Y-75976190D02*
X148314285Y-76000000D01*
X148290476Y-76023809D01*
X148266666Y-76000000D01*
X148290476Y-75976190D01*
X148290476Y-76023809D01*
X147980952Y-76476190D02*
X148028571Y-76452380D01*
X148052380Y-76428571D01*
X148076190Y-76380952D01*
X148076190Y-76238095D01*
X148052380Y-76190476D01*
X148028571Y-76166666D01*
X147980952Y-76142857D01*
X147909523Y-76142857D01*
X147861904Y-76166666D01*
X147838095Y-76190476D01*
X147814285Y-76238095D01*
X147814285Y-76380952D01*
X147838095Y-76428571D01*
X147861904Y-76452380D01*
X147909523Y-76476190D01*
X147980952Y-76476190D01*
X147290476Y-75976190D02*
X147123809Y-76476190D01*
X146957142Y-75976190D01*
X146695238Y-75976190D02*
X146647619Y-75976190D01*
X146600000Y-76000000D01*
X146576190Y-76023809D01*
X146552380Y-76071428D01*
X146528571Y-76166666D01*
X146528571Y-76285714D01*
X146552380Y-76380952D01*
X146576190Y-76428571D01*
X146600000Y-76452380D01*
X146647619Y-76476190D01*
X146695238Y-76476190D01*
X146742857Y-76452380D01*
X146766666Y-76428571D01*
X146790476Y-76380952D01*
X146814285Y-76285714D01*
X146814285Y-76166666D01*
X146790476Y-76071428D01*
X146766666Y-76023809D01*
X146742857Y-76000000D01*
X146695238Y-75976190D01*
X146314285Y-76428571D02*
X146290476Y-76452380D01*
X146314285Y-76476190D01*
X146338095Y-76452380D01*
X146314285Y-76428571D01*
X146314285Y-76476190D01*
X146123809Y-75976190D02*
X145814285Y-75976190D01*
X145980952Y-76166666D01*
X145909523Y-76166666D01*
X145861904Y-76190476D01*
X145838095Y-76214285D01*
X145814285Y-76261904D01*
X145814285Y-76380952D01*
X145838095Y-76428571D01*
X145861904Y-76452380D01*
X145909523Y-76476190D01*
X146052380Y-76476190D01*
X146100000Y-76452380D01*
X146123809Y-76428571D01*
X144957142Y-76476190D02*
X145242857Y-76476190D01*
X145100000Y-76476190D02*
X145100000Y-75976190D01*
X145147619Y-76047619D01*
X145195238Y-76095238D01*
X145242857Y-76119047D01*
X144671428Y-76190476D02*
X144719047Y-76166666D01*
X144742857Y-76142857D01*
X144766666Y-76095238D01*
X144766666Y-76071428D01*
X144742857Y-76023809D01*
X144719047Y-76000000D01*
X144671428Y-75976190D01*
X144576190Y-75976190D01*
X144528571Y-76000000D01*
X144504761Y-76023809D01*
X144480952Y-76071428D01*
X144480952Y-76095238D01*
X144504761Y-76142857D01*
X144528571Y-76166666D01*
X144576190Y-76190476D01*
X144671428Y-76190476D01*
X144719047Y-76214285D01*
X144742857Y-76238095D01*
X144766666Y-76285714D01*
X144766666Y-76380952D01*
X144742857Y-76428571D01*
X144719047Y-76452380D01*
X144671428Y-76476190D01*
X144576190Y-76476190D01*
X144528571Y-76452380D01*
X144504761Y-76428571D01*
X144480952Y-76380952D01*
X144480952Y-76285714D01*
X144504761Y-76238095D01*
X144528571Y-76214285D01*
X144576190Y-76190476D01*
X144171428Y-75976190D02*
X144123809Y-75976190D01*
X144076190Y-76000000D01*
X144052380Y-76023809D01*
X144028571Y-76071428D01*
X144004761Y-76166666D01*
X144004761Y-76285714D01*
X144028571Y-76380952D01*
X144052380Y-76428571D01*
X144076190Y-76452380D01*
X144123809Y-76476190D01*
X144171428Y-76476190D01*
X144219047Y-76452380D01*
X144242857Y-76428571D01*
X144266666Y-76380952D01*
X144290476Y-76285714D01*
X144290476Y-76166666D01*
X144266666Y-76071428D01*
X144242857Y-76023809D01*
X144219047Y-76000000D01*
X144171428Y-75976190D01*
X143838095Y-75976190D02*
X143528571Y-75976190D01*
X143695238Y-76166666D01*
X143623809Y-76166666D01*
X143576190Y-76190476D01*
X143552380Y-76214285D01*
X143528571Y-76261904D01*
X143528571Y-76380952D01*
X143552380Y-76428571D01*
X143576190Y-76452380D01*
X143623809Y-76476190D01*
X143766666Y-76476190D01*
X143814285Y-76452380D01*
X143838095Y-76428571D01*
X143052380Y-76476190D02*
X143338095Y-76476190D01*
X143195238Y-76476190D02*
X143195238Y-75976190D01*
X143242857Y-76047619D01*
X143290476Y-76095238D01*
X143338095Y-76119047D01*
X142814285Y-76476190D02*
X142719047Y-76476190D01*
X142671428Y-76452380D01*
X142647619Y-76428571D01*
X142600000Y-76357142D01*
X142576190Y-76261904D01*
X142576190Y-76071428D01*
X142600000Y-76023809D01*
X142623809Y-76000000D01*
X142671428Y-75976190D01*
X142766666Y-75976190D01*
X142814285Y-76000000D01*
X142838095Y-76023809D01*
X142861904Y-76071428D01*
X142861904Y-76190476D01*
X142838095Y-76238095D01*
X142814285Y-76261904D01*
X142766666Y-76285714D01*
X142671428Y-76285714D01*
X142623809Y-76261904D01*
X142600000Y-76238095D01*
X142576190Y-76190476D01*
D11*
%TO.C,R5*%
X155900000Y-81200000D02*
X153100000Y-81200000D01*
X153100000Y-81200000D02*
X153100000Y-83200000D01*
X153100000Y-83200000D02*
X155900000Y-83200000D01*
X155900000Y-83200000D02*
X155900000Y-81200000D01*
%TO.C,R4*%
X155800000Y-86700000D02*
X155800000Y-84700000D01*
X153000000Y-86700000D02*
X155800000Y-86700000D01*
X153000000Y-84700000D02*
X153000000Y-86700000D01*
X155800000Y-84700000D02*
X153000000Y-84700000D01*
%TO.C,L1*%
X155350000Y-99250000D02*
X158150000Y-99250000D01*
X158150000Y-99250000D02*
X158150000Y-97250000D01*
X158150000Y-97250000D02*
X155350000Y-97250000D01*
X155350000Y-97250000D02*
X155350000Y-99250000D01*
%TO.C,L2*%
X147750000Y-95350000D02*
X145750000Y-95350000D01*
X147750000Y-98150000D02*
X147750000Y-95350000D01*
X145750000Y-98150000D02*
X147750000Y-98150000D01*
X145750000Y-95350000D02*
X145750000Y-98150000D01*
%TO.C,R1*%
X143400000Y-85700000D02*
X146200000Y-85700000D01*
X146200000Y-85700000D02*
X146200000Y-83700000D01*
X146200000Y-83700000D02*
X143400000Y-83700000D01*
X143400000Y-83700000D02*
X143400000Y-85700000D01*
%TO.C,R2*%
X143300000Y-81000000D02*
X143300000Y-83000000D01*
X146100000Y-81000000D02*
X143300000Y-81000000D01*
X146100000Y-83000000D02*
X146100000Y-81000000D01*
X143300000Y-83000000D02*
X146100000Y-83000000D01*
%TO.C,R3*%
X155900000Y-90300000D02*
X153100000Y-90300000D01*
X153100000Y-90300000D02*
X153100000Y-92300000D01*
X153100000Y-92300000D02*
X155900000Y-92300000D01*
X155900000Y-92300000D02*
X155900000Y-90300000D01*
%TO.C,R6*%
X155900000Y-89600000D02*
X155900000Y-87600000D01*
X153100000Y-89600000D02*
X155900000Y-89600000D01*
X153100000Y-87600000D02*
X153100000Y-89600000D01*
X155900000Y-87600000D02*
X153100000Y-87600000D01*
%TO.C,C3*%
X151625000Y-99100000D02*
X150625000Y-99100000D01*
X150625000Y-97400000D02*
X151625000Y-97400000D01*
%TO.C,C5*%
X154200000Y-93050000D02*
X155200000Y-93050000D01*
X155200000Y-94750000D02*
X154200000Y-94750000D01*
%TO.C,C4*%
X141100000Y-90000000D02*
X141100000Y-91000000D01*
X139400000Y-91000000D02*
X139400000Y-90000000D01*
%TO.C,C1*%
X149850000Y-103350000D02*
X149850000Y-102350000D01*
X151550000Y-102350000D02*
X151550000Y-103350000D01*
%TO.C,C2*%
X154500000Y-103150000D02*
X154500000Y-102150000D01*
X156200000Y-102150000D02*
X156200000Y-103150000D01*
%TO.C,L1*%
D12*
X156916666Y-100502380D02*
X157392857Y-100502380D01*
X157392857Y-99502380D01*
X156059523Y-100502380D02*
X156630952Y-100502380D01*
X156345238Y-100502380D02*
X156345238Y-99502380D01*
X156440476Y-99645238D01*
X156535714Y-99740476D01*
X156630952Y-99788095D01*
%TO.C,L2*%
X145402380Y-96583333D02*
X145402380Y-96107142D01*
X144402380Y-96107142D01*
X144497619Y-96869047D02*
X144450000Y-96916666D01*
X144402380Y-97011904D01*
X144402380Y-97250000D01*
X144450000Y-97345238D01*
X144497619Y-97392857D01*
X144592857Y-97440476D01*
X144688095Y-97440476D01*
X144830952Y-97392857D01*
X145402380Y-96821428D01*
X145402380Y-97440476D01*
%TO.C,C3*%
X151291666Y-96857142D02*
X151339285Y-96904761D01*
X151482142Y-96952380D01*
X151577380Y-96952380D01*
X151720238Y-96904761D01*
X151815476Y-96809523D01*
X151863095Y-96714285D01*
X151910714Y-96523809D01*
X151910714Y-96380952D01*
X151863095Y-96190476D01*
X151815476Y-96095238D01*
X151720238Y-96000000D01*
X151577380Y-95952380D01*
X151482142Y-95952380D01*
X151339285Y-96000000D01*
X151291666Y-96047619D01*
X150958333Y-95952380D02*
X150339285Y-95952380D01*
X150672619Y-96333333D01*
X150529761Y-96333333D01*
X150434523Y-96380952D01*
X150386904Y-96428571D01*
X150339285Y-96523809D01*
X150339285Y-96761904D01*
X150386904Y-96857142D01*
X150434523Y-96904761D01*
X150529761Y-96952380D01*
X150815476Y-96952380D01*
X150910714Y-96904761D01*
X150958333Y-96857142D01*
%TO.C,C5*%
X151416666Y-94307142D02*
X151464285Y-94354761D01*
X151607142Y-94402380D01*
X151702380Y-94402380D01*
X151845238Y-94354761D01*
X151940476Y-94259523D01*
X151988095Y-94164285D01*
X152035714Y-93973809D01*
X152035714Y-93830952D01*
X151988095Y-93640476D01*
X151940476Y-93545238D01*
X151845238Y-93450000D01*
X151702380Y-93402380D01*
X151607142Y-93402380D01*
X151464285Y-93450000D01*
X151416666Y-93497619D01*
X150511904Y-93402380D02*
X150988095Y-93402380D01*
X151035714Y-93878571D01*
X150988095Y-93830952D01*
X150892857Y-93783333D01*
X150654761Y-93783333D01*
X150559523Y-93830952D01*
X150511904Y-93878571D01*
X150464285Y-93973809D01*
X150464285Y-94211904D01*
X150511904Y-94307142D01*
X150559523Y-94354761D01*
X150654761Y-94402380D01*
X150892857Y-94402380D01*
X150988095Y-94354761D01*
X151035714Y-94307142D01*
%TO.C,C4*%
X142707142Y-90083333D02*
X142754761Y-90035714D01*
X142802380Y-89892857D01*
X142802380Y-89797619D01*
X142754761Y-89654761D01*
X142659523Y-89559523D01*
X142564285Y-89511904D01*
X142373809Y-89464285D01*
X142230952Y-89464285D01*
X142040476Y-89511904D01*
X141945238Y-89559523D01*
X141850000Y-89654761D01*
X141802380Y-89797619D01*
X141802380Y-89892857D01*
X141850000Y-90035714D01*
X141897619Y-90083333D01*
X142135714Y-90940476D02*
X142802380Y-90940476D01*
X141754761Y-90702380D02*
X142469047Y-90464285D01*
X142469047Y-91083333D01*
%TO.C,C1*%
X151207142Y-106083333D02*
X151254761Y-106035714D01*
X151302380Y-105892857D01*
X151302380Y-105797619D01*
X151254761Y-105654761D01*
X151159523Y-105559523D01*
X151064285Y-105511904D01*
X150873809Y-105464285D01*
X150730952Y-105464285D01*
X150540476Y-105511904D01*
X150445238Y-105559523D01*
X150350000Y-105654761D01*
X150302380Y-105797619D01*
X150302380Y-105892857D01*
X150350000Y-106035714D01*
X150397619Y-106083333D01*
X151302380Y-107035714D02*
X151302380Y-106464285D01*
X151302380Y-106750000D02*
X150302380Y-106750000D01*
X150445238Y-106654761D01*
X150540476Y-106559523D01*
X150588095Y-106464285D01*
%TO.C,C2*%
X155707142Y-105983333D02*
X155754761Y-105935714D01*
X155802380Y-105792857D01*
X155802380Y-105697619D01*
X155754761Y-105554761D01*
X155659523Y-105459523D01*
X155564285Y-105411904D01*
X155373809Y-105364285D01*
X155230952Y-105364285D01*
X155040476Y-105411904D01*
X154945238Y-105459523D01*
X154850000Y-105554761D01*
X154802380Y-105697619D01*
X154802380Y-105792857D01*
X154850000Y-105935714D01*
X154897619Y-105983333D01*
X154897619Y-106364285D02*
X154850000Y-106411904D01*
X154802380Y-106507142D01*
X154802380Y-106745238D01*
X154850000Y-106840476D01*
X154897619Y-106888095D01*
X154992857Y-106935714D01*
X155088095Y-106935714D01*
X155230952Y-106888095D01*
X155802380Y-106316666D01*
X155802380Y-106935714D01*
%TD*%
M02*
