G04 #@! TF.FileFunction,Soldermask,Top*
%FSLAX46Y46*%
G04 Gerber Fmt 4.6, Leading zero omitted, Abs format (unit mm)*
G04 Created by KiCad (PCBNEW 4.0.6) date Tuesday, October 17, 2017 'PMt' 10:40:20 PM*
%MOMM*%
%LPD*%
G01*
G04 APERTURE LIST*
%ADD10C,0.100000*%
%ADD11C,2.200000*%
%ADD12R,2.750000X2.310000*%
%ADD13R,1.910000X7.510000*%
%ADD14C,2.130000*%
%ADD15R,1.100000X1.700000*%
%ADD16R,2.000000X3.400000*%
%ADD17R,2.400000X4.200000*%
%ADD18R,2.400000X1.900000*%
G04 APERTURE END LIST*
D10*
D11*
X151927694Y-116227500D03*
X151927694Y-118767500D03*
X151927694Y-121307500D03*
X151927694Y-123847500D03*
X151927694Y-126387500D03*
X151927694Y-128927500D03*
X151927694Y-131467500D03*
X151927694Y-134007500D03*
X174787694Y-134007500D03*
X174787694Y-131467500D03*
X174787694Y-128927500D03*
X174787694Y-126387500D03*
X174787694Y-123847500D03*
X174787694Y-121307500D03*
X174787694Y-118767500D03*
X174787694Y-116227500D03*
D10*
G36*
X153142791Y-150075783D02*
X154458361Y-149596955D01*
X155279209Y-151852217D01*
X153963639Y-152331045D01*
X153142791Y-150075783D01*
X153142791Y-150075783D01*
G37*
G36*
X153963639Y-147896955D02*
X155279209Y-148375783D01*
X154458361Y-150631045D01*
X153142791Y-150152217D01*
X153963639Y-147896955D01*
X153963639Y-147896955D01*
G37*
G36*
X158723639Y-149596955D02*
X160039209Y-150075783D01*
X159218361Y-152331045D01*
X157902791Y-151852217D01*
X158723639Y-149596955D01*
X158723639Y-149596955D01*
G37*
G36*
X157902791Y-148375783D02*
X159218361Y-147896955D01*
X160039209Y-150152217D01*
X158723639Y-150631045D01*
X157902791Y-148375783D01*
X157902791Y-148375783D01*
G37*
G36*
X154016514Y-151523769D02*
X154595023Y-150834329D01*
X155667486Y-151734231D01*
X155088977Y-152423671D01*
X154016514Y-151523769D01*
X154016514Y-151523769D01*
G37*
G36*
X155088977Y-147804329D02*
X155667486Y-148493769D01*
X154595023Y-149393671D01*
X154016514Y-148704231D01*
X155088977Y-147804329D01*
X155088977Y-147804329D01*
G37*
G36*
X158586977Y-150834329D02*
X159165486Y-151523769D01*
X158093023Y-152423671D01*
X157514514Y-151734231D01*
X158586977Y-150834329D01*
X158586977Y-150834329D01*
G37*
G36*
X157514514Y-148493769D02*
X158093023Y-147804329D01*
X159165486Y-148704231D01*
X158586977Y-149393671D01*
X157514514Y-148493769D01*
X157514514Y-148493769D01*
G37*
D12*
X154211000Y-152714000D03*
D13*
X153791000Y-150114000D03*
D12*
X154211000Y-147514000D03*
X158971000Y-152714000D03*
D14*
X156591000Y-150114000D03*
D13*
X159391000Y-150114000D03*
D12*
X158971000Y-147514000D03*
D15*
X161838600Y-114554000D03*
X163738600Y-114554000D03*
X155681600Y-114630200D03*
X157581600Y-114630200D03*
X167904200Y-114681000D03*
X166004200Y-114681000D03*
X167459700Y-119659400D03*
X165559700Y-119659400D03*
X171549100Y-119837200D03*
X169649100Y-119837200D03*
X171904700Y-114769900D03*
X170004700Y-114769900D03*
D16*
X170601400Y-141789700D03*
X170601400Y-125189700D03*
X168601400Y-141789700D03*
X168601400Y-125189700D03*
X166601400Y-141789700D03*
X166601400Y-125189700D03*
X164601400Y-141789700D03*
X164601400Y-125189700D03*
X162601400Y-141789700D03*
X162601400Y-125189700D03*
X160601400Y-141789700D03*
X160601400Y-125189700D03*
X158601400Y-141789700D03*
X158601400Y-125189700D03*
X156601400Y-141789700D03*
X156601400Y-125189700D03*
D17*
X173482400Y-149745700D03*
D18*
X167182400Y-149745700D03*
X167182400Y-152045700D03*
X167182400Y-147445700D03*
M02*
