G04 #@! TF.FileFunction,Copper,L4,Bot,Signal*
%FSLAX46Y46*%
G04 Gerber Fmt 4.6, Leading zero omitted, Abs format (unit mm)*
G04 Created by KiCad (PCBNEW 4.0.6) date Tuesday, October 17, 2017 'PMt' 10:40:20 PM*
%MOMM*%
%LPD*%
G01*
G04 APERTURE LIST*
%ADD10C,0.100000*%
%ADD11C,1.800000*%
%ADD12C,0.600000*%
%ADD13C,0.250000*%
%ADD14C,0.500000*%
%ADD15C,0.254000*%
G04 APERTURE END LIST*
D10*
D11*
X151927694Y-116227500D03*
X151927694Y-118767500D03*
X151927694Y-121307500D03*
X151927694Y-123847500D03*
X151927694Y-126387500D03*
X151927694Y-128927500D03*
X151927694Y-131467500D03*
X151927694Y-134007500D03*
X174787694Y-134007500D03*
X174787694Y-131467500D03*
X174787694Y-128927500D03*
X174787694Y-126387500D03*
X174787694Y-123847500D03*
X174787694Y-121307500D03*
X174787694Y-118767500D03*
X174787694Y-116227500D03*
D12*
X162420300Y-118681500D03*
X165887400Y-137172700D03*
X158864300Y-114769900D03*
X159575500Y-118059200D03*
X166357300Y-131038600D03*
X166382700Y-117652800D03*
X171881800Y-122770900D03*
X167525700Y-121145300D03*
X172402500Y-124853700D03*
X172059600Y-121577100D03*
X173088300Y-125844300D03*
X172935900Y-118262400D03*
X161404300Y-152908000D03*
X152628600Y-145046700D03*
X170586400Y-127393700D03*
X156552900Y-127965200D03*
X167576500Y-145707100D03*
X162699700Y-146735800D03*
X154978100Y-144259300D03*
D13*
X162420300Y-133705600D02*
X162420300Y-118681500D01*
X165887400Y-137172700D02*
X162420300Y-133705600D01*
X158864300Y-117348000D02*
X158864300Y-114769900D01*
X159575500Y-118059200D02*
X158864300Y-117348000D01*
X166357300Y-117678200D02*
X166357300Y-131038600D01*
X166382700Y-117652800D02*
X166357300Y-117678200D01*
X169151300Y-122770900D02*
X171881800Y-122770900D01*
X167525700Y-121145300D02*
X169151300Y-122770900D01*
X172593000Y-124663200D02*
X172402500Y-124853700D01*
X172593000Y-122110500D02*
X172593000Y-124663200D01*
X172059600Y-121577100D02*
X172593000Y-122110500D01*
X173088300Y-118414800D02*
X173088300Y-125844300D01*
X172935900Y-118262400D02*
X173088300Y-118414800D01*
X167576500Y-145707100D02*
X170205400Y-143078200D01*
D14*
X160312100Y-144348200D02*
X162699700Y-146735800D01*
X155067000Y-144348200D02*
X160312100Y-144348200D01*
D13*
X154978100Y-144259300D02*
X155067000Y-144348200D01*
D15*
G36*
X175895600Y-115695763D02*
X175828500Y-115533369D01*
X175483641Y-115187907D01*
X175032830Y-115000714D01*
X174544699Y-115000288D01*
X174093563Y-115186694D01*
X173748101Y-115531553D01*
X173560908Y-115982364D01*
X173560482Y-116470495D01*
X173746888Y-116921631D01*
X174091747Y-117267093D01*
X174542558Y-117454286D01*
X175030689Y-117454712D01*
X175481825Y-117268306D01*
X175827287Y-116923447D01*
X175895600Y-116758931D01*
X175895600Y-118235763D01*
X175828500Y-118073369D01*
X175483641Y-117727907D01*
X175032830Y-117540714D01*
X174544699Y-117540288D01*
X174093563Y-117726694D01*
X173748101Y-118071553D01*
X173560908Y-118522364D01*
X173560482Y-119010495D01*
X173746888Y-119461631D01*
X174091747Y-119807093D01*
X174542558Y-119994286D01*
X175030689Y-119994712D01*
X175481825Y-119808306D01*
X175827287Y-119463447D01*
X175895600Y-119298931D01*
X175895600Y-120775763D01*
X175828500Y-120613369D01*
X175483641Y-120267907D01*
X175032830Y-120080714D01*
X174544699Y-120080288D01*
X174093563Y-120266694D01*
X173748101Y-120611553D01*
X173560908Y-121062364D01*
X173560482Y-121550495D01*
X173746888Y-122001631D01*
X174091747Y-122347093D01*
X174542558Y-122534286D01*
X175030689Y-122534712D01*
X175481825Y-122348306D01*
X175827287Y-122003447D01*
X175895600Y-121838931D01*
X175895600Y-123315763D01*
X175828500Y-123153369D01*
X175483641Y-122807907D01*
X175032830Y-122620714D01*
X174544699Y-122620288D01*
X174093563Y-122806694D01*
X173748101Y-123151553D01*
X173560908Y-123602364D01*
X173560482Y-124090495D01*
X173746888Y-124541631D01*
X174091747Y-124887093D01*
X174542558Y-125074286D01*
X175030689Y-125074712D01*
X175481825Y-124888306D01*
X175827287Y-124543447D01*
X175895600Y-124378931D01*
X175895600Y-125855763D01*
X175828500Y-125693369D01*
X175483641Y-125347907D01*
X175032830Y-125160714D01*
X174544699Y-125160288D01*
X174093563Y-125346694D01*
X173748101Y-125691553D01*
X173715365Y-125770390D01*
X173715409Y-125720129D01*
X173620155Y-125489597D01*
X173540300Y-125409602D01*
X173540300Y-118441830D01*
X173562791Y-118387665D01*
X173563009Y-118138229D01*
X173467755Y-117907697D01*
X173291531Y-117731165D01*
X173061165Y-117635509D01*
X172811729Y-117635291D01*
X172581197Y-117730545D01*
X172404665Y-117906769D01*
X172309009Y-118137135D01*
X172308791Y-118386571D01*
X172404045Y-118617103D01*
X172580269Y-118793635D01*
X172636300Y-118816901D01*
X172636300Y-121330930D01*
X172591455Y-121222397D01*
X172415231Y-121045865D01*
X172184865Y-120950209D01*
X171935429Y-120949991D01*
X171704897Y-121045245D01*
X171528365Y-121221469D01*
X171432709Y-121451835D01*
X171432491Y-121701271D01*
X171527745Y-121931803D01*
X171703969Y-122108335D01*
X171789424Y-122143819D01*
X171757629Y-122143791D01*
X171527097Y-122239045D01*
X171447102Y-122318900D01*
X169338525Y-122318900D01*
X168152711Y-121133087D01*
X168152809Y-121021129D01*
X168057555Y-120790597D01*
X167881331Y-120614065D01*
X167650965Y-120518409D01*
X167401529Y-120518191D01*
X167170997Y-120613445D01*
X166994465Y-120789669D01*
X166898809Y-121020035D01*
X166898591Y-121269471D01*
X166993845Y-121500003D01*
X167170069Y-121676535D01*
X167400435Y-121772191D01*
X167513466Y-121772290D01*
X168831688Y-123090513D01*
X168978327Y-123188494D01*
X169151300Y-123222900D01*
X171447072Y-123222900D01*
X171526169Y-123302135D01*
X171756535Y-123397791D01*
X172005971Y-123398009D01*
X172141000Y-123342216D01*
X172141000Y-124283334D01*
X172047797Y-124321845D01*
X171871265Y-124498069D01*
X171775609Y-124728435D01*
X171775391Y-124977871D01*
X171870645Y-125208403D01*
X172046869Y-125384935D01*
X172277235Y-125480591D01*
X172526671Y-125480809D01*
X172591965Y-125453830D01*
X172557065Y-125488669D01*
X172461409Y-125719035D01*
X172461191Y-125968471D01*
X172556445Y-126199003D01*
X172732669Y-126375535D01*
X172963035Y-126471191D01*
X173212471Y-126471409D01*
X173443003Y-126376155D01*
X173560807Y-126258557D01*
X173560482Y-126630495D01*
X173746888Y-127081631D01*
X174091747Y-127427093D01*
X174542558Y-127614286D01*
X175030689Y-127614712D01*
X175481825Y-127428306D01*
X175827287Y-127083447D01*
X175895600Y-126918931D01*
X175895600Y-128395763D01*
X175828500Y-128233369D01*
X175483641Y-127887907D01*
X175032830Y-127700714D01*
X174544699Y-127700288D01*
X174093563Y-127886694D01*
X173748101Y-128231553D01*
X173560908Y-128682364D01*
X173560482Y-129170495D01*
X173746888Y-129621631D01*
X174091747Y-129967093D01*
X174542558Y-130154286D01*
X175030689Y-130154712D01*
X175481825Y-129968306D01*
X175827287Y-129623447D01*
X175895600Y-129458931D01*
X175895600Y-130935763D01*
X175828500Y-130773369D01*
X175483641Y-130427907D01*
X175032830Y-130240714D01*
X174544699Y-130240288D01*
X174093563Y-130426694D01*
X173748101Y-130771553D01*
X173560908Y-131222364D01*
X173560482Y-131710495D01*
X173746888Y-132161631D01*
X174091747Y-132507093D01*
X174542558Y-132694286D01*
X175030689Y-132694712D01*
X175481825Y-132508306D01*
X175827287Y-132163447D01*
X175895600Y-131998931D01*
X175895600Y-133475763D01*
X175828500Y-133313369D01*
X175483641Y-132967907D01*
X175032830Y-132780714D01*
X174544699Y-132780288D01*
X174093563Y-132966694D01*
X173748101Y-133311553D01*
X173560908Y-133762364D01*
X173560482Y-134250495D01*
X173746888Y-134701631D01*
X174091747Y-135047093D01*
X174542558Y-135234286D01*
X175030689Y-135234712D01*
X175481825Y-135048306D01*
X175827287Y-134703447D01*
X175895600Y-134538931D01*
X175895600Y-154242700D01*
X150604400Y-154242700D01*
X150604400Y-144383471D01*
X154350991Y-144383471D01*
X154446245Y-144614003D01*
X154622469Y-144790535D01*
X154852835Y-144886191D01*
X154870971Y-144886207D01*
X155067000Y-144925200D01*
X160073098Y-144925200D01*
X162118163Y-146970264D01*
X162167845Y-147090503D01*
X162344069Y-147267035D01*
X162574435Y-147362691D01*
X162823871Y-147362909D01*
X163054403Y-147267655D01*
X163230935Y-147091431D01*
X163326591Y-146861065D01*
X163326809Y-146611629D01*
X163231555Y-146381097D01*
X163055331Y-146204565D01*
X162934146Y-146154245D01*
X160720101Y-143940199D01*
X160532908Y-143815122D01*
X160312100Y-143771199D01*
X160312095Y-143771200D01*
X155376791Y-143771200D01*
X155333731Y-143728065D01*
X155103365Y-143632409D01*
X154853929Y-143632191D01*
X154623397Y-143727445D01*
X154446865Y-143903669D01*
X154351209Y-144134035D01*
X154350991Y-144383471D01*
X150604400Y-144383471D01*
X150604400Y-134250495D01*
X150700482Y-134250495D01*
X150886888Y-134701631D01*
X151231747Y-135047093D01*
X151682558Y-135234286D01*
X152170689Y-135234712D01*
X152621825Y-135048306D01*
X152967287Y-134703447D01*
X153154480Y-134252636D01*
X153154906Y-133764505D01*
X152968500Y-133313369D01*
X152623641Y-132967907D01*
X152485232Y-132910435D01*
X152741842Y-132804143D01*
X152828248Y-132547659D01*
X151927694Y-131647105D01*
X151027140Y-132547659D01*
X151113546Y-132804143D01*
X151385853Y-132903769D01*
X151233563Y-132966694D01*
X150888101Y-133311553D01*
X150700908Y-133762364D01*
X150700482Y-134250495D01*
X150604400Y-134250495D01*
X150604400Y-132286145D01*
X150847535Y-132368054D01*
X151748089Y-131467500D01*
X152107299Y-131467500D01*
X153007853Y-132368054D01*
X153264337Y-132281648D01*
X153474152Y-131708164D01*
X153448533Y-131098040D01*
X153264337Y-130653352D01*
X153007853Y-130566946D01*
X152107299Y-131467500D01*
X151748089Y-131467500D01*
X150847535Y-130566946D01*
X150604400Y-130648855D01*
X150604400Y-129170495D01*
X150700482Y-129170495D01*
X150886888Y-129621631D01*
X151231747Y-129967093D01*
X151370156Y-130024565D01*
X151113546Y-130130857D01*
X151027140Y-130387341D01*
X151927694Y-131287895D01*
X152828248Y-130387341D01*
X152741842Y-130130857D01*
X152469535Y-130031231D01*
X152621825Y-129968306D01*
X152967287Y-129623447D01*
X153154480Y-129172636D01*
X153154906Y-128684505D01*
X152968500Y-128233369D01*
X152623641Y-127887907D01*
X152172830Y-127700714D01*
X151684699Y-127700288D01*
X151233563Y-127886694D01*
X150888101Y-128231553D01*
X150700908Y-128682364D01*
X150700482Y-129170495D01*
X150604400Y-129170495D01*
X150604400Y-126630495D01*
X150700482Y-126630495D01*
X150886888Y-127081631D01*
X151231747Y-127427093D01*
X151682558Y-127614286D01*
X152170689Y-127614712D01*
X152621825Y-127428306D01*
X152967287Y-127083447D01*
X153154480Y-126632636D01*
X153154906Y-126144505D01*
X152968500Y-125693369D01*
X152623641Y-125347907D01*
X152172830Y-125160714D01*
X151684699Y-125160288D01*
X151233563Y-125346694D01*
X150888101Y-125691553D01*
X150700908Y-126142364D01*
X150700482Y-126630495D01*
X150604400Y-126630495D01*
X150604400Y-124090495D01*
X150700482Y-124090495D01*
X150886888Y-124541631D01*
X151231747Y-124887093D01*
X151682558Y-125074286D01*
X152170689Y-125074712D01*
X152621825Y-124888306D01*
X152967287Y-124543447D01*
X153154480Y-124092636D01*
X153154906Y-123604505D01*
X152968500Y-123153369D01*
X152623641Y-122807907D01*
X152172830Y-122620714D01*
X151684699Y-122620288D01*
X151233563Y-122806694D01*
X150888101Y-123151553D01*
X150700908Y-123602364D01*
X150700482Y-124090495D01*
X150604400Y-124090495D01*
X150604400Y-121550495D01*
X150700482Y-121550495D01*
X150886888Y-122001631D01*
X151231747Y-122347093D01*
X151682558Y-122534286D01*
X152170689Y-122534712D01*
X152621825Y-122348306D01*
X152967287Y-122003447D01*
X153154480Y-121552636D01*
X153154906Y-121064505D01*
X152968500Y-120613369D01*
X152623641Y-120267907D01*
X152172830Y-120080714D01*
X151684699Y-120080288D01*
X151233563Y-120266694D01*
X150888101Y-120611553D01*
X150700908Y-121062364D01*
X150700482Y-121550495D01*
X150604400Y-121550495D01*
X150604400Y-119010495D01*
X150700482Y-119010495D01*
X150886888Y-119461631D01*
X151231747Y-119807093D01*
X151682558Y-119994286D01*
X152170689Y-119994712D01*
X152621825Y-119808306D01*
X152967287Y-119463447D01*
X153154480Y-119012636D01*
X153154660Y-118805671D01*
X161793191Y-118805671D01*
X161888445Y-119036203D01*
X161968300Y-119116198D01*
X161968300Y-133705600D01*
X162002706Y-133878573D01*
X162100688Y-134025212D01*
X165260389Y-137184913D01*
X165260291Y-137296871D01*
X165355545Y-137527403D01*
X165531769Y-137703935D01*
X165762135Y-137799591D01*
X166011571Y-137799809D01*
X166242103Y-137704555D01*
X166418635Y-137528331D01*
X166514291Y-137297965D01*
X166514509Y-137048529D01*
X166419255Y-136817997D01*
X166243031Y-136641465D01*
X166012665Y-136545809D01*
X165899634Y-136545710D01*
X162872300Y-133518376D01*
X162872300Y-131162771D01*
X165730191Y-131162771D01*
X165825445Y-131393303D01*
X166001669Y-131569835D01*
X166232035Y-131665491D01*
X166481471Y-131665709D01*
X166712003Y-131570455D01*
X166888535Y-131394231D01*
X166984191Y-131163865D01*
X166984409Y-130914429D01*
X166889155Y-130683897D01*
X166809300Y-130603902D01*
X166809300Y-118112883D01*
X166913935Y-118008431D01*
X167009591Y-117778065D01*
X167009809Y-117528629D01*
X166914555Y-117298097D01*
X166738331Y-117121565D01*
X166507965Y-117025909D01*
X166258529Y-117025691D01*
X166027997Y-117120945D01*
X165851465Y-117297169D01*
X165755809Y-117527535D01*
X165755591Y-117776971D01*
X165850845Y-118007503D01*
X165905300Y-118062053D01*
X165905300Y-130603872D01*
X165826065Y-130682969D01*
X165730409Y-130913335D01*
X165730191Y-131162771D01*
X162872300Y-131162771D01*
X162872300Y-119116228D01*
X162951535Y-119037131D01*
X163047191Y-118806765D01*
X163047409Y-118557329D01*
X162952155Y-118326797D01*
X162775931Y-118150265D01*
X162545565Y-118054609D01*
X162296129Y-118054391D01*
X162065597Y-118149645D01*
X161889065Y-118325869D01*
X161793409Y-118556235D01*
X161793191Y-118805671D01*
X153154660Y-118805671D01*
X153154906Y-118524505D01*
X152968500Y-118073369D01*
X152623641Y-117727907D01*
X152172830Y-117540714D01*
X151684699Y-117540288D01*
X151233563Y-117726694D01*
X150888101Y-118071553D01*
X150700908Y-118522364D01*
X150700482Y-119010495D01*
X150604400Y-119010495D01*
X150604400Y-116470495D01*
X150700482Y-116470495D01*
X150886888Y-116921631D01*
X151231747Y-117267093D01*
X151682558Y-117454286D01*
X152170689Y-117454712D01*
X152621825Y-117268306D01*
X152967287Y-116923447D01*
X153154480Y-116472636D01*
X153154906Y-115984505D01*
X152968500Y-115533369D01*
X152623641Y-115187907D01*
X152172830Y-115000714D01*
X151684699Y-115000288D01*
X151233563Y-115186694D01*
X150888101Y-115531553D01*
X150700908Y-115982364D01*
X150700482Y-116470495D01*
X150604400Y-116470495D01*
X150604400Y-114894071D01*
X158237191Y-114894071D01*
X158332445Y-115124603D01*
X158412300Y-115204598D01*
X158412300Y-117348000D01*
X158446706Y-117520973D01*
X158544688Y-117667612D01*
X158948489Y-118071413D01*
X158948391Y-118183371D01*
X159043645Y-118413903D01*
X159219869Y-118590435D01*
X159450235Y-118686091D01*
X159699671Y-118686309D01*
X159930203Y-118591055D01*
X160106735Y-118414831D01*
X160202391Y-118184465D01*
X160202609Y-117935029D01*
X160107355Y-117704497D01*
X159931131Y-117527965D01*
X159700765Y-117432309D01*
X159587734Y-117432210D01*
X159316300Y-117160776D01*
X159316300Y-115204628D01*
X159395535Y-115125531D01*
X159491191Y-114895165D01*
X159491409Y-114645729D01*
X159396155Y-114415197D01*
X159219931Y-114238665D01*
X158989565Y-114143009D01*
X158740129Y-114142791D01*
X158509597Y-114238045D01*
X158333065Y-114414269D01*
X158237409Y-114644635D01*
X158237191Y-114894071D01*
X150604400Y-114894071D01*
X150604400Y-111479400D01*
X175895600Y-111479400D01*
X175895600Y-115695763D01*
X175895600Y-115695763D01*
G37*
X175895600Y-115695763D02*
X175828500Y-115533369D01*
X175483641Y-115187907D01*
X175032830Y-115000714D01*
X174544699Y-115000288D01*
X174093563Y-115186694D01*
X173748101Y-115531553D01*
X173560908Y-115982364D01*
X173560482Y-116470495D01*
X173746888Y-116921631D01*
X174091747Y-117267093D01*
X174542558Y-117454286D01*
X175030689Y-117454712D01*
X175481825Y-117268306D01*
X175827287Y-116923447D01*
X175895600Y-116758931D01*
X175895600Y-118235763D01*
X175828500Y-118073369D01*
X175483641Y-117727907D01*
X175032830Y-117540714D01*
X174544699Y-117540288D01*
X174093563Y-117726694D01*
X173748101Y-118071553D01*
X173560908Y-118522364D01*
X173560482Y-119010495D01*
X173746888Y-119461631D01*
X174091747Y-119807093D01*
X174542558Y-119994286D01*
X175030689Y-119994712D01*
X175481825Y-119808306D01*
X175827287Y-119463447D01*
X175895600Y-119298931D01*
X175895600Y-120775763D01*
X175828500Y-120613369D01*
X175483641Y-120267907D01*
X175032830Y-120080714D01*
X174544699Y-120080288D01*
X174093563Y-120266694D01*
X173748101Y-120611553D01*
X173560908Y-121062364D01*
X173560482Y-121550495D01*
X173746888Y-122001631D01*
X174091747Y-122347093D01*
X174542558Y-122534286D01*
X175030689Y-122534712D01*
X175481825Y-122348306D01*
X175827287Y-122003447D01*
X175895600Y-121838931D01*
X175895600Y-123315763D01*
X175828500Y-123153369D01*
X175483641Y-122807907D01*
X175032830Y-122620714D01*
X174544699Y-122620288D01*
X174093563Y-122806694D01*
X173748101Y-123151553D01*
X173560908Y-123602364D01*
X173560482Y-124090495D01*
X173746888Y-124541631D01*
X174091747Y-124887093D01*
X174542558Y-125074286D01*
X175030689Y-125074712D01*
X175481825Y-124888306D01*
X175827287Y-124543447D01*
X175895600Y-124378931D01*
X175895600Y-125855763D01*
X175828500Y-125693369D01*
X175483641Y-125347907D01*
X175032830Y-125160714D01*
X174544699Y-125160288D01*
X174093563Y-125346694D01*
X173748101Y-125691553D01*
X173715365Y-125770390D01*
X173715409Y-125720129D01*
X173620155Y-125489597D01*
X173540300Y-125409602D01*
X173540300Y-118441830D01*
X173562791Y-118387665D01*
X173563009Y-118138229D01*
X173467755Y-117907697D01*
X173291531Y-117731165D01*
X173061165Y-117635509D01*
X172811729Y-117635291D01*
X172581197Y-117730545D01*
X172404665Y-117906769D01*
X172309009Y-118137135D01*
X172308791Y-118386571D01*
X172404045Y-118617103D01*
X172580269Y-118793635D01*
X172636300Y-118816901D01*
X172636300Y-121330930D01*
X172591455Y-121222397D01*
X172415231Y-121045865D01*
X172184865Y-120950209D01*
X171935429Y-120949991D01*
X171704897Y-121045245D01*
X171528365Y-121221469D01*
X171432709Y-121451835D01*
X171432491Y-121701271D01*
X171527745Y-121931803D01*
X171703969Y-122108335D01*
X171789424Y-122143819D01*
X171757629Y-122143791D01*
X171527097Y-122239045D01*
X171447102Y-122318900D01*
X169338525Y-122318900D01*
X168152711Y-121133087D01*
X168152809Y-121021129D01*
X168057555Y-120790597D01*
X167881331Y-120614065D01*
X167650965Y-120518409D01*
X167401529Y-120518191D01*
X167170997Y-120613445D01*
X166994465Y-120789669D01*
X166898809Y-121020035D01*
X166898591Y-121269471D01*
X166993845Y-121500003D01*
X167170069Y-121676535D01*
X167400435Y-121772191D01*
X167513466Y-121772290D01*
X168831688Y-123090513D01*
X168978327Y-123188494D01*
X169151300Y-123222900D01*
X171447072Y-123222900D01*
X171526169Y-123302135D01*
X171756535Y-123397791D01*
X172005971Y-123398009D01*
X172141000Y-123342216D01*
X172141000Y-124283334D01*
X172047797Y-124321845D01*
X171871265Y-124498069D01*
X171775609Y-124728435D01*
X171775391Y-124977871D01*
X171870645Y-125208403D01*
X172046869Y-125384935D01*
X172277235Y-125480591D01*
X172526671Y-125480809D01*
X172591965Y-125453830D01*
X172557065Y-125488669D01*
X172461409Y-125719035D01*
X172461191Y-125968471D01*
X172556445Y-126199003D01*
X172732669Y-126375535D01*
X172963035Y-126471191D01*
X173212471Y-126471409D01*
X173443003Y-126376155D01*
X173560807Y-126258557D01*
X173560482Y-126630495D01*
X173746888Y-127081631D01*
X174091747Y-127427093D01*
X174542558Y-127614286D01*
X175030689Y-127614712D01*
X175481825Y-127428306D01*
X175827287Y-127083447D01*
X175895600Y-126918931D01*
X175895600Y-128395763D01*
X175828500Y-128233369D01*
X175483641Y-127887907D01*
X175032830Y-127700714D01*
X174544699Y-127700288D01*
X174093563Y-127886694D01*
X173748101Y-128231553D01*
X173560908Y-128682364D01*
X173560482Y-129170495D01*
X173746888Y-129621631D01*
X174091747Y-129967093D01*
X174542558Y-130154286D01*
X175030689Y-130154712D01*
X175481825Y-129968306D01*
X175827287Y-129623447D01*
X175895600Y-129458931D01*
X175895600Y-130935763D01*
X175828500Y-130773369D01*
X175483641Y-130427907D01*
X175032830Y-130240714D01*
X174544699Y-130240288D01*
X174093563Y-130426694D01*
X173748101Y-130771553D01*
X173560908Y-131222364D01*
X173560482Y-131710495D01*
X173746888Y-132161631D01*
X174091747Y-132507093D01*
X174542558Y-132694286D01*
X175030689Y-132694712D01*
X175481825Y-132508306D01*
X175827287Y-132163447D01*
X175895600Y-131998931D01*
X175895600Y-133475763D01*
X175828500Y-133313369D01*
X175483641Y-132967907D01*
X175032830Y-132780714D01*
X174544699Y-132780288D01*
X174093563Y-132966694D01*
X173748101Y-133311553D01*
X173560908Y-133762364D01*
X173560482Y-134250495D01*
X173746888Y-134701631D01*
X174091747Y-135047093D01*
X174542558Y-135234286D01*
X175030689Y-135234712D01*
X175481825Y-135048306D01*
X175827287Y-134703447D01*
X175895600Y-134538931D01*
X175895600Y-154242700D01*
X150604400Y-154242700D01*
X150604400Y-144383471D01*
X154350991Y-144383471D01*
X154446245Y-144614003D01*
X154622469Y-144790535D01*
X154852835Y-144886191D01*
X154870971Y-144886207D01*
X155067000Y-144925200D01*
X160073098Y-144925200D01*
X162118163Y-146970264D01*
X162167845Y-147090503D01*
X162344069Y-147267035D01*
X162574435Y-147362691D01*
X162823871Y-147362909D01*
X163054403Y-147267655D01*
X163230935Y-147091431D01*
X163326591Y-146861065D01*
X163326809Y-146611629D01*
X163231555Y-146381097D01*
X163055331Y-146204565D01*
X162934146Y-146154245D01*
X160720101Y-143940199D01*
X160532908Y-143815122D01*
X160312100Y-143771199D01*
X160312095Y-143771200D01*
X155376791Y-143771200D01*
X155333731Y-143728065D01*
X155103365Y-143632409D01*
X154853929Y-143632191D01*
X154623397Y-143727445D01*
X154446865Y-143903669D01*
X154351209Y-144134035D01*
X154350991Y-144383471D01*
X150604400Y-144383471D01*
X150604400Y-134250495D01*
X150700482Y-134250495D01*
X150886888Y-134701631D01*
X151231747Y-135047093D01*
X151682558Y-135234286D01*
X152170689Y-135234712D01*
X152621825Y-135048306D01*
X152967287Y-134703447D01*
X153154480Y-134252636D01*
X153154906Y-133764505D01*
X152968500Y-133313369D01*
X152623641Y-132967907D01*
X152485232Y-132910435D01*
X152741842Y-132804143D01*
X152828248Y-132547659D01*
X151927694Y-131647105D01*
X151027140Y-132547659D01*
X151113546Y-132804143D01*
X151385853Y-132903769D01*
X151233563Y-132966694D01*
X150888101Y-133311553D01*
X150700908Y-133762364D01*
X150700482Y-134250495D01*
X150604400Y-134250495D01*
X150604400Y-132286145D01*
X150847535Y-132368054D01*
X151748089Y-131467500D01*
X152107299Y-131467500D01*
X153007853Y-132368054D01*
X153264337Y-132281648D01*
X153474152Y-131708164D01*
X153448533Y-131098040D01*
X153264337Y-130653352D01*
X153007853Y-130566946D01*
X152107299Y-131467500D01*
X151748089Y-131467500D01*
X150847535Y-130566946D01*
X150604400Y-130648855D01*
X150604400Y-129170495D01*
X150700482Y-129170495D01*
X150886888Y-129621631D01*
X151231747Y-129967093D01*
X151370156Y-130024565D01*
X151113546Y-130130857D01*
X151027140Y-130387341D01*
X151927694Y-131287895D01*
X152828248Y-130387341D01*
X152741842Y-130130857D01*
X152469535Y-130031231D01*
X152621825Y-129968306D01*
X152967287Y-129623447D01*
X153154480Y-129172636D01*
X153154906Y-128684505D01*
X152968500Y-128233369D01*
X152623641Y-127887907D01*
X152172830Y-127700714D01*
X151684699Y-127700288D01*
X151233563Y-127886694D01*
X150888101Y-128231553D01*
X150700908Y-128682364D01*
X150700482Y-129170495D01*
X150604400Y-129170495D01*
X150604400Y-126630495D01*
X150700482Y-126630495D01*
X150886888Y-127081631D01*
X151231747Y-127427093D01*
X151682558Y-127614286D01*
X152170689Y-127614712D01*
X152621825Y-127428306D01*
X152967287Y-127083447D01*
X153154480Y-126632636D01*
X153154906Y-126144505D01*
X152968500Y-125693369D01*
X152623641Y-125347907D01*
X152172830Y-125160714D01*
X151684699Y-125160288D01*
X151233563Y-125346694D01*
X150888101Y-125691553D01*
X150700908Y-126142364D01*
X150700482Y-126630495D01*
X150604400Y-126630495D01*
X150604400Y-124090495D01*
X150700482Y-124090495D01*
X150886888Y-124541631D01*
X151231747Y-124887093D01*
X151682558Y-125074286D01*
X152170689Y-125074712D01*
X152621825Y-124888306D01*
X152967287Y-124543447D01*
X153154480Y-124092636D01*
X153154906Y-123604505D01*
X152968500Y-123153369D01*
X152623641Y-122807907D01*
X152172830Y-122620714D01*
X151684699Y-122620288D01*
X151233563Y-122806694D01*
X150888101Y-123151553D01*
X150700908Y-123602364D01*
X150700482Y-124090495D01*
X150604400Y-124090495D01*
X150604400Y-121550495D01*
X150700482Y-121550495D01*
X150886888Y-122001631D01*
X151231747Y-122347093D01*
X151682558Y-122534286D01*
X152170689Y-122534712D01*
X152621825Y-122348306D01*
X152967287Y-122003447D01*
X153154480Y-121552636D01*
X153154906Y-121064505D01*
X152968500Y-120613369D01*
X152623641Y-120267907D01*
X152172830Y-120080714D01*
X151684699Y-120080288D01*
X151233563Y-120266694D01*
X150888101Y-120611553D01*
X150700908Y-121062364D01*
X150700482Y-121550495D01*
X150604400Y-121550495D01*
X150604400Y-119010495D01*
X150700482Y-119010495D01*
X150886888Y-119461631D01*
X151231747Y-119807093D01*
X151682558Y-119994286D01*
X152170689Y-119994712D01*
X152621825Y-119808306D01*
X152967287Y-119463447D01*
X153154480Y-119012636D01*
X153154660Y-118805671D01*
X161793191Y-118805671D01*
X161888445Y-119036203D01*
X161968300Y-119116198D01*
X161968300Y-133705600D01*
X162002706Y-133878573D01*
X162100688Y-134025212D01*
X165260389Y-137184913D01*
X165260291Y-137296871D01*
X165355545Y-137527403D01*
X165531769Y-137703935D01*
X165762135Y-137799591D01*
X166011571Y-137799809D01*
X166242103Y-137704555D01*
X166418635Y-137528331D01*
X166514291Y-137297965D01*
X166514509Y-137048529D01*
X166419255Y-136817997D01*
X166243031Y-136641465D01*
X166012665Y-136545809D01*
X165899634Y-136545710D01*
X162872300Y-133518376D01*
X162872300Y-131162771D01*
X165730191Y-131162771D01*
X165825445Y-131393303D01*
X166001669Y-131569835D01*
X166232035Y-131665491D01*
X166481471Y-131665709D01*
X166712003Y-131570455D01*
X166888535Y-131394231D01*
X166984191Y-131163865D01*
X166984409Y-130914429D01*
X166889155Y-130683897D01*
X166809300Y-130603902D01*
X166809300Y-118112883D01*
X166913935Y-118008431D01*
X167009591Y-117778065D01*
X167009809Y-117528629D01*
X166914555Y-117298097D01*
X166738331Y-117121565D01*
X166507965Y-117025909D01*
X166258529Y-117025691D01*
X166027997Y-117120945D01*
X165851465Y-117297169D01*
X165755809Y-117527535D01*
X165755591Y-117776971D01*
X165850845Y-118007503D01*
X165905300Y-118062053D01*
X165905300Y-130603872D01*
X165826065Y-130682969D01*
X165730409Y-130913335D01*
X165730191Y-131162771D01*
X162872300Y-131162771D01*
X162872300Y-119116228D01*
X162951535Y-119037131D01*
X163047191Y-118806765D01*
X163047409Y-118557329D01*
X162952155Y-118326797D01*
X162775931Y-118150265D01*
X162545565Y-118054609D01*
X162296129Y-118054391D01*
X162065597Y-118149645D01*
X161889065Y-118325869D01*
X161793409Y-118556235D01*
X161793191Y-118805671D01*
X153154660Y-118805671D01*
X153154906Y-118524505D01*
X152968500Y-118073369D01*
X152623641Y-117727907D01*
X152172830Y-117540714D01*
X151684699Y-117540288D01*
X151233563Y-117726694D01*
X150888101Y-118071553D01*
X150700908Y-118522364D01*
X150700482Y-119010495D01*
X150604400Y-119010495D01*
X150604400Y-116470495D01*
X150700482Y-116470495D01*
X150886888Y-116921631D01*
X151231747Y-117267093D01*
X151682558Y-117454286D01*
X152170689Y-117454712D01*
X152621825Y-117268306D01*
X152967287Y-116923447D01*
X153154480Y-116472636D01*
X153154906Y-115984505D01*
X152968500Y-115533369D01*
X152623641Y-115187907D01*
X152172830Y-115000714D01*
X151684699Y-115000288D01*
X151233563Y-115186694D01*
X150888101Y-115531553D01*
X150700908Y-115982364D01*
X150700482Y-116470495D01*
X150604400Y-116470495D01*
X150604400Y-114894071D01*
X158237191Y-114894071D01*
X158332445Y-115124603D01*
X158412300Y-115204598D01*
X158412300Y-117348000D01*
X158446706Y-117520973D01*
X158544688Y-117667612D01*
X158948489Y-118071413D01*
X158948391Y-118183371D01*
X159043645Y-118413903D01*
X159219869Y-118590435D01*
X159450235Y-118686091D01*
X159699671Y-118686309D01*
X159930203Y-118591055D01*
X160106735Y-118414831D01*
X160202391Y-118184465D01*
X160202609Y-117935029D01*
X160107355Y-117704497D01*
X159931131Y-117527965D01*
X159700765Y-117432309D01*
X159587734Y-117432210D01*
X159316300Y-117160776D01*
X159316300Y-115204628D01*
X159395535Y-115125531D01*
X159491191Y-114895165D01*
X159491409Y-114645729D01*
X159396155Y-114415197D01*
X159219931Y-114238665D01*
X158989565Y-114143009D01*
X158740129Y-114142791D01*
X158509597Y-114238045D01*
X158333065Y-114414269D01*
X158237409Y-114644635D01*
X158237191Y-114894071D01*
X150604400Y-114894071D01*
X150604400Y-111479400D01*
X175895600Y-111479400D01*
X175895600Y-115695763D01*
M02*
