G04 #@! TF.FileFunction,Copper,L1,Top,Signal*
%FSLAX46Y46*%
G04 Gerber Fmt 4.6, Leading zero omitted, Abs format (unit mm)*
G04 Created by KiCad (PCBNEW 4.0.6) date Tuesday, October 17, 2017 'PMt' 10:40:20 PM*
%MOMM*%
%LPD*%
G01*
G04 APERTURE LIST*
%ADD10C,0.100000*%
%ADD11C,1.800000*%
%ADD12R,2.350000X1.910000*%
%ADD13R,1.510000X7.110000*%
%ADD14C,1.730000*%
%ADD15R,0.700000X1.300000*%
%ADD16R,1.600000X3.000000*%
%ADD17R,2.000000X3.800000*%
%ADD18R,2.000000X1.500000*%
%ADD19C,0.600000*%
%ADD20C,0.349579*%
%ADD21C,0.250000*%
%ADD22C,0.500000*%
%ADD23C,0.254000*%
G04 APERTURE END LIST*
D10*
D11*
X151927694Y-116227500D03*
X151927694Y-118767500D03*
X151927694Y-121307500D03*
X151927694Y-123847500D03*
X151927694Y-126387500D03*
X151927694Y-128927500D03*
X151927694Y-131467500D03*
X151927694Y-134007500D03*
X174787694Y-134007500D03*
X174787694Y-131467500D03*
X174787694Y-128927500D03*
X174787694Y-126387500D03*
X174787694Y-123847500D03*
X174787694Y-121307500D03*
X174787694Y-118767500D03*
X174787694Y-116227500D03*
D10*
G36*
X153399134Y-150195317D02*
X154338826Y-149853297D01*
X155022866Y-151732683D01*
X154083174Y-152074703D01*
X153399134Y-150195317D01*
X153399134Y-150195317D01*
G37*
G36*
X154083174Y-148153297D02*
X155022866Y-148495317D01*
X154338826Y-150374703D01*
X153399134Y-150032683D01*
X154083174Y-148153297D01*
X154083174Y-148153297D01*
G37*
G36*
X158843174Y-149853297D02*
X159782866Y-150195317D01*
X159098826Y-152074703D01*
X158159134Y-151732683D01*
X158843174Y-149853297D01*
X158843174Y-149853297D01*
G37*
G36*
X158159134Y-148495317D02*
X159098826Y-148153297D01*
X159782866Y-150032683D01*
X158843174Y-150374703D01*
X158159134Y-148495317D01*
X158159134Y-148495317D01*
G37*
G36*
X154298281Y-151499117D02*
X154619675Y-151116095D01*
X155385719Y-151758883D01*
X155064325Y-152141905D01*
X154298281Y-151499117D01*
X154298281Y-151499117D01*
G37*
G36*
X155064325Y-148086095D02*
X155385719Y-148469117D01*
X154619675Y-149111905D01*
X154298281Y-148728883D01*
X155064325Y-148086095D01*
X155064325Y-148086095D01*
G37*
G36*
X158562325Y-151116095D02*
X158883719Y-151499117D01*
X158117675Y-152141905D01*
X157796281Y-151758883D01*
X158562325Y-151116095D01*
X158562325Y-151116095D01*
G37*
G36*
X157796281Y-148469117D02*
X158117675Y-148086095D01*
X158883719Y-148728883D01*
X158562325Y-149111905D01*
X157796281Y-148469117D01*
X157796281Y-148469117D01*
G37*
D12*
X154211000Y-152714000D03*
D13*
X153791000Y-150114000D03*
D12*
X154211000Y-147514000D03*
X158971000Y-152714000D03*
D14*
X156591000Y-150114000D03*
D13*
X159391000Y-150114000D03*
D12*
X158971000Y-147514000D03*
D15*
X161838600Y-114554000D03*
X163738600Y-114554000D03*
X155681600Y-114630200D03*
X157581600Y-114630200D03*
X167904200Y-114681000D03*
X166004200Y-114681000D03*
X167459700Y-119659400D03*
X165559700Y-119659400D03*
X171549100Y-119837200D03*
X169649100Y-119837200D03*
X171904700Y-114769900D03*
X170004700Y-114769900D03*
D16*
X170601400Y-141789700D03*
X170601400Y-125189700D03*
X168601400Y-141789700D03*
X168601400Y-125189700D03*
X166601400Y-141789700D03*
X166601400Y-125189700D03*
X164601400Y-141789700D03*
X164601400Y-125189700D03*
X162601400Y-141789700D03*
X162601400Y-125189700D03*
X160601400Y-141789700D03*
X160601400Y-125189700D03*
X158601400Y-141789700D03*
X158601400Y-125189700D03*
X156601400Y-141789700D03*
X156601400Y-125189700D03*
D17*
X173482400Y-149745700D03*
D18*
X167182400Y-149745700D03*
X167182400Y-152045700D03*
X167182400Y-147445700D03*
D19*
X162420300Y-118681500D03*
X165887400Y-137172700D03*
X158864300Y-114769900D03*
X159575500Y-118059200D03*
X166357300Y-131038600D03*
X166382700Y-117652800D03*
X171881800Y-122770900D03*
X167525700Y-121145300D03*
X172402500Y-124853700D03*
X172059600Y-121577100D03*
X173088300Y-125844300D03*
X172935900Y-118262400D03*
X161404300Y-152908000D03*
X152628600Y-145046700D03*
X170586400Y-127393700D03*
X156552900Y-127965200D03*
X167576500Y-145707100D03*
X162699700Y-146735800D03*
X154978100Y-144259300D03*
D20*
X156591000Y-150114000D02*
X156591000Y-141800100D01*
D21*
X156591000Y-141800100D02*
X156601400Y-141789700D01*
X161399200Y-114993400D02*
X160180000Y-114993400D01*
X154457400Y-127571500D02*
X154457400Y-120716000D01*
X153101400Y-128927500D02*
X154457400Y-127571500D01*
X153101400Y-128927500D02*
X151927694Y-128927500D01*
X160180000Y-114993400D02*
X154457400Y-120716000D01*
X161399200Y-114993400D02*
X161838600Y-114554000D01*
X162420300Y-118681500D02*
X162420300Y-116776500D01*
X163738600Y-115458200D02*
X163738600Y-114554000D01*
X162420300Y-116776500D02*
X163738600Y-115458200D01*
X166601400Y-141789700D02*
X166601400Y-137886700D01*
X162420300Y-118681500D02*
X162481300Y-118620500D01*
X166601400Y-137886700D02*
X165887400Y-137172700D01*
X151927694Y-126387500D02*
X152060000Y-126387500D01*
X152060000Y-126387500D02*
X153670000Y-124777500D01*
X153670000Y-124777500D02*
X153670000Y-116169400D01*
X153670000Y-116169400D02*
X155602900Y-114236500D01*
X160601400Y-125189700D02*
X160601400Y-119085100D01*
X158330900Y-114236500D02*
X157502900Y-114236500D01*
X158864300Y-114769900D02*
X158330900Y-114236500D01*
X160601400Y-119085100D02*
X159575500Y-118059200D01*
X167904200Y-114681000D02*
X167904200Y-116131300D01*
X166786200Y-131467500D02*
X174787694Y-131467500D01*
X166357300Y-131038600D02*
X166786200Y-131467500D01*
X167904200Y-116131300D02*
X166382700Y-117652800D01*
X167904200Y-114681000D02*
X167904200Y-114607300D01*
X162601400Y-125189700D02*
X162601400Y-120545100D01*
X164109400Y-116575800D02*
X166004200Y-114681000D01*
X164109400Y-119037100D02*
X164109400Y-116575800D01*
X162601400Y-120545100D02*
X164109400Y-119037100D01*
X167459700Y-119659400D02*
X167459700Y-121079300D01*
X172958400Y-123847500D02*
X174787694Y-123847500D01*
X171881800Y-122770900D02*
X172958400Y-123847500D01*
X167459700Y-121079300D02*
X167525700Y-121145300D01*
X164601400Y-125189700D02*
X164601400Y-120617700D01*
X164601400Y-120617700D02*
X165559700Y-119659400D01*
X171549100Y-119837200D02*
X171549100Y-121066600D01*
X173444394Y-125044200D02*
X174787694Y-126387500D01*
X172593000Y-125044200D02*
X173444394Y-125044200D01*
X172402500Y-124853700D02*
X172593000Y-125044200D01*
X171549100Y-121066600D02*
X172059600Y-121577100D01*
X168601400Y-125189700D02*
X168601400Y-123206500D01*
X169649100Y-122158800D02*
X169649100Y-119837200D01*
X168601400Y-123206500D02*
X169649100Y-122158800D01*
X171904700Y-114769900D02*
X171904700Y-117231200D01*
X173126400Y-127266206D02*
X174787694Y-128927500D01*
X173126400Y-125882400D02*
X173126400Y-127266206D01*
X173088300Y-125844300D02*
X173126400Y-125882400D01*
X171904700Y-117231200D02*
X172935900Y-118262400D01*
X166601400Y-125189700D02*
X166601400Y-123530100D01*
X168617900Y-116156700D02*
X170004700Y-114769900D01*
X168617900Y-121513600D02*
X168617900Y-116156700D01*
X166601400Y-123530100D02*
X168617900Y-121513600D01*
D22*
X160840000Y-152908000D02*
X161404300Y-152908000D01*
X158971000Y-152714000D02*
X160646000Y-152714000D01*
X160646000Y-152714000D02*
X160840000Y-152908000D01*
X153543000Y-145046700D02*
X152628600Y-145046700D01*
X154211000Y-145714700D02*
X153543000Y-145046700D01*
X154211000Y-149264000D02*
X154211000Y-145714700D01*
X158971000Y-150964000D02*
X158971000Y-142159300D01*
D21*
X158971000Y-142159300D02*
X158601400Y-141789700D01*
X158971000Y-150964000D02*
X158971000Y-152714000D01*
X170586400Y-126954700D02*
X170586400Y-127393700D01*
X170601400Y-125189700D02*
X170601400Y-126939700D01*
X170601400Y-126939700D02*
X170586400Y-126954700D01*
X156552900Y-126988200D02*
X156552900Y-127965200D01*
X156601400Y-125189700D02*
X156601400Y-126939700D01*
X156601400Y-126939700D02*
X156552900Y-126988200D01*
X167182400Y-147445700D02*
X167182400Y-146101200D01*
X167182400Y-146101200D02*
X167576500Y-145707100D01*
X156601400Y-125189700D02*
X156601400Y-126426200D01*
D22*
X167182400Y-149745700D02*
X173482400Y-149745700D01*
D21*
X167182400Y-149745700D02*
X166331900Y-149745700D01*
D22*
X166331900Y-149745700D02*
X164601400Y-148015200D01*
X164601400Y-148015200D02*
X164601400Y-141789700D01*
D21*
X164601400Y-141789700D02*
X164601400Y-143951200D01*
D22*
X174787694Y-142242406D02*
X174787694Y-134007500D01*
X172364400Y-144665700D02*
X174787694Y-142242406D01*
X165315900Y-144665700D02*
X172364400Y-144665700D01*
X164601400Y-143951200D02*
X165315900Y-144665700D01*
X162699700Y-146735800D02*
X163779200Y-147815300D01*
X163779200Y-147815300D02*
X163779200Y-149555200D01*
X163779200Y-149555200D02*
X166269700Y-152045700D01*
X166269700Y-152045700D02*
X167182400Y-152045700D01*
X151927694Y-134007500D02*
X151927694Y-141208894D01*
X151927694Y-141208894D02*
X154978100Y-144259300D01*
D23*
G36*
X175895600Y-115695763D02*
X175828500Y-115533369D01*
X175483641Y-115187907D01*
X175032830Y-115000714D01*
X174544699Y-115000288D01*
X174093563Y-115186694D01*
X173748101Y-115531553D01*
X173560908Y-115982364D01*
X173560482Y-116470495D01*
X173746888Y-116921631D01*
X174091747Y-117267093D01*
X174542558Y-117454286D01*
X175030689Y-117454712D01*
X175481825Y-117268306D01*
X175827287Y-116923447D01*
X175895600Y-116758931D01*
X175895600Y-118235763D01*
X175828500Y-118073369D01*
X175483641Y-117727907D01*
X175032830Y-117540714D01*
X174544699Y-117540288D01*
X174093563Y-117726694D01*
X173748101Y-118071553D01*
X173560908Y-118522364D01*
X173560482Y-119010495D01*
X173746888Y-119461631D01*
X174091747Y-119807093D01*
X174542558Y-119994286D01*
X175030689Y-119994712D01*
X175481825Y-119808306D01*
X175827287Y-119463447D01*
X175895600Y-119298931D01*
X175895600Y-120775763D01*
X175828500Y-120613369D01*
X175483641Y-120267907D01*
X175032830Y-120080714D01*
X174544699Y-120080288D01*
X174093563Y-120266694D01*
X173748101Y-120611553D01*
X173560908Y-121062364D01*
X173560482Y-121550495D01*
X173746888Y-122001631D01*
X174091747Y-122347093D01*
X174542558Y-122534286D01*
X175030689Y-122534712D01*
X175481825Y-122348306D01*
X175827287Y-122003447D01*
X175895600Y-121838931D01*
X175895600Y-123315763D01*
X175828500Y-123153369D01*
X175483641Y-122807907D01*
X175032830Y-122620714D01*
X174544699Y-122620288D01*
X174093563Y-122806694D01*
X173748101Y-123151553D01*
X173646805Y-123395500D01*
X173145624Y-123395500D01*
X172508811Y-122758687D01*
X172508909Y-122646729D01*
X172413655Y-122416197D01*
X172237431Y-122239665D01*
X172151976Y-122204181D01*
X172183771Y-122204209D01*
X172414303Y-122108955D01*
X172590835Y-121932731D01*
X172686491Y-121702365D01*
X172686709Y-121452929D01*
X172591455Y-121222397D01*
X172415231Y-121045865D01*
X172184865Y-120950209D01*
X172071834Y-120950110D01*
X172001100Y-120879376D01*
X172001100Y-120801414D01*
X172020279Y-120797805D01*
X172131574Y-120726188D01*
X172206238Y-120616914D01*
X172232506Y-120487200D01*
X172232506Y-119187200D01*
X172209705Y-119066021D01*
X172138088Y-118954726D01*
X172028814Y-118880062D01*
X171899100Y-118853794D01*
X171199100Y-118853794D01*
X171077921Y-118876595D01*
X170966626Y-118948212D01*
X170891962Y-119057486D01*
X170865694Y-119187200D01*
X170865694Y-120487200D01*
X170888495Y-120608379D01*
X170960112Y-120719674D01*
X171069386Y-120794338D01*
X171097100Y-120799950D01*
X171097100Y-121066600D01*
X171131506Y-121239573D01*
X171229488Y-121386212D01*
X171432589Y-121589313D01*
X171432491Y-121701271D01*
X171527745Y-121931803D01*
X171703969Y-122108335D01*
X171789424Y-122143819D01*
X171757629Y-122143791D01*
X171527097Y-122239045D01*
X171350565Y-122415269D01*
X171254909Y-122645635D01*
X171254691Y-122895071D01*
X171320648Y-123054700D01*
X170887150Y-123054700D01*
X170728400Y-123213450D01*
X170728400Y-125062700D01*
X170748400Y-125062700D01*
X170748400Y-125316700D01*
X170728400Y-125316700D01*
X170728400Y-127165950D01*
X170887150Y-127324700D01*
X171527709Y-127324700D01*
X171761098Y-127228027D01*
X171939727Y-127049399D01*
X172036400Y-126816010D01*
X172036400Y-125475450D01*
X171877652Y-125316702D01*
X171978755Y-125316702D01*
X172046869Y-125384935D01*
X172277235Y-125480591D01*
X172515574Y-125480799D01*
X172556918Y-125489023D01*
X172461409Y-125719035D01*
X172461191Y-125968471D01*
X172556445Y-126199003D01*
X172674400Y-126317164D01*
X172674400Y-127266206D01*
X172708806Y-127439179D01*
X172806788Y-127585818D01*
X173661377Y-128440408D01*
X173560908Y-128682364D01*
X173560482Y-129170495D01*
X173746888Y-129621631D01*
X174091747Y-129967093D01*
X174542558Y-130154286D01*
X175030689Y-130154712D01*
X175481825Y-129968306D01*
X175827287Y-129623447D01*
X175895600Y-129458931D01*
X175895600Y-130935763D01*
X175828500Y-130773369D01*
X175483641Y-130427907D01*
X175032830Y-130240714D01*
X174544699Y-130240288D01*
X174093563Y-130426694D01*
X173748101Y-130771553D01*
X173646805Y-131015500D01*
X166984321Y-131015500D01*
X166984409Y-130914429D01*
X166889155Y-130683897D01*
X166712931Y-130507365D01*
X166482565Y-130411709D01*
X166233129Y-130411491D01*
X166002597Y-130506745D01*
X165826065Y-130682969D01*
X165730409Y-130913335D01*
X165730191Y-131162771D01*
X165825445Y-131393303D01*
X166001669Y-131569835D01*
X166232035Y-131665491D01*
X166345066Y-131665590D01*
X166466588Y-131787112D01*
X166613227Y-131885094D01*
X166786200Y-131919500D01*
X173646841Y-131919500D01*
X173746888Y-132161631D01*
X174091747Y-132507093D01*
X174542558Y-132694286D01*
X175030689Y-132694712D01*
X175481825Y-132508306D01*
X175827287Y-132163447D01*
X175895600Y-131998931D01*
X175895600Y-133475763D01*
X175828500Y-133313369D01*
X175483641Y-132967907D01*
X175032830Y-132780714D01*
X174544699Y-132780288D01*
X174093563Y-132966694D01*
X173748101Y-133311553D01*
X173560908Y-133762364D01*
X173560482Y-134250495D01*
X173746888Y-134701631D01*
X174091747Y-135047093D01*
X174210694Y-135096484D01*
X174210694Y-142003405D01*
X172125398Y-144088700D01*
X165554901Y-144088700D01*
X165178400Y-143712198D01*
X165178400Y-143623106D01*
X165401400Y-143623106D01*
X165522579Y-143600305D01*
X165601981Y-143549211D01*
X165671686Y-143596838D01*
X165801400Y-143623106D01*
X167401400Y-143623106D01*
X167522579Y-143600305D01*
X167601981Y-143549211D01*
X167671686Y-143596838D01*
X167801400Y-143623106D01*
X169401400Y-143623106D01*
X169522579Y-143600305D01*
X169601981Y-143549211D01*
X169671686Y-143596838D01*
X169801400Y-143623106D01*
X171401400Y-143623106D01*
X171522579Y-143600305D01*
X171633874Y-143528688D01*
X171708538Y-143419414D01*
X171734806Y-143289700D01*
X171734806Y-140289700D01*
X171712005Y-140168521D01*
X171640388Y-140057226D01*
X171531114Y-139982562D01*
X171401400Y-139956294D01*
X169801400Y-139956294D01*
X169680221Y-139979095D01*
X169600819Y-140030189D01*
X169531114Y-139982562D01*
X169401400Y-139956294D01*
X167801400Y-139956294D01*
X167680221Y-139979095D01*
X167600819Y-140030189D01*
X167531114Y-139982562D01*
X167401400Y-139956294D01*
X167053400Y-139956294D01*
X167053400Y-137886700D01*
X167018994Y-137713727D01*
X167018994Y-137713726D01*
X166921012Y-137567087D01*
X166514411Y-137160487D01*
X166514509Y-137048529D01*
X166419255Y-136817997D01*
X166243031Y-136641465D01*
X166012665Y-136545809D01*
X165763229Y-136545591D01*
X165532697Y-136640845D01*
X165356165Y-136817069D01*
X165260509Y-137047435D01*
X165260291Y-137296871D01*
X165355545Y-137527403D01*
X165531769Y-137703935D01*
X165762135Y-137799591D01*
X165875165Y-137799690D01*
X166149400Y-138073925D01*
X166149400Y-139956294D01*
X165801400Y-139956294D01*
X165680221Y-139979095D01*
X165600819Y-140030189D01*
X165531114Y-139982562D01*
X165401400Y-139956294D01*
X163801400Y-139956294D01*
X163680221Y-139979095D01*
X163600819Y-140030189D01*
X163531114Y-139982562D01*
X163401400Y-139956294D01*
X161801400Y-139956294D01*
X161680221Y-139979095D01*
X161600819Y-140030189D01*
X161531114Y-139982562D01*
X161401400Y-139956294D01*
X159950618Y-139956294D01*
X159939727Y-139930001D01*
X159761098Y-139751373D01*
X159527709Y-139654700D01*
X158887150Y-139654700D01*
X158728400Y-139813450D01*
X158728400Y-141662700D01*
X158748400Y-141662700D01*
X158748400Y-141916700D01*
X158728400Y-141916700D01*
X158728400Y-143765950D01*
X158887150Y-143924700D01*
X159527709Y-143924700D01*
X159761098Y-143828027D01*
X159939727Y-143649399D01*
X159950618Y-143623106D01*
X161401400Y-143623106D01*
X161522579Y-143600305D01*
X161601981Y-143549211D01*
X161671686Y-143596838D01*
X161801400Y-143623106D01*
X163401400Y-143623106D01*
X163522579Y-143600305D01*
X163601981Y-143549211D01*
X163671686Y-143596838D01*
X163801400Y-143623106D01*
X164024400Y-143623106D01*
X164024400Y-143951195D01*
X164024399Y-143951200D01*
X164024400Y-143951205D01*
X164024400Y-147244499D01*
X163281236Y-146501334D01*
X163231555Y-146381097D01*
X163055331Y-146204565D01*
X162824965Y-146108909D01*
X162575529Y-146108691D01*
X162344997Y-146203945D01*
X162168465Y-146380169D01*
X162072809Y-146610535D01*
X162072591Y-146859971D01*
X162167845Y-147090503D01*
X162344069Y-147267035D01*
X162465253Y-147317355D01*
X163202200Y-148054301D01*
X163202200Y-149555195D01*
X163202199Y-149555200D01*
X163246122Y-149776008D01*
X163371199Y-149963201D01*
X165848994Y-152440996D01*
X165848994Y-152795700D01*
X165871795Y-152916879D01*
X165943412Y-153028174D01*
X166052686Y-153102838D01*
X166182400Y-153129106D01*
X168182400Y-153129106D01*
X168303579Y-153106305D01*
X168414874Y-153034688D01*
X168489538Y-152925414D01*
X168515806Y-152795700D01*
X168515806Y-151295700D01*
X168493005Y-151174521D01*
X168421388Y-151063226D01*
X168312114Y-150988562D01*
X168182400Y-150962294D01*
X166182400Y-150962294D01*
X166061221Y-150985095D01*
X166039241Y-150999239D01*
X164356200Y-149316198D01*
X164356200Y-148586002D01*
X165848994Y-150078795D01*
X165848994Y-150495700D01*
X165871795Y-150616879D01*
X165943412Y-150728174D01*
X166052686Y-150802838D01*
X166182400Y-150829106D01*
X168182400Y-150829106D01*
X168303579Y-150806305D01*
X168414874Y-150734688D01*
X168489538Y-150625414D01*
X168515806Y-150495700D01*
X168515806Y-150322700D01*
X172148994Y-150322700D01*
X172148994Y-151645700D01*
X172171795Y-151766879D01*
X172243412Y-151878174D01*
X172352686Y-151952838D01*
X172482400Y-151979106D01*
X174482400Y-151979106D01*
X174603579Y-151956305D01*
X174714874Y-151884688D01*
X174789538Y-151775414D01*
X174815806Y-151645700D01*
X174815806Y-147845700D01*
X174793005Y-147724521D01*
X174721388Y-147613226D01*
X174612114Y-147538562D01*
X174482400Y-147512294D01*
X172482400Y-147512294D01*
X172361221Y-147535095D01*
X172249926Y-147606712D01*
X172175262Y-147715986D01*
X172148994Y-147845700D01*
X172148994Y-149168700D01*
X168515806Y-149168700D01*
X168515806Y-148995700D01*
X168493005Y-148874521D01*
X168431956Y-148779649D01*
X168542098Y-148734027D01*
X168720727Y-148555399D01*
X168817400Y-148322010D01*
X168817400Y-147731450D01*
X168658650Y-147572700D01*
X167309400Y-147572700D01*
X167309400Y-147592700D01*
X167055400Y-147592700D01*
X167055400Y-147572700D01*
X165706150Y-147572700D01*
X165547400Y-147731450D01*
X165547400Y-148145198D01*
X165178400Y-147776198D01*
X165178400Y-146569390D01*
X165547400Y-146569390D01*
X165547400Y-147159950D01*
X165706150Y-147318700D01*
X167055400Y-147318700D01*
X167055400Y-146219450D01*
X167309400Y-146219450D01*
X167309400Y-147318700D01*
X168658650Y-147318700D01*
X168817400Y-147159950D01*
X168817400Y-146569390D01*
X168720727Y-146336001D01*
X168542098Y-146157373D01*
X168308709Y-146060700D01*
X167468150Y-146060700D01*
X167309400Y-146219450D01*
X167055400Y-146219450D01*
X166896650Y-146060700D01*
X166056091Y-146060700D01*
X165822702Y-146157373D01*
X165644073Y-146336001D01*
X165547400Y-146569390D01*
X165178400Y-146569390D01*
X165178400Y-145215350D01*
X165315900Y-145242701D01*
X165315905Y-145242700D01*
X172364395Y-145242700D01*
X172364400Y-145242701D01*
X172585208Y-145198778D01*
X172772401Y-145073701D01*
X175195692Y-142650409D01*
X175195695Y-142650407D01*
X175320772Y-142463214D01*
X175364694Y-142242406D01*
X175364694Y-135096704D01*
X175481825Y-135048306D01*
X175827287Y-134703447D01*
X175895600Y-134538931D01*
X175895600Y-154242700D01*
X160420300Y-154242700D01*
X160505698Y-154207327D01*
X160684327Y-154028699D01*
X160781000Y-153795310D01*
X160781000Y-150399750D01*
X160622250Y-150241000D01*
X160420465Y-150241000D01*
X160414920Y-150114000D01*
X160420465Y-149987000D01*
X160622250Y-149987000D01*
X160781000Y-149828250D01*
X160781000Y-146432690D01*
X160684327Y-146199301D01*
X160505698Y-146020673D01*
X160272309Y-145924000D01*
X159256750Y-145924000D01*
X159181000Y-145999750D01*
X159105250Y-145924000D01*
X157669691Y-145924000D01*
X157436302Y-146020673D01*
X157410500Y-146046475D01*
X157410500Y-143796825D01*
X157441702Y-143828027D01*
X157675091Y-143924700D01*
X158315650Y-143924700D01*
X158474400Y-143765950D01*
X158474400Y-141916700D01*
X158454400Y-141916700D01*
X158454400Y-141662700D01*
X158474400Y-141662700D01*
X158474400Y-139813450D01*
X158315650Y-139654700D01*
X157675091Y-139654700D01*
X157441702Y-139751373D01*
X157263073Y-139930001D01*
X157252182Y-139956294D01*
X155801400Y-139956294D01*
X155680221Y-139979095D01*
X155568926Y-140050712D01*
X155494262Y-140159986D01*
X155467994Y-140289700D01*
X155467994Y-143289700D01*
X155490795Y-143410879D01*
X155562412Y-143522174D01*
X155671686Y-143596838D01*
X155771400Y-143617031D01*
X155771400Y-146046375D01*
X155745698Y-146020673D01*
X155512309Y-145924000D01*
X154076750Y-145924000D01*
X154001000Y-145999750D01*
X153925250Y-145924000D01*
X152909691Y-145924000D01*
X152676302Y-146020673D01*
X152497673Y-146199301D01*
X152401000Y-146432690D01*
X152401000Y-149828250D01*
X152559750Y-149987000D01*
X152761535Y-149987000D01*
X152767080Y-150114000D01*
X152761535Y-150241000D01*
X152559750Y-150241000D01*
X152401000Y-150399750D01*
X152401000Y-153795310D01*
X152497673Y-154028699D01*
X152676302Y-154207327D01*
X152761700Y-154242700D01*
X150604400Y-154242700D01*
X150604400Y-134250495D01*
X150700482Y-134250495D01*
X150886888Y-134701631D01*
X151231747Y-135047093D01*
X151350694Y-135096484D01*
X151350694Y-141208889D01*
X151350693Y-141208894D01*
X151394616Y-141429702D01*
X151519693Y-141616895D01*
X154396563Y-144493764D01*
X154446245Y-144614003D01*
X154622469Y-144790535D01*
X154852835Y-144886191D01*
X155102271Y-144886409D01*
X155332803Y-144791155D01*
X155509335Y-144614931D01*
X155604991Y-144384565D01*
X155605209Y-144135129D01*
X155509955Y-143904597D01*
X155333731Y-143728065D01*
X155212546Y-143677745D01*
X152504694Y-140969892D01*
X152504694Y-135096704D01*
X152621825Y-135048306D01*
X152967287Y-134703447D01*
X153154480Y-134252636D01*
X153154906Y-133764505D01*
X152968500Y-133313369D01*
X152623641Y-132967907D01*
X152485232Y-132910435D01*
X152741842Y-132804143D01*
X152828248Y-132547659D01*
X151927694Y-131647105D01*
X151027140Y-132547659D01*
X151113546Y-132804143D01*
X151385853Y-132903769D01*
X151233563Y-132966694D01*
X150888101Y-133311553D01*
X150700908Y-133762364D01*
X150700482Y-134250495D01*
X150604400Y-134250495D01*
X150604400Y-132286145D01*
X150847535Y-132368054D01*
X151748089Y-131467500D01*
X152107299Y-131467500D01*
X153007853Y-132368054D01*
X153264337Y-132281648D01*
X153474152Y-131708164D01*
X153448533Y-131098040D01*
X153264337Y-130653352D01*
X153007853Y-130566946D01*
X152107299Y-131467500D01*
X151748089Y-131467500D01*
X150847535Y-130566946D01*
X150604400Y-130648855D01*
X150604400Y-126630495D01*
X150700482Y-126630495D01*
X150886888Y-127081631D01*
X151231747Y-127427093D01*
X151682558Y-127614286D01*
X152170689Y-127614712D01*
X152621825Y-127428306D01*
X152967287Y-127083447D01*
X153154480Y-126632636D01*
X153154906Y-126144505D01*
X153092720Y-125994004D01*
X153989612Y-125097112D01*
X154005400Y-125073484D01*
X154005400Y-127384275D01*
X153023411Y-128366264D01*
X152968500Y-128233369D01*
X152623641Y-127887907D01*
X152172830Y-127700714D01*
X151684699Y-127700288D01*
X151233563Y-127886694D01*
X150888101Y-128231553D01*
X150700908Y-128682364D01*
X150700482Y-129170495D01*
X150886888Y-129621631D01*
X151231747Y-129967093D01*
X151370156Y-130024565D01*
X151113546Y-130130857D01*
X151027140Y-130387341D01*
X151927694Y-131287895D01*
X152828248Y-130387341D01*
X152741842Y-130130857D01*
X152469535Y-130031231D01*
X152621825Y-129968306D01*
X152967287Y-129623447D01*
X153068583Y-129379500D01*
X153101400Y-129379500D01*
X153274373Y-129345094D01*
X153421012Y-129247112D01*
X154777013Y-127891112D01*
X154874994Y-127744473D01*
X154909400Y-127571500D01*
X154909400Y-125475450D01*
X155166400Y-125475450D01*
X155166400Y-126816010D01*
X155263073Y-127049399D01*
X155441702Y-127228027D01*
X155675091Y-127324700D01*
X156315650Y-127324700D01*
X156474400Y-127165950D01*
X156474400Y-125316700D01*
X155325150Y-125316700D01*
X155166400Y-125475450D01*
X154909400Y-125475450D01*
X154909400Y-123563390D01*
X155166400Y-123563390D01*
X155166400Y-124903950D01*
X155325150Y-125062700D01*
X156474400Y-125062700D01*
X156474400Y-123213450D01*
X156728400Y-123213450D01*
X156728400Y-125062700D01*
X156748400Y-125062700D01*
X156748400Y-125316700D01*
X156728400Y-125316700D01*
X156728400Y-127165950D01*
X156887150Y-127324700D01*
X157527709Y-127324700D01*
X157761098Y-127228027D01*
X157939727Y-127049399D01*
X157950618Y-127023106D01*
X159401400Y-127023106D01*
X159522579Y-127000305D01*
X159601981Y-126949211D01*
X159671686Y-126996838D01*
X159801400Y-127023106D01*
X161401400Y-127023106D01*
X161522579Y-127000305D01*
X161601981Y-126949211D01*
X161671686Y-126996838D01*
X161801400Y-127023106D01*
X163401400Y-127023106D01*
X163522579Y-127000305D01*
X163601981Y-126949211D01*
X163671686Y-126996838D01*
X163801400Y-127023106D01*
X165401400Y-127023106D01*
X165522579Y-127000305D01*
X165601981Y-126949211D01*
X165671686Y-126996838D01*
X165801400Y-127023106D01*
X167401400Y-127023106D01*
X167522579Y-127000305D01*
X167601981Y-126949211D01*
X167671686Y-126996838D01*
X167801400Y-127023106D01*
X169252182Y-127023106D01*
X169263073Y-127049399D01*
X169441702Y-127228027D01*
X169675091Y-127324700D01*
X170315650Y-127324700D01*
X170474400Y-127165950D01*
X170474400Y-125316700D01*
X170454400Y-125316700D01*
X170454400Y-125062700D01*
X170474400Y-125062700D01*
X170474400Y-123213450D01*
X170315650Y-123054700D01*
X169675091Y-123054700D01*
X169441702Y-123151373D01*
X169263073Y-123330001D01*
X169252182Y-123356294D01*
X169090830Y-123356294D01*
X169968713Y-122478412D01*
X170066694Y-122331773D01*
X170101100Y-122158800D01*
X170101100Y-120801414D01*
X170120279Y-120797805D01*
X170231574Y-120726188D01*
X170306238Y-120616914D01*
X170332506Y-120487200D01*
X170332506Y-119187200D01*
X170309705Y-119066021D01*
X170238088Y-118954726D01*
X170128814Y-118880062D01*
X169999100Y-118853794D01*
X169299100Y-118853794D01*
X169177921Y-118876595D01*
X169069900Y-118946105D01*
X169069900Y-116343924D01*
X169660519Y-115753306D01*
X170354700Y-115753306D01*
X170475879Y-115730505D01*
X170587174Y-115658888D01*
X170661838Y-115549614D01*
X170688106Y-115419900D01*
X170688106Y-114119900D01*
X171221294Y-114119900D01*
X171221294Y-115419900D01*
X171244095Y-115541079D01*
X171315712Y-115652374D01*
X171424986Y-115727038D01*
X171452700Y-115732650D01*
X171452700Y-117231200D01*
X171487106Y-117404173D01*
X171585088Y-117550812D01*
X172308889Y-118274613D01*
X172308791Y-118386571D01*
X172404045Y-118617103D01*
X172580269Y-118793635D01*
X172810635Y-118889291D01*
X173060071Y-118889509D01*
X173290603Y-118794255D01*
X173467135Y-118618031D01*
X173562791Y-118387665D01*
X173563009Y-118138229D01*
X173467755Y-117907697D01*
X173291531Y-117731165D01*
X173061165Y-117635509D01*
X172948134Y-117635410D01*
X172356700Y-117043976D01*
X172356700Y-115734114D01*
X172375879Y-115730505D01*
X172487174Y-115658888D01*
X172561838Y-115549614D01*
X172588106Y-115419900D01*
X172588106Y-114119900D01*
X172565305Y-113998721D01*
X172493688Y-113887426D01*
X172384414Y-113812762D01*
X172254700Y-113786494D01*
X171554700Y-113786494D01*
X171433521Y-113809295D01*
X171322226Y-113880912D01*
X171247562Y-113990186D01*
X171221294Y-114119900D01*
X170688106Y-114119900D01*
X170665305Y-113998721D01*
X170593688Y-113887426D01*
X170484414Y-113812762D01*
X170354700Y-113786494D01*
X169654700Y-113786494D01*
X169533521Y-113809295D01*
X169422226Y-113880912D01*
X169347562Y-113990186D01*
X169321294Y-114119900D01*
X169321294Y-114814081D01*
X168356200Y-115779176D01*
X168356200Y-115645214D01*
X168375379Y-115641605D01*
X168486674Y-115569988D01*
X168561338Y-115460714D01*
X168587606Y-115331000D01*
X168587606Y-114031000D01*
X168564805Y-113909821D01*
X168493188Y-113798526D01*
X168383914Y-113723862D01*
X168254200Y-113697594D01*
X167554200Y-113697594D01*
X167433021Y-113720395D01*
X167321726Y-113792012D01*
X167247062Y-113901286D01*
X167220794Y-114031000D01*
X167220794Y-115331000D01*
X167243595Y-115452179D01*
X167315212Y-115563474D01*
X167424486Y-115638138D01*
X167452200Y-115643750D01*
X167452200Y-115944076D01*
X166370487Y-117025789D01*
X166258529Y-117025691D01*
X166027997Y-117120945D01*
X165851465Y-117297169D01*
X165755809Y-117527535D01*
X165755591Y-117776971D01*
X165850845Y-118007503D01*
X166027069Y-118184035D01*
X166257435Y-118279691D01*
X166506871Y-118279909D01*
X166737403Y-118184655D01*
X166913935Y-118008431D01*
X167009591Y-117778065D01*
X167009690Y-117665034D01*
X168165900Y-116508824D01*
X168165900Y-121326375D01*
X168103510Y-121388765D01*
X168152591Y-121270565D01*
X168152809Y-121021129D01*
X168057555Y-120790597D01*
X167911700Y-120644487D01*
X167911700Y-120623614D01*
X167930879Y-120620005D01*
X168042174Y-120548388D01*
X168116838Y-120439114D01*
X168143106Y-120309400D01*
X168143106Y-119009400D01*
X168120305Y-118888221D01*
X168048688Y-118776926D01*
X167939414Y-118702262D01*
X167809700Y-118675994D01*
X167109700Y-118675994D01*
X166988521Y-118698795D01*
X166877226Y-118770412D01*
X166802562Y-118879686D01*
X166776294Y-119009400D01*
X166776294Y-120309400D01*
X166799095Y-120430579D01*
X166870712Y-120541874D01*
X166979986Y-120616538D01*
X167007700Y-120622150D01*
X167007700Y-120776457D01*
X166994465Y-120789669D01*
X166898809Y-121020035D01*
X166898591Y-121269471D01*
X166993845Y-121500003D01*
X167170069Y-121676535D01*
X167400435Y-121772191D01*
X167649871Y-121772409D01*
X167769152Y-121723123D01*
X166281788Y-123210488D01*
X166184363Y-123356294D01*
X165801400Y-123356294D01*
X165680221Y-123379095D01*
X165600819Y-123430189D01*
X165531114Y-123382562D01*
X165401400Y-123356294D01*
X165053400Y-123356294D01*
X165053400Y-120804924D01*
X165215518Y-120642806D01*
X165909700Y-120642806D01*
X166030879Y-120620005D01*
X166142174Y-120548388D01*
X166216838Y-120439114D01*
X166243106Y-120309400D01*
X166243106Y-119009400D01*
X166220305Y-118888221D01*
X166148688Y-118776926D01*
X166039414Y-118702262D01*
X165909700Y-118675994D01*
X165209700Y-118675994D01*
X165088521Y-118698795D01*
X164977226Y-118770412D01*
X164902562Y-118879686D01*
X164876294Y-119009400D01*
X164876294Y-119703582D01*
X164281788Y-120298088D01*
X164183806Y-120444727D01*
X164149400Y-120617700D01*
X164149400Y-123356294D01*
X163801400Y-123356294D01*
X163680221Y-123379095D01*
X163600819Y-123430189D01*
X163531114Y-123382562D01*
X163401400Y-123356294D01*
X163053400Y-123356294D01*
X163053400Y-120732324D01*
X164429012Y-119356712D01*
X164526994Y-119210073D01*
X164561400Y-119037100D01*
X164561400Y-116763024D01*
X165660018Y-115664406D01*
X166354200Y-115664406D01*
X166475379Y-115641605D01*
X166586674Y-115569988D01*
X166661338Y-115460714D01*
X166687606Y-115331000D01*
X166687606Y-114031000D01*
X166664805Y-113909821D01*
X166593188Y-113798526D01*
X166483914Y-113723862D01*
X166354200Y-113697594D01*
X165654200Y-113697594D01*
X165533021Y-113720395D01*
X165421726Y-113792012D01*
X165347062Y-113901286D01*
X165320794Y-114031000D01*
X165320794Y-114725182D01*
X163789788Y-116256188D01*
X163691806Y-116402827D01*
X163657400Y-116575800D01*
X163657400Y-118849876D01*
X162281788Y-120225488D01*
X162183806Y-120372127D01*
X162149400Y-120545100D01*
X162149400Y-123356294D01*
X161801400Y-123356294D01*
X161680221Y-123379095D01*
X161600819Y-123430189D01*
X161531114Y-123382562D01*
X161401400Y-123356294D01*
X161053400Y-123356294D01*
X161053400Y-119085100D01*
X161018994Y-118912127D01*
X160947862Y-118805671D01*
X161793191Y-118805671D01*
X161888445Y-119036203D01*
X162064669Y-119212735D01*
X162295035Y-119308391D01*
X162544471Y-119308609D01*
X162775003Y-119213355D01*
X162951535Y-119037131D01*
X163047191Y-118806765D01*
X163047409Y-118557329D01*
X162952155Y-118326797D01*
X162872300Y-118246802D01*
X162872300Y-116963724D01*
X164058212Y-115777812D01*
X164156194Y-115631173D01*
X164178199Y-115520547D01*
X164209779Y-115514605D01*
X164321074Y-115442988D01*
X164395738Y-115333714D01*
X164422006Y-115204000D01*
X164422006Y-113904000D01*
X164399205Y-113782821D01*
X164327588Y-113671526D01*
X164218314Y-113596862D01*
X164088600Y-113570594D01*
X163388600Y-113570594D01*
X163267421Y-113593395D01*
X163156126Y-113665012D01*
X163081462Y-113774286D01*
X163055194Y-113904000D01*
X163055194Y-115204000D01*
X163077995Y-115325179D01*
X163138449Y-115419127D01*
X162100688Y-116456888D01*
X162002706Y-116603527D01*
X161968300Y-116776500D01*
X161968300Y-118246772D01*
X161889065Y-118325869D01*
X161793409Y-118556235D01*
X161793191Y-118805671D01*
X160947862Y-118805671D01*
X160921012Y-118765488D01*
X160202511Y-118046987D01*
X160202609Y-117935029D01*
X160107355Y-117704497D01*
X159931131Y-117527965D01*
X159700765Y-117432309D01*
X159451329Y-117432091D01*
X159220797Y-117527345D01*
X159044265Y-117703569D01*
X158948609Y-117933935D01*
X158948391Y-118183371D01*
X159043645Y-118413903D01*
X159219869Y-118590435D01*
X159450235Y-118686091D01*
X159563266Y-118686190D01*
X160149400Y-119272324D01*
X160149400Y-123356294D01*
X159801400Y-123356294D01*
X159680221Y-123379095D01*
X159600819Y-123430189D01*
X159531114Y-123382562D01*
X159401400Y-123356294D01*
X157950618Y-123356294D01*
X157939727Y-123330001D01*
X157761098Y-123151373D01*
X157527709Y-123054700D01*
X156887150Y-123054700D01*
X156728400Y-123213450D01*
X156474400Y-123213450D01*
X156315650Y-123054700D01*
X155675091Y-123054700D01*
X155441702Y-123151373D01*
X155263073Y-123330001D01*
X155166400Y-123563390D01*
X154909400Y-123563390D01*
X154909400Y-120903224D01*
X160367225Y-115445400D01*
X161262676Y-115445400D01*
X161358886Y-115511138D01*
X161488600Y-115537406D01*
X162188600Y-115537406D01*
X162309779Y-115514605D01*
X162421074Y-115442988D01*
X162495738Y-115333714D01*
X162522006Y-115204000D01*
X162522006Y-113904000D01*
X162499205Y-113782821D01*
X162427588Y-113671526D01*
X162318314Y-113596862D01*
X162188600Y-113570594D01*
X161488600Y-113570594D01*
X161367421Y-113593395D01*
X161256126Y-113665012D01*
X161181462Y-113774286D01*
X161155194Y-113904000D01*
X161155194Y-114541400D01*
X160180000Y-114541400D01*
X160007027Y-114575806D01*
X159860388Y-114673787D01*
X154137788Y-120396388D01*
X154122000Y-120420016D01*
X154122000Y-116356624D01*
X155043019Y-115435605D01*
X155092612Y-115512674D01*
X155201886Y-115587338D01*
X155331600Y-115613606D01*
X156031600Y-115613606D01*
X156152779Y-115590805D01*
X156264074Y-115519188D01*
X156338738Y-115409914D01*
X156365006Y-115280200D01*
X156365006Y-113980200D01*
X156898194Y-113980200D01*
X156898194Y-115280200D01*
X156920995Y-115401379D01*
X156992612Y-115512674D01*
X157101886Y-115587338D01*
X157231600Y-115613606D01*
X157931600Y-115613606D01*
X158052779Y-115590805D01*
X158164074Y-115519188D01*
X158238738Y-115409914D01*
X158265006Y-115280200D01*
X158265006Y-114961388D01*
X158332445Y-115124603D01*
X158508669Y-115301135D01*
X158739035Y-115396791D01*
X158988471Y-115397009D01*
X159219003Y-115301755D01*
X159395535Y-115125531D01*
X159491191Y-114895165D01*
X159491409Y-114645729D01*
X159396155Y-114415197D01*
X159219931Y-114238665D01*
X158989565Y-114143009D01*
X158876535Y-114142910D01*
X158650512Y-113916888D01*
X158503873Y-113818906D01*
X158330900Y-113784500D01*
X158194252Y-113784500D01*
X158170588Y-113747726D01*
X158061314Y-113673062D01*
X157931600Y-113646794D01*
X157231600Y-113646794D01*
X157110421Y-113669595D01*
X156999126Y-113741212D01*
X156924462Y-113850486D01*
X156898194Y-113980200D01*
X156365006Y-113980200D01*
X156342205Y-113859021D01*
X156270588Y-113747726D01*
X156161314Y-113673062D01*
X156031600Y-113646794D01*
X155331600Y-113646794D01*
X155210421Y-113669595D01*
X155099126Y-113741212D01*
X155024462Y-113850486D01*
X154998194Y-113980200D01*
X154998194Y-114201981D01*
X153350388Y-115849788D01*
X153252406Y-115996427D01*
X153218000Y-116169400D01*
X153218000Y-124590276D01*
X152508274Y-125300002D01*
X152172830Y-125160714D01*
X151684699Y-125160288D01*
X151233563Y-125346694D01*
X150888101Y-125691553D01*
X150700908Y-126142364D01*
X150700482Y-126630495D01*
X150604400Y-126630495D01*
X150604400Y-124090495D01*
X150700482Y-124090495D01*
X150886888Y-124541631D01*
X151231747Y-124887093D01*
X151682558Y-125074286D01*
X152170689Y-125074712D01*
X152621825Y-124888306D01*
X152967287Y-124543447D01*
X153154480Y-124092636D01*
X153154906Y-123604505D01*
X152968500Y-123153369D01*
X152623641Y-122807907D01*
X152172830Y-122620714D01*
X151684699Y-122620288D01*
X151233563Y-122806694D01*
X150888101Y-123151553D01*
X150700908Y-123602364D01*
X150700482Y-124090495D01*
X150604400Y-124090495D01*
X150604400Y-121550495D01*
X150700482Y-121550495D01*
X150886888Y-122001631D01*
X151231747Y-122347093D01*
X151682558Y-122534286D01*
X152170689Y-122534712D01*
X152621825Y-122348306D01*
X152967287Y-122003447D01*
X153154480Y-121552636D01*
X153154906Y-121064505D01*
X152968500Y-120613369D01*
X152623641Y-120267907D01*
X152172830Y-120080714D01*
X151684699Y-120080288D01*
X151233563Y-120266694D01*
X150888101Y-120611553D01*
X150700908Y-121062364D01*
X150700482Y-121550495D01*
X150604400Y-121550495D01*
X150604400Y-119010495D01*
X150700482Y-119010495D01*
X150886888Y-119461631D01*
X151231747Y-119807093D01*
X151682558Y-119994286D01*
X152170689Y-119994712D01*
X152621825Y-119808306D01*
X152967287Y-119463447D01*
X153154480Y-119012636D01*
X153154906Y-118524505D01*
X152968500Y-118073369D01*
X152623641Y-117727907D01*
X152172830Y-117540714D01*
X151684699Y-117540288D01*
X151233563Y-117726694D01*
X150888101Y-118071553D01*
X150700908Y-118522364D01*
X150700482Y-119010495D01*
X150604400Y-119010495D01*
X150604400Y-116470495D01*
X150700482Y-116470495D01*
X150886888Y-116921631D01*
X151231747Y-117267093D01*
X151682558Y-117454286D01*
X152170689Y-117454712D01*
X152621825Y-117268306D01*
X152967287Y-116923447D01*
X153154480Y-116472636D01*
X153154906Y-115984505D01*
X152968500Y-115533369D01*
X152623641Y-115187907D01*
X152172830Y-115000714D01*
X151684699Y-115000288D01*
X151233563Y-115186694D01*
X150888101Y-115531553D01*
X150700908Y-115982364D01*
X150700482Y-116470495D01*
X150604400Y-116470495D01*
X150604400Y-111479400D01*
X175895600Y-111479400D01*
X175895600Y-115695763D01*
X175895600Y-115695763D01*
G37*
X175895600Y-115695763D02*
X175828500Y-115533369D01*
X175483641Y-115187907D01*
X175032830Y-115000714D01*
X174544699Y-115000288D01*
X174093563Y-115186694D01*
X173748101Y-115531553D01*
X173560908Y-115982364D01*
X173560482Y-116470495D01*
X173746888Y-116921631D01*
X174091747Y-117267093D01*
X174542558Y-117454286D01*
X175030689Y-117454712D01*
X175481825Y-117268306D01*
X175827287Y-116923447D01*
X175895600Y-116758931D01*
X175895600Y-118235763D01*
X175828500Y-118073369D01*
X175483641Y-117727907D01*
X175032830Y-117540714D01*
X174544699Y-117540288D01*
X174093563Y-117726694D01*
X173748101Y-118071553D01*
X173560908Y-118522364D01*
X173560482Y-119010495D01*
X173746888Y-119461631D01*
X174091747Y-119807093D01*
X174542558Y-119994286D01*
X175030689Y-119994712D01*
X175481825Y-119808306D01*
X175827287Y-119463447D01*
X175895600Y-119298931D01*
X175895600Y-120775763D01*
X175828500Y-120613369D01*
X175483641Y-120267907D01*
X175032830Y-120080714D01*
X174544699Y-120080288D01*
X174093563Y-120266694D01*
X173748101Y-120611553D01*
X173560908Y-121062364D01*
X173560482Y-121550495D01*
X173746888Y-122001631D01*
X174091747Y-122347093D01*
X174542558Y-122534286D01*
X175030689Y-122534712D01*
X175481825Y-122348306D01*
X175827287Y-122003447D01*
X175895600Y-121838931D01*
X175895600Y-123315763D01*
X175828500Y-123153369D01*
X175483641Y-122807907D01*
X175032830Y-122620714D01*
X174544699Y-122620288D01*
X174093563Y-122806694D01*
X173748101Y-123151553D01*
X173646805Y-123395500D01*
X173145624Y-123395500D01*
X172508811Y-122758687D01*
X172508909Y-122646729D01*
X172413655Y-122416197D01*
X172237431Y-122239665D01*
X172151976Y-122204181D01*
X172183771Y-122204209D01*
X172414303Y-122108955D01*
X172590835Y-121932731D01*
X172686491Y-121702365D01*
X172686709Y-121452929D01*
X172591455Y-121222397D01*
X172415231Y-121045865D01*
X172184865Y-120950209D01*
X172071834Y-120950110D01*
X172001100Y-120879376D01*
X172001100Y-120801414D01*
X172020279Y-120797805D01*
X172131574Y-120726188D01*
X172206238Y-120616914D01*
X172232506Y-120487200D01*
X172232506Y-119187200D01*
X172209705Y-119066021D01*
X172138088Y-118954726D01*
X172028814Y-118880062D01*
X171899100Y-118853794D01*
X171199100Y-118853794D01*
X171077921Y-118876595D01*
X170966626Y-118948212D01*
X170891962Y-119057486D01*
X170865694Y-119187200D01*
X170865694Y-120487200D01*
X170888495Y-120608379D01*
X170960112Y-120719674D01*
X171069386Y-120794338D01*
X171097100Y-120799950D01*
X171097100Y-121066600D01*
X171131506Y-121239573D01*
X171229488Y-121386212D01*
X171432589Y-121589313D01*
X171432491Y-121701271D01*
X171527745Y-121931803D01*
X171703969Y-122108335D01*
X171789424Y-122143819D01*
X171757629Y-122143791D01*
X171527097Y-122239045D01*
X171350565Y-122415269D01*
X171254909Y-122645635D01*
X171254691Y-122895071D01*
X171320648Y-123054700D01*
X170887150Y-123054700D01*
X170728400Y-123213450D01*
X170728400Y-125062700D01*
X170748400Y-125062700D01*
X170748400Y-125316700D01*
X170728400Y-125316700D01*
X170728400Y-127165950D01*
X170887150Y-127324700D01*
X171527709Y-127324700D01*
X171761098Y-127228027D01*
X171939727Y-127049399D01*
X172036400Y-126816010D01*
X172036400Y-125475450D01*
X171877652Y-125316702D01*
X171978755Y-125316702D01*
X172046869Y-125384935D01*
X172277235Y-125480591D01*
X172515574Y-125480799D01*
X172556918Y-125489023D01*
X172461409Y-125719035D01*
X172461191Y-125968471D01*
X172556445Y-126199003D01*
X172674400Y-126317164D01*
X172674400Y-127266206D01*
X172708806Y-127439179D01*
X172806788Y-127585818D01*
X173661377Y-128440408D01*
X173560908Y-128682364D01*
X173560482Y-129170495D01*
X173746888Y-129621631D01*
X174091747Y-129967093D01*
X174542558Y-130154286D01*
X175030689Y-130154712D01*
X175481825Y-129968306D01*
X175827287Y-129623447D01*
X175895600Y-129458931D01*
X175895600Y-130935763D01*
X175828500Y-130773369D01*
X175483641Y-130427907D01*
X175032830Y-130240714D01*
X174544699Y-130240288D01*
X174093563Y-130426694D01*
X173748101Y-130771553D01*
X173646805Y-131015500D01*
X166984321Y-131015500D01*
X166984409Y-130914429D01*
X166889155Y-130683897D01*
X166712931Y-130507365D01*
X166482565Y-130411709D01*
X166233129Y-130411491D01*
X166002597Y-130506745D01*
X165826065Y-130682969D01*
X165730409Y-130913335D01*
X165730191Y-131162771D01*
X165825445Y-131393303D01*
X166001669Y-131569835D01*
X166232035Y-131665491D01*
X166345066Y-131665590D01*
X166466588Y-131787112D01*
X166613227Y-131885094D01*
X166786200Y-131919500D01*
X173646841Y-131919500D01*
X173746888Y-132161631D01*
X174091747Y-132507093D01*
X174542558Y-132694286D01*
X175030689Y-132694712D01*
X175481825Y-132508306D01*
X175827287Y-132163447D01*
X175895600Y-131998931D01*
X175895600Y-133475763D01*
X175828500Y-133313369D01*
X175483641Y-132967907D01*
X175032830Y-132780714D01*
X174544699Y-132780288D01*
X174093563Y-132966694D01*
X173748101Y-133311553D01*
X173560908Y-133762364D01*
X173560482Y-134250495D01*
X173746888Y-134701631D01*
X174091747Y-135047093D01*
X174210694Y-135096484D01*
X174210694Y-142003405D01*
X172125398Y-144088700D01*
X165554901Y-144088700D01*
X165178400Y-143712198D01*
X165178400Y-143623106D01*
X165401400Y-143623106D01*
X165522579Y-143600305D01*
X165601981Y-143549211D01*
X165671686Y-143596838D01*
X165801400Y-143623106D01*
X167401400Y-143623106D01*
X167522579Y-143600305D01*
X167601981Y-143549211D01*
X167671686Y-143596838D01*
X167801400Y-143623106D01*
X169401400Y-143623106D01*
X169522579Y-143600305D01*
X169601981Y-143549211D01*
X169671686Y-143596838D01*
X169801400Y-143623106D01*
X171401400Y-143623106D01*
X171522579Y-143600305D01*
X171633874Y-143528688D01*
X171708538Y-143419414D01*
X171734806Y-143289700D01*
X171734806Y-140289700D01*
X171712005Y-140168521D01*
X171640388Y-140057226D01*
X171531114Y-139982562D01*
X171401400Y-139956294D01*
X169801400Y-139956294D01*
X169680221Y-139979095D01*
X169600819Y-140030189D01*
X169531114Y-139982562D01*
X169401400Y-139956294D01*
X167801400Y-139956294D01*
X167680221Y-139979095D01*
X167600819Y-140030189D01*
X167531114Y-139982562D01*
X167401400Y-139956294D01*
X167053400Y-139956294D01*
X167053400Y-137886700D01*
X167018994Y-137713727D01*
X167018994Y-137713726D01*
X166921012Y-137567087D01*
X166514411Y-137160487D01*
X166514509Y-137048529D01*
X166419255Y-136817997D01*
X166243031Y-136641465D01*
X166012665Y-136545809D01*
X165763229Y-136545591D01*
X165532697Y-136640845D01*
X165356165Y-136817069D01*
X165260509Y-137047435D01*
X165260291Y-137296871D01*
X165355545Y-137527403D01*
X165531769Y-137703935D01*
X165762135Y-137799591D01*
X165875165Y-137799690D01*
X166149400Y-138073925D01*
X166149400Y-139956294D01*
X165801400Y-139956294D01*
X165680221Y-139979095D01*
X165600819Y-140030189D01*
X165531114Y-139982562D01*
X165401400Y-139956294D01*
X163801400Y-139956294D01*
X163680221Y-139979095D01*
X163600819Y-140030189D01*
X163531114Y-139982562D01*
X163401400Y-139956294D01*
X161801400Y-139956294D01*
X161680221Y-139979095D01*
X161600819Y-140030189D01*
X161531114Y-139982562D01*
X161401400Y-139956294D01*
X159950618Y-139956294D01*
X159939727Y-139930001D01*
X159761098Y-139751373D01*
X159527709Y-139654700D01*
X158887150Y-139654700D01*
X158728400Y-139813450D01*
X158728400Y-141662700D01*
X158748400Y-141662700D01*
X158748400Y-141916700D01*
X158728400Y-141916700D01*
X158728400Y-143765950D01*
X158887150Y-143924700D01*
X159527709Y-143924700D01*
X159761098Y-143828027D01*
X159939727Y-143649399D01*
X159950618Y-143623106D01*
X161401400Y-143623106D01*
X161522579Y-143600305D01*
X161601981Y-143549211D01*
X161671686Y-143596838D01*
X161801400Y-143623106D01*
X163401400Y-143623106D01*
X163522579Y-143600305D01*
X163601981Y-143549211D01*
X163671686Y-143596838D01*
X163801400Y-143623106D01*
X164024400Y-143623106D01*
X164024400Y-143951195D01*
X164024399Y-143951200D01*
X164024400Y-143951205D01*
X164024400Y-147244499D01*
X163281236Y-146501334D01*
X163231555Y-146381097D01*
X163055331Y-146204565D01*
X162824965Y-146108909D01*
X162575529Y-146108691D01*
X162344997Y-146203945D01*
X162168465Y-146380169D01*
X162072809Y-146610535D01*
X162072591Y-146859971D01*
X162167845Y-147090503D01*
X162344069Y-147267035D01*
X162465253Y-147317355D01*
X163202200Y-148054301D01*
X163202200Y-149555195D01*
X163202199Y-149555200D01*
X163246122Y-149776008D01*
X163371199Y-149963201D01*
X165848994Y-152440996D01*
X165848994Y-152795700D01*
X165871795Y-152916879D01*
X165943412Y-153028174D01*
X166052686Y-153102838D01*
X166182400Y-153129106D01*
X168182400Y-153129106D01*
X168303579Y-153106305D01*
X168414874Y-153034688D01*
X168489538Y-152925414D01*
X168515806Y-152795700D01*
X168515806Y-151295700D01*
X168493005Y-151174521D01*
X168421388Y-151063226D01*
X168312114Y-150988562D01*
X168182400Y-150962294D01*
X166182400Y-150962294D01*
X166061221Y-150985095D01*
X166039241Y-150999239D01*
X164356200Y-149316198D01*
X164356200Y-148586002D01*
X165848994Y-150078795D01*
X165848994Y-150495700D01*
X165871795Y-150616879D01*
X165943412Y-150728174D01*
X166052686Y-150802838D01*
X166182400Y-150829106D01*
X168182400Y-150829106D01*
X168303579Y-150806305D01*
X168414874Y-150734688D01*
X168489538Y-150625414D01*
X168515806Y-150495700D01*
X168515806Y-150322700D01*
X172148994Y-150322700D01*
X172148994Y-151645700D01*
X172171795Y-151766879D01*
X172243412Y-151878174D01*
X172352686Y-151952838D01*
X172482400Y-151979106D01*
X174482400Y-151979106D01*
X174603579Y-151956305D01*
X174714874Y-151884688D01*
X174789538Y-151775414D01*
X174815806Y-151645700D01*
X174815806Y-147845700D01*
X174793005Y-147724521D01*
X174721388Y-147613226D01*
X174612114Y-147538562D01*
X174482400Y-147512294D01*
X172482400Y-147512294D01*
X172361221Y-147535095D01*
X172249926Y-147606712D01*
X172175262Y-147715986D01*
X172148994Y-147845700D01*
X172148994Y-149168700D01*
X168515806Y-149168700D01*
X168515806Y-148995700D01*
X168493005Y-148874521D01*
X168431956Y-148779649D01*
X168542098Y-148734027D01*
X168720727Y-148555399D01*
X168817400Y-148322010D01*
X168817400Y-147731450D01*
X168658650Y-147572700D01*
X167309400Y-147572700D01*
X167309400Y-147592700D01*
X167055400Y-147592700D01*
X167055400Y-147572700D01*
X165706150Y-147572700D01*
X165547400Y-147731450D01*
X165547400Y-148145198D01*
X165178400Y-147776198D01*
X165178400Y-146569390D01*
X165547400Y-146569390D01*
X165547400Y-147159950D01*
X165706150Y-147318700D01*
X167055400Y-147318700D01*
X167055400Y-146219450D01*
X167309400Y-146219450D01*
X167309400Y-147318700D01*
X168658650Y-147318700D01*
X168817400Y-147159950D01*
X168817400Y-146569390D01*
X168720727Y-146336001D01*
X168542098Y-146157373D01*
X168308709Y-146060700D01*
X167468150Y-146060700D01*
X167309400Y-146219450D01*
X167055400Y-146219450D01*
X166896650Y-146060700D01*
X166056091Y-146060700D01*
X165822702Y-146157373D01*
X165644073Y-146336001D01*
X165547400Y-146569390D01*
X165178400Y-146569390D01*
X165178400Y-145215350D01*
X165315900Y-145242701D01*
X165315905Y-145242700D01*
X172364395Y-145242700D01*
X172364400Y-145242701D01*
X172585208Y-145198778D01*
X172772401Y-145073701D01*
X175195692Y-142650409D01*
X175195695Y-142650407D01*
X175320772Y-142463214D01*
X175364694Y-142242406D01*
X175364694Y-135096704D01*
X175481825Y-135048306D01*
X175827287Y-134703447D01*
X175895600Y-134538931D01*
X175895600Y-154242700D01*
X160420300Y-154242700D01*
X160505698Y-154207327D01*
X160684327Y-154028699D01*
X160781000Y-153795310D01*
X160781000Y-150399750D01*
X160622250Y-150241000D01*
X160420465Y-150241000D01*
X160414920Y-150114000D01*
X160420465Y-149987000D01*
X160622250Y-149987000D01*
X160781000Y-149828250D01*
X160781000Y-146432690D01*
X160684327Y-146199301D01*
X160505698Y-146020673D01*
X160272309Y-145924000D01*
X159256750Y-145924000D01*
X159181000Y-145999750D01*
X159105250Y-145924000D01*
X157669691Y-145924000D01*
X157436302Y-146020673D01*
X157410500Y-146046475D01*
X157410500Y-143796825D01*
X157441702Y-143828027D01*
X157675091Y-143924700D01*
X158315650Y-143924700D01*
X158474400Y-143765950D01*
X158474400Y-141916700D01*
X158454400Y-141916700D01*
X158454400Y-141662700D01*
X158474400Y-141662700D01*
X158474400Y-139813450D01*
X158315650Y-139654700D01*
X157675091Y-139654700D01*
X157441702Y-139751373D01*
X157263073Y-139930001D01*
X157252182Y-139956294D01*
X155801400Y-139956294D01*
X155680221Y-139979095D01*
X155568926Y-140050712D01*
X155494262Y-140159986D01*
X155467994Y-140289700D01*
X155467994Y-143289700D01*
X155490795Y-143410879D01*
X155562412Y-143522174D01*
X155671686Y-143596838D01*
X155771400Y-143617031D01*
X155771400Y-146046375D01*
X155745698Y-146020673D01*
X155512309Y-145924000D01*
X154076750Y-145924000D01*
X154001000Y-145999750D01*
X153925250Y-145924000D01*
X152909691Y-145924000D01*
X152676302Y-146020673D01*
X152497673Y-146199301D01*
X152401000Y-146432690D01*
X152401000Y-149828250D01*
X152559750Y-149987000D01*
X152761535Y-149987000D01*
X152767080Y-150114000D01*
X152761535Y-150241000D01*
X152559750Y-150241000D01*
X152401000Y-150399750D01*
X152401000Y-153795310D01*
X152497673Y-154028699D01*
X152676302Y-154207327D01*
X152761700Y-154242700D01*
X150604400Y-154242700D01*
X150604400Y-134250495D01*
X150700482Y-134250495D01*
X150886888Y-134701631D01*
X151231747Y-135047093D01*
X151350694Y-135096484D01*
X151350694Y-141208889D01*
X151350693Y-141208894D01*
X151394616Y-141429702D01*
X151519693Y-141616895D01*
X154396563Y-144493764D01*
X154446245Y-144614003D01*
X154622469Y-144790535D01*
X154852835Y-144886191D01*
X155102271Y-144886409D01*
X155332803Y-144791155D01*
X155509335Y-144614931D01*
X155604991Y-144384565D01*
X155605209Y-144135129D01*
X155509955Y-143904597D01*
X155333731Y-143728065D01*
X155212546Y-143677745D01*
X152504694Y-140969892D01*
X152504694Y-135096704D01*
X152621825Y-135048306D01*
X152967287Y-134703447D01*
X153154480Y-134252636D01*
X153154906Y-133764505D01*
X152968500Y-133313369D01*
X152623641Y-132967907D01*
X152485232Y-132910435D01*
X152741842Y-132804143D01*
X152828248Y-132547659D01*
X151927694Y-131647105D01*
X151027140Y-132547659D01*
X151113546Y-132804143D01*
X151385853Y-132903769D01*
X151233563Y-132966694D01*
X150888101Y-133311553D01*
X150700908Y-133762364D01*
X150700482Y-134250495D01*
X150604400Y-134250495D01*
X150604400Y-132286145D01*
X150847535Y-132368054D01*
X151748089Y-131467500D01*
X152107299Y-131467500D01*
X153007853Y-132368054D01*
X153264337Y-132281648D01*
X153474152Y-131708164D01*
X153448533Y-131098040D01*
X153264337Y-130653352D01*
X153007853Y-130566946D01*
X152107299Y-131467500D01*
X151748089Y-131467500D01*
X150847535Y-130566946D01*
X150604400Y-130648855D01*
X150604400Y-126630495D01*
X150700482Y-126630495D01*
X150886888Y-127081631D01*
X151231747Y-127427093D01*
X151682558Y-127614286D01*
X152170689Y-127614712D01*
X152621825Y-127428306D01*
X152967287Y-127083447D01*
X153154480Y-126632636D01*
X153154906Y-126144505D01*
X153092720Y-125994004D01*
X153989612Y-125097112D01*
X154005400Y-125073484D01*
X154005400Y-127384275D01*
X153023411Y-128366264D01*
X152968500Y-128233369D01*
X152623641Y-127887907D01*
X152172830Y-127700714D01*
X151684699Y-127700288D01*
X151233563Y-127886694D01*
X150888101Y-128231553D01*
X150700908Y-128682364D01*
X150700482Y-129170495D01*
X150886888Y-129621631D01*
X151231747Y-129967093D01*
X151370156Y-130024565D01*
X151113546Y-130130857D01*
X151027140Y-130387341D01*
X151927694Y-131287895D01*
X152828248Y-130387341D01*
X152741842Y-130130857D01*
X152469535Y-130031231D01*
X152621825Y-129968306D01*
X152967287Y-129623447D01*
X153068583Y-129379500D01*
X153101400Y-129379500D01*
X153274373Y-129345094D01*
X153421012Y-129247112D01*
X154777013Y-127891112D01*
X154874994Y-127744473D01*
X154909400Y-127571500D01*
X154909400Y-125475450D01*
X155166400Y-125475450D01*
X155166400Y-126816010D01*
X155263073Y-127049399D01*
X155441702Y-127228027D01*
X155675091Y-127324700D01*
X156315650Y-127324700D01*
X156474400Y-127165950D01*
X156474400Y-125316700D01*
X155325150Y-125316700D01*
X155166400Y-125475450D01*
X154909400Y-125475450D01*
X154909400Y-123563390D01*
X155166400Y-123563390D01*
X155166400Y-124903950D01*
X155325150Y-125062700D01*
X156474400Y-125062700D01*
X156474400Y-123213450D01*
X156728400Y-123213450D01*
X156728400Y-125062700D01*
X156748400Y-125062700D01*
X156748400Y-125316700D01*
X156728400Y-125316700D01*
X156728400Y-127165950D01*
X156887150Y-127324700D01*
X157527709Y-127324700D01*
X157761098Y-127228027D01*
X157939727Y-127049399D01*
X157950618Y-127023106D01*
X159401400Y-127023106D01*
X159522579Y-127000305D01*
X159601981Y-126949211D01*
X159671686Y-126996838D01*
X159801400Y-127023106D01*
X161401400Y-127023106D01*
X161522579Y-127000305D01*
X161601981Y-126949211D01*
X161671686Y-126996838D01*
X161801400Y-127023106D01*
X163401400Y-127023106D01*
X163522579Y-127000305D01*
X163601981Y-126949211D01*
X163671686Y-126996838D01*
X163801400Y-127023106D01*
X165401400Y-127023106D01*
X165522579Y-127000305D01*
X165601981Y-126949211D01*
X165671686Y-126996838D01*
X165801400Y-127023106D01*
X167401400Y-127023106D01*
X167522579Y-127000305D01*
X167601981Y-126949211D01*
X167671686Y-126996838D01*
X167801400Y-127023106D01*
X169252182Y-127023106D01*
X169263073Y-127049399D01*
X169441702Y-127228027D01*
X169675091Y-127324700D01*
X170315650Y-127324700D01*
X170474400Y-127165950D01*
X170474400Y-125316700D01*
X170454400Y-125316700D01*
X170454400Y-125062700D01*
X170474400Y-125062700D01*
X170474400Y-123213450D01*
X170315650Y-123054700D01*
X169675091Y-123054700D01*
X169441702Y-123151373D01*
X169263073Y-123330001D01*
X169252182Y-123356294D01*
X169090830Y-123356294D01*
X169968713Y-122478412D01*
X170066694Y-122331773D01*
X170101100Y-122158800D01*
X170101100Y-120801414D01*
X170120279Y-120797805D01*
X170231574Y-120726188D01*
X170306238Y-120616914D01*
X170332506Y-120487200D01*
X170332506Y-119187200D01*
X170309705Y-119066021D01*
X170238088Y-118954726D01*
X170128814Y-118880062D01*
X169999100Y-118853794D01*
X169299100Y-118853794D01*
X169177921Y-118876595D01*
X169069900Y-118946105D01*
X169069900Y-116343924D01*
X169660519Y-115753306D01*
X170354700Y-115753306D01*
X170475879Y-115730505D01*
X170587174Y-115658888D01*
X170661838Y-115549614D01*
X170688106Y-115419900D01*
X170688106Y-114119900D01*
X171221294Y-114119900D01*
X171221294Y-115419900D01*
X171244095Y-115541079D01*
X171315712Y-115652374D01*
X171424986Y-115727038D01*
X171452700Y-115732650D01*
X171452700Y-117231200D01*
X171487106Y-117404173D01*
X171585088Y-117550812D01*
X172308889Y-118274613D01*
X172308791Y-118386571D01*
X172404045Y-118617103D01*
X172580269Y-118793635D01*
X172810635Y-118889291D01*
X173060071Y-118889509D01*
X173290603Y-118794255D01*
X173467135Y-118618031D01*
X173562791Y-118387665D01*
X173563009Y-118138229D01*
X173467755Y-117907697D01*
X173291531Y-117731165D01*
X173061165Y-117635509D01*
X172948134Y-117635410D01*
X172356700Y-117043976D01*
X172356700Y-115734114D01*
X172375879Y-115730505D01*
X172487174Y-115658888D01*
X172561838Y-115549614D01*
X172588106Y-115419900D01*
X172588106Y-114119900D01*
X172565305Y-113998721D01*
X172493688Y-113887426D01*
X172384414Y-113812762D01*
X172254700Y-113786494D01*
X171554700Y-113786494D01*
X171433521Y-113809295D01*
X171322226Y-113880912D01*
X171247562Y-113990186D01*
X171221294Y-114119900D01*
X170688106Y-114119900D01*
X170665305Y-113998721D01*
X170593688Y-113887426D01*
X170484414Y-113812762D01*
X170354700Y-113786494D01*
X169654700Y-113786494D01*
X169533521Y-113809295D01*
X169422226Y-113880912D01*
X169347562Y-113990186D01*
X169321294Y-114119900D01*
X169321294Y-114814081D01*
X168356200Y-115779176D01*
X168356200Y-115645214D01*
X168375379Y-115641605D01*
X168486674Y-115569988D01*
X168561338Y-115460714D01*
X168587606Y-115331000D01*
X168587606Y-114031000D01*
X168564805Y-113909821D01*
X168493188Y-113798526D01*
X168383914Y-113723862D01*
X168254200Y-113697594D01*
X167554200Y-113697594D01*
X167433021Y-113720395D01*
X167321726Y-113792012D01*
X167247062Y-113901286D01*
X167220794Y-114031000D01*
X167220794Y-115331000D01*
X167243595Y-115452179D01*
X167315212Y-115563474D01*
X167424486Y-115638138D01*
X167452200Y-115643750D01*
X167452200Y-115944076D01*
X166370487Y-117025789D01*
X166258529Y-117025691D01*
X166027997Y-117120945D01*
X165851465Y-117297169D01*
X165755809Y-117527535D01*
X165755591Y-117776971D01*
X165850845Y-118007503D01*
X166027069Y-118184035D01*
X166257435Y-118279691D01*
X166506871Y-118279909D01*
X166737403Y-118184655D01*
X166913935Y-118008431D01*
X167009591Y-117778065D01*
X167009690Y-117665034D01*
X168165900Y-116508824D01*
X168165900Y-121326375D01*
X168103510Y-121388765D01*
X168152591Y-121270565D01*
X168152809Y-121021129D01*
X168057555Y-120790597D01*
X167911700Y-120644487D01*
X167911700Y-120623614D01*
X167930879Y-120620005D01*
X168042174Y-120548388D01*
X168116838Y-120439114D01*
X168143106Y-120309400D01*
X168143106Y-119009400D01*
X168120305Y-118888221D01*
X168048688Y-118776926D01*
X167939414Y-118702262D01*
X167809700Y-118675994D01*
X167109700Y-118675994D01*
X166988521Y-118698795D01*
X166877226Y-118770412D01*
X166802562Y-118879686D01*
X166776294Y-119009400D01*
X166776294Y-120309400D01*
X166799095Y-120430579D01*
X166870712Y-120541874D01*
X166979986Y-120616538D01*
X167007700Y-120622150D01*
X167007700Y-120776457D01*
X166994465Y-120789669D01*
X166898809Y-121020035D01*
X166898591Y-121269471D01*
X166993845Y-121500003D01*
X167170069Y-121676535D01*
X167400435Y-121772191D01*
X167649871Y-121772409D01*
X167769152Y-121723123D01*
X166281788Y-123210488D01*
X166184363Y-123356294D01*
X165801400Y-123356294D01*
X165680221Y-123379095D01*
X165600819Y-123430189D01*
X165531114Y-123382562D01*
X165401400Y-123356294D01*
X165053400Y-123356294D01*
X165053400Y-120804924D01*
X165215518Y-120642806D01*
X165909700Y-120642806D01*
X166030879Y-120620005D01*
X166142174Y-120548388D01*
X166216838Y-120439114D01*
X166243106Y-120309400D01*
X166243106Y-119009400D01*
X166220305Y-118888221D01*
X166148688Y-118776926D01*
X166039414Y-118702262D01*
X165909700Y-118675994D01*
X165209700Y-118675994D01*
X165088521Y-118698795D01*
X164977226Y-118770412D01*
X164902562Y-118879686D01*
X164876294Y-119009400D01*
X164876294Y-119703582D01*
X164281788Y-120298088D01*
X164183806Y-120444727D01*
X164149400Y-120617700D01*
X164149400Y-123356294D01*
X163801400Y-123356294D01*
X163680221Y-123379095D01*
X163600819Y-123430189D01*
X163531114Y-123382562D01*
X163401400Y-123356294D01*
X163053400Y-123356294D01*
X163053400Y-120732324D01*
X164429012Y-119356712D01*
X164526994Y-119210073D01*
X164561400Y-119037100D01*
X164561400Y-116763024D01*
X165660018Y-115664406D01*
X166354200Y-115664406D01*
X166475379Y-115641605D01*
X166586674Y-115569988D01*
X166661338Y-115460714D01*
X166687606Y-115331000D01*
X166687606Y-114031000D01*
X166664805Y-113909821D01*
X166593188Y-113798526D01*
X166483914Y-113723862D01*
X166354200Y-113697594D01*
X165654200Y-113697594D01*
X165533021Y-113720395D01*
X165421726Y-113792012D01*
X165347062Y-113901286D01*
X165320794Y-114031000D01*
X165320794Y-114725182D01*
X163789788Y-116256188D01*
X163691806Y-116402827D01*
X163657400Y-116575800D01*
X163657400Y-118849876D01*
X162281788Y-120225488D01*
X162183806Y-120372127D01*
X162149400Y-120545100D01*
X162149400Y-123356294D01*
X161801400Y-123356294D01*
X161680221Y-123379095D01*
X161600819Y-123430189D01*
X161531114Y-123382562D01*
X161401400Y-123356294D01*
X161053400Y-123356294D01*
X161053400Y-119085100D01*
X161018994Y-118912127D01*
X160947862Y-118805671D01*
X161793191Y-118805671D01*
X161888445Y-119036203D01*
X162064669Y-119212735D01*
X162295035Y-119308391D01*
X162544471Y-119308609D01*
X162775003Y-119213355D01*
X162951535Y-119037131D01*
X163047191Y-118806765D01*
X163047409Y-118557329D01*
X162952155Y-118326797D01*
X162872300Y-118246802D01*
X162872300Y-116963724D01*
X164058212Y-115777812D01*
X164156194Y-115631173D01*
X164178199Y-115520547D01*
X164209779Y-115514605D01*
X164321074Y-115442988D01*
X164395738Y-115333714D01*
X164422006Y-115204000D01*
X164422006Y-113904000D01*
X164399205Y-113782821D01*
X164327588Y-113671526D01*
X164218314Y-113596862D01*
X164088600Y-113570594D01*
X163388600Y-113570594D01*
X163267421Y-113593395D01*
X163156126Y-113665012D01*
X163081462Y-113774286D01*
X163055194Y-113904000D01*
X163055194Y-115204000D01*
X163077995Y-115325179D01*
X163138449Y-115419127D01*
X162100688Y-116456888D01*
X162002706Y-116603527D01*
X161968300Y-116776500D01*
X161968300Y-118246772D01*
X161889065Y-118325869D01*
X161793409Y-118556235D01*
X161793191Y-118805671D01*
X160947862Y-118805671D01*
X160921012Y-118765488D01*
X160202511Y-118046987D01*
X160202609Y-117935029D01*
X160107355Y-117704497D01*
X159931131Y-117527965D01*
X159700765Y-117432309D01*
X159451329Y-117432091D01*
X159220797Y-117527345D01*
X159044265Y-117703569D01*
X158948609Y-117933935D01*
X158948391Y-118183371D01*
X159043645Y-118413903D01*
X159219869Y-118590435D01*
X159450235Y-118686091D01*
X159563266Y-118686190D01*
X160149400Y-119272324D01*
X160149400Y-123356294D01*
X159801400Y-123356294D01*
X159680221Y-123379095D01*
X159600819Y-123430189D01*
X159531114Y-123382562D01*
X159401400Y-123356294D01*
X157950618Y-123356294D01*
X157939727Y-123330001D01*
X157761098Y-123151373D01*
X157527709Y-123054700D01*
X156887150Y-123054700D01*
X156728400Y-123213450D01*
X156474400Y-123213450D01*
X156315650Y-123054700D01*
X155675091Y-123054700D01*
X155441702Y-123151373D01*
X155263073Y-123330001D01*
X155166400Y-123563390D01*
X154909400Y-123563390D01*
X154909400Y-120903224D01*
X160367225Y-115445400D01*
X161262676Y-115445400D01*
X161358886Y-115511138D01*
X161488600Y-115537406D01*
X162188600Y-115537406D01*
X162309779Y-115514605D01*
X162421074Y-115442988D01*
X162495738Y-115333714D01*
X162522006Y-115204000D01*
X162522006Y-113904000D01*
X162499205Y-113782821D01*
X162427588Y-113671526D01*
X162318314Y-113596862D01*
X162188600Y-113570594D01*
X161488600Y-113570594D01*
X161367421Y-113593395D01*
X161256126Y-113665012D01*
X161181462Y-113774286D01*
X161155194Y-113904000D01*
X161155194Y-114541400D01*
X160180000Y-114541400D01*
X160007027Y-114575806D01*
X159860388Y-114673787D01*
X154137788Y-120396388D01*
X154122000Y-120420016D01*
X154122000Y-116356624D01*
X155043019Y-115435605D01*
X155092612Y-115512674D01*
X155201886Y-115587338D01*
X155331600Y-115613606D01*
X156031600Y-115613606D01*
X156152779Y-115590805D01*
X156264074Y-115519188D01*
X156338738Y-115409914D01*
X156365006Y-115280200D01*
X156365006Y-113980200D01*
X156898194Y-113980200D01*
X156898194Y-115280200D01*
X156920995Y-115401379D01*
X156992612Y-115512674D01*
X157101886Y-115587338D01*
X157231600Y-115613606D01*
X157931600Y-115613606D01*
X158052779Y-115590805D01*
X158164074Y-115519188D01*
X158238738Y-115409914D01*
X158265006Y-115280200D01*
X158265006Y-114961388D01*
X158332445Y-115124603D01*
X158508669Y-115301135D01*
X158739035Y-115396791D01*
X158988471Y-115397009D01*
X159219003Y-115301755D01*
X159395535Y-115125531D01*
X159491191Y-114895165D01*
X159491409Y-114645729D01*
X159396155Y-114415197D01*
X159219931Y-114238665D01*
X158989565Y-114143009D01*
X158876535Y-114142910D01*
X158650512Y-113916888D01*
X158503873Y-113818906D01*
X158330900Y-113784500D01*
X158194252Y-113784500D01*
X158170588Y-113747726D01*
X158061314Y-113673062D01*
X157931600Y-113646794D01*
X157231600Y-113646794D01*
X157110421Y-113669595D01*
X156999126Y-113741212D01*
X156924462Y-113850486D01*
X156898194Y-113980200D01*
X156365006Y-113980200D01*
X156342205Y-113859021D01*
X156270588Y-113747726D01*
X156161314Y-113673062D01*
X156031600Y-113646794D01*
X155331600Y-113646794D01*
X155210421Y-113669595D01*
X155099126Y-113741212D01*
X155024462Y-113850486D01*
X154998194Y-113980200D01*
X154998194Y-114201981D01*
X153350388Y-115849788D01*
X153252406Y-115996427D01*
X153218000Y-116169400D01*
X153218000Y-124590276D01*
X152508274Y-125300002D01*
X152172830Y-125160714D01*
X151684699Y-125160288D01*
X151233563Y-125346694D01*
X150888101Y-125691553D01*
X150700908Y-126142364D01*
X150700482Y-126630495D01*
X150604400Y-126630495D01*
X150604400Y-124090495D01*
X150700482Y-124090495D01*
X150886888Y-124541631D01*
X151231747Y-124887093D01*
X151682558Y-125074286D01*
X152170689Y-125074712D01*
X152621825Y-124888306D01*
X152967287Y-124543447D01*
X153154480Y-124092636D01*
X153154906Y-123604505D01*
X152968500Y-123153369D01*
X152623641Y-122807907D01*
X152172830Y-122620714D01*
X151684699Y-122620288D01*
X151233563Y-122806694D01*
X150888101Y-123151553D01*
X150700908Y-123602364D01*
X150700482Y-124090495D01*
X150604400Y-124090495D01*
X150604400Y-121550495D01*
X150700482Y-121550495D01*
X150886888Y-122001631D01*
X151231747Y-122347093D01*
X151682558Y-122534286D01*
X152170689Y-122534712D01*
X152621825Y-122348306D01*
X152967287Y-122003447D01*
X153154480Y-121552636D01*
X153154906Y-121064505D01*
X152968500Y-120613369D01*
X152623641Y-120267907D01*
X152172830Y-120080714D01*
X151684699Y-120080288D01*
X151233563Y-120266694D01*
X150888101Y-120611553D01*
X150700908Y-121062364D01*
X150700482Y-121550495D01*
X150604400Y-121550495D01*
X150604400Y-119010495D01*
X150700482Y-119010495D01*
X150886888Y-119461631D01*
X151231747Y-119807093D01*
X151682558Y-119994286D01*
X152170689Y-119994712D01*
X152621825Y-119808306D01*
X152967287Y-119463447D01*
X153154480Y-119012636D01*
X153154906Y-118524505D01*
X152968500Y-118073369D01*
X152623641Y-117727907D01*
X152172830Y-117540714D01*
X151684699Y-117540288D01*
X151233563Y-117726694D01*
X150888101Y-118071553D01*
X150700908Y-118522364D01*
X150700482Y-119010495D01*
X150604400Y-119010495D01*
X150604400Y-116470495D01*
X150700482Y-116470495D01*
X150886888Y-116921631D01*
X151231747Y-117267093D01*
X151682558Y-117454286D01*
X152170689Y-117454712D01*
X152621825Y-117268306D01*
X152967287Y-116923447D01*
X153154480Y-116472636D01*
X153154906Y-115984505D01*
X152968500Y-115533369D01*
X152623641Y-115187907D01*
X152172830Y-115000714D01*
X151684699Y-115000288D01*
X151233563Y-115186694D01*
X150888101Y-115531553D01*
X150700908Y-115982364D01*
X150700482Y-116470495D01*
X150604400Y-116470495D01*
X150604400Y-111479400D01*
X175895600Y-111479400D01*
X175895600Y-115695763D01*
M02*
